<?xml version="1.0" encoding="utf-8" standalone="no"?>
<!DOCTYPE svg PUBLIC "-//W3C//DTD SVG 1.1//EN"
  "http://www.w3.org/Graphics/SVG/1.1/DTD/svg11.dtd">
<!-- Created with matplotlib (https://matplotlib.org/) -->
<svg height="432pt" version="1.1" viewBox="0 0 1395.951885 432" width="1395.951885pt" xmlns="http://www.w3.org/2000/svg" xmlns:xlink="http://www.w3.org/1999/xlink">
 <defs>
  <style type="text/css">
*{stroke-linecap:butt;stroke-linejoin:round;}
  </style>
 </defs>
 <g id="figure_1">
  <g id="patch_1">
   <path d="M 0 432 
L 1395.951885 432 
L 1395.951885 0 
L 0 0 
z
" style="fill:#ffffff;"/>
  </g>
  <g id="axes_1">
   <g id="patch_2">
    <path clip-path="url(#p77ce64cc0f)" d="M 777.293053 216 
L 902.071528 216 
L 902.071528 36 
L 777.293053 36 
z
" style="fill:#cccccc;"/>
   </g>
   <g id="patch_3">
    <path clip-path="url(#p77ce64cc0f)" d="M 1248.786903 216 
L 1359.951885 216 
L 1359.951885 36 
L 1248.786903 36 
z
" style="fill:#cccccc;"/>
   </g>
   <g id="patch_4">
    <path clip-path="url(#p77ce64cc0f)" d="M 1668.840169 216 
L 1767.876909 216 
L 1767.876909 36 
L 1668.840169 36 
z
" style="fill:#cccccc;"/>
   </g>
   <g id="patch_5">
    <path clip-path="url(#p77ce64cc0f)" d="M 2043.065085 216 
L 2131.29679 216 
L 2131.29679 36 
L 2043.065085 36 
z
" style="fill:#cccccc;"/>
   </g>
   <g id="patch_6">
    <path clip-path="url(#p77ce64cc0f)" d="M 2529.260821 396 
L 2603.454545 396 
L 2603.454545 36 
L 2529.260821 36 
z
" style="fill:#cccccc;"/>
   </g>
   <g id="patch_7">
    <path clip-path="url(#p77ce64cc0f)" d="M 2938.101072 216 
L 3000.490309 216 
L 3000.490309 36 
L 2938.101072 36 
z
" style="fill:#cccccc;"/>
   </g>
   <g id="patch_8">
    <path clip-path="url(#p77ce64cc0f)" d="M 3173.847997 216 
L 3229.430488 216 
L 3229.430488 36 
L 3173.847997 36 
z
" style="fill:#cccccc;"/>
   </g>
   <g id="patch_9">
    <path clip-path="url(#p77ce64cc0f)" d="M 3383.87463 216 
L 3433.393 216 
L 3433.393 36 
L 3383.87463 36 
z
" style="fill:#cccccc;"/>
   </g>
   <g id="patch_10">
    <path clip-path="url(#p77ce64cc0f)" d="M 3570.987088 216 
L 3615.102941 216 
L 3615.102941 36 
L 3570.987088 36 
z
" style="fill:#cccccc;"/>
   </g>
   <g id="line2d_1">
    <path clip-path="url(#p77ce64cc0f)" d="M 108 396 
L 108 36 
" style="fill:none;stroke:#000000;stroke-width:10;"/>
   </g>
   <g id="line2d_2">
    <path clip-path="url(#p77ce64cc0f)" style="fill:none;stroke:#000000;stroke-width:5;"/>
   </g>
   <g id="line2d_3">
    <path clip-path="url(#p77ce64cc0f)" d="M 36 396 
L 36 36 
" style="fill:none;stroke:#000000;stroke-width:3;"/>
   </g>
   <g id="line2d_4">
    <path clip-path="url(#p77ce64cc0f)" d="M 108 396 
L 108 36 
" style="fill:none;stroke:#000000;stroke-width:3;"/>
   </g>
   <g id="line2d_5">
    <path clip-path="url(#p77ce64cc0f)" d="M 388.118203 396 
L 388.118203 36 
" style="fill:none;stroke:#000000;stroke-width:3;"/>
   </g>
   <g id="line2d_6">
    <path clip-path="url(#p77ce64cc0f)" d="M 652.514579 396 
L 652.514579 36 
" style="fill:none;stroke:#000000;stroke-width:3;"/>
   </g>
   <g id="line2d_7">
    <path clip-path="url(#p77ce64cc0f)" d="M 902.071528 396 
L 902.071528 36 
" style="fill:none;stroke:#000000;stroke-width:3;"/>
   </g>
   <g id="line2d_8">
    <path clip-path="url(#p77ce64cc0f)" d="M 1137.62192 396 
L 1137.62192 36 
" style="fill:none;stroke:#000000;stroke-width:3;"/>
   </g>
   <g id="line2d_9">
    <path clip-path="url(#p77ce64cc0f)" d="M 1359.951885 396 
L 1359.951885 36 
" style="fill:none;stroke:#000000;stroke-width:3;"/>
   </g>
   <g id="line2d_10">
    <path clip-path="url(#p77ce64cc0f)" d="M 36 396 
L 1396.951885 396 
" style="fill:none;stroke:#808080;stroke-linecap:square;stroke-width:3;"/>
   </g>
   <g id="line2d_11">
    <path clip-path="url(#p77ce64cc0f)" d="M 36 324 
L 1396.951885 324 
" style="fill:none;stroke:#808080;stroke-linecap:square;stroke-width:3;"/>
   </g>
   <g id="line2d_12">
    <path clip-path="url(#p77ce64cc0f)" d="M 36 252 
L 1396.951885 252 
" style="fill:none;stroke:#808080;stroke-linecap:square;stroke-width:3;"/>
   </g>
   <g id="line2d_13">
    <path clip-path="url(#p77ce64cc0f)" d="M 36 180 
L 1396.951885 180 
" style="fill:none;stroke:#808080;stroke-linecap:square;stroke-width:3;"/>
   </g>
   <g id="line2d_14">
    <path clip-path="url(#p77ce64cc0f)" d="M 36 108 
L 1396.951885 108 
" style="fill:none;stroke:#808080;stroke-linecap:square;stroke-width:3;"/>
   </g>
   <g id="line2d_15">
    <path clip-path="url(#p77ce64cc0f)" d="M 36 36 
L 1396.951885 36 
" style="fill:none;stroke:#808080;stroke-linecap:square;stroke-width:3;"/>
   </g>
   <g id="text_1">
    <!-- -1 -->
    <defs>
     <path d="M 4.890625 31.390625 
L 31.203125 31.390625 
L 31.203125 23.390625 
L 4.890625 23.390625 
z
" id="DejaVuSans-45"/>
     <path d="M 12.40625 8.296875 
L 28.515625 8.296875 
L 28.515625 63.921875 
L 10.984375 60.40625 
L 10.984375 69.390625 
L 28.421875 72.90625 
L 38.28125 72.90625 
L 38.28125 8.296875 
L 54.390625 8.296875 
L 54.390625 0 
L 12.40625 0 
z
" id="DejaVuSans-49"/>
    </defs>
    <g style="fill:#0000ff;" transform="translate(27.275977 428.521214)scale(0.175 -0.175)">
     <use xlink:href="#DejaVuSans-45"/>
     <use x="36.083984" xlink:href="#DejaVuSans-49"/>
    </g>
   </g>
   <g id="text_2">
    <!-- 0 -->
    <defs>
     <path d="M 31.78125 66.40625 
Q 24.171875 66.40625 20.328125 58.90625 
Q 16.5 51.421875 16.5 36.375 
Q 16.5 21.390625 20.328125 13.890625 
Q 24.171875 6.390625 31.78125 6.390625 
Q 39.453125 6.390625 43.28125 13.890625 
Q 47.125 21.390625 47.125 36.375 
Q 47.125 51.421875 43.28125 58.90625 
Q 39.453125 66.40625 31.78125 66.40625 
z
M 31.78125 74.21875 
Q 44.046875 74.21875 50.515625 64.515625 
Q 56.984375 54.828125 56.984375 36.375 
Q 56.984375 17.96875 50.515625 8.265625 
Q 44.046875 -1.421875 31.78125 -1.421875 
Q 19.53125 -1.421875 13.0625 8.265625 
Q 6.59375 17.96875 6.59375 36.375 
Q 6.59375 54.828125 13.0625 64.515625 
Q 19.53125 74.21875 31.78125 74.21875 
z
" id="DejaVuSans-48"/>
    </defs>
    <g style="fill:#0000ff;" transform="translate(102.432813 428.521214)scale(0.175 -0.175)">
     <use xlink:href="#DejaVuSans-48"/>
    </g>
   </g>
   <g id="text_3">
    <!-- 1 -->
    <g style="fill:#0000ff;" transform="translate(382.551016 428.521214)scale(0.175 -0.175)">
     <use xlink:href="#DejaVuSans-49"/>
    </g>
   </g>
   <g id="text_4">
    <!-- 2 -->
    <defs>
     <path d="M 19.1875 8.296875 
L 53.609375 8.296875 
L 53.609375 0 
L 7.328125 0 
L 7.328125 8.296875 
Q 12.9375 14.109375 22.625 23.890625 
Q 32.328125 33.6875 34.8125 36.53125 
Q 39.546875 41.84375 41.421875 45.53125 
Q 43.3125 49.21875 43.3125 52.78125 
Q 43.3125 58.59375 39.234375 62.25 
Q 35.15625 65.921875 28.609375 65.921875 
Q 23.96875 65.921875 18.8125 64.3125 
Q 13.671875 62.703125 7.8125 59.421875 
L 7.8125 69.390625 
Q 13.765625 71.78125 18.9375 73 
Q 24.125 74.21875 28.421875 74.21875 
Q 39.75 74.21875 46.484375 68.546875 
Q 53.21875 62.890625 53.21875 53.421875 
Q 53.21875 48.921875 51.53125 44.890625 
Q 49.859375 40.875 45.40625 35.40625 
Q 44.1875 33.984375 37.640625 27.21875 
Q 31.109375 20.453125 19.1875 8.296875 
z
" id="DejaVuSans-50"/>
    </defs>
    <g style="fill:#0000ff;" transform="translate(646.947392 428.521214)scale(0.175 -0.175)">
     <use xlink:href="#DejaVuSans-50"/>
    </g>
   </g>
   <g id="text_5">
    <!-- 3 -->
    <defs>
     <path d="M 40.578125 39.3125 
Q 47.65625 37.796875 51.625 33 
Q 55.609375 28.21875 55.609375 21.1875 
Q 55.609375 10.40625 48.1875 4.484375 
Q 40.765625 -1.421875 27.09375 -1.421875 
Q 22.515625 -1.421875 17.65625 -0.515625 
Q 12.796875 0.390625 7.625 2.203125 
L 7.625 11.71875 
Q 11.71875 9.328125 16.59375 8.109375 
Q 21.484375 6.890625 26.8125 6.890625 
Q 36.078125 6.890625 40.9375 10.546875 
Q 45.796875 14.203125 45.796875 21.1875 
Q 45.796875 27.640625 41.28125 31.265625 
Q 36.765625 34.90625 28.71875 34.90625 
L 20.21875 34.90625 
L 20.21875 43.015625 
L 29.109375 43.015625 
Q 36.375 43.015625 40.234375 45.921875 
Q 44.09375 48.828125 44.09375 54.296875 
Q 44.09375 59.90625 40.109375 62.90625 
Q 36.140625 65.921875 28.71875 65.921875 
Q 24.65625 65.921875 20.015625 65.03125 
Q 15.375 64.15625 9.8125 62.3125 
L 9.8125 71.09375 
Q 15.4375 72.65625 20.34375 73.4375 
Q 25.25 74.21875 29.59375 74.21875 
Q 40.828125 74.21875 47.359375 69.109375 
Q 53.90625 64.015625 53.90625 55.328125 
Q 53.90625 49.265625 50.4375 45.09375 
Q 46.96875 40.921875 40.578125 39.3125 
z
" id="DejaVuSans-51"/>
    </defs>
    <g style="fill:#0000ff;" transform="translate(896.50434 428.521214)scale(0.175 -0.175)">
     <use xlink:href="#DejaVuSans-51"/>
    </g>
   </g>
   <g id="text_6">
    <!-- 4 -->
    <defs>
     <path d="M 37.796875 64.3125 
L 12.890625 25.390625 
L 37.796875 25.390625 
z
M 35.203125 72.90625 
L 47.609375 72.90625 
L 47.609375 25.390625 
L 58.015625 25.390625 
L 58.015625 17.1875 
L 47.609375 17.1875 
L 47.609375 0 
L 37.796875 0 
L 37.796875 17.1875 
L 4.890625 17.1875 
L 4.890625 26.703125 
z
" id="DejaVuSans-52"/>
    </defs>
    <g style="fill:#0000ff;" transform="translate(1132.054733 428.521214)scale(0.175 -0.175)">
     <use xlink:href="#DejaVuSans-52"/>
    </g>
   </g>
   <g id="text_7">
    <!-- 5 -->
    <defs>
     <path d="M 10.796875 72.90625 
L 49.515625 72.90625 
L 49.515625 64.59375 
L 19.828125 64.59375 
L 19.828125 46.734375 
Q 21.96875 47.46875 24.109375 47.828125 
Q 26.265625 48.1875 28.421875 48.1875 
Q 40.625 48.1875 47.75 41.5 
Q 54.890625 34.8125 54.890625 23.390625 
Q 54.890625 11.625 47.5625 5.09375 
Q 40.234375 -1.421875 26.90625 -1.421875 
Q 22.3125 -1.421875 17.546875 -0.640625 
Q 12.796875 0.140625 7.71875 1.703125 
L 7.71875 11.625 
Q 12.109375 9.234375 16.796875 8.0625 
Q 21.484375 6.890625 26.703125 6.890625 
Q 35.15625 6.890625 40.078125 11.328125 
Q 45.015625 15.765625 45.015625 23.390625 
Q 45.015625 31 40.078125 35.4375 
Q 35.15625 39.890625 26.703125 39.890625 
Q 22.75 39.890625 18.8125 39.015625 
Q 14.890625 38.140625 10.796875 36.28125 
z
" id="DejaVuSans-53"/>
    </defs>
    <g style="fill:#0000ff;" transform="translate(1354.384698 428.521214)scale(0.175 -0.175)">
     <use xlink:href="#DejaVuSans-53"/>
    </g>
   </g>
   <g id="patch_11">
    <path d="M 220.047281 354 
C 228.003374 354 235.634677 350.839011 241.260485 345.213203 
C 246.886292 339.587396 250.047281 331.956093 250.047281 324 
C 250.047281 316.043907 246.886292 308.412604 241.260485 302.786797 
C 235.634677 297.160989 228.003374 294 220.047281 294 
C 212.091188 294 204.459885 297.160989 198.834078 302.786797 
C 193.20827 308.412604 190.047281 316.043907 190.047281 324 
C 190.047281 331.956093 193.20827 339.587396 198.834078 345.213203 
C 204.459885 350.839011 212.091188 354 220.047281 354 
z
" style="fill:#d9544c;stroke:#d9544c;stroke-linejoin:miter;"/>
   </g>
   <g id="patch_12">
    <path d="M 493.876754 426 
C 501.832847 426 509.46415 422.839011 515.089957 417.213203 
C 520.715764 411.587396 523.876754 403.956093 523.876754 396 
C 523.876754 388.043907 520.715764 380.412604 515.089957 374.786797 
C 509.46415 369.160989 501.832847 366 493.876754 366 
C 485.920661 366 478.289358 369.160989 472.66355 374.786797 
C 467.037743 380.412604 463.876754 388.043907 463.876754 396 
C 463.876754 403.956093 467.037743 411.587396 472.66355 417.213203 
C 478.289358 422.839011 485.920661 426 493.876754 426 
z
" style="fill:#d9544c;stroke:#d9544c;stroke-linejoin:miter;"/>
   </g>
   <g id="patch_13">
    <path d="M 493.876754 138 
C 501.832847 138 509.46415 134.839011 515.089957 129.213203 
C 520.715764 123.587396 523.876754 115.956093 523.876754 108 
C 523.876754 100.043907 520.715764 92.412604 515.089957 86.786797 
C 509.46415 81.160989 501.832847 78 493.876754 78 
C 485.920661 78 478.289358 81.160989 472.66355 86.786797 
C 467.037743 92.412604 463.876754 100.043907 463.876754 108 
C 463.876754 115.956093 467.037743 123.587396 472.66355 129.213203 
C 478.289358 134.839011 485.920661 138 493.876754 138 
z
" style="fill:#d9544c;stroke:#d9544c;stroke-linejoin:miter;"/>
   </g>
   <g id="patch_14">
    <path d="M 493.876754 66 
C 501.832847 66 509.46415 62.839011 515.089957 57.213203 
C 520.715764 51.587396 523.876754 43.956093 523.876754 36 
C 523.876754 28.043907 520.715764 20.412604 515.089957 14.786797 
C 509.46415 9.160989 501.832847 6 493.876754 6 
C 485.920661 6 478.289358 9.160989 472.66355 14.786797 
C 467.037743 20.412604 463.876754 28.043907 463.876754 36 
C 463.876754 43.956093 467.037743 51.587396 472.66355 57.213203 
C 478.289358 62.839011 485.920661 66 493.876754 66 
z
" style="fill:#d9544c;stroke:#d9544c;stroke-linejoin:miter;"/>
   </g>
   <g id="patch_15">
    <path d="M 752.337359 210 
C 760.293452 210 767.924755 206.839011 773.550562 201.213203 
C 779.176369 195.587396 782.337359 187.956093 782.337359 180 
C 782.337359 172.043907 779.176369 164.412604 773.550562 158.786797 
C 767.924755 153.160989 760.293452 150 752.337359 150 
C 744.381266 150 736.749963 153.160989 731.124155 158.786797 
C 725.498348 164.412604 722.337359 172.043907 722.337359 180 
C 722.337359 187.956093 725.498348 195.587396 731.124155 201.213203 
C 736.749963 206.839011 744.381266 210 752.337359 210 
z
" style="fill:#d9544c;stroke:#d9544c;stroke-linejoin:miter;"/>
   </g>
   <g id="patch_16">
    <path d="M 996.291685 354 
C 1004.247778 354 1011.879081 350.839011 1017.504888 345.213203 
C 1023.130695 339.587396 1026.291685 331.956093 1026.291685 324 
C 1026.291685 316.043907 1023.130695 308.412604 1017.504888 302.786797 
C 1011.879081 297.160989 1004.247778 294 996.291685 294 
C 988.335592 294 980.704289 297.160989 975.078481 302.786797 
C 969.452674 308.412604 966.291685 316.043907 966.291685 324 
C 966.291685 331.956093 969.452674 339.587396 975.078481 345.213203 
C 980.704289 350.839011 988.335592 354 996.291685 354 
z
" style="fill:#d9544c;stroke:#d9544c;stroke-linejoin:miter;"/>
   </g>
   <g id="patch_17">
    <path d="M 996.291685 282 
C 1004.247778 282 1011.879081 278.839011 1017.504888 273.213203 
C 1023.130695 267.587396 1026.291685 259.956093 1026.291685 252 
C 1026.291685 244.043907 1023.130695 236.412604 1017.504888 230.786797 
C 1011.879081 225.160989 1004.247778 222 996.291685 222 
C 988.335592 222 980.704289 225.160989 975.078481 230.786797 
C 969.452674 236.412604 966.291685 244.043907 966.291685 252 
C 966.291685 259.956093 969.452674 267.587396 975.078481 273.213203 
C 980.704289 278.839011 988.335592 282 996.291685 282 
z
" style="fill:#d9544c;stroke:#d9544c;stroke-linejoin:miter;"/>
   </g>
   <g id="text_8">
    <!-- A#1(3) -->
    <defs>
     <path d="M 34.1875 63.1875 
L 20.796875 26.90625 
L 47.609375 26.90625 
z
M 28.609375 72.90625 
L 39.796875 72.90625 
L 67.578125 0 
L 57.328125 0 
L 50.6875 18.703125 
L 17.828125 18.703125 
L 11.1875 0 
L 0.78125 0 
z
" id="DejaVuSans-65"/>
     <path d="M 51.125 44 
L 36.921875 44 
L 32.8125 27.6875 
L 47.125 27.6875 
z
M 43.796875 71.78125 
L 38.71875 51.515625 
L 52.984375 51.515625 
L 58.109375 71.78125 
L 65.921875 71.78125 
L 60.890625 51.515625 
L 76.125 51.515625 
L 76.125 44 
L 58.984375 44 
L 54.984375 27.6875 
L 70.515625 27.6875 
L 70.515625 20.21875 
L 53.078125 20.21875 
L 48 0 
L 40.1875 0 
L 45.21875 20.21875 
L 30.90625 20.21875 
L 25.875 0 
L 18.015625 0 
L 23.09375 20.21875 
L 7.71875 20.21875 
L 7.71875 27.6875 
L 24.90625 27.6875 
L 29 44 
L 13.28125 44 
L 13.28125 51.515625 
L 30.90625 51.515625 
L 35.890625 71.78125 
z
" id="DejaVuSans-35"/>
     <path d="M 31 75.875 
Q 24.46875 64.65625 21.28125 53.65625 
Q 18.109375 42.671875 18.109375 31.390625 
Q 18.109375 20.125 21.3125 9.0625 
Q 24.515625 -2 31 -13.1875 
L 23.1875 -13.1875 
Q 15.875 -1.703125 12.234375 9.375 
Q 8.59375 20.453125 8.59375 31.390625 
Q 8.59375 42.28125 12.203125 53.3125 
Q 15.828125 64.359375 23.1875 75.875 
z
" id="DejaVuSans-40"/>
     <path d="M 8.015625 75.875 
L 15.828125 75.875 
Q 23.140625 64.359375 26.78125 53.3125 
Q 30.421875 42.28125 30.421875 31.390625 
Q 30.421875 20.453125 26.78125 9.375 
Q 23.140625 -1.703125 15.828125 -13.1875 
L 8.015625 -13.1875 
Q 14.5 -2 17.703125 9.0625 
Q 20.90625 20.125 20.90625 31.390625 
Q 20.90625 42.671875 17.703125 53.65625 
Q 14.5 64.65625 8.015625 75.875 
z
" id="DejaVuSans-41"/>
    </defs>
    <g style="fill:#ffffff;" transform="translate(196.21499 327.679167)scale(0.133333 -0.133333)">
     <use xlink:href="#DejaVuSans-65"/>
     <use x="68.408203" xlink:href="#DejaVuSans-35"/>
     <use x="152.197266" xlink:href="#DejaVuSans-49"/>
     <use x="215.820312" xlink:href="#DejaVuSans-40"/>
     <use x="254.833984" xlink:href="#DejaVuSans-51"/>
     <use x="318.457031" xlink:href="#DejaVuSans-41"/>
    </g>
   </g>
   <g id="text_9">
    <!-- F#1(R) -->
    <defs>
     <path d="M 9.8125 72.90625 
L 51.703125 72.90625 
L 51.703125 64.59375 
L 19.671875 64.59375 
L 19.671875 43.109375 
L 48.578125 43.109375 
L 48.578125 34.8125 
L 19.671875 34.8125 
L 19.671875 0 
L 9.8125 0 
z
" id="DejaVuSans-70"/>
     <path d="M 44.390625 34.1875 
Q 47.5625 33.109375 50.5625 29.59375 
Q 53.5625 26.078125 56.59375 19.921875 
L 66.609375 0 
L 56 0 
L 46.6875 18.703125 
Q 43.0625 26.03125 39.671875 28.421875 
Q 36.28125 30.8125 30.421875 30.8125 
L 19.671875 30.8125 
L 19.671875 0 
L 9.8125 0 
L 9.8125 72.90625 
L 32.078125 72.90625 
Q 44.578125 72.90625 50.734375 67.671875 
Q 56.890625 62.453125 56.890625 51.90625 
Q 56.890625 45.015625 53.6875 40.46875 
Q 50.484375 35.9375 44.390625 34.1875 
z
M 19.671875 64.796875 
L 19.671875 38.921875 
L 32.078125 38.921875 
Q 39.203125 38.921875 42.84375 42.21875 
Q 46.484375 45.515625 46.484375 51.90625 
Q 46.484375 58.296875 42.84375 61.546875 
Q 39.203125 64.796875 32.078125 64.796875 
z
" id="DejaVuSans-82"/>
    </defs>
    <g style="fill:#ffffff;" transform="translate(470.379879 399.679167)scale(0.133333 -0.133333)">
     <use xlink:href="#DejaVuSans-70"/>
     <use x="57.519531" xlink:href="#DejaVuSans-35"/>
     <use x="141.308594" xlink:href="#DejaVuSans-49"/>
     <use x="204.931641" xlink:href="#DejaVuSans-40"/>
     <use x="243.945312" xlink:href="#DejaVuSans-82"/>
     <use x="313.427734" xlink:href="#DejaVuSans-41"/>
    </g>
   </g>
   <g id="text_10">
    <!-- C#3(5) -->
    <defs>
     <path d="M 64.40625 67.28125 
L 64.40625 56.890625 
Q 59.421875 61.53125 53.78125 63.8125 
Q 48.140625 66.109375 41.796875 66.109375 
Q 29.296875 66.109375 22.65625 58.46875 
Q 16.015625 50.828125 16.015625 36.375 
Q 16.015625 21.96875 22.65625 14.328125 
Q 29.296875 6.6875 41.796875 6.6875 
Q 48.140625 6.6875 53.78125 8.984375 
Q 59.421875 11.28125 64.40625 15.921875 
L 64.40625 5.609375 
Q 59.234375 2.09375 53.4375 0.328125 
Q 47.65625 -1.421875 41.21875 -1.421875 
Q 24.65625 -1.421875 15.125 8.703125 
Q 5.609375 18.84375 5.609375 36.375 
Q 5.609375 53.953125 15.125 64.078125 
Q 24.65625 74.21875 41.21875 74.21875 
Q 47.75 74.21875 53.53125 72.484375 
Q 59.328125 70.75 64.40625 67.28125 
z
" id="DejaVuSans-67"/>
    </defs>
    <g style="fill:#ffffff;" transform="translate(469.94967 111.679167)scale(0.133333 -0.133333)">
     <use xlink:href="#DejaVuSans-67"/>
     <use x="69.824219" xlink:href="#DejaVuSans-35"/>
     <use x="153.613281" xlink:href="#DejaVuSans-51"/>
     <use x="217.236328" xlink:href="#DejaVuSans-40"/>
     <use x="256.25" xlink:href="#DejaVuSans-53"/>
     <use x="319.873047" xlink:href="#DejaVuSans-41"/>
    </g>
   </g>
   <g id="text_11">
    <!-- F#3(R) -->
    <g style="fill:#ffffff;" transform="translate(470.379879 39.679167)scale(0.133333 -0.133333)">
     <use xlink:href="#DejaVuSans-70"/>
     <use x="57.519531" xlink:href="#DejaVuSans-35"/>
     <use x="141.308594" xlink:href="#DejaVuSans-51"/>
     <use x="204.931641" xlink:href="#DejaVuSans-40"/>
     <use x="243.945312" xlink:href="#DejaVuSans-82"/>
     <use x="313.427734" xlink:href="#DejaVuSans-41"/>
    </g>
   </g>
   <g id="text_12">
    <!-- A#2(3) -->
    <g style="fill:#ffffff;" transform="translate(728.505067 183.679167)scale(0.133333 -0.133333)">
     <use xlink:href="#DejaVuSans-65"/>
     <use x="68.408203" xlink:href="#DejaVuSans-35"/>
     <use x="152.197266" xlink:href="#DejaVuSans-50"/>
     <use x="215.820312" xlink:href="#DejaVuSans-40"/>
     <use x="254.833984" xlink:href="#DejaVuSans-51"/>
     <use x="318.457031" xlink:href="#DejaVuSans-41"/>
    </g>
   </g>
   <g id="text_13">
    <!-- C#2(5) -->
    <g style="fill:#ffffff;" transform="translate(972.364601 327.679167)scale(0.133333 -0.133333)">
     <use xlink:href="#DejaVuSans-67"/>
     <use x="69.824219" xlink:href="#DejaVuSans-35"/>
     <use x="153.613281" xlink:href="#DejaVuSans-50"/>
     <use x="217.236328" xlink:href="#DejaVuSans-40"/>
     <use x="256.25" xlink:href="#DejaVuSans-53"/>
     <use x="319.873047" xlink:href="#DejaVuSans-41"/>
    </g>
   </g>
   <g id="text_14">
    <!-- F#2(R) -->
    <g style="fill:#ffffff;" transform="translate(972.79481 255.679167)scale(0.133333 -0.133333)">
     <use xlink:href="#DejaVuSans-70"/>
     <use x="57.519531" xlink:href="#DejaVuSans-35"/>
     <use x="141.308594" xlink:href="#DejaVuSans-50"/>
     <use x="204.931641" xlink:href="#DejaVuSans-40"/>
     <use x="243.945312" xlink:href="#DejaVuSans-82"/>
     <use x="313.427734" xlink:href="#DejaVuSans-41"/>
    </g>
   </g>
   <g id="patch_18">
    <path d="M 276.070922 354 
C 284.027015 354 291.658318 350.839011 297.284125 345.213203 
C 302.909933 339.587396 306.070922 331.956093 306.070922 324 
C 306.070922 316.043907 302.909933 308.412604 297.284125 302.786797 
C 291.658318 297.160989 284.027015 294 276.070922 294 
C 268.114829 294 260.483526 297.160989 254.857718 302.786797 
C 249.231911 308.412604 246.070922 316.043907 246.070922 324 
C 246.070922 331.956093 249.231911 339.587396 254.857718 345.213203 
C 260.483526 350.839011 268.114829 354 276.070922 354 
z
" style="fill:#d9944c;stroke:#d9944c;stroke-linejoin:miter;"/>
   </g>
   <g id="patch_19">
    <path d="M 546.756029 426 
C 554.712122 426 562.343425 422.839011 567.969232 417.213203 
C 573.59504 411.587396 576.756029 403.956093 576.756029 396 
C 576.756029 388.043907 573.59504 380.412604 567.969232 374.786797 
C 562.343425 369.160989 554.712122 366 546.756029 366 
C 538.799936 366 531.168633 369.160989 525.542825 374.786797 
C 519.917018 380.412604 516.756029 388.043907 516.756029 396 
C 516.756029 403.956093 519.917018 411.587396 525.542825 417.213203 
C 531.168633 422.839011 538.799936 426 546.756029 426 
z
" style="fill:#d9944c;stroke:#d9944c;stroke-linejoin:miter;"/>
   </g>
   <g id="patch_20">
    <path d="M 546.756029 138 
C 554.712122 138 562.343425 134.839011 567.969232 129.213203 
C 573.59504 123.587396 576.756029 115.956093 576.756029 108 
C 576.756029 100.043907 573.59504 92.412604 567.969232 86.786797 
C 562.343425 81.160989 554.712122 78 546.756029 78 
C 538.799936 78 531.168633 81.160989 525.542825 86.786797 
C 519.917018 92.412604 516.756029 100.043907 516.756029 108 
C 516.756029 115.956093 519.917018 123.587396 525.542825 129.213203 
C 531.168633 134.839011 538.799936 138 546.756029 138 
z
" style="fill:#d9944c;stroke:#d9944c;stroke-linejoin:miter;"/>
   </g>
   <g id="patch_21">
    <path d="M 546.756029 66 
C 554.712122 66 562.343425 62.839011 567.969232 57.213203 
C 573.59504 51.587396 576.756029 43.956093 576.756029 36 
C 576.756029 28.043907 573.59504 20.412604 567.969232 14.786797 
C 562.343425 9.160989 554.712122 6 546.756029 6 
C 538.799936 6 531.168633 9.160989 525.542825 14.786797 
C 519.917018 20.412604 516.756029 28.043907 516.756029 36 
C 516.756029 43.956093 519.917018 51.587396 525.542825 57.213203 
C 531.168633 62.839011 538.799936 66 546.756029 66 
z
" style="fill:#d9944c;stroke:#d9944c;stroke-linejoin:miter;"/>
   </g>
   <g id="patch_22">
    <path d="M 802.248748 210 
C 810.204841 210 817.836144 206.839011 823.461952 201.213203 
C 829.087759 195.587396 832.248748 187.956093 832.248748 180 
C 832.248748 172.043907 829.087759 164.412604 823.461952 158.786797 
C 817.836144 153.160989 810.204841 150 802.248748 150 
C 794.292655 150 786.661352 153.160989 781.035545 158.786797 
C 775.409738 164.412604 772.248748 172.043907 772.248748 180 
C 772.248748 187.956093 775.409738 195.587396 781.035545 201.213203 
C 786.661352 206.839011 794.292655 210 802.248748 210 
z
" style="fill:#d9944c;stroke:#d9944c;stroke-linejoin:miter;"/>
   </g>
   <g id="patch_23">
    <path d="M 1043.401763 354 
C 1051.357856 354 1058.989159 350.839011 1064.614967 345.213203 
C 1070.240774 339.587396 1073.401763 331.956093 1073.401763 324 
C 1073.401763 316.043907 1070.240774 308.412604 1064.614967 302.786797 
C 1058.989159 297.160989 1051.357856 294 1043.401763 294 
C 1035.44567 294 1027.814367 297.160989 1022.18856 302.786797 
C 1016.562752 308.412604 1013.401763 316.043907 1013.401763 324 
C 1013.401763 331.956093 1016.562752 339.587396 1022.18856 345.213203 
C 1027.814367 350.839011 1035.44567 354 1043.401763 354 
z
" style="fill:#d9944c;stroke:#d9944c;stroke-linejoin:miter;"/>
   </g>
   <g id="patch_24">
    <path d="M 1043.401763 282 
C 1051.357856 282 1058.989159 278.839011 1064.614967 273.213203 
C 1070.240774 267.587396 1073.401763 259.956093 1073.401763 252 
C 1073.401763 244.043907 1070.240774 236.412604 1064.614967 230.786797 
C 1058.989159 225.160989 1051.357856 222 1043.401763 222 
C 1035.44567 222 1027.814367 225.160989 1022.18856 230.786797 
C 1016.562752 236.412604 1013.401763 244.043907 1013.401763 252 
C 1013.401763 259.956093 1016.562752 267.587396 1022.18856 273.213203 
C 1027.814367 278.839011 1035.44567 282 1043.401763 282 
z
" style="fill:#d9944c;stroke:#d9944c;stroke-linejoin:miter;"/>
   </g>
   <g id="text_15">
    <!-- Bb1(3) -->
    <defs>
     <path d="M 19.671875 34.8125 
L 19.671875 8.109375 
L 35.5 8.109375 
Q 43.453125 8.109375 47.28125 11.40625 
Q 51.125 14.703125 51.125 21.484375 
Q 51.125 28.328125 47.28125 31.5625 
Q 43.453125 34.8125 35.5 34.8125 
z
M 19.671875 64.796875 
L 19.671875 42.828125 
L 34.28125 42.828125 
Q 41.5 42.828125 45.03125 45.53125 
Q 48.578125 48.25 48.578125 53.8125 
Q 48.578125 59.328125 45.03125 62.0625 
Q 41.5 64.796875 34.28125 64.796875 
z
M 9.8125 72.90625 
L 35.015625 72.90625 
Q 46.296875 72.90625 52.390625 68.21875 
Q 58.5 63.53125 58.5 54.890625 
Q 58.5 48.1875 55.375 44.234375 
Q 52.25 40.28125 46.1875 39.3125 
Q 53.46875 37.75 57.5 32.78125 
Q 61.53125 27.828125 61.53125 20.40625 
Q 61.53125 10.640625 54.890625 5.3125 
Q 48.25 0 35.984375 0 
L 9.8125 0 
z
" id="DejaVuSans-66"/>
     <path d="M 48.6875 27.296875 
Q 48.6875 37.203125 44.609375 42.84375 
Q 40.53125 48.484375 33.40625 48.484375 
Q 26.265625 48.484375 22.1875 42.84375 
Q 18.109375 37.203125 18.109375 27.296875 
Q 18.109375 17.390625 22.1875 11.75 
Q 26.265625 6.109375 33.40625 6.109375 
Q 40.53125 6.109375 44.609375 11.75 
Q 48.6875 17.390625 48.6875 27.296875 
z
M 18.109375 46.390625 
Q 20.953125 51.265625 25.265625 53.625 
Q 29.59375 56 35.59375 56 
Q 45.5625 56 51.78125 48.09375 
Q 58.015625 40.1875 58.015625 27.296875 
Q 58.015625 14.40625 51.78125 6.484375 
Q 45.5625 -1.421875 35.59375 -1.421875 
Q 29.59375 -1.421875 25.265625 0.953125 
Q 20.953125 3.328125 18.109375 8.203125 
L 18.109375 0 
L 9.078125 0 
L 9.078125 75.984375 
L 18.109375 75.984375 
z
" id="DejaVuSans-98"/>
    </defs>
    <g style="fill:#ffffff;" transform="translate(253.579255 327.679167)scale(0.133333 -0.133333)">
     <use xlink:href="#DejaVuSans-66"/>
     <use x="68.603516" xlink:href="#DejaVuSans-98"/>
     <use x="132.080078" xlink:href="#DejaVuSans-49"/>
     <use x="195.703125" xlink:href="#DejaVuSans-40"/>
     <use x="234.716797" xlink:href="#DejaVuSans-51"/>
     <use x="298.339844" xlink:href="#DejaVuSans-41"/>
    </g>
   </g>
   <g id="text_16">
    <!-- Gb1(R) -->
    <defs>
     <path d="M 59.515625 10.40625 
L 59.515625 29.984375 
L 43.40625 29.984375 
L 43.40625 38.09375 
L 69.28125 38.09375 
L 69.28125 6.78125 
Q 63.578125 2.734375 56.6875 0.65625 
Q 49.8125 -1.421875 42 -1.421875 
Q 24.90625 -1.421875 15.25 8.5625 
Q 5.609375 18.5625 5.609375 36.375 
Q 5.609375 54.25 15.25 64.234375 
Q 24.90625 74.21875 42 74.21875 
Q 49.125 74.21875 55.546875 72.453125 
Q 61.96875 70.703125 67.390625 67.28125 
L 67.390625 56.78125 
Q 61.921875 61.421875 55.765625 63.765625 
Q 49.609375 66.109375 42.828125 66.109375 
Q 29.4375 66.109375 22.71875 58.640625 
Q 16.015625 51.171875 16.015625 36.375 
Q 16.015625 21.625 22.71875 14.15625 
Q 29.4375 6.6875 42.828125 6.6875 
Q 48.046875 6.6875 52.140625 7.59375 
Q 56.25 8.5 59.515625 10.40625 
z
" id="DejaVuSans-71"/>
    </defs>
    <g style="fill:#ffffff;" transform="translate(523.282071 399.679167)scale(0.133333 -0.133333)">
     <use xlink:href="#DejaVuSans-71"/>
     <use x="77.490234" xlink:href="#DejaVuSans-98"/>
     <use x="140.966797" xlink:href="#DejaVuSans-49"/>
     <use x="204.589844" xlink:href="#DejaVuSans-40"/>
     <use x="243.603516" xlink:href="#DejaVuSans-82"/>
     <use x="313.085938" xlink:href="#DejaVuSans-41"/>
    </g>
   </g>
   <g id="text_17">
    <!-- Db3(5) -->
    <defs>
     <path d="M 19.671875 64.796875 
L 19.671875 8.109375 
L 31.59375 8.109375 
Q 46.6875 8.109375 53.6875 14.9375 
Q 60.6875 21.78125 60.6875 36.53125 
Q 60.6875 51.171875 53.6875 57.984375 
Q 46.6875 64.796875 31.59375 64.796875 
z
M 9.8125 72.90625 
L 30.078125 72.90625 
Q 51.265625 72.90625 61.171875 64.09375 
Q 71.09375 55.28125 71.09375 36.53125 
Q 71.09375 17.671875 61.125 8.828125 
Q 51.171875 0 30.078125 0 
L 9.8125 0 
z
" id="DejaVuSans-68"/>
    </defs>
    <g style="fill:#ffffff;" transform="translate(523.704987 111.679167)scale(0.133333 -0.133333)">
     <use xlink:href="#DejaVuSans-68"/>
     <use x="77.001953" xlink:href="#DejaVuSans-98"/>
     <use x="140.478516" xlink:href="#DejaVuSans-51"/>
     <use x="204.101562" xlink:href="#DejaVuSans-40"/>
     <use x="243.115234" xlink:href="#DejaVuSans-53"/>
     <use x="306.738281" xlink:href="#DejaVuSans-41"/>
    </g>
   </g>
   <g id="text_18">
    <!-- Gb3(R) -->
    <g style="fill:#ffffff;" transform="translate(523.282071 39.679167)scale(0.133333 -0.133333)">
     <use xlink:href="#DejaVuSans-71"/>
     <use x="77.490234" xlink:href="#DejaVuSans-98"/>
     <use x="140.966797" xlink:href="#DejaVuSans-51"/>
     <use x="204.589844" xlink:href="#DejaVuSans-40"/>
     <use x="243.603516" xlink:href="#DejaVuSans-82"/>
     <use x="313.085938" xlink:href="#DejaVuSans-41"/>
    </g>
   </g>
   <g id="text_19">
    <!-- Bb2(3) -->
    <g style="fill:#ffffff;" transform="translate(779.757082 183.679167)scale(0.133333 -0.133333)">
     <use xlink:href="#DejaVuSans-66"/>
     <use x="68.603516" xlink:href="#DejaVuSans-98"/>
     <use x="132.080078" xlink:href="#DejaVuSans-50"/>
     <use x="195.703125" xlink:href="#DejaVuSans-40"/>
     <use x="234.716797" xlink:href="#DejaVuSans-51"/>
     <use x="298.339844" xlink:href="#DejaVuSans-41"/>
    </g>
   </g>
   <g id="text_20">
    <!-- Db2(5) -->
    <g style="fill:#ffffff;" transform="translate(1020.350722 327.679167)scale(0.133333 -0.133333)">
     <use xlink:href="#DejaVuSans-68"/>
     <use x="77.001953" xlink:href="#DejaVuSans-98"/>
     <use x="140.478516" xlink:href="#DejaVuSans-50"/>
     <use x="204.101562" xlink:href="#DejaVuSans-40"/>
     <use x="243.115234" xlink:href="#DejaVuSans-53"/>
     <use x="306.738281" xlink:href="#DejaVuSans-41"/>
    </g>
   </g>
   <g id="text_21">
    <!-- Gb2(R) -->
    <g style="fill:#ffffff;" transform="translate(1019.927805 255.679167)scale(0.133333 -0.133333)">
     <use xlink:href="#DejaVuSans-71"/>
     <use x="77.490234" xlink:href="#DejaVuSans-98"/>
     <use x="140.966797" xlink:href="#DejaVuSans-50"/>
     <use x="204.589844" xlink:href="#DejaVuSans-40"/>
     <use x="243.603516" xlink:href="#DejaVuSans-82"/>
     <use x="313.085938" xlink:href="#DejaVuSans-41"/>
    </g>
   </g>
  </g>
 </g>
 <defs>
  <clipPath id="p77ce64cc0f">
   <rect height="432" width="1323.951885" x="36" y="0"/>
  </clipPath>
 </defs>
</svg>
