<?xml version="1.0" encoding="utf-8" standalone="no"?>
<!DOCTYPE svg PUBLIC "-//W3C//DTD SVG 1.1//EN"
  "http://www.w3.org/Graphics/SVG/1.1/DTD/svg11.dtd">
<!-- Created with matplotlib (https://matplotlib.org/) -->
<svg height="446.4pt" version="1.1" viewBox="0 0 2978.890309 446.4" width="2978.890309pt" xmlns="http://www.w3.org/2000/svg" xmlns:xlink="http://www.w3.org/1999/xlink">
 <defs>
  <style type="text/css">
*{stroke-linecap:butt;stroke-linejoin:round;}
  </style>
 </defs>
 <g id="figure_1">
  <g id="patch_1">
   <path d="M 0 446.4 
L 2978.890309 446.4 
L 2978.890309 0 
L 0 0 
z
" style="fill:#ffffff;"/>
  </g>
  <g id="axes_1">
   <g id="patch_2">
    <path clip-path="url(#p5c58168da6)" d="M 792.95018 223.2 
L 910.241945 223.2 
L 910.241945 54 
L 792.95018 54 
z
" style="fill:#cccccc;stroke:#cccccc;stroke-linejoin:miter;"/>
   </g>
   <g id="patch_3">
    <path clip-path="url(#p5c58168da6)" d="M 1236.154398 223.2 
L 1340.649482 223.2 
L 1340.649482 54 
L 1236.154398 54 
z
" style="fill:#cccccc;stroke:#cccccc;stroke-linejoin:miter;"/>
   </g>
   <g id="patch_4">
    <path clip-path="url(#p5c58168da6)" d="M 1631.004468 223.2 
L 1724.099004 223.2 
L 1724.099004 54 
L 1631.004468 54 
z
" style="fill:#cccccc;stroke:#cccccc;stroke-linejoin:miter;"/>
   </g>
   <g id="patch_5">
    <path clip-path="url(#p5c58168da6)" d="M 1982.775889 223.2 
L 2065.713692 223.2 
L 2065.713692 54 
L 1982.775889 54 
z
" style="fill:#cccccc;stroke:#cccccc;stroke-linejoin:miter;"/>
   </g>
   <g id="patch_6">
    <path clip-path="url(#p5c58168da6)" d="M 2439.799881 392.4 
L 2509.541982 392.4 
L 2509.541982 54 
L 2439.799881 54 
z
" style="fill:#cccccc;stroke:#cccccc;stroke-linejoin:miter;"/>
   </g>
   <g id="patch_7">
    <path clip-path="url(#p5c58168da6)" d="M 2824.109717 223.2 
L 2882.7556 223.2 
L 2882.7556 54 
L 2824.109717 54 
z
" style="fill:#cccccc;stroke:#cccccc;stroke-linejoin:miter;"/>
   </g>
   <g id="patch_8">
    <path clip-path="url(#p5c58168da6)" d="M 3045.711826 223.2 
L 3097.959368 223.2 
L 3097.959368 54 
L 3045.711826 54 
z
" style="fill:#cccccc;stroke:#cccccc;stroke-linejoin:miter;"/>
   </g>
   <g id="patch_9">
    <path clip-path="url(#p5c58168da6)" d="M 3243.136861 223.2 
L 3289.684129 223.2 
L 3289.684129 54 
L 3243.136861 54 
z
" style="fill:#cccccc;stroke:#cccccc;stroke-linejoin:miter;"/>
   </g>
   <g id="patch_10">
    <path clip-path="url(#p5c58168da6)" d="M 3419.022572 223.2 
L 3460.491473 223.2 
L 3460.491473 54 
L 3419.022572 54 
z
" style="fill:#cccccc;stroke:#cccccc;stroke-linejoin:miter;"/>
   </g>
   <g id="line2d_1">
    <path clip-path="url(#p5c58168da6)" d="M 96.134709 392.4 
L 96.134709 54 
" style="fill:none;stroke:#000000;stroke-linecap:square;stroke-width:3;"/>
   </g>
   <g id="line2d_2">
    <path clip-path="url(#p5c58168da6)" d="M 163.814709 392.4 
L 163.814709 54 
" style="fill:none;stroke:#000000;stroke-linecap:square;stroke-width:3;"/>
   </g>
   <g id="line2d_3">
    <path clip-path="url(#p5c58168da6)" d="M 427.12582 392.4 
L 427.12582 54 
" style="fill:none;stroke:#000000;stroke-linecap:square;stroke-width:3;"/>
   </g>
   <g id="line2d_4">
    <path clip-path="url(#p5c58168da6)" d="M 675.658414 392.4 
L 675.658414 54 
" style="fill:none;stroke:#000000;stroke-linecap:square;stroke-width:3;"/>
   </g>
   <g id="line2d_5">
    <path clip-path="url(#p5c58168da6)" d="M 910.241945 392.4 
L 910.241945 54 
" style="fill:none;stroke:#000000;stroke-linecap:square;stroke-width:3;"/>
   </g>
   <g id="line2d_6">
    <path clip-path="url(#p5c58168da6)" d="M 1131.659314 392.4 
L 1131.659314 54 
" style="fill:none;stroke:#000000;stroke-linecap:square;stroke-width:3;"/>
   </g>
   <g id="line2d_7">
    <path clip-path="url(#p5c58168da6)" d="M 1340.649482 392.4 
L 1340.649482 54 
" style="fill:none;stroke:#000000;stroke-linecap:square;stroke-width:3;"/>
   </g>
   <g id="line2d_8">
    <path clip-path="url(#p5c58168da6)" d="M 1537.909932 392.4 
L 1537.909932 54 
" style="fill:none;stroke:#000000;stroke-linecap:square;stroke-width:3;"/>
   </g>
   <g id="line2d_9">
    <path clip-path="url(#p5c58168da6)" d="M 1724.099004 392.4 
L 1724.099004 54 
" style="fill:none;stroke:#000000;stroke-linecap:square;stroke-width:3;"/>
   </g>
   <g id="line2d_10">
    <path clip-path="url(#p5c58168da6)" d="M 1899.838087 392.4 
L 1899.838087 54 
" style="fill:none;stroke:#000000;stroke-linecap:square;stroke-width:3;"/>
   </g>
   <g id="line2d_11">
    <path clip-path="url(#p5c58168da6)" d="M 2065.713692 392.4 
L 2065.713692 54 
" style="fill:none;stroke:#000000;stroke-linecap:square;stroke-width:3;"/>
   </g>
   <g id="line2d_12">
    <path clip-path="url(#p5c58168da6)" d="M 2222.279415 392.4 
L 2222.279415 54 
" style="fill:none;stroke:#000000;stroke-linecap:square;stroke-width:3;"/>
   </g>
   <g id="line2d_13">
    <path clip-path="url(#p5c58168da6)" d="M 2370.05778 392.4 
L 2370.05778 54 
" style="fill:none;stroke:#000000;stroke-linecap:square;stroke-width:3;"/>
   </g>
   <g id="line2d_14">
    <path clip-path="url(#p5c58168da6)" d="M 2509.541982 392.4 
L 2509.541982 54 
" style="fill:none;stroke:#000000;stroke-linecap:square;stroke-width:3;"/>
   </g>
   <g id="line2d_15">
    <path clip-path="url(#p5c58168da6)" d="M 2641.197537 392.4 
L 2641.197537 54 
" style="fill:none;stroke:#000000;stroke-linecap:square;stroke-width:3;"/>
   </g>
   <g id="line2d_16">
    <path clip-path="url(#p5c58168da6)" d="M 2765.463834 392.4 
L 2765.463834 54 
" style="fill:none;stroke:#000000;stroke-linecap:square;stroke-width:3;"/>
   </g>
   <g id="line2d_17">
    <path clip-path="url(#p5c58168da6)" d="M 2882.7556 392.4 
L 2882.7556 54 
" style="fill:none;stroke:#000000;stroke-linecap:square;stroke-width:3;"/>
   </g>
   <g id="line2d_18">
    <path clip-path="url(#p5c58168da6)" d="M 96.134709 392.4 
L 2979.890309 392.4 
" style="fill:none;stroke:#808080;stroke-linecap:square;stroke-width:3;"/>
   </g>
   <g id="line2d_19">
    <path clip-path="url(#p5c58168da6)" d="M 96.134709 324.72 
L 2979.890309 324.72 
" style="fill:none;stroke:#808080;stroke-linecap:square;stroke-width:3;"/>
   </g>
   <g id="line2d_20">
    <path clip-path="url(#p5c58168da6)" d="M 96.134709 257.04 
L 2979.890309 257.04 
" style="fill:none;stroke:#808080;stroke-linecap:square;stroke-width:3;"/>
   </g>
   <g id="line2d_21">
    <path clip-path="url(#p5c58168da6)" d="M 96.134709 189.36 
L 2979.890309 189.36 
" style="fill:none;stroke:#808080;stroke-linecap:square;stroke-width:3;"/>
   </g>
   <g id="line2d_22">
    <path clip-path="url(#p5c58168da6)" d="M 96.134709 121.68 
L 2979.890309 121.68 
" style="fill:none;stroke:#808080;stroke-linecap:square;stroke-width:3;"/>
   </g>
   <g id="line2d_23">
    <path clip-path="url(#p5c58168da6)" d="M 96.134709 54 
L 2979.890309 54 
" style="fill:none;stroke:#808080;stroke-linecap:square;stroke-width:3;"/>
   </g>
   <g id="line2d_24">
    <path clip-path="url(#p5c58168da6)" d="M 96.134709 392.4 
L 96.134709 54 
" style="fill:none;stroke:#000000;stroke-linecap:square;stroke-width:10;"/>
   </g>
   <g id="line2d_25">
    <path clip-path="url(#p5c58168da6)" style="fill:none;stroke:#000000;stroke-linecap:square;stroke-width:5;"/>
   </g>
   <g id="patch_11">
    <path clip-path="url(#p5c58168da6)" d="M 116.438709 419.472 
C 123.618288 419.472 130.504776 416.619523 135.581504 411.542795 
C 140.658233 406.466066 143.510709 399.579578 143.510709 392.4 
C 143.510709 385.220422 140.658233 378.333934 135.581504 373.257205 
C 130.504776 368.180477 123.618288 365.328 116.438709 365.328 
C 109.259131 365.328 102.372643 368.180477 97.295914 373.257205 
C 92.219186 378.333934 89.366709 385.220422 89.366709 392.4 
C 89.366709 399.579578 92.219186 406.466066 97.295914 411.542795 
C 102.372643 416.619523 109.259131 419.472 116.438709 419.472 
z
" style="fill:#cc2929;stroke:#cc2929;stroke-linejoin:miter;"/>
   </g>
   <g id="patch_12">
    <path clip-path="url(#p5c58168da6)" d="M 116.438709 351.792 
C 123.618288 351.792 130.504776 348.939523 135.581504 343.862795 
C 140.658233 338.786066 143.510709 331.899578 143.510709 324.72 
C 143.510709 317.540422 140.658233 310.653934 135.581504 305.577205 
C 130.504776 300.500477 123.618288 297.648 116.438709 297.648 
C 109.259131 297.648 102.372643 300.500477 97.295914 305.577205 
C 92.219186 310.653934 89.366709 317.540422 89.366709 324.72 
C 89.366709 331.899578 92.219186 338.786066 97.295914 343.862795 
C 102.372643 348.939523 109.259131 351.792 116.438709 351.792 
z
" style="fill:#cc2929;stroke:#cc2929;stroke-linejoin:miter;"/>
   </g>
   <g id="patch_13">
    <path clip-path="url(#p5c58168da6)" d="M 116.438709 81.072 
C 123.618288 81.072 130.504776 78.219523 135.581504 73.142795 
C 140.658233 68.066066 143.510709 61.179578 143.510709 54 
C 143.510709 46.820422 140.658233 39.933934 135.581504 34.857205 
C 130.504776 29.780477 123.618288 26.928 116.438709 26.928 
C 109.259131 26.928 102.372643 29.780477 97.295914 34.857205 
C 92.219186 39.933934 89.366709 46.820422 89.366709 54 
C 89.366709 61.179578 92.219186 68.066066 97.295914 73.142795 
C 102.372643 78.219523 109.259131 81.072 116.438709 81.072 
z
" style="fill:#cc2929;stroke:#cc2929;stroke-linejoin:miter;"/>
   </g>
   <g id="patch_14">
    <path clip-path="url(#p5c58168da6)" d="M 281.934265 148.752 
C 289.113843 148.752 296.000331 145.899523 301.077059 140.822795 
C 306.153788 135.746066 309.006265 128.859578 309.006265 121.68 
C 309.006265 114.500422 306.153788 107.613934 301.077059 102.537205 
C 296.000331 97.460477 289.113843 94.608 281.934265 94.608 
C 274.754686 94.608 267.868198 97.460477 262.79147 102.537205 
C 257.714741 107.613934 254.862265 114.500422 254.862265 121.68 
C 254.862265 128.859578 257.714741 135.746066 262.79147 140.822795 
C 267.868198 145.899523 274.754686 148.752 281.934265 148.752 
z
" style="fill:#cc2929;stroke:#cc2929;stroke-linejoin:miter;"/>
   </g>
   <g id="patch_15">
    <path clip-path="url(#p5c58168da6)" d="M 537.856117 284.112 
C 545.035695 284.112 551.922183 281.259523 556.998912 276.182795 
C 562.07564 271.106066 564.928117 264.219578 564.928117 257.04 
C 564.928117 249.860422 562.07564 242.973934 556.998912 237.897205 
C 551.922183 232.820477 545.035695 229.968 537.856117 229.968 
C 530.676539 229.968 523.790051 232.820477 518.713322 237.897205 
C 513.636594 242.973934 510.784117 249.860422 510.784117 257.04 
C 510.784117 264.219578 513.636594 271.106066 518.713322 276.182795 
C 523.790051 281.259523 530.676539 284.112 537.856117 284.112 
z
" style="fill:#cc2929;stroke:#cc2929;stroke-linejoin:miter;"/>
   </g>
   <g id="patch_16">
    <path clip-path="url(#p5c58168da6)" d="M 537.856117 216.432 
C 545.035695 216.432 551.922183 213.579523 556.998912 208.502795 
C 562.07564 203.426066 564.928117 196.539578 564.928117 189.36 
C 564.928117 182.180422 562.07564 175.293934 556.998912 170.217205 
C 551.922183 165.140477 545.035695 162.288 537.856117 162.288 
C 530.676539 162.288 523.790051 165.140477 518.713322 170.217205 
C 513.636594 175.293934 510.784117 182.180422 510.784117 189.36 
C 510.784117 196.539578 513.636594 203.426066 518.713322 208.502795 
C 523.790051 213.579523 530.676539 216.432 537.856117 216.432 
z
" style="fill:#cc2929;stroke:#cc2929;stroke-linejoin:miter;"/>
   </g>
   <g id="patch_17">
    <path clip-path="url(#p5c58168da6)" d="M 779.41418 351.792 
C 786.593758 351.792 793.480246 348.939523 798.556974 343.862795 
C 803.633703 338.786066 806.48618 331.899578 806.48618 324.72 
C 806.48618 317.540422 803.633703 310.653934 798.556974 305.577205 
C 793.480246 300.500477 786.593758 297.648 779.41418 297.648 
C 772.234601 297.648 765.348113 300.500477 760.271385 305.577205 
C 755.194656 310.653934 752.34218 317.540422 752.34218 324.72 
C 752.34218 331.899578 755.194656 338.786066 760.271385 343.862795 
C 765.348113 348.939523 772.234601 351.792 779.41418 351.792 
z
" style="fill:#cc2929;stroke:#cc2929;stroke-linejoin:miter;"/>
   </g>
   <g id="patch_18">
    <path clip-path="url(#p5c58168da6)" d="M 1222.618398 419.472 
C 1229.797976 419.472 1236.684464 416.619523 1241.761193 411.542795 
C 1246.837921 406.466066 1249.690398 399.579578 1249.690398 392.4 
C 1249.690398 385.220422 1246.837921 378.333934 1241.761193 373.257205 
C 1236.684464 368.180477 1229.797976 365.328 1222.618398 365.328 
C 1215.43882 365.328 1208.552332 368.180477 1203.475603 373.257205 
C 1198.398875 378.333934 1195.546398 385.220422 1195.546398 392.4 
C 1195.546398 399.579578 1198.398875 406.466066 1203.475603 411.542795 
C 1208.552332 416.619523 1215.43882 419.472 1222.618398 419.472 
z
" style="fill:#cc2929;stroke:#cc2929;stroke-linejoin:miter;"/>
   </g>
   <g id="patch_19">
    <path clip-path="url(#p5c58168da6)" d="M 1222.618398 216.432 
C 1229.797976 216.432 1236.684464 213.579523 1241.761193 208.502795 
C 1246.837921 203.426066 1249.690398 196.539578 1249.690398 189.36 
C 1249.690398 182.180422 1246.837921 175.293934 1241.761193 170.217205 
C 1236.684464 165.140477 1229.797976 162.288 1222.618398 162.288 
C 1215.43882 162.288 1208.552332 165.140477 1203.475603 170.217205 
C 1198.398875 175.293934 1195.546398 182.180422 1195.546398 189.36 
C 1195.546398 196.539578 1198.398875 203.426066 1203.475603 208.502795 
C 1208.552332 213.579523 1215.43882 216.432 1222.618398 216.432 
z
" style="fill:#cc2929;stroke:#cc2929;stroke-linejoin:miter;"/>
   </g>
   <g id="patch_20">
    <path clip-path="url(#p5c58168da6)" d="M 1222.618398 148.752 
C 1229.797976 148.752 1236.684464 145.899523 1241.761193 140.822795 
C 1246.837921 135.746066 1249.690398 128.859578 1249.690398 121.68 
C 1249.690398 114.500422 1246.837921 107.613934 1241.761193 102.537205 
C 1236.684464 97.460477 1229.797976 94.608 1222.618398 94.608 
C 1215.43882 94.608 1208.552332 97.460477 1203.475603 102.537205 
C 1198.398875 107.613934 1195.546398 114.500422 1195.546398 121.68 
C 1195.546398 128.859578 1198.398875 135.746066 1203.475603 140.822795 
C 1208.552332 145.899523 1215.43882 148.752 1222.618398 148.752 
z
" style="fill:#cc2929;stroke:#cc2929;stroke-linejoin:miter;"/>
   </g>
   <g id="patch_21">
    <path clip-path="url(#p5c58168da6)" d="M 1222.618398 81.072 
C 1229.797976 81.072 1236.684464 78.219523 1241.761193 73.142795 
C 1246.837921 68.066066 1249.690398 61.179578 1249.690398 54 
C 1249.690398 46.820422 1246.837921 39.933934 1241.761193 34.857205 
C 1236.684464 29.780477 1229.797976 26.928 1222.618398 26.928 
C 1215.43882 26.928 1208.552332 29.780477 1203.475603 34.857205 
C 1198.398875 39.933934 1195.546398 46.820422 1195.546398 54 
C 1195.546398 61.179578 1198.398875 68.066066 1203.475603 73.142795 
C 1208.552332 78.219523 1215.43882 81.072 1222.618398 81.072 
z
" style="fill:#cc2929;stroke:#cc2929;stroke-linejoin:miter;"/>
   </g>
   <g id="patch_22">
    <path clip-path="url(#p5c58168da6)" d="M 1617.468468 351.792 
C 1624.648046 351.792 1631.534534 348.939523 1636.611263 343.862795 
C 1641.687991 338.786066 1644.540468 331.899578 1644.540468 324.72 
C 1644.540468 317.540422 1641.687991 310.653934 1636.611263 305.577205 
C 1631.534534 300.500477 1624.648046 297.648 1617.468468 297.648 
C 1610.28889 297.648 1603.402402 300.500477 1598.325673 305.577205 
C 1593.248945 310.653934 1590.396468 317.540422 1590.396468 324.72 
C 1590.396468 331.899578 1593.248945 338.786066 1598.325673 343.862795 
C 1603.402402 348.939523 1610.28889 351.792 1617.468468 351.792 
z
" style="fill:#cc2929;stroke:#cc2929;stroke-linejoin:miter;"/>
   </g>
   <g id="patch_23">
    <path clip-path="url(#p5c58168da6)" d="M 1617.468468 284.112 
C 1624.648046 284.112 1631.534534 281.259523 1636.611263 276.182795 
C 1641.687991 271.106066 1644.540468 264.219578 1644.540468 257.04 
C 1644.540468 249.860422 1641.687991 242.973934 1636.611263 237.897205 
C 1631.534534 232.820477 1624.648046 229.968 1617.468468 229.968 
C 1610.28889 229.968 1603.402402 232.820477 1598.325673 237.897205 
C 1593.248945 242.973934 1590.396468 249.860422 1590.396468 257.04 
C 1590.396468 264.219578 1593.248945 271.106066 1598.325673 276.182795 
C 1603.402402 281.259523 1610.28889 284.112 1617.468468 284.112 
z
" style="fill:#cc2929;stroke:#cc2929;stroke-linejoin:miter;"/>
   </g>
   <g id="patch_24">
    <path clip-path="url(#p5c58168da6)" d="M 1798.432545 419.472 
C 1805.612124 419.472 1812.498612 416.619523 1817.57534 411.542795 
C 1822.652069 406.466066 1825.504545 399.579578 1825.504545 392.4 
C 1825.504545 385.220422 1822.652069 378.333934 1817.57534 373.257205 
C 1812.498612 368.180477 1805.612124 365.328 1798.432545 365.328 
C 1791.252967 365.328 1784.366479 368.180477 1779.289751 373.257205 
C 1774.213022 378.333934 1771.360545 385.220422 1771.360545 392.4 
C 1771.360545 399.579578 1774.213022 406.466066 1779.289751 411.542795 
C 1784.366479 416.619523 1791.252967 419.472 1798.432545 419.472 
z
" style="fill:#cc2929;stroke:#cc2929;stroke-linejoin:miter;"/>
   </g>
   <g id="patch_25">
    <path clip-path="url(#p5c58168da6)" d="M 1798.432545 81.072 
C 1805.612124 81.072 1812.498612 78.219523 1817.57534 73.142795 
C 1822.652069 68.066066 1825.504545 61.179578 1825.504545 54 
C 1825.504545 46.820422 1822.652069 39.933934 1817.57534 34.857205 
C 1812.498612 29.780477 1805.612124 26.928 1798.432545 26.928 
C 1791.252967 26.928 1784.366479 29.780477 1779.289751 34.857205 
C 1774.213022 39.933934 1771.360545 46.820422 1771.360545 54 
C 1771.360545 61.179578 1774.213022 68.066066 1779.289751 73.142795 
C 1784.366479 78.219523 1791.252967 81.072 1798.432545 81.072 
z
" style="fill:#cc2929;stroke:#cc2929;stroke-linejoin:miter;"/>
   </g>
   <g id="patch_26">
    <path clip-path="url(#p5c58168da6)" d="M 1969.239889 216.432 
C 1976.419468 216.432 1983.305956 213.579523 1988.382684 208.502795 
C 1993.459413 203.426066 1996.311889 196.539578 1996.311889 189.36 
C 1996.311889 182.180422 1993.459413 175.293934 1988.382684 170.217205 
C 1983.305956 165.140477 1976.419468 162.288 1969.239889 162.288 
C 1962.060311 162.288 1955.173823 165.140477 1950.097095 170.217205 
C 1945.020366 175.293934 1942.167889 182.180422 1942.167889 189.36 
C 1942.167889 196.539578 1945.020366 203.426066 1950.097095 208.502795 
C 1955.173823 213.579523 1962.060311 216.432 1969.239889 216.432 
z
" style="fill:#cc2929;stroke:#cc2929;stroke-linejoin:miter;"/>
   </g>
   <g id="patch_27">
    <path clip-path="url(#p5c58168da6)" d="M 2130.460554 284.112 
C 2137.640132 284.112 2144.52662 281.259523 2149.603349 276.182795 
C 2154.680077 271.106066 2157.532554 264.219578 2157.532554 257.04 
C 2157.532554 249.860422 2154.680077 242.973934 2149.603349 237.897205 
C 2144.52662 232.820477 2137.640132 229.968 2130.460554 229.968 
C 2123.280975 229.968 2116.394488 232.820477 2111.317759 237.897205 
C 2106.24103 242.973934 2103.388554 249.860422 2103.388554 257.04 
C 2103.388554 264.219578 2106.24103 271.106066 2111.317759 276.182795 
C 2116.394488 281.259523 2123.280975 284.112 2130.460554 284.112 
z
" style="fill:#cc2929;stroke:#cc2929;stroke-linejoin:miter;"/>
   </g>
   <g id="patch_28">
    <path clip-path="url(#p5c58168da6)" d="M 2130.460554 148.752 
C 2137.640132 148.752 2144.52662 145.899523 2149.603349 140.822795 
C 2154.680077 135.746066 2157.532554 128.859578 2157.532554 121.68 
C 2157.532554 114.500422 2154.680077 107.613934 2149.603349 102.537205 
C 2144.52662 97.460477 2137.640132 94.608 2130.460554 94.608 
C 2123.280975 94.608 2116.394488 97.460477 2111.317759 102.537205 
C 2106.24103 107.613934 2103.388554 114.500422 2103.388554 121.68 
C 2103.388554 128.859578 2106.24103 135.746066 2111.317759 140.822795 
C 2116.394488 145.899523 2123.280975 148.752 2130.460554 148.752 
z
" style="fill:#cc2929;stroke:#cc2929;stroke-linejoin:miter;"/>
   </g>
   <g id="patch_29">
    <path clip-path="url(#p5c58168da6)" d="M 2426.263881 419.472 
C 2433.443459 419.472 2440.329947 416.619523 2445.406676 411.542795 
C 2450.483404 406.466066 2453.335881 399.579578 2453.335881 392.4 
C 2453.335881 385.220422 2450.483404 378.333934 2445.406676 373.257205 
C 2440.329947 368.180477 2433.443459 365.328 2426.263881 365.328 
C 2419.084303 365.328 2412.197815 368.180477 2407.121086 373.257205 
C 2402.044358 378.333934 2399.191881 385.220422 2399.191881 392.4 
C 2399.191881 399.579578 2402.044358 406.466066 2407.121086 411.542795 
C 2412.197815 416.619523 2419.084303 419.472 2426.263881 419.472 
z
" style="fill:#cc2929;stroke:#cc2929;stroke-linejoin:miter;"/>
   </g>
   <g id="patch_30">
    <path clip-path="url(#p5c58168da6)" d="M 2426.263881 351.792 
C 2433.443459 351.792 2440.329947 348.939523 2445.406676 343.862795 
C 2450.483404 338.786066 2453.335881 331.899578 2453.335881 324.72 
C 2453.335881 317.540422 2450.483404 310.653934 2445.406676 305.577205 
C 2440.329947 300.500477 2433.443459 297.648 2426.263881 297.648 
C 2419.084303 297.648 2412.197815 300.500477 2407.121086 305.577205 
C 2402.044358 310.653934 2399.191881 317.540422 2399.191881 324.72 
C 2399.191881 331.899578 2402.044358 338.786066 2407.121086 343.862795 
C 2412.197815 348.939523 2419.084303 351.792 2426.263881 351.792 
z
" style="fill:#cc2929;stroke:#cc2929;stroke-linejoin:miter;"/>
   </g>
   <g id="patch_31">
    <path clip-path="url(#p5c58168da6)" d="M 2426.263881 81.072 
C 2433.443459 81.072 2440.329947 78.219523 2445.406676 73.142795 
C 2450.483404 68.066066 2453.335881 61.179578 2453.335881 54 
C 2453.335881 46.820422 2450.483404 39.933934 2445.406676 34.857205 
C 2440.329947 29.780477 2433.443459 26.928 2426.263881 26.928 
C 2419.084303 26.928 2412.197815 29.780477 2407.121086 34.857205 
C 2402.044358 39.933934 2399.191881 46.820422 2399.191881 54 
C 2399.191881 61.179578 2402.044358 68.066066 2407.121086 73.142795 
C 2412.197815 78.219523 2419.084303 81.072 2426.263881 81.072 
z
" style="fill:#cc2929;stroke:#cc2929;stroke-linejoin:miter;"/>
   </g>
   <g id="patch_32">
    <path clip-path="url(#p5c58168da6)" d="M 2561.83376 148.752 
C 2569.013338 148.752 2575.899826 145.899523 2580.976555 140.822795 
C 2586.053283 135.746066 2588.90576 128.859578 2588.90576 121.68 
C 2588.90576 114.500422 2586.053283 107.613934 2580.976555 102.537205 
C 2575.899826 97.460477 2569.013338 94.608 2561.83376 94.608 
C 2554.654181 94.608 2547.767693 97.460477 2542.690965 102.537205 
C 2537.614236 107.613934 2534.76176 114.500422 2534.76176 121.68 
C 2534.76176 128.859578 2537.614236 135.746066 2542.690965 140.822795 
C 2547.767693 145.899523 2554.654181 148.752 2561.83376 148.752 
z
" style="fill:#cc2929;stroke:#cc2929;stroke-linejoin:miter;"/>
   </g>
   <g id="patch_33">
    <path clip-path="url(#p5c58168da6)" d="M 2689.794686 284.112 
C 2696.974264 284.112 2703.860752 281.259523 2708.937481 276.182795 
C 2714.014209 271.106066 2716.866686 264.219578 2716.866686 257.04 
C 2716.866686 249.860422 2714.014209 242.973934 2708.937481 237.897205 
C 2703.860752 232.820477 2696.974264 229.968 2689.794686 229.968 
C 2682.615108 229.968 2675.72862 232.820477 2670.651891 237.897205 
C 2665.575163 242.973934 2662.722686 249.860422 2662.722686 257.04 
C 2662.722686 264.219578 2665.575163 271.106066 2670.651891 276.182795 
C 2675.72862 281.259523 2682.615108 284.112 2689.794686 284.112 
z
" style="fill:#cc2929;stroke:#cc2929;stroke-linejoin:miter;"/>
   </g>
   <g id="patch_34">
    <path clip-path="url(#p5c58168da6)" d="M 2689.794686 216.432 
C 2696.974264 216.432 2703.860752 213.579523 2708.937481 208.502795 
C 2714.014209 203.426066 2716.866686 196.539578 2716.866686 189.36 
C 2716.866686 182.180422 2714.014209 175.293934 2708.937481 170.217205 
C 2703.860752 165.140477 2696.974264 162.288 2689.794686 162.288 
C 2682.615108 162.288 2675.72862 165.140477 2670.651891 170.217205 
C 2665.575163 175.293934 2662.722686 182.180422 2662.722686 189.36 
C 2662.722686 196.539578 2665.575163 203.426066 2670.651891 208.502795 
C 2675.72862 213.579523 2682.615108 216.432 2689.794686 216.432 
z
" style="fill:#cc2929;stroke:#cc2929;stroke-linejoin:miter;"/>
   </g>
   <g id="patch_35">
    <path clip-path="url(#p5c58168da6)" d="M 2810.573717 351.792 
C 2817.753295 351.792 2824.639783 348.939523 2829.716512 343.862795 
C 2834.79324 338.786066 2837.645717 331.899578 2837.645717 324.72 
C 2837.645717 317.540422 2834.79324 310.653934 2829.716512 305.577205 
C 2824.639783 300.500477 2817.753295 297.648 2810.573717 297.648 
C 2803.394139 297.648 2796.507651 300.500477 2791.430922 305.577205 
C 2786.354194 310.653934 2783.501717 317.540422 2783.501717 324.72 
C 2783.501717 331.899578 2786.354194 338.786066 2791.430922 343.862795 
C 2796.507651 348.939523 2803.394139 351.792 2810.573717 351.792 
z
" style="fill:#cc2929;stroke:#cc2929;stroke-linejoin:miter;"/>
   </g>
   <g id="text_1">
    <!-- E1 -->
    <defs>
     <path d="M 9.8125 72.90625 
L 55.90625 72.90625 
L 55.90625 64.59375 
L 19.671875 64.59375 
L 19.671875 43.015625 
L 54.390625 43.015625 
L 54.390625 34.71875 
L 19.671875 34.71875 
L 19.671875 8.296875 
L 56.78125 8.296875 
L 56.78125 0 
L 9.8125 0 
z
" id="DejaVuSans-69"/>
     <path d="M 12.40625 8.296875 
L 28.515625 8.296875 
L 28.515625 63.921875 
L 10.984375 60.40625 
L 10.984375 69.390625 
L 28.421875 72.90625 
L 38.28125 72.90625 
L 38.28125 8.296875 
L 54.390625 8.296875 
L 54.390625 0 
L 12.40625 0 
z
" id="DejaVuSans-49"/>
    </defs>
    <g style="fill:#ffffff;" transform="translate(106.293709 396.815)scale(0.16 -0.16)">
     <use xlink:href="#DejaVuSans-69"/>
     <use x="63.183594" xlink:href="#DejaVuSans-49"/>
    </g>
   </g>
   <g id="text_2">
    <!-- A1 -->
    <defs>
     <path d="M 34.1875 63.1875 
L 20.796875 26.90625 
L 47.609375 26.90625 
z
M 28.609375 72.90625 
L 39.796875 72.90625 
L 67.578125 0 
L 57.328125 0 
L 50.6875 18.703125 
L 17.828125 18.703125 
L 11.1875 0 
L 0.78125 0 
z
" id="DejaVuSans-65"/>
    </defs>
    <g style="fill:#ffffff;" transform="translate(105.876209 329.135)scale(0.16 -0.16)">
     <use xlink:href="#DejaVuSans-65"/>
     <use x="68.408203" xlink:href="#DejaVuSans-49"/>
    </g>
   </g>
   <g id="text_3">
    <!-- E3 -->
    <defs>
     <path d="M 40.578125 39.3125 
Q 47.65625 37.796875 51.625 33 
Q 55.609375 28.21875 55.609375 21.1875 
Q 55.609375 10.40625 48.1875 4.484375 
Q 40.765625 -1.421875 27.09375 -1.421875 
Q 22.515625 -1.421875 17.65625 -0.515625 
Q 12.796875 0.390625 7.625 2.203125 
L 7.625 11.71875 
Q 11.71875 9.328125 16.59375 8.109375 
Q 21.484375 6.890625 26.8125 6.890625 
Q 36.078125 6.890625 40.9375 10.546875 
Q 45.796875 14.203125 45.796875 21.1875 
Q 45.796875 27.640625 41.28125 31.265625 
Q 36.765625 34.90625 28.71875 34.90625 
L 20.21875 34.90625 
L 20.21875 43.015625 
L 29.109375 43.015625 
Q 36.375 43.015625 40.234375 45.921875 
Q 44.09375 48.828125 44.09375 54.296875 
Q 44.09375 59.90625 40.109375 62.90625 
Q 36.140625 65.921875 28.71875 65.921875 
Q 24.65625 65.921875 20.015625 65.03125 
Q 15.375 64.15625 9.8125 62.3125 
L 9.8125 71.09375 
Q 15.4375 72.65625 20.34375 73.4375 
Q 25.25 74.21875 29.59375 74.21875 
Q 40.828125 74.21875 47.359375 69.109375 
Q 53.90625 64.015625 53.90625 55.328125 
Q 53.90625 49.265625 50.4375 45.09375 
Q 46.96875 40.921875 40.578125 39.3125 
z
" id="DejaVuSans-51"/>
    </defs>
    <g style="fill:#ffffff;" transform="translate(106.293709 58.415)scale(0.16 -0.16)">
     <use xlink:href="#DejaVuSans-69"/>
     <use x="63.183594" xlink:href="#DejaVuSans-51"/>
    </g>
   </g>
   <g id="text_4">
    <!-- C3 -->
    <defs>
     <path d="M 64.40625 67.28125 
L 64.40625 56.890625 
Q 59.421875 61.53125 53.78125 63.8125 
Q 48.140625 66.109375 41.796875 66.109375 
Q 29.296875 66.109375 22.65625 58.46875 
Q 16.015625 50.828125 16.015625 36.375 
Q 16.015625 21.96875 22.65625 14.328125 
Q 29.296875 6.6875 41.796875 6.6875 
Q 48.140625 6.6875 53.78125 8.984375 
Q 59.421875 11.28125 64.40625 15.921875 
L 64.40625 5.609375 
Q 59.234375 2.09375 53.4375 0.328125 
Q 47.65625 -1.421875 41.21875 -1.421875 
Q 24.65625 -1.421875 15.125 8.703125 
Q 5.609375 18.84375 5.609375 36.375 
Q 5.609375 53.953125 15.125 64.078125 
Q 24.65625 74.21875 41.21875 74.21875 
Q 47.75 74.21875 53.53125 72.484375 
Q 59.328125 70.75 64.40625 67.28125 
z
" id="DejaVuSans-67"/>
    </defs>
    <g style="fill:#ffffff;" transform="translate(271.258015 126.095)scale(0.16 -0.16)">
     <use xlink:href="#DejaVuSans-67"/>
     <use x="69.824219" xlink:href="#DejaVuSans-51"/>
    </g>
   </g>
   <g id="text_5">
    <!-- E2 -->
    <defs>
     <path d="M 19.1875 8.296875 
L 53.609375 8.296875 
L 53.609375 0 
L 7.328125 0 
L 7.328125 8.296875 
Q 12.9375 14.109375 22.625 23.890625 
Q 32.328125 33.6875 34.8125 36.53125 
Q 39.546875 41.84375 41.421875 45.53125 
Q 43.3125 49.21875 43.3125 52.78125 
Q 43.3125 58.59375 39.234375 62.25 
Q 35.15625 65.921875 28.609375 65.921875 
Q 23.96875 65.921875 18.8125 64.3125 
Q 13.671875 62.703125 7.8125 59.421875 
L 7.8125 69.390625 
Q 13.765625 71.78125 18.9375 73 
Q 24.125 74.21875 28.421875 74.21875 
Q 39.75 74.21875 46.484375 68.546875 
Q 53.21875 62.890625 53.21875 53.421875 
Q 53.21875 48.921875 51.53125 44.890625 
Q 49.859375 40.875 45.40625 35.40625 
Q 44.1875 33.984375 37.640625 27.21875 
Q 31.109375 20.453125 19.1875 8.296875 
z
" id="DejaVuSans-50"/>
    </defs>
    <g style="fill:#ffffff;" transform="translate(527.711117 261.455)scale(0.16 -0.16)">
     <use xlink:href="#DejaVuSans-69"/>
     <use x="63.183594" xlink:href="#DejaVuSans-50"/>
    </g>
   </g>
   <g id="text_6">
    <!-- A2 -->
    <g style="fill:#ffffff;" transform="translate(527.293617 193.775)scale(0.16 -0.16)">
     <use xlink:href="#DejaVuSans-65"/>
     <use x="68.408203" xlink:href="#DejaVuSans-50"/>
    </g>
   </g>
   <g id="text_7">
    <!-- C2 -->
    <g style="fill:#ffffff;" transform="translate(768.73793 329.135)scale(0.16 -0.16)">
     <use xlink:href="#DejaVuSans-67"/>
     <use x="69.824219" xlink:href="#DejaVuSans-50"/>
    </g>
   </g>
   <g id="text_8">
    <!-- A1 -->
    <g style="fill:#ffffff;" transform="translate(1212.055898 396.815)scale(0.16 -0.16)">
     <use xlink:href="#DejaVuSans-65"/>
     <use x="68.408203" xlink:href="#DejaVuSans-49"/>
    </g>
   </g>
   <g id="text_9">
    <!-- C3 -->
    <g style="fill:#ffffff;" transform="translate(1211.942148 193.775)scale(0.16 -0.16)">
     <use xlink:href="#DejaVuSans-67"/>
     <use x="69.824219" xlink:href="#DejaVuSans-51"/>
    </g>
   </g>
   <g id="text_10">
    <!-- E3 -->
    <g style="fill:#ffffff;" transform="translate(1212.473398 126.095)scale(0.16 -0.16)">
     <use xlink:href="#DejaVuSans-69"/>
     <use x="63.183594" xlink:href="#DejaVuSans-51"/>
    </g>
   </g>
   <g id="text_11">
    <!-- A3 -->
    <g style="fill:#ffffff;" transform="translate(1212.055898 58.415)scale(0.16 -0.16)">
     <use xlink:href="#DejaVuSans-65"/>
     <use x="68.408203" xlink:href="#DejaVuSans-51"/>
    </g>
   </g>
   <g id="text_12">
    <!-- E2 -->
    <g style="fill:#ffffff;" transform="translate(1607.323468 329.135)scale(0.16 -0.16)">
     <use xlink:href="#DejaVuSans-69"/>
     <use x="63.183594" xlink:href="#DejaVuSans-50"/>
    </g>
   </g>
   <g id="text_13">
    <!-- A2 -->
    <g style="fill:#ffffff;" transform="translate(1606.905968 261.455)scale(0.16 -0.16)">
     <use xlink:href="#DejaVuSans-65"/>
     <use x="68.408203" xlink:href="#DejaVuSans-50"/>
    </g>
   </g>
   <g id="text_14">
    <!-- C2 -->
    <g style="fill:#ffffff;" transform="translate(1787.756295 396.815)scale(0.16 -0.16)">
     <use xlink:href="#DejaVuSans-67"/>
     <use x="69.824219" xlink:href="#DejaVuSans-50"/>
    </g>
   </g>
   <g id="text_15">
    <!-- C4 -->
    <defs>
     <path d="M 37.796875 64.3125 
L 12.890625 25.390625 
L 37.796875 25.390625 
z
M 35.203125 72.90625 
L 47.609375 72.90625 
L 47.609375 25.390625 
L 58.015625 25.390625 
L 58.015625 17.1875 
L 47.609375 17.1875 
L 47.609375 0 
L 37.796875 0 
L 37.796875 17.1875 
L 4.890625 17.1875 
L 4.890625 26.703125 
z
" id="DejaVuSans-52"/>
    </defs>
    <g style="fill:#ffffff;" transform="translate(1787.756295 58.415)scale(0.16 -0.16)">
     <use xlink:href="#DejaVuSans-67"/>
     <use x="69.824219" xlink:href="#DejaVuSans-52"/>
    </g>
   </g>
   <g id="text_16">
    <!-- E3 -->
    <g style="fill:#ffffff;" transform="translate(1959.094889 193.775)scale(0.16 -0.16)">
     <use xlink:href="#DejaVuSans-69"/>
     <use x="63.183594" xlink:href="#DejaVuSans-51"/>
    </g>
   </g>
   <g id="text_17">
    <!-- C3 -->
    <g style="fill:#ffffff;" transform="translate(2119.784304 261.455)scale(0.16 -0.16)">
     <use xlink:href="#DejaVuSans-67"/>
     <use x="69.824219" xlink:href="#DejaVuSans-51"/>
    </g>
   </g>
   <g id="text_18">
    <!-- A3 -->
    <g style="fill:#ffffff;" transform="translate(2119.898054 126.095)scale(0.16 -0.16)">
     <use xlink:href="#DejaVuSans-65"/>
     <use x="68.408203" xlink:href="#DejaVuSans-51"/>
    </g>
   </g>
   <g id="text_19">
    <!-- E2 -->
    <g style="fill:#ffffff;" transform="translate(2416.118881 396.815)scale(0.16 -0.16)">
     <use xlink:href="#DejaVuSans-69"/>
     <use x="63.183594" xlink:href="#DejaVuSans-50"/>
    </g>
   </g>
   <g id="text_20">
    <!-- A2 -->
    <g style="fill:#ffffff;" transform="translate(2415.701381 329.135)scale(0.16 -0.16)">
     <use xlink:href="#DejaVuSans-65"/>
     <use x="68.408203" xlink:href="#DejaVuSans-50"/>
    </g>
   </g>
   <g id="text_21">
    <!-- E4 -->
    <g style="fill:#ffffff;" transform="translate(2416.118881 58.415)scale(0.16 -0.16)">
     <use xlink:href="#DejaVuSans-69"/>
     <use x="63.183594" xlink:href="#DejaVuSans-52"/>
    </g>
   </g>
   <g id="text_22">
    <!-- C4 -->
    <g style="fill:#ffffff;" transform="translate(2551.15751 126.095)scale(0.16 -0.16)">
     <use xlink:href="#DejaVuSans-67"/>
     <use x="69.824219" xlink:href="#DejaVuSans-52"/>
    </g>
   </g>
   <g id="text_23">
    <!-- E3 -->
    <g style="fill:#ffffff;" transform="translate(2679.649686 261.455)scale(0.16 -0.16)">
     <use xlink:href="#DejaVuSans-69"/>
     <use x="63.183594" xlink:href="#DejaVuSans-51"/>
    </g>
   </g>
   <g id="text_24">
    <!-- A3 -->
    <g style="fill:#ffffff;" transform="translate(2679.232186 193.775)scale(0.16 -0.16)">
     <use xlink:href="#DejaVuSans-65"/>
     <use x="68.408203" xlink:href="#DejaVuSans-51"/>
    </g>
   </g>
   <g id="text_25">
    <!-- C3 -->
    <g style="fill:#ffffff;" transform="translate(2799.897467 329.135)scale(0.16 -0.16)">
     <use xlink:href="#DejaVuSans-67"/>
     <use x="69.824219" xlink:href="#DejaVuSans-51"/>
    </g>
   </g>
   <g id="patch_36">
    <path clip-path="url(#p5c58168da6)" d="M 143.510709 351.792 
C 150.690288 351.792 157.576776 348.939523 162.653504 343.862795 
C 167.730233 338.786066 170.582709 331.899578 170.582709 324.72 
C 170.582709 317.540422 167.730233 310.653934 162.653504 305.577205 
C 157.576776 300.500477 150.690288 297.648 143.510709 297.648 
C 136.331131 297.648 129.444643 300.500477 124.367914 305.577205 
C 119.291186 310.653934 116.438709 317.540422 116.438709 324.72 
C 116.438709 331.899578 119.291186 338.786066 124.367914 343.862795 
C 129.444643 348.939523 136.331131 351.792 143.510709 351.792 
z
" style="fill:#29cccc;stroke:#29cccc;stroke-linejoin:miter;"/>
   </g>
   <g id="patch_37">
    <path clip-path="url(#p5c58168da6)" d="M 143.510709 284.112 
C 150.690288 284.112 157.576776 281.259523 162.653504 276.182795 
C 167.730233 271.106066 170.582709 264.219578 170.582709 257.04 
C 170.582709 249.860422 167.730233 242.973934 162.653504 237.897205 
C 157.576776 232.820477 150.690288 229.968 143.510709 229.968 
C 136.331131 229.968 129.444643 232.820477 124.367914 237.897205 
C 119.291186 242.973934 116.438709 249.860422 116.438709 257.04 
C 116.438709 264.219578 119.291186 271.106066 124.367914 276.182795 
C 129.444643 281.259523 136.331131 284.112 143.510709 284.112 
z
" style="fill:#29cccc;stroke:#29cccc;stroke-linejoin:miter;"/>
   </g>
   <g id="patch_38">
    <path clip-path="url(#p5c58168da6)" d="M 564.928117 419.472 
C 572.107695 419.472 578.994183 416.619523 584.070912 411.542795 
C 589.14764 406.466066 592.000117 399.579578 592.000117 392.4 
C 592.000117 385.220422 589.14764 378.333934 584.070912 373.257205 
C 578.994183 368.180477 572.107695 365.328 564.928117 365.328 
C 557.748539 365.328 550.862051 368.180477 545.785322 373.257205 
C 540.708594 378.333934 537.856117 385.220422 537.856117 392.4 
C 537.856117 399.579578 540.708594 406.466066 545.785322 411.542795 
C 550.862051 416.619523 557.748539 419.472 564.928117 419.472 
z
" style="fill:#29cccc;stroke:#29cccc;stroke-linejoin:miter;"/>
   </g>
   <g id="patch_39">
    <path clip-path="url(#p5c58168da6)" d="M 564.928117 216.432 
C 572.107695 216.432 578.994183 213.579523 584.070912 208.502795 
C 589.14764 203.426066 592.000117 196.539578 592.000117 189.36 
C 592.000117 182.180422 589.14764 175.293934 584.070912 170.217205 
C 578.994183 165.140477 572.107695 162.288 564.928117 162.288 
C 557.748539 162.288 550.862051 165.140477 545.785322 170.217205 
C 540.708594 175.293934 537.856117 182.180422 537.856117 189.36 
C 537.856117 196.539578 540.708594 203.426066 545.785322 208.502795 
C 550.862051 213.579523 557.748539 216.432 564.928117 216.432 
z
" style="fill:#29cccc;stroke:#29cccc;stroke-linejoin:miter;"/>
   </g>
   <g id="patch_40">
    <path clip-path="url(#p5c58168da6)" d="M 564.928117 81.072 
C 572.107695 81.072 578.994183 78.219523 584.070912 73.142795 
C 589.14764 68.066066 592.000117 61.179578 592.000117 54 
C 592.000117 46.820422 589.14764 39.933934 584.070912 34.857205 
C 578.994183 29.780477 572.107695 26.928 564.928117 26.928 
C 557.748539 26.928 550.862051 29.780477 545.785322 34.857205 
C 540.708594 39.933934 537.856117 46.820422 537.856117 54 
C 537.856117 61.179578 540.708594 68.066066 545.785322 73.142795 
C 550.862051 78.219523 557.748539 81.072 564.928117 81.072 
z
" style="fill:#29cccc;stroke:#29cccc;stroke-linejoin:miter;"/>
   </g>
   <g id="patch_41">
    <path clip-path="url(#p5c58168da6)" d="M 806.48618 148.752 
C 813.665758 148.752 820.552246 145.899523 825.628974 140.822795 
C 830.705703 135.746066 833.55818 128.859578 833.55818 121.68 
C 833.55818 114.500422 830.705703 107.613934 825.628974 102.537205 
C 820.552246 97.460477 813.665758 94.608 806.48618 94.608 
C 799.306601 94.608 792.420113 97.460477 787.343385 102.537205 
C 782.266656 107.613934 779.41418 114.500422 779.41418 121.68 
C 779.41418 128.859578 782.266656 135.746066 787.343385 140.822795 
C 792.420113 145.899523 799.306601 148.752 806.48618 148.752 
z
" style="fill:#29cccc;stroke:#29cccc;stroke-linejoin:miter;"/>
   </g>
   <g id="patch_42">
    <path clip-path="url(#p5c58168da6)" d="M 1034.48663 284.112 
C 1041.666208 284.112 1048.552696 281.259523 1053.629425 276.182795 
C 1058.706153 271.106066 1061.55863 264.219578 1061.55863 257.04 
C 1061.55863 249.860422 1058.706153 242.973934 1053.629425 237.897205 
C 1048.552696 232.820477 1041.666208 229.968 1034.48663 229.968 
C 1027.307051 229.968 1020.420563 232.820477 1015.343835 237.897205 
C 1010.267106 242.973934 1007.41463 249.860422 1007.41463 257.04 
C 1007.41463 264.219578 1010.267106 271.106066 1015.343835 276.182795 
C 1020.420563 281.259523 1027.307051 284.112 1034.48663 284.112 
z
" style="fill:#29cccc;stroke:#29cccc;stroke-linejoin:miter;"/>
   </g>
   <g id="patch_43">
    <path clip-path="url(#p5c58168da6)" d="M 1249.690398 419.472 
C 1256.869976 419.472 1263.756464 416.619523 1268.833193 411.542795 
C 1273.909921 406.466066 1276.762398 399.579578 1276.762398 392.4 
C 1276.762398 385.220422 1273.909921 378.333934 1268.833193 373.257205 
C 1263.756464 368.180477 1256.869976 365.328 1249.690398 365.328 
C 1242.51082 365.328 1235.624332 368.180477 1230.547603 373.257205 
C 1225.470875 378.333934 1222.618398 385.220422 1222.618398 392.4 
C 1222.618398 399.579578 1225.470875 406.466066 1230.547603 411.542795 
C 1235.624332 416.619523 1242.51082 419.472 1249.690398 419.472 
z
" style="fill:#29cccc;stroke:#29cccc;stroke-linejoin:miter;"/>
   </g>
   <g id="patch_44">
    <path clip-path="url(#p5c58168da6)" d="M 1249.690398 351.792 
C 1256.869976 351.792 1263.756464 348.939523 1268.833193 343.862795 
C 1273.909921 338.786066 1276.762398 331.899578 1276.762398 324.72 
C 1276.762398 317.540422 1273.909921 310.653934 1268.833193 305.577205 
C 1263.756464 300.500477 1256.869976 297.648 1249.690398 297.648 
C 1242.51082 297.648 1235.624332 300.500477 1230.547603 305.577205 
C 1225.470875 310.653934 1222.618398 317.540422 1222.618398 324.72 
C 1222.618398 331.899578 1225.470875 338.786066 1230.547603 343.862795 
C 1235.624332 348.939523 1242.51082 351.792 1249.690398 351.792 
z
" style="fill:#29cccc;stroke:#29cccc;stroke-linejoin:miter;"/>
   </g>
   <g id="patch_45">
    <path clip-path="url(#p5c58168da6)" d="M 1249.690398 81.072 
C 1256.869976 81.072 1263.756464 78.219523 1268.833193 73.142795 
C 1273.909921 68.066066 1276.762398 61.179578 1276.762398 54 
C 1276.762398 46.820422 1273.909921 39.933934 1268.833193 34.857205 
C 1263.756464 29.780477 1256.869976 26.928 1249.690398 26.928 
C 1242.51082 26.928 1235.624332 29.780477 1230.547603 34.857205 
C 1225.470875 39.933934 1222.618398 46.820422 1222.618398 54 
C 1222.618398 61.179578 1225.470875 68.066066 1230.547603 73.142795 
C 1235.624332 78.219523 1242.51082 81.072 1249.690398 81.072 
z
" style="fill:#29cccc;stroke:#29cccc;stroke-linejoin:miter;"/>
   </g>
   <g id="patch_46">
    <path clip-path="url(#p5c58168da6)" d="M 1644.540468 284.112 
C 1651.720046 284.112 1658.606534 281.259523 1663.683263 276.182795 
C 1668.759991 271.106066 1671.612468 264.219578 1671.612468 257.04 
C 1671.612468 249.860422 1668.759991 242.973934 1663.683263 237.897205 
C 1658.606534 232.820477 1651.720046 229.968 1644.540468 229.968 
C 1637.36089 229.968 1630.474402 232.820477 1625.397673 237.897205 
C 1620.320945 242.973934 1617.468468 249.860422 1617.468468 257.04 
C 1617.468468 264.219578 1620.320945 271.106066 1625.397673 276.182795 
C 1630.474402 281.259523 1637.36089 284.112 1644.540468 284.112 
z
" style="fill:#29cccc;stroke:#29cccc;stroke-linejoin:miter;"/>
   </g>
   <g id="patch_47">
    <path clip-path="url(#p5c58168da6)" d="M 1644.540468 216.432 
C 1651.720046 216.432 1658.606534 213.579523 1663.683263 208.502795 
C 1668.759991 203.426066 1671.612468 196.539578 1671.612468 189.36 
C 1671.612468 182.180422 1668.759991 175.293934 1663.683263 170.217205 
C 1658.606534 165.140477 1651.720046 162.288 1644.540468 162.288 
C 1637.36089 162.288 1630.474402 165.140477 1625.397673 170.217205 
C 1620.320945 175.293934 1617.468468 182.180422 1617.468468 189.36 
C 1617.468468 196.539578 1620.320945 203.426066 1625.397673 208.502795 
C 1630.474402 213.579523 1637.36089 216.432 1644.540468 216.432 
z
" style="fill:#29cccc;stroke:#29cccc;stroke-linejoin:miter;"/>
   </g>
   <g id="patch_48">
    <path clip-path="url(#p5c58168da6)" d="M 1644.540468 148.752 
C 1651.720046 148.752 1658.606534 145.899523 1663.683263 140.822795 
C 1668.759991 135.746066 1671.612468 128.859578 1671.612468 121.68 
C 1671.612468 114.500422 1668.759991 107.613934 1663.683263 102.537205 
C 1658.606534 97.460477 1651.720046 94.608 1644.540468 94.608 
C 1637.36089 94.608 1630.474402 97.460477 1625.397673 102.537205 
C 1620.320945 107.613934 1617.468468 114.500422 1617.468468 121.68 
C 1617.468468 128.859578 1620.320945 135.746066 1625.397673 140.822795 
C 1630.474402 145.899523 1637.36089 148.752 1644.540468 148.752 
z
" style="fill:#29cccc;stroke:#29cccc;stroke-linejoin:miter;"/>
   </g>
   <g id="patch_49">
    <path clip-path="url(#p5c58168da6)" d="M 1996.311889 351.792 
C 2003.491468 351.792 2010.377956 348.939523 2015.454684 343.862795 
C 2020.531413 338.786066 2023.383889 331.899578 2023.383889 324.72 
C 2023.383889 317.540422 2020.531413 310.653934 2015.454684 305.577205 
C 2010.377956 300.500477 2003.491468 297.648 1996.311889 297.648 
C 1989.132311 297.648 1982.245823 300.500477 1977.169095 305.577205 
C 1972.092366 310.653934 1969.239889 317.540422 1969.239889 324.72 
C 1969.239889 331.899578 1972.092366 338.786066 1977.169095 343.862795 
C 1982.245823 348.939523 1989.132311 351.792 1996.311889 351.792 
z
" style="fill:#29cccc;stroke:#29cccc;stroke-linejoin:miter;"/>
   </g>
   <g id="patch_50">
    <path clip-path="url(#p5c58168da6)" d="M 2157.532554 419.472 
C 2164.712132 419.472 2171.59862 416.619523 2176.675349 411.542795 
C 2181.752077 406.466066 2184.604554 399.579578 2184.604554 392.4 
C 2184.604554 385.220422 2181.752077 378.333934 2176.675349 373.257205 
C 2171.59862 368.180477 2164.712132 365.328 2157.532554 365.328 
C 2150.352975 365.328 2143.466488 368.180477 2138.389759 373.257205 
C 2133.31303 378.333934 2130.460554 385.220422 2130.460554 392.4 
C 2130.460554 399.579578 2133.31303 406.466066 2138.389759 411.542795 
C 2143.466488 416.619523 2150.352975 419.472 2157.532554 419.472 
z
" style="fill:#29cccc;stroke:#29cccc;stroke-linejoin:miter;"/>
   </g>
   <g id="patch_51">
    <path clip-path="url(#p5c58168da6)" d="M 2157.532554 148.752 
C 2164.712132 148.752 2171.59862 145.899523 2176.675349 140.822795 
C 2181.752077 135.746066 2184.604554 128.859578 2184.604554 121.68 
C 2184.604554 114.500422 2181.752077 107.613934 2176.675349 102.537205 
C 2171.59862 97.460477 2164.712132 94.608 2157.532554 94.608 
C 2150.352975 94.608 2143.466488 97.460477 2138.389759 102.537205 
C 2133.31303 107.613934 2130.460554 114.500422 2130.460554 121.68 
C 2130.460554 128.859578 2133.31303 135.746066 2138.389759 140.822795 
C 2143.466488 145.899523 2150.352975 148.752 2157.532554 148.752 
z
" style="fill:#29cccc;stroke:#29cccc;stroke-linejoin:miter;"/>
   </g>
   <g id="patch_52">
    <path clip-path="url(#p5c58168da6)" d="M 2157.532554 81.072 
C 2164.712132 81.072 2171.59862 78.219523 2176.675349 73.142795 
C 2181.752077 68.066066 2184.604554 61.179578 2184.604554 54 
C 2184.604554 46.820422 2181.752077 39.933934 2176.675349 34.857205 
C 2171.59862 29.780477 2164.712132 26.928 2157.532554 26.928 
C 2150.352975 26.928 2143.466488 29.780477 2138.389759 34.857205 
C 2133.31303 39.933934 2130.460554 46.820422 2130.460554 54 
C 2130.460554 61.179578 2133.31303 68.066066 2138.389759 73.142795 
C 2143.466488 78.219523 2150.352975 81.072 2157.532554 81.072 
z
" style="fill:#29cccc;stroke:#29cccc;stroke-linejoin:miter;"/>
   </g>
   <g id="patch_53">
    <path clip-path="url(#p5c58168da6)" d="M 2309.704598 216.432 
C 2316.884176 216.432 2323.770664 213.579523 2328.847392 208.502795 
C 2333.924121 203.426066 2336.776598 196.539578 2336.776598 189.36 
C 2336.776598 182.180422 2333.924121 175.293934 2328.847392 170.217205 
C 2323.770664 165.140477 2316.884176 162.288 2309.704598 162.288 
C 2302.525019 162.288 2295.638531 165.140477 2290.561803 170.217205 
C 2285.485074 175.293934 2282.632598 182.180422 2282.632598 189.36 
C 2282.632598 196.539578 2285.485074 203.426066 2290.561803 208.502795 
C 2295.638531 213.579523 2302.525019 216.432 2309.704598 216.432 
z
" style="fill:#29cccc;stroke:#29cccc;stroke-linejoin:miter;"/>
   </g>
   <g id="patch_54">
    <path clip-path="url(#p5c58168da6)" d="M 2453.335881 351.792 
C 2460.515459 351.792 2467.401947 348.939523 2472.478676 343.862795 
C 2477.555404 338.786066 2480.407881 331.899578 2480.407881 324.72 
C 2480.407881 317.540422 2477.555404 310.653934 2472.478676 305.577205 
C 2467.401947 300.500477 2460.515459 297.648 2453.335881 297.648 
C 2446.156303 297.648 2439.269815 300.500477 2434.193086 305.577205 
C 2429.116358 310.653934 2426.263881 317.540422 2426.263881 324.72 
C 2426.263881 331.899578 2429.116358 338.786066 2434.193086 343.862795 
C 2439.269815 348.939523 2446.156303 351.792 2453.335881 351.792 
z
" style="fill:#29cccc;stroke:#29cccc;stroke-linejoin:miter;"/>
   </g>
   <g id="patch_55">
    <path clip-path="url(#p5c58168da6)" d="M 2453.335881 284.112 
C 2460.515459 284.112 2467.401947 281.259523 2472.478676 276.182795 
C 2477.555404 271.106066 2480.407881 264.219578 2480.407881 257.04 
C 2480.407881 249.860422 2477.555404 242.973934 2472.478676 237.897205 
C 2467.401947 232.820477 2460.515459 229.968 2453.335881 229.968 
C 2446.156303 229.968 2439.269815 232.820477 2434.193086 237.897205 
C 2429.116358 242.973934 2426.263881 249.860422 2426.263881 257.04 
C 2426.263881 264.219578 2429.116358 271.106066 2434.193086 276.182795 
C 2439.269815 281.259523 2446.156303 284.112 2453.335881 284.112 
z
" style="fill:#29cccc;stroke:#29cccc;stroke-linejoin:miter;"/>
   </g>
   <g id="patch_56">
    <path clip-path="url(#p5c58168da6)" d="M 2716.866686 419.472 
C 2724.046264 419.472 2730.932752 416.619523 2736.009481 411.542795 
C 2741.086209 406.466066 2743.938686 399.579578 2743.938686 392.4 
C 2743.938686 385.220422 2741.086209 378.333934 2736.009481 373.257205 
C 2730.932752 368.180477 2724.046264 365.328 2716.866686 365.328 
C 2709.687108 365.328 2702.80062 368.180477 2697.723891 373.257205 
C 2692.647163 378.333934 2689.794686 385.220422 2689.794686 392.4 
C 2689.794686 399.579578 2692.647163 406.466066 2697.723891 411.542795 
C 2702.80062 416.619523 2709.687108 419.472 2716.866686 419.472 
z
" style="fill:#29cccc;stroke:#29cccc;stroke-linejoin:miter;"/>
   </g>
   <g id="patch_57">
    <path clip-path="url(#p5c58168da6)" d="M 2716.866686 216.432 
C 2724.046264 216.432 2730.932752 213.579523 2736.009481 208.502795 
C 2741.086209 203.426066 2743.938686 196.539578 2743.938686 189.36 
C 2743.938686 182.180422 2741.086209 175.293934 2736.009481 170.217205 
C 2730.932752 165.140477 2724.046264 162.288 2716.866686 162.288 
C 2709.687108 162.288 2702.80062 165.140477 2697.723891 170.217205 
C 2692.647163 175.293934 2689.794686 182.180422 2689.794686 189.36 
C 2689.794686 196.539578 2692.647163 203.426066 2697.723891 208.502795 
C 2702.80062 213.579523 2709.687108 216.432 2716.866686 216.432 
z
" style="fill:#29cccc;stroke:#29cccc;stroke-linejoin:miter;"/>
   </g>
   <g id="patch_58">
    <path clip-path="url(#p5c58168da6)" d="M 2716.866686 81.072 
C 2724.046264 81.072 2730.932752 78.219523 2736.009481 73.142795 
C 2741.086209 68.066066 2743.938686 61.179578 2743.938686 54 
C 2743.938686 46.820422 2741.086209 39.933934 2736.009481 34.857205 
C 2730.932752 29.780477 2724.046264 26.928 2716.866686 26.928 
C 2709.687108 26.928 2702.80062 29.780477 2697.723891 34.857205 
C 2692.647163 39.933934 2689.794686 46.820422 2689.794686 54 
C 2689.794686 61.179578 2692.647163 68.066066 2697.723891 73.142795 
C 2702.80062 78.219523 2709.687108 81.072 2716.866686 81.072 
z
" style="fill:#29cccc;stroke:#29cccc;stroke-linejoin:miter;"/>
   </g>
   <g id="patch_59">
    <path clip-path="url(#p5c58168da6)" d="M 2837.645717 148.752 
C 2844.825295 148.752 2851.711783 145.899523 2856.788512 140.822795 
C 2861.86524 135.746066 2864.717717 128.859578 2864.717717 121.68 
C 2864.717717 114.500422 2861.86524 107.613934 2856.788512 102.537205 
C 2851.711783 97.460477 2844.825295 94.608 2837.645717 94.608 
C 2830.466139 94.608 2823.579651 97.460477 2818.502922 102.537205 
C 2813.426194 107.613934 2810.573717 114.500422 2810.573717 121.68 
C 2810.573717 128.859578 2813.426194 135.746066 2818.502922 140.822795 
C 2823.579651 145.899523 2830.466139 148.752 2837.645717 148.752 
z
" style="fill:#29cccc;stroke:#29cccc;stroke-linejoin:miter;"/>
   </g>
   <g id="text_26">
    <!-- A1 -->
    <g style="fill:#ffffff;" transform="translate(132.948209 329.135)scale(0.16 -0.16)">
     <use xlink:href="#DejaVuSans-65"/>
     <use x="68.408203" xlink:href="#DejaVuSans-49"/>
    </g>
   </g>
   <g id="text_27">
    <!-- D2 -->
    <defs>
     <path d="M 19.671875 64.796875 
L 19.671875 8.109375 
L 31.59375 8.109375 
Q 46.6875 8.109375 53.6875 14.9375 
Q 60.6875 21.78125 60.6875 36.53125 
Q 60.6875 51.171875 53.6875 57.984375 
Q 46.6875 64.796875 31.59375 64.796875 
z
M 9.8125 72.90625 
L 30.078125 72.90625 
Q 51.265625 72.90625 61.171875 64.09375 
Q 71.09375 55.28125 71.09375 36.53125 
Q 71.09375 17.671875 61.125 8.828125 
Q 51.171875 0 30.078125 0 
L 9.8125 0 
z
" id="DejaVuSans-68"/>
    </defs>
    <g style="fill:#ffffff;" transform="translate(132.260709 261.455)scale(0.16 -0.16)">
     <use xlink:href="#DejaVuSans-68"/>
     <use x="77.001953" xlink:href="#DejaVuSans-50"/>
    </g>
   </g>
   <g id="text_28">
    <!-- F#1 -->
    <defs>
     <path d="M 9.8125 72.90625 
L 51.703125 72.90625 
L 51.703125 64.59375 
L 19.671875 64.59375 
L 19.671875 43.109375 
L 48.578125 43.109375 
L 48.578125 34.8125 
L 19.671875 34.8125 
L 19.671875 0 
L 9.8125 0 
z
" id="DejaVuSans-70"/>
     <path d="M 51.125 44 
L 36.921875 44 
L 32.8125 27.6875 
L 47.125 27.6875 
z
M 43.796875 71.78125 
L 38.71875 51.515625 
L 52.984375 51.515625 
L 58.109375 71.78125 
L 65.921875 71.78125 
L 60.890625 51.515625 
L 76.125 51.515625 
L 76.125 44 
L 58.984375 44 
L 54.984375 27.6875 
L 70.515625 27.6875 
L 70.515625 20.21875 
L 53.078125 20.21875 
L 48 0 
L 40.1875 0 
L 45.21875 20.21875 
L 30.90625 20.21875 
L 25.875 0 
L 18.015625 0 
L 23.09375 20.21875 
L 7.71875 20.21875 
L 7.71875 27.6875 
L 24.90625 27.6875 
L 29 44 
L 13.28125 44 
L 13.28125 51.515625 
L 30.90625 51.515625 
L 35.890625 71.78125 
z
" id="DejaVuSans-35"/>
    </defs>
    <g style="fill:#ffffff;" transform="translate(548.533117 396.815)scale(0.16 -0.16)">
     <use xlink:href="#DejaVuSans-70"/>
     <use x="57.519531" xlink:href="#DejaVuSans-35"/>
     <use x="141.308594" xlink:href="#DejaVuSans-49"/>
    </g>
   </g>
   <g id="text_29">
    <!-- A2 -->
    <g style="fill:#ffffff;" transform="translate(554.365617 193.775)scale(0.16 -0.16)">
     <use xlink:href="#DejaVuSans-65"/>
     <use x="68.408203" xlink:href="#DejaVuSans-50"/>
    </g>
   </g>
   <g id="text_30">
    <!-- F#3 -->
    <g style="fill:#ffffff;" transform="translate(548.533117 58.415)scale(0.16 -0.16)">
     <use xlink:href="#DejaVuSans-70"/>
     <use x="57.519531" xlink:href="#DejaVuSans-35"/>
     <use x="141.308594" xlink:href="#DejaVuSans-51"/>
    </g>
   </g>
   <g id="text_31">
    <!-- D3 -->
    <g style="fill:#ffffff;" transform="translate(795.23618 126.095)scale(0.16 -0.16)">
     <use xlink:href="#DejaVuSans-68"/>
     <use x="77.001953" xlink:href="#DejaVuSans-51"/>
    </g>
   </g>
   <g id="text_32">
    <!-- F#2 -->
    <g style="fill:#ffffff;" transform="translate(1018.09163 261.455)scale(0.16 -0.16)">
     <use xlink:href="#DejaVuSans-70"/>
     <use x="57.519531" xlink:href="#DejaVuSans-35"/>
     <use x="141.308594" xlink:href="#DejaVuSans-50"/>
    </g>
   </g>
   <g id="text_33">
    <!-- A1 -->
    <g style="fill:#ffffff;" transform="translate(1239.127898 396.815)scale(0.16 -0.16)">
     <use xlink:href="#DejaVuSans-65"/>
     <use x="68.408203" xlink:href="#DejaVuSans-49"/>
    </g>
   </g>
   <g id="text_34">
    <!-- D2 -->
    <g style="fill:#ffffff;" transform="translate(1238.440398 329.135)scale(0.16 -0.16)">
     <use xlink:href="#DejaVuSans-68"/>
     <use x="77.001953" xlink:href="#DejaVuSans-50"/>
    </g>
   </g>
   <g id="text_35">
    <!-- A3 -->
    <g style="fill:#ffffff;" transform="translate(1239.127898 58.415)scale(0.16 -0.16)">
     <use xlink:href="#DejaVuSans-65"/>
     <use x="68.408203" xlink:href="#DejaVuSans-51"/>
    </g>
   </g>
   <g id="text_36">
    <!-- A2 -->
    <g style="fill:#ffffff;" transform="translate(1633.977968 261.455)scale(0.16 -0.16)">
     <use xlink:href="#DejaVuSans-65"/>
     <use x="68.408203" xlink:href="#DejaVuSans-50"/>
    </g>
   </g>
   <g id="text_37">
    <!-- D3 -->
    <g style="fill:#ffffff;" transform="translate(1633.290468 193.775)scale(0.16 -0.16)">
     <use xlink:href="#DejaVuSans-68"/>
     <use x="77.001953" xlink:href="#DejaVuSans-51"/>
    </g>
   </g>
   <g id="text_38">
    <!-- F#3 -->
    <g style="fill:#ffffff;" transform="translate(1628.145468 126.095)scale(0.16 -0.16)">
     <use xlink:href="#DejaVuSans-70"/>
     <use x="57.519531" xlink:href="#DejaVuSans-35"/>
     <use x="141.308594" xlink:href="#DejaVuSans-51"/>
    </g>
   </g>
   <g id="text_39">
    <!-- F#2 -->
    <g style="fill:#ffffff;" transform="translate(1979.916889 329.135)scale(0.16 -0.16)">
     <use xlink:href="#DejaVuSans-70"/>
     <use x="57.519531" xlink:href="#DejaVuSans-35"/>
     <use x="141.308594" xlink:href="#DejaVuSans-50"/>
    </g>
   </g>
   <g id="text_40">
    <!-- D2 -->
    <g style="fill:#ffffff;" transform="translate(2146.282554 396.815)scale(0.16 -0.16)">
     <use xlink:href="#DejaVuSans-68"/>
     <use x="77.001953" xlink:href="#DejaVuSans-50"/>
    </g>
   </g>
   <g id="text_41">
    <!-- A3 -->
    <g style="fill:#ffffff;" transform="translate(2146.970054 126.095)scale(0.16 -0.16)">
     <use xlink:href="#DejaVuSans-65"/>
     <use x="68.408203" xlink:href="#DejaVuSans-51"/>
    </g>
   </g>
   <g id="text_42">
    <!-- D4 -->
    <g style="fill:#ffffff;" transform="translate(2146.282554 58.415)scale(0.16 -0.16)">
     <use xlink:href="#DejaVuSans-68"/>
     <use x="77.001953" xlink:href="#DejaVuSans-52"/>
    </g>
   </g>
   <g id="text_43">
    <!-- F#3 -->
    <g style="fill:#ffffff;" transform="translate(2293.309598 193.775)scale(0.16 -0.16)">
     <use xlink:href="#DejaVuSans-70"/>
     <use x="57.519531" xlink:href="#DejaVuSans-35"/>
     <use x="141.308594" xlink:href="#DejaVuSans-51"/>
    </g>
   </g>
   <g id="text_44">
    <!-- A2 -->
    <g style="fill:#ffffff;" transform="translate(2442.773381 329.135)scale(0.16 -0.16)">
     <use xlink:href="#DejaVuSans-65"/>
     <use x="68.408203" xlink:href="#DejaVuSans-50"/>
    </g>
   </g>
   <g id="text_45">
    <!-- D3 -->
    <g style="fill:#ffffff;" transform="translate(2442.085881 261.455)scale(0.16 -0.16)">
     <use xlink:href="#DejaVuSans-68"/>
     <use x="77.001953" xlink:href="#DejaVuSans-51"/>
    </g>
   </g>
   <g id="text_46">
    <!-- F#2 -->
    <g style="fill:#ffffff;" transform="translate(2700.471686 396.815)scale(0.16 -0.16)">
     <use xlink:href="#DejaVuSans-70"/>
     <use x="57.519531" xlink:href="#DejaVuSans-35"/>
     <use x="141.308594" xlink:href="#DejaVuSans-50"/>
    </g>
   </g>
   <g id="text_47">
    <!-- A3 -->
    <g style="fill:#ffffff;" transform="translate(2706.304186 193.775)scale(0.16 -0.16)">
     <use xlink:href="#DejaVuSans-65"/>
     <use x="68.408203" xlink:href="#DejaVuSans-51"/>
    </g>
   </g>
   <g id="text_48">
    <!-- F#4 -->
    <g style="fill:#ffffff;" transform="translate(2700.471686 58.415)scale(0.16 -0.16)">
     <use xlink:href="#DejaVuSans-70"/>
     <use x="57.519531" xlink:href="#DejaVuSans-35"/>
     <use x="141.308594" xlink:href="#DejaVuSans-52"/>
    </g>
   </g>
   <g id="text_49">
    <!-- D4 -->
    <g style="fill:#ffffff;" transform="translate(2826.395717 126.095)scale(0.16 -0.16)">
     <use xlink:href="#DejaVuSans-68"/>
     <use x="77.001953" xlink:href="#DejaVuSans-52"/>
    </g>
   </g>
   <g id="text_50">
    <!-- -1 -->
    <defs>
     <path d="M 4.890625 31.390625 
L 31.203125 31.390625 
L 31.203125 23.390625 
L 4.890625 23.390625 
z
" id="DejaVuSans-45"/>
    </defs>
    <g style="fill:#0000ff;" transform="translate(86.164397 431.75875)scale(0.2 -0.2)">
     <use xlink:href="#DejaVuSans-45"/>
     <use x="36.083984" xlink:href="#DejaVuSans-49"/>
    </g>
   </g>
   <g id="text_51">
    <!-- 0 -->
    <defs>
     <path d="M 31.78125 66.40625 
Q 24.171875 66.40625 20.328125 58.90625 
Q 16.5 51.421875 16.5 36.375 
Q 16.5 21.390625 20.328125 13.890625 
Q 24.171875 6.390625 31.78125 6.390625 
Q 39.453125 6.390625 43.28125 13.890625 
Q 47.125 21.390625 47.125 36.375 
Q 47.125 51.421875 43.28125 58.90625 
Q 39.453125 66.40625 31.78125 66.40625 
z
M 31.78125 74.21875 
Q 44.046875 74.21875 50.515625 64.515625 
Q 56.984375 54.828125 56.984375 36.375 
Q 56.984375 17.96875 50.515625 8.265625 
Q 44.046875 -1.421875 31.78125 -1.421875 
Q 19.53125 -1.421875 13.0625 8.265625 
Q 6.59375 17.96875 6.59375 36.375 
Q 6.59375 54.828125 13.0625 64.515625 
Q 19.53125 74.21875 31.78125 74.21875 
z
" id="DejaVuSans-48"/>
    </defs>
    <g style="fill:#0000ff;" transform="translate(157.452209 431.75875)scale(0.2 -0.2)">
     <use xlink:href="#DejaVuSans-48"/>
    </g>
   </g>
   <g id="text_52">
    <!-- 1 -->
    <g style="fill:#0000ff;" transform="translate(420.76332 431.75875)scale(0.2 -0.2)">
     <use xlink:href="#DejaVuSans-49"/>
    </g>
   </g>
   <g id="text_53">
    <!-- 2 -->
    <g style="fill:#0000ff;" transform="translate(669.295914 431.75875)scale(0.2 -0.2)">
     <use xlink:href="#DejaVuSans-50"/>
    </g>
   </g>
   <g id="text_54">
    <!-- 3 -->
    <g style="fill:#0000ff;" transform="translate(903.879445 431.75875)scale(0.2 -0.2)">
     <use xlink:href="#DejaVuSans-51"/>
    </g>
   </g>
   <g id="text_55">
    <!-- 4 -->
    <g style="fill:#0000ff;" transform="translate(1125.296814 431.75875)scale(0.2 -0.2)">
     <use xlink:href="#DejaVuSans-52"/>
    </g>
   </g>
   <g id="text_56">
    <!-- 5 -->
    <defs>
     <path d="M 10.796875 72.90625 
L 49.515625 72.90625 
L 49.515625 64.59375 
L 19.828125 64.59375 
L 19.828125 46.734375 
Q 21.96875 47.46875 24.109375 47.828125 
Q 26.265625 48.1875 28.421875 48.1875 
Q 40.625 48.1875 47.75 41.5 
Q 54.890625 34.8125 54.890625 23.390625 
Q 54.890625 11.625 47.5625 5.09375 
Q 40.234375 -1.421875 26.90625 -1.421875 
Q 22.3125 -1.421875 17.546875 -0.640625 
Q 12.796875 0.140625 7.71875 1.703125 
L 7.71875 11.625 
Q 12.109375 9.234375 16.796875 8.0625 
Q 21.484375 6.890625 26.703125 6.890625 
Q 35.15625 6.890625 40.078125 11.328125 
Q 45.015625 15.765625 45.015625 23.390625 
Q 45.015625 31 40.078125 35.4375 
Q 35.15625 39.890625 26.703125 39.890625 
Q 22.75 39.890625 18.8125 39.015625 
Q 14.890625 38.140625 10.796875 36.28125 
z
" id="DejaVuSans-53"/>
    </defs>
    <g style="fill:#0000ff;" transform="translate(1334.286982 431.75875)scale(0.2 -0.2)">
     <use xlink:href="#DejaVuSans-53"/>
    </g>
   </g>
   <g id="text_57">
    <!-- 6 -->
    <defs>
     <path d="M 33.015625 40.375 
Q 26.375 40.375 22.484375 35.828125 
Q 18.609375 31.296875 18.609375 23.390625 
Q 18.609375 15.53125 22.484375 10.953125 
Q 26.375 6.390625 33.015625 6.390625 
Q 39.65625 6.390625 43.53125 10.953125 
Q 47.40625 15.53125 47.40625 23.390625 
Q 47.40625 31.296875 43.53125 35.828125 
Q 39.65625 40.375 33.015625 40.375 
z
M 52.59375 71.296875 
L 52.59375 62.3125 
Q 48.875 64.0625 45.09375 64.984375 
Q 41.3125 65.921875 37.59375 65.921875 
Q 27.828125 65.921875 22.671875 59.328125 
Q 17.53125 52.734375 16.796875 39.40625 
Q 19.671875 43.65625 24.015625 45.921875 
Q 28.375 48.1875 33.59375 48.1875 
Q 44.578125 48.1875 50.953125 41.515625 
Q 57.328125 34.859375 57.328125 23.390625 
Q 57.328125 12.15625 50.6875 5.359375 
Q 44.046875 -1.421875 33.015625 -1.421875 
Q 20.359375 -1.421875 13.671875 8.265625 
Q 6.984375 17.96875 6.984375 36.375 
Q 6.984375 53.65625 15.1875 63.9375 
Q 23.390625 74.21875 37.203125 74.21875 
Q 40.921875 74.21875 44.703125 73.484375 
Q 48.484375 72.75 52.59375 71.296875 
z
" id="DejaVuSans-54"/>
    </defs>
    <g style="fill:#0000ff;" transform="translate(1531.547432 431.75875)scale(0.2 -0.2)">
     <use xlink:href="#DejaVuSans-54"/>
    </g>
   </g>
   <g id="text_58">
    <!-- 7 -->
    <defs>
     <path d="M 8.203125 72.90625 
L 55.078125 72.90625 
L 55.078125 68.703125 
L 28.609375 0 
L 18.3125 0 
L 43.21875 64.59375 
L 8.203125 64.59375 
z
" id="DejaVuSans-55"/>
    </defs>
    <g style="fill:#0000ff;" transform="translate(1717.736504 431.75875)scale(0.2 -0.2)">
     <use xlink:href="#DejaVuSans-55"/>
    </g>
   </g>
   <g id="text_59">
    <!-- 8 -->
    <defs>
     <path d="M 31.78125 34.625 
Q 24.75 34.625 20.71875 30.859375 
Q 16.703125 27.09375 16.703125 20.515625 
Q 16.703125 13.921875 20.71875 10.15625 
Q 24.75 6.390625 31.78125 6.390625 
Q 38.8125 6.390625 42.859375 10.171875 
Q 46.921875 13.96875 46.921875 20.515625 
Q 46.921875 27.09375 42.890625 30.859375 
Q 38.875 34.625 31.78125 34.625 
z
M 21.921875 38.8125 
Q 15.578125 40.375 12.03125 44.71875 
Q 8.5 49.078125 8.5 55.328125 
Q 8.5 64.0625 14.71875 69.140625 
Q 20.953125 74.21875 31.78125 74.21875 
Q 42.671875 74.21875 48.875 69.140625 
Q 55.078125 64.0625 55.078125 55.328125 
Q 55.078125 49.078125 51.53125 44.71875 
Q 48 40.375 41.703125 38.8125 
Q 48.828125 37.15625 52.796875 32.3125 
Q 56.78125 27.484375 56.78125 20.515625 
Q 56.78125 9.90625 50.3125 4.234375 
Q 43.84375 -1.421875 31.78125 -1.421875 
Q 19.734375 -1.421875 13.25 4.234375 
Q 6.78125 9.90625 6.78125 20.515625 
Q 6.78125 27.484375 10.78125 32.3125 
Q 14.796875 37.15625 21.921875 38.8125 
z
M 18.3125 54.390625 
Q 18.3125 48.734375 21.84375 45.5625 
Q 25.390625 42.390625 31.78125 42.390625 
Q 38.140625 42.390625 41.71875 45.5625 
Q 45.3125 48.734375 45.3125 54.390625 
Q 45.3125 60.0625 41.71875 63.234375 
Q 38.140625 66.40625 31.78125 66.40625 
Q 25.390625 66.40625 21.84375 63.234375 
Q 18.3125 60.0625 18.3125 54.390625 
z
" id="DejaVuSans-56"/>
    </defs>
    <g style="fill:#0000ff;" transform="translate(1893.475587 431.75875)scale(0.2 -0.2)">
     <use xlink:href="#DejaVuSans-56"/>
    </g>
   </g>
   <g id="text_60">
    <!-- 9 -->
    <defs>
     <path d="M 10.984375 1.515625 
L 10.984375 10.5 
Q 14.703125 8.734375 18.5 7.8125 
Q 22.3125 6.890625 25.984375 6.890625 
Q 35.75 6.890625 40.890625 13.453125 
Q 46.046875 20.015625 46.78125 33.40625 
Q 43.953125 29.203125 39.59375 26.953125 
Q 35.25 24.703125 29.984375 24.703125 
Q 19.046875 24.703125 12.671875 31.3125 
Q 6.296875 37.9375 6.296875 49.421875 
Q 6.296875 60.640625 12.9375 67.421875 
Q 19.578125 74.21875 30.609375 74.21875 
Q 43.265625 74.21875 49.921875 64.515625 
Q 56.59375 54.828125 56.59375 36.375 
Q 56.59375 19.140625 48.40625 8.859375 
Q 40.234375 -1.421875 26.421875 -1.421875 
Q 22.703125 -1.421875 18.890625 -0.6875 
Q 15.09375 0.046875 10.984375 1.515625 
z
M 30.609375 32.421875 
Q 37.25 32.421875 41.125 36.953125 
Q 45.015625 41.5 45.015625 49.421875 
Q 45.015625 57.28125 41.125 61.84375 
Q 37.25 66.40625 30.609375 66.40625 
Q 23.96875 66.40625 20.09375 61.84375 
Q 16.21875 57.28125 16.21875 49.421875 
Q 16.21875 41.5 20.09375 36.953125 
Q 23.96875 32.421875 30.609375 32.421875 
z
" id="DejaVuSans-57"/>
    </defs>
    <g style="fill:#0000ff;" transform="translate(2059.351192 431.75875)scale(0.2 -0.2)">
     <use xlink:href="#DejaVuSans-57"/>
    </g>
   </g>
   <g id="text_61">
    <!-- 10 -->
    <g style="fill:#0000ff;" transform="translate(2209.554415 431.75875)scale(0.2 -0.2)">
     <use xlink:href="#DejaVuSans-49"/>
     <use x="63.623047" xlink:href="#DejaVuSans-48"/>
    </g>
   </g>
   <g id="text_62">
    <!-- 11 -->
    <g style="fill:#0000ff;" transform="translate(2357.33278 431.75875)scale(0.2 -0.2)">
     <use xlink:href="#DejaVuSans-49"/>
     <use x="63.623047" xlink:href="#DejaVuSans-49"/>
    </g>
   </g>
   <g id="text_63">
    <!-- 12 -->
    <g style="fill:#0000ff;" transform="translate(2496.816982 431.75875)scale(0.2 -0.2)">
     <use xlink:href="#DejaVuSans-49"/>
     <use x="63.623047" xlink:href="#DejaVuSans-50"/>
    </g>
   </g>
   <g id="text_64">
    <!-- 13 -->
    <g style="fill:#0000ff;" transform="translate(2628.472537 431.75875)scale(0.2 -0.2)">
     <use xlink:href="#DejaVuSans-49"/>
     <use x="63.623047" xlink:href="#DejaVuSans-51"/>
    </g>
   </g>
   <g id="text_65">
    <!-- 14 -->
    <g style="fill:#0000ff;" transform="translate(2752.738834 431.75875)scale(0.2 -0.2)">
     <use xlink:href="#DejaVuSans-49"/>
     <use x="63.623047" xlink:href="#DejaVuSans-52"/>
    </g>
   </g>
   <g id="text_66">
    <!-- 15 -->
    <g style="fill:#0000ff;" transform="translate(2870.0306 431.75875)scale(0.2 -0.2)">
     <use xlink:href="#DejaVuSans-49"/>
     <use x="63.623047" xlink:href="#DejaVuSans-53"/>
    </g>
   </g>
   <g id="text_67">
    <!-- 6 -->
    <g style="fill:#0000ff;" transform="translate(55.932209 397.91875)scale(0.2 -0.2)">
     <use xlink:href="#DejaVuSans-54"/>
    </g>
   </g>
   <g id="text_68">
    <!-- 5 -->
    <g style="fill:#0000ff;" transform="translate(55.932209 330.23875)scale(0.2 -0.2)">
     <use xlink:href="#DejaVuSans-53"/>
    </g>
   </g>
   <g id="text_69">
    <!-- 4 -->
    <g style="fill:#0000ff;" transform="translate(55.932209 262.55875)scale(0.2 -0.2)">
     <use xlink:href="#DejaVuSans-52"/>
    </g>
   </g>
   <g id="text_70">
    <!-- 3 -->
    <g style="fill:#0000ff;" transform="translate(55.932209 194.87875)scale(0.2 -0.2)">
     <use xlink:href="#DejaVuSans-51"/>
    </g>
   </g>
   <g id="text_71">
    <!-- 2 -->
    <g style="fill:#0000ff;" transform="translate(55.932209 127.19875)scale(0.2 -0.2)">
     <use xlink:href="#DejaVuSans-50"/>
    </g>
   </g>
   <g id="text_72">
    <!-- 1 -->
    <g style="fill:#0000ff;" transform="translate(55.932209 59.51875)scale(0.2 -0.2)">
     <use xlink:href="#DejaVuSans-49"/>
    </g>
   </g>
  </g>
 </g>
 <defs>
  <clipPath id="p5c58168da6">
   <rect height="419.616" width="2800.156891" x="89.366709" y="13.392"/>
  </clipPath>
 </defs>
</svg>
