<?xml version="1.0" encoding="utf-8" standalone="no"?>
<!DOCTYPE svg PUBLIC "-//W3C//DTD SVG 1.1//EN"
  "http://www.w3.org/Graphics/SVG/1.1/DTD/svg11.dtd">
<svg xmlns:xlink="http://www.w3.org/1999/xlink" width="371.52pt" height="344.049231pt" viewBox="0 0 371.52 344.049231" xmlns="http://www.w3.org/2000/svg" version="1.1">
 <metadata>
  <rdf:RDF xmlns:dc="http://purl.org/dc/elements/1.1/" xmlns:cc="http://creativecommons.org/ns#" xmlns:rdf="http://www.w3.org/1999/02/22-rdf-syntax-ns#">
   <cc:Work>
    <dc:type rdf:resource="http://purl.org/dc/dcmitype/StillImage"/>
    <dc:date>2022-01-27T18:20:55.833925</dc:date>
    <dc:format>image/svg+xml</dc:format>
    <dc:creator>
     <cc:Agent>
      <dc:title>Matplotlib v3.5.0, https://matplotlib.org/</dc:title>
     </cc:Agent>
    </dc:creator>
   </cc:Work>
  </rdf:RDF>
 </metadata>
 <defs>
  <style type="text/css">*{stroke-linejoin: round; stroke-linecap: butt}</style>
 </defs>
 <g id="figure_1">
  <g id="patch_1">
   <path d="M 0 344.049231 
L 371.52 344.049231 
L 371.52 -0 
L 0 -0 
z
" style="fill: #ffffff"/>
  </g>
  <g id="axes_1">
   <g id="patch_2">
    <path d="M 20.935385 130.164396 
C 24.404591 130.164396 27.732174 128.786065 30.185274 126.332966 
C 32.638373 123.879867 34.016703 120.552283 34.016703 117.083077 
C 34.016703 113.613871 32.638373 110.286287 30.185274 107.833188 
C 27.732174 105.380089 24.404591 104.001758 20.935385 104.001758 
C 17.466178 104.001758 14.138595 105.380089 11.685495 107.833188 
C 9.232396 110.286287 7.854066 113.613871 7.854066 117.083077 
C 7.854066 120.552283 9.232396 123.879867 11.685495 126.332966 
C 14.138595 128.786065 17.466178 130.164396 20.935385 130.164396 
z
" clip-path="url(#pf33f54806d)" style="fill: #6a5acd; opacity: 0.25"/>
   </g>
   <g id="patch_3">
    <path d="M 75.876923 130.164396 
C 79.346129 130.164396 82.673713 128.786065 85.126812 126.332966 
C 87.579911 123.879867 88.958242 120.552283 88.958242 117.083077 
C 88.958242 113.613871 87.579911 110.286287 85.126812 107.833188 
C 82.673713 105.380089 79.346129 104.001758 75.876923 104.001758 
C 72.407717 104.001758 69.080133 105.380089 66.627034 107.833188 
C 64.173935 110.286287 62.795604 113.613871 62.795604 117.083077 
C 62.795604 120.552283 64.173935 123.879867 66.627034 126.332966 
C 69.080133 128.786065 72.407717 130.164396 75.876923 130.164396 
z
" clip-path="url(#pf33f54806d)" style="fill: #6a5acd; opacity: 0.25"/>
   </g>
   <g id="patch_4">
    <path d="M 130.818462 130.164396 
C 134.287668 130.164396 137.615251 128.786065 140.068351 126.332966 
C 142.52145 123.879867 143.89978 120.552283 143.89978 117.083077 
C 143.89978 113.613871 142.52145 110.286287 140.068351 107.833188 
C 137.615251 105.380089 134.287668 104.001758 130.818462 104.001758 
C 127.349255 104.001758 124.021672 105.380089 121.568572 107.833188 
C 119.115473 110.286287 117.737143 113.613871 117.737143 117.083077 
C 117.737143 120.552283 119.115473 123.879867 121.568572 126.332966 
C 124.021672 128.786065 127.349255 130.164396 130.818462 130.164396 
z
" clip-path="url(#pf33f54806d)" style="fill: #6a5acd; opacity: 0.25"/>
   </g>
   <g id="patch_5">
    <path d="M 185.76 130.164396 
C 189.229206 130.164396 192.55679 128.786065 195.009889 126.332966 
C 197.462988 123.879867 198.841319 120.552283 198.841319 117.083077 
C 198.841319 113.613871 197.462988 110.286287 195.009889 107.833188 
C 192.55679 105.380089 189.229206 104.001758 185.76 104.001758 
C 182.290794 104.001758 178.96321 105.380089 176.510111 107.833188 
C 174.057012 110.286287 172.678681 113.613871 172.678681 117.083077 
C 172.678681 120.552283 174.057012 123.879867 176.510111 126.332966 
C 178.96321 128.786065 182.290794 130.164396 185.76 130.164396 
z
" clip-path="url(#pf33f54806d)" style="fill: #6a5acd; opacity: 0.25"/>
   </g>
   <g id="patch_6">
    <path d="M 240.701538 130.164396 
C 244.170745 130.164396 247.498328 128.786065 249.951428 126.332966 
C 252.404527 123.879867 253.782857 120.552283 253.782857 117.083077 
C 253.782857 113.613871 252.404527 110.286287 249.951428 107.833188 
C 247.498328 105.380089 244.170745 104.001758 240.701538 104.001758 
C 237.232332 104.001758 233.904749 105.380089 231.451649 107.833188 
C 228.99855 110.286287 227.62022 113.613871 227.62022 117.083077 
C 227.62022 120.552283 228.99855 123.879867 231.451649 126.332966 
C 233.904749 128.786065 237.232332 130.164396 240.701538 130.164396 
z
" clip-path="url(#pf33f54806d)" style="fill: #6a5acd; opacity: 0.25"/>
   </g>
   <g id="patch_7">
    <path d="M 295.643077 130.164396 
C 299.112283 130.164396 302.439867 128.786065 304.892966 126.332966 
C 307.346065 123.879867 308.724396 120.552283 308.724396 117.083077 
C 308.724396 113.613871 307.346065 110.286287 304.892966 107.833188 
C 302.439867 105.380089 299.112283 104.001758 295.643077 104.001758 
C 292.173871 104.001758 288.846287 105.380089 286.393188 107.833188 
C 283.940089 110.286287 282.561758 113.613871 282.561758 117.083077 
C 282.561758 120.552283 283.940089 123.879867 286.393188 126.332966 
C 288.846287 128.786065 292.173871 130.164396 295.643077 130.164396 
z
" clip-path="url(#pf33f54806d)" style="fill: #6a5acd; opacity: 0.25"/>
   </g>
   <g id="patch_8">
    <path d="M 350.584615 130.164396 
C 354.053822 130.164396 357.381405 128.786065 359.834505 126.332966 
C 362.287604 123.879867 363.665934 120.552283 363.665934 117.083077 
C 363.665934 113.613871 362.287604 110.286287 359.834505 107.833188 
C 357.381405 105.380089 354.053822 104.001758 350.584615 104.001758 
C 347.115409 104.001758 343.787826 105.380089 341.334726 107.833188 
C 338.881627 110.286287 337.503297 113.613871 337.503297 117.083077 
C 337.503297 120.552283 338.881627 123.879867 341.334726 126.332966 
C 343.787826 128.786065 347.115409 130.164396 350.584615 130.164396 
z
" clip-path="url(#pf33f54806d)" style="fill: #6a5acd; opacity: 0.25"/>
   </g>
   <g id="patch_9">
    <path d="M 20.935385 171.370549 
C 24.404591 171.370549 27.732174 169.992219 30.185274 167.53912 
C 32.638373 165.086021 34.016703 161.758437 34.016703 158.289231 
C 34.016703 154.820025 32.638373 151.492441 30.185274 149.039342 
C 27.732174 146.586242 24.404591 145.207912 20.935385 145.207912 
C 17.466178 145.207912 14.138595 146.586242 11.685495 149.039342 
C 9.232396 151.492441 7.854066 154.820025 7.854066 158.289231 
C 7.854066 161.758437 9.232396 165.086021 11.685495 167.53912 
C 14.138595 169.992219 17.466178 171.370549 20.935385 171.370549 
z
" clip-path="url(#pf33f54806d)" style="fill: #6a5acd; opacity: 0.25"/>
   </g>
   <g id="patch_10">
    <path d="M 75.876923 171.370549 
C 79.346129 171.370549 82.673713 169.992219 85.126812 167.53912 
C 87.579911 165.086021 88.958242 161.758437 88.958242 158.289231 
C 88.958242 154.820025 87.579911 151.492441 85.126812 149.039342 
C 82.673713 146.586242 79.346129 145.207912 75.876923 145.207912 
C 72.407717 145.207912 69.080133 146.586242 66.627034 149.039342 
C 64.173935 151.492441 62.795604 154.820025 62.795604 158.289231 
C 62.795604 161.758437 64.173935 165.086021 66.627034 167.53912 
C 69.080133 169.992219 72.407717 171.370549 75.876923 171.370549 
z
" clip-path="url(#pf33f54806d)" style="fill: #6a5acd; opacity: 0.25"/>
   </g>
   <g id="patch_11">
    <path d="M 130.818462 171.370549 
C 134.287668 171.370549 137.615251 169.992219 140.068351 167.53912 
C 142.52145 165.086021 143.89978 161.758437 143.89978 158.289231 
C 143.89978 154.820025 142.52145 151.492441 140.068351 149.039342 
C 137.615251 146.586242 134.287668 145.207912 130.818462 145.207912 
C 127.349255 145.207912 124.021672 146.586242 121.568572 149.039342 
C 119.115473 151.492441 117.737143 154.820025 117.737143 158.289231 
C 117.737143 161.758437 119.115473 165.086021 121.568572 167.53912 
C 124.021672 169.992219 127.349255 171.370549 130.818462 171.370549 
z
" clip-path="url(#pf33f54806d)" style="fill: #6a5acd; opacity: 0.25"/>
   </g>
   <g id="patch_12">
    <path d="M 185.76 171.370549 
C 189.229206 171.370549 192.55679 169.992219 195.009889 167.53912 
C 197.462988 165.086021 198.841319 161.758437 198.841319 158.289231 
C 198.841319 154.820025 197.462988 151.492441 195.009889 149.039342 
C 192.55679 146.586242 189.229206 145.207912 185.76 145.207912 
C 182.290794 145.207912 178.96321 146.586242 176.510111 149.039342 
C 174.057012 151.492441 172.678681 154.820025 172.678681 158.289231 
C 172.678681 161.758437 174.057012 165.086021 176.510111 167.53912 
C 178.96321 169.992219 182.290794 171.370549 185.76 171.370549 
z
" clip-path="url(#pf33f54806d)" style="fill: #6a5acd; opacity: 0.25"/>
   </g>
   <g id="patch_13">
    <path d="M 240.701538 171.370549 
C 244.170745 171.370549 247.498328 169.992219 249.951428 167.53912 
C 252.404527 165.086021 253.782857 161.758437 253.782857 158.289231 
C 253.782857 154.820025 252.404527 151.492441 249.951428 149.039342 
C 247.498328 146.586242 244.170745 145.207912 240.701538 145.207912 
C 237.232332 145.207912 233.904749 146.586242 231.451649 149.039342 
C 228.99855 151.492441 227.62022 154.820025 227.62022 158.289231 
C 227.62022 161.758437 228.99855 165.086021 231.451649 167.53912 
C 233.904749 169.992219 237.232332 171.370549 240.701538 171.370549 
z
" clip-path="url(#pf33f54806d)" style="fill: #6a5acd; opacity: 0.25"/>
   </g>
   <g id="patch_14">
    <path d="M 295.643077 171.370549 
C 299.112283 171.370549 302.439867 169.992219 304.892966 167.53912 
C 307.346065 165.086021 308.724396 161.758437 308.724396 158.289231 
C 308.724396 154.820025 307.346065 151.492441 304.892966 149.039342 
C 302.439867 146.586242 299.112283 145.207912 295.643077 145.207912 
C 292.173871 145.207912 288.846287 146.586242 286.393188 149.039342 
C 283.940089 151.492441 282.561758 154.820025 282.561758 158.289231 
C 282.561758 161.758437 283.940089 165.086021 286.393188 167.53912 
C 288.846287 169.992219 292.173871 171.370549 295.643077 171.370549 
z
" clip-path="url(#pf33f54806d)" style="fill: #6a5acd; opacity: 0.25"/>
   </g>
   <g id="patch_15">
    <path d="M 350.584615 171.370549 
C 354.053822 171.370549 357.381405 169.992219 359.834505 167.53912 
C 362.287604 165.086021 363.665934 161.758437 363.665934 158.289231 
C 363.665934 154.820025 362.287604 151.492441 359.834505 149.039342 
C 357.381405 146.586242 354.053822 145.207912 350.584615 145.207912 
C 347.115409 145.207912 343.787826 146.586242 341.334726 149.039342 
C 338.881627 151.492441 337.503297 154.820025 337.503297 158.289231 
C 337.503297 161.758437 338.881627 165.086021 341.334726 167.53912 
C 343.787826 169.992219 347.115409 171.370549 350.584615 171.370549 
z
" clip-path="url(#pf33f54806d)" style="fill: #6a5acd; opacity: 0.25"/>
   </g>
   <g id="patch_16">
    <path d="M 20.935385 212.576703 
C 24.404591 212.576703 27.732174 211.198373 30.185274 208.745274 
C 32.638373 206.292174 34.016703 202.964591 34.016703 199.495385 
C 34.016703 196.026178 32.638373 192.698595 30.185274 190.245495 
C 27.732174 187.792396 24.404591 186.414066 20.935385 186.414066 
C 17.466178 186.414066 14.138595 187.792396 11.685495 190.245495 
C 9.232396 192.698595 7.854066 196.026178 7.854066 199.495385 
C 7.854066 202.964591 9.232396 206.292174 11.685495 208.745274 
C 14.138595 211.198373 17.466178 212.576703 20.935385 212.576703 
z
" clip-path="url(#pf33f54806d)" style="fill: #6a5acd; opacity: 0.25"/>
   </g>
   <g id="patch_17">
    <path d="M 75.876923 212.576703 
C 79.346129 212.576703 82.673713 211.198373 85.126812 208.745274 
C 87.579911 206.292174 88.958242 202.964591 88.958242 199.495385 
C 88.958242 196.026178 87.579911 192.698595 85.126812 190.245495 
C 82.673713 187.792396 79.346129 186.414066 75.876923 186.414066 
C 72.407717 186.414066 69.080133 187.792396 66.627034 190.245495 
C 64.173935 192.698595 62.795604 196.026178 62.795604 199.495385 
C 62.795604 202.964591 64.173935 206.292174 66.627034 208.745274 
C 69.080133 211.198373 72.407717 212.576703 75.876923 212.576703 
z
" clip-path="url(#pf33f54806d)" style="fill: #6a5acd; opacity: 0.25"/>
   </g>
   <g id="patch_18">
    <path d="M 130.818462 212.576703 
C 134.287668 212.576703 137.615251 211.198373 140.068351 208.745274 
C 142.52145 206.292174 143.89978 202.964591 143.89978 199.495385 
C 143.89978 196.026178 142.52145 192.698595 140.068351 190.245495 
C 137.615251 187.792396 134.287668 186.414066 130.818462 186.414066 
C 127.349255 186.414066 124.021672 187.792396 121.568572 190.245495 
C 119.115473 192.698595 117.737143 196.026178 117.737143 199.495385 
C 117.737143 202.964591 119.115473 206.292174 121.568572 208.745274 
C 124.021672 211.198373 127.349255 212.576703 130.818462 212.576703 
z
" clip-path="url(#pf33f54806d)" style="fill: #6a5acd; opacity: 0.25"/>
   </g>
   <g id="patch_19">
    <path d="M 185.76 212.576703 
C 189.229206 212.576703 192.55679 211.198373 195.009889 208.745274 
C 197.462988 206.292174 198.841319 202.964591 198.841319 199.495385 
C 198.841319 196.026178 197.462988 192.698595 195.009889 190.245495 
C 192.55679 187.792396 189.229206 186.414066 185.76 186.414066 
C 182.290794 186.414066 178.96321 187.792396 176.510111 190.245495 
C 174.057012 192.698595 172.678681 196.026178 172.678681 199.495385 
C 172.678681 202.964591 174.057012 206.292174 176.510111 208.745274 
C 178.96321 211.198373 182.290794 212.576703 185.76 212.576703 
z
" clip-path="url(#pf33f54806d)" style="fill: #6a5acd; opacity: 0.25"/>
   </g>
   <g id="patch_20">
    <path d="M 240.701538 212.576703 
C 244.170745 212.576703 247.498328 211.198373 249.951428 208.745274 
C 252.404527 206.292174 253.782857 202.964591 253.782857 199.495385 
C 253.782857 196.026178 252.404527 192.698595 249.951428 190.245495 
C 247.498328 187.792396 244.170745 186.414066 240.701538 186.414066 
C 237.232332 186.414066 233.904749 187.792396 231.451649 190.245495 
C 228.99855 192.698595 227.62022 196.026178 227.62022 199.495385 
C 227.62022 202.964591 228.99855 206.292174 231.451649 208.745274 
C 233.904749 211.198373 237.232332 212.576703 240.701538 212.576703 
z
" clip-path="url(#pf33f54806d)" style="fill: #6a5acd; opacity: 0.25"/>
   </g>
   <g id="patch_21">
    <path d="M 295.643077 212.576703 
C 299.112283 212.576703 302.439867 211.198373 304.892966 208.745274 
C 307.346065 206.292174 308.724396 202.964591 308.724396 199.495385 
C 308.724396 196.026178 307.346065 192.698595 304.892966 190.245495 
C 302.439867 187.792396 299.112283 186.414066 295.643077 186.414066 
C 292.173871 186.414066 288.846287 187.792396 286.393188 190.245495 
C 283.940089 192.698595 282.561758 196.026178 282.561758 199.495385 
C 282.561758 202.964591 283.940089 206.292174 286.393188 208.745274 
C 288.846287 211.198373 292.173871 212.576703 295.643077 212.576703 
z
" clip-path="url(#pf33f54806d)" style="fill: #6a5acd; opacity: 0.25"/>
   </g>
   <g id="patch_22">
    <path d="M 350.584615 212.576703 
C 354.053822 212.576703 357.381405 211.198373 359.834505 208.745274 
C 362.287604 206.292174 363.665934 202.964591 363.665934 199.495385 
C 363.665934 196.026178 362.287604 192.698595 359.834505 190.245495 
C 357.381405 187.792396 354.053822 186.414066 350.584615 186.414066 
C 347.115409 186.414066 343.787826 187.792396 341.334726 190.245495 
C 338.881627 192.698595 337.503297 196.026178 337.503297 199.495385 
C 337.503297 202.964591 338.881627 206.292174 341.334726 208.745274 
C 343.787826 211.198373 347.115409 212.576703 350.584615 212.576703 
z
" clip-path="url(#pf33f54806d)" style="fill: #6a5acd; opacity: 0.25"/>
   </g>
   <g id="patch_23">
    <path d="M 20.935385 253.782857 
C 24.404591 253.782857 27.732174 252.404527 30.185274 249.951428 
C 32.638373 247.498328 34.016703 244.170745 34.016703 240.701538 
C 34.016703 237.232332 32.638373 233.904749 30.185274 231.451649 
C 27.732174 228.99855 24.404591 227.62022 20.935385 227.62022 
C 17.466178 227.62022 14.138595 228.99855 11.685495 231.451649 
C 9.232396 233.904749 7.854066 237.232332 7.854066 240.701538 
C 7.854066 244.170745 9.232396 247.498328 11.685495 249.951428 
C 14.138595 252.404527 17.466178 253.782857 20.935385 253.782857 
z
" clip-path="url(#pf33f54806d)" style="fill: #6a5acd; opacity: 0.25"/>
   </g>
   <g id="patch_24">
    <path d="M 75.876923 253.782857 
C 79.346129 253.782857 82.673713 252.404527 85.126812 249.951428 
C 87.579911 247.498328 88.958242 244.170745 88.958242 240.701538 
C 88.958242 237.232332 87.579911 233.904749 85.126812 231.451649 
C 82.673713 228.99855 79.346129 227.62022 75.876923 227.62022 
C 72.407717 227.62022 69.080133 228.99855 66.627034 231.451649 
C 64.173935 233.904749 62.795604 237.232332 62.795604 240.701538 
C 62.795604 244.170745 64.173935 247.498328 66.627034 249.951428 
C 69.080133 252.404527 72.407717 253.782857 75.876923 253.782857 
z
" clip-path="url(#pf33f54806d)" style="fill: #6a5acd; opacity: 0.25"/>
   </g>
   <g id="patch_25">
    <path d="M 130.818462 253.782857 
C 134.287668 253.782857 137.615251 252.404527 140.068351 249.951428 
C 142.52145 247.498328 143.89978 244.170745 143.89978 240.701538 
C 143.89978 237.232332 142.52145 233.904749 140.068351 231.451649 
C 137.615251 228.99855 134.287668 227.62022 130.818462 227.62022 
C 127.349255 227.62022 124.021672 228.99855 121.568572 231.451649 
C 119.115473 233.904749 117.737143 237.232332 117.737143 240.701538 
C 117.737143 244.170745 119.115473 247.498328 121.568572 249.951428 
C 124.021672 252.404527 127.349255 253.782857 130.818462 253.782857 
z
" clip-path="url(#pf33f54806d)" style="fill: #6a5acd; opacity: 0.25"/>
   </g>
   <g id="patch_26">
    <path d="M 185.76 253.782857 
C 189.229206 253.782857 192.55679 252.404527 195.009889 249.951428 
C 197.462988 247.498328 198.841319 244.170745 198.841319 240.701538 
C 198.841319 237.232332 197.462988 233.904749 195.009889 231.451649 
C 192.55679 228.99855 189.229206 227.62022 185.76 227.62022 
C 182.290794 227.62022 178.96321 228.99855 176.510111 231.451649 
C 174.057012 233.904749 172.678681 237.232332 172.678681 240.701538 
C 172.678681 244.170745 174.057012 247.498328 176.510111 249.951428 
C 178.96321 252.404527 182.290794 253.782857 185.76 253.782857 
z
" clip-path="url(#pf33f54806d)" style="fill: #6a5acd; opacity: 0.25"/>
   </g>
   <g id="patch_27">
    <path d="M 240.701538 253.782857 
C 244.170745 253.782857 247.498328 252.404527 249.951428 249.951428 
C 252.404527 247.498328 253.782857 244.170745 253.782857 240.701538 
C 253.782857 237.232332 252.404527 233.904749 249.951428 231.451649 
C 247.498328 228.99855 244.170745 227.62022 240.701538 227.62022 
C 237.232332 227.62022 233.904749 228.99855 231.451649 231.451649 
C 228.99855 233.904749 227.62022 237.232332 227.62022 240.701538 
C 227.62022 244.170745 228.99855 247.498328 231.451649 249.951428 
C 233.904749 252.404527 237.232332 253.782857 240.701538 253.782857 
z
" clip-path="url(#pf33f54806d)" style="fill: #6a5acd; opacity: 0.25"/>
   </g>
   <g id="patch_28">
    <path d="M 295.643077 253.782857 
C 299.112283 253.782857 302.439867 252.404527 304.892966 249.951428 
C 307.346065 247.498328 308.724396 244.170745 308.724396 240.701538 
C 308.724396 237.232332 307.346065 233.904749 304.892966 231.451649 
C 302.439867 228.99855 299.112283 227.62022 295.643077 227.62022 
C 292.173871 227.62022 288.846287 228.99855 286.393188 231.451649 
C 283.940089 233.904749 282.561758 237.232332 282.561758 240.701538 
C 282.561758 244.170745 283.940089 247.498328 286.393188 249.951428 
C 288.846287 252.404527 292.173871 253.782857 295.643077 253.782857 
z
" clip-path="url(#pf33f54806d)" style="fill: #6a5acd; opacity: 0.25"/>
   </g>
   <g id="patch_29">
    <path d="M 350.584615 253.782857 
C 354.053822 253.782857 357.381405 252.404527 359.834505 249.951428 
C 362.287604 247.498328 363.665934 244.170745 363.665934 240.701538 
C 363.665934 237.232332 362.287604 233.904749 359.834505 231.451649 
C 357.381405 228.99855 354.053822 227.62022 350.584615 227.62022 
C 347.115409 227.62022 343.787826 228.99855 341.334726 231.451649 
C 338.881627 233.904749 337.503297 237.232332 337.503297 240.701538 
C 337.503297 244.170745 338.881627 247.498328 341.334726 249.951428 
C 343.787826 252.404527 347.115409 253.782857 350.584615 253.782857 
z
" clip-path="url(#pf33f54806d)" style="fill: #6a5acd; opacity: 0.25"/>
   </g>
   <g id="patch_30">
    <path d="M 20.935385 294.989011 
C 24.404591 294.989011 27.732174 293.610681 30.185274 291.157581 
C 32.638373 288.704482 34.016703 285.376899 34.016703 281.907692 
C 34.016703 278.438486 32.638373 275.110902 30.185274 272.657803 
C 27.732174 270.204704 24.404591 268.826374 20.935385 268.826374 
C 17.466178 268.826374 14.138595 270.204704 11.685495 272.657803 
C 9.232396 275.110902 7.854066 278.438486 7.854066 281.907692 
C 7.854066 285.376899 9.232396 288.704482 11.685495 291.157581 
C 14.138595 293.610681 17.466178 294.989011 20.935385 294.989011 
z
" clip-path="url(#pf33f54806d)" style="fill: #6a5acd; opacity: 0.25"/>
   </g>
   <g id="patch_31">
    <path d="M 75.876923 294.989011 
C 79.346129 294.989011 82.673713 293.610681 85.126812 291.157581 
C 87.579911 288.704482 88.958242 285.376899 88.958242 281.907692 
C 88.958242 278.438486 87.579911 275.110902 85.126812 272.657803 
C 82.673713 270.204704 79.346129 268.826374 75.876923 268.826374 
C 72.407717 268.826374 69.080133 270.204704 66.627034 272.657803 
C 64.173935 275.110902 62.795604 278.438486 62.795604 281.907692 
C 62.795604 285.376899 64.173935 288.704482 66.627034 291.157581 
C 69.080133 293.610681 72.407717 294.989011 75.876923 294.989011 
z
" clip-path="url(#pf33f54806d)" style="fill: #6a5acd; opacity: 0.25"/>
   </g>
   <g id="patch_32">
    <path d="M 130.818462 294.989011 
C 134.287668 294.989011 137.615251 293.610681 140.068351 291.157581 
C 142.52145 288.704482 143.89978 285.376899 143.89978 281.907692 
C 143.89978 278.438486 142.52145 275.110902 140.068351 272.657803 
C 137.615251 270.204704 134.287668 268.826374 130.818462 268.826374 
C 127.349255 268.826374 124.021672 270.204704 121.568572 272.657803 
C 119.115473 275.110902 117.737143 278.438486 117.737143 281.907692 
C 117.737143 285.376899 119.115473 288.704482 121.568572 291.157581 
C 124.021672 293.610681 127.349255 294.989011 130.818462 294.989011 
z
" clip-path="url(#pf33f54806d)" style="fill: #6a5acd; opacity: 0.25"/>
   </g>
   <g id="patch_33">
    <path d="M 185.76 294.989011 
C 189.229206 294.989011 192.55679 293.610681 195.009889 291.157581 
C 197.462988 288.704482 198.841319 285.376899 198.841319 281.907692 
C 198.841319 278.438486 197.462988 275.110902 195.009889 272.657803 
C 192.55679 270.204704 189.229206 268.826374 185.76 268.826374 
C 182.290794 268.826374 178.96321 270.204704 176.510111 272.657803 
C 174.057012 275.110902 172.678681 278.438486 172.678681 281.907692 
C 172.678681 285.376899 174.057012 288.704482 176.510111 291.157581 
C 178.96321 293.610681 182.290794 294.989011 185.76 294.989011 
z
" clip-path="url(#pf33f54806d)" style="fill: #6a5acd; opacity: 0.25"/>
   </g>
   <g id="patch_34">
    <path d="M 240.701538 294.989011 
C 244.170745 294.989011 247.498328 293.610681 249.951428 291.157581 
C 252.404527 288.704482 253.782857 285.376899 253.782857 281.907692 
C 253.782857 278.438486 252.404527 275.110902 249.951428 272.657803 
C 247.498328 270.204704 244.170745 268.826374 240.701538 268.826374 
C 237.232332 268.826374 233.904749 270.204704 231.451649 272.657803 
C 228.99855 275.110902 227.62022 278.438486 227.62022 281.907692 
C 227.62022 285.376899 228.99855 288.704482 231.451649 291.157581 
C 233.904749 293.610681 237.232332 294.989011 240.701538 294.989011 
z
" clip-path="url(#pf33f54806d)" style="fill: #6a5acd; opacity: 0.25"/>
   </g>
   <g id="patch_35">
    <path d="M 295.643077 294.989011 
C 299.112283 294.989011 302.439867 293.610681 304.892966 291.157581 
C 307.346065 288.704482 308.724396 285.376899 308.724396 281.907692 
C 308.724396 278.438486 307.346065 275.110902 304.892966 272.657803 
C 302.439867 270.204704 299.112283 268.826374 295.643077 268.826374 
C 292.173871 268.826374 288.846287 270.204704 286.393188 272.657803 
C 283.940089 275.110902 282.561758 278.438486 282.561758 281.907692 
C 282.561758 285.376899 283.940089 288.704482 286.393188 291.157581 
C 288.846287 293.610681 292.173871 294.989011 295.643077 294.989011 
z
" clip-path="url(#pf33f54806d)" style="fill: #6a5acd; opacity: 0.25"/>
   </g>
   <g id="patch_36">
    <path d="M 350.584615 294.989011 
C 354.053822 294.989011 357.381405 293.610681 359.834505 291.157581 
C 362.287604 288.704482 363.665934 285.376899 363.665934 281.907692 
C 363.665934 278.438486 362.287604 275.110902 359.834505 272.657803 
C 357.381405 270.204704 354.053822 268.826374 350.584615 268.826374 
C 347.115409 268.826374 343.787826 270.204704 341.334726 272.657803 
C 338.881627 275.110902 337.503297 278.438486 337.503297 281.907692 
C 337.503297 285.376899 338.881627 288.704482 341.334726 291.157581 
C 343.787826 293.610681 347.115409 294.989011 350.584615 294.989011 
z
" clip-path="url(#pf33f54806d)" style="fill: #6a5acd; opacity: 0.25"/>
   </g>
   <g id="patch_37">
    <path d="M 20.935385 336.195165 
C 24.404591 336.195165 27.732174 334.816835 30.185274 332.363735 
C 32.638373 329.910636 34.016703 326.583052 34.016703 323.113846 
C 34.016703 319.64464 32.638373 316.317056 30.185274 313.863957 
C 27.732174 311.410858 24.404591 310.032527 20.935385 310.032527 
C 17.466178 310.032527 14.138595 311.410858 11.685495 313.863957 
C 9.232396 316.317056 7.854066 319.64464 7.854066 323.113846 
C 7.854066 326.583052 9.232396 329.910636 11.685495 332.363735 
C 14.138595 334.816835 17.466178 336.195165 20.935385 336.195165 
z
" clip-path="url(#pf33f54806d)" style="fill: #6a5acd; opacity: 0.25"/>
   </g>
   <g id="patch_38">
    <path d="M 75.876923 336.195165 
C 79.346129 336.195165 82.673713 334.816835 85.126812 332.363735 
C 87.579911 329.910636 88.958242 326.583052 88.958242 323.113846 
C 88.958242 319.64464 87.579911 316.317056 85.126812 313.863957 
C 82.673713 311.410858 79.346129 310.032527 75.876923 310.032527 
C 72.407717 310.032527 69.080133 311.410858 66.627034 313.863957 
C 64.173935 316.317056 62.795604 319.64464 62.795604 323.113846 
C 62.795604 326.583052 64.173935 329.910636 66.627034 332.363735 
C 69.080133 334.816835 72.407717 336.195165 75.876923 336.195165 
z
" clip-path="url(#pf33f54806d)" style="fill: #6a5acd; opacity: 0.25"/>
   </g>
   <g id="patch_39">
    <path d="M 130.818462 336.195165 
C 134.287668 336.195165 137.615251 334.816835 140.068351 332.363735 
C 142.52145 329.910636 143.89978 326.583052 143.89978 323.113846 
C 143.89978 319.64464 142.52145 316.317056 140.068351 313.863957 
C 137.615251 311.410858 134.287668 310.032527 130.818462 310.032527 
C 127.349255 310.032527 124.021672 311.410858 121.568572 313.863957 
C 119.115473 316.317056 117.737143 319.64464 117.737143 323.113846 
C 117.737143 326.583052 119.115473 329.910636 121.568572 332.363735 
C 124.021672 334.816835 127.349255 336.195165 130.818462 336.195165 
z
" clip-path="url(#pf33f54806d)" style="fill: #6a5acd; opacity: 0.25"/>
   </g>
   <g id="patch_40">
    <path d="M 185.76 336.195165 
C 189.229206 336.195165 192.55679 334.816835 195.009889 332.363735 
C 197.462988 329.910636 198.841319 326.583052 198.841319 323.113846 
C 198.841319 319.64464 197.462988 316.317056 195.009889 313.863957 
C 192.55679 311.410858 189.229206 310.032527 185.76 310.032527 
C 182.290794 310.032527 178.96321 311.410858 176.510111 313.863957 
C 174.057012 316.317056 172.678681 319.64464 172.678681 323.113846 
C 172.678681 326.583052 174.057012 329.910636 176.510111 332.363735 
C 178.96321 334.816835 182.290794 336.195165 185.76 336.195165 
z
" clip-path="url(#pf33f54806d)" style="fill: #6a5acd; opacity: 0.25"/>
   </g>
   <g id="patch_41">
    <path d="M 240.701538 336.195165 
C 244.170745 336.195165 247.498328 334.816835 249.951428 332.363735 
C 252.404527 329.910636 253.782857 326.583052 253.782857 323.113846 
C 253.782857 319.64464 252.404527 316.317056 249.951428 313.863957 
C 247.498328 311.410858 244.170745 310.032527 240.701538 310.032527 
C 237.232332 310.032527 233.904749 311.410858 231.451649 313.863957 
C 228.99855 316.317056 227.62022 319.64464 227.62022 323.113846 
C 227.62022 326.583052 228.99855 329.910636 231.451649 332.363735 
C 233.904749 334.816835 237.232332 336.195165 240.701538 336.195165 
z
" clip-path="url(#pf33f54806d)" style="fill: #6a5acd; opacity: 0.25"/>
   </g>
   <g id="patch_42">
    <path d="M 295.643077 336.195165 
C 299.112283 336.195165 302.439867 334.816835 304.892966 332.363735 
C 307.346065 329.910636 308.724396 326.583052 308.724396 323.113846 
C 308.724396 319.64464 307.346065 316.317056 304.892966 313.863957 
C 302.439867 311.410858 299.112283 310.032527 295.643077 310.032527 
C 292.173871 310.032527 288.846287 311.410858 286.393188 313.863957 
C 283.940089 316.317056 282.561758 319.64464 282.561758 323.113846 
C 282.561758 326.583052 283.940089 329.910636 286.393188 332.363735 
C 288.846287 334.816835 292.173871 336.195165 295.643077 336.195165 
z
" clip-path="url(#pf33f54806d)" style="fill: #6a5acd; opacity: 0.25"/>
   </g>
   <g id="patch_43">
    <path d="M 350.584615 336.195165 
C 354.053822 336.195165 357.381405 334.816835 359.834505 332.363735 
C 362.287604 329.910636 363.665934 326.583052 363.665934 323.113846 
C 363.665934 319.64464 362.287604 316.317056 359.834505 313.863957 
C 357.381405 311.410858 354.053822 310.032527 350.584615 310.032527 
C 347.115409 310.032527 343.787826 311.410858 341.334726 313.863957 
C 338.881627 316.317056 337.503297 319.64464 337.503297 323.113846 
C 337.503297 326.583052 338.881627 329.910636 341.334726 332.363735 
C 343.787826 334.816835 347.115409 336.195165 350.584615 336.195165 
z
" clip-path="url(#pf33f54806d)" style="fill: #6a5acd; opacity: 0.25"/>
   </g>
   <g id="text_1">
    <text style="font: 12px 'sans-serif'; text-anchor: middle" x="20.935385" y="24.565385" transform="rotate(-0, 20.935385, 24.565385)">2</text>
   </g>
   <g id="text_2">
    <text style="font: 12px 'sans-serif'; text-anchor: middle" x="34.670769" y="24.565385" transform="rotate(-0, 34.670769, 24.565385)">0</text>
   </g>
   <g id="text_3">
    <text style="font: 12px 'sans-serif'; text-anchor: middle" x="48.406154" y="24.565385" transform="rotate(-0, 48.406154, 24.565385)">2</text>
   </g>
   <g id="text_4">
    <text style="font: 12px 'sans-serif'; text-anchor: middle" x="62.141538" y="24.565385" transform="rotate(-0, 62.141538, 24.565385)">2</text>
   </g>
   <g id="text_5">
    <text style="font: 12px 'sans-serif'; text-anchor: middle" x="89.612308" y="24.565385" transform="rotate(-0, 89.612308, 24.565385)">年</text>
   </g>
   <g id="text_6">
    <text style="font: 12px 'sans-serif'; text-anchor: middle" x="103.347692" y="24.565385" transform="rotate(-0, 103.347692, 24.565385)">1</text>
   </g>
   <g id="text_7">
    <text style="font: 12px 'sans-serif'; text-anchor: middle" x="130.818462" y="24.565385" transform="rotate(-0, 130.818462, 24.565385)">月</text>
   </g>
   <g id="text_8">
    <text style="font: 12px 'sans-serif'; text-anchor: middle" x="144.553846" y="24.565385" transform="rotate(-0, 144.553846, 24.565385)">2</text>
   </g>
   <g id="text_9">
    <text style="font: 12px 'sans-serif'; text-anchor: middle" x="158.289231" y="24.565385" transform="rotate(-0, 158.289231, 24.565385)">7</text>
   </g>
   <g id="text_10">
    <text style="font: 12px 'sans-serif'; text-anchor: middle" x="185.76" y="24.565385" transform="rotate(-0, 185.76, 24.565385)">日</text>
   </g>
   <g id="text_11">
    <text style="font: 12px 'sans-serif'; text-anchor: middle" x="199.495385" y="24.565385" transform="rotate(-0, 199.495385, 24.565385)"> </text>
   </g>
   <g id="text_12">
    <text style="font: 12px 'sans-serif'; text-anchor: middle" x="226.966154" y="24.565385" transform="rotate(-0, 226.966154, 24.565385)">腊</text>
   </g>
   <g id="text_13">
    <text style="font: 12px 'sans-serif'; text-anchor: middle" x="254.436923" y="24.565385" transform="rotate(-0, 254.436923, 24.565385)">月</text>
   </g>
   <g id="text_14">
    <text style="font: 12px 'sans-serif'; text-anchor: middle" x="281.907692" y="24.565385" transform="rotate(-0, 281.907692, 24.565385)">廿</text>
   </g>
   <g id="text_15">
    <text style="font: 12px 'sans-serif'; text-anchor: middle" x="309.378462" y="24.565385" transform="rotate(-0, 309.378462, 24.565385)">五</text>
   </g>
   <g id="text_16">
    <text style="font: 12px 'sans-serif'; text-anchor: middle" x="20.935385" y="79.506923" transform="rotate(-0, 20.935385, 79.506923)">一</text>
   </g>
   <g id="text_17">
    <text style="font: 12px 'sans-serif'; text-anchor: middle" x="48.406154" y="79.506923" transform="rotate(-0, 48.406154, 79.506923)">　</text>
   </g>
   <g id="text_18">
    <text style="font: 12px 'sans-serif'; text-anchor: middle" x="75.876923" y="79.506923" transform="rotate(-0, 75.876923, 79.506923)">二</text>
   </g>
   <g id="text_19">
    <text style="font: 12px 'sans-serif'; text-anchor: middle" x="103.347692" y="79.506923" transform="rotate(-0, 103.347692, 79.506923)">　</text>
   </g>
   <g id="text_20">
    <text style="font: 12px 'sans-serif'; text-anchor: middle" x="130.818462" y="79.506923" transform="rotate(-0, 130.818462, 79.506923)">三</text>
   </g>
   <g id="text_21">
    <text style="font: 12px 'sans-serif'; text-anchor: middle" x="158.289231" y="79.506923" transform="rotate(-0, 158.289231, 79.506923)">　</text>
   </g>
   <g id="text_22">
    <text style="font: 12px 'sans-serif'; text-anchor: middle" x="185.76" y="79.506923" transform="rotate(-0, 185.76, 79.506923)">四</text>
   </g>
   <g id="text_23">
    <text style="font: 12px 'sans-serif'; text-anchor: middle" x="213.230769" y="79.506923" transform="rotate(-0, 213.230769, 79.506923)">　</text>
   </g>
   <g id="text_24">
    <text style="font: 12px 'sans-serif'; text-anchor: middle" x="240.701538" y="79.506923" transform="rotate(-0, 240.701538, 79.506923)">五</text>
   </g>
   <g id="text_25">
    <text style="font: 12px 'sans-serif'; text-anchor: middle" x="268.172308" y="79.506923" transform="rotate(-0, 268.172308, 79.506923)">　</text>
   </g>
   <g id="text_26">
    <text style="font: 12px 'sans-serif'; text-anchor: middle" x="295.643077" y="79.506923" transform="rotate(-0, 295.643077, 79.506923)">六</text>
   </g>
   <g id="text_27">
    <text style="font: 12px 'sans-serif'; text-anchor: middle" x="323.113846" y="79.506923" transform="rotate(-0, 323.113846, 79.506923)">　</text>
   </g>
   <g id="text_28">
    <text style="font: 12px 'sans-serif'; text-anchor: middle" x="350.584615" y="79.506923" transform="rotate(-0, 350.584615, 79.506923)">日</text>
   </g>
   <g id="text_29">
    <text style="font: 12px 'sans-serif'; text-anchor: middle" x="20.935385" y="120.713077" transform="rotate(-0, 20.935385, 120.713077)">㏺</text>
   </g>
   <g id="text_30">
    <text style="font: 12px 'sans-serif'; text-anchor: middle" x="48.406154" y="120.713077" transform="rotate(-0, 48.406154, 120.713077)">　</text>
   </g>
   <g id="text_31">
    <text style="font: 12px 'sans-serif'; text-anchor: middle" x="75.876923" y="120.713077" transform="rotate(-0, 75.876923, 120.713077)">㏻</text>
   </g>
   <g id="text_32">
    <text style="font: 12px 'sans-serif'; text-anchor: middle" x="103.347692" y="120.713077" transform="rotate(-0, 103.347692, 120.713077)">　</text>
   </g>
   <g id="text_33">
    <text style="font: 12px 'sans-serif'; text-anchor: middle" x="130.818462" y="120.713077" transform="rotate(-0, 130.818462, 120.713077)">㏼</text>
   </g>
   <g id="text_34">
    <text style="font: 12px 'sans-serif'; text-anchor: middle" x="158.289231" y="120.713077" transform="rotate(-0, 158.289231, 120.713077)">　</text>
   </g>
   <g id="text_35">
    <text style="font: 12px 'sans-serif'; text-anchor: middle" x="185.76" y="120.713077" transform="rotate(-0, 185.76, 120.713077)">㏽</text>
   </g>
   <g id="text_36">
    <text style="font: 12px 'sans-serif'; text-anchor: middle" x="213.230769" y="120.713077" transform="rotate(-0, 213.230769, 120.713077)">　</text>
   </g>
   <g id="text_37">
    <text style="font: 12px 'sans-serif'; text-anchor: middle" x="240.701538" y="120.713077" transform="rotate(-0, 240.701538, 120.713077)">㏾</text>
   </g>
   <g id="text_38">
    <text style="font: 12px 'sans-serif'; text-anchor: middle" x="268.172308" y="120.713077" transform="rotate(-0, 268.172308, 120.713077)">　</text>
   </g>
   <g id="text_39">
    <text style="font: 12px 'sans-serif'; text-anchor: middle" x="295.643077" y="120.713077" transform="rotate(-0, 295.643077, 120.713077)">㏠</text>
   </g>
   <g id="text_40">
    <text style="font: 12px 'sans-serif'; text-anchor: middle" x="323.113846" y="120.713077" transform="rotate(-0, 323.113846, 120.713077)">　</text>
   </g>
   <g id="text_41">
    <text style="font: 12px 'sans-serif'; text-anchor: middle" x="350.584615" y="120.713077" transform="rotate(-0, 350.584615, 120.713077)">㏡</text>
   </g>
   <g id="text_42">
    <text style="fill: #6a5acd; font: 6px 'sans-serif'; text-anchor: middle" x="20.935385" y="100.584231" transform="rotate(-0, 20.935385, 100.584231)">廿四</text>
   </g>
   <g id="text_43">
    <text style="fill: #6a5acd; font: 6px 'sans-serif'; text-anchor: middle" x="75.876923" y="100.584231" transform="rotate(-0, 75.876923, 100.584231)">廿五</text>
   </g>
   <g id="text_44">
    <text style="fill: #6a5acd; font: 6px 'sans-serif'; text-anchor: middle" x="130.818462" y="100.584231" transform="rotate(-0, 130.818462, 100.584231)">廿六</text>
   </g>
   <g id="text_45">
    <text style="fill: #6a5acd; font: 6px 'sans-serif'; text-anchor: middle" x="185.76" y="100.584231" transform="rotate(-0, 185.76, 100.584231)">廿七</text>
   </g>
   <g id="text_46">
    <text style="fill: #6a5acd; font: 6px 'sans-serif'; text-anchor: middle" x="240.701538" y="100.584231" transform="rotate(-0, 240.701538, 100.584231)">廿八</text>
   </g>
   <g id="text_47">
    <text style="fill: #6a5acd; font: 6px 'sans-serif'; text-anchor: middle" x="295.643077" y="100.584231" transform="rotate(-0, 295.643077, 100.584231)">元旦</text>
   </g>
   <g id="text_48">
    <text style="fill: #6a5acd; font: 6px 'sans-serif'; text-anchor: middle" x="350.584615" y="100.584231" transform="rotate(-0, 350.584615, 100.584231)">三十</text>
   </g>
   <g id="text_49">
    <text style="font: 12px 'sans-serif'; text-anchor: middle" x="20.935385" y="161.919231" transform="rotate(-0, 20.935385, 161.919231)">㏢</text>
   </g>
   <g id="text_50">
    <text style="font: 12px 'sans-serif'; text-anchor: middle" x="48.406154" y="161.919231" transform="rotate(-0, 48.406154, 161.919231)">　</text>
   </g>
   <g id="text_51">
    <text style="font: 12px 'sans-serif'; text-anchor: middle" x="75.876923" y="161.919231" transform="rotate(-0, 75.876923, 161.919231)">㏣</text>
   </g>
   <g id="text_52">
    <text style="font: 12px 'sans-serif'; text-anchor: middle" x="103.347692" y="161.919231" transform="rotate(-0, 103.347692, 161.919231)">　</text>
   </g>
   <g id="text_53">
    <text style="font: 12px 'sans-serif'; text-anchor: middle" x="130.818462" y="161.919231" transform="rotate(-0, 130.818462, 161.919231)">㏤</text>
   </g>
   <g id="text_54">
    <text style="font: 12px 'sans-serif'; text-anchor: middle" x="158.289231" y="161.919231" transform="rotate(-0, 158.289231, 161.919231)">　</text>
   </g>
   <g id="text_55">
    <text style="font: 12px 'sans-serif'; text-anchor: middle" x="185.76" y="161.919231" transform="rotate(-0, 185.76, 161.919231)">㏥</text>
   </g>
   <g id="text_56">
    <text style="font: 12px 'sans-serif'; text-anchor: middle" x="213.230769" y="161.919231" transform="rotate(-0, 213.230769, 161.919231)">　</text>
   </g>
   <g id="text_57">
    <text style="font: 12px 'sans-serif'; text-anchor: middle" x="240.701538" y="161.919231" transform="rotate(-0, 240.701538, 161.919231)">㏦</text>
   </g>
   <g id="text_58">
    <text style="font: 12px 'sans-serif'; text-anchor: middle" x="268.172308" y="161.919231" transform="rotate(-0, 268.172308, 161.919231)">　</text>
   </g>
   <g id="text_59">
    <text style="font: 12px 'sans-serif'; text-anchor: middle" x="295.643077" y="161.919231" transform="rotate(-0, 295.643077, 161.919231)">㏧</text>
   </g>
   <g id="text_60">
    <text style="font: 12px 'sans-serif'; text-anchor: middle" x="323.113846" y="161.919231" transform="rotate(-0, 323.113846, 161.919231)">　</text>
   </g>
   <g id="text_61">
    <text style="font: 12px 'sans-serif'; text-anchor: middle" x="350.584615" y="161.919231" transform="rotate(-0, 350.584615, 161.919231)">㏨</text>
   </g>
   <g id="text_62">
    <text style="fill: #6a5acd; font: 6px 'sans-serif'; text-anchor: middle" x="20.935385" y="141.790385" transform="rotate(-0, 20.935385, 141.790385)">腊月</text>
   </g>
   <g id="text_63">
    <text style="fill: #6a5acd; font: 6px 'sans-serif'; text-anchor: middle" x="75.876923" y="141.790385" transform="rotate(-0, 75.876923, 141.790385)">初二</text>
   </g>
   <g id="text_64">
    <text style="fill: #6a5acd; font: 6px 'sans-serif'; text-anchor: middle" x="130.818462" y="141.790385" transform="rotate(-0, 130.818462, 141.790385)">小寒</text>
   </g>
   <g id="text_65">
    <text style="fill: #6a5acd; font: 6px 'sans-serif'; text-anchor: middle" x="185.76" y="141.790385" transform="rotate(-0, 185.76, 141.790385)">初四</text>
   </g>
   <g id="text_66">
    <text style="fill: #6a5acd; font: 6px 'sans-serif'; text-anchor: middle" x="240.701538" y="141.790385" transform="rotate(-0, 240.701538, 141.790385)">初五</text>
   </g>
   <g id="text_67">
    <text style="fill: #6a5acd; font: 6px 'sans-serif'; text-anchor: middle" x="295.643077" y="141.790385" transform="rotate(-0, 295.643077, 141.790385)">初六</text>
   </g>
   <g id="text_68">
    <text style="fill: #6a5acd; font: 6px 'sans-serif'; text-anchor: middle" x="350.584615" y="141.790385" transform="rotate(-0, 350.584615, 141.790385)">初七</text>
   </g>
   <g id="text_69">
    <text style="font: 12px 'sans-serif'; text-anchor: middle" x="20.935385" y="203.125385" transform="rotate(-0, 20.935385, 203.125385)">㏩</text>
   </g>
   <g id="text_70">
    <text style="font: 12px 'sans-serif'; text-anchor: middle" x="48.406154" y="203.125385" transform="rotate(-0, 48.406154, 203.125385)">　</text>
   </g>
   <g id="text_71">
    <text style="font: 12px 'sans-serif'; text-anchor: middle" x="75.876923" y="203.125385" transform="rotate(-0, 75.876923, 203.125385)">㏪</text>
   </g>
   <g id="text_72">
    <text style="font: 12px 'sans-serif'; text-anchor: middle" x="103.347692" y="203.125385" transform="rotate(-0, 103.347692, 203.125385)">　</text>
   </g>
   <g id="text_73">
    <text style="font: 12px 'sans-serif'; text-anchor: middle" x="130.818462" y="203.125385" transform="rotate(-0, 130.818462, 203.125385)">㏫</text>
   </g>
   <g id="text_74">
    <text style="font: 12px 'sans-serif'; text-anchor: middle" x="158.289231" y="203.125385" transform="rotate(-0, 158.289231, 203.125385)">　</text>
   </g>
   <g id="text_75">
    <text style="font: 12px 'sans-serif'; text-anchor: middle" x="185.76" y="203.125385" transform="rotate(-0, 185.76, 203.125385)">㏬</text>
   </g>
   <g id="text_76">
    <text style="font: 12px 'sans-serif'; text-anchor: middle" x="213.230769" y="203.125385" transform="rotate(-0, 213.230769, 203.125385)">　</text>
   </g>
   <g id="text_77">
    <text style="font: 12px 'sans-serif'; text-anchor: middle" x="240.701538" y="203.125385" transform="rotate(-0, 240.701538, 203.125385)">㏭</text>
   </g>
   <g id="text_78">
    <text style="font: 12px 'sans-serif'; text-anchor: middle" x="268.172308" y="203.125385" transform="rotate(-0, 268.172308, 203.125385)">　</text>
   </g>
   <g id="text_79">
    <text style="font: 12px 'sans-serif'; text-anchor: middle" x="295.643077" y="203.125385" transform="rotate(-0, 295.643077, 203.125385)">㏮</text>
   </g>
   <g id="text_80">
    <text style="font: 12px 'sans-serif'; text-anchor: middle" x="323.113846" y="203.125385" transform="rotate(-0, 323.113846, 203.125385)">　</text>
   </g>
   <g id="text_81">
    <text style="font: 12px 'sans-serif'; text-anchor: middle" x="350.584615" y="203.125385" transform="rotate(-0, 350.584615, 203.125385)">㏯</text>
   </g>
   <g id="text_82">
    <text style="fill: #6a5acd; font: 6px 'sans-serif'; text-anchor: middle" x="20.935385" y="182.996538" transform="rotate(-0, 20.935385, 182.996538)">初八</text>
   </g>
   <g id="text_83">
    <text style="fill: #6a5acd; font: 6px 'sans-serif'; text-anchor: middle" x="75.876923" y="182.996538" transform="rotate(-0, 75.876923, 182.996538)">初九</text>
   </g>
   <g id="text_84">
    <text style="fill: #6a5acd; font: 6px 'sans-serif'; text-anchor: middle" x="130.818462" y="182.996538" transform="rotate(-0, 130.818462, 182.996538)">初十</text>
   </g>
   <g id="text_85">
    <text style="fill: #6a5acd; font: 6px 'sans-serif'; text-anchor: middle" x="185.76" y="182.996538" transform="rotate(-0, 185.76, 182.996538)">十一</text>
   </g>
   <g id="text_86">
    <text style="fill: #6a5acd; font: 6px 'sans-serif'; text-anchor: middle" x="240.701538" y="182.996538" transform="rotate(-0, 240.701538, 182.996538)">十二</text>
   </g>
   <g id="text_87">
    <text style="fill: #6a5acd; font: 6px 'sans-serif'; text-anchor: middle" x="295.643077" y="182.996538" transform="rotate(-0, 295.643077, 182.996538)">十三</text>
   </g>
   <g id="text_88">
    <text style="fill: #6a5acd; font: 6px 'sans-serif'; text-anchor: middle" x="350.584615" y="182.996538" transform="rotate(-0, 350.584615, 182.996538)">十四</text>
   </g>
   <g id="text_89">
    <text style="font: 12px 'sans-serif'; text-anchor: middle" x="20.935385" y="244.331538" transform="rotate(-0, 20.935385, 244.331538)">㏰</text>
   </g>
   <g id="text_90">
    <text style="font: 12px 'sans-serif'; text-anchor: middle" x="48.406154" y="244.331538" transform="rotate(-0, 48.406154, 244.331538)">　</text>
   </g>
   <g id="text_91">
    <text style="font: 12px 'sans-serif'; text-anchor: middle" x="75.876923" y="244.331538" transform="rotate(-0, 75.876923, 244.331538)">㏱</text>
   </g>
   <g id="text_92">
    <text style="font: 12px 'sans-serif'; text-anchor: middle" x="103.347692" y="244.331538" transform="rotate(-0, 103.347692, 244.331538)">　</text>
   </g>
   <g id="text_93">
    <text style="font: 12px 'sans-serif'; text-anchor: middle" x="130.818462" y="244.331538" transform="rotate(-0, 130.818462, 244.331538)">㏲</text>
   </g>
   <g id="text_94">
    <text style="font: 12px 'sans-serif'; text-anchor: middle" x="158.289231" y="244.331538" transform="rotate(-0, 158.289231, 244.331538)">　</text>
   </g>
   <g id="text_95">
    <text style="font: 12px 'sans-serif'; text-anchor: middle" x="185.76" y="244.331538" transform="rotate(-0, 185.76, 244.331538)">㏳</text>
   </g>
   <g id="text_96">
    <text style="font: 12px 'sans-serif'; text-anchor: middle" x="213.230769" y="244.331538" transform="rotate(-0, 213.230769, 244.331538)">　</text>
   </g>
   <g id="text_97">
    <text style="font: 12px 'sans-serif'; text-anchor: middle" x="240.701538" y="244.331538" transform="rotate(-0, 240.701538, 244.331538)">㏴</text>
   </g>
   <g id="text_98">
    <text style="font: 12px 'sans-serif'; text-anchor: middle" x="268.172308" y="244.331538" transform="rotate(-0, 268.172308, 244.331538)">　</text>
   </g>
   <g id="text_99">
    <text style="font: 12px 'sans-serif'; text-anchor: middle" x="295.643077" y="244.331538" transform="rotate(-0, 295.643077, 244.331538)">㏵</text>
   </g>
   <g id="text_100">
    <text style="font: 12px 'sans-serif'; text-anchor: middle" x="323.113846" y="244.331538" transform="rotate(-0, 323.113846, 244.331538)">　</text>
   </g>
   <g id="text_101">
    <text style="font: 12px 'sans-serif'; text-anchor: middle" x="350.584615" y="244.331538" transform="rotate(-0, 350.584615, 244.331538)">㏶</text>
   </g>
   <g id="text_102">
    <text style="fill: #6a5acd; font: 6px 'sans-serif'; text-anchor: middle" x="20.935385" y="224.202692" transform="rotate(-0, 20.935385, 224.202692)">十五</text>
   </g>
   <g id="text_103">
    <text style="fill: #6a5acd; font: 6px 'sans-serif'; text-anchor: middle" x="75.876923" y="224.202692" transform="rotate(-0, 75.876923, 224.202692)">十六</text>
   </g>
   <g id="text_104">
    <text style="fill: #6a5acd; font: 6px 'sans-serif'; text-anchor: middle" x="130.818462" y="224.202692" transform="rotate(-0, 130.818462, 224.202692)">十七</text>
   </g>
   <g id="text_105">
    <text style="fill: #6a5acd; font: 6px 'sans-serif'; text-anchor: middle" x="185.76" y="224.202692" transform="rotate(-0, 185.76, 224.202692)">大寒</text>
   </g>
   <g id="text_106">
    <text style="fill: #6a5acd; font: 6px 'sans-serif'; text-anchor: middle" x="240.701538" y="224.202692" transform="rotate(-0, 240.701538, 224.202692)">十九</text>
   </g>
   <g id="text_107">
    <text style="fill: #6a5acd; font: 6px 'sans-serif'; text-anchor: middle" x="295.643077" y="224.202692" transform="rotate(-0, 295.643077, 224.202692)">二十</text>
   </g>
   <g id="text_108">
    <text style="fill: #6a5acd; font: 6px 'sans-serif'; text-anchor: middle" x="350.584615" y="224.202692" transform="rotate(-0, 350.584615, 224.202692)">廿一</text>
   </g>
   <g id="text_109">
    <text style="font: 12px 'sans-serif'; text-anchor: middle" x="20.935385" y="285.537692" transform="rotate(-0, 20.935385, 285.537692)">㏷</text>
   </g>
   <g id="text_110">
    <text style="font: 12px 'sans-serif'; text-anchor: middle" x="48.406154" y="285.537692" transform="rotate(-0, 48.406154, 285.537692)">　</text>
   </g>
   <g id="text_111">
    <text style="font: 12px 'sans-serif'; text-anchor: middle" x="75.876923" y="285.537692" transform="rotate(-0, 75.876923, 285.537692)">㏸</text>
   </g>
   <g id="text_112">
    <text style="font: 12px 'sans-serif'; text-anchor: middle" x="103.347692" y="285.537692" transform="rotate(-0, 103.347692, 285.537692)">　</text>
   </g>
   <g id="text_113">
    <text style="font: 12px 'sans-serif'; text-anchor: middle" x="130.818462" y="285.537692" transform="rotate(-0, 130.818462, 285.537692)">㏹</text>
   </g>
   <g id="text_114">
    <text style="font: 12px 'sans-serif'; text-anchor: middle" x="158.289231" y="285.537692" transform="rotate(-0, 158.289231, 285.537692)">　</text>
   </g>
   <g id="text_115">
    <text style="font: 12px 'sans-serif'; text-anchor: middle" x="185.76" y="285.537692" transform="rotate(-0, 185.76, 285.537692)">㏺</text>
   </g>
   <g id="text_116">
    <text style="font: 12px 'sans-serif'; text-anchor: middle" x="213.230769" y="285.537692" transform="rotate(-0, 213.230769, 285.537692)">　</text>
   </g>
   <g id="text_117">
    <text style="font: 12px 'sans-serif'; text-anchor: middle" x="240.701538" y="285.537692" transform="rotate(-0, 240.701538, 285.537692)">㏻</text>
   </g>
   <g id="text_118">
    <text style="font: 12px 'sans-serif'; text-anchor: middle" x="268.172308" y="285.537692" transform="rotate(-0, 268.172308, 285.537692)">　</text>
   </g>
   <g id="text_119">
    <text style="font: 12px 'sans-serif'; text-anchor: middle" x="295.643077" y="285.537692" transform="rotate(-0, 295.643077, 285.537692)">㏼</text>
   </g>
   <g id="text_120">
    <text style="font: 12px 'sans-serif'; text-anchor: middle" x="323.113846" y="285.537692" transform="rotate(-0, 323.113846, 285.537692)">　</text>
   </g>
   <g id="text_121">
    <text style="font: 12px 'sans-serif'; text-anchor: middle" x="350.584615" y="285.537692" transform="rotate(-0, 350.584615, 285.537692)">㏽</text>
   </g>
   <g id="text_122">
    <text style="fill: #6a5acd; font: 6px 'sans-serif'; text-anchor: middle" x="20.935385" y="265.408846" transform="rotate(-0, 20.935385, 265.408846)">廿二</text>
   </g>
   <g id="text_123">
    <text style="fill: #6a5acd; font: 6px 'sans-serif'; text-anchor: middle" x="75.876923" y="265.408846" transform="rotate(-0, 75.876923, 265.408846)">廿三</text>
   </g>
   <g id="text_124">
    <text style="fill: #6a5acd; font: 6px 'sans-serif'; text-anchor: middle" x="130.818462" y="265.408846" transform="rotate(-0, 130.818462, 265.408846)">廿四</text>
   </g>
   <g id="text_125">
    <text style="fill: #6a5acd; font: 6px 'sans-serif'; text-anchor: middle" x="185.76" y="265.408846" transform="rotate(-0, 185.76, 265.408846)">廿五</text>
   </g>
   <g id="text_126">
    <text style="fill: #6a5acd; font: 6px 'sans-serif'; text-anchor: middle" x="240.701538" y="265.408846" transform="rotate(-0, 240.701538, 265.408846)">廿六</text>
   </g>
   <g id="text_127">
    <text style="fill: #6a5acd; font: 6px 'sans-serif'; text-anchor: middle" x="295.643077" y="265.408846" transform="rotate(-0, 295.643077, 265.408846)">廿七</text>
   </g>
   <g id="text_128">
    <text style="fill: #6a5acd; font: 6px 'sans-serif'; text-anchor: middle" x="350.584615" y="265.408846" transform="rotate(-0, 350.584615, 265.408846)">廿八</text>
   </g>
   <g id="text_129">
    <text style="font: 12px 'sans-serif'; text-anchor: middle" x="20.935385" y="326.743846" transform="rotate(-0, 20.935385, 326.743846)">㏾</text>
   </g>
   <g id="text_130">
    <text style="font: 12px 'sans-serif'; text-anchor: middle" x="48.406154" y="326.743846" transform="rotate(-0, 48.406154, 326.743846)">　</text>
   </g>
   <g id="text_131">
    <text style="font: 12px 'sans-serif'; text-anchor: middle" x="75.876923" y="326.743846" transform="rotate(-0, 75.876923, 326.743846)">㏠</text>
   </g>
   <g id="text_132">
    <text style="font: 12px 'sans-serif'; text-anchor: middle" x="103.347692" y="326.743846" transform="rotate(-0, 103.347692, 326.743846)">　</text>
   </g>
   <g id="text_133">
    <text style="font: 12px 'sans-serif'; text-anchor: middle" x="130.818462" y="326.743846" transform="rotate(-0, 130.818462, 326.743846)">㏡</text>
   </g>
   <g id="text_134">
    <text style="font: 12px 'sans-serif'; text-anchor: middle" x="158.289231" y="326.743846" transform="rotate(-0, 158.289231, 326.743846)">　</text>
   </g>
   <g id="text_135">
    <text style="font: 12px 'sans-serif'; text-anchor: middle" x="185.76" y="326.743846" transform="rotate(-0, 185.76, 326.743846)">㏢</text>
   </g>
   <g id="text_136">
    <text style="font: 12px 'sans-serif'; text-anchor: middle" x="213.230769" y="326.743846" transform="rotate(-0, 213.230769, 326.743846)">　</text>
   </g>
   <g id="text_137">
    <text style="font: 12px 'sans-serif'; text-anchor: middle" x="240.701538" y="326.743846" transform="rotate(-0, 240.701538, 326.743846)">㏣</text>
   </g>
   <g id="text_138">
    <text style="font: 12px 'sans-serif'; text-anchor: middle" x="268.172308" y="326.743846" transform="rotate(-0, 268.172308, 326.743846)">　</text>
   </g>
   <g id="text_139">
    <text style="font: 12px 'sans-serif'; text-anchor: middle" x="295.643077" y="326.743846" transform="rotate(-0, 295.643077, 326.743846)">㏤</text>
   </g>
   <g id="text_140">
    <text style="font: 12px 'sans-serif'; text-anchor: middle" x="323.113846" y="326.743846" transform="rotate(-0, 323.113846, 326.743846)">　</text>
   </g>
   <g id="text_141">
    <text style="font: 12px 'sans-serif'; text-anchor: middle" x="350.584615" y="326.743846" transform="rotate(-0, 350.584615, 326.743846)">㏥</text>
   </g>
   <g id="text_142">
    <text style="fill: #6a5acd; font: 6px 'sans-serif'; text-anchor: middle" x="20.935385" y="306.615" transform="rotate(-0, 20.935385, 306.615)">除夕</text>
   </g>
   <g id="text_143">
    <text style="fill: #6a5acd; font: 6px 'sans-serif'; text-anchor: middle" x="75.876923" y="306.724688" transform="rotate(-0, 75.876923, 306.724688)">春节</text>
   </g>
   <g id="text_144">
    <text style="fill: #6a5acd; font: 6px 'sans-serif'; text-anchor: middle" x="130.818462" y="306.615" transform="rotate(-0, 130.818462, 306.615)">初二</text>
   </g>
   <g id="text_145">
    <text style="fill: #6a5acd; font: 6px 'sans-serif'; text-anchor: middle" x="185.76" y="306.615" transform="rotate(-0, 185.76, 306.615)">初三</text>
   </g>
   <g id="text_146">
    <text style="fill: #6a5acd; font: 6px 'sans-serif'; text-anchor: middle" x="240.701538" y="306.615" transform="rotate(-0, 240.701538, 306.615)">初四</text>
   </g>
   <g id="text_147">
    <text style="fill: #6a5acd; font: 6px 'sans-serif'; text-anchor: middle" x="295.643077" y="306.615" transform="rotate(-0, 295.643077, 306.615)">初五</text>
   </g>
   <g id="text_148">
    <text style="fill: #6a5acd; font: 6px 'sans-serif'; text-anchor: middle" x="350.584615" y="306.615" transform="rotate(-0, 350.584615, 306.615)">初六</text>
   </g>
  </g>
 </g>
 <defs>
  <clipPath id="pf33f54806d">
   <rect x="7.2" y="7.2" width="357.12" height="329.649231"/>
  </clipPath>
 </defs>
</svg>
