<?xml version="1.0" encoding="utf-8" standalone="no"?>
<!DOCTYPE svg PUBLIC "-//W3C//DTD SVG 1.1//EN"
  "http://www.w3.org/Graphics/SVG/1.1/DTD/svg11.dtd">
<svg xmlns:xlink="http://www.w3.org/1999/xlink" width="371.52pt" height="68.509091pt" viewBox="0 0 371.52 68.509091" xmlns="http://www.w3.org/2000/svg" version="1.1">
 <metadata>
  <rdf:RDF xmlns:dc="http://purl.org/dc/elements/1.1/" xmlns:cc="http://creativecommons.org/ns#" xmlns:rdf="http://www.w3.org/1999/02/22-rdf-syntax-ns#">
   <cc:Work>
    <dc:type rdf:resource="http://purl.org/dc/dcmitype/StillImage"/>
    <dc:date>2022-01-27T17:32:12.175925</dc:date>
    <dc:format>image/svg+xml</dc:format>
    <dc:creator>
     <cc:Agent>
      <dc:title>Matplotlib v3.5.0, https://matplotlib.org/</dc:title>
     </cc:Agent>
    </dc:creator>
   </cc:Work>
  </rdf:RDF>
 </metadata>
 <defs>
  <style type="text/css">*{stroke-linejoin: round; stroke-linecap: butt}</style>
 </defs>
 <g id="figure_1">
  <g id="patch_1">
   <path d="M 0 68.509091 
L 371.52 68.509091 
L 371.52 -0 
L 0 -0 
z
" style="fill: #ffffff"/>
  </g>
  <g id="axes_1">
   <g id="patch_2">
    <path d="M 34.254545 44.818701 
C 35.621202 44.818701 36.932069 44.275723 37.898441 43.30935 
C 38.864814 42.342978 39.407792 41.032112 39.407792 39.665455 
C 39.407792 38.298798 38.864814 36.987931 37.898441 36.021559 
C 36.932069 35.055186 35.621202 34.512208 34.254545 34.512208 
C 32.887888 34.512208 31.577022 35.055186 30.61065 36.021559 
C 29.644277 36.987931 29.101299 38.298798 29.101299 39.665455 
C 29.101299 41.032112 29.644277 42.342978 30.61065 43.30935 
C 31.577022 44.275723 32.887888 44.818701 34.254545 44.818701 
z
" clip-path="url(#pe4c9f388fa)" style="fill: #6a5acd; opacity: 0.25"/>
   </g>
   <g id="patch_3">
    <path d="M 45.076364 44.818701 
C 46.443021 44.818701 47.753887 44.275723 48.720259 43.30935 
C 49.686632 42.342978 50.22961 41.032112 50.22961 39.665455 
C 50.22961 38.298798 49.686632 36.987931 48.720259 36.021559 
C 47.753887 35.055186 46.443021 34.512208 45.076364 34.512208 
C 43.709707 34.512208 42.39884 35.055186 41.432468 36.021559 
C 40.466095 36.987931 39.923117 38.298798 39.923117 39.665455 
C 39.923117 41.032112 40.466095 42.342978 41.432468 43.30935 
C 42.39884 44.275723 43.709707 44.818701 45.076364 44.818701 
z
" clip-path="url(#pe4c9f388fa)" style="fill: #6a5acd; opacity: 0.25"/>
   </g>
   <g id="patch_4">
    <path d="M 66.72 44.818701 
C 68.086657 44.818701 69.397523 44.275723 70.363896 43.30935 
C 71.330268 42.342978 71.873247 41.032112 71.873247 39.665455 
C 71.873247 38.298798 71.330268 36.987931 70.363896 36.021559 
C 69.397523 35.055186 68.086657 34.512208 66.72 34.512208 
C 65.353343 34.512208 64.042477 35.055186 63.076104 36.021559 
C 62.109732 36.987931 61.566753 38.298798 61.566753 39.665455 
C 61.566753 41.032112 62.109732 42.342978 63.076104 43.30935 
C 64.042477 44.275723 65.353343 44.818701 66.72 44.818701 
z
" clip-path="url(#pe4c9f388fa)" style="fill: #6a5acd; opacity: 0.25"/>
   </g>
   <g id="patch_5">
    <path d="M 77.541818 44.818701 
C 78.908475 44.818701 80.219341 44.275723 81.185714 43.30935 
C 82.152086 42.342978 82.695065 41.032112 82.695065 39.665455 
C 82.695065 38.298798 82.152086 36.987931 81.185714 36.021559 
C 80.219341 35.055186 78.908475 34.512208 77.541818 34.512208 
C 76.175161 34.512208 74.864295 35.055186 73.897922 36.021559 
C 72.93155 36.987931 72.388571 38.298798 72.388571 39.665455 
C 72.388571 41.032112 72.93155 42.342978 73.897922 43.30935 
C 74.864295 44.275723 76.175161 44.818701 77.541818 44.818701 
z
" clip-path="url(#pe4c9f388fa)" style="fill: #6a5acd; opacity: 0.25"/>
   </g>
   <g id="patch_6">
    <path d="M 88.363636 44.818701 
C 89.730293 44.818701 91.04116 44.275723 92.007532 43.30935 
C 92.973905 42.342978 93.516883 41.032112 93.516883 39.665455 
C 93.516883 38.298798 92.973905 36.987931 92.007532 36.021559 
C 91.04116 35.055186 89.730293 34.512208 88.363636 34.512208 
C 86.996979 34.512208 85.686113 35.055186 84.719741 36.021559 
C 83.753368 36.987931 83.21039 38.298798 83.21039 39.665455 
C 83.21039 41.032112 83.753368 42.342978 84.719741 43.30935 
C 85.686113 44.275723 86.996979 44.818701 88.363636 44.818701 
z
" clip-path="url(#pe4c9f388fa)" style="fill: #6a5acd; opacity: 0.25"/>
   </g>
   <g id="patch_7">
    <path d="M 120.829091 44.818701 
C 122.195748 44.818701 123.506614 44.275723 124.472987 43.30935 
C 125.439359 42.342978 125.982338 41.032112 125.982338 39.665455 
C 125.982338 38.298798 125.439359 36.987931 124.472987 36.021559 
C 123.506614 35.055186 122.195748 34.512208 120.829091 34.512208 
C 119.462434 34.512208 118.151568 35.055186 117.185195 36.021559 
C 116.218823 36.987931 115.675844 38.298798 115.675844 39.665455 
C 115.675844 41.032112 116.218823 42.342978 117.185195 43.30935 
C 118.151568 44.275723 119.462434 44.818701 120.829091 44.818701 
z
" clip-path="url(#pe4c9f388fa)" style="fill: #6a5acd; opacity: 0.25"/>
   </g>
   <g id="patch_8">
    <path d="M 131.650909 44.818701 
C 133.017566 44.818701 134.328432 44.275723 135.294805 43.30935 
C 136.261177 42.342978 136.804156 41.032112 136.804156 39.665455 
C 136.804156 38.298798 136.261177 36.987931 135.294805 36.021559 
C 134.328432 35.055186 133.017566 34.512208 131.650909 34.512208 
C 130.284252 34.512208 128.973386 35.055186 128.007013 36.021559 
C 127.040641 36.987931 126.497662 38.298798 126.497662 39.665455 
C 126.497662 41.032112 127.040641 42.342978 128.007013 43.30935 
C 128.973386 44.275723 130.284252 44.818701 131.650909 44.818701 
z
" clip-path="url(#pe4c9f388fa)" style="fill: #6a5acd; opacity: 0.25"/>
   </g>
   <g id="patch_9">
    <path d="M 142.472727 44.818701 
C 143.839384 44.818701 145.150251 44.275723 146.116623 43.30935 
C 147.082995 42.342978 147.625974 41.032112 147.625974 39.665455 
C 147.625974 38.298798 147.082995 36.987931 146.116623 36.021559 
C 145.150251 35.055186 143.839384 34.512208 142.472727 34.512208 
C 141.10607 34.512208 139.795204 35.055186 138.828832 36.021559 
C 137.862459 36.987931 137.319481 38.298798 137.319481 39.665455 
C 137.319481 41.032112 137.862459 42.342978 138.828832 43.30935 
C 139.795204 44.275723 141.10607 44.818701 142.472727 44.818701 
z
" clip-path="url(#pe4c9f388fa)" style="fill: #6a5acd; opacity: 0.25"/>
   </g>
   <g id="patch_10">
    <path d="M 153.294545 44.818701 
C 154.661202 44.818701 155.972069 44.275723 156.938441 43.30935 
C 157.904814 42.342978 158.447792 41.032112 158.447792 39.665455 
C 158.447792 38.298798 157.904814 36.987931 156.938441 36.021559 
C 155.972069 35.055186 154.661202 34.512208 153.294545 34.512208 
C 151.927888 34.512208 150.617022 35.055186 149.65065 36.021559 
C 148.684277 36.987931 148.141299 38.298798 148.141299 39.665455 
C 148.141299 41.032112 148.684277 42.342978 149.65065 43.30935 
C 150.617022 44.275723 151.927888 44.818701 153.294545 44.818701 
z
" clip-path="url(#pe4c9f388fa)" style="fill: #6a5acd; opacity: 0.25"/>
   </g>
   <g id="patch_11">
    <path d="M 207.403636 44.818701 
C 208.770293 44.818701 210.08116 44.275723 211.047532 43.30935 
C 212.013905 42.342978 212.556883 41.032112 212.556883 39.665455 
C 212.556883 38.298798 212.013905 36.987931 211.047532 36.021559 
C 210.08116 35.055186 208.770293 34.512208 207.403636 34.512208 
C 206.036979 34.512208 204.726113 35.055186 203.759741 36.021559 
C 202.793368 36.987931 202.25039 38.298798 202.25039 39.665455 
C 202.25039 41.032112 202.793368 42.342978 203.759741 43.30935 
C 204.726113 44.275723 206.036979 44.818701 207.403636 44.818701 
z
" clip-path="url(#pe4c9f388fa)" style="fill: #6a5acd; opacity: 0.25"/>
   </g>
   <g id="patch_12">
    <path d="M 218.225455 44.818701 
C 219.592112 44.818701 220.902978 44.275723 221.86935 43.30935 
C 222.835723 42.342978 223.378701 41.032112 223.378701 39.665455 
C 223.378701 38.298798 222.835723 36.987931 221.86935 36.021559 
C 220.902978 35.055186 219.592112 34.512208 218.225455 34.512208 
C 216.858798 34.512208 215.547931 35.055186 214.581559 36.021559 
C 213.615186 36.987931 213.072208 38.298798 213.072208 39.665455 
C 213.072208 41.032112 213.615186 42.342978 214.581559 43.30935 
C 215.547931 44.275723 216.858798 44.818701 218.225455 44.818701 
z
" clip-path="url(#pe4c9f388fa)" style="fill: #6a5acd; opacity: 0.25"/>
   </g>
   <g id="patch_13">
    <path d="M 239.869091 44.818701 
C 241.235748 44.818701 242.546614 44.275723 243.512987 43.30935 
C 244.479359 42.342978 245.022338 41.032112 245.022338 39.665455 
C 245.022338 38.298798 244.479359 36.987931 243.512987 36.021559 
C 242.546614 35.055186 241.235748 34.512208 239.869091 34.512208 
C 238.502434 34.512208 237.191568 35.055186 236.225195 36.021559 
C 235.258823 36.987931 234.715844 38.298798 234.715844 39.665455 
C 234.715844 41.032112 235.258823 42.342978 236.225195 43.30935 
C 237.191568 44.275723 238.502434 44.818701 239.869091 44.818701 
z
" clip-path="url(#pe4c9f388fa)" style="fill: #6a5acd; opacity: 0.25"/>
   </g>
   <g id="patch_14">
    <path d="M 250.690909 44.818701 
C 252.057566 44.818701 253.368432 44.275723 254.334805 43.30935 
C 255.301177 42.342978 255.844156 41.032112 255.844156 39.665455 
C 255.844156 38.298798 255.301177 36.987931 254.334805 36.021559 
C 253.368432 35.055186 252.057566 34.512208 250.690909 34.512208 
C 249.324252 34.512208 248.013386 35.055186 247.047013 36.021559 
C 246.080641 36.987931 245.537662 38.298798 245.537662 39.665455 
C 245.537662 41.032112 246.080641 42.342978 247.047013 43.30935 
C 248.013386 44.275723 249.324252 44.818701 250.690909 44.818701 
z
" clip-path="url(#pe4c9f388fa)" style="fill: #6a5acd; opacity: 0.25"/>
   </g>
   <g id="patch_15">
    <path d="M 261.512727 44.818701 
C 262.879384 44.818701 264.190251 44.275723 265.156623 43.30935 
C 266.122995 42.342978 266.665974 41.032112 266.665974 39.665455 
C 266.665974 38.298798 266.122995 36.987931 265.156623 36.021559 
C 264.190251 35.055186 262.879384 34.512208 261.512727 34.512208 
C 260.14607 34.512208 258.835204 35.055186 257.868832 36.021559 
C 256.902459 36.987931 256.359481 38.298798 256.359481 39.665455 
C 256.359481 41.032112 256.902459 42.342978 257.868832 43.30935 
C 258.835204 44.275723 260.14607 44.818701 261.512727 44.818701 
z
" clip-path="url(#pe4c9f388fa)" style="fill: #6a5acd; opacity: 0.25"/>
   </g>
   <g id="patch_16">
    <path d="M 304.8 44.818701 
C 306.166657 44.818701 307.477523 44.275723 308.443896 43.30935 
C 309.410268 42.342978 309.953247 41.032112 309.953247 39.665455 
C 309.953247 38.298798 309.410268 36.987931 308.443896 36.021559 
C 307.477523 35.055186 306.166657 34.512208 304.8 34.512208 
C 303.433343 34.512208 302.122477 35.055186 301.156104 36.021559 
C 300.189732 36.987931 299.646753 38.298798 299.646753 39.665455 
C 299.646753 41.032112 300.189732 42.342978 301.156104 43.30935 
C 302.122477 44.275723 303.433343 44.818701 304.8 44.818701 
z
" clip-path="url(#pe4c9f388fa)" style="fill: #6a5acd; opacity: 0.25"/>
   </g>
   <g id="patch_17">
    <path d="M 315.621818 44.818701 
C 316.988475 44.818701 318.299341 44.275723 319.265714 43.30935 
C 320.232086 42.342978 320.775065 41.032112 320.775065 39.665455 
C 320.775065 38.298798 320.232086 36.987931 319.265714 36.021559 
C 318.299341 35.055186 316.988475 34.512208 315.621818 34.512208 
C 314.255161 34.512208 312.944295 35.055186 311.977922 36.021559 
C 311.01155 36.987931 310.468571 38.298798 310.468571 39.665455 
C 310.468571 41.032112 311.01155 42.342978 311.977922 43.30935 
C 312.944295 44.275723 314.255161 44.818701 315.621818 44.818701 
z
" clip-path="url(#pe4c9f388fa)" style="fill: #6a5acd; opacity: 0.25"/>
   </g>
   <g id="patch_18">
    <path d="M 326.443636 44.818701 
C 327.810293 44.818701 329.12116 44.275723 330.087532 43.30935 
C 331.053905 42.342978 331.596883 41.032112 331.596883 39.665455 
C 331.596883 38.298798 331.053905 36.987931 330.087532 36.021559 
C 329.12116 35.055186 327.810293 34.512208 326.443636 34.512208 
C 325.076979 34.512208 323.766113 35.055186 322.799741 36.021559 
C 321.833368 36.987931 321.29039 38.298798 321.29039 39.665455 
C 321.29039 41.032112 321.833368 42.342978 322.799741 43.30935 
C 323.766113 44.275723 325.076979 44.818701 326.443636 44.818701 
z
" clip-path="url(#pe4c9f388fa)" style="fill: #6a5acd; opacity: 0.25"/>
   </g>
   <g id="patch_19">
    <path d="M 348.087273 44.818701 
C 349.45393 44.818701 350.764796 44.275723 351.731168 43.30935 
C 352.697541 42.342978 353.240519 41.032112 353.240519 39.665455 
C 353.240519 38.298798 352.697541 36.987931 351.731168 36.021559 
C 350.764796 35.055186 349.45393 34.512208 348.087273 34.512208 
C 346.720616 34.512208 345.409749 35.055186 344.443377 36.021559 
C 343.477005 36.987931 342.934026 38.298798 342.934026 39.665455 
C 342.934026 41.032112 343.477005 42.342978 344.443377 43.30935 
C 345.409749 44.275723 346.720616 44.818701 348.087273 44.818701 
z
" clip-path="url(#pe4c9f388fa)" style="fill: #6a5acd; opacity: 0.25"/>
   </g>
   <g id="patch_20">
    <path d="M 45.076364 61.051429 
C 46.443021 61.051429 47.753887 60.50845 48.720259 59.542078 
C 49.686632 58.575705 50.22961 57.264839 50.22961 55.898182 
C 50.22961 54.531525 49.686632 53.220659 48.720259 52.254286 
C 47.753887 51.287914 46.443021 50.744935 45.076364 50.744935 
C 43.709707 50.744935 42.39884 51.287914 41.432468 52.254286 
C 40.466095 53.220659 39.923117 54.531525 39.923117 55.898182 
C 39.923117 57.264839 40.466095 58.575705 41.432468 59.542078 
C 42.39884 60.50845 43.709707 61.051429 45.076364 61.051429 
z
" clip-path="url(#pe4c9f388fa)" style="fill: #6a5acd; opacity: 0.25"/>
   </g>
   <g id="patch_21">
    <path d="M 55.898182 61.051429 
C 57.264839 61.051429 58.575705 60.50845 59.542078 59.542078 
C 60.50845 58.575705 61.051429 57.264839 61.051429 55.898182 
C 61.051429 54.531525 60.50845 53.220659 59.542078 52.254286 
C 58.575705 51.287914 57.264839 50.744935 55.898182 50.744935 
C 54.531525 50.744935 53.220659 51.287914 52.254286 52.254286 
C 51.287914 53.220659 50.744935 54.531525 50.744935 55.898182 
C 50.744935 57.264839 51.287914 58.575705 52.254286 59.542078 
C 53.220659 60.50845 54.531525 61.051429 55.898182 61.051429 
z
" clip-path="url(#pe4c9f388fa)" style="fill: #6a5acd; opacity: 0.25"/>
   </g>
   <g id="patch_22">
    <path d="M 66.72 61.051429 
C 68.086657 61.051429 69.397523 60.50845 70.363896 59.542078 
C 71.330268 58.575705 71.873247 57.264839 71.873247 55.898182 
C 71.873247 54.531525 71.330268 53.220659 70.363896 52.254286 
C 69.397523 51.287914 68.086657 50.744935 66.72 50.744935 
C 65.353343 50.744935 64.042477 51.287914 63.076104 52.254286 
C 62.109732 53.220659 61.566753 54.531525 61.566753 55.898182 
C 61.566753 57.264839 62.109732 58.575705 63.076104 59.542078 
C 64.042477 60.50845 65.353343 61.051429 66.72 61.051429 
z
" clip-path="url(#pe4c9f388fa)" style="fill: #6a5acd; opacity: 0.25"/>
   </g>
   <g id="patch_23">
    <path d="M 77.541818 61.051429 
C 78.908475 61.051429 80.219341 60.50845 81.185714 59.542078 
C 82.152086 58.575705 82.695065 57.264839 82.695065 55.898182 
C 82.695065 54.531525 82.152086 53.220659 81.185714 52.254286 
C 80.219341 51.287914 78.908475 50.744935 77.541818 50.744935 
C 76.175161 50.744935 74.864295 51.287914 73.897922 52.254286 
C 72.93155 53.220659 72.388571 54.531525 72.388571 55.898182 
C 72.388571 57.264839 72.93155 58.575705 73.897922 59.542078 
C 74.864295 60.50845 76.175161 61.051429 77.541818 61.051429 
z
" clip-path="url(#pe4c9f388fa)" style="fill: #6a5acd; opacity: 0.25"/>
   </g>
   <g id="patch_24">
    <path d="M 99.185455 61.051429 
C 100.552112 61.051429 101.862978 60.50845 102.82935 59.542078 
C 103.795723 58.575705 104.338701 57.264839 104.338701 55.898182 
C 104.338701 54.531525 103.795723 53.220659 102.82935 52.254286 
C 101.862978 51.287914 100.552112 50.744935 99.185455 50.744935 
C 97.818798 50.744935 96.507931 51.287914 95.541559 52.254286 
C 94.575186 53.220659 94.032208 54.531525 94.032208 55.898182 
C 94.032208 57.264839 94.575186 58.575705 95.541559 59.542078 
C 96.507931 60.50845 97.818798 61.051429 99.185455 61.051429 
z
" clip-path="url(#pe4c9f388fa)" style="fill: #6a5acd; opacity: 0.25"/>
   </g>
   <g id="patch_25">
    <path d="M 110.007273 61.051429 
C 111.37393 61.051429 112.684796 60.50845 113.651168 59.542078 
C 114.617541 58.575705 115.160519 57.264839 115.160519 55.898182 
C 115.160519 54.531525 114.617541 53.220659 113.651168 52.254286 
C 112.684796 51.287914 111.37393 50.744935 110.007273 50.744935 
C 108.640616 50.744935 107.329749 51.287914 106.363377 52.254286 
C 105.397005 53.220659 104.854026 54.531525 104.854026 55.898182 
C 104.854026 57.264839 105.397005 58.575705 106.363377 59.542078 
C 107.329749 60.50845 108.640616 61.051429 110.007273 61.051429 
z
" clip-path="url(#pe4c9f388fa)" style="fill: #6a5acd; opacity: 0.25"/>
   </g>
   <g id="patch_26">
    <path d="M 120.829091 61.051429 
C 122.195748 61.051429 123.506614 60.50845 124.472987 59.542078 
C 125.439359 58.575705 125.982338 57.264839 125.982338 55.898182 
C 125.982338 54.531525 125.439359 53.220659 124.472987 52.254286 
C 123.506614 51.287914 122.195748 50.744935 120.829091 50.744935 
C 119.462434 50.744935 118.151568 51.287914 117.185195 52.254286 
C 116.218823 53.220659 115.675844 54.531525 115.675844 55.898182 
C 115.675844 57.264839 116.218823 58.575705 117.185195 59.542078 
C 118.151568 60.50845 119.462434 61.051429 120.829091 61.051429 
z
" clip-path="url(#pe4c9f388fa)" style="fill: #6a5acd; opacity: 0.25"/>
   </g>
   <g id="patch_27">
    <path d="M 131.650909 61.051429 
C 133.017566 61.051429 134.328432 60.50845 135.294805 59.542078 
C 136.261177 58.575705 136.804156 57.264839 136.804156 55.898182 
C 136.804156 54.531525 136.261177 53.220659 135.294805 52.254286 
C 134.328432 51.287914 133.017566 50.744935 131.650909 50.744935 
C 130.284252 50.744935 128.973386 51.287914 128.007013 52.254286 
C 127.040641 53.220659 126.497662 54.531525 126.497662 55.898182 
C 126.497662 57.264839 127.040641 58.575705 128.007013 59.542078 
C 128.973386 60.50845 130.284252 61.051429 131.650909 61.051429 
z
" clip-path="url(#pe4c9f388fa)" style="fill: #6a5acd; opacity: 0.25"/>
   </g>
   <g id="patch_28">
    <path d="M 142.472727 61.051429 
C 143.839384 61.051429 145.150251 60.50845 146.116623 59.542078 
C 147.082995 58.575705 147.625974 57.264839 147.625974 55.898182 
C 147.625974 54.531525 147.082995 53.220659 146.116623 52.254286 
C 145.150251 51.287914 143.839384 50.744935 142.472727 50.744935 
C 141.10607 50.744935 139.795204 51.287914 138.828832 52.254286 
C 137.862459 53.220659 137.319481 54.531525 137.319481 55.898182 
C 137.319481 57.264839 137.862459 58.575705 138.828832 59.542078 
C 139.795204 60.50845 141.10607 61.051429 142.472727 61.051429 
z
" clip-path="url(#pe4c9f388fa)" style="fill: #6a5acd; opacity: 0.25"/>
   </g>
   <g id="patch_29">
    <path d="M 196.581818 61.051429 
C 197.948475 61.051429 199.259341 60.50845 200.225714 59.542078 
C 201.192086 58.575705 201.735065 57.264839 201.735065 55.898182 
C 201.735065 54.531525 201.192086 53.220659 200.225714 52.254286 
C 199.259341 51.287914 197.948475 50.744935 196.581818 50.744935 
C 195.215161 50.744935 193.904295 51.287914 192.937922 52.254286 
C 191.97155 53.220659 191.428571 54.531525 191.428571 55.898182 
C 191.428571 57.264839 191.97155 58.575705 192.937922 59.542078 
C 193.904295 60.50845 195.215161 61.051429 196.581818 61.051429 
z
" clip-path="url(#pe4c9f388fa)" style="fill: #6a5acd; opacity: 0.25"/>
   </g>
   <g id="patch_30">
    <path d="M 207.403636 61.051429 
C 208.770293 61.051429 210.08116 60.50845 211.047532 59.542078 
C 212.013905 58.575705 212.556883 57.264839 212.556883 55.898182 
C 212.556883 54.531525 212.013905 53.220659 211.047532 52.254286 
C 210.08116 51.287914 208.770293 50.744935 207.403636 50.744935 
C 206.036979 50.744935 204.726113 51.287914 203.759741 52.254286 
C 202.793368 53.220659 202.25039 54.531525 202.25039 55.898182 
C 202.25039 57.264839 202.793368 58.575705 203.759741 59.542078 
C 204.726113 60.50845 206.036979 61.051429 207.403636 61.051429 
z
" clip-path="url(#pe4c9f388fa)" style="fill: #6a5acd; opacity: 0.25"/>
   </g>
   <g id="patch_31">
    <path d="M 218.225455 61.051429 
C 219.592112 61.051429 220.902978 60.50845 221.86935 59.542078 
C 222.835723 58.575705 223.378701 57.264839 223.378701 55.898182 
C 223.378701 54.531525 222.835723 53.220659 221.86935 52.254286 
C 220.902978 51.287914 219.592112 50.744935 218.225455 50.744935 
C 216.858798 50.744935 215.547931 51.287914 214.581559 52.254286 
C 213.615186 53.220659 213.072208 54.531525 213.072208 55.898182 
C 213.072208 57.264839 213.615186 58.575705 214.581559 59.542078 
C 215.547931 60.50845 216.858798 61.051429 218.225455 61.051429 
z
" clip-path="url(#pe4c9f388fa)" style="fill: #6a5acd; opacity: 0.25"/>
   </g>
   <g id="patch_32">
    <path d="M 239.869091 61.051429 
C 241.235748 61.051429 242.546614 60.50845 243.512987 59.542078 
C 244.479359 58.575705 245.022338 57.264839 245.022338 55.898182 
C 245.022338 54.531525 244.479359 53.220659 243.512987 52.254286 
C 242.546614 51.287914 241.235748 50.744935 239.869091 50.744935 
C 238.502434 50.744935 237.191568 51.287914 236.225195 52.254286 
C 235.258823 53.220659 234.715844 54.531525 234.715844 55.898182 
C 234.715844 57.264839 235.258823 58.575705 236.225195 59.542078 
C 237.191568 60.50845 238.502434 61.051429 239.869091 61.051429 
z
" clip-path="url(#pe4c9f388fa)" style="fill: #6a5acd; opacity: 0.25"/>
   </g>
   <g id="patch_33">
    <path d="M 272.334545 61.051429 
C 273.701202 61.051429 275.012069 60.50845 275.978441 59.542078 
C 276.944814 58.575705 277.487792 57.264839 277.487792 55.898182 
C 277.487792 54.531525 276.944814 53.220659 275.978441 52.254286 
C 275.012069 51.287914 273.701202 50.744935 272.334545 50.744935 
C 270.967888 50.744935 269.657022 51.287914 268.69065 52.254286 
C 267.724277 53.220659 267.181299 54.531525 267.181299 55.898182 
C 267.181299 57.264839 267.724277 58.575705 268.69065 59.542078 
C 269.657022 60.50845 270.967888 61.051429 272.334545 61.051429 
z
" clip-path="url(#pe4c9f388fa)" style="fill: #6a5acd; opacity: 0.25"/>
   </g>
   <g id="patch_34">
    <path d="M 293.978182 61.051429 
C 295.344839 61.051429 296.655705 60.50845 297.622078 59.542078 
C 298.58845 58.575705 299.131429 57.264839 299.131429 55.898182 
C 299.131429 54.531525 298.58845 53.220659 297.622078 52.254286 
C 296.655705 51.287914 295.344839 50.744935 293.978182 50.744935 
C 292.611525 50.744935 291.300659 51.287914 290.334286 52.254286 
C 289.367914 53.220659 288.824935 54.531525 288.824935 55.898182 
C 288.824935 57.264839 289.367914 58.575705 290.334286 59.542078 
C 291.300659 60.50845 292.611525 61.051429 293.978182 61.051429 
z
" clip-path="url(#pe4c9f388fa)" style="fill: #6a5acd; opacity: 0.25"/>
   </g>
   <g id="patch_35">
    <path d="M 304.8 61.051429 
C 306.166657 61.051429 307.477523 60.50845 308.443896 59.542078 
C 309.410268 58.575705 309.953247 57.264839 309.953247 55.898182 
C 309.953247 54.531525 309.410268 53.220659 308.443896 52.254286 
C 307.477523 51.287914 306.166657 50.744935 304.8 50.744935 
C 303.433343 50.744935 302.122477 51.287914 301.156104 52.254286 
C 300.189732 53.220659 299.646753 54.531525 299.646753 55.898182 
C 299.646753 57.264839 300.189732 58.575705 301.156104 59.542078 
C 302.122477 60.50845 303.433343 61.051429 304.8 61.051429 
z
" clip-path="url(#pe4c9f388fa)" style="fill: #6a5acd; opacity: 0.25"/>
   </g>
   <g id="patch_36">
    <path d="M 337.265455 61.051429 
C 338.632112 61.051429 339.942978 60.50845 340.90935 59.542078 
C 341.875723 58.575705 342.418701 57.264839 342.418701 55.898182 
C 342.418701 54.531525 341.875723 53.220659 340.90935 52.254286 
C 339.942978 51.287914 338.632112 50.744935 337.265455 50.744935 
C 335.898798 50.744935 334.587931 51.287914 333.621559 52.254286 
C 332.655186 53.220659 332.112208 54.531525 332.112208 55.898182 
C 332.112208 57.264839 332.655186 58.575705 333.621559 59.542078 
C 334.587931 60.50845 335.898798 61.051429 337.265455 61.051429 
z
" clip-path="url(#pe4c9f388fa)" style="fill: #6a5acd; opacity: 0.25"/>
   </g>
   <g id="patch_37">
    <path d="M 348.087273 61.051429 
C 349.45393 61.051429 350.764796 60.50845 351.731168 59.542078 
C 352.697541 58.575705 353.240519 57.264839 353.240519 55.898182 
C 353.240519 54.531525 352.697541 53.220659 351.731168 52.254286 
C 350.764796 51.287914 349.45393 50.744935 348.087273 50.744935 
C 346.720616 50.744935 345.409749 51.287914 344.443377 52.254286 
C 343.477005 53.220659 342.934026 54.531525 342.934026 55.898182 
C 342.934026 57.264839 343.477005 58.575705 344.443377 59.542078 
C 345.409749 60.50845 346.720616 61.051429 348.087273 61.051429 
z
" clip-path="url(#pe4c9f388fa)" style="fill: #6a5acd; opacity: 0.25"/>
   </g>
   <g id="text_1">
    <text style="font: 8px 'sans-serif'; text-anchor: middle" x="12.610909" y="15.030909" transform="rotate(-0, 12.610909, 15.030909)">「</text>
   </g>
   <g id="text_2">
    <text style="font: 8px 'sans-serif'; text-anchor: middle" x="23.432727" y="15.030909" transform="rotate(-0, 23.432727, 15.030909)">進</text>
   </g>
   <g id="text_3">
    <text style="font: 8px 'sans-serif'; text-anchor: middle" x="34.254545" y="15.030909" transform="rotate(-0, 34.254545, 15.030909)">化</text>
   </g>
   <g id="text_4">
    <text style="font: 8px 'sans-serif'; text-anchor: middle" x="45.076364" y="15.030909" transform="rotate(-0, 45.076364, 15.030909)">エ</text>
   </g>
   <g id="text_5">
    <text style="font: 8px 'sans-serif'; text-anchor: middle" x="55.898182" y="15.030909" transform="rotate(-0, 55.898182, 15.030909)">レ</text>
   </g>
   <g id="text_6">
    <text style="font: 8px 'sans-serif'; text-anchor: middle" x="66.72" y="15.030909" transform="rotate(-0, 66.72, 15.030909)">ジ</text>
   </g>
   <g id="text_7">
    <text style="font: 8px 'sans-serif'; text-anchor: middle" x="77.541818" y="15.030909" transform="rotate(-0, 77.541818, 15.030909)">ー</text>
   </g>
   <g id="text_8">
    <text style="font: 8px 'sans-serif'; text-anchor: middle" x="82.952727" y="15.030909" transform="rotate(-0, 82.952727, 15.030909)"> </text>
   </g>
   <g id="text_9">
    <text style="font: 8px 'sans-serif'; text-anchor: middle" x="88.363636" y="15.030909" transform="rotate(-0, 88.363636, 15.030909)">-</text>
   </g>
   <g id="text_10">
    <text style="font: 8px 'sans-serif'; text-anchor: middle" x="93.774545" y="15.030909" transform="rotate(-0, 93.774545, 15.030909)">r</text>
   </g>
   <g id="text_11">
    <text style="font: 8px 'sans-serif'; text-anchor: middle" x="99.185455" y="15.030909" transform="rotate(-0, 99.185455, 15.030909)">e</text>
   </g>
   <g id="text_12">
    <text style="font: 8px 'sans-serif'; text-anchor: middle" x="104.596364" y="15.030909" transform="rotate(-0, 104.596364, 15.030909)">t</text>
   </g>
   <g id="text_13">
    <text style="font: 8px 'sans-serif'; text-anchor: middle" x="110.007273" y="15.030909" transform="rotate(-0, 110.007273, 15.030909)">a</text>
   </g>
   <g id="text_14">
    <text style="font: 8px 'sans-serif'; text-anchor: middle" x="115.418182" y="15.030909" transform="rotate(-0, 115.418182, 15.030909)">k</text>
   </g>
   <g id="text_15">
    <text style="font: 8px 'sans-serif'; text-anchor: middle" x="120.829091" y="15.030909" transform="rotate(-0, 120.829091, 15.030909)">e</text>
   </g>
   <g id="text_16">
    <text style="font: 8px 'sans-serif'; text-anchor: middle" x="126.24" y="15.030909" transform="rotate(-0, 126.24, 15.030909)">-</text>
   </g>
   <g id="text_17">
    <text style="font: 8px 'sans-serif'; text-anchor: middle" x="137.061818" y="15.030909" transform="rotate(-0, 137.061818, 15.030909)">」</text>
   </g>
   <g id="text_18">
    <text style="font: 8px 'sans-serif'; text-anchor: middle" x="12.610909" y="42.085455" transform="rotate(-0, 12.610909, 42.085455)">始</text>
   </g>
   <g id="text_19">
    <text style="font: 8px 'sans-serif'; text-anchor: middle" x="23.432727" y="42.262955" transform="rotate(-0, 23.432727, 42.262955)">（</text>
   </g>
   <g id="text_20">
    <text style="font: 8px 'sans-serif'; text-anchor: middle" x="34.254545" y="42.085455" transform="rotate(-0, 34.254545, 42.085455)">は</text>
   </g>
   <g id="text_21">
    <text style="font: 8px 'sans-serif'; text-anchor: middle" x="45.076364" y="42.085455" transform="rotate(-0, 45.076364, 42.085455)">じ</text>
   </g>
   <g id="text_22">
    <text style="font: 8px 'sans-serif'; text-anchor: middle" x="55.898182" y="42.262955" transform="rotate(-0, 55.898182, 42.262955)">）</text>
   </g>
   <g id="text_23">
    <text style="font: 8px 'sans-serif'; text-anchor: middle" x="66.72" y="42.085455" transform="rotate(-0, 66.72, 42.085455)">ま</text>
   </g>
   <g id="text_24">
    <text style="font: 8px 'sans-serif'; text-anchor: middle" x="77.541818" y="42.085455" transform="rotate(-0, 77.541818, 42.085455)">り</text>
   </g>
   <g id="text_25">
    <text style="font: 8px 'sans-serif'; text-anchor: middle" x="88.363636" y="42.085455" transform="rotate(-0, 88.363636, 42.085455)">の</text>
   </g>
   <g id="text_26">
    <text style="font: 8px 'sans-serif'; text-anchor: middle" x="99.185455" y="42.085455" transform="rotate(-0, 99.185455, 42.085455)">暁</text>
   </g>
   <g id="text_27">
    <text style="font: 8px 'sans-serif'; text-anchor: middle" x="110.007273" y="42.262955" transform="rotate(-0, 110.007273, 42.262955)">（</text>
   </g>
   <g id="text_28">
    <text style="font: 8px 'sans-serif'; text-anchor: middle" x="120.829091" y="42.085455" transform="rotate(-0, 120.829091, 42.085455)">あ</text>
   </g>
   <g id="text_29">
    <text style="font: 8px 'sans-serif'; text-anchor: middle" x="131.650909" y="42.085455" transform="rotate(-0, 131.650909, 42.085455)">か</text>
   </g>
   <g id="text_30">
    <text style="font: 8px 'sans-serif'; text-anchor: middle" x="142.472727" y="42.085455" transform="rotate(-0, 142.472727, 42.085455)">つ</text>
   </g>
   <g id="text_31">
    <text style="font: 8px 'sans-serif'; text-anchor: middle" x="153.294545" y="42.085455" transform="rotate(-0, 153.294545, 42.085455)">き</text>
   </g>
   <g id="text_32">
    <text style="font: 8px 'sans-serif'; text-anchor: middle" x="164.116364" y="42.262955" transform="rotate(-0, 164.116364, 42.262955)">）</text>
   </g>
   <g id="text_33">
    <text style="font: 8px 'sans-serif'; text-anchor: middle" x="174.938182" y="42.085455" transform="rotate(-0, 174.938182, 42.085455)">　</text>
   </g>
   <g id="text_34">
    <text style="font: 8px 'sans-serif'; text-anchor: middle" x="185.76" y="42.085455" transform="rotate(-0, 185.76, 42.085455)">始</text>
   </g>
   <g id="text_35">
    <text style="font: 8px 'sans-serif'; text-anchor: middle" x="196.581818" y="42.262955" transform="rotate(-0, 196.581818, 42.262955)">（</text>
   </g>
   <g id="text_36">
    <text style="font: 8px 'sans-serif'; text-anchor: middle" x="207.403636" y="42.085455" transform="rotate(-0, 207.403636, 42.085455)">は</text>
   </g>
   <g id="text_37">
    <text style="font: 8px 'sans-serif'; text-anchor: middle" x="218.225455" y="42.085455" transform="rotate(-0, 218.225455, 42.085455)">じ</text>
   </g>
   <g id="text_38">
    <text style="font: 8px 'sans-serif'; text-anchor: middle" x="229.047273" y="42.262955" transform="rotate(-0, 229.047273, 42.262955)">）</text>
   </g>
   <g id="text_39">
    <text style="font: 8px 'sans-serif'; text-anchor: middle" x="239.869091" y="42.085455" transform="rotate(-0, 239.869091, 42.085455)">ま</text>
   </g>
   <g id="text_40">
    <text style="font: 8px 'sans-serif'; text-anchor: middle" x="250.690909" y="42.085455" transform="rotate(-0, 250.690909, 42.085455)">り</text>
   </g>
   <g id="text_41">
    <text style="font: 8px 'sans-serif'; text-anchor: middle" x="261.512727" y="42.085455" transform="rotate(-0, 261.512727, 42.085455)">の</text>
   </g>
   <g id="text_42">
    <text style="font: 8px 'sans-serif'; text-anchor: middle" x="272.334545" y="42.085455" transform="rotate(-0, 272.334545, 42.085455)">海</text>
   </g>
   <g id="text_43">
    <text style="font: 8px 'sans-serif'; text-anchor: middle" x="283.156364" y="42.085455" transform="rotate(-0, 283.156364, 42.085455)">辺</text>
   </g>
   <g id="text_44">
    <text style="font: 8px 'sans-serif'; text-anchor: middle" x="293.978182" y="42.262955" transform="rotate(-0, 293.978182, 42.262955)">（</text>
   </g>
   <g id="text_45">
    <text style="font: 8px 'sans-serif'; text-anchor: middle" x="304.8" y="42.085455" transform="rotate(-0, 304.8, 42.085455)">う</text>
   </g>
   <g id="text_46">
    <text style="font: 8px 'sans-serif'; text-anchor: middle" x="315.621818" y="42.085455" transform="rotate(-0, 315.621818, 42.085455)">み</text>
   </g>
   <g id="text_47">
    <text style="font: 8px 'sans-serif'; text-anchor: middle" x="326.443636" y="42.085455" transform="rotate(-0, 326.443636, 42.085455)">べ</text>
   </g>
   <g id="text_48">
    <text style="font: 8px 'sans-serif'; text-anchor: middle" x="337.265455" y="42.262955" transform="rotate(-0, 337.265455, 42.262955)">）</text>
   </g>
   <g id="text_49">
    <text style="font: 8px 'sans-serif'; text-anchor: middle" x="348.087273" y="42.085455" transform="rotate(-0, 348.087273, 42.085455)">で</text>
   </g>
   <g id="text_50">
    <text style="fill: #6a5acd; font: 4px 'sans-serif'; text-anchor: middle" x="34.254545" y="33.660909" transform="rotate(-0, 34.254545, 33.660909)">5</text>
   </g>
   <g id="text_51">
    <text style="fill: #6a5acd; font: 4px 'sans-serif'; text-anchor: middle" x="45.076364" y="33.660909" transform="rotate(-0, 45.076364, 33.660909)">6</text>
   </g>
   <g id="text_52">
    <text style="fill: #6a5acd; font: 4px 'sans-serif'; text-anchor: middle" x="66.72" y="33.660909" transform="rotate(-0, 66.72, 33.660909)">6</text>
   </g>
   <g id="text_53">
    <text style="fill: #6a5acd; font: 4px 'sans-serif'; text-anchor: middle" x="77.541818" y="33.660909" transform="rotate(-0, 77.541818, 33.660909)">1</text>
   </g>
   <g id="text_54">
    <text style="fill: #6a5acd; font: 4px 'sans-serif'; text-anchor: middle" x="88.363636" y="33.660909" transform="rotate(-0, 88.363636, 33.660909)">2</text>
   </g>
   <g id="text_55">
    <text style="fill: #6a5acd; font: 4px 'sans-serif'; text-anchor: middle" x="120.829091" y="33.660909" transform="rotate(-0, 120.829091, 33.660909)">7</text>
   </g>
   <g id="text_56">
    <text style="fill: #6a5acd; font: 4px 'sans-serif'; text-anchor: middle" x="131.650909" y="33.660909" transform="rotate(-0, 131.650909, 33.660909)">1</text>
   </g>
   <g id="text_57">
    <text style="fill: #6a5acd; font: 4px 'sans-serif'; text-anchor: middle" x="142.472727" y="33.660909" transform="rotate(-0, 142.472727, 33.660909)">7</text>
   </g>
   <g id="text_58">
    <text style="fill: #6a5acd; font: 4px 'sans-serif'; text-anchor: middle" x="153.294545" y="33.660909" transform="rotate(-0, 153.294545, 33.660909)">6</text>
   </g>
   <g id="text_59">
    <text style="fill: #6a5acd; font: 4px 'sans-serif'; text-anchor: middle" x="207.403636" y="33.660909" transform="rotate(-0, 207.403636, 33.660909)">5</text>
   </g>
   <g id="text_60">
    <text style="fill: #6a5acd; font: 4px 'sans-serif'; text-anchor: middle" x="218.225455" y="33.660909" transform="rotate(-0, 218.225455, 33.660909)">6</text>
   </g>
   <g id="text_61">
    <text style="fill: #6a5acd; font: 4px 'sans-serif'; text-anchor: middle" x="239.869091" y="33.660909" transform="rotate(-0, 239.869091, 33.660909)">6</text>
   </g>
   <g id="text_62">
    <text style="fill: #6a5acd; font: 4px 'sans-serif'; text-anchor: middle" x="250.690909" y="33.660909" transform="rotate(-0, 250.690909, 33.660909)">3</text>
   </g>
   <g id="text_63">
    <text style="fill: #6a5acd; font: 4px 'sans-serif'; text-anchor: middle" x="261.512727" y="33.660909" transform="rotate(-0, 261.512727, 33.660909)">5</text>
   </g>
   <g id="text_64">
    <text style="fill: #6a5acd; font: 4px 'sans-serif'; text-anchor: middle" x="304.8" y="33.660909" transform="rotate(-0, 304.8, 33.660909)">5</text>
   </g>
   <g id="text_65">
    <text style="fill: #6a5acd; font: 4px 'sans-serif'; text-anchor: middle" x="315.621818" y="33.660909" transform="rotate(-0, 315.621818, 33.660909)">#4</text>
   </g>
   <g id="text_66">
    <text style="fill: #6a5acd; font: 4px 'sans-serif'; text-anchor: middle" x="326.443636" y="33.660909" transform="rotate(-0, 326.443636, 33.660909)">32</text>
   </g>
   <g id="text_67">
    <text style="fill: #6a5acd; font: 4px 'sans-serif'; text-anchor: middle" x="348.087273" y="33.660909" transform="rotate(-0, 348.087273, 33.660909)">3</text>
   </g>
   <g id="text_68">
    <text style="font: 8px 'sans-serif'; text-anchor: middle" x="12.610909" y="58.318182" transform="rotate(-0, 12.610909, 58.318182)">微</text>
   </g>
   <g id="text_69">
    <text style="font: 8px 'sans-serif'; text-anchor: middle" x="23.432727" y="58.318182" transform="rotate(-0, 23.432727, 58.318182)">睡</text>
   </g>
   <g id="text_70">
    <text style="font: 8px 'sans-serif'; text-anchor: middle" x="34.254545" y="58.495682" transform="rotate(-0, 34.254545, 58.495682)">（</text>
   </g>
   <g id="text_71">
    <text style="font: 8px 'sans-serif'; text-anchor: middle" x="45.076364" y="58.318182" transform="rotate(-0, 45.076364, 58.318182)">ま</text>
   </g>
   <g id="text_72">
    <text style="font: 8px 'sans-serif'; text-anchor: middle" x="55.898182" y="58.318182" transform="rotate(-0, 55.898182, 58.318182)">ど</text>
   </g>
   <g id="text_73">
    <text style="font: 8px 'sans-serif'; text-anchor: middle" x="66.72" y="58.318182" transform="rotate(-0, 66.72, 58.318182)">ろ</text>
   </g>
   <g id="text_74">
    <text style="font: 8px 'sans-serif'; text-anchor: middle" x="77.541818" y="58.318182" transform="rotate(-0, 77.541818, 58.318182)">み</text>
   </g>
   <g id="text_75">
    <text style="font: 8px 'sans-serif'; text-anchor: middle" x="88.363636" y="58.495682" transform="rotate(-0, 88.363636, 58.495682)">）</text>
   </g>
   <g id="text_76">
    <text style="font: 8px 'sans-serif'; text-anchor: middle" x="99.185455" y="58.318182" transform="rotate(-0, 99.185455, 58.318182)">の</text>
   </g>
   <g id="text_77">
    <text style="font: 8px 'sans-serif'; text-anchor: middle" x="110.007273" y="58.318182" transform="rotate(-0, 110.007273, 58.318182)">さ</text>
   </g>
   <g id="text_78">
    <text style="font: 8px 'sans-serif'; text-anchor: middle" x="120.829091" y="58.318182" transform="rotate(-0, 120.829091, 58.318182)">な</text>
   </g>
   <g id="text_79">
    <text style="font: 8px 'sans-serif'; text-anchor: middle" x="131.650909" y="58.318182" transform="rotate(-0, 131.650909, 58.318182)">か</text>
   </g>
   <g id="text_80">
    <text style="font: 8px 'sans-serif'; text-anchor: middle" x="142.472727" y="58.318182" transform="rotate(-0, 142.472727, 58.318182)">に</text>
   </g>
   <g id="text_81">
    <text style="font: 8px 'sans-serif'; text-anchor: middle" x="153.294545" y="58.318182" transform="rotate(-0, 153.294545, 58.318182)">　</text>
   </g>
   <g id="text_82">
    <text style="font: 8px 'sans-serif'; text-anchor: middle" x="164.116364" y="58.318182" transform="rotate(-0, 164.116364, 58.318182)">寝</text>
   </g>
   <g id="text_83">
    <text style="font: 8px 'sans-serif'; text-anchor: middle" x="174.938182" y="58.318182" transform="rotate(-0, 174.938182, 58.318182)">息</text>
   </g>
   <g id="text_84">
    <text style="font: 8px 'sans-serif'; text-anchor: middle" x="185.76" y="58.495682" transform="rotate(-0, 185.76, 58.495682)">（</text>
   </g>
   <g id="text_85">
    <text style="font: 8px 'sans-serif'; text-anchor: middle" x="196.581818" y="58.318182" transform="rotate(-0, 196.581818, 58.318182)">ね</text>
   </g>
   <g id="text_86">
    <text style="font: 8px 'sans-serif'; text-anchor: middle" x="207.403636" y="58.318182" transform="rotate(-0, 207.403636, 58.318182)">い</text>
   </g>
   <g id="text_87">
    <text style="font: 8px 'sans-serif'; text-anchor: middle" x="218.225455" y="58.318182" transform="rotate(-0, 218.225455, 58.318182)">き</text>
   </g>
   <g id="text_88">
    <text style="font: 8px 'sans-serif'; text-anchor: middle" x="229.047273" y="58.495682" transform="rotate(-0, 229.047273, 58.495682)">）</text>
   </g>
   <g id="text_89">
    <text style="font: 8px 'sans-serif'; text-anchor: middle" x="239.869091" y="58.318182" transform="rotate(-0, 239.869091, 58.318182)">を</text>
   </g>
   <g id="text_90">
    <text style="font: 8px 'sans-serif'; text-anchor: middle" x="250.690909" y="58.318182" transform="rotate(-0, 250.690909, 58.318182)">立</text>
   </g>
   <g id="text_91">
    <text style="font: 8px 'sans-serif'; text-anchor: middle" x="261.512727" y="58.495682" transform="rotate(-0, 261.512727, 58.495682)">（</text>
   </g>
   <g id="text_92">
    <text style="font: 8px 'sans-serif'; text-anchor: middle" x="272.334545" y="58.318182" transform="rotate(-0, 272.334545, 58.318182)">た</text>
   </g>
   <g id="text_93">
    <text style="font: 8px 'sans-serif'; text-anchor: middle" x="283.156364" y="58.495682" transform="rotate(-0, 283.156364, 58.495682)">）</text>
   </g>
   <g id="text_94">
    <text style="font: 8px 'sans-serif'; text-anchor: middle" x="293.978182" y="58.318182" transform="rotate(-0, 293.978182, 58.318182)">て</text>
   </g>
   <g id="text_95">
    <text style="font: 8px 'sans-serif'; text-anchor: middle" x="304.8" y="58.318182" transform="rotate(-0, 304.8, 58.318182)">る</text>
   </g>
   <g id="text_96">
    <text style="font: 8px 'sans-serif'; text-anchor: middle" x="315.621818" y="58.318182" transform="rotate(-0, 315.621818, 58.318182)">君</text>
   </g>
   <g id="text_97">
    <text style="font: 8px 'sans-serif'; text-anchor: middle" x="326.443636" y="58.495682" transform="rotate(-0, 326.443636, 58.495682)">（</text>
   </g>
   <g id="text_98">
    <text style="font: 8px 'sans-serif'; text-anchor: middle" x="337.265455" y="58.318182" transform="rotate(-0, 337.265455, 58.318182)">き</text>
   </g>
   <g id="text_99">
    <text style="font: 8px 'sans-serif'; text-anchor: middle" x="348.087273" y="58.318182" transform="rotate(-0, 348.087273, 58.318182)">み</text>
   </g>
   <g id="text_100">
    <text style="font: 8px 'sans-serif'; text-anchor: middle" x="358.909091" y="58.495682" transform="rotate(-0, 358.909091, 58.495682)">）</text>
   </g>
   <g id="text_101">
    <text style="fill: #6a5acd; font: 4px 'sans-serif'; text-anchor: middle" x="45.076364" y="49.893636" transform="rotate(-0, 45.076364, 49.893636)">5</text>
   </g>
   <g id="text_102">
    <text style="fill: #6a5acd; font: 4px 'sans-serif'; text-anchor: middle" x="55.898182" y="49.893636" transform="rotate(-0, 55.898182, 49.893636)">6</text>
   </g>
   <g id="text_103">
    <text style="fill: #6a5acd; font: 4px 'sans-serif'; text-anchor: middle" x="66.72" y="49.893636" transform="rotate(-0, 66.72, 49.893636)">6</text>
   </g>
   <g id="text_104">
    <text style="fill: #6a5acd; font: 4px 'sans-serif'; text-anchor: middle" x="77.541818" y="49.893636" transform="rotate(-0, 77.541818, 49.893636)">1</text>
   </g>
   <g id="text_105">
    <text style="fill: #6a5acd; font: 4px 'sans-serif'; text-anchor: middle" x="99.185455" y="49.893636" transform="rotate(-0, 99.185455, 49.893636)">2</text>
   </g>
   <g id="text_106">
    <text style="fill: #6a5acd; font: 4px 'sans-serif'; text-anchor: middle" x="110.007273" y="49.893636" transform="rotate(-0, 110.007273, 49.893636)">3</text>
   </g>
   <g id="text_107">
    <text style="fill: #6a5acd; font: 4px 'sans-serif'; text-anchor: middle" x="120.829091" y="49.893636" transform="rotate(-0, 120.829091, 49.893636)">2</text>
   </g>
   <g id="text_108">
    <text style="fill: #6a5acd; font: 4px 'sans-serif'; text-anchor: middle" x="131.650909" y="49.893636" transform="rotate(-0, 131.650909, 49.893636)">6</text>
   </g>
   <g id="text_109">
    <text style="fill: #6a5acd; font: 4px 'sans-serif'; text-anchor: middle" x="142.472727" y="49.893636" transform="rotate(-0, 142.472727, 49.893636)">1</text>
   </g>
   <g id="text_110">
    <text style="fill: #6a5acd; font: 4px 'sans-serif'; text-anchor: middle" x="196.581818" y="49.893636" transform="rotate(-0, 196.581818, 49.893636)">3</text>
   </g>
   <g id="text_111">
    <text style="fill: #6a5acd; font: 4px 'sans-serif'; text-anchor: middle" x="207.403636" y="49.893636" transform="rotate(-0, 207.403636, 49.893636)">2</text>
   </g>
   <g id="text_112">
    <text style="fill: #6a5acd; font: 4px 'sans-serif'; text-anchor: middle" x="218.225455" y="49.893636" transform="rotate(-0, 218.225455, 49.893636)">6</text>
   </g>
   <g id="text_113">
    <text style="fill: #6a5acd; font: 4px 'sans-serif'; text-anchor: middle" x="239.869091" y="49.893636" transform="rotate(-0, 239.869091, 49.893636)">1</text>
   </g>
   <g id="text_114">
    <text style="fill: #6a5acd; font: 4px 'sans-serif'; text-anchor: middle" x="272.334545" y="49.893636" transform="rotate(-0, 272.334545, 49.893636)">2</text>
   </g>
   <g id="text_115">
    <text style="fill: #6a5acd; font: 4px 'sans-serif'; text-anchor: middle" x="293.978182" y="49.893636" transform="rotate(-0, 293.978182, 49.893636)">7</text>
   </g>
   <g id="text_116">
    <text style="fill: #6a5acd; font: 4px 'sans-serif'; text-anchor: middle" x="304.8" y="49.893636" transform="rotate(-0, 304.8, 49.893636)">1</text>
   </g>
   <g id="text_117">
    <text style="fill: #6a5acd; font: 4px 'sans-serif'; text-anchor: middle" x="337.265455" y="49.893636" transform="rotate(-0, 337.265455, 49.893636)">7</text>
   </g>
   <g id="text_118">
    <text style="fill: #6a5acd; font: 4px 'sans-serif'; text-anchor: middle" x="348.087273" y="49.893636" transform="rotate(-0, 348.087273, 49.893636)">5</text>
   </g>
  </g>
 </g>
 <defs>
  <clipPath id="pe4c9f388fa">
   <rect x="7.2" y="7.2" width="357.12" height="54.109091"/>
  </clipPath>
 </defs>
</svg>
