<?xml version="1.0" encoding="utf-8" standalone="no"?>
<!DOCTYPE svg PUBLIC "-//W3C//DTD SVG 1.1//EN"
  "http://www.w3.org/Graphics/SVG/1.1/DTD/svg11.dtd">
<!-- Created with matplotlib (https://matplotlib.org/) -->
<svg height="432pt" version="1.1" viewBox="0 0 992.878455 432" width="992.878455pt" xmlns="http://www.w3.org/2000/svg" xmlns:xlink="http://www.w3.org/1999/xlink">
 <defs>
  <style type="text/css">
*{stroke-linecap:butt;stroke-linejoin:round;}
  </style>
 </defs>
 <g id="figure_1">
  <g id="patch_1">
   <path d="M 0 432 
L 992.878455 432 
L 992.878455 0 
L 0 0 
z
" style="fill:#ffffff;"/>
  </g>
  <g id="axes_1">
   <g id="patch_2">
    <path clip-path="url(#pdb4997f8e5)" d="M -1141.540327 216 
L -1016.761853 216 
L -1016.761853 36 
L -1141.540327 36 
z
" style="fill:#cccccc;"/>
   </g>
   <g id="patch_3">
    <path clip-path="url(#pdb4997f8e5)" d="M -670.046477 216 
L -558.881495 216 
L -558.881495 36 
L -670.046477 36 
z
" style="fill:#cccccc;"/>
   </g>
   <g id="patch_4">
    <path clip-path="url(#pdb4997f8e5)" d="M -249.993211 216 
L -150.956471 216 
L -150.956471 36 
L -249.993211 36 
z
" style="fill:#cccccc;"/>
   </g>
   <g id="patch_5">
    <path clip-path="url(#pdb4997f8e5)" d="M 124.231705 216 
L 212.46341 216 
L 212.46341 36 
L 124.231705 36 
z
" style="fill:#cccccc;"/>
   </g>
   <g id="patch_6">
    <path clip-path="url(#pdb4997f8e5)" d="M 610.427441 396 
L 684.621165 396 
L 684.621165 36 
L 610.427441 36 
z
" style="fill:#cccccc;"/>
   </g>
   <g id="patch_7">
    <path clip-path="url(#pdb4997f8e5)" d="M 1019.267692 216 
L 1081.656929 216 
L 1081.656929 36 
L 1019.267692 36 
z
" style="fill:#cccccc;"/>
   </g>
   <g id="patch_8">
    <path clip-path="url(#pdb4997f8e5)" d="M 1255.014617 216 
L 1310.597108 216 
L 1310.597108 36 
L 1255.014617 36 
z
" style="fill:#cccccc;"/>
   </g>
   <g id="patch_9">
    <path clip-path="url(#pdb4997f8e5)" d="M 1465.04125 216 
L 1514.55962 216 
L 1514.55962 36 
L 1465.04125 36 
z
" style="fill:#cccccc;"/>
   </g>
   <g id="patch_10">
    <path clip-path="url(#pdb4997f8e5)" d="M 1652.153708 216 
L 1696.269561 216 
L 1696.269561 36 
L 1652.153708 36 
z
" style="fill:#cccccc;"/>
   </g>
   <g id="line2d_1">
    <path clip-path="url(#pdb4997f8e5)" style="fill:none;stroke:#000000;stroke-width:10;"/>
   </g>
   <g id="line2d_2">
    <path clip-path="url(#pdb4997f8e5)" style="fill:none;stroke:#000000;stroke-width:5;"/>
   </g>
   <g id="line2d_3">
    <path clip-path="url(#pdb4997f8e5)" d="M 36 396 
L 36 36 
" style="fill:none;stroke:#000000;stroke-width:3;"/>
   </g>
   <g id="line2d_4">
    <path clip-path="url(#pdb4997f8e5)" d="M 212.46341 396 
L 212.46341 36 
" style="fill:none;stroke:#000000;stroke-width:3;"/>
   </g>
   <g id="line2d_5">
    <path clip-path="url(#pdb4997f8e5)" d="M 379.02269 396 
L 379.02269 36 
" style="fill:none;stroke:#000000;stroke-width:3;"/>
   </g>
   <g id="line2d_6">
    <path clip-path="url(#pdb4997f8e5)" d="M 536.233716 396 
L 536.233716 36 
" style="fill:none;stroke:#000000;stroke-width:3;"/>
   </g>
   <g id="line2d_7">
    <path clip-path="url(#pdb4997f8e5)" d="M 684.621165 396 
L 684.621165 36 
" style="fill:none;stroke:#000000;stroke-width:3;"/>
   </g>
   <g id="line2d_8">
    <path clip-path="url(#pdb4997f8e5)" d="M 824.680267 396 
L 824.680267 36 
" style="fill:none;stroke:#000000;stroke-width:3;"/>
   </g>
   <g id="line2d_9">
    <path clip-path="url(#pdb4997f8e5)" d="M 956.878455 396 
L 956.878455 36 
" style="fill:none;stroke:#000000;stroke-width:3;"/>
   </g>
   <g id="line2d_10">
    <path clip-path="url(#pdb4997f8e5)" d="M -1 396 
L 993.878455 396 
" style="fill:none;stroke:#808080;stroke-linecap:square;stroke-width:3;"/>
   </g>
   <g id="line2d_11">
    <path clip-path="url(#pdb4997f8e5)" d="M -1 324 
L 993.878455 324 
" style="fill:none;stroke:#808080;stroke-linecap:square;stroke-width:3;"/>
   </g>
   <g id="line2d_12">
    <path clip-path="url(#pdb4997f8e5)" d="M -1 252 
L 993.878455 252 
" style="fill:none;stroke:#808080;stroke-linecap:square;stroke-width:3;"/>
   </g>
   <g id="line2d_13">
    <path clip-path="url(#pdb4997f8e5)" d="M -1 180 
L 993.878455 180 
" style="fill:none;stroke:#808080;stroke-linecap:square;stroke-width:3;"/>
   </g>
   <g id="line2d_14">
    <path clip-path="url(#pdb4997f8e5)" d="M -1 108 
L 993.878455 108 
" style="fill:none;stroke:#808080;stroke-linecap:square;stroke-width:3;"/>
   </g>
   <g id="line2d_15">
    <path clip-path="url(#pdb4997f8e5)" d="M -1 36 
L 993.878455 36 
" style="fill:none;stroke:#808080;stroke-linecap:square;stroke-width:3;"/>
   </g>
   <g id="text_1">
    <!-- 8 -->
    <defs>
     <path d="M 31.78125 34.625 
Q 24.75 34.625 20.71875 30.859375 
Q 16.703125 27.09375 16.703125 20.515625 
Q 16.703125 13.921875 20.71875 10.15625 
Q 24.75 6.390625 31.78125 6.390625 
Q 38.8125 6.390625 42.859375 10.171875 
Q 46.921875 13.96875 46.921875 20.515625 
Q 46.921875 27.09375 42.890625 30.859375 
Q 38.875 34.625 31.78125 34.625 
z
M 21.921875 38.8125 
Q 15.578125 40.375 12.03125 44.71875 
Q 8.5 49.078125 8.5 55.328125 
Q 8.5 64.0625 14.71875 69.140625 
Q 20.953125 74.21875 31.78125 74.21875 
Q 42.671875 74.21875 48.875 69.140625 
Q 55.078125 64.0625 55.078125 55.328125 
Q 55.078125 49.078125 51.53125 44.71875 
Q 48 40.375 41.703125 38.8125 
Q 48.828125 37.15625 52.796875 32.3125 
Q 56.78125 27.484375 56.78125 20.515625 
Q 56.78125 9.90625 50.3125 4.234375 
Q 43.84375 -1.421875 31.78125 -1.421875 
Q 19.734375 -1.421875 13.25 4.234375 
Q 6.78125 9.90625 6.78125 20.515625 
Q 6.78125 27.484375 10.78125 32.3125 
Q 14.796875 37.15625 21.921875 38.8125 
z
M 18.3125 54.390625 
Q 18.3125 48.734375 21.84375 45.5625 
Q 25.390625 42.390625 31.78125 42.390625 
Q 38.140625 42.390625 41.71875 45.5625 
Q 45.3125 48.734375 45.3125 54.390625 
Q 45.3125 60.0625 41.71875 63.234375 
Q 38.140625 66.40625 31.78125 66.40625 
Q 25.390625 66.40625 21.84375 63.234375 
Q 18.3125 60.0625 18.3125 54.390625 
z
" id="DejaVuSans-56"/>
    </defs>
    <g style="fill:#0000ff;" transform="translate(30.432813 428.521214)scale(0.175 -0.175)">
     <use xlink:href="#DejaVuSans-56"/>
    </g>
   </g>
   <g id="text_2">
    <!-- 9 -->
    <defs>
     <path d="M 10.984375 1.515625 
L 10.984375 10.5 
Q 14.703125 8.734375 18.5 7.8125 
Q 22.3125 6.890625 25.984375 6.890625 
Q 35.75 6.890625 40.890625 13.453125 
Q 46.046875 20.015625 46.78125 33.40625 
Q 43.953125 29.203125 39.59375 26.953125 
Q 35.25 24.703125 29.984375 24.703125 
Q 19.046875 24.703125 12.671875 31.3125 
Q 6.296875 37.9375 6.296875 49.421875 
Q 6.296875 60.640625 12.9375 67.421875 
Q 19.578125 74.21875 30.609375 74.21875 
Q 43.265625 74.21875 49.921875 64.515625 
Q 56.59375 54.828125 56.59375 36.375 
Q 56.59375 19.140625 48.40625 8.859375 
Q 40.234375 -1.421875 26.421875 -1.421875 
Q 22.703125 -1.421875 18.890625 -0.6875 
Q 15.09375 0.046875 10.984375 1.515625 
z
M 30.609375 32.421875 
Q 37.25 32.421875 41.125 36.953125 
Q 45.015625 41.5 45.015625 49.421875 
Q 45.015625 57.28125 41.125 61.84375 
Q 37.25 66.40625 30.609375 66.40625 
Q 23.96875 66.40625 20.09375 61.84375 
Q 16.21875 57.28125 16.21875 49.421875 
Q 16.21875 41.5 20.09375 36.953125 
Q 23.96875 32.421875 30.609375 32.421875 
z
" id="DejaVuSans-57"/>
    </defs>
    <g style="fill:#0000ff;" transform="translate(206.896223 428.521214)scale(0.175 -0.175)">
     <use xlink:href="#DejaVuSans-57"/>
    </g>
   </g>
   <g id="text_3">
    <!-- 10 -->
    <defs>
     <path d="M 12.40625 8.296875 
L 28.515625 8.296875 
L 28.515625 63.921875 
L 10.984375 60.40625 
L 10.984375 69.390625 
L 28.421875 72.90625 
L 38.28125 72.90625 
L 38.28125 8.296875 
L 54.390625 8.296875 
L 54.390625 0 
L 12.40625 0 
z
" id="DejaVuSans-49"/>
     <path d="M 31.78125 66.40625 
Q 24.171875 66.40625 20.328125 58.90625 
Q 16.5 51.421875 16.5 36.375 
Q 16.5 21.390625 20.328125 13.890625 
Q 24.171875 6.390625 31.78125 6.390625 
Q 39.453125 6.390625 43.28125 13.890625 
Q 47.125 21.390625 47.125 36.375 
Q 47.125 51.421875 43.28125 58.90625 
Q 39.453125 66.40625 31.78125 66.40625 
z
M 31.78125 74.21875 
Q 44.046875 74.21875 50.515625 64.515625 
Q 56.984375 54.828125 56.984375 36.375 
Q 56.984375 17.96875 50.515625 8.265625 
Q 44.046875 -1.421875 31.78125 -1.421875 
Q 19.53125 -1.421875 13.0625 8.265625 
Q 6.59375 17.96875 6.59375 36.375 
Q 6.59375 54.828125 13.0625 64.515625 
Q 19.53125 74.21875 31.78125 74.21875 
z
" id="DejaVuSans-48"/>
    </defs>
    <g style="fill:#0000ff;" transform="translate(367.888315 428.521214)scale(0.175 -0.175)">
     <use xlink:href="#DejaVuSans-49"/>
     <use x="63.623047" xlink:href="#DejaVuSans-48"/>
    </g>
   </g>
   <g id="text_4">
    <!-- 11 -->
    <g style="fill:#0000ff;" transform="translate(525.099341 428.521214)scale(0.175 -0.175)">
     <use xlink:href="#DejaVuSans-49"/>
     <use x="63.623047" xlink:href="#DejaVuSans-49"/>
    </g>
   </g>
   <g id="text_5">
    <!-- 12 -->
    <defs>
     <path d="M 19.1875 8.296875 
L 53.609375 8.296875 
L 53.609375 0 
L 7.328125 0 
L 7.328125 8.296875 
Q 12.9375 14.109375 22.625 23.890625 
Q 32.328125 33.6875 34.8125 36.53125 
Q 39.546875 41.84375 41.421875 45.53125 
Q 43.3125 49.21875 43.3125 52.78125 
Q 43.3125 58.59375 39.234375 62.25 
Q 35.15625 65.921875 28.609375 65.921875 
Q 23.96875 65.921875 18.8125 64.3125 
Q 13.671875 62.703125 7.8125 59.421875 
L 7.8125 69.390625 
Q 13.765625 71.78125 18.9375 73 
Q 24.125 74.21875 28.421875 74.21875 
Q 39.75 74.21875 46.484375 68.546875 
Q 53.21875 62.890625 53.21875 53.421875 
Q 53.21875 48.921875 51.53125 44.890625 
Q 49.859375 40.875 45.40625 35.40625 
Q 44.1875 33.984375 37.640625 27.21875 
Q 31.109375 20.453125 19.1875 8.296875 
z
" id="DejaVuSans-50"/>
    </defs>
    <g style="fill:#0000ff;" transform="translate(673.48679 428.521214)scale(0.175 -0.175)">
     <use xlink:href="#DejaVuSans-49"/>
     <use x="63.623047" xlink:href="#DejaVuSans-50"/>
    </g>
   </g>
   <g id="text_6">
    <!-- 13 -->
    <defs>
     <path d="M 40.578125 39.3125 
Q 47.65625 37.796875 51.625 33 
Q 55.609375 28.21875 55.609375 21.1875 
Q 55.609375 10.40625 48.1875 4.484375 
Q 40.765625 -1.421875 27.09375 -1.421875 
Q 22.515625 -1.421875 17.65625 -0.515625 
Q 12.796875 0.390625 7.625 2.203125 
L 7.625 11.71875 
Q 11.71875 9.328125 16.59375 8.109375 
Q 21.484375 6.890625 26.8125 6.890625 
Q 36.078125 6.890625 40.9375 10.546875 
Q 45.796875 14.203125 45.796875 21.1875 
Q 45.796875 27.640625 41.28125 31.265625 
Q 36.765625 34.90625 28.71875 34.90625 
L 20.21875 34.90625 
L 20.21875 43.015625 
L 29.109375 43.015625 
Q 36.375 43.015625 40.234375 45.921875 
Q 44.09375 48.828125 44.09375 54.296875 
Q 44.09375 59.90625 40.109375 62.90625 
Q 36.140625 65.921875 28.71875 65.921875 
Q 24.65625 65.921875 20.015625 65.03125 
Q 15.375 64.15625 9.8125 62.3125 
L 9.8125 71.09375 
Q 15.4375 72.65625 20.34375 73.4375 
Q 25.25 74.21875 29.59375 74.21875 
Q 40.828125 74.21875 47.359375 69.109375 
Q 53.90625 64.015625 53.90625 55.328125 
Q 53.90625 49.265625 50.4375 45.09375 
Q 46.96875 40.921875 40.578125 39.3125 
z
" id="DejaVuSans-51"/>
    </defs>
    <g style="fill:#0000ff;" transform="translate(813.545892 428.521214)scale(0.175 -0.175)">
     <use xlink:href="#DejaVuSans-49"/>
     <use x="63.623047" xlink:href="#DejaVuSans-51"/>
    </g>
   </g>
   <g id="text_7">
    <!-- 14 -->
    <defs>
     <path d="M 37.796875 64.3125 
L 12.890625 25.390625 
L 37.796875 25.390625 
z
M 35.203125 72.90625 
L 47.609375 72.90625 
L 47.609375 25.390625 
L 58.015625 25.390625 
L 58.015625 17.1875 
L 47.609375 17.1875 
L 47.609375 0 
L 37.796875 0 
L 37.796875 17.1875 
L 4.890625 17.1875 
L 4.890625 26.703125 
z
" id="DejaVuSans-52"/>
    </defs>
    <g style="fill:#0000ff;" transform="translate(945.74408 428.521214)scale(0.175 -0.175)">
     <use xlink:href="#DejaVuSans-49"/>
     <use x="63.623047" xlink:href="#DejaVuSans-52"/>
    </g>
   </g>
   <g id="patch_11">
    <path d="M 71.292682 210 
C 79.248775 210 86.880078 206.839011 92.505885 201.213203 
C 98.131693 195.587396 101.292682 187.956093 101.292682 180 
C 101.292682 172.043907 98.131693 164.412604 92.505885 158.786797 
C 86.880078 153.160989 79.248775 150 71.292682 150 
C 63.336589 150 55.705286 153.160989 50.079479 158.786797 
C 44.453671 164.412604 41.292682 172.043907 41.292682 180 
C 41.292682 187.956093 44.453671 195.587396 50.079479 201.213203 
C 55.705286 206.839011 63.336589 210 71.292682 210 
z
" style="fill:#d9544c;stroke:#d9544c;stroke-linejoin:miter;"/>
   </g>
   <g id="patch_12">
    <path d="M 245.775266 354 
C 253.731359 354 261.362662 350.839011 266.98847 345.213203 
C 272.614277 339.587396 275.775266 331.956093 275.775266 324 
C 275.775266 316.043907 272.614277 308.412604 266.98847 302.786797 
C 261.362662 297.160989 253.731359 294 245.775266 294 
C 237.819173 294 230.18787 297.160989 224.562063 302.786797 
C 218.936256 308.412604 215.775266 316.043907 215.775266 324 
C 215.775266 331.956093 218.936256 339.587396 224.562063 345.213203 
C 230.18787 350.839011 237.819173 354 245.775266 354 
z
" style="fill:#d9544c;stroke:#d9544c;stroke-linejoin:miter;"/>
   </g>
   <g id="patch_13">
    <path d="M 245.775266 282 
C 253.731359 282 261.362662 278.839011 266.98847 273.213203 
C 272.614277 267.587396 275.775266 259.956093 275.775266 252 
C 275.775266 244.043907 272.614277 236.412604 266.98847 230.786797 
C 261.362662 225.160989 253.731359 222 245.775266 222 
C 237.819173 222 230.18787 225.160989 224.562063 230.786797 
C 218.936256 236.412604 215.775266 244.043907 215.775266 252 
C 215.775266 259.956093 218.936256 267.587396 224.562063 273.213203 
C 230.18787 278.839011 237.819173 282 245.775266 282 
z
" style="fill:#d9544c;stroke:#d9544c;stroke-linejoin:miter;"/>
   </g>
   <g id="patch_14">
    <path d="M 565.911206 426 
C 573.867299 426 581.498602 422.839011 587.12441 417.213203 
C 592.750217 411.587396 595.911206 403.956093 595.911206 396 
C 595.911206 388.043907 592.750217 380.412604 587.12441 374.786797 
C 581.498602 369.160989 573.867299 366 565.911206 366 
C 557.955113 366 550.32381 369.160989 544.698003 374.786797 
C 539.072195 380.412604 535.911206 388.043907 535.911206 396 
C 535.911206 403.956093 539.072195 411.587396 544.698003 417.213203 
C 550.32381 422.839011 557.955113 426 565.911206 426 
z
" style="fill:#d9544c;stroke:#d9544c;stroke-linejoin:miter;"/>
   </g>
   <g id="patch_15">
    <path d="M 565.911206 210 
C 573.867299 210 581.498602 206.839011 587.12441 201.213203 
C 592.750217 195.587396 595.911206 187.956093 595.911206 180 
C 595.911206 172.043907 592.750217 164.412604 587.12441 158.786797 
C 581.498602 153.160989 573.867299 150 565.911206 150 
C 557.955113 150 550.32381 153.160989 544.698003 158.786797 
C 539.072195 164.412604 535.911206 172.043907 535.911206 180 
C 535.911206 187.956093 539.072195 195.587396 544.698003 201.213203 
C 550.32381 206.839011 557.955113 210 565.911206 210 
z
" style="fill:#d9544c;stroke:#d9544c;stroke-linejoin:miter;"/>
   </g>
   <g id="patch_16">
    <path d="M 565.911206 66 
C 573.867299 66 581.498602 62.839011 587.12441 57.213203 
C 592.750217 51.587396 595.911206 43.956093 595.911206 36 
C 595.911206 28.043907 592.750217 20.412604 587.12441 14.786797 
C 581.498602 9.160989 573.867299 6 565.911206 6 
C 557.955113 6 550.32381 9.160989 544.698003 14.786797 
C 539.072195 20.412604 535.911206 28.043907 535.911206 36 
C 535.911206 43.956093 539.072195 51.587396 544.698003 57.213203 
C 550.32381 62.839011 557.955113 66 565.911206 66 
z
" style="fill:#d9544c;stroke:#d9544c;stroke-linejoin:miter;"/>
   </g>
   <g id="patch_17">
    <path d="M 712.632986 138 
C 720.589079 138 728.220382 134.839011 733.846189 129.213203 
C 739.471996 123.587396 742.632986 115.956093 742.632986 108 
C 742.632986 100.043907 739.471996 92.412604 733.846189 86.786797 
C 728.220382 81.160989 720.589079 78 712.632986 78 
C 704.676893 78 697.04559 81.160989 691.419782 86.786797 
C 685.793975 92.412604 682.632986 100.043907 682.632986 108 
C 682.632986 115.956093 685.793975 123.587396 691.419782 129.213203 
C 697.04559 134.839011 704.676893 138 712.632986 138 
z
" style="fill:#d9544c;stroke:#d9544c;stroke-linejoin:miter;"/>
   </g>
   <g id="patch_18">
    <path d="M 851.119905 282 
C 859.075998 282 866.707301 278.839011 872.333108 273.213203 
C 877.958915 267.587396 881.119905 259.956093 881.119905 252 
C 881.119905 244.043907 877.958915 236.412604 872.333108 230.786797 
C 866.707301 225.160989 859.075998 222 851.119905 222 
C 843.163812 222 835.532508 225.160989 829.906701 230.786797 
C 824.280894 236.412604 821.119905 244.043907 821.119905 252 
C 821.119905 259.956093 824.280894 267.587396 829.906701 273.213203 
C 835.532508 278.839011 843.163812 282 851.119905 282 
z
" style="fill:#d9544c;stroke:#d9544c;stroke-linejoin:miter;"/>
   </g>
   <g id="text_8">
    <!-- E3(3) -->
    <defs>
     <path d="M 9.8125 72.90625 
L 55.90625 72.90625 
L 55.90625 64.59375 
L 19.671875 64.59375 
L 19.671875 43.015625 
L 54.390625 43.015625 
L 54.390625 34.71875 
L 19.671875 34.71875 
L 19.671875 8.296875 
L 56.78125 8.296875 
L 56.78125 0 
L 9.8125 0 
z
" id="DejaVuSans-69"/>
     <path d="M 31 75.875 
Q 24.46875 64.65625 21.28125 53.65625 
Q 18.109375 42.671875 18.109375 31.390625 
Q 18.109375 20.125 21.3125 9.0625 
Q 24.515625 -2 31 -13.1875 
L 23.1875 -13.1875 
Q 15.875 -1.703125 12.234375 9.375 
Q 8.59375 20.453125 8.59375 31.390625 
Q 8.59375 42.28125 12.203125 53.3125 
Q 15.828125 64.359375 23.1875 75.875 
z
" id="DejaVuSans-40"/>
     <path d="M 8.015625 75.875 
L 15.828125 75.875 
Q 23.140625 64.359375 26.78125 53.3125 
Q 30.421875 42.28125 30.421875 31.390625 
Q 30.421875 20.453125 26.78125 9.375 
Q 23.140625 -1.703125 15.828125 -13.1875 
L 8.015625 -13.1875 
Q 14.5 -2 17.703125 9.0625 
Q 20.90625 20.125 20.90625 31.390625 
Q 20.90625 42.671875 17.703125 53.65625 
Q 14.5 64.65625 8.015625 75.875 
z
" id="DejaVuSans-41"/>
    </defs>
    <g style="fill:#ffffff;" transform="translate(53.394765 183.679167)scale(0.133333 -0.133333)">
     <use xlink:href="#DejaVuSans-69"/>
     <use x="63.183594" xlink:href="#DejaVuSans-51"/>
     <use x="126.806641" xlink:href="#DejaVuSans-40"/>
     <use x="165.820312" xlink:href="#DejaVuSans-51"/>
     <use x="229.443359" xlink:href="#DejaVuSans-41"/>
    </g>
   </g>
   <g id="text_9">
    <!-- G2(5) -->
    <defs>
     <path d="M 59.515625 10.40625 
L 59.515625 29.984375 
L 43.40625 29.984375 
L 43.40625 38.09375 
L 69.28125 38.09375 
L 69.28125 6.78125 
Q 63.578125 2.734375 56.6875 0.65625 
Q 49.8125 -1.421875 42 -1.421875 
Q 24.90625 -1.421875 15.25 8.5625 
Q 5.609375 18.5625 5.609375 36.375 
Q 5.609375 54.25 15.25 64.234375 
Q 24.90625 74.21875 42 74.21875 
Q 49.125 74.21875 55.546875 72.453125 
Q 61.96875 70.703125 67.390625 67.28125 
L 67.390625 56.78125 
Q 61.921875 61.421875 55.765625 63.765625 
Q 49.609375 66.109375 42.828125 66.109375 
Q 29.4375 66.109375 22.71875 58.640625 
Q 16.015625 51.171875 16.015625 36.375 
Q 16.015625 21.625 22.71875 14.15625 
Q 29.4375 6.6875 42.828125 6.6875 
Q 48.046875 6.6875 52.140625 7.59375 
Q 56.25 8.5 59.515625 10.40625 
z
" id="DejaVuSans-71"/>
     <path d="M 10.796875 72.90625 
L 49.515625 72.90625 
L 49.515625 64.59375 
L 19.828125 64.59375 
L 19.828125 46.734375 
Q 21.96875 47.46875 24.109375 47.828125 
Q 26.265625 48.1875 28.421875 48.1875 
Q 40.625 48.1875 47.75 41.5 
Q 54.890625 34.8125 54.890625 23.390625 
Q 54.890625 11.625 47.5625 5.09375 
Q 40.234375 -1.421875 26.90625 -1.421875 
Q 22.3125 -1.421875 17.546875 -0.640625 
Q 12.796875 0.140625 7.71875 1.703125 
L 7.71875 11.625 
Q 12.109375 9.234375 16.796875 8.0625 
Q 21.484375 6.890625 26.703125 6.890625 
Q 35.15625 6.890625 40.078125 11.328125 
Q 45.015625 15.765625 45.015625 23.390625 
Q 45.015625 31 40.078125 35.4375 
Q 35.15625 39.890625 26.703125 39.890625 
Q 22.75 39.890625 18.8125 39.015625 
Q 14.890625 38.140625 10.796875 36.28125 
z
" id="DejaVuSans-53"/>
    </defs>
    <g style="fill:#ffffff;" transform="translate(226.924225 327.679167)scale(0.133333 -0.133333)">
     <use xlink:href="#DejaVuSans-71"/>
     <use x="77.490234" xlink:href="#DejaVuSans-50"/>
     <use x="141.113281" xlink:href="#DejaVuSans-40"/>
     <use x="180.126953" xlink:href="#DejaVuSans-53"/>
     <use x="243.75" xlink:href="#DejaVuSans-41"/>
    </g>
   </g>
   <g id="text_10">
    <!-- C3(R) -->
    <defs>
     <path d="M 64.40625 67.28125 
L 64.40625 56.890625 
Q 59.421875 61.53125 53.78125 63.8125 
Q 48.140625 66.109375 41.796875 66.109375 
Q 29.296875 66.109375 22.65625 58.46875 
Q 16.015625 50.828125 16.015625 36.375 
Q 16.015625 21.96875 22.65625 14.328125 
Q 29.296875 6.6875 41.796875 6.6875 
Q 48.140625 6.6875 53.78125 8.984375 
Q 59.421875 11.28125 64.40625 15.921875 
L 64.40625 5.609375 
Q 59.234375 2.09375 53.4375 0.328125 
Q 47.65625 -1.421875 41.21875 -1.421875 
Q 24.65625 -1.421875 15.125 8.703125 
Q 5.609375 18.84375 5.609375 36.375 
Q 5.609375 53.953125 15.125 64.078125 
Q 24.65625 74.21875 41.21875 74.21875 
Q 47.75 74.21875 53.53125 72.484375 
Q 59.328125 70.75 64.40625 67.28125 
z
" id="DejaVuSans-67"/>
     <path d="M 44.390625 34.1875 
Q 47.5625 33.109375 50.5625 29.59375 
Q 53.5625 26.078125 56.59375 19.921875 
L 66.609375 0 
L 56 0 
L 46.6875 18.703125 
Q 43.0625 26.03125 39.671875 28.421875 
Q 36.28125 30.8125 30.421875 30.8125 
L 19.671875 30.8125 
L 19.671875 0 
L 9.8125 0 
L 9.8125 72.90625 
L 32.078125 72.90625 
Q 44.578125 72.90625 50.734375 67.671875 
Q 56.890625 62.453125 56.890625 51.90625 
Q 56.890625 45.015625 53.6875 40.46875 
Q 50.484375 35.9375 44.390625 34.1875 
z
M 19.671875 64.796875 
L 19.671875 38.921875 
L 32.078125 38.921875 
Q 39.203125 38.921875 42.84375 42.21875 
Q 46.484375 45.515625 46.484375 51.90625 
Q 46.484375 58.296875 42.84375 61.546875 
Q 39.203125 64.796875 32.078125 64.796875 
z
" id="DejaVuSans-82"/>
    </defs>
    <g style="fill:#ffffff;" transform="translate(227.044016 255.679167)scale(0.133333 -0.133333)">
     <use xlink:href="#DejaVuSans-67"/>
     <use x="69.824219" xlink:href="#DejaVuSans-51"/>
     <use x="133.447266" xlink:href="#DejaVuSans-40"/>
     <use x="172.460938" xlink:href="#DejaVuSans-82"/>
     <use x="241.943359" xlink:href="#DejaVuSans-41"/>
    </g>
   </g>
   <g id="text_11">
    <!-- E2(3) -->
    <g style="fill:#ffffff;" transform="translate(548.013289 399.679167)scale(0.133333 -0.133333)">
     <use xlink:href="#DejaVuSans-69"/>
     <use x="63.183594" xlink:href="#DejaVuSans-50"/>
     <use x="126.806641" xlink:href="#DejaVuSans-40"/>
     <use x="165.820312" xlink:href="#DejaVuSans-51"/>
     <use x="229.443359" xlink:href="#DejaVuSans-41"/>
    </g>
   </g>
   <g id="text_12">
    <!-- G3(5) -->
    <g style="fill:#ffffff;" transform="translate(547.060164 183.679167)scale(0.133333 -0.133333)">
     <use xlink:href="#DejaVuSans-71"/>
     <use x="77.490234" xlink:href="#DejaVuSans-51"/>
     <use x="141.113281" xlink:href="#DejaVuSans-40"/>
     <use x="180.126953" xlink:href="#DejaVuSans-53"/>
     <use x="243.75" xlink:href="#DejaVuSans-41"/>
    </g>
   </g>
   <g id="text_13">
    <!-- E4(3) -->
    <g style="fill:#ffffff;" transform="translate(548.013289 39.679167)scale(0.133333 -0.133333)">
     <use xlink:href="#DejaVuSans-69"/>
     <use x="63.183594" xlink:href="#DejaVuSans-52"/>
     <use x="126.806641" xlink:href="#DejaVuSans-40"/>
     <use x="165.820312" xlink:href="#DejaVuSans-51"/>
     <use x="229.443359" xlink:href="#DejaVuSans-41"/>
    </g>
   </g>
   <g id="text_14">
    <!-- C4(R) -->
    <g style="fill:#ffffff;" transform="translate(693.901736 111.679167)scale(0.133333 -0.133333)">
     <use xlink:href="#DejaVuSans-67"/>
     <use x="69.824219" xlink:href="#DejaVuSans-52"/>
     <use x="133.447266" xlink:href="#DejaVuSans-40"/>
     <use x="172.460938" xlink:href="#DejaVuSans-82"/>
     <use x="241.943359" xlink:href="#DejaVuSans-41"/>
    </g>
   </g>
   <g id="text_15">
    <!-- E3(3) -->
    <g style="fill:#ffffff;" transform="translate(833.221988 255.679167)scale(0.133333 -0.133333)">
     <use xlink:href="#DejaVuSans-69"/>
     <use x="63.183594" xlink:href="#DejaVuSans-51"/>
     <use x="126.806641" xlink:href="#DejaVuSans-40"/>
     <use x="165.820312" xlink:href="#DejaVuSans-51"/>
     <use x="229.443359" xlink:href="#DejaVuSans-41"/>
    </g>
   </g>
   <g id="patch_19">
    <path d="M 106.585364 282 
C 114.541457 282 122.17276 278.839011 127.798568 273.213203 
C 133.424375 267.587396 136.585364 259.956093 136.585364 252 
C 136.585364 244.043907 133.424375 236.412604 127.798568 230.786797 
C 122.17276 225.160989 114.541457 222 106.585364 222 
C 98.629271 222 90.997968 225.160989 85.372161 230.786797 
C 79.746353 236.412604 76.585364 244.043907 76.585364 252 
C 76.585364 259.956093 79.746353 267.587396 85.372161 273.213203 
C 90.997968 278.839011 98.629271 282 106.585364 282 
z
" style="fill:#d9944c;stroke:#d9944c;stroke-linejoin:miter;"/>
   </g>
   <g id="patch_20">
    <path d="M 279.087122 426 
C 287.043215 426 294.674518 422.839011 300.300326 417.213203 
C 305.926133 411.587396 309.087122 403.956093 309.087122 396 
C 309.087122 388.043907 305.926133 380.412604 300.300326 374.786797 
C 294.674518 369.160989 287.043215 366 279.087122 366 
C 271.131029 366 263.499726 369.160989 257.873919 374.786797 
C 252.248112 380.412604 249.087122 388.043907 249.087122 396 
C 249.087122 403.956093 252.248112 411.587396 257.873919 417.213203 
C 263.499726 422.839011 271.131029 426 279.087122 426 
z
" style="fill:#d9944c;stroke:#d9944c;stroke-linejoin:miter;"/>
   </g>
   <g id="patch_21">
    <path d="M 279.087122 354 
C 287.043215 354 294.674518 350.839011 300.300326 345.213203 
C 305.926133 339.587396 309.087122 331.956093 309.087122 324 
C 309.087122 316.043907 305.926133 308.412604 300.300326 302.786797 
C 294.674518 297.160989 287.043215 294 279.087122 294 
C 271.131029 294 263.499726 297.160989 257.873919 302.786797 
C 252.248112 308.412604 249.087122 316.043907 249.087122 324 
C 249.087122 331.956093 252.248112 339.587396 257.873919 345.213203 
C 263.499726 350.839011 271.131029 354 279.087122 354 
z
" style="fill:#d9944c;stroke:#d9944c;stroke-linejoin:miter;"/>
   </g>
   <g id="patch_22">
    <path d="M 279.087122 66 
C 287.043215 66 294.674518 62.839011 300.300326 57.213203 
C 305.926133 51.587396 309.087122 43.956093 309.087122 36 
C 309.087122 28.043907 305.926133 20.412604 300.300326 14.786797 
C 294.674518 9.160989 287.043215 6 279.087122 6 
C 271.131029 6 263.499726 9.160989 257.873919 14.786797 
C 252.248112 20.412604 249.087122 28.043907 249.087122 36 
C 249.087122 43.956093 252.248112 51.587396 257.873919 57.213203 
C 263.499726 62.839011 271.131029 66 279.087122 66 
z
" style="fill:#d9944c;stroke:#d9944c;stroke-linejoin:miter;"/>
   </g>
   <g id="patch_23">
    <path d="M 595.588696 282 
C 603.544789 282 611.176092 278.839011 616.801899 273.213203 
C 622.427707 267.587396 625.588696 259.956093 625.588696 252 
C 625.588696 244.043907 622.427707 236.412604 616.801899 230.786797 
C 611.176092 225.160989 603.544789 222 595.588696 222 
C 587.632603 222 580.0013 225.160989 574.375493 230.786797 
C 568.749685 236.412604 565.588696 244.043907 565.588696 252 
C 565.588696 259.956093 568.749685 267.587396 574.375493 273.213203 
C 580.0013 278.839011 587.632603 282 595.588696 282 
z
" style="fill:#d9944c;stroke:#d9944c;stroke-linejoin:miter;"/>
   </g>
   <g id="patch_24">
    <path d="M 595.588696 210 
C 603.544789 210 611.176092 206.839011 616.801899 201.213203 
C 622.427707 195.587396 625.588696 187.956093 625.588696 180 
C 625.588696 172.043907 622.427707 164.412604 616.801899 158.786797 
C 611.176092 153.160989 603.544789 150 595.588696 150 
C 587.632603 150 580.0013 153.160989 574.375493 158.786797 
C 568.749685 164.412604 565.588696 172.043907 565.588696 180 
C 565.588696 187.956093 568.749685 195.587396 574.375493 201.213203 
C 580.0013 206.839011 587.632603 210 595.588696 210 
z
" style="fill:#d9944c;stroke:#d9944c;stroke-linejoin:miter;"/>
   </g>
   <g id="patch_25">
    <path d="M 595.588696 138 
C 603.544789 138 611.176092 134.839011 616.801899 129.213203 
C 622.427707 123.587396 625.588696 115.956093 625.588696 108 
C 625.588696 100.043907 622.427707 92.412604 616.801899 86.786797 
C 611.176092 81.160989 603.544789 78 595.588696 78 
C 587.632603 78 580.0013 81.160989 574.375493 86.786797 
C 568.749685 92.412604 565.588696 100.043907 565.588696 108 
C 565.588696 115.956093 568.749685 123.587396 574.375493 129.213203 
C 580.0013 134.839011 587.632603 138 595.588696 138 
z
" style="fill:#d9944c;stroke:#d9944c;stroke-linejoin:miter;"/>
   </g>
   <g id="patch_26">
    <path d="M 877.559542 354 
C 885.515635 354 893.146938 350.839011 898.772746 345.213203 
C 904.398553 339.587396 907.559542 331.956093 907.559542 324 
C 907.559542 316.043907 904.398553 308.412604 898.772746 302.786797 
C 893.146938 297.160989 885.515635 294 877.559542 294 
C 869.603449 294 861.972146 297.160989 856.346339 302.786797 
C 850.720531 308.412604 847.559542 316.043907 847.559542 324 
C 847.559542 331.956093 850.720531 339.587396 856.346339 345.213203 
C 861.972146 350.839011 869.603449 354 877.559542 354 
z
" style="fill:#d9944c;stroke:#d9944c;stroke-linejoin:miter;"/>
   </g>
   <g id="text_16">
    <!-- B2(3) -->
    <defs>
     <path d="M 19.671875 34.8125 
L 19.671875 8.109375 
L 35.5 8.109375 
Q 43.453125 8.109375 47.28125 11.40625 
Q 51.125 14.703125 51.125 21.484375 
Q 51.125 28.328125 47.28125 31.5625 
Q 43.453125 34.8125 35.5 34.8125 
z
M 19.671875 64.796875 
L 19.671875 42.828125 
L 34.28125 42.828125 
Q 41.5 42.828125 45.03125 45.53125 
Q 48.578125 48.25 48.578125 53.8125 
Q 48.578125 59.328125 45.03125 62.0625 
Q 41.5 64.796875 34.28125 64.796875 
z
M 9.8125 72.90625 
L 35.015625 72.90625 
Q 46.296875 72.90625 52.390625 68.21875 
Q 58.5 63.53125 58.5 54.890625 
Q 58.5 48.1875 55.375 44.234375 
Q 52.25 40.28125 46.1875 39.3125 
Q 53.46875 37.75 57.5 32.78125 
Q 61.53125 27.828125 61.53125 20.40625 
Q 61.53125 10.640625 54.890625 5.3125 
Q 48.25 0 35.984375 0 
L 9.8125 0 
z
" id="DejaVuSans-66"/>
    </defs>
    <g style="fill:#ffffff;" transform="translate(88.325989 255.679167)scale(0.133333 -0.133333)">
     <use xlink:href="#DejaVuSans-66"/>
     <use x="68.603516" xlink:href="#DejaVuSans-50"/>
     <use x="132.226562" xlink:href="#DejaVuSans-40"/>
     <use x="171.240234" xlink:href="#DejaVuSans-51"/>
     <use x="234.863281" xlink:href="#DejaVuSans-41"/>
    </g>
   </g>
   <g id="text_17">
    <!-- D2(5) -->
    <defs>
     <path d="M 19.671875 64.796875 
L 19.671875 8.109375 
L 31.59375 8.109375 
Q 46.6875 8.109375 53.6875 14.9375 
Q 60.6875 21.78125 60.6875 36.53125 
Q 60.6875 51.171875 53.6875 57.984375 
Q 46.6875 64.796875 31.59375 64.796875 
z
M 9.8125 72.90625 
L 30.078125 72.90625 
Q 51.265625 72.90625 61.171875 64.09375 
Q 71.09375 55.28125 71.09375 36.53125 
Q 71.09375 17.671875 61.125 8.828125 
Q 51.171875 0 30.078125 0 
L 9.8125 0 
z
" id="DejaVuSans-68"/>
    </defs>
    <g style="fill:#ffffff;" transform="translate(260.268372 399.679167)scale(0.133333 -0.133333)">
     <use xlink:href="#DejaVuSans-68"/>
     <use x="77.001953" xlink:href="#DejaVuSans-50"/>
     <use x="140.625" xlink:href="#DejaVuSans-40"/>
     <use x="179.638672" xlink:href="#DejaVuSans-53"/>
     <use x="243.261719" xlink:href="#DejaVuSans-41"/>
    </g>
   </g>
   <g id="text_18">
    <!-- G2(R) -->
    <g style="fill:#ffffff;" transform="translate(259.845456 327.679167)scale(0.133333 -0.133333)">
     <use xlink:href="#DejaVuSans-71"/>
     <use x="77.490234" xlink:href="#DejaVuSans-50"/>
     <use x="141.113281" xlink:href="#DejaVuSans-40"/>
     <use x="180.126953" xlink:href="#DejaVuSans-82"/>
     <use x="249.609375" xlink:href="#DejaVuSans-41"/>
    </g>
   </g>
   <g id="text_19">
    <!-- D4(5) -->
    <g style="fill:#ffffff;" transform="translate(260.268372 39.679167)scale(0.133333 -0.133333)">
     <use xlink:href="#DejaVuSans-68"/>
     <use x="77.001953" xlink:href="#DejaVuSans-52"/>
     <use x="140.625" xlink:href="#DejaVuSans-40"/>
     <use x="179.638672" xlink:href="#DejaVuSans-53"/>
     <use x="243.261719" xlink:href="#DejaVuSans-41"/>
    </g>
   </g>
   <g id="text_20">
    <!-- D3(5) -->
    <g style="fill:#ffffff;" transform="translate(576.769946 255.679167)scale(0.133333 -0.133333)">
     <use xlink:href="#DejaVuSans-68"/>
     <use x="77.001953" xlink:href="#DejaVuSans-51"/>
     <use x="140.625" xlink:href="#DejaVuSans-40"/>
     <use x="179.638672" xlink:href="#DejaVuSans-53"/>
     <use x="243.261719" xlink:href="#DejaVuSans-41"/>
    </g>
   </g>
   <g id="text_21">
    <!-- G3(R) -->
    <g style="fill:#ffffff;" transform="translate(576.347029 183.679167)scale(0.133333 -0.133333)">
     <use xlink:href="#DejaVuSans-71"/>
     <use x="77.490234" xlink:href="#DejaVuSans-51"/>
     <use x="141.113281" xlink:href="#DejaVuSans-40"/>
     <use x="180.126953" xlink:href="#DejaVuSans-82"/>
     <use x="249.609375" xlink:href="#DejaVuSans-41"/>
    </g>
   </g>
   <g id="text_22">
    <!-- B3(3) -->
    <g style="fill:#ffffff;" transform="translate(577.329321 111.679167)scale(0.133333 -0.133333)">
     <use xlink:href="#DejaVuSans-66"/>
     <use x="68.603516" xlink:href="#DejaVuSans-51"/>
     <use x="132.226562" xlink:href="#DejaVuSans-40"/>
     <use x="171.240234" xlink:href="#DejaVuSans-51"/>
     <use x="234.863281" xlink:href="#DejaVuSans-41"/>
    </g>
   </g>
   <g id="text_23">
    <!-- B2(3) -->
    <g style="fill:#ffffff;" transform="translate(859.300167 327.679167)scale(0.133333 -0.133333)">
     <use xlink:href="#DejaVuSans-66"/>
     <use x="68.603516" xlink:href="#DejaVuSans-50"/>
     <use x="132.226562" xlink:href="#DejaVuSans-40"/>
     <use x="171.240234" xlink:href="#DejaVuSans-51"/>
     <use x="234.863281" xlink:href="#DejaVuSans-41"/>
    </g>
   </g>
   <g id="patch_27">
    <path d="M 141.878046 426 
C 149.834139 426 157.465442 422.839011 163.09125 417.213203 
C 168.717057 411.587396 171.878046 403.956093 171.878046 396 
C 171.878046 388.043907 168.717057 380.412604 163.09125 374.786797 
C 157.465442 369.160989 149.834139 366 141.878046 366 
C 133.921953 366 126.29065 369.160989 120.664843 374.786797 
C 115.039035 380.412604 111.878046 388.043907 111.878046 396 
C 111.878046 403.956093 115.039035 411.587396 120.664843 417.213203 
C 126.29065 422.839011 133.921953 426 141.878046 426 
z
" style="fill:#d9d34c;stroke:#d9d34c;stroke-linejoin:miter;"/>
   </g>
   <g id="patch_28">
    <path d="M 141.878046 210 
C 149.834139 210 157.465442 206.839011 163.09125 201.213203 
C 168.717057 195.587396 171.878046 187.956093 171.878046 180 
C 171.878046 172.043907 168.717057 164.412604 163.09125 158.786797 
C 157.465442 153.160989 149.834139 150 141.878046 150 
C 133.921953 150 126.29065 153.160989 120.664843 158.786797 
C 115.039035 164.412604 111.878046 172.043907 111.878046 180 
C 111.878046 187.956093 115.039035 195.587396 120.664843 201.213203 
C 126.29065 206.839011 133.921953 210 141.878046 210 
z
" style="fill:#d9d34c;stroke:#d9d34c;stroke-linejoin:miter;"/>
   </g>
   <g id="patch_29">
    <path d="M 141.878046 66 
C 149.834139 66 157.465442 62.839011 163.09125 57.213203 
C 168.717057 51.587396 171.878046 43.956093 171.878046 36 
C 171.878046 28.043907 168.717057 20.412604 163.09125 14.786797 
C 157.465442 9.160989 149.834139 6 141.878046 6 
C 133.921953 6 126.29065 9.160989 120.664843 14.786797 
C 115.039035 20.412604 111.878046 28.043907 111.878046 36 
C 111.878046 43.956093 115.039035 51.587396 120.664843 57.213203 
C 126.29065 62.839011 133.921953 66 141.878046 66 
z
" style="fill:#d9d34c;stroke:#d9d34c;stroke-linejoin:miter;"/>
   </g>
   <g id="patch_30">
    <path d="M 473.349306 282 
C 481.305399 282 488.936702 278.839011 494.562509 273.213203 
C 500.188317 267.587396 503.349306 259.956093 503.349306 252 
C 503.349306 244.043907 500.188317 236.412604 494.562509 230.786797 
C 488.936702 225.160989 481.305399 222 473.349306 222 
C 465.393213 222 457.76191 225.160989 452.136102 230.786797 
C 446.510295 236.412604 443.349306 244.043907 443.349306 252 
C 443.349306 259.956093 446.510295 267.587396 452.136102 273.213203 
C 457.76191 278.839011 465.393213 282 473.349306 282 
z
" style="fill:#d9d34c;stroke:#d9d34c;stroke-linejoin:miter;"/>
   </g>
   <g id="patch_31">
    <path d="M 473.349306 138 
C 481.305399 138 488.936702 134.839011 494.562509 129.213203 
C 500.188317 123.587396 503.349306 115.956093 503.349306 108 
C 503.349306 100.043907 500.188317 92.412604 494.562509 86.786797 
C 488.936702 81.160989 481.305399 78 473.349306 78 
C 465.393213 78 457.76191 81.160989 452.136102 86.786797 
C 446.510295 92.412604 443.349306 100.043907 443.349306 108 
C 443.349306 115.956093 446.510295 123.587396 452.136102 129.213203 
C 457.76191 134.839011 465.393213 138 473.349306 138 
z
" style="fill:#d9d34c;stroke:#d9d34c;stroke-linejoin:miter;"/>
   </g>
   <g id="patch_32">
    <path d="M 625.266186 426 
C 633.222279 426 640.853582 422.839011 646.479389 417.213203 
C 652.105197 411.587396 655.266186 403.956093 655.266186 396 
C 655.266186 388.043907 652.105197 380.412604 646.479389 374.786797 
C 640.853582 369.160989 633.222279 366 625.266186 366 
C 617.310093 366 609.67879 369.160989 604.052982 374.786797 
C 598.427175 380.412604 595.266186 388.043907 595.266186 396 
C 595.266186 403.956093 598.427175 411.587396 604.052982 417.213203 
C 609.67879 422.839011 617.310093 426 625.266186 426 
z
" style="fill:#d9d34c;stroke:#d9d34c;stroke-linejoin:miter;"/>
   </g>
   <g id="patch_33">
    <path d="M 625.266186 66 
C 633.222279 66 640.853582 62.839011 646.479389 57.213203 
C 652.105197 51.587396 655.266186 43.956093 655.266186 36 
C 655.266186 28.043907 652.105197 20.412604 646.479389 14.786797 
C 640.853582 9.160989 633.222279 6 625.266186 6 
C 617.310093 6 609.67879 9.160989 604.052982 14.786797 
C 598.427175 20.412604 595.266186 28.043907 595.266186 36 
C 595.266186 43.956093 598.427175 51.587396 604.052982 57.213203 
C 609.67879 62.839011 617.310093 66 625.266186 66 
z
" style="fill:#d9d34c;stroke:#d9d34c;stroke-linejoin:miter;"/>
   </g>
   <g id="patch_34">
    <path d="M 768.656626 354 
C 776.612719 354 784.244022 350.839011 789.86983 345.213203 
C 795.495637 339.587396 798.656626 331.956093 798.656626 324 
C 798.656626 316.043907 795.495637 308.412604 789.86983 302.786797 
C 784.244022 297.160989 776.612719 294 768.656626 294 
C 760.700533 294 753.06923 297.160989 747.443423 302.786797 
C 741.817616 308.412604 738.656626 316.043907 738.656626 324 
C 738.656626 331.956093 741.817616 339.587396 747.443423 345.213203 
C 753.06923 350.839011 760.700533 354 768.656626 354 
z
" style="fill:#d9d34c;stroke:#d9d34c;stroke-linejoin:miter;"/>
   </g>
   <g id="patch_35">
    <path d="M 903.99918 282 
C 911.955273 282 919.586576 278.839011 925.212383 273.213203 
C 930.838191 267.587396 933.99918 259.956093 933.99918 252 
C 933.99918 244.043907 930.838191 236.412604 925.212383 230.786797 
C 919.586576 225.160989 911.955273 222 903.99918 222 
C 896.043087 222 888.411784 225.160989 882.785976 230.786797 
C 877.160169 236.412604 873.99918 244.043907 873.99918 252 
C 873.99918 259.956093 877.160169 267.587396 882.785976 273.213203 
C 888.411784 278.839011 896.043087 282 903.99918 282 
z
" style="fill:#d9d34c;stroke:#d9d34c;stroke-linejoin:miter;"/>
   </g>
   <g id="patch_36">
    <path d="M 903.99918 138 
C 911.955273 138 919.586576 134.839011 925.212383 129.213203 
C 930.838191 123.587396 933.99918 115.956093 933.99918 108 
C 933.99918 100.043907 930.838191 92.412604 925.212383 86.786797 
C 919.586576 81.160989 911.955273 78 903.99918 78 
C 896.043087 78 888.411784 81.160989 882.785976 86.786797 
C 877.160169 92.412604 873.99918 100.043907 873.99918 108 
C 873.99918 115.956093 877.160169 123.587396 882.785976 129.213203 
C 888.411784 134.839011 896.043087 138 903.99918 138 
z
" style="fill:#d9d34c;stroke:#d9d34c;stroke-linejoin:miter;"/>
   </g>
   <g id="text_24">
    <!-- C#2(3) -->
    <defs>
     <path d="M 51.125 44 
L 36.921875 44 
L 32.8125 27.6875 
L 47.125 27.6875 
z
M 43.796875 71.78125 
L 38.71875 51.515625 
L 52.984375 51.515625 
L 58.109375 71.78125 
L 65.921875 71.78125 
L 60.890625 51.515625 
L 76.125 51.515625 
L 76.125 44 
L 58.984375 44 
L 54.984375 27.6875 
L 70.515625 27.6875 
L 70.515625 20.21875 
L 53.078125 20.21875 
L 48 0 
L 40.1875 0 
L 45.21875 20.21875 
L 30.90625 20.21875 
L 25.875 0 
L 18.015625 0 
L 23.09375 20.21875 
L 7.71875 20.21875 
L 7.71875 27.6875 
L 24.90625 27.6875 
L 29 44 
L 13.28125 44 
L 13.28125 51.515625 
L 30.90625 51.515625 
L 35.890625 71.78125 
z
" id="DejaVuSans-35"/>
    </defs>
    <g style="fill:#ffffff;" transform="translate(117.950963 399.679167)scale(0.133333 -0.133333)">
     <use xlink:href="#DejaVuSans-67"/>
     <use x="69.824219" xlink:href="#DejaVuSans-35"/>
     <use x="153.613281" xlink:href="#DejaVuSans-50"/>
     <use x="217.236328" xlink:href="#DejaVuSans-40"/>
     <use x="256.25" xlink:href="#DejaVuSans-51"/>
     <use x="319.873047" xlink:href="#DejaVuSans-41"/>
    </g>
   </g>
   <g id="text_25">
    <!-- E3(5) -->
    <g style="fill:#ffffff;" transform="translate(123.980129 183.679167)scale(0.133333 -0.133333)">
     <use xlink:href="#DejaVuSans-69"/>
     <use x="63.183594" xlink:href="#DejaVuSans-51"/>
     <use x="126.806641" xlink:href="#DejaVuSans-40"/>
     <use x="165.820312" xlink:href="#DejaVuSans-53"/>
     <use x="229.443359" xlink:href="#DejaVuSans-41"/>
    </g>
   </g>
   <g id="text_26">
    <!-- C#4(3) -->
    <g style="fill:#ffffff;" transform="translate(117.950963 39.679167)scale(0.133333 -0.133333)">
     <use xlink:href="#DejaVuSans-67"/>
     <use x="69.824219" xlink:href="#DejaVuSans-35"/>
     <use x="153.613281" xlink:href="#DejaVuSans-52"/>
     <use x="217.236328" xlink:href="#DejaVuSans-40"/>
     <use x="256.25" xlink:href="#DejaVuSans-51"/>
     <use x="319.873047" xlink:href="#DejaVuSans-41"/>
    </g>
   </g>
   <g id="text_27">
    <!-- C#3(3) -->
    <g style="fill:#ffffff;" transform="translate(449.422223 255.679167)scale(0.133333 -0.133333)">
     <use xlink:href="#DejaVuSans-67"/>
     <use x="69.824219" xlink:href="#DejaVuSans-35"/>
     <use x="153.613281" xlink:href="#DejaVuSans-51"/>
     <use x="217.236328" xlink:href="#DejaVuSans-40"/>
     <use x="256.25" xlink:href="#DejaVuSans-51"/>
     <use x="319.873047" xlink:href="#DejaVuSans-41"/>
    </g>
   </g>
   <g id="text_28">
    <!-- A#3(R) -->
    <defs>
     <path d="M 34.1875 63.1875 
L 20.796875 26.90625 
L 47.609375 26.90625 
z
M 28.609375 72.90625 
L 39.796875 72.90625 
L 67.578125 0 
L 57.328125 0 
L 50.6875 18.703125 
L 17.828125 18.703125 
L 11.1875 0 
L 0.78125 0 
z
" id="DejaVuSans-65"/>
    </defs>
    <g style="fill:#ffffff;" transform="translate(449.126389 111.679167)scale(0.133333 -0.133333)">
     <use xlink:href="#DejaVuSans-65"/>
     <use x="68.408203" xlink:href="#DejaVuSans-35"/>
     <use x="152.197266" xlink:href="#DejaVuSans-51"/>
     <use x="215.820312" xlink:href="#DejaVuSans-40"/>
     <use x="254.833984" xlink:href="#DejaVuSans-82"/>
     <use x="324.316406" xlink:href="#DejaVuSans-41"/>
    </g>
   </g>
   <g id="text_29">
    <!-- E2(5) -->
    <g style="fill:#ffffff;" transform="translate(607.368269 399.679167)scale(0.133333 -0.133333)">
     <use xlink:href="#DejaVuSans-69"/>
     <use x="63.183594" xlink:href="#DejaVuSans-50"/>
     <use x="126.806641" xlink:href="#DejaVuSans-40"/>
     <use x="165.820312" xlink:href="#DejaVuSans-53"/>
     <use x="229.443359" xlink:href="#DejaVuSans-41"/>
    </g>
   </g>
   <g id="text_30">
    <!-- E4(5) -->
    <g style="fill:#ffffff;" transform="translate(607.368269 39.679167)scale(0.133333 -0.133333)">
     <use xlink:href="#DejaVuSans-69"/>
     <use x="63.183594" xlink:href="#DejaVuSans-52"/>
     <use x="126.806641" xlink:href="#DejaVuSans-40"/>
     <use x="165.820312" xlink:href="#DejaVuSans-53"/>
     <use x="229.443359" xlink:href="#DejaVuSans-41"/>
    </g>
   </g>
   <g id="text_31">
    <!-- A#2(R) -->
    <g style="fill:#ffffff;" transform="translate(744.43371 327.679167)scale(0.133333 -0.133333)">
     <use xlink:href="#DejaVuSans-65"/>
     <use x="68.408203" xlink:href="#DejaVuSans-35"/>
     <use x="152.197266" xlink:href="#DejaVuSans-50"/>
     <use x="215.820312" xlink:href="#DejaVuSans-40"/>
     <use x="254.833984" xlink:href="#DejaVuSans-82"/>
     <use x="324.316406" xlink:href="#DejaVuSans-41"/>
    </g>
   </g>
   <g id="text_32">
    <!-- E3(5) -->
    <g style="fill:#ffffff;" transform="translate(886.101263 255.679167)scale(0.133333 -0.133333)">
     <use xlink:href="#DejaVuSans-69"/>
     <use x="63.183594" xlink:href="#DejaVuSans-51"/>
     <use x="126.806641" xlink:href="#DejaVuSans-40"/>
     <use x="165.820312" xlink:href="#DejaVuSans-53"/>
     <use x="229.443359" xlink:href="#DejaVuSans-41"/>
    </g>
   </g>
   <g id="text_33">
    <!-- C#4(3) -->
    <g style="fill:#ffffff;" transform="translate(880.072097 111.679167)scale(0.133333 -0.133333)">
     <use xlink:href="#DejaVuSans-67"/>
     <use x="69.824219" xlink:href="#DejaVuSans-35"/>
     <use x="153.613281" xlink:href="#DejaVuSans-52"/>
     <use x="217.236328" xlink:href="#DejaVuSans-40"/>
     <use x="256.25" xlink:href="#DejaVuSans-51"/>
     <use x="319.873047" xlink:href="#DejaVuSans-41"/>
    </g>
   </g>
   <g id="patch_37">
    <path d="M 177.170728 354 
C 185.126821 354 192.758124 350.839011 198.383932 345.213203 
C 204.009739 339.587396 207.170728 331.956093 207.170728 324 
C 207.170728 316.043907 204.009739 308.412604 198.383932 302.786797 
C 192.758124 297.160989 185.126821 294 177.170728 294 
C 169.214635 294 161.583332 297.160989 155.957525 302.786797 
C 150.331717 308.412604 147.170728 316.043907 147.170728 324 
C 147.170728 331.956093 150.331717 339.587396 155.957525 345.213203 
C 161.583332 350.839011 169.214635 354 177.170728 354 
z
" style="fill:#9fd94c;stroke:#9fd94c;stroke-linejoin:miter;"/>
   </g>
   <g id="patch_38">
    <path d="M 177.170728 282 
C 185.126821 282 192.758124 278.839011 198.383932 273.213203 
C 204.009739 267.587396 207.170728 259.956093 207.170728 252 
C 207.170728 244.043907 204.009739 236.412604 198.383932 230.786797 
C 192.758124 225.160989 185.126821 222 177.170728 222 
C 169.214635 222 161.583332 225.160989 155.957525 230.786797 
C 150.331717 236.412604 147.170728 244.043907 147.170728 252 
C 147.170728 259.956093 150.331717 267.587396 155.957525 273.213203 
C 161.583332 278.839011 169.214635 282 177.170728 282 
z
" style="fill:#9fd94c;stroke:#9fd94c;stroke-linejoin:miter;"/>
   </g>
   <g id="patch_39">
    <path d="M 504.791511 426 
C 512.747604 426 520.378907 422.839011 526.004715 417.213203 
C 531.630522 411.587396 534.791511 403.956093 534.791511 396 
C 534.791511 388.043907 531.630522 380.412604 526.004715 374.786797 
C 520.378907 369.160989 512.747604 366 504.791511 366 
C 496.835418 366 489.204115 369.160989 483.578308 374.786797 
C 477.9525 380.412604 474.791511 388.043907 474.791511 396 
C 474.791511 403.956093 477.9525 411.587396 483.578308 417.213203 
C 489.204115 422.839011 496.835418 426 504.791511 426 
z
" style="fill:#9fd94c;stroke:#9fd94c;stroke-linejoin:miter;"/>
   </g>
   <g id="patch_40">
    <path d="M 504.791511 210 
C 512.747604 210 520.378907 206.839011 526.004715 201.213203 
C 531.630522 195.587396 534.791511 187.956093 534.791511 180 
C 534.791511 172.043907 531.630522 164.412604 526.004715 158.786797 
C 520.378907 153.160989 512.747604 150 504.791511 150 
C 496.835418 150 489.204115 153.160989 483.578308 158.786797 
C 477.9525 164.412604 474.791511 172.043907 474.791511 180 
C 474.791511 187.956093 477.9525 195.587396 483.578308 201.213203 
C 489.204115 206.839011 496.835418 210 504.791511 210 
z
" style="fill:#9fd94c;stroke:#9fd94c;stroke-linejoin:miter;"/>
   </g>
   <g id="patch_41">
    <path d="M 504.791511 66 
C 512.747604 66 520.378907 62.839011 526.004715 57.213203 
C 531.630522 51.587396 534.791511 43.956093 534.791511 36 
C 534.791511 28.043907 531.630522 20.412604 526.004715 14.786797 
C 520.378907 9.160989 512.747604 6 504.791511 6 
C 496.835418 6 489.204115 9.160989 483.578308 14.786797 
C 477.9525 20.412604 474.791511 28.043907 474.791511 36 
C 474.791511 43.956093 477.9525 51.587396 483.578308 57.213203 
C 489.204115 62.839011 496.835418 66 504.791511 66 
z
" style="fill:#9fd94c;stroke:#9fd94c;stroke-linejoin:miter;"/>
   </g>
   <g id="patch_42">
    <path d="M 654.943676 138 
C 662.899769 138 670.531072 134.839011 676.156879 129.213203 
C 681.782686 123.587396 684.943676 115.956093 684.943676 108 
C 684.943676 100.043907 681.782686 92.412604 676.156879 86.786797 
C 670.531072 81.160989 662.899769 78 654.943676 78 
C 646.987583 78 639.356279 81.160989 633.730472 86.786797 
C 628.104665 92.412604 624.943676 100.043907 624.943676 108 
C 624.943676 115.956093 628.104665 123.587396 633.730472 129.213203 
C 639.356279 134.839011 646.987583 138 654.943676 138 
z
" style="fill:#9fd94c;stroke:#9fd94c;stroke-linejoin:miter;"/>
   </g>
   <g id="patch_43">
    <path d="M 796.668447 282 
C 804.62454 282 812.255843 278.839011 817.88165 273.213203 
C 823.507457 267.587396 826.668447 259.956093 826.668447 252 
C 826.668447 244.043907 823.507457 236.412604 817.88165 230.786797 
C 812.255843 225.160989 804.62454 222 796.668447 222 
C 788.712354 222 781.081051 225.160989 775.455243 230.786797 
C 769.829436 236.412604 766.668447 244.043907 766.668447 252 
C 766.668447 259.956093 769.829436 267.587396 775.455243 273.213203 
C 781.081051 278.839011 788.712354 282 796.668447 282 
z
" style="fill:#9fd94c;stroke:#9fd94c;stroke-linejoin:miter;"/>
   </g>
   <g id="patch_44">
    <path d="M 930.438818 426 
C 938.394911 426 946.026214 422.839011 951.652021 417.213203 
C 957.277828 411.587396 960.438818 403.956093 960.438818 396 
C 960.438818 388.043907 957.277828 380.412604 951.652021 374.786797 
C 946.026214 369.160989 938.394911 366 930.438818 366 
C 922.482725 366 914.851421 369.160989 909.225614 374.786797 
C 903.599807 380.412604 900.438818 388.043907 900.438818 396 
C 900.438818 403.956093 903.599807 411.587396 909.225614 417.213203 
C 914.851421 422.839011 922.482725 426 930.438818 426 
z
" style="fill:#9fd94c;stroke:#9fd94c;stroke-linejoin:miter;"/>
   </g>
   <g id="patch_45">
    <path d="M 930.438818 354 
C 938.394911 354 946.026214 350.839011 951.652021 345.213203 
C 957.277828 339.587396 960.438818 331.956093 960.438818 324 
C 960.438818 316.043907 957.277828 308.412604 951.652021 302.786797 
C 946.026214 297.160989 938.394911 294 930.438818 294 
C 922.482725 294 914.851421 297.160989 909.225614 302.786797 
C 903.599807 308.412604 900.438818 316.043907 900.438818 324 
C 900.438818 331.956093 903.599807 339.587396 909.225614 345.213203 
C 914.851421 350.839011 922.482725 354 930.438818 354 
z
" style="fill:#9fd94c;stroke:#9fd94c;stroke-linejoin:miter;"/>
   </g>
   <g id="patch_46">
    <path d="M 930.438818 66 
C 938.394911 66 946.026214 62.839011 951.652021 57.213203 
C 957.277828 51.587396 960.438818 43.956093 960.438818 36 
C 960.438818 28.043907 957.277828 20.412604 951.652021 14.786797 
C 946.026214 9.160989 938.394911 6 930.438818 6 
C 922.482725 6 914.851421 9.160989 909.225614 14.786797 
C 903.599807 20.412604 900.438818 28.043907 900.438818 36 
C 900.438818 43.956093 903.599807 51.587396 909.225614 57.213203 
C 914.851421 62.839011 922.482725 66 930.438818 66 
z
" style="fill:#9fd94c;stroke:#9fd94c;stroke-linejoin:miter;"/>
   </g>
   <g id="text_34">
    <!-- F#2(5) -->
    <defs>
     <path d="M 9.8125 72.90625 
L 51.703125 72.90625 
L 51.703125 64.59375 
L 19.671875 64.59375 
L 19.671875 43.109375 
L 48.578125 43.109375 
L 48.578125 34.8125 
L 19.671875 34.8125 
L 19.671875 0 
L 9.8125 0 
z
" id="DejaVuSans-70"/>
    </defs>
    <g style="fill:#ffffff;" transform="translate(154.064478 327.679167)scale(0.133333 -0.133333)">
     <use xlink:href="#DejaVuSans-70"/>
     <use x="57.519531" xlink:href="#DejaVuSans-35"/>
     <use x="141.308594" xlink:href="#DejaVuSans-50"/>
     <use x="204.931641" xlink:href="#DejaVuSans-40"/>
     <use x="243.945312" xlink:href="#DejaVuSans-53"/>
     <use x="307.568359" xlink:href="#DejaVuSans-41"/>
    </g>
   </g>
   <g id="text_35">
    <!-- B2(R) -->
    <g style="fill:#ffffff;" transform="translate(158.520728 255.679167)scale(0.133333 -0.133333)">
     <use xlink:href="#DejaVuSans-66"/>
     <use x="68.603516" xlink:href="#DejaVuSans-50"/>
     <use x="132.226562" xlink:href="#DejaVuSans-40"/>
     <use x="171.240234" xlink:href="#DejaVuSans-82"/>
     <use x="240.722656" xlink:href="#DejaVuSans-41"/>
    </g>
   </g>
   <g id="text_36">
    <!-- D#2(3) -->
    <g style="fill:#ffffff;" transform="translate(480.386303 399.679167)scale(0.133333 -0.133333)">
     <use xlink:href="#DejaVuSans-68"/>
     <use x="77.001953" xlink:href="#DejaVuSans-35"/>
     <use x="160.791016" xlink:href="#DejaVuSans-50"/>
     <use x="224.414062" xlink:href="#DejaVuSans-40"/>
     <use x="263.427734" xlink:href="#DejaVuSans-51"/>
     <use x="327.050781" xlink:href="#DejaVuSans-41"/>
    </g>
   </g>
   <g id="text_37">
    <!-- F#3(5) -->
    <g style="fill:#ffffff;" transform="translate(481.685261 183.679167)scale(0.133333 -0.133333)">
     <use xlink:href="#DejaVuSans-70"/>
     <use x="57.519531" xlink:href="#DejaVuSans-35"/>
     <use x="141.308594" xlink:href="#DejaVuSans-51"/>
     <use x="204.931641" xlink:href="#DejaVuSans-40"/>
     <use x="243.945312" xlink:href="#DejaVuSans-53"/>
     <use x="307.568359" xlink:href="#DejaVuSans-41"/>
    </g>
   </g>
   <g id="text_38">
    <!-- D#4(3) -->
    <g style="fill:#ffffff;" transform="translate(480.386303 39.679167)scale(0.133333 -0.133333)">
     <use xlink:href="#DejaVuSans-68"/>
     <use x="77.001953" xlink:href="#DejaVuSans-35"/>
     <use x="160.791016" xlink:href="#DejaVuSans-52"/>
     <use x="224.414062" xlink:href="#DejaVuSans-40"/>
     <use x="263.427734" xlink:href="#DejaVuSans-51"/>
     <use x="327.050781" xlink:href="#DejaVuSans-41"/>
    </g>
   </g>
   <g id="text_39">
    <!-- B3(R) -->
    <g style="fill:#ffffff;" transform="translate(636.293676 111.679167)scale(0.133333 -0.133333)">
     <use xlink:href="#DejaVuSans-66"/>
     <use x="68.603516" xlink:href="#DejaVuSans-51"/>
     <use x="132.226562" xlink:href="#DejaVuSans-40"/>
     <use x="171.240234" xlink:href="#DejaVuSans-82"/>
     <use x="240.722656" xlink:href="#DejaVuSans-41"/>
    </g>
   </g>
   <g id="text_40">
    <!-- D#3(3) -->
    <g style="fill:#ffffff;" transform="translate(772.263238 255.679167)scale(0.133333 -0.133333)">
     <use xlink:href="#DejaVuSans-68"/>
     <use x="77.001953" xlink:href="#DejaVuSans-35"/>
     <use x="160.791016" xlink:href="#DejaVuSans-51"/>
     <use x="224.414062" xlink:href="#DejaVuSans-40"/>
     <use x="263.427734" xlink:href="#DejaVuSans-51"/>
     <use x="327.050781" xlink:href="#DejaVuSans-41"/>
    </g>
   </g>
   <g id="text_41">
    <!-- F#2(5) -->
    <g style="fill:#ffffff;" transform="translate(907.332568 399.679167)scale(0.133333 -0.133333)">
     <use xlink:href="#DejaVuSans-70"/>
     <use x="57.519531" xlink:href="#DejaVuSans-35"/>
     <use x="141.308594" xlink:href="#DejaVuSans-50"/>
     <use x="204.931641" xlink:href="#DejaVuSans-40"/>
     <use x="243.945312" xlink:href="#DejaVuSans-53"/>
     <use x="307.568359" xlink:href="#DejaVuSans-41"/>
    </g>
   </g>
   <g id="text_42">
    <!-- B2(R) -->
    <g style="fill:#ffffff;" transform="translate(911.788818 327.679167)scale(0.133333 -0.133333)">
     <use xlink:href="#DejaVuSans-66"/>
     <use x="68.603516" xlink:href="#DejaVuSans-50"/>
     <use x="132.226562" xlink:href="#DejaVuSans-40"/>
     <use x="171.240234" xlink:href="#DejaVuSans-82"/>
     <use x="240.722656" xlink:href="#DejaVuSans-41"/>
    </g>
   </g>
   <g id="text_43">
    <!-- F#4(5) -->
    <g style="fill:#ffffff;" transform="translate(907.332568 39.679167)scale(0.133333 -0.133333)">
     <use xlink:href="#DejaVuSans-70"/>
     <use x="57.519531" xlink:href="#DejaVuSans-35"/>
     <use x="141.308594" xlink:href="#DejaVuSans-52"/>
     <use x="204.931641" xlink:href="#DejaVuSans-40"/>
     <use x="243.945312" xlink:href="#DejaVuSans-53"/>
     <use x="307.568359" xlink:href="#DejaVuSans-41"/>
    </g>
   </g>
  </g>
 </g>
 <defs>
  <clipPath id="pdb4997f8e5">
   <rect height="432" width="920.878455" x="36" y="0"/>
  </clipPath>
 </defs>
</svg>
