<?xml version="1.0" encoding="utf-8" standalone="no"?>
<!DOCTYPE svg PUBLIC "-//W3C//DTD SVG 1.1//EN"
  "http://www.w3.org/Graphics/SVG/1.1/DTD/svg11.dtd">
<!-- Created with matplotlib (https://matplotlib.org/) -->
<svg height="432pt" version="1.1" viewBox="0 0 1395.951885 432" width="1395.951885pt" xmlns="http://www.w3.org/2000/svg" xmlns:xlink="http://www.w3.org/1999/xlink">
 <defs>
  <style type="text/css">
*{stroke-linecap:butt;stroke-linejoin:round;}
  </style>
 </defs>
 <g id="figure_1">
  <g id="patch_1">
   <path d="M 0 432 
L 1395.951885 432 
L 1395.951885 0 
L 0 0 
z
" style="fill:#ffffff;"/>
  </g>
  <g id="axes_1">
   <g id="patch_2">
    <path clip-path="url(#p08aed198a1)" d="M 777.293053 216 
L 902.071528 216 
L 902.071528 36 
L 777.293053 36 
z
" style="fill:#cccccc;"/>
   </g>
   <g id="patch_3">
    <path clip-path="url(#p08aed198a1)" d="M 1248.786903 216 
L 1359.951885 216 
L 1359.951885 36 
L 1248.786903 36 
z
" style="fill:#cccccc;"/>
   </g>
   <g id="patch_4">
    <path clip-path="url(#p08aed198a1)" d="M 1668.840169 216 
L 1767.876909 216 
L 1767.876909 36 
L 1668.840169 36 
z
" style="fill:#cccccc;"/>
   </g>
   <g id="patch_5">
    <path clip-path="url(#p08aed198a1)" d="M 2043.065085 216 
L 2131.29679 216 
L 2131.29679 36 
L 2043.065085 36 
z
" style="fill:#cccccc;"/>
   </g>
   <g id="patch_6">
    <path clip-path="url(#p08aed198a1)" d="M 2529.260821 396 
L 2603.454545 396 
L 2603.454545 36 
L 2529.260821 36 
z
" style="fill:#cccccc;"/>
   </g>
   <g id="patch_7">
    <path clip-path="url(#p08aed198a1)" d="M 2938.101072 216 
L 3000.490309 216 
L 3000.490309 36 
L 2938.101072 36 
z
" style="fill:#cccccc;"/>
   </g>
   <g id="patch_8">
    <path clip-path="url(#p08aed198a1)" d="M 3173.847997 216 
L 3229.430488 216 
L 3229.430488 36 
L 3173.847997 36 
z
" style="fill:#cccccc;"/>
   </g>
   <g id="patch_9">
    <path clip-path="url(#p08aed198a1)" d="M 3383.87463 216 
L 3433.393 216 
L 3433.393 36 
L 3383.87463 36 
z
" style="fill:#cccccc;"/>
   </g>
   <g id="patch_10">
    <path clip-path="url(#p08aed198a1)" d="M 3570.987088 216 
L 3615.102941 216 
L 3615.102941 36 
L 3570.987088 36 
z
" style="fill:#cccccc;"/>
   </g>
   <g id="line2d_1">
    <path clip-path="url(#p08aed198a1)" d="M 108 396 
L 108 36 
" style="fill:none;stroke:#000000;stroke-width:10;"/>
   </g>
   <g id="line2d_2">
    <path clip-path="url(#p08aed198a1)" style="fill:none;stroke:#000000;stroke-width:5;"/>
   </g>
   <g id="line2d_3">
    <path clip-path="url(#p08aed198a1)" d="M 36 396 
L 36 36 
" style="fill:none;stroke:#000000;stroke-width:3;"/>
   </g>
   <g id="line2d_4">
    <path clip-path="url(#p08aed198a1)" d="M 108 396 
L 108 36 
" style="fill:none;stroke:#000000;stroke-width:3;"/>
   </g>
   <g id="line2d_5">
    <path clip-path="url(#p08aed198a1)" d="M 388.118203 396 
L 388.118203 36 
" style="fill:none;stroke:#000000;stroke-width:3;"/>
   </g>
   <g id="line2d_6">
    <path clip-path="url(#p08aed198a1)" d="M 652.514579 396 
L 652.514579 36 
" style="fill:none;stroke:#000000;stroke-width:3;"/>
   </g>
   <g id="line2d_7">
    <path clip-path="url(#p08aed198a1)" d="M 902.071528 396 
L 902.071528 36 
" style="fill:none;stroke:#000000;stroke-width:3;"/>
   </g>
   <g id="line2d_8">
    <path clip-path="url(#p08aed198a1)" d="M 1137.62192 396 
L 1137.62192 36 
" style="fill:none;stroke:#000000;stroke-width:3;"/>
   </g>
   <g id="line2d_9">
    <path clip-path="url(#p08aed198a1)" d="M 1359.951885 396 
L 1359.951885 36 
" style="fill:none;stroke:#000000;stroke-width:3;"/>
   </g>
   <g id="line2d_10">
    <path clip-path="url(#p08aed198a1)" d="M 36 396 
L 1396.951885 396 
" style="fill:none;stroke:#808080;stroke-linecap:square;stroke-width:3;"/>
   </g>
   <g id="line2d_11">
    <path clip-path="url(#p08aed198a1)" d="M 36 324 
L 1396.951885 324 
" style="fill:none;stroke:#808080;stroke-linecap:square;stroke-width:3;"/>
   </g>
   <g id="line2d_12">
    <path clip-path="url(#p08aed198a1)" d="M 36 252 
L 1396.951885 252 
" style="fill:none;stroke:#808080;stroke-linecap:square;stroke-width:3;"/>
   </g>
   <g id="line2d_13">
    <path clip-path="url(#p08aed198a1)" d="M 36 180 
L 1396.951885 180 
" style="fill:none;stroke:#808080;stroke-linecap:square;stroke-width:3;"/>
   </g>
   <g id="line2d_14">
    <path clip-path="url(#p08aed198a1)" d="M 36 108 
L 1396.951885 108 
" style="fill:none;stroke:#808080;stroke-linecap:square;stroke-width:3;"/>
   </g>
   <g id="line2d_15">
    <path clip-path="url(#p08aed198a1)" d="M 36 36 
L 1396.951885 36 
" style="fill:none;stroke:#808080;stroke-linecap:square;stroke-width:3;"/>
   </g>
   <g id="text_1">
    <!-- -1 -->
    <defs>
     <path d="M 4.890625 31.390625 
L 31.203125 31.390625 
L 31.203125 23.390625 
L 4.890625 23.390625 
z
" id="DejaVuSans-45"/>
     <path d="M 12.40625 8.296875 
L 28.515625 8.296875 
L 28.515625 63.921875 
L 10.984375 60.40625 
L 10.984375 69.390625 
L 28.421875 72.90625 
L 38.28125 72.90625 
L 38.28125 8.296875 
L 54.390625 8.296875 
L 54.390625 0 
L 12.40625 0 
z
" id="DejaVuSans-49"/>
    </defs>
    <g style="fill:#0000ff;" transform="translate(27.275977 428.521214)scale(0.175 -0.175)">
     <use xlink:href="#DejaVuSans-45"/>
     <use x="36.083984" xlink:href="#DejaVuSans-49"/>
    </g>
   </g>
   <g id="text_2">
    <!-- 0 -->
    <defs>
     <path d="M 31.78125 66.40625 
Q 24.171875 66.40625 20.328125 58.90625 
Q 16.5 51.421875 16.5 36.375 
Q 16.5 21.390625 20.328125 13.890625 
Q 24.171875 6.390625 31.78125 6.390625 
Q 39.453125 6.390625 43.28125 13.890625 
Q 47.125 21.390625 47.125 36.375 
Q 47.125 51.421875 43.28125 58.90625 
Q 39.453125 66.40625 31.78125 66.40625 
z
M 31.78125 74.21875 
Q 44.046875 74.21875 50.515625 64.515625 
Q 56.984375 54.828125 56.984375 36.375 
Q 56.984375 17.96875 50.515625 8.265625 
Q 44.046875 -1.421875 31.78125 -1.421875 
Q 19.53125 -1.421875 13.0625 8.265625 
Q 6.59375 17.96875 6.59375 36.375 
Q 6.59375 54.828125 13.0625 64.515625 
Q 19.53125 74.21875 31.78125 74.21875 
z
" id="DejaVuSans-48"/>
    </defs>
    <g style="fill:#0000ff;" transform="translate(102.432813 428.521214)scale(0.175 -0.175)">
     <use xlink:href="#DejaVuSans-48"/>
    </g>
   </g>
   <g id="text_3">
    <!-- 1 -->
    <g style="fill:#0000ff;" transform="translate(382.551016 428.521214)scale(0.175 -0.175)">
     <use xlink:href="#DejaVuSans-49"/>
    </g>
   </g>
   <g id="text_4">
    <!-- 2 -->
    <defs>
     <path d="M 19.1875 8.296875 
L 53.609375 8.296875 
L 53.609375 0 
L 7.328125 0 
L 7.328125 8.296875 
Q 12.9375 14.109375 22.625 23.890625 
Q 32.328125 33.6875 34.8125 36.53125 
Q 39.546875 41.84375 41.421875 45.53125 
Q 43.3125 49.21875 43.3125 52.78125 
Q 43.3125 58.59375 39.234375 62.25 
Q 35.15625 65.921875 28.609375 65.921875 
Q 23.96875 65.921875 18.8125 64.3125 
Q 13.671875 62.703125 7.8125 59.421875 
L 7.8125 69.390625 
Q 13.765625 71.78125 18.9375 73 
Q 24.125 74.21875 28.421875 74.21875 
Q 39.75 74.21875 46.484375 68.546875 
Q 53.21875 62.890625 53.21875 53.421875 
Q 53.21875 48.921875 51.53125 44.890625 
Q 49.859375 40.875 45.40625 35.40625 
Q 44.1875 33.984375 37.640625 27.21875 
Q 31.109375 20.453125 19.1875 8.296875 
z
" id="DejaVuSans-50"/>
    </defs>
    <g style="fill:#0000ff;" transform="translate(646.947392 428.521214)scale(0.175 -0.175)">
     <use xlink:href="#DejaVuSans-50"/>
    </g>
   </g>
   <g id="text_5">
    <!-- 3 -->
    <defs>
     <path d="M 40.578125 39.3125 
Q 47.65625 37.796875 51.625 33 
Q 55.609375 28.21875 55.609375 21.1875 
Q 55.609375 10.40625 48.1875 4.484375 
Q 40.765625 -1.421875 27.09375 -1.421875 
Q 22.515625 -1.421875 17.65625 -0.515625 
Q 12.796875 0.390625 7.625 2.203125 
L 7.625 11.71875 
Q 11.71875 9.328125 16.59375 8.109375 
Q 21.484375 6.890625 26.8125 6.890625 
Q 36.078125 6.890625 40.9375 10.546875 
Q 45.796875 14.203125 45.796875 21.1875 
Q 45.796875 27.640625 41.28125 31.265625 
Q 36.765625 34.90625 28.71875 34.90625 
L 20.21875 34.90625 
L 20.21875 43.015625 
L 29.109375 43.015625 
Q 36.375 43.015625 40.234375 45.921875 
Q 44.09375 48.828125 44.09375 54.296875 
Q 44.09375 59.90625 40.109375 62.90625 
Q 36.140625 65.921875 28.71875 65.921875 
Q 24.65625 65.921875 20.015625 65.03125 
Q 15.375 64.15625 9.8125 62.3125 
L 9.8125 71.09375 
Q 15.4375 72.65625 20.34375 73.4375 
Q 25.25 74.21875 29.59375 74.21875 
Q 40.828125 74.21875 47.359375 69.109375 
Q 53.90625 64.015625 53.90625 55.328125 
Q 53.90625 49.265625 50.4375 45.09375 
Q 46.96875 40.921875 40.578125 39.3125 
z
" id="DejaVuSans-51"/>
    </defs>
    <g style="fill:#0000ff;" transform="translate(896.50434 428.521214)scale(0.175 -0.175)">
     <use xlink:href="#DejaVuSans-51"/>
    </g>
   </g>
   <g id="text_6">
    <!-- 4 -->
    <defs>
     <path d="M 37.796875 64.3125 
L 12.890625 25.390625 
L 37.796875 25.390625 
z
M 35.203125 72.90625 
L 47.609375 72.90625 
L 47.609375 25.390625 
L 58.015625 25.390625 
L 58.015625 17.1875 
L 47.609375 17.1875 
L 47.609375 0 
L 37.796875 0 
L 37.796875 17.1875 
L 4.890625 17.1875 
L 4.890625 26.703125 
z
" id="DejaVuSans-52"/>
    </defs>
    <g style="fill:#0000ff;" transform="translate(1132.054733 428.521214)scale(0.175 -0.175)">
     <use xlink:href="#DejaVuSans-52"/>
    </g>
   </g>
   <g id="text_7">
    <!-- 5 -->
    <defs>
     <path d="M 10.796875 72.90625 
L 49.515625 72.90625 
L 49.515625 64.59375 
L 19.828125 64.59375 
L 19.828125 46.734375 
Q 21.96875 47.46875 24.109375 47.828125 
Q 26.265625 48.1875 28.421875 48.1875 
Q 40.625 48.1875 47.75 41.5 
Q 54.890625 34.8125 54.890625 23.390625 
Q 54.890625 11.625 47.5625 5.09375 
Q 40.234375 -1.421875 26.90625 -1.421875 
Q 22.3125 -1.421875 17.546875 -0.640625 
Q 12.796875 0.140625 7.71875 1.703125 
L 7.71875 11.625 
Q 12.109375 9.234375 16.796875 8.0625 
Q 21.484375 6.890625 26.703125 6.890625 
Q 35.15625 6.890625 40.078125 11.328125 
Q 45.015625 15.765625 45.015625 23.390625 
Q 45.015625 31 40.078125 35.4375 
Q 35.15625 39.890625 26.703125 39.890625 
Q 22.75 39.890625 18.8125 39.015625 
Q 14.890625 38.140625 10.796875 36.28125 
z
" id="DejaVuSans-53"/>
    </defs>
    <g style="fill:#0000ff;" transform="translate(1354.384698 428.521214)scale(0.175 -0.175)">
     <use xlink:href="#DejaVuSans-53"/>
    </g>
   </g>
   <g id="patch_11">
    <path d="M 50.4 426 
C 58.356093 426 65.987396 422.839011 71.613203 417.213203 
C 77.239011 411.587396 80.4 403.956093 80.4 396 
C 80.4 388.043907 77.239011 380.412604 71.613203 374.786797 
C 65.987396 369.160989 58.356093 366 50.4 366 
C 42.443907 366 34.812604 369.160989 29.186797 374.786797 
C 23.560989 380.412604 20.4 388.043907 20.4 396 
C 20.4 403.956093 23.560989 411.587396 29.186797 417.213203 
C 34.812604 422.839011 42.443907 426 50.4 426 
z
" style="fill:#d9544c;stroke:#d9544c;stroke-linejoin:miter;"/>
   </g>
   <g id="patch_12">
    <path d="M 50.4 210 
C 58.356093 210 65.987396 206.839011 71.613203 201.213203 
C 77.239011 195.587396 80.4 187.956093 80.4 180 
C 80.4 172.043907 77.239011 164.412604 71.613203 158.786797 
C 65.987396 153.160989 58.356093 150 50.4 150 
C 42.443907 150 34.812604 153.160989 29.186797 158.786797 
C 23.560989 164.412604 20.4 172.043907 20.4 180 
C 20.4 187.956093 23.560989 195.587396 29.186797 201.213203 
C 34.812604 206.839011 42.443907 210 50.4 210 
z
" style="fill:#d9544c;stroke:#d9544c;stroke-linejoin:miter;"/>
   </g>
   <g id="patch_13">
    <path d="M 50.4 66 
C 58.356093 66 65.987396 62.839011 71.613203 57.213203 
C 77.239011 51.587396 80.4 43.956093 80.4 36 
C 80.4 28.043907 77.239011 20.412604 71.613203 14.786797 
C 65.987396 9.160989 58.356093 6 50.4 6 
C 42.443907 6 34.812604 9.160989 29.186797 14.786797 
C 23.560989 20.412604 20.4 28.043907 20.4 36 
C 20.4 43.956093 23.560989 51.587396 29.186797 57.213203 
C 34.812604 62.839011 42.443907 66 50.4 66 
z
" style="fill:#d9544c;stroke:#d9544c;stroke-linejoin:miter;"/>
   </g>
   <g id="patch_14">
    <path d="M 164.023641 138 
C 171.979734 138 179.611037 134.839011 185.236844 129.213203 
C 190.862651 123.587396 194.023641 115.956093 194.023641 108 
C 194.023641 100.043907 190.862651 92.412604 185.236844 86.786797 
C 179.611037 81.160989 171.979734 78 164.023641 78 
C 156.067548 78 148.436244 81.160989 142.810437 86.786797 
C 137.18463 92.412604 134.023641 100.043907 134.023641 108 
C 134.023641 115.956093 137.18463 123.587396 142.810437 129.213203 
C 148.436244 134.839011 156.067548 138 164.023641 138 
z
" style="fill:#d9544c;stroke:#d9544c;stroke-linejoin:miter;"/>
   </g>
   <g id="patch_15">
    <path d="M 440.997478 282 
C 448.953571 282 456.584874 278.839011 462.210682 273.213203 
C 467.836489 267.587396 470.997478 259.956093 470.997478 252 
C 470.997478 244.043907 467.836489 236.412604 462.210682 230.786797 
C 456.584874 225.160989 448.953571 222 440.997478 222 
C 433.041385 222 425.410082 225.160989 419.784275 230.786797 
C 414.158468 236.412604 410.997478 244.043907 410.997478 252 
C 410.997478 259.956093 414.158468 267.587396 419.784275 273.213203 
C 425.410082 278.839011 433.041385 282 440.997478 282 
z
" style="fill:#d9544c;stroke:#d9544c;stroke-linejoin:miter;"/>
   </g>
   <g id="patch_16">
    <path d="M 702.425969 426 
C 710.382062 426 718.013365 422.839011 723.639173 417.213203 
C 729.26498 411.587396 732.425969 403.956093 732.425969 396 
C 732.425969 388.043907 729.26498 380.412604 723.639173 374.786797 
C 718.013365 369.160989 710.382062 366 702.425969 366 
C 694.469876 366 686.838573 369.160989 681.212766 374.786797 
C 675.586958 380.412604 672.425969 388.043907 672.425969 396 
C 672.425969 403.956093 675.586958 411.587396 681.212766 417.213203 
C 686.838573 422.839011 694.469876 426 702.425969 426 
z
" style="fill:#d9544c;stroke:#d9544c;stroke-linejoin:miter;"/>
   </g>
   <g id="patch_17">
    <path d="M 702.425969 354 
C 710.382062 354 718.013365 350.839011 723.639173 345.213203 
C 729.26498 339.587396 732.425969 331.956093 732.425969 324 
C 732.425969 316.043907 729.26498 308.412604 723.639173 302.786797 
C 718.013365 297.160989 710.382062 294 702.425969 294 
C 694.469876 294 686.838573 297.160989 681.212766 302.786797 
C 675.586958 308.412604 672.425969 316.043907 672.425969 324 
C 672.425969 331.956093 675.586958 339.587396 681.212766 345.213203 
C 686.838573 350.839011 694.469876 354 702.425969 354 
z
" style="fill:#d9544c;stroke:#d9544c;stroke-linejoin:miter;"/>
   </g>
   <g id="patch_18">
    <path d="M 702.425969 66 
C 710.382062 66 718.013365 62.839011 723.639173 57.213203 
C 729.26498 51.587396 732.425969 43.956093 732.425969 36 
C 732.425969 28.043907 729.26498 20.412604 723.639173 14.786797 
C 718.013365 9.160989 710.382062 6 702.425969 6 
C 694.469876 6 686.838573 9.160989 681.212766 14.786797 
C 675.586958 20.412604 672.425969 28.043907 672.425969 36 
C 672.425969 43.956093 675.586958 51.587396 681.212766 57.213203 
C 686.838573 62.839011 694.469876 66 702.425969 66 
z
" style="fill:#d9544c;stroke:#d9544c;stroke-linejoin:miter;"/>
   </g>
   <g id="patch_19">
    <path d="M 1182.087913 282 
C 1190.044006 282 1197.675309 278.839011 1203.301117 273.213203 
C 1208.926924 267.587396 1212.087913 259.956093 1212.087913 252 
C 1212.087913 244.043907 1208.926924 236.412604 1203.301117 230.786797 
C 1197.675309 225.160989 1190.044006 222 1182.087913 222 
C 1174.13182 222 1166.500517 225.160989 1160.87471 230.786797 
C 1155.248903 236.412604 1152.087913 244.043907 1152.087913 252 
C 1152.087913 259.956093 1155.248903 267.587396 1160.87471 273.213203 
C 1166.500517 278.839011 1174.13182 282 1182.087913 282 
z
" style="fill:#d9544c;stroke:#d9544c;stroke-linejoin:miter;"/>
   </g>
   <g id="patch_20">
    <path d="M 1182.087913 210 
C 1190.044006 210 1197.675309 206.839011 1203.301117 201.213203 
C 1208.926924 195.587396 1212.087913 187.956093 1212.087913 180 
C 1212.087913 172.043907 1208.926924 164.412604 1203.301117 158.786797 
C 1197.675309 153.160989 1190.044006 150 1182.087913 150 
C 1174.13182 150 1166.500517 153.160989 1160.87471 158.786797 
C 1155.248903 164.412604 1152.087913 172.043907 1152.087913 180 
C 1152.087913 187.956093 1155.248903 195.587396 1160.87471 201.213203 
C 1166.500517 206.839011 1174.13182 210 1182.087913 210 
z
" style="fill:#d9544c;stroke:#d9544c;stroke-linejoin:miter;"/>
   </g>
   <g id="patch_21">
    <path d="M 1182.087913 138 
C 1190.044006 138 1197.675309 134.839011 1203.301117 129.213203 
C 1208.926924 123.587396 1212.087913 115.956093 1212.087913 108 
C 1212.087913 100.043907 1208.926924 92.412604 1203.301117 86.786797 
C 1197.675309 81.160989 1190.044006 78 1182.087913 78 
C 1174.13182 78 1166.500517 81.160989 1160.87471 86.786797 
C 1155.248903 92.412604 1152.087913 100.043907 1152.087913 108 
C 1152.087913 115.956093 1155.248903 123.587396 1160.87471 129.213203 
C 1166.500517 134.839011 1174.13182 138 1182.087913 138 
z
" style="fill:#d9544c;stroke:#d9544c;stroke-linejoin:miter;"/>
   </g>
   <g id="text_8">
    <!-- E1(3) -->
    <defs>
     <path d="M 9.8125 72.90625 
L 55.90625 72.90625 
L 55.90625 64.59375 
L 19.671875 64.59375 
L 19.671875 43.015625 
L 54.390625 43.015625 
L 54.390625 34.71875 
L 19.671875 34.71875 
L 19.671875 8.296875 
L 56.78125 8.296875 
L 56.78125 0 
L 9.8125 0 
z
" id="DejaVuSans-69"/>
     <path d="M 31 75.875 
Q 24.46875 64.65625 21.28125 53.65625 
Q 18.109375 42.671875 18.109375 31.390625 
Q 18.109375 20.125 21.3125 9.0625 
Q 24.515625 -2 31 -13.1875 
L 23.1875 -13.1875 
Q 15.875 -1.703125 12.234375 9.375 
Q 8.59375 20.453125 8.59375 31.390625 
Q 8.59375 42.28125 12.203125 53.3125 
Q 15.828125 64.359375 23.1875 75.875 
z
" id="DejaVuSans-40"/>
     <path d="M 8.015625 75.875 
L 15.828125 75.875 
Q 23.140625 64.359375 26.78125 53.3125 
Q 30.421875 42.28125 30.421875 31.390625 
Q 30.421875 20.453125 26.78125 9.375 
Q 23.140625 -1.703125 15.828125 -13.1875 
L 8.015625 -13.1875 
Q 14.5 -2 17.703125 9.0625 
Q 20.90625 20.125 20.90625 31.390625 
Q 20.90625 42.671875 17.703125 53.65625 
Q 14.5 64.65625 8.015625 75.875 
z
" id="DejaVuSans-41"/>
    </defs>
    <g style="fill:#ffffff;" transform="translate(32.502083 399.679167)scale(0.133333 -0.133333)">
     <use xlink:href="#DejaVuSans-69"/>
     <use x="63.183594" xlink:href="#DejaVuSans-49"/>
     <use x="126.806641" xlink:href="#DejaVuSans-40"/>
     <use x="165.820312" xlink:href="#DejaVuSans-51"/>
     <use x="229.443359" xlink:href="#DejaVuSans-41"/>
    </g>
   </g>
   <g id="text_9">
    <!-- G2(5) -->
    <defs>
     <path d="M 59.515625 10.40625 
L 59.515625 29.984375 
L 43.40625 29.984375 
L 43.40625 38.09375 
L 69.28125 38.09375 
L 69.28125 6.78125 
Q 63.578125 2.734375 56.6875 0.65625 
Q 49.8125 -1.421875 42 -1.421875 
Q 24.90625 -1.421875 15.25 8.5625 
Q 5.609375 18.5625 5.609375 36.375 
Q 5.609375 54.25 15.25 64.234375 
Q 24.90625 74.21875 42 74.21875 
Q 49.125 74.21875 55.546875 72.453125 
Q 61.96875 70.703125 67.390625 67.28125 
L 67.390625 56.78125 
Q 61.921875 61.421875 55.765625 63.765625 
Q 49.609375 66.109375 42.828125 66.109375 
Q 29.4375 66.109375 22.71875 58.640625 
Q 16.015625 51.171875 16.015625 36.375 
Q 16.015625 21.625 22.71875 14.15625 
Q 29.4375 6.6875 42.828125 6.6875 
Q 48.046875 6.6875 52.140625 7.59375 
Q 56.25 8.5 59.515625 10.40625 
z
" id="DejaVuSans-71"/>
    </defs>
    <g style="fill:#ffffff;" transform="translate(31.548958 183.679167)scale(0.133333 -0.133333)">
     <use xlink:href="#DejaVuSans-71"/>
     <use x="77.490234" xlink:href="#DejaVuSans-50"/>
     <use x="141.113281" xlink:href="#DejaVuSans-40"/>
     <use x="180.126953" xlink:href="#DejaVuSans-53"/>
     <use x="243.75" xlink:href="#DejaVuSans-41"/>
    </g>
   </g>
   <g id="text_10">
    <!-- E3(3) -->
    <g style="fill:#ffffff;" transform="translate(32.502083 39.679167)scale(0.133333 -0.133333)">
     <use xlink:href="#DejaVuSans-69"/>
     <use x="63.183594" xlink:href="#DejaVuSans-51"/>
     <use x="126.806641" xlink:href="#DejaVuSans-40"/>
     <use x="165.820312" xlink:href="#DejaVuSans-51"/>
     <use x="229.443359" xlink:href="#DejaVuSans-41"/>
    </g>
   </g>
   <g id="text_11">
    <!-- C3(R) -->
    <defs>
     <path d="M 64.40625 67.28125 
L 64.40625 56.890625 
Q 59.421875 61.53125 53.78125 63.8125 
Q 48.140625 66.109375 41.796875 66.109375 
Q 29.296875 66.109375 22.65625 58.46875 
Q 16.015625 50.828125 16.015625 36.375 
Q 16.015625 21.96875 22.65625 14.328125 
Q 29.296875 6.6875 41.796875 6.6875 
Q 48.140625 6.6875 53.78125 8.984375 
Q 59.421875 11.28125 64.40625 15.921875 
L 64.40625 5.609375 
Q 59.234375 2.09375 53.4375 0.328125 
Q 47.65625 -1.421875 41.21875 -1.421875 
Q 24.65625 -1.421875 15.125 8.703125 
Q 5.609375 18.84375 5.609375 36.375 
Q 5.609375 53.953125 15.125 64.078125 
Q 24.65625 74.21875 41.21875 74.21875 
Q 47.75 74.21875 53.53125 72.484375 
Q 59.328125 70.75 64.40625 67.28125 
z
" id="DejaVuSans-67"/>
     <path d="M 44.390625 34.1875 
Q 47.5625 33.109375 50.5625 29.59375 
Q 53.5625 26.078125 56.59375 19.921875 
L 66.609375 0 
L 56 0 
L 46.6875 18.703125 
Q 43.0625 26.03125 39.671875 28.421875 
Q 36.28125 30.8125 30.421875 30.8125 
L 19.671875 30.8125 
L 19.671875 0 
L 9.8125 0 
L 9.8125 72.90625 
L 32.078125 72.90625 
Q 44.578125 72.90625 50.734375 67.671875 
Q 56.890625 62.453125 56.890625 51.90625 
Q 56.890625 45.015625 53.6875 40.46875 
Q 50.484375 35.9375 44.390625 34.1875 
z
M 19.671875 64.796875 
L 19.671875 38.921875 
L 32.078125 38.921875 
Q 39.203125 38.921875 42.84375 42.21875 
Q 46.484375 45.515625 46.484375 51.90625 
Q 46.484375 58.296875 42.84375 61.546875 
Q 39.203125 64.796875 32.078125 64.796875 
z
" id="DejaVuSans-82"/>
    </defs>
    <g style="fill:#ffffff;" transform="translate(145.292391 111.679167)scale(0.133333 -0.133333)">
     <use xlink:href="#DejaVuSans-67"/>
     <use x="69.824219" xlink:href="#DejaVuSans-51"/>
     <use x="133.447266" xlink:href="#DejaVuSans-40"/>
     <use x="172.460938" xlink:href="#DejaVuSans-82"/>
     <use x="241.943359" xlink:href="#DejaVuSans-41"/>
    </g>
   </g>
   <g id="text_12">
    <!-- E2(3) -->
    <g style="fill:#ffffff;" transform="translate(423.099562 255.679167)scale(0.133333 -0.133333)">
     <use xlink:href="#DejaVuSans-69"/>
     <use x="63.183594" xlink:href="#DejaVuSans-50"/>
     <use x="126.806641" xlink:href="#DejaVuSans-40"/>
     <use x="165.820312" xlink:href="#DejaVuSans-51"/>
     <use x="229.443359" xlink:href="#DejaVuSans-41"/>
    </g>
   </g>
   <g id="text_13">
    <!-- G1(5) -->
    <g style="fill:#ffffff;" transform="translate(683.574927 399.679167)scale(0.133333 -0.133333)">
     <use xlink:href="#DejaVuSans-71"/>
     <use x="77.490234" xlink:href="#DejaVuSans-49"/>
     <use x="141.113281" xlink:href="#DejaVuSans-40"/>
     <use x="180.126953" xlink:href="#DejaVuSans-53"/>
     <use x="243.75" xlink:href="#DejaVuSans-41"/>
    </g>
   </g>
   <g id="text_14">
    <!-- C2(R) -->
    <g style="fill:#ffffff;" transform="translate(683.694719 327.679167)scale(0.133333 -0.133333)">
     <use xlink:href="#DejaVuSans-67"/>
     <use x="69.824219" xlink:href="#DejaVuSans-50"/>
     <use x="133.447266" xlink:href="#DejaVuSans-40"/>
     <use x="172.460938" xlink:href="#DejaVuSans-82"/>
     <use x="241.943359" xlink:href="#DejaVuSans-41"/>
    </g>
   </g>
   <g id="text_15">
    <!-- G3(5) -->
    <g style="fill:#ffffff;" transform="translate(683.574927 39.679167)scale(0.133333 -0.133333)">
     <use xlink:href="#DejaVuSans-71"/>
     <use x="77.490234" xlink:href="#DejaVuSans-51"/>
     <use x="141.113281" xlink:href="#DejaVuSans-40"/>
     <use x="180.126953" xlink:href="#DejaVuSans-53"/>
     <use x="243.75" xlink:href="#DejaVuSans-41"/>
    </g>
   </g>
   <g id="text_16">
    <!-- G2(5) -->
    <g style="fill:#ffffff;" transform="translate(1163.236872 255.679167)scale(0.133333 -0.133333)">
     <use xlink:href="#DejaVuSans-71"/>
     <use x="77.490234" xlink:href="#DejaVuSans-50"/>
     <use x="141.113281" xlink:href="#DejaVuSans-40"/>
     <use x="180.126953" xlink:href="#DejaVuSans-53"/>
     <use x="243.75" xlink:href="#DejaVuSans-41"/>
    </g>
   </g>
   <g id="text_17">
    <!-- C3(R) -->
    <g style="fill:#ffffff;" transform="translate(1163.356663 183.679167)scale(0.133333 -0.133333)">
     <use xlink:href="#DejaVuSans-67"/>
     <use x="69.824219" xlink:href="#DejaVuSans-51"/>
     <use x="133.447266" xlink:href="#DejaVuSans-40"/>
     <use x="172.460938" xlink:href="#DejaVuSans-82"/>
     <use x="241.943359" xlink:href="#DejaVuSans-41"/>
    </g>
   </g>
   <g id="text_18">
    <!-- E3(3) -->
    <g style="fill:#ffffff;" transform="translate(1164.189997 111.679167)scale(0.133333 -0.133333)">
     <use xlink:href="#DejaVuSans-69"/>
     <use x="63.183594" xlink:href="#DejaVuSans-51"/>
     <use x="126.806641" xlink:href="#DejaVuSans-40"/>
     <use x="165.820312" xlink:href="#DejaVuSans-51"/>
     <use x="229.443359" xlink:href="#DejaVuSans-41"/>
    </g>
   </g>
   <g id="patch_22">
    <path d="M 64.8 282 
C 72.756093 282 80.387396 278.839011 86.013203 273.213203 
C 91.639011 267.587396 94.8 259.956093 94.8 252 
C 94.8 244.043907 91.639011 236.412604 86.013203 230.786797 
C 80.387396 225.160989 72.756093 222 64.8 222 
C 56.843907 222 49.212604 225.160989 43.586797 230.786797 
C 37.960989 236.412604 34.8 244.043907 34.8 252 
C 34.8 259.956093 37.960989 267.587396 43.586797 273.213203 
C 49.212604 278.839011 56.843907 282 64.8 282 
z
" style="fill:#d9944c;stroke:#d9944c;stroke-linejoin:miter;"/>
   </g>
   <g id="patch_23">
    <path d="M 64.8 210 
C 72.756093 210 80.387396 206.839011 86.013203 201.213203 
C 91.639011 195.587396 94.8 187.956093 94.8 180 
C 94.8 172.043907 91.639011 164.412604 86.013203 158.786797 
C 80.387396 153.160989 72.756093 150 64.8 150 
C 56.843907 150 49.212604 153.160989 43.586797 158.786797 
C 37.960989 164.412604 34.8 172.043907 34.8 180 
C 34.8 187.956093 37.960989 195.587396 43.586797 201.213203 
C 49.212604 206.839011 56.843907 210 64.8 210 
z
" style="fill:#d9944c;stroke:#d9944c;stroke-linejoin:miter;"/>
   </g>
   <g id="patch_24">
    <path d="M 64.8 138 
C 72.756093 138 80.387396 134.839011 86.013203 129.213203 
C 91.639011 123.587396 94.8 115.956093 94.8 108 
C 94.8 100.043907 91.639011 92.412604 86.013203 86.786797 
C 80.387396 81.160989 72.756093 78 64.8 78 
C 56.843907 78 49.212604 81.160989 43.586797 86.786797 
C 37.960989 92.412604 34.8 100.043907 34.8 108 
C 34.8 115.956093 37.960989 123.587396 43.586797 129.213203 
C 49.212604 134.839011 56.843907 138 64.8 138 
z
" style="fill:#d9944c;stroke:#d9944c;stroke-linejoin:miter;"/>
   </g>
   <g id="patch_25">
    <path d="M 493.876754 354 
C 501.832847 354 509.46415 350.839011 515.089957 345.213203 
C 520.715764 339.587396 523.876754 331.956093 523.876754 324 
C 523.876754 316.043907 520.715764 308.412604 515.089957 302.786797 
C 509.46415 297.160989 501.832847 294 493.876754 294 
C 485.920661 294 478.289358 297.160989 472.66355 302.786797 
C 467.037743 308.412604 463.876754 316.043907 463.876754 324 
C 463.876754 331.956093 467.037743 339.587396 472.66355 345.213203 
C 478.289358 350.839011 485.920661 354 493.876754 354 
z
" style="fill:#d9944c;stroke:#d9944c;stroke-linejoin:miter;"/>
   </g>
   <g id="patch_26">
    <path d="M 752.337359 426 
C 760.293452 426 767.924755 422.839011 773.550562 417.213203 
C 779.176369 411.587396 782.337359 403.956093 782.337359 396 
C 782.337359 388.043907 779.176369 380.412604 773.550562 374.786797 
C 767.924755 369.160989 760.293452 366 752.337359 366 
C 744.381266 366 736.749963 369.160989 731.124155 374.786797 
C 725.498348 380.412604 722.337359 388.043907 722.337359 396 
C 722.337359 403.956093 725.498348 411.587396 731.124155 417.213203 
C 736.749963 422.839011 744.381266 426 752.337359 426 
z
" style="fill:#d9944c;stroke:#d9944c;stroke-linejoin:miter;"/>
   </g>
   <g id="patch_27">
    <path d="M 752.337359 138 
C 760.293452 138 767.924755 134.839011 773.550562 129.213203 
C 779.176369 123.587396 782.337359 115.956093 782.337359 108 
C 782.337359 100.043907 779.176369 92.412604 773.550562 86.786797 
C 767.924755 81.160989 760.293452 78 752.337359 78 
C 744.381266 78 736.749963 81.160989 731.124155 86.786797 
C 725.498348 92.412604 722.337359 100.043907 722.337359 108 
C 722.337359 115.956093 725.498348 123.587396 731.124155 129.213203 
C 736.749963 134.839011 744.381266 138 752.337359 138 
z
" style="fill:#d9944c;stroke:#d9944c;stroke-linejoin:miter;"/>
   </g>
   <g id="patch_28">
    <path d="M 752.337359 66 
C 760.293452 66 767.924755 62.839011 773.550562 57.213203 
C 779.176369 51.587396 782.337359 43.956093 782.337359 36 
C 782.337359 28.043907 779.176369 20.412604 773.550562 14.786797 
C 767.924755 9.160989 760.293452 6 752.337359 6 
C 744.381266 6 736.749963 9.160989 731.124155 14.786797 
C 725.498348 20.412604 722.337359 28.043907 722.337359 36 
C 722.337359 43.956093 725.498348 51.587396 731.124155 57.213203 
C 736.749963 62.839011 744.381266 66 752.337359 66 
z
" style="fill:#d9944c;stroke:#d9944c;stroke-linejoin:miter;"/>
   </g>
   <g id="patch_29">
    <path d="M 996.291685 210 
C 1004.247778 210 1011.879081 206.839011 1017.504888 201.213203 
C 1023.130695 195.587396 1026.291685 187.956093 1026.291685 180 
C 1026.291685 172.043907 1023.130695 164.412604 1017.504888 158.786797 
C 1011.879081 153.160989 1004.247778 150 996.291685 150 
C 988.335592 150 980.704289 153.160989 975.078481 158.786797 
C 969.452674 164.412604 966.291685 172.043907 966.291685 180 
C 966.291685 187.956093 969.452674 195.587396 975.078481 201.213203 
C 980.704289 206.839011 988.335592 210 996.291685 210 
z
" style="fill:#d9944c;stroke:#d9944c;stroke-linejoin:miter;"/>
   </g>
   <g id="patch_30">
    <path d="M 1226.553906 354 
C 1234.509999 354 1242.141302 350.839011 1247.76711 345.213203 
C 1253.392917 339.587396 1256.553906 331.956093 1256.553906 324 
C 1256.553906 316.043907 1253.392917 308.412604 1247.76711 302.786797 
C 1242.141302 297.160989 1234.509999 294 1226.553906 294 
C 1218.597813 294 1210.96651 297.160989 1205.340703 302.786797 
C 1199.714896 308.412604 1196.553906 316.043907 1196.553906 324 
C 1196.553906 331.956093 1199.714896 339.587396 1205.340703 345.213203 
C 1210.96651 350.839011 1218.597813 354 1226.553906 354 
z
" style="fill:#d9944c;stroke:#d9944c;stroke-linejoin:miter;"/>
   </g>
   <g id="patch_31">
    <path d="M 1226.553906 282 
C 1234.509999 282 1242.141302 278.839011 1247.76711 273.213203 
C 1253.392917 267.587396 1256.553906 259.956093 1256.553906 252 
C 1256.553906 244.043907 1253.392917 236.412604 1247.76711 230.786797 
C 1242.141302 225.160989 1234.509999 222 1226.553906 222 
C 1218.597813 222 1210.96651 225.160989 1205.340703 230.786797 
C 1199.714896 236.412604 1196.553906 244.043907 1196.553906 252 
C 1196.553906 259.956093 1199.714896 267.587396 1205.340703 273.213203 
C 1210.96651 278.839011 1218.597813 282 1226.553906 282 
z
" style="fill:#d9944c;stroke:#d9944c;stroke-linejoin:miter;"/>
   </g>
   <g id="text_19">
    <!-- D2(5) -->
    <defs>
     <path d="M 19.671875 64.796875 
L 19.671875 8.109375 
L 31.59375 8.109375 
Q 46.6875 8.109375 53.6875 14.9375 
Q 60.6875 21.78125 60.6875 36.53125 
Q 60.6875 51.171875 53.6875 57.984375 
Q 46.6875 64.796875 31.59375 64.796875 
z
M 9.8125 72.90625 
L 30.078125 72.90625 
Q 51.265625 72.90625 61.171875 64.09375 
Q 71.09375 55.28125 71.09375 36.53125 
Q 71.09375 17.671875 61.125 8.828125 
Q 51.171875 0 30.078125 0 
L 9.8125 0 
z
" id="DejaVuSans-68"/>
    </defs>
    <g style="fill:#ffffff;" transform="translate(45.98125 255.679167)scale(0.133333 -0.133333)">
     <use xlink:href="#DejaVuSans-68"/>
     <use x="77.001953" xlink:href="#DejaVuSans-50"/>
     <use x="140.625" xlink:href="#DejaVuSans-40"/>
     <use x="179.638672" xlink:href="#DejaVuSans-53"/>
     <use x="243.261719" xlink:href="#DejaVuSans-41"/>
    </g>
   </g>
   <g id="text_20">
    <!-- G2(R) -->
    <g style="fill:#ffffff;" transform="translate(45.558333 183.679167)scale(0.133333 -0.133333)">
     <use xlink:href="#DejaVuSans-71"/>
     <use x="77.490234" xlink:href="#DejaVuSans-50"/>
     <use x="141.113281" xlink:href="#DejaVuSans-40"/>
     <use x="180.126953" xlink:href="#DejaVuSans-82"/>
     <use x="249.609375" xlink:href="#DejaVuSans-41"/>
    </g>
   </g>
   <g id="text_21">
    <!-- B2(3) -->
    <defs>
     <path d="M 19.671875 34.8125 
L 19.671875 8.109375 
L 35.5 8.109375 
Q 43.453125 8.109375 47.28125 11.40625 
Q 51.125 14.703125 51.125 21.484375 
Q 51.125 28.328125 47.28125 31.5625 
Q 43.453125 34.8125 35.5 34.8125 
z
M 19.671875 64.796875 
L 19.671875 42.828125 
L 34.28125 42.828125 
Q 41.5 42.828125 45.03125 45.53125 
Q 48.578125 48.25 48.578125 53.8125 
Q 48.578125 59.328125 45.03125 62.0625 
Q 41.5 64.796875 34.28125 64.796875 
z
M 9.8125 72.90625 
L 35.015625 72.90625 
Q 46.296875 72.90625 52.390625 68.21875 
Q 58.5 63.53125 58.5 54.890625 
Q 58.5 48.1875 55.375 44.234375 
Q 52.25 40.28125 46.1875 39.3125 
Q 53.46875 37.75 57.5 32.78125 
Q 61.53125 27.828125 61.53125 20.40625 
Q 61.53125 10.640625 54.890625 5.3125 
Q 48.25 0 35.984375 0 
L 9.8125 0 
z
" id="DejaVuSans-66"/>
    </defs>
    <g style="fill:#ffffff;" transform="translate(46.540625 111.679167)scale(0.133333 -0.133333)">
     <use xlink:href="#DejaVuSans-66"/>
     <use x="68.603516" xlink:href="#DejaVuSans-50"/>
     <use x="132.226562" xlink:href="#DejaVuSans-40"/>
     <use x="171.240234" xlink:href="#DejaVuSans-51"/>
     <use x="234.863281" xlink:href="#DejaVuSans-41"/>
    </g>
   </g>
   <g id="text_22">
    <!-- B1(3) -->
    <g style="fill:#ffffff;" transform="translate(475.617379 327.679167)scale(0.133333 -0.133333)">
     <use xlink:href="#DejaVuSans-66"/>
     <use x="68.603516" xlink:href="#DejaVuSans-49"/>
     <use x="132.226562" xlink:href="#DejaVuSans-40"/>
     <use x="171.240234" xlink:href="#DejaVuSans-51"/>
     <use x="234.863281" xlink:href="#DejaVuSans-41"/>
    </g>
   </g>
   <g id="text_23">
    <!-- G1(R) -->
    <g style="fill:#ffffff;" transform="translate(733.095692 399.679167)scale(0.133333 -0.133333)">
     <use xlink:href="#DejaVuSans-71"/>
     <use x="77.490234" xlink:href="#DejaVuSans-49"/>
     <use x="141.113281" xlink:href="#DejaVuSans-40"/>
     <use x="180.126953" xlink:href="#DejaVuSans-82"/>
     <use x="249.609375" xlink:href="#DejaVuSans-41"/>
    </g>
   </g>
   <g id="text_24">
    <!-- D3(5) -->
    <g style="fill:#ffffff;" transform="translate(733.518609 111.679167)scale(0.133333 -0.133333)">
     <use xlink:href="#DejaVuSans-68"/>
     <use x="77.001953" xlink:href="#DejaVuSans-51"/>
     <use x="140.625" xlink:href="#DejaVuSans-40"/>
     <use x="179.638672" xlink:href="#DejaVuSans-53"/>
     <use x="243.261719" xlink:href="#DejaVuSans-41"/>
    </g>
   </g>
   <g id="text_25">
    <!-- G3(R) -->
    <g style="fill:#ffffff;" transform="translate(733.095692 39.679167)scale(0.133333 -0.133333)">
     <use xlink:href="#DejaVuSans-71"/>
     <use x="77.490234" xlink:href="#DejaVuSans-51"/>
     <use x="141.113281" xlink:href="#DejaVuSans-40"/>
     <use x="180.126953" xlink:href="#DejaVuSans-82"/>
     <use x="249.609375" xlink:href="#DejaVuSans-41"/>
    </g>
   </g>
   <g id="text_26">
    <!-- B2(3) -->
    <g style="fill:#ffffff;" transform="translate(978.03231 183.679167)scale(0.133333 -0.133333)">
     <use xlink:href="#DejaVuSans-66"/>
     <use x="68.603516" xlink:href="#DejaVuSans-50"/>
     <use x="132.226562" xlink:href="#DejaVuSans-40"/>
     <use x="171.240234" xlink:href="#DejaVuSans-51"/>
     <use x="234.863281" xlink:href="#DejaVuSans-41"/>
    </g>
   </g>
   <g id="text_27">
    <!-- D2(5) -->
    <g style="fill:#ffffff;" transform="translate(1207.735156 327.679167)scale(0.133333 -0.133333)">
     <use xlink:href="#DejaVuSans-68"/>
     <use x="77.001953" xlink:href="#DejaVuSans-50"/>
     <use x="140.625" xlink:href="#DejaVuSans-40"/>
     <use x="179.638672" xlink:href="#DejaVuSans-53"/>
     <use x="243.261719" xlink:href="#DejaVuSans-41"/>
    </g>
   </g>
   <g id="text_28">
    <!-- G2(R) -->
    <g style="fill:#ffffff;" transform="translate(1207.31224 255.679167)scale(0.133333 -0.133333)">
     <use xlink:href="#DejaVuSans-71"/>
     <use x="77.490234" xlink:href="#DejaVuSans-50"/>
     <use x="141.113281" xlink:href="#DejaVuSans-40"/>
     <use x="180.126953" xlink:href="#DejaVuSans-82"/>
     <use x="249.609375" xlink:href="#DejaVuSans-41"/>
    </g>
   </g>
   <g id="patch_32">
    <path d="M 79.2 426 
C 87.156093 426 94.787396 422.839011 100.413203 417.213203 
C 106.039011 411.587396 109.2 403.956093 109.2 396 
C 109.2 388.043907 106.039011 380.412604 100.413203 374.786797 
C 94.787396 369.160989 87.156093 366 79.2 366 
C 71.243907 366 63.612604 369.160989 57.986797 374.786797 
C 52.360989 380.412604 49.2 388.043907 49.2 396 
C 49.2 403.956093 52.360989 411.587396 57.986797 417.213203 
C 63.612604 422.839011 71.243907 426 79.2 426 
z
" style="fill:#d9d34c;stroke:#d9d34c;stroke-linejoin:miter;"/>
   </g>
   <g id="patch_33">
    <path d="M 79.2 66 
C 87.156093 66 94.787396 62.839011 100.413203 57.213203 
C 106.039011 51.587396 109.2 43.956093 109.2 36 
C 109.2 28.043907 106.039011 20.412604 100.413203 14.786797 
C 94.787396 9.160989 87.156093 6 79.2 6 
C 71.243907 6 63.612604 9.160989 57.986797 14.786797 
C 52.360989 20.412604 49.2 28.043907 49.2 36 
C 49.2 43.956093 52.360989 51.587396 57.986797 57.213203 
C 63.612604 62.839011 71.243907 66 79.2 66 
z
" style="fill:#d9d34c;stroke:#d9d34c;stroke-linejoin:miter;"/>
   </g>
   <g id="patch_34">
    <path d="M 276.070922 354 
C 284.027015 354 291.658318 350.839011 297.284125 345.213203 
C 302.909933 339.587396 306.070922 331.956093 306.070922 324 
C 306.070922 316.043907 302.909933 308.412604 297.284125 302.786797 
C 291.658318 297.160989 284.027015 294 276.070922 294 
C 268.114829 294 260.483526 297.160989 254.857718 302.786797 
C 249.231911 308.412604 246.070922 316.043907 246.070922 324 
C 246.070922 331.956093 249.231911 339.587396 254.857718 345.213203 
C 260.483526 350.839011 268.114829 354 276.070922 354 
z
" style="fill:#d9d34c;stroke:#d9d34c;stroke-linejoin:miter;"/>
   </g>
   <g id="patch_35">
    <path d="M 546.756029 282 
C 554.712122 282 562.343425 278.839011 567.969232 273.213203 
C 573.59504 267.587396 576.756029 259.956093 576.756029 252 
C 576.756029 244.043907 573.59504 236.412604 567.969232 230.786797 
C 562.343425 225.160989 554.712122 222 546.756029 222 
C 538.799936 222 531.168633 225.160989 525.542825 230.786797 
C 519.917018 236.412604 516.756029 244.043907 516.756029 252 
C 516.756029 259.956093 519.917018 267.587396 525.542825 273.213203 
C 531.168633 278.839011 538.799936 282 546.756029 282 
z
" style="fill:#d9d34c;stroke:#d9d34c;stroke-linejoin:miter;"/>
   </g>
   <g id="patch_36">
    <path d="M 546.756029 138 
C 554.712122 138 562.343425 134.839011 567.969232 129.213203 
C 573.59504 123.587396 576.756029 115.956093 576.756029 108 
C 576.756029 100.043907 573.59504 92.412604 567.969232 86.786797 
C 562.343425 81.160989 554.712122 78 546.756029 78 
C 538.799936 78 531.168633 81.160989 525.542825 86.786797 
C 519.917018 92.412604 516.756029 100.043907 516.756029 108 
C 516.756029 115.956093 519.917018 123.587396 525.542825 129.213203 
C 531.168633 134.839011 538.799936 138 546.756029 138 
z
" style="fill:#d9d34c;stroke:#d9d34c;stroke-linejoin:miter;"/>
   </g>
   <g id="patch_37">
    <path d="M 802.248748 210 
C 810.204841 210 817.836144 206.839011 823.461952 201.213203 
C 829.087759 195.587396 832.248748 187.956093 832.248748 180 
C 832.248748 172.043907 829.087759 164.412604 823.461952 158.786797 
C 817.836144 153.160989 810.204841 150 802.248748 150 
C 794.292655 150 786.661352 153.160989 781.035545 158.786797 
C 775.409738 164.412604 772.248748 172.043907 772.248748 180 
C 772.248748 187.956093 775.409738 195.587396 781.035545 201.213203 
C 786.661352 206.839011 794.292655 210 802.248748 210 
z
" style="fill:#d9d34c;stroke:#d9d34c;stroke-linejoin:miter;"/>
   </g>
   <g id="patch_38">
    <path d="M 1043.401763 354 
C 1051.357856 354 1058.989159 350.839011 1064.614967 345.213203 
C 1070.240774 339.587396 1073.401763 331.956093 1073.401763 324 
C 1073.401763 316.043907 1070.240774 308.412604 1064.614967 302.786797 
C 1058.989159 297.160989 1051.357856 294 1043.401763 294 
C 1035.44567 294 1027.814367 297.160989 1022.18856 302.786797 
C 1016.562752 308.412604 1013.401763 316.043907 1013.401763 324 
C 1013.401763 331.956093 1016.562752 339.587396 1022.18856 345.213203 
C 1027.814367 350.839011 1035.44567 354 1043.401763 354 
z
" style="fill:#d9d34c;stroke:#d9d34c;stroke-linejoin:miter;"/>
   </g>
   <g id="patch_39">
    <path d="M 1271.019899 138 
C 1278.975992 138 1286.607296 134.839011 1292.233103 129.213203 
C 1297.85891 123.587396 1301.019899 115.956093 1301.019899 108 
C 1301.019899 100.043907 1297.85891 92.412604 1292.233103 86.786797 
C 1286.607296 81.160989 1278.975992 78 1271.019899 78 
C 1263.063806 78 1255.432503 81.160989 1249.806696 86.786797 
C 1244.180889 92.412604 1241.019899 100.043907 1241.019899 108 
C 1241.019899 115.956093 1244.180889 123.587396 1249.806696 129.213203 
C 1255.432503 134.839011 1263.063806 138 1271.019899 138 
z
" style="fill:#d9d34c;stroke:#d9d34c;stroke-linejoin:miter;"/>
   </g>
   <g id="text_29">
    <!-- E1(5) -->
    <g style="fill:#ffffff;" transform="translate(61.302083 399.679167)scale(0.133333 -0.133333)">
     <use xlink:href="#DejaVuSans-69"/>
     <use x="63.183594" xlink:href="#DejaVuSans-49"/>
     <use x="126.806641" xlink:href="#DejaVuSans-40"/>
     <use x="165.820312" xlink:href="#DejaVuSans-53"/>
     <use x="229.443359" xlink:href="#DejaVuSans-41"/>
    </g>
   </g>
   <g id="text_30">
    <!-- E3(5) -->
    <g style="fill:#ffffff;" transform="translate(61.302083 39.679167)scale(0.133333 -0.133333)">
     <use xlink:href="#DejaVuSans-69"/>
     <use x="63.183594" xlink:href="#DejaVuSans-51"/>
     <use x="126.806641" xlink:href="#DejaVuSans-40"/>
     <use x="165.820312" xlink:href="#DejaVuSans-53"/>
     <use x="229.443359" xlink:href="#DejaVuSans-41"/>
    </g>
   </g>
   <g id="text_31">
    <!-- A#1(R) -->
    <defs>
     <path d="M 34.1875 63.1875 
L 20.796875 26.90625 
L 47.609375 26.90625 
z
M 28.609375 72.90625 
L 39.796875 72.90625 
L 67.578125 0 
L 57.328125 0 
L 50.6875 18.703125 
L 17.828125 18.703125 
L 11.1875 0 
L 0.78125 0 
z
" id="DejaVuSans-65"/>
     <path d="M 51.125 44 
L 36.921875 44 
L 32.8125 27.6875 
L 47.125 27.6875 
z
M 43.796875 71.78125 
L 38.71875 51.515625 
L 52.984375 51.515625 
L 58.109375 71.78125 
L 65.921875 71.78125 
L 60.890625 51.515625 
L 76.125 51.515625 
L 76.125 44 
L 58.984375 44 
L 54.984375 27.6875 
L 70.515625 27.6875 
L 70.515625 20.21875 
L 53.078125 20.21875 
L 48 0 
L 40.1875 0 
L 45.21875 20.21875 
L 30.90625 20.21875 
L 25.875 0 
L 18.015625 0 
L 23.09375 20.21875 
L 7.71875 20.21875 
L 7.71875 27.6875 
L 24.90625 27.6875 
L 29 44 
L 13.28125 44 
L 13.28125 51.515625 
L 30.90625 51.515625 
L 35.890625 71.78125 
z
" id="DejaVuSans-35"/>
    </defs>
    <g style="fill:#ffffff;" transform="translate(251.848005 327.679167)scale(0.133333 -0.133333)">
     <use xlink:href="#DejaVuSans-65"/>
     <use x="68.408203" xlink:href="#DejaVuSans-35"/>
     <use x="152.197266" xlink:href="#DejaVuSans-49"/>
     <use x="215.820312" xlink:href="#DejaVuSans-40"/>
     <use x="254.833984" xlink:href="#DejaVuSans-82"/>
     <use x="324.316406" xlink:href="#DejaVuSans-41"/>
    </g>
   </g>
   <g id="text_32">
    <!-- E2(5) -->
    <g style="fill:#ffffff;" transform="translate(528.858112 255.679167)scale(0.133333 -0.133333)">
     <use xlink:href="#DejaVuSans-69"/>
     <use x="63.183594" xlink:href="#DejaVuSans-50"/>
     <use x="126.806641" xlink:href="#DejaVuSans-40"/>
     <use x="165.820312" xlink:href="#DejaVuSans-53"/>
     <use x="229.443359" xlink:href="#DejaVuSans-41"/>
    </g>
   </g>
   <g id="text_33">
    <!-- C#3(3) -->
    <g style="fill:#ffffff;" transform="translate(522.828946 111.679167)scale(0.133333 -0.133333)">
     <use xlink:href="#DejaVuSans-67"/>
     <use x="69.824219" xlink:href="#DejaVuSans-35"/>
     <use x="153.613281" xlink:href="#DejaVuSans-51"/>
     <use x="217.236328" xlink:href="#DejaVuSans-40"/>
     <use x="256.25" xlink:href="#DejaVuSans-51"/>
     <use x="319.873047" xlink:href="#DejaVuSans-41"/>
    </g>
   </g>
   <g id="text_34">
    <!-- A#2(R) -->
    <g style="fill:#ffffff;" transform="translate(778.025832 183.679167)scale(0.133333 -0.133333)">
     <use xlink:href="#DejaVuSans-65"/>
     <use x="68.408203" xlink:href="#DejaVuSans-35"/>
     <use x="152.197266" xlink:href="#DejaVuSans-50"/>
     <use x="215.820312" xlink:href="#DejaVuSans-40"/>
     <use x="254.833984" xlink:href="#DejaVuSans-82"/>
     <use x="324.316406" xlink:href="#DejaVuSans-41"/>
    </g>
   </g>
   <g id="text_35">
    <!-- C#2(3) -->
    <g style="fill:#ffffff;" transform="translate(1019.47468 327.679167)scale(0.133333 -0.133333)">
     <use xlink:href="#DejaVuSans-67"/>
     <use x="69.824219" xlink:href="#DejaVuSans-35"/>
     <use x="153.613281" xlink:href="#DejaVuSans-50"/>
     <use x="217.236328" xlink:href="#DejaVuSans-40"/>
     <use x="256.25" xlink:href="#DejaVuSans-51"/>
     <use x="319.873047" xlink:href="#DejaVuSans-41"/>
    </g>
   </g>
   <g id="text_36">
    <!-- E3(5) -->
    <g style="fill:#ffffff;" transform="translate(1253.121983 111.679167)scale(0.133333 -0.133333)">
     <use xlink:href="#DejaVuSans-69"/>
     <use x="63.183594" xlink:href="#DejaVuSans-51"/>
     <use x="126.806641" xlink:href="#DejaVuSans-40"/>
     <use x="165.820312" xlink:href="#DejaVuSans-53"/>
     <use x="229.443359" xlink:href="#DejaVuSans-41"/>
    </g>
   </g>
   <g id="patch_40">
    <path d="M 93.6 138 
C 101.556093 138 109.187396 134.839011 114.813203 129.213203 
C 120.439011 123.587396 123.6 115.956093 123.6 108 
C 123.6 100.043907 120.439011 92.412604 114.813203 86.786797 
C 109.187396 81.160989 101.556093 78 93.6 78 
C 85.643907 78 78.012604 81.160989 72.386797 86.786797 
C 66.760989 92.412604 63.6 100.043907 63.6 108 
C 63.6 115.956093 66.760989 123.587396 72.386797 129.213203 
C 78.012604 134.839011 85.643907 138 93.6 138 
z
" style="fill:#9fd94c;stroke:#9fd94c;stroke-linejoin:miter;"/>
   </g>
   <g id="patch_41">
    <path d="M 332.094562 282 
C 340.050655 282 347.681959 278.839011 353.307766 273.213203 
C 358.933573 267.587396 362.094562 259.956093 362.094562 252 
C 362.094562 244.043907 358.933573 236.412604 353.307766 230.786797 
C 347.681959 225.160989 340.050655 222 332.094562 222 
C 324.138469 222 316.507166 225.160989 310.881359 230.786797 
C 305.255552 236.412604 302.094562 244.043907 302.094562 252 
C 302.094562 259.956093 305.255552 267.587396 310.881359 273.213203 
C 316.507166 278.839011 324.138469 282 332.094562 282 
z
" style="fill:#9fd94c;stroke:#9fd94c;stroke-linejoin:miter;"/>
   </g>
   <g id="patch_42">
    <path d="M 599.635304 426 
C 607.591397 426 615.2227 422.839011 620.848508 417.213203 
C 626.474315 411.587396 629.635304 403.956093 629.635304 396 
C 629.635304 388.043907 626.474315 380.412604 620.848508 374.786797 
C 615.2227 369.160989 607.591397 366 599.635304 366 
C 591.679211 366 584.047908 369.160989 578.422101 374.786797 
C 572.796293 380.412604 569.635304 388.043907 569.635304 396 
C 569.635304 403.956093 572.796293 411.587396 578.422101 417.213203 
C 584.047908 422.839011 591.679211 426 599.635304 426 
z
" style="fill:#9fd94c;stroke:#9fd94c;stroke-linejoin:miter;"/>
   </g>
   <g id="patch_43">
    <path d="M 599.635304 354 
C 607.591397 354 615.2227 350.839011 620.848508 345.213203 
C 626.474315 339.587396 629.635304 331.956093 629.635304 324 
C 629.635304 316.043907 626.474315 308.412604 620.848508 302.786797 
C 615.2227 297.160989 607.591397 294 599.635304 294 
C 591.679211 294 584.047908 297.160989 578.422101 302.786797 
C 572.796293 308.412604 569.635304 316.043907 569.635304 324 
C 569.635304 331.956093 572.796293 339.587396 578.422101 345.213203 
C 584.047908 350.839011 591.679211 354 599.635304 354 
z
" style="fill:#9fd94c;stroke:#9fd94c;stroke-linejoin:miter;"/>
   </g>
   <g id="patch_44">
    <path d="M 599.635304 66 
C 607.591397 66 615.2227 62.839011 620.848508 57.213203 
C 626.474315 51.587396 629.635304 43.956093 629.635304 36 
C 629.635304 28.043907 626.474315 20.412604 620.848508 14.786797 
C 615.2227 9.160989 607.591397 6 599.635304 6 
C 591.679211 6 584.047908 9.160989 578.422101 14.786797 
C 572.796293 20.412604 569.635304 28.043907 569.635304 36 
C 569.635304 43.956093 572.796293 51.587396 578.422101 57.213203 
C 584.047908 62.839011 591.679211 66 599.635304 66 
z
" style="fill:#9fd94c;stroke:#9fd94c;stroke-linejoin:miter;"/>
   </g>
   <g id="patch_45">
    <path d="M 1090.511842 282 
C 1098.467935 282 1106.099238 278.839011 1111.725045 273.213203 
C 1117.350853 267.587396 1120.511842 259.956093 1120.511842 252 
C 1120.511842 244.043907 1117.350853 236.412604 1111.725045 230.786797 
C 1106.099238 225.160989 1098.467935 222 1090.511842 222 
C 1082.555749 222 1074.924446 225.160989 1069.298638 230.786797 
C 1063.672831 236.412604 1060.511842 244.043907 1060.511842 252 
C 1060.511842 259.956093 1063.672831 267.587396 1069.298638 273.213203 
C 1074.924446 278.839011 1082.555749 282 1090.511842 282 
z
" style="fill:#9fd94c;stroke:#9fd94c;stroke-linejoin:miter;"/>
   </g>
   <g id="patch_46">
    <path d="M 1090.511842 210 
C 1098.467935 210 1106.099238 206.839011 1111.725045 201.213203 
C 1117.350853 195.587396 1120.511842 187.956093 1120.511842 180 
C 1120.511842 172.043907 1117.350853 164.412604 1111.725045 158.786797 
C 1106.099238 153.160989 1098.467935 150 1090.511842 150 
C 1082.555749 150 1074.924446 153.160989 1069.298638 158.786797 
C 1063.672831 164.412604 1060.511842 172.043907 1060.511842 180 
C 1060.511842 187.956093 1063.672831 195.587396 1069.298638 201.213203 
C 1074.924446 206.839011 1082.555749 210 1090.511842 210 
z
" style="fill:#9fd94c;stroke:#9fd94c;stroke-linejoin:miter;"/>
   </g>
   <g id="patch_47">
    <path d="M 1090.511842 138 
C 1098.467935 138 1106.099238 134.839011 1111.725045 129.213203 
C 1117.350853 123.587396 1120.511842 115.956093 1120.511842 108 
C 1120.511842 100.043907 1117.350853 92.412604 1111.725045 86.786797 
C 1106.099238 81.160989 1098.467935 78 1090.511842 78 
C 1082.555749 78 1074.924446 81.160989 1069.298638 86.786797 
C 1063.672831 92.412604 1060.511842 100.043907 1060.511842 108 
C 1060.511842 115.956093 1063.672831 123.587396 1069.298638 129.213203 
C 1074.924446 134.839011 1082.555749 138 1090.511842 138 
z
" style="fill:#9fd94c;stroke:#9fd94c;stroke-linejoin:miter;"/>
   </g>
   <g id="text_37">
    <!-- B2(R) -->
    <g style="fill:#ffffff;" transform="translate(74.95 111.679167)scale(0.133333 -0.133333)">
     <use xlink:href="#DejaVuSans-66"/>
     <use x="68.603516" xlink:href="#DejaVuSans-50"/>
     <use x="132.226562" xlink:href="#DejaVuSans-40"/>
     <use x="171.240234" xlink:href="#DejaVuSans-82"/>
     <use x="240.722656" xlink:href="#DejaVuSans-41"/>
    </g>
   </g>
   <g id="text_38">
    <!-- D#2(3) -->
    <g style="fill:#ffffff;" transform="translate(307.689354 255.679167)scale(0.133333 -0.133333)">
     <use xlink:href="#DejaVuSans-68"/>
     <use x="77.001953" xlink:href="#DejaVuSans-35"/>
     <use x="160.791016" xlink:href="#DejaVuSans-50"/>
     <use x="224.414062" xlink:href="#DejaVuSans-40"/>
     <use x="263.427734" xlink:href="#DejaVuSans-51"/>
     <use x="327.050781" xlink:href="#DejaVuSans-41"/>
    </g>
   </g>
   <g id="text_39">
    <!-- F#1(5) -->
    <defs>
     <path d="M 9.8125 72.90625 
L 51.703125 72.90625 
L 51.703125 64.59375 
L 19.671875 64.59375 
L 19.671875 43.109375 
L 48.578125 43.109375 
L 48.578125 34.8125 
L 19.671875 34.8125 
L 19.671875 0 
L 9.8125 0 
z
" id="DejaVuSans-70"/>
    </defs>
    <g style="fill:#ffffff;" transform="translate(576.529054 399.679167)scale(0.133333 -0.133333)">
     <use xlink:href="#DejaVuSans-70"/>
     <use x="57.519531" xlink:href="#DejaVuSans-35"/>
     <use x="141.308594" xlink:href="#DejaVuSans-49"/>
     <use x="204.931641" xlink:href="#DejaVuSans-40"/>
     <use x="243.945312" xlink:href="#DejaVuSans-53"/>
     <use x="307.568359" xlink:href="#DejaVuSans-41"/>
    </g>
   </g>
   <g id="text_40">
    <!-- B1(R) -->
    <g style="fill:#ffffff;" transform="translate(580.985304 327.679167)scale(0.133333 -0.133333)">
     <use xlink:href="#DejaVuSans-66"/>
     <use x="68.603516" xlink:href="#DejaVuSans-49"/>
     <use x="132.226562" xlink:href="#DejaVuSans-40"/>
     <use x="171.240234" xlink:href="#DejaVuSans-82"/>
     <use x="240.722656" xlink:href="#DejaVuSans-41"/>
    </g>
   </g>
   <g id="text_41">
    <!-- F#3(5) -->
    <g style="fill:#ffffff;" transform="translate(576.529054 39.679167)scale(0.133333 -0.133333)">
     <use xlink:href="#DejaVuSans-70"/>
     <use x="57.519531" xlink:href="#DejaVuSans-35"/>
     <use x="141.308594" xlink:href="#DejaVuSans-51"/>
     <use x="204.931641" xlink:href="#DejaVuSans-40"/>
     <use x="243.945312" xlink:href="#DejaVuSans-53"/>
     <use x="307.568359" xlink:href="#DejaVuSans-41"/>
    </g>
   </g>
   <g id="text_42">
    <!-- F#2(5) -->
    <g style="fill:#ffffff;" transform="translate(1067.405592 255.679167)scale(0.133333 -0.133333)">
     <use xlink:href="#DejaVuSans-70"/>
     <use x="57.519531" xlink:href="#DejaVuSans-35"/>
     <use x="141.308594" xlink:href="#DejaVuSans-50"/>
     <use x="204.931641" xlink:href="#DejaVuSans-40"/>
     <use x="243.945312" xlink:href="#DejaVuSans-53"/>
     <use x="307.568359" xlink:href="#DejaVuSans-41"/>
    </g>
   </g>
   <g id="text_43">
    <!-- B2(R) -->
    <g style="fill:#ffffff;" transform="translate(1071.861842 183.679167)scale(0.133333 -0.133333)">
     <use xlink:href="#DejaVuSans-66"/>
     <use x="68.603516" xlink:href="#DejaVuSans-50"/>
     <use x="132.226562" xlink:href="#DejaVuSans-40"/>
     <use x="171.240234" xlink:href="#DejaVuSans-82"/>
     <use x="240.722656" xlink:href="#DejaVuSans-41"/>
    </g>
   </g>
   <g id="text_44">
    <!-- D#3(3) -->
    <g style="fill:#ffffff;" transform="translate(1066.106633 111.679167)scale(0.133333 -0.133333)">
     <use xlink:href="#DejaVuSans-68"/>
     <use x="77.001953" xlink:href="#DejaVuSans-35"/>
     <use x="160.791016" xlink:href="#DejaVuSans-51"/>
     <use x="224.414062" xlink:href="#DejaVuSans-40"/>
     <use x="263.427734" xlink:href="#DejaVuSans-51"/>
     <use x="327.050781" xlink:href="#DejaVuSans-41"/>
    </g>
   </g>
  </g>
 </g>
 <defs>
  <clipPath id="p08aed198a1">
   <rect height="432" width="1323.951885" x="36" y="0"/>
  </clipPath>
 </defs>
</svg>
