<?xml version="1.0" encoding="utf-8" standalone="no"?>
<!DOCTYPE svg PUBLIC "-//W3C//DTD SVG 1.1//EN"
  "http://www.w3.org/Graphics/SVG/1.1/DTD/svg11.dtd">
<!-- Created with matplotlib (https://matplotlib.org/) -->
<svg height="432pt" version="1.1" viewBox="0 0 2333.85607 432" width="2333.85607pt" xmlns="http://www.w3.org/2000/svg" xmlns:xlink="http://www.w3.org/1999/xlink">
 <defs>
  <style type="text/css">
*{stroke-linecap:butt;stroke-linejoin:round;}
  </style>
 </defs>
 <g id="figure_1">
  <g id="patch_1">
   <path d="M 0 432 
L 2333.85607 432 
L 2333.85607 0 
L 0 0 
z
" style="fill:#ffffff;"/>
  </g>
  <g id="axes_1">
   <g id="patch_2">
    <path clip-path="url(#pcc741752b4)" d="M 777.293053 216 
L 902.071528 216 
L 902.071528 36 
L 777.293053 36 
z
" style="fill:#cccccc;"/>
   </g>
   <g id="patch_3">
    <path clip-path="url(#pcc741752b4)" d="M 1248.786903 216 
L 1359.951885 216 
L 1359.951885 36 
L 1248.786903 36 
z
" style="fill:#cccccc;"/>
   </g>
   <g id="patch_4">
    <path clip-path="url(#pcc741752b4)" d="M 1668.840169 216 
L 1767.876909 216 
L 1767.876909 36 
L 1668.840169 36 
z
" style="fill:#cccccc;"/>
   </g>
   <g id="patch_5">
    <path clip-path="url(#pcc741752b4)" d="M 2043.065085 216 
L 2131.29679 216 
L 2131.29679 36 
L 2043.065085 36 
z
" style="fill:#cccccc;"/>
   </g>
   <g id="patch_6">
    <path clip-path="url(#pcc741752b4)" d="M 2529.260821 396 
L 2603.454545 396 
L 2603.454545 36 
L 2529.260821 36 
z
" style="fill:#cccccc;"/>
   </g>
   <g id="patch_7">
    <path clip-path="url(#pcc741752b4)" d="M 2938.101072 216 
L 3000.490309 216 
L 3000.490309 36 
L 2938.101072 36 
z
" style="fill:#cccccc;"/>
   </g>
   <g id="patch_8">
    <path clip-path="url(#pcc741752b4)" d="M 3173.847997 216 
L 3229.430488 216 
L 3229.430488 36 
L 3173.847997 36 
z
" style="fill:#cccccc;"/>
   </g>
   <g id="patch_9">
    <path clip-path="url(#pcc741752b4)" d="M 3383.87463 216 
L 3433.393 216 
L 3433.393 36 
L 3383.87463 36 
z
" style="fill:#cccccc;"/>
   </g>
   <g id="patch_10">
    <path clip-path="url(#pcc741752b4)" d="M 3570.987088 216 
L 3615.102941 216 
L 3615.102941 36 
L 3570.987088 36 
z
" style="fill:#cccccc;"/>
   </g>
   <g id="line2d_1">
    <path clip-path="url(#pcc741752b4)" d="M 108 396 
L 108 36 
" style="fill:none;stroke:#000000;stroke-width:10;"/>
   </g>
   <g id="line2d_2">
    <path clip-path="url(#pcc741752b4)" style="fill:none;stroke:#000000;stroke-width:5;"/>
   </g>
   <g id="line2d_3">
    <path clip-path="url(#pcc741752b4)" d="M 36 396 
L 36 36 
" style="fill:none;stroke:#000000;stroke-width:3;"/>
   </g>
   <g id="line2d_4">
    <path clip-path="url(#pcc741752b4)" d="M 108 396 
L 108 36 
" style="fill:none;stroke:#000000;stroke-width:3;"/>
   </g>
   <g id="line2d_5">
    <path clip-path="url(#pcc741752b4)" d="M 388.118203 396 
L 388.118203 36 
" style="fill:none;stroke:#000000;stroke-width:3;"/>
   </g>
   <g id="line2d_6">
    <path clip-path="url(#pcc741752b4)" d="M 652.514579 396 
L 652.514579 36 
" style="fill:none;stroke:#000000;stroke-width:3;"/>
   </g>
   <g id="line2d_7">
    <path clip-path="url(#pcc741752b4)" d="M 902.071528 396 
L 902.071528 36 
" style="fill:none;stroke:#000000;stroke-width:3;"/>
   </g>
   <g id="line2d_8">
    <path clip-path="url(#pcc741752b4)" d="M 1137.62192 396 
L 1137.62192 36 
" style="fill:none;stroke:#000000;stroke-width:3;"/>
   </g>
   <g id="line2d_9">
    <path clip-path="url(#pcc741752b4)" d="M 1359.951885 396 
L 1359.951885 36 
" style="fill:none;stroke:#000000;stroke-width:3;"/>
   </g>
   <g id="line2d_10">
    <path clip-path="url(#pcc741752b4)" d="M 1569.803428 396 
L 1569.803428 36 
" style="fill:none;stroke:#000000;stroke-width:3;"/>
   </g>
   <g id="line2d_11">
    <path clip-path="url(#pcc741752b4)" d="M 1767.876909 396 
L 1767.876909 36 
" style="fill:none;stroke:#000000;stroke-width:3;"/>
   </g>
   <g id="line2d_12">
    <path clip-path="url(#pcc741752b4)" d="M 1954.83338 396 
L 1954.83338 36 
" style="fill:none;stroke:#000000;stroke-width:3;"/>
   </g>
   <g id="line2d_13">
    <path clip-path="url(#pcc741752b4)" d="M 2131.29679 396 
L 2131.29679 36 
" style="fill:none;stroke:#000000;stroke-width:3;"/>
   </g>
   <g id="line2d_14">
    <path clip-path="url(#pcc741752b4)" d="M 2297.85607 396 
L 2297.85607 36 
" style="fill:none;stroke:#000000;stroke-width:3;"/>
   </g>
   <g id="line2d_15">
    <path clip-path="url(#pcc741752b4)" d="M 36 396 
L 2334.85607 396 
" style="fill:none;stroke:#808080;stroke-linecap:square;stroke-width:3;"/>
   </g>
   <g id="line2d_16">
    <path clip-path="url(#pcc741752b4)" d="M 36 324 
L 2334.85607 324 
" style="fill:none;stroke:#808080;stroke-linecap:square;stroke-width:3;"/>
   </g>
   <g id="line2d_17">
    <path clip-path="url(#pcc741752b4)" d="M 36 252 
L 2334.85607 252 
" style="fill:none;stroke:#808080;stroke-linecap:square;stroke-width:3;"/>
   </g>
   <g id="line2d_18">
    <path clip-path="url(#pcc741752b4)" d="M 36 180 
L 2334.85607 180 
" style="fill:none;stroke:#808080;stroke-linecap:square;stroke-width:3;"/>
   </g>
   <g id="line2d_19">
    <path clip-path="url(#pcc741752b4)" d="M 36 108 
L 2334.85607 108 
" style="fill:none;stroke:#808080;stroke-linecap:square;stroke-width:3;"/>
   </g>
   <g id="line2d_20">
    <path clip-path="url(#pcc741752b4)" d="M 36 36 
L 2334.85607 36 
" style="fill:none;stroke:#808080;stroke-linecap:square;stroke-width:3;"/>
   </g>
   <g id="text_1">
    <!-- -1 -->
    <defs>
     <path d="M 4.890625 31.390625 
L 31.203125 31.390625 
L 31.203125 23.390625 
L 4.890625 23.390625 
z
" id="DejaVuSans-45"/>
     <path d="M 12.40625 8.296875 
L 28.515625 8.296875 
L 28.515625 63.921875 
L 10.984375 60.40625 
L 10.984375 69.390625 
L 28.421875 72.90625 
L 38.28125 72.90625 
L 38.28125 8.296875 
L 54.390625 8.296875 
L 54.390625 0 
L 12.40625 0 
z
" id="DejaVuSans-49"/>
    </defs>
    <g style="fill:#0000ff;" transform="translate(27.275977 428.521214)scale(0.175 -0.175)">
     <use xlink:href="#DejaVuSans-45"/>
     <use x="36.083984" xlink:href="#DejaVuSans-49"/>
    </g>
   </g>
   <g id="text_2">
    <!-- 0 -->
    <defs>
     <path d="M 31.78125 66.40625 
Q 24.171875 66.40625 20.328125 58.90625 
Q 16.5 51.421875 16.5 36.375 
Q 16.5 21.390625 20.328125 13.890625 
Q 24.171875 6.390625 31.78125 6.390625 
Q 39.453125 6.390625 43.28125 13.890625 
Q 47.125 21.390625 47.125 36.375 
Q 47.125 51.421875 43.28125 58.90625 
Q 39.453125 66.40625 31.78125 66.40625 
z
M 31.78125 74.21875 
Q 44.046875 74.21875 50.515625 64.515625 
Q 56.984375 54.828125 56.984375 36.375 
Q 56.984375 17.96875 50.515625 8.265625 
Q 44.046875 -1.421875 31.78125 -1.421875 
Q 19.53125 -1.421875 13.0625 8.265625 
Q 6.59375 17.96875 6.59375 36.375 
Q 6.59375 54.828125 13.0625 64.515625 
Q 19.53125 74.21875 31.78125 74.21875 
z
" id="DejaVuSans-48"/>
    </defs>
    <g style="fill:#0000ff;" transform="translate(102.432812 428.521214)scale(0.175 -0.175)">
     <use xlink:href="#DejaVuSans-48"/>
    </g>
   </g>
   <g id="text_3">
    <!-- 1 -->
    <g style="fill:#0000ff;" transform="translate(382.551016 428.521214)scale(0.175 -0.175)">
     <use xlink:href="#DejaVuSans-49"/>
    </g>
   </g>
   <g id="text_4">
    <!-- 2 -->
    <defs>
     <path d="M 19.1875 8.296875 
L 53.609375 8.296875 
L 53.609375 0 
L 7.328125 0 
L 7.328125 8.296875 
Q 12.9375 14.109375 22.625 23.890625 
Q 32.328125 33.6875 34.8125 36.53125 
Q 39.546875 41.84375 41.421875 45.53125 
Q 43.3125 49.21875 43.3125 52.78125 
Q 43.3125 58.59375 39.234375 62.25 
Q 35.15625 65.921875 28.609375 65.921875 
Q 23.96875 65.921875 18.8125 64.3125 
Q 13.671875 62.703125 7.8125 59.421875 
L 7.8125 69.390625 
Q 13.765625 71.78125 18.9375 73 
Q 24.125 74.21875 28.421875 74.21875 
Q 39.75 74.21875 46.484375 68.546875 
Q 53.21875 62.890625 53.21875 53.421875 
Q 53.21875 48.921875 51.53125 44.890625 
Q 49.859375 40.875 45.40625 35.40625 
Q 44.1875 33.984375 37.640625 27.21875 
Q 31.109375 20.453125 19.1875 8.296875 
z
" id="DejaVuSans-50"/>
    </defs>
    <g style="fill:#0000ff;" transform="translate(646.947392 428.521214)scale(0.175 -0.175)">
     <use xlink:href="#DejaVuSans-50"/>
    </g>
   </g>
   <g id="text_5">
    <!-- 3 -->
    <defs>
     <path d="M 40.578125 39.3125 
Q 47.65625 37.796875 51.625 33 
Q 55.609375 28.21875 55.609375 21.1875 
Q 55.609375 10.40625 48.1875 4.484375 
Q 40.765625 -1.421875 27.09375 -1.421875 
Q 22.515625 -1.421875 17.65625 -0.515625 
Q 12.796875 0.390625 7.625 2.203125 
L 7.625 11.71875 
Q 11.71875 9.328125 16.59375 8.109375 
Q 21.484375 6.890625 26.8125 6.890625 
Q 36.078125 6.890625 40.9375 10.546875 
Q 45.796875 14.203125 45.796875 21.1875 
Q 45.796875 27.640625 41.28125 31.265625 
Q 36.765625 34.90625 28.71875 34.90625 
L 20.21875 34.90625 
L 20.21875 43.015625 
L 29.109375 43.015625 
Q 36.375 43.015625 40.234375 45.921875 
Q 44.09375 48.828125 44.09375 54.296875 
Q 44.09375 59.90625 40.109375 62.90625 
Q 36.140625 65.921875 28.71875 65.921875 
Q 24.65625 65.921875 20.015625 65.03125 
Q 15.375 64.15625 9.8125 62.3125 
L 9.8125 71.09375 
Q 15.4375 72.65625 20.34375 73.4375 
Q 25.25 74.21875 29.59375 74.21875 
Q 40.828125 74.21875 47.359375 69.109375 
Q 53.90625 64.015625 53.90625 55.328125 
Q 53.90625 49.265625 50.4375 45.09375 
Q 46.96875 40.921875 40.578125 39.3125 
z
" id="DejaVuSans-51"/>
    </defs>
    <g style="fill:#0000ff;" transform="translate(896.50434 428.521214)scale(0.175 -0.175)">
     <use xlink:href="#DejaVuSans-51"/>
    </g>
   </g>
   <g id="text_6">
    <!-- 4 -->
    <defs>
     <path d="M 37.796875 64.3125 
L 12.890625 25.390625 
L 37.796875 25.390625 
z
M 35.203125 72.90625 
L 47.609375 72.90625 
L 47.609375 25.390625 
L 58.015625 25.390625 
L 58.015625 17.1875 
L 47.609375 17.1875 
L 47.609375 0 
L 37.796875 0 
L 37.796875 17.1875 
L 4.890625 17.1875 
L 4.890625 26.703125 
z
" id="DejaVuSans-52"/>
    </defs>
    <g style="fill:#0000ff;" transform="translate(1132.054733 428.521214)scale(0.175 -0.175)">
     <use xlink:href="#DejaVuSans-52"/>
    </g>
   </g>
   <g id="text_7">
    <!-- 5 -->
    <defs>
     <path d="M 10.796875 72.90625 
L 49.515625 72.90625 
L 49.515625 64.59375 
L 19.828125 64.59375 
L 19.828125 46.734375 
Q 21.96875 47.46875 24.109375 47.828125 
Q 26.265625 48.1875 28.421875 48.1875 
Q 40.625 48.1875 47.75 41.5 
Q 54.890625 34.8125 54.890625 23.390625 
Q 54.890625 11.625 47.5625 5.09375 
Q 40.234375 -1.421875 26.90625 -1.421875 
Q 22.3125 -1.421875 17.546875 -0.640625 
Q 12.796875 0.140625 7.71875 1.703125 
L 7.71875 11.625 
Q 12.109375 9.234375 16.796875 8.0625 
Q 21.484375 6.890625 26.703125 6.890625 
Q 35.15625 6.890625 40.078125 11.328125 
Q 45.015625 15.765625 45.015625 23.390625 
Q 45.015625 31 40.078125 35.4375 
Q 35.15625 39.890625 26.703125 39.890625 
Q 22.75 39.890625 18.8125 39.015625 
Q 14.890625 38.140625 10.796875 36.28125 
z
" id="DejaVuSans-53"/>
    </defs>
    <g style="fill:#0000ff;" transform="translate(1354.384698 428.521214)scale(0.175 -0.175)">
     <use xlink:href="#DejaVuSans-53"/>
    </g>
   </g>
   <g id="text_8">
    <!-- 6 -->
    <defs>
     <path d="M 33.015625 40.375 
Q 26.375 40.375 22.484375 35.828125 
Q 18.609375 31.296875 18.609375 23.390625 
Q 18.609375 15.53125 22.484375 10.953125 
Q 26.375 6.390625 33.015625 6.390625 
Q 39.65625 6.390625 43.53125 10.953125 
Q 47.40625 15.53125 47.40625 23.390625 
Q 47.40625 31.296875 43.53125 35.828125 
Q 39.65625 40.375 33.015625 40.375 
z
M 52.59375 71.296875 
L 52.59375 62.3125 
Q 48.875 64.0625 45.09375 64.984375 
Q 41.3125 65.921875 37.59375 65.921875 
Q 27.828125 65.921875 22.671875 59.328125 
Q 17.53125 52.734375 16.796875 39.40625 
Q 19.671875 43.65625 24.015625 45.921875 
Q 28.375 48.1875 33.59375 48.1875 
Q 44.578125 48.1875 50.953125 41.515625 
Q 57.328125 34.859375 57.328125 23.390625 
Q 57.328125 12.15625 50.6875 5.359375 
Q 44.046875 -1.421875 33.015625 -1.421875 
Q 20.359375 -1.421875 13.671875 8.265625 
Q 6.984375 17.96875 6.984375 36.375 
Q 6.984375 53.65625 15.1875 63.9375 
Q 23.390625 74.21875 37.203125 74.21875 
Q 40.921875 74.21875 44.703125 73.484375 
Q 48.484375 72.75 52.59375 71.296875 
z
" id="DejaVuSans-54"/>
    </defs>
    <g style="fill:#0000ff;" transform="translate(1564.236241 428.521214)scale(0.175 -0.175)">
     <use xlink:href="#DejaVuSans-54"/>
    </g>
   </g>
   <g id="text_9">
    <!-- 7 -->
    <defs>
     <path d="M 8.203125 72.90625 
L 55.078125 72.90625 
L 55.078125 68.703125 
L 28.609375 0 
L 18.3125 0 
L 43.21875 64.59375 
L 8.203125 64.59375 
z
" id="DejaVuSans-55"/>
    </defs>
    <g style="fill:#0000ff;" transform="translate(1762.309722 428.521214)scale(0.175 -0.175)">
     <use xlink:href="#DejaVuSans-55"/>
    </g>
   </g>
   <g id="text_10">
    <!-- 8 -->
    <defs>
     <path d="M 31.78125 34.625 
Q 24.75 34.625 20.71875 30.859375 
Q 16.703125 27.09375 16.703125 20.515625 
Q 16.703125 13.921875 20.71875 10.15625 
Q 24.75 6.390625 31.78125 6.390625 
Q 38.8125 6.390625 42.859375 10.171875 
Q 46.921875 13.96875 46.921875 20.515625 
Q 46.921875 27.09375 42.890625 30.859375 
Q 38.875 34.625 31.78125 34.625 
z
M 21.921875 38.8125 
Q 15.578125 40.375 12.03125 44.71875 
Q 8.5 49.078125 8.5 55.328125 
Q 8.5 64.0625 14.71875 69.140625 
Q 20.953125 74.21875 31.78125 74.21875 
Q 42.671875 74.21875 48.875 69.140625 
Q 55.078125 64.0625 55.078125 55.328125 
Q 55.078125 49.078125 51.53125 44.71875 
Q 48 40.375 41.703125 38.8125 
Q 48.828125 37.15625 52.796875 32.3125 
Q 56.78125 27.484375 56.78125 20.515625 
Q 56.78125 9.90625 50.3125 4.234375 
Q 43.84375 -1.421875 31.78125 -1.421875 
Q 19.734375 -1.421875 13.25 4.234375 
Q 6.78125 9.90625 6.78125 20.515625 
Q 6.78125 27.484375 10.78125 32.3125 
Q 14.796875 37.15625 21.921875 38.8125 
z
M 18.3125 54.390625 
Q 18.3125 48.734375 21.84375 45.5625 
Q 25.390625 42.390625 31.78125 42.390625 
Q 38.140625 42.390625 41.71875 45.5625 
Q 45.3125 48.734375 45.3125 54.390625 
Q 45.3125 60.0625 41.71875 63.234375 
Q 38.140625 66.40625 31.78125 66.40625 
Q 25.390625 66.40625 21.84375 63.234375 
Q 18.3125 60.0625 18.3125 54.390625 
z
" id="DejaVuSans-56"/>
    </defs>
    <g style="fill:#0000ff;" transform="translate(1949.266193 428.521214)scale(0.175 -0.175)">
     <use xlink:href="#DejaVuSans-56"/>
    </g>
   </g>
   <g id="text_11">
    <!-- 9 -->
    <defs>
     <path d="M 10.984375 1.515625 
L 10.984375 10.5 
Q 14.703125 8.734375 18.5 7.8125 
Q 22.3125 6.890625 25.984375 6.890625 
Q 35.75 6.890625 40.890625 13.453125 
Q 46.046875 20.015625 46.78125 33.40625 
Q 43.953125 29.203125 39.59375 26.953125 
Q 35.25 24.703125 29.984375 24.703125 
Q 19.046875 24.703125 12.671875 31.3125 
Q 6.296875 37.9375 6.296875 49.421875 
Q 6.296875 60.640625 12.9375 67.421875 
Q 19.578125 74.21875 30.609375 74.21875 
Q 43.265625 74.21875 49.921875 64.515625 
Q 56.59375 54.828125 56.59375 36.375 
Q 56.59375 19.140625 48.40625 8.859375 
Q 40.234375 -1.421875 26.421875 -1.421875 
Q 22.703125 -1.421875 18.890625 -0.6875 
Q 15.09375 0.046875 10.984375 1.515625 
z
M 30.609375 32.421875 
Q 37.25 32.421875 41.125 36.953125 
Q 45.015625 41.5 45.015625 49.421875 
Q 45.015625 57.28125 41.125 61.84375 
Q 37.25 66.40625 30.609375 66.40625 
Q 23.96875 66.40625 20.09375 61.84375 
Q 16.21875 57.28125 16.21875 49.421875 
Q 16.21875 41.5 20.09375 36.953125 
Q 23.96875 32.421875 30.609375 32.421875 
z
" id="DejaVuSans-57"/>
    </defs>
    <g style="fill:#0000ff;" transform="translate(2125.729603 428.521214)scale(0.175 -0.175)">
     <use xlink:href="#DejaVuSans-57"/>
    </g>
   </g>
   <g id="text_12">
    <!-- 10 -->
    <g style="fill:#0000ff;" transform="translate(2286.721695 428.521214)scale(0.175 -0.175)">
     <use xlink:href="#DejaVuSans-49"/>
     <use x="63.623047" xlink:href="#DejaVuSans-48"/>
    </g>
   </g>
   <g id="patch_11">
    <path d="M 72 426 
C 79.956093 426 87.587396 422.839011 93.213203 417.213203 
C 98.839011 411.587396 102 403.956093 102 396 
C 102 388.043907 98.839011 380.412604 93.213203 374.786797 
C 87.587396 369.160989 79.956093 366 72 366 
C 64.043907 366 56.412604 369.160989 50.786797 374.786797 
C 45.160989 380.412604 42 388.043907 42 396 
C 42 403.956093 45.160989 411.587396 50.786797 417.213203 
C 56.412604 422.839011 64.043907 426 72 426 
z
" style="fill:#d9544c;stroke:#d9544c;stroke-linejoin:miter;"/>
   </g>
   <g id="patch_12">
    <path d="M 72 354 
C 79.956093 354 87.587396 350.839011 93.213203 345.213203 
C 98.839011 339.587396 102 331.956093 102 324 
C 102 316.043907 98.839011 308.412604 93.213203 302.786797 
C 87.587396 297.160989 79.956093 294 72 294 
C 64.043907 294 56.412604 297.160989 50.786797 302.786797 
C 45.160989 308.412604 42 316.043907 42 324 
C 42 331.956093 45.160989 339.587396 50.786797 345.213203 
C 56.412604 350.839011 64.043907 354 72 354 
z
" style="fill:#d9544c;stroke:#d9544c;stroke-linejoin:miter;"/>
   </g>
   <g id="patch_13">
    <path d="M 72 210 
C 79.956093 210 87.587396 206.839011 93.213203 201.213203 
C 98.839011 195.587396 102 187.956093 102 180 
C 102 172.043907 98.839011 164.412604 93.213203 158.786797 
C 87.587396 153.160989 79.956093 150 72 150 
C 64.043907 150 56.412604 153.160989 50.786797 158.786797 
C 45.160989 164.412604 42 172.043907 42 180 
C 42 187.956093 45.160989 195.587396 50.786797 201.213203 
C 56.412604 206.839011 64.043907 210 72 210 
z
" style="fill:#d9544c;stroke:#d9544c;stroke-linejoin:miter;"/>
   </g>
   <g id="patch_14">
    <path d="M 72 66 
C 79.956093 66 87.587396 62.839011 93.213203 57.213203 
C 98.839011 51.587396 102 43.956093 102 36 
C 102 28.043907 98.839011 20.412604 93.213203 14.786797 
C 87.587396 9.160989 79.956093 6 72 6 
C 64.043907 6 56.412604 9.160989 50.786797 14.786797 
C 45.160989 20.412604 42 28.043907 42 36 
C 42 43.956093 45.160989 51.587396 50.786797 57.213203 
C 56.412604 62.839011 64.043907 66 72 66 
z
" style="fill:#d9544c;stroke:#d9544c;stroke-linejoin:miter;"/>
   </g>
   <g id="patch_15">
    <path d="M 248.059102 138 
C 256.015195 138 263.646498 134.839011 269.272305 129.213203 
C 274.898112 123.587396 278.059102 115.956093 278.059102 108 
C 278.059102 100.043907 274.898112 92.412604 269.272305 86.786797 
C 263.646498 81.160989 256.015195 78 248.059102 78 
C 240.103009 78 232.471705 81.160989 226.845898 86.786797 
C 221.220091 92.412604 218.059102 100.043907 218.059102 108 
C 218.059102 115.956093 221.220091 123.587396 226.845898 129.213203 
C 232.471705 134.839011 240.103009 138 248.059102 138 
z
" style="fill:#d9544c;stroke:#d9544c;stroke-linejoin:miter;"/>
   </g>
   <g id="patch_16">
    <path d="M 520.316391 282 
C 528.272484 282 535.903787 278.839011 541.529595 273.213203 
C 547.155402 267.587396 550.316391 259.956093 550.316391 252 
C 550.316391 244.043907 547.155402 236.412604 541.529595 230.786797 
C 535.903787 225.160989 528.272484 222 520.316391 222 
C 512.360298 222 504.728995 225.160989 499.103188 230.786797 
C 493.477381 236.412604 490.316391 244.043907 490.316391 252 
C 490.316391 259.956093 493.477381 267.587396 499.103188 273.213203 
C 504.728995 278.839011 512.360298 282 520.316391 282 
z
" style="fill:#d9544c;stroke:#d9544c;stroke-linejoin:miter;"/>
   </g>
   <g id="patch_17">
    <path d="M 520.316391 210 
C 528.272484 210 535.903787 206.839011 541.529595 201.213203 
C 547.155402 195.587396 550.316391 187.956093 550.316391 180 
C 550.316391 172.043907 547.155402 164.412604 541.529595 158.786797 
C 535.903787 153.160989 528.272484 150 520.316391 150 
C 512.360298 150 504.728995 153.160989 499.103188 158.786797 
C 493.477381 164.412604 490.316391 172.043907 490.316391 180 
C 490.316391 187.956093 493.477381 195.587396 499.103188 201.213203 
C 504.728995 206.839011 512.360298 210 520.316391 210 
z
" style="fill:#d9544c;stroke:#d9544c;stroke-linejoin:miter;"/>
   </g>
   <g id="patch_18">
    <path d="M 777.293053 426 
C 785.249146 426 792.88045 422.839011 798.506257 417.213203 
C 804.132064 411.587396 807.293053 403.956093 807.293053 396 
C 807.293053 388.043907 804.132064 380.412604 798.506257 374.786797 
C 792.88045 369.160989 785.249146 366 777.293053 366 
C 769.33696 366 761.705657 369.160989 756.07985 374.786797 
C 750.454043 380.412604 747.293053 388.043907 747.293053 396 
C 747.293053 403.956093 750.454043 411.587396 756.07985 417.213203 
C 761.705657 422.839011 769.33696 426 777.293053 426 
z
" style="fill:#d9544c;stroke:#d9544c;stroke-linejoin:miter;"/>
   </g>
   <g id="patch_19">
    <path d="M 777.293053 354 
C 785.249146 354 792.88045 350.839011 798.506257 345.213203 
C 804.132064 339.587396 807.293053 331.956093 807.293053 324 
C 807.293053 316.043907 804.132064 308.412604 798.506257 302.786797 
C 792.88045 297.160989 785.249146 294 777.293053 294 
C 769.33696 294 761.705657 297.160989 756.07985 302.786797 
C 750.454043 308.412604 747.293053 316.043907 747.293053 324 
C 747.293053 331.956093 750.454043 339.587396 756.07985 345.213203 
C 761.705657 350.839011 769.33696 354 777.293053 354 
z
" style="fill:#d9544c;stroke:#d9544c;stroke-linejoin:miter;"/>
   </g>
   <g id="patch_20">
    <path d="M 777.293053 66 
C 785.249146 66 792.88045 62.839011 798.506257 57.213203 
C 804.132064 51.587396 807.293053 43.956093 807.293053 36 
C 807.293053 28.043907 804.132064 20.412604 798.506257 14.786797 
C 792.88045 9.160989 785.249146 6 777.293053 6 
C 769.33696 6 761.705657 9.160989 756.07985 14.786797 
C 750.454043 20.412604 747.293053 28.043907 747.293053 36 
C 747.293053 43.956093 750.454043 51.587396 756.07985 57.213203 
C 761.705657 62.839011 769.33696 66 777.293053 66 
z
" style="fill:#d9544c;stroke:#d9544c;stroke-linejoin:miter;"/>
   </g>
   <g id="patch_21">
    <path d="M 1248.786903 426 
C 1256.742996 426 1264.374299 422.839011 1270.000106 417.213203 
C 1275.625914 411.587396 1278.786903 403.956093 1278.786903 396 
C 1278.786903 388.043907 1275.625914 380.412604 1270.000106 374.786797 
C 1264.374299 369.160989 1256.742996 366 1248.786903 366 
C 1240.83081 366 1233.199507 369.160989 1227.573699 374.786797 
C 1221.947892 380.412604 1218.786903 388.043907 1218.786903 396 
C 1218.786903 403.956093 1221.947892 411.587396 1227.573699 417.213203 
C 1233.199507 422.839011 1240.83081 426 1248.786903 426 
z
" style="fill:#d9544c;stroke:#d9544c;stroke-linejoin:miter;"/>
   </g>
   <g id="patch_22">
    <path d="M 1248.786903 282 
C 1256.742996 282 1264.374299 278.839011 1270.000106 273.213203 
C 1275.625914 267.587396 1278.786903 259.956093 1278.786903 252 
C 1278.786903 244.043907 1275.625914 236.412604 1270.000106 230.786797 
C 1264.374299 225.160989 1256.742996 222 1248.786903 222 
C 1240.83081 222 1233.199507 225.160989 1227.573699 230.786797 
C 1221.947892 236.412604 1218.786903 244.043907 1218.786903 252 
C 1218.786903 259.956093 1221.947892 267.587396 1227.573699 273.213203 
C 1233.199507 278.839011 1240.83081 282 1248.786903 282 
z
" style="fill:#d9544c;stroke:#d9544c;stroke-linejoin:miter;"/>
   </g>
   <g id="patch_23">
    <path d="M 1248.786903 210 
C 1256.742996 210 1264.374299 206.839011 1270.000106 201.213203 
C 1275.625914 195.587396 1278.786903 187.956093 1278.786903 180 
C 1278.786903 172.043907 1275.625914 164.412604 1270.000106 158.786797 
C 1264.374299 153.160989 1256.742996 150 1248.786903 150 
C 1240.83081 150 1233.199507 153.160989 1227.573699 158.786797 
C 1221.947892 164.412604 1218.786903 172.043907 1218.786903 180 
C 1218.786903 187.956093 1221.947892 195.587396 1227.573699 201.213203 
C 1233.199507 206.839011 1240.83081 210 1248.786903 210 
z
" style="fill:#d9544c;stroke:#d9544c;stroke-linejoin:miter;"/>
   </g>
   <g id="patch_24">
    <path d="M 1248.786903 138 
C 1256.742996 138 1264.374299 134.839011 1270.000106 129.213203 
C 1275.625914 123.587396 1278.786903 115.956093 1278.786903 108 
C 1278.786903 100.043907 1275.625914 92.412604 1270.000106 86.786797 
C 1264.374299 81.160989 1256.742996 78 1248.786903 78 
C 1240.83081 78 1233.199507 81.160989 1227.573699 86.786797 
C 1221.947892 92.412604 1218.786903 100.043907 1218.786903 108 
C 1218.786903 115.956093 1221.947892 123.587396 1227.573699 129.213203 
C 1233.199507 134.839011 1240.83081 138 1248.786903 138 
z
" style="fill:#d9544c;stroke:#d9544c;stroke-linejoin:miter;"/>
   </g>
   <g id="patch_25">
    <path d="M 1248.786903 66 
C 1256.742996 66 1264.374299 62.839011 1270.000106 57.213203 
C 1275.625914 51.587396 1278.786903 43.956093 1278.786903 36 
C 1278.786903 28.043907 1275.625914 20.412604 1270.000106 14.786797 
C 1264.374299 9.160989 1256.742996 6 1248.786903 6 
C 1240.83081 6 1233.199507 9.160989 1227.573699 14.786797 
C 1221.947892 20.412604 1218.786903 28.043907 1218.786903 36 
C 1218.786903 43.956093 1221.947892 51.587396 1227.573699 57.213203 
C 1233.199507 62.839011 1240.83081 66 1248.786903 66 
z
" style="fill:#d9544c;stroke:#d9544c;stroke-linejoin:miter;"/>
   </g>
   <g id="patch_26">
    <path d="M 1668.840169 354 
C 1676.796262 354 1684.427565 350.839011 1690.053372 345.213203 
C 1695.67918 339.587396 1698.840169 331.956093 1698.840169 324 
C 1698.840169 316.043907 1695.67918 308.412604 1690.053372 302.786797 
C 1684.427565 297.160989 1676.796262 294 1668.840169 294 
C 1660.884076 294 1653.252773 297.160989 1647.626965 302.786797 
C 1642.001158 308.412604 1638.840169 316.043907 1638.840169 324 
C 1638.840169 331.956093 1642.001158 339.587396 1647.626965 345.213203 
C 1653.252773 350.839011 1660.884076 354 1668.840169 354 
z
" style="fill:#d9544c;stroke:#d9544c;stroke-linejoin:miter;"/>
   </g>
   <g id="patch_27">
    <path d="M 1668.840169 282 
C 1676.796262 282 1684.427565 278.839011 1690.053372 273.213203 
C 1695.67918 267.587396 1698.840169 259.956093 1698.840169 252 
C 1698.840169 244.043907 1695.67918 236.412604 1690.053372 230.786797 
C 1684.427565 225.160989 1676.796262 222 1668.840169 222 
C 1660.884076 222 1653.252773 225.160989 1647.626965 230.786797 
C 1642.001158 236.412604 1638.840169 244.043907 1638.840169 252 
C 1638.840169 259.956093 1642.001158 267.587396 1647.626965 273.213203 
C 1653.252773 278.839011 1660.884076 282 1668.840169 282 
z
" style="fill:#d9544c;stroke:#d9544c;stroke-linejoin:miter;"/>
   </g>
   <g id="patch_28">
    <path d="M 1861.355145 426 
C 1869.311238 426 1876.942541 422.839011 1882.568348 417.213203 
C 1888.194155 411.587396 1891.355145 403.956093 1891.355145 396 
C 1891.355145 388.043907 1888.194155 380.412604 1882.568348 374.786797 
C 1876.942541 369.160989 1869.311238 366 1861.355145 366 
C 1853.399052 366 1845.767749 369.160989 1840.141941 374.786797 
C 1834.516134 380.412604 1831.355145 388.043907 1831.355145 396 
C 1831.355145 403.956093 1834.516134 411.587396 1840.141941 417.213203 
C 1845.767749 422.839011 1853.399052 426 1861.355145 426 
z
" style="fill:#d9544c;stroke:#d9544c;stroke-linejoin:miter;"/>
   </g>
   <g id="patch_29">
    <path d="M 1861.355145 138 
C 1869.311238 138 1876.942541 134.839011 1882.568348 129.213203 
C 1888.194155 123.587396 1891.355145 115.956093 1891.355145 108 
C 1891.355145 100.043907 1888.194155 92.412604 1882.568348 86.786797 
C 1876.942541 81.160989 1869.311238 78 1861.355145 78 
C 1853.399052 78 1845.767749 81.160989 1840.141941 86.786797 
C 1834.516134 92.412604 1831.355145 100.043907 1831.355145 108 
C 1831.355145 115.956093 1834.516134 123.587396 1840.141941 129.213203 
C 1845.767749 134.839011 1853.399052 138 1861.355145 138 
z
" style="fill:#d9544c;stroke:#d9544c;stroke-linejoin:miter;"/>
   </g>
   <g id="patch_30">
    <path d="M 1861.355145 66 
C 1869.311238 66 1876.942541 62.839011 1882.568348 57.213203 
C 1888.194155 51.587396 1891.355145 43.956093 1891.355145 36 
C 1891.355145 28.043907 1888.194155 20.412604 1882.568348 14.786797 
C 1876.942541 9.160989 1869.311238 6 1861.355145 6 
C 1853.399052 6 1845.767749 9.160989 1840.141941 14.786797 
C 1834.516134 20.412604 1831.355145 28.043907 1831.355145 36 
C 1831.355145 43.956093 1834.516134 51.587396 1840.141941 57.213203 
C 1845.767749 62.839011 1853.399052 66 1861.355145 66 
z
" style="fill:#d9544c;stroke:#d9544c;stroke-linejoin:miter;"/>
   </g>
   <g id="patch_31">
    <path d="M 2043.065085 210 
C 2051.021178 210 2058.652481 206.839011 2064.278289 201.213203 
C 2069.904096 195.587396 2073.065085 187.956093 2073.065085 180 
C 2073.065085 172.043907 2069.904096 164.412604 2064.278289 158.786797 
C 2058.652481 153.160989 2051.021178 150 2043.065085 150 
C 2035.108992 150 2027.477689 153.160989 2021.851882 158.786797 
C 2016.226074 164.412604 2013.065085 172.043907 2013.065085 180 
C 2013.065085 187.956093 2016.226074 195.587396 2021.851882 201.213203 
C 2027.477689 206.839011 2035.108992 210 2043.065085 210 
z
" style="fill:#d9544c;stroke:#d9544c;stroke-linejoin:miter;"/>
   </g>
   <g id="patch_32">
    <path d="M 2214.57643 354 
C 2222.532523 354 2230.163826 350.839011 2235.789634 345.213203 
C 2241.415441 339.587396 2244.57643 331.956093 2244.57643 324 
C 2244.57643 316.043907 2241.415441 308.412604 2235.789634 302.786797 
C 2230.163826 297.160989 2222.532523 294 2214.57643 294 
C 2206.620337 294 2198.989034 297.160989 2193.363227 302.786797 
C 2187.73742 308.412604 2184.57643 316.043907 2184.57643 324 
C 2184.57643 331.956093 2187.73742 339.587396 2193.363227 345.213203 
C 2198.989034 350.839011 2206.620337 354 2214.57643 354 
z
" style="fill:#d9544c;stroke:#d9544c;stroke-linejoin:miter;"/>
   </g>
   <g id="patch_33">
    <path d="M 2214.57643 282 
C 2222.532523 282 2230.163826 278.839011 2235.789634 273.213203 
C 2241.415441 267.587396 2244.57643 259.956093 2244.57643 252 
C 2244.57643 244.043907 2241.415441 236.412604 2235.789634 230.786797 
C 2230.163826 225.160989 2222.532523 222 2214.57643 222 
C 2206.620337 222 2198.989034 225.160989 2193.363227 230.786797 
C 2187.73742 236.412604 2184.57643 244.043907 2184.57643 252 
C 2184.57643 259.956093 2187.73742 267.587396 2193.363227 273.213203 
C 2198.989034 278.839011 2206.620337 282 2214.57643 282 
z
" style="fill:#d9544c;stroke:#d9544c;stroke-linejoin:miter;"/>
   </g>
   <g id="patch_34">
    <path d="M 2214.57643 138 
C 2222.532523 138 2230.163826 134.839011 2235.789634 129.213203 
C 2241.415441 123.587396 2244.57643 115.956093 2244.57643 108 
C 2244.57643 100.043907 2241.415441 92.412604 2235.789634 86.786797 
C 2230.163826 81.160989 2222.532523 78 2214.57643 78 
C 2206.620337 78 2198.989034 81.160989 2193.363227 86.786797 
C 2187.73742 92.412604 2184.57643 100.043907 2184.57643 108 
C 2184.57643 115.956093 2187.73742 123.587396 2193.363227 129.213203 
C 2198.989034 134.839011 2206.620337 138 2214.57643 138 
z
" style="fill:#d9544c;stroke:#d9544c;stroke-linejoin:miter;"/>
   </g>
   <g id="text_13">
    <!-- E1(5) -->
    <defs>
     <path d="M 9.8125 72.90625 
L 55.90625 72.90625 
L 55.90625 64.59375 
L 19.671875 64.59375 
L 19.671875 43.015625 
L 54.390625 43.015625 
L 54.390625 34.71875 
L 19.671875 34.71875 
L 19.671875 8.296875 
L 56.78125 8.296875 
L 56.78125 0 
L 9.8125 0 
z
" id="DejaVuSans-69"/>
     <path d="M 31 75.875 
Q 24.46875 64.65625 21.28125 53.65625 
Q 18.109375 42.671875 18.109375 31.390625 
Q 18.109375 20.125 21.3125 9.0625 
Q 24.515625 -2 31 -13.1875 
L 23.1875 -13.1875 
Q 15.875 -1.703125 12.234375 9.375 
Q 8.59375 20.453125 8.59375 31.390625 
Q 8.59375 42.28125 12.203125 53.3125 
Q 15.828125 64.359375 23.1875 75.875 
z
" id="DejaVuSans-40"/>
     <path d="M 8.015625 75.875 
L 15.828125 75.875 
Q 23.140625 64.359375 26.78125 53.3125 
Q 30.421875 42.28125 30.421875 31.390625 
Q 30.421875 20.453125 26.78125 9.375 
Q 23.140625 -1.703125 15.828125 -13.1875 
L 8.015625 -13.1875 
Q 14.5 -2 17.703125 9.0625 
Q 20.90625 20.125 20.90625 31.390625 
Q 20.90625 42.671875 17.703125 53.65625 
Q 14.5 64.65625 8.015625 75.875 
z
" id="DejaVuSans-41"/>
    </defs>
    <g style="fill:#ffffff;" transform="translate(54.102083 399.679167)scale(0.133333 -0.133333)">
     <use xlink:href="#DejaVuSans-69"/>
     <use x="63.183594" xlink:href="#DejaVuSans-49"/>
     <use x="126.806641" xlink:href="#DejaVuSans-40"/>
     <use x="165.820312" xlink:href="#DejaVuSans-53"/>
     <use x="229.443359" xlink:href="#DejaVuSans-41"/>
    </g>
   </g>
   <g id="text_14">
    <!-- A1(R) -->
    <defs>
     <path d="M 34.1875 63.1875 
L 20.796875 26.90625 
L 47.609375 26.90625 
z
M 28.609375 72.90625 
L 39.796875 72.90625 
L 67.578125 0 
L 57.328125 0 
L 50.6875 18.703125 
L 17.828125 18.703125 
L 11.1875 0 
L 0.78125 0 
z
" id="DejaVuSans-65"/>
     <path d="M 44.390625 34.1875 
Q 47.5625 33.109375 50.5625 29.59375 
Q 53.5625 26.078125 56.59375 19.921875 
L 66.609375 0 
L 56 0 
L 46.6875 18.703125 
Q 43.0625 26.03125 39.671875 28.421875 
Q 36.28125 30.8125 30.421875 30.8125 
L 19.671875 30.8125 
L 19.671875 0 
L 9.8125 0 
L 9.8125 72.90625 
L 32.078125 72.90625 
Q 44.578125 72.90625 50.734375 67.671875 
Q 56.890625 62.453125 56.890625 51.90625 
Q 56.890625 45.015625 53.6875 40.46875 
Q 50.484375 35.9375 44.390625 34.1875 
z
M 19.671875 64.796875 
L 19.671875 38.921875 
L 32.078125 38.921875 
Q 39.203125 38.921875 42.84375 42.21875 
Q 46.484375 45.515625 46.484375 51.90625 
Q 46.484375 58.296875 42.84375 61.546875 
Q 39.203125 64.796875 32.078125 64.796875 
z
" id="DejaVuSans-82"/>
    </defs>
    <g style="fill:#ffffff;" transform="translate(53.363542 327.679167)scale(0.133333 -0.133333)">
     <use xlink:href="#DejaVuSans-65"/>
     <use x="68.408203" xlink:href="#DejaVuSans-49"/>
     <use x="132.03125" xlink:href="#DejaVuSans-40"/>
     <use x="171.044922" xlink:href="#DejaVuSans-82"/>
     <use x="240.527344" xlink:href="#DejaVuSans-41"/>
    </g>
   </g>
   <g id="text_15">
    <!-- G2(7) -->
    <defs>
     <path d="M 59.515625 10.40625 
L 59.515625 29.984375 
L 43.40625 29.984375 
L 43.40625 38.09375 
L 69.28125 38.09375 
L 69.28125 6.78125 
Q 63.578125 2.734375 56.6875 0.65625 
Q 49.8125 -1.421875 42 -1.421875 
Q 24.90625 -1.421875 15.25 8.5625 
Q 5.609375 18.5625 5.609375 36.375 
Q 5.609375 54.25 15.25 64.234375 
Q 24.90625 74.21875 42 74.21875 
Q 49.125 74.21875 55.546875 72.453125 
Q 61.96875 70.703125 67.390625 67.28125 
L 67.390625 56.78125 
Q 61.921875 61.421875 55.765625 63.765625 
Q 49.609375 66.109375 42.828125 66.109375 
Q 29.4375 66.109375 22.71875 58.640625 
Q 16.015625 51.171875 16.015625 36.375 
Q 16.015625 21.625 22.71875 14.15625 
Q 29.4375 6.6875 42.828125 6.6875 
Q 48.046875 6.6875 52.140625 7.59375 
Q 56.25 8.5 59.515625 10.40625 
z
" id="DejaVuSans-71"/>
    </defs>
    <g style="fill:#ffffff;" transform="translate(53.148958 183.679167)scale(0.133333 -0.133333)">
     <use xlink:href="#DejaVuSans-71"/>
     <use x="77.490234" xlink:href="#DejaVuSans-50"/>
     <use x="141.113281" xlink:href="#DejaVuSans-40"/>
     <use x="180.126953" xlink:href="#DejaVuSans-55"/>
     <use x="243.75" xlink:href="#DejaVuSans-41"/>
    </g>
   </g>
   <g id="text_16">
    <!-- E3(5) -->
    <g style="fill:#ffffff;" transform="translate(54.102083 39.679167)scale(0.133333 -0.133333)">
     <use xlink:href="#DejaVuSans-69"/>
     <use x="63.183594" xlink:href="#DejaVuSans-51"/>
     <use x="126.806641" xlink:href="#DejaVuSans-40"/>
     <use x="165.820312" xlink:href="#DejaVuSans-53"/>
     <use x="229.443359" xlink:href="#DejaVuSans-41"/>
    </g>
   </g>
   <g id="text_17">
    <!-- C3(3) -->
    <defs>
     <path d="M 64.40625 67.28125 
L 64.40625 56.890625 
Q 59.421875 61.53125 53.78125 63.8125 
Q 48.140625 66.109375 41.796875 66.109375 
Q 29.296875 66.109375 22.65625 58.46875 
Q 16.015625 50.828125 16.015625 36.375 
Q 16.015625 21.96875 22.65625 14.328125 
Q 29.296875 6.6875 41.796875 6.6875 
Q 48.140625 6.6875 53.78125 8.984375 
Q 59.421875 11.28125 64.40625 15.921875 
L 64.40625 5.609375 
Q 59.234375 2.09375 53.4375 0.328125 
Q 47.65625 -1.421875 41.21875 -1.421875 
Q 24.65625 -1.421875 15.125 8.703125 
Q 5.609375 18.84375 5.609375 36.375 
Q 5.609375 53.953125 15.125 64.078125 
Q 24.65625 74.21875 41.21875 74.21875 
Q 47.75 74.21875 53.53125 72.484375 
Q 59.328125 70.75 64.40625 67.28125 
z
" id="DejaVuSans-67"/>
    </defs>
    <g style="fill:#ffffff;" transform="translate(229.718477 111.679167)scale(0.133333 -0.133333)">
     <use xlink:href="#DejaVuSans-67"/>
     <use x="69.824219" xlink:href="#DejaVuSans-51"/>
     <use x="133.447266" xlink:href="#DejaVuSans-40"/>
     <use x="172.460938" xlink:href="#DejaVuSans-51"/>
     <use x="236.083984" xlink:href="#DejaVuSans-41"/>
    </g>
   </g>
   <g id="text_18">
    <!-- E2(5) -->
    <g style="fill:#ffffff;" transform="translate(502.418475 255.679167)scale(0.133333 -0.133333)">
     <use xlink:href="#DejaVuSans-69"/>
     <use x="63.183594" xlink:href="#DejaVuSans-50"/>
     <use x="126.806641" xlink:href="#DejaVuSans-40"/>
     <use x="165.820312" xlink:href="#DejaVuSans-53"/>
     <use x="229.443359" xlink:href="#DejaVuSans-41"/>
    </g>
   </g>
   <g id="text_19">
    <!-- A2(R) -->
    <g style="fill:#ffffff;" transform="translate(501.679933 183.679167)scale(0.133333 -0.133333)">
     <use xlink:href="#DejaVuSans-65"/>
     <use x="68.408203" xlink:href="#DejaVuSans-50"/>
     <use x="132.03125" xlink:href="#DejaVuSans-40"/>
     <use x="171.044922" xlink:href="#DejaVuSans-82"/>
     <use x="240.527344" xlink:href="#DejaVuSans-41"/>
    </g>
   </g>
   <g id="text_20">
    <!-- G1(7) -->
    <g style="fill:#ffffff;" transform="translate(758.442012 399.679167)scale(0.133333 -0.133333)">
     <use xlink:href="#DejaVuSans-71"/>
     <use x="77.490234" xlink:href="#DejaVuSans-49"/>
     <use x="141.113281" xlink:href="#DejaVuSans-40"/>
     <use x="180.126953" xlink:href="#DejaVuSans-55"/>
     <use x="243.75" xlink:href="#DejaVuSans-41"/>
    </g>
   </g>
   <g id="text_21">
    <!-- C2(3) -->
    <g style="fill:#ffffff;" transform="translate(758.952428 327.679167)scale(0.133333 -0.133333)">
     <use xlink:href="#DejaVuSans-67"/>
     <use x="69.824219" xlink:href="#DejaVuSans-50"/>
     <use x="133.447266" xlink:href="#DejaVuSans-40"/>
     <use x="172.460938" xlink:href="#DejaVuSans-51"/>
     <use x="236.083984" xlink:href="#DejaVuSans-41"/>
    </g>
   </g>
   <g id="text_22">
    <!-- G3(7) -->
    <g style="fill:#ffffff;" transform="translate(758.442012 39.679167)scale(0.133333 -0.133333)">
     <use xlink:href="#DejaVuSans-71"/>
     <use x="77.490234" xlink:href="#DejaVuSans-51"/>
     <use x="141.113281" xlink:href="#DejaVuSans-40"/>
     <use x="180.126953" xlink:href="#DejaVuSans-55"/>
     <use x="243.75" xlink:href="#DejaVuSans-41"/>
    </g>
   </g>
   <g id="text_23">
    <!-- A1(R) -->
    <g style="fill:#ffffff;" transform="translate(1230.150445 399.679167)scale(0.133333 -0.133333)">
     <use xlink:href="#DejaVuSans-65"/>
     <use x="68.408203" xlink:href="#DejaVuSans-49"/>
     <use x="132.03125" xlink:href="#DejaVuSans-40"/>
     <use x="171.044922" xlink:href="#DejaVuSans-82"/>
     <use x="240.527344" xlink:href="#DejaVuSans-41"/>
    </g>
   </g>
   <g id="text_24">
    <!-- G2(7) -->
    <g style="fill:#ffffff;" transform="translate(1229.935861 255.679167)scale(0.133333 -0.133333)">
     <use xlink:href="#DejaVuSans-71"/>
     <use x="77.490234" xlink:href="#DejaVuSans-50"/>
     <use x="141.113281" xlink:href="#DejaVuSans-40"/>
     <use x="180.126953" xlink:href="#DejaVuSans-55"/>
     <use x="243.75" xlink:href="#DejaVuSans-41"/>
    </g>
   </g>
   <g id="text_25">
    <!-- C3(3) -->
    <g style="fill:#ffffff;" transform="translate(1230.446278 183.679167)scale(0.133333 -0.133333)">
     <use xlink:href="#DejaVuSans-67"/>
     <use x="69.824219" xlink:href="#DejaVuSans-51"/>
     <use x="133.447266" xlink:href="#DejaVuSans-40"/>
     <use x="172.460938" xlink:href="#DejaVuSans-51"/>
     <use x="236.083984" xlink:href="#DejaVuSans-41"/>
    </g>
   </g>
   <g id="text_26">
    <!-- E3(5) -->
    <g style="fill:#ffffff;" transform="translate(1230.888986 111.679167)scale(0.133333 -0.133333)">
     <use xlink:href="#DejaVuSans-69"/>
     <use x="63.183594" xlink:href="#DejaVuSans-51"/>
     <use x="126.806641" xlink:href="#DejaVuSans-40"/>
     <use x="165.820312" xlink:href="#DejaVuSans-53"/>
     <use x="229.443359" xlink:href="#DejaVuSans-41"/>
    </g>
   </g>
   <g id="text_27">
    <!-- A3(R) -->
    <g style="fill:#ffffff;" transform="translate(1230.150445 39.679167)scale(0.133333 -0.133333)">
     <use xlink:href="#DejaVuSans-65"/>
     <use x="68.408203" xlink:href="#DejaVuSans-51"/>
     <use x="132.03125" xlink:href="#DejaVuSans-40"/>
     <use x="171.044922" xlink:href="#DejaVuSans-82"/>
     <use x="240.527344" xlink:href="#DejaVuSans-41"/>
    </g>
   </g>
   <g id="text_28">
    <!-- E2(5) -->
    <g style="fill:#ffffff;" transform="translate(1650.942252 327.679167)scale(0.133333 -0.133333)">
     <use xlink:href="#DejaVuSans-69"/>
     <use x="63.183594" xlink:href="#DejaVuSans-50"/>
     <use x="126.806641" xlink:href="#DejaVuSans-40"/>
     <use x="165.820312" xlink:href="#DejaVuSans-53"/>
     <use x="229.443359" xlink:href="#DejaVuSans-41"/>
    </g>
   </g>
   <g id="text_29">
    <!-- A2(R) -->
    <g style="fill:#ffffff;" transform="translate(1650.203711 255.679167)scale(0.133333 -0.133333)">
     <use xlink:href="#DejaVuSans-65"/>
     <use x="68.408203" xlink:href="#DejaVuSans-50"/>
     <use x="132.03125" xlink:href="#DejaVuSans-40"/>
     <use x="171.044922" xlink:href="#DejaVuSans-82"/>
     <use x="240.527344" xlink:href="#DejaVuSans-41"/>
    </g>
   </g>
   <g id="text_30">
    <!-- C2(3) -->
    <g style="fill:#ffffff;" transform="translate(1843.01452 399.679167)scale(0.133333 -0.133333)">
     <use xlink:href="#DejaVuSans-67"/>
     <use x="69.824219" xlink:href="#DejaVuSans-50"/>
     <use x="133.447266" xlink:href="#DejaVuSans-40"/>
     <use x="172.460938" xlink:href="#DejaVuSans-51"/>
     <use x="236.083984" xlink:href="#DejaVuSans-41"/>
    </g>
   </g>
   <g id="text_31">
    <!-- G3(7) -->
    <g style="fill:#ffffff;" transform="translate(1842.504103 111.679167)scale(0.133333 -0.133333)">
     <use xlink:href="#DejaVuSans-71"/>
     <use x="77.490234" xlink:href="#DejaVuSans-51"/>
     <use x="141.113281" xlink:href="#DejaVuSans-40"/>
     <use x="180.126953" xlink:href="#DejaVuSans-55"/>
     <use x="243.75" xlink:href="#DejaVuSans-41"/>
    </g>
   </g>
   <g id="text_32">
    <!-- C4(3) -->
    <g style="fill:#ffffff;" transform="translate(1843.01452 39.679167)scale(0.133333 -0.133333)">
     <use xlink:href="#DejaVuSans-67"/>
     <use x="69.824219" xlink:href="#DejaVuSans-52"/>
     <use x="133.447266" xlink:href="#DejaVuSans-40"/>
     <use x="172.460938" xlink:href="#DejaVuSans-51"/>
     <use x="236.083984" xlink:href="#DejaVuSans-41"/>
    </g>
   </g>
   <g id="text_33">
    <!-- E3(5) -->
    <g style="fill:#ffffff;" transform="translate(2025.167168 183.679167)scale(0.133333 -0.133333)">
     <use xlink:href="#DejaVuSans-69"/>
     <use x="63.183594" xlink:href="#DejaVuSans-51"/>
     <use x="126.806641" xlink:href="#DejaVuSans-40"/>
     <use x="165.820312" xlink:href="#DejaVuSans-53"/>
     <use x="229.443359" xlink:href="#DejaVuSans-41"/>
    </g>
   </g>
   <g id="text_34">
    <!-- G2(7) -->
    <g style="fill:#ffffff;" transform="translate(2195.725389 327.679167)scale(0.133333 -0.133333)">
     <use xlink:href="#DejaVuSans-71"/>
     <use x="77.490234" xlink:href="#DejaVuSans-50"/>
     <use x="141.113281" xlink:href="#DejaVuSans-40"/>
     <use x="180.126953" xlink:href="#DejaVuSans-55"/>
     <use x="243.75" xlink:href="#DejaVuSans-41"/>
    </g>
   </g>
   <g id="text_35">
    <!-- C3(3) -->
    <g style="fill:#ffffff;" transform="translate(2196.235805 255.679167)scale(0.133333 -0.133333)">
     <use xlink:href="#DejaVuSans-67"/>
     <use x="69.824219" xlink:href="#DejaVuSans-51"/>
     <use x="133.447266" xlink:href="#DejaVuSans-40"/>
     <use x="172.460938" xlink:href="#DejaVuSans-51"/>
     <use x="236.083984" xlink:href="#DejaVuSans-41"/>
    </g>
   </g>
   <g id="text_36">
    <!-- A3(R) -->
    <g style="fill:#ffffff;" transform="translate(2195.939972 111.679167)scale(0.133333 -0.133333)">
     <use xlink:href="#DejaVuSans-65"/>
     <use x="68.408203" xlink:href="#DejaVuSans-51"/>
     <use x="132.03125" xlink:href="#DejaVuSans-40"/>
     <use x="171.044922" xlink:href="#DejaVuSans-82"/>
     <use x="240.527344" xlink:href="#DejaVuSans-41"/>
    </g>
   </g>
  </g>
 </g>
 <defs>
  <clipPath id="pcc741752b4">
   <rect height="432" width="2261.85607" x="36" y="0"/>
  </clipPath>
 </defs>
</svg>
