<?xml version="1.0" encoding="utf-8" standalone="no"?>
<!DOCTYPE svg PUBLIC "-//W3C//DTD SVG 1.1//EN"
  "http://www.w3.org/Graphics/SVG/1.1/DTD/svg11.dtd">
<!-- Created with matplotlib (https://matplotlib.org/) -->
<svg height="300.362pt" version="1.1" viewBox="0 0 707.495312 300.362" width="707.495312pt" xmlns="http://www.w3.org/2000/svg" xmlns:xlink="http://www.w3.org/1999/xlink">
 <defs>
  <style type="text/css">
*{stroke-linecap:butt;stroke-linejoin:round;}
  </style>
 </defs>
 <g id="figure_1">
  <g id="patch_1">
   <path d="M 0 300.362 
L 707.495312 300.362 
L 707.495312 0 
L 0 0 
z
" style="fill:#ffffff;"/>
  </g>
  <g id="axes_1">
   <g id="patch_2">
    <path d="M 30.695312 276.762 
L 335.058949 276.762 
L 335.058949 10.65 
L 30.695312 10.65 
z
" style="fill:#ffffff;"/>
   </g>
   <g id="matplotlib.axis_1">
    <g id="xtick_1">
     <g id="line2d_1">
      <path clip-path="url(#p9598c57710)" d="M 44.530023 276.762 
L 44.530023 10.65 
" style="fill:none;stroke:#b0b0b0;stroke-linecap:square;stroke-width:0.8;"/>
     </g>
     <g id="line2d_2">
      <defs>
       <path d="M 0 0 
L 0 3.5 
" id="m277538f463" style="stroke:#000000;stroke-width:0.8;"/>
      </defs>
      <g>
       <use style="stroke:#000000;stroke-width:0.8;" x="44.530023" xlink:href="#m277538f463" y="276.762"/>
      </g>
     </g>
     <g id="text_1">
      <!-- $C$ -->
      <defs>
       <path d="M 14.59375 21.578125 
Q 14.59375 15.578125 16.90625 11.015625 
Q 19.234375 6.453125 23.65625 3.875 
Q 28.078125 1.3125 34.078125 1.3125 
Q 40.375 1.3125 46.203125 4.53125 
Q 52.046875 7.765625 56.171875 13.15625 
Q 60.296875 18.5625 61.8125 24.609375 
Q 62.015625 25.203125 62.59375 25.203125 
L 63.8125 25.203125 
Q 64.203125 25.203125 64.453125 24.921875 
Q 64.703125 24.65625 64.703125 24.3125 
Q 64.703125 24.21875 64.59375 24.03125 
Q 62.890625 17.09375 57.984375 11.015625 
Q 53.078125 4.9375 46.234375 1.359375 
Q 39.40625 -2.203125 32.171875 -2.203125 
Q 24.359375 -2.203125 18.15625 1.3125 
Q 11.96875 4.828125 8.515625 11.078125 
Q 5.078125 17.328125 5.078125 25.203125 
Q 5.078125 33.59375 8.828125 41.8125 
Q 12.59375 50.046875 18.9375 56.46875 
Q 25.296875 62.890625 33.421875 66.703125 
Q 41.546875 70.515625 49.90625 70.515625 
Q 53.21875 70.515625 56.25 69.5 
Q 59.28125 68.5 61.859375 66.453125 
Q 64.453125 64.40625 66.109375 61.71875 
L 74.03125 70.3125 
Q 74.03125 70.515625 74.515625 70.515625 
L 75.09375 70.515625 
Q 75.484375 70.515625 75.734375 70.171875 
Q 75.984375 69.828125 75.984375 69.484375 
L 69.1875 42.484375 
Q 69.1875 41.796875 68.40625 41.796875 
L 66.609375 41.796875 
Q 65.828125 41.796875 65.828125 42.921875 
Q 66.21875 45.125 66.21875 48.1875 
Q 66.21875 53.078125 64.546875 57.390625 
Q 62.890625 61.71875 59.390625 64.359375 
Q 55.90625 67 50.875 67 
Q 42.71875 67 35.9375 62.890625 
Q 29.15625 58.796875 24.4375 52.125 
Q 19.734375 45.453125 17.15625 37.328125 
Q 14.59375 29.203125 14.59375 21.578125 
z
" id="Cmmi10-67"/>
      </defs>
      <g transform="translate(40.930023 290.662)scale(0.1 -0.1)">
       <use transform="translate(0 0.484375)" xlink:href="#Cmmi10-67"/>
      </g>
     </g>
    </g>
    <g id="xtick_2">
     <g id="line2d_3">
      <path clip-path="url(#p9598c57710)" d="M 94.838062 276.762 
L 94.838062 10.65 
" style="fill:none;stroke:#b0b0b0;stroke-linecap:square;stroke-width:0.8;"/>
     </g>
     <g id="line2d_4">
      <g>
       <use style="stroke:#000000;stroke-width:0.8;" x="94.838062" xlink:href="#m277538f463" y="276.762"/>
      </g>
     </g>
     <g id="text_2">
      <!-- $D$ -->
      <defs>
       <path d="M 4.890625 0 
Q 3.90625 0 3.90625 1.3125 
Q 3.953125 1.5625 4.09375 2.171875 
Q 4.25 2.78125 4.515625 3.140625 
Q 4.78125 3.515625 5.171875 3.515625 
Q 11.28125 3.515625 13.71875 4.203125 
Q 14.984375 4.640625 15.578125 6.890625 
L 29.296875 61.8125 
Q 29.5 62.796875 29.5 63.1875 
Q 29.5 64.265625 28.328125 64.40625 
Q 26.421875 64.796875 21.09375 64.796875 
Q 20.125 64.796875 20.125 66.109375 
Q 20.171875 66.359375 20.3125 66.96875 
Q 20.453125 67.578125 20.71875 67.9375 
Q 21 68.3125 21.390625 68.3125 
L 57.328125 68.3125 
Q 64.3125 68.3125 69.53125 64.921875 
Q 74.75 61.53125 77.53125 55.78125 
Q 80.328125 50.046875 80.328125 43.109375 
Q 80.328125 35.453125 77.140625 27.78125 
Q 73.96875 20.125 68.25 13.765625 
Q 62.546875 7.421875 55.21875 3.703125 
Q 47.90625 0 40.1875 0 
z
M 23.578125 4.296875 
Q 23.578125 3.515625 27 3.515625 
L 38.625 3.515625 
Q 44.1875 3.515625 49.359375 5.8125 
Q 54.546875 8.109375 58.59375 12.109375 
Q 62.359375 15.875 65.234375 21.96875 
Q 68.109375 28.078125 69.703125 34.71875 
Q 71.296875 41.359375 71.296875 46.921875 
Q 71.296875 50.984375 70.09375 54.25 
Q 68.890625 57.515625 66.71875 59.859375 
Q 64.546875 62.203125 61.28125 63.5 
Q 58.015625 64.796875 53.90625 64.796875 
L 42.921875 64.796875 
Q 40.1875 64.796875 39.296875 64.328125 
Q 38.421875 63.875 37.703125 61.375 
L 24.03125 6.5 
Q 23.578125 5.28125 23.578125 4.296875 
z
" id="Cmmi10-68"/>
      </defs>
      <g transform="translate(90.688062 290.662)scale(0.1 -0.1)">
       <use transform="translate(0 0.6875)" xlink:href="#Cmmi10-68"/>
      </g>
     </g>
    </g>
    <g id="xtick_3">
     <g id="line2d_5">
      <path clip-path="url(#p9598c57710)" d="M 145.146101 276.762 
L 145.146101 10.65 
" style="fill:none;stroke:#b0b0b0;stroke-linecap:square;stroke-width:0.8;"/>
     </g>
     <g id="line2d_6">
      <g>
       <use style="stroke:#000000;stroke-width:0.8;" x="145.146101" xlink:href="#m277538f463" y="276.762"/>
      </g>
     </g>
     <g id="text_3">
      <!-- $E$ -->
      <defs>
       <path d="M 4.6875 0 
Q 3.71875 0 3.71875 1.3125 
Q 3.765625 1.5625 3.90625 2.171875 
Q 4.046875 2.78125 4.3125 3.140625 
Q 4.59375 3.515625 4.984375 3.515625 
Q 11.078125 3.515625 13.484375 4.203125 
Q 14.796875 4.640625 15.375 6.890625 
L 29.109375 61.8125 
Q 29.296875 62.796875 29.296875 63.1875 
Q 29.296875 64.265625 28.078125 64.40625 
Q 26.21875 64.796875 20.90625 64.796875 
Q 19.921875 64.796875 19.921875 66.109375 
Q 19.96875 66.359375 20.109375 66.96875 
Q 20.265625 67.578125 20.53125 67.9375 
Q 20.796875 68.3125 21.1875 68.3125 
L 75.390625 68.3125 
Q 76.421875 68.3125 76.421875 67 
L 74.03125 46.296875 
Q 74.03125 46.046875 73.65625 45.71875 
Q 73.296875 45.40625 73 45.40625 
L 72.125 45.40625 
Q 71.09375 45.40625 71.09375 46.6875 
Q 71.6875 51.5625 71.6875 53.90625 
Q 71.6875 57.90625 70.3125 60.125 
Q 68.953125 62.359375 66.671875 63.328125 
Q 64.40625 64.3125 61.640625 64.546875 
Q 58.890625 64.796875 54.390625 64.796875 
L 43.015625 64.796875 
Q 40.28125 64.796875 39.40625 64.328125 
Q 38.53125 63.875 37.796875 61.375 
L 31.78125 37.203125 
L 39.59375 37.203125 
Q 44.671875 37.203125 47.265625 37.90625 
Q 49.859375 38.625 51.359375 40.859375 
Q 52.875 43.109375 54.109375 48 
Q 54.203125 48.34375 54.46875 48.609375 
Q 54.734375 48.875 55.078125 48.875 
L 56 48.875 
Q 56.984375 48.875 56.984375 47.609375 
L 50.78125 22.90625 
Q 50.59375 22.015625 49.8125 22.015625 
L 48.875 22.015625 
Q 47.90625 22.015625 47.90625 23.296875 
Q 48.875 27.296875 48.875 29.203125 
Q 48.875 32.125 46.234375 32.90625 
Q 43.609375 33.6875 39.203125 33.6875 
L 30.90625 33.6875 
L 24.125 6.5 
Q 23.6875 5.28125 23.6875 4.296875 
Q 23.6875 3.515625 27.09375 3.515625 
L 39.203125 3.515625 
Q 46.4375 3.515625 50.921875 4.640625 
Q 55.421875 5.765625 58.375 8.21875 
Q 61.328125 10.6875 63.46875 14.5 
Q 65.625 18.3125 68.703125 25.59375 
Q 68.890625 26.21875 69.578125 26.21875 
L 70.515625 26.21875 
Q 70.90625 26.21875 71.1875 25.875 
Q 71.484375 25.53125 71.484375 25.09375 
Q 71.484375 24.90625 71.390625 24.703125 
L 61.078125 0.59375 
Q 60.890625 0 60.296875 0 
z
" id="Cmmi10-69"/>
      </defs>
      <g transform="translate(141.446101 290.662)scale(0.1 -0.1)">
       <use transform="translate(0 0.6875)" xlink:href="#Cmmi10-69"/>
      </g>
     </g>
    </g>
    <g id="xtick_4">
     <g id="line2d_7">
      <path clip-path="url(#p9598c57710)" d="M 195.45414 276.762 
L 195.45414 10.65 
" style="fill:none;stroke:#b0b0b0;stroke-linecap:square;stroke-width:0.8;"/>
     </g>
     <g id="line2d_8">
      <g>
       <use style="stroke:#000000;stroke-width:0.8;" x="195.45414" xlink:href="#m277538f463" y="276.762"/>
      </g>
     </g>
     <g id="text_4">
      <!-- $F\sharp$ -->
      <defs>
       <path d="M 4.6875 0 
Q 3.71875 0 3.71875 1.3125 
Q 3.765625 1.5625 3.90625 2.171875 
Q 4.046875 2.78125 4.3125 3.140625 
Q 4.59375 3.515625 4.984375 3.515625 
Q 11.078125 3.515625 13.484375 4.203125 
Q 14.796875 4.640625 15.375 6.890625 
L 29.109375 61.8125 
Q 29.296875 62.796875 29.296875 63.1875 
Q 29.296875 64.265625 28.078125 64.40625 
Q 26.21875 64.796875 20.90625 64.796875 
Q 19.921875 64.796875 19.921875 66.109375 
Q 19.96875 66.359375 20.109375 66.96875 
Q 20.265625 67.578125 20.53125 67.9375 
Q 20.796875 68.3125 21.1875 68.3125 
L 74.03125 68.3125 
Q 75 68.3125 75 67 
L 72.609375 46.296875 
Q 72.609375 46 72.265625 45.703125 
Q 71.921875 45.40625 71.578125 45.40625 
L 70.703125 45.40625 
Q 69.671875 45.40625 69.671875 46.6875 
Q 70.3125 51.21875 70.3125 54.109375 
Q 70.3125 59.078125 68.15625 61.421875 
Q 66.015625 63.765625 62.734375 64.28125 
Q 59.46875 64.796875 53.71875 64.796875 
L 43.015625 64.796875 
Q 40.28125 64.796875 39.40625 64.328125 
Q 38.53125 63.875 37.796875 61.375 
L 31.390625 35.890625 
L 38.921875 35.890625 
Q 42.625 35.890625 44.921875 36.28125 
Q 47.21875 36.671875 48.734375 37.796875 
Q 50.25 38.921875 51.25 41.046875 
Q 52.25 43.171875 53.078125 46.6875 
Q 53.375 47.609375 54.109375 47.609375 
L 54.984375 47.609375 
Q 56 47.609375 56 46.296875 
L 49.90625 21.578125 
Q 49.46875 20.703125 48.875 20.703125 
L 48 20.703125 
Q 47.015625 20.703125 47.015625 22.015625 
Q 47.265625 23.046875 47.40625 23.734375 
Q 47.5625 24.421875 47.78125 25.703125 
Q 48 27 48 27.984375 
Q 48 30.859375 45.453125 31.640625 
Q 42.921875 32.421875 38.8125 32.421875 
L 30.609375 32.421875 
L 24.125 6.5 
Q 23.875 5.515625 23.875 5.515625 
Q 23.875 4.34375 24.609375 4.203125 
Q 27.203125 3.515625 34.8125 3.515625 
Q 35.796875 3.515625 35.796875 2.203125 
Q 35.453125 0.78125 35.25 0.390625 
Q 35.0625 0 34.078125 0 
z
" id="Cmmi10-70"/>
       <path d="M 9.71875 -20.90625 
L 9.71875 -7.625 
L 7.078125 -8.5 
L 6.6875 -8.5 
Q 6.390625 -8.5 6 -8.171875 
Q 5.609375 -7.859375 5.609375 -7.625 
L 5.609375 -0.875 
Q 5.609375 -0.296875 6.390625 -0.09375 
L 9.71875 1.125 
L 9.71875 35.5 
L 7.078125 34.71875 
Q 6.890625 34.625 6.6875 34.625 
Q 6.390625 34.625 6 34.9375 
Q 5.609375 35.25 5.609375 35.5 
L 5.609375 42.1875 
Q 5.609375 42.71875 6.390625 43.109375 
L 9.71875 44.1875 
L 9.71875 65.1875 
Q 9.71875 65.625 10.34375 65.96875 
Q 10.984375 66.3125 11.53125 66.3125 
Q 11.859375 66.3125 12.21875 66.03125 
Q 12.59375 65.765625 12.59375 65.375 
L 12.59375 45.125 
L 26.21875 49.703125 
L 26.21875 70.703125 
Q 26.21875 71.234375 26.796875 71.5 
Q 27.390625 71.78125 27.984375 71.78125 
Q 28.328125 71.78125 28.71875 71.53125 
Q 29.109375 71.296875 29.109375 70.90625 
L 29.109375 50.6875 
L 31.78125 51.609375 
L 32.078125 51.609375 
Q 32.421875 51.609375 32.8125 51.34375 
Q 33.203125 51.078125 33.203125 50.6875 
L 33.203125 44 
Q 33.203125 43.453125 32.515625 43.21875 
L 29.109375 42 
L 29.109375 7.625 
L 31.78125 8.5 
L 32.078125 8.5 
Q 32.421875 8.5 32.8125 8.25 
Q 33.203125 8.015625 33.203125 7.625 
L 33.203125 0.875 
Q 33.203125 0.34375 32.515625 0.09375 
L 29.109375 -1.125 
L 29.109375 -15.1875 
Q 29.109375 -15.625 28.4375 -15.96875 
Q 27.78125 -16.3125 27.296875 -16.3125 
Q 27 -16.3125 26.609375 -15.984375 
Q 26.21875 -15.671875 26.21875 -15.375 
L 26.21875 -2 
L 12.59375 -6.59375 
L 12.59375 -20.703125 
Q 12.59375 -21.140625 11.90625 -21.453125 
Q 11.234375 -21.78125 10.796875 -21.78125 
Q 10.5 -21.78125 10.109375 -21.453125 
Q 9.71875 -21.140625 9.71875 -20.90625 
z
M 12.59375 2 
L 26.21875 6.59375 
L 26.21875 41.109375 
L 12.59375 36.53125 
z
" id="Cmmi10-93"/>
      </defs>
      <g transform="translate(190.25414 290.962)scale(0.1 -0.1)">
       <use transform="translate(0 0.21875)" xlink:href="#Cmmi10-70"/>
       <use transform="translate(64.306641 0.21875)" xlink:href="#Cmmi10-93"/>
      </g>
     </g>
    </g>
    <g id="xtick_5">
     <g id="line2d_9">
      <path clip-path="url(#p9598c57710)" d="M 220.60816 276.762 
L 220.60816 10.65 
" style="fill:none;stroke:#b0b0b0;stroke-linecap:square;stroke-width:0.8;"/>
     </g>
     <g id="line2d_10">
      <g>
       <use style="stroke:#000000;stroke-width:0.8;" x="220.60816" xlink:href="#m277538f463" y="276.762"/>
      </g>
     </g>
     <g id="text_5">
      <!-- $G$ -->
      <defs>
       <path d="M 14.59375 21.921875 
Q 14.59375 15.71875 17.0625 11.046875 
Q 19.53125 6.390625 24.171875 3.84375 
Q 28.8125 1.3125 34.90625 1.3125 
Q 40.875 1.3125 46.234375 4.125 
Q 51.609375 6.9375 52.984375 12.203125 
L 55.171875 20.796875 
Q 55.21875 21.09375 55.265625 21.40625 
Q 55.328125 21.734375 55.328125 21.921875 
Q 55.328125 22.953125 54.6875 23.09375 
Q 52.203125 23.78125 44.671875 23.78125 
Q 43.703125 23.78125 43.703125 25.09375 
Q 44 26.3125 44.234375 26.796875 
Q 44.484375 27.296875 45.40625 27.296875 
L 71.1875 27.296875 
Q 72.21875 27.296875 72.21875 25.984375 
Q 72.171875 25.734375 72.015625 25.140625 
Q 71.875 24.5625 71.625 24.171875 
Q 71.390625 23.78125 70.90625 23.78125 
Q 67.578125 23.78125 66.03125 23.234375 
Q 64.5 22.703125 63.921875 20.40625 
L 61.71875 11.8125 
L 58.890625 0.6875 
Q 58.734375 0 58.015625 0 
Q 57.171875 0 55.609375 2.25 
Q 54.046875 4.5 53.421875 6 
Q 49.953125 1.90625 44.140625 -0.140625 
Q 38.328125 -2.203125 32.171875 -2.203125 
Q 24.421875 -2.203125 18.1875 1.3125 
Q 11.96875 4.828125 8.515625 11.078125 
Q 5.078125 17.328125 5.078125 25.203125 
Q 5.078125 33.59375 8.8125 41.765625 
Q 12.546875 49.953125 18.9375 56.421875 
Q 25.34375 62.890625 33.46875 66.703125 
Q 41.609375 70.515625 49.90625 70.515625 
Q 53.21875 70.515625 56.265625 69.484375 
Q 59.328125 68.453125 61.9375 66.421875 
Q 64.546875 64.40625 66.21875 61.71875 
L 74.125 70.3125 
Q 74.125 70.515625 74.609375 70.515625 
L 75.203125 70.515625 
Q 75.59375 70.515625 75.859375 70.1875 
Q 76.125 69.875 76.125 69.484375 
L 69.28125 42.484375 
Q 69.28125 41.796875 68.5 41.796875 
L 66.703125 41.796875 
Q 65.921875 41.796875 65.921875 42.921875 
Q 66.3125 45.125 66.3125 48.09375 
Q 66.3125 53.03125 64.640625 57.375 
Q 62.984375 61.71875 59.46875 64.359375 
Q 55.953125 67 50.875 67 
Q 42.828125 67 35.984375 62.921875 
Q 29.15625 58.84375 24.40625 52.140625 
Q 19.671875 45.453125 17.125 37.4375 
Q 14.59375 29.4375 14.59375 21.921875 
z
" id="Cmmi10-71"/>
      </defs>
      <g transform="translate(216.65816 290.662)scale(0.1 -0.1)">
       <use transform="translate(0 0.484375)" xlink:href="#Cmmi10-71"/>
      </g>
     </g>
    </g>
    <g id="xtick_6">
     <g id="line2d_11">
      <path clip-path="url(#p9598c57710)" d="M 270.916199 276.762 
L 270.916199 10.65 
" style="fill:none;stroke:#b0b0b0;stroke-linecap:square;stroke-width:0.8;"/>
     </g>
     <g id="line2d_12">
      <g>
       <use style="stroke:#000000;stroke-width:0.8;" x="270.916199" xlink:href="#m277538f463" y="276.762"/>
      </g>
     </g>
     <g id="text_6">
      <!-- $A$ -->
      <defs>
       <path d="M 4.5 0 
Q 3.515625 0 3.515625 1.3125 
Q 3.90625 3.515625 4.78125 3.515625 
Q 8.84375 3.515625 11.796875 5.125 
Q 14.75 6.734375 16.890625 10.109375 
Q 17.09375 10.296875 17.09375 10.296875 
L 52.78125 70.515625 
Q 53.5625 71.578125 54.6875 71.578125 
L 56 71.578125 
Q 56.296875 71.578125 56.59375 71.453125 
Q 56.890625 71.34375 57.109375 71.0625 
Q 57.328125 70.796875 57.328125 70.515625 
L 63.375 5.90625 
Q 63.375 5.46875 63.8125 4.59375 
Q 64.796875 3.515625 71.296875 3.515625 
Q 72.3125 3.515625 72.3125 2.203125 
Q 71.96875 0.875 71.75 0.4375 
Q 71.53125 0 70.609375 0 
L 45.609375 0 
Q 44.671875 0 44.671875 1.3125 
Q 45.21875 3.515625 46 3.515625 
Q 53.90625 3.515625 54.390625 6.203125 
L 52.875 22.703125 
L 28.21875 22.703125 
L 20.21875 9.28125 
Q 19.484375 8.203125 19.484375 6.78125 
Q 19.484375 5.03125 21.171875 4.265625 
Q 22.859375 3.515625 24.90625 3.515625 
Q 25.875 3.515625 25.875 2.203125 
Q 25.53125 0.78125 25.328125 0.390625 
Q 25.140625 0 24.21875 0 
z
M 30.171875 26.21875 
L 52.484375 26.21875 
L 49.515625 58.59375 
z
" id="Cmmi10-65"/>
      </defs>
      <g transform="translate(267.166199 290.662)scale(0.1 -0.1)">
       <use transform="translate(0 0.421875)" xlink:href="#Cmmi10-65"/>
      </g>
     </g>
    </g>
    <g id="xtick_7">
     <g id="line2d_13">
      <path clip-path="url(#p9598c57710)" d="M 321.224238 276.762 
L 321.224238 10.65 
" style="fill:none;stroke:#b0b0b0;stroke-linecap:square;stroke-width:0.8;"/>
     </g>
     <g id="line2d_14">
      <g>
       <use style="stroke:#000000;stroke-width:0.8;" x="321.224238" xlink:href="#m277538f463" y="276.762"/>
      </g>
     </g>
     <g id="text_7">
      <!-- $B$ -->
      <defs>
       <path d="M 4.984375 0 
Q 4 0 4 1.3125 
Q 4.046875 1.5625 4.1875 2.140625 
Q 4.34375 2.734375 4.578125 3.125 
Q 4.828125 3.515625 5.328125 3.515625 
Q 8.15625 3.515625 10.25 3.65625 
Q 12.359375 3.8125 13.8125 4.203125 
Q 14.984375 4.640625 15.71875 6.890625 
L 29.390625 61.8125 
Q 29.59375 62.796875 29.59375 63.1875 
Q 29.59375 64.265625 28.421875 64.40625 
Q 26.515625 64.796875 21.1875 64.796875 
Q 20.21875 64.796875 20.21875 66.109375 
Q 20.265625 66.359375 20.40625 66.96875 
Q 20.5625 67.578125 20.828125 67.9375 
Q 21.09375 68.3125 21.484375 68.3125 
L 57.328125 68.3125 
Q 60.59375 68.3125 63.796875 67.5 
Q 67 66.703125 69.703125 64.9375 
Q 72.40625 63.1875 74 60.5625 
Q 75.59375 57.953125 75.59375 54.5 
Q 75.59375 50.734375 73.65625 47.5 
Q 71.734375 44.28125 68.671875 41.890625 
Q 65.625 39.5 62.078125 37.953125 
Q 58.546875 36.421875 54.6875 35.6875 
Q 57.421875 35.6875 60.21875 34.609375 
Q 63.03125 33.546875 65.234375 31.6875 
Q 67.4375 29.828125 68.78125 27.234375 
Q 70.125 24.65625 70.125 21.6875 
Q 70.125 15.671875 65.921875 10.6875 
Q 61.71875 5.71875 55.34375 2.859375 
Q 48.96875 0 43.015625 0 
z
M 23.390625 4.296875 
Q 23.390625 3.515625 26.8125 3.515625 
L 41.109375 3.515625 
Q 46 3.515625 50.484375 6.21875 
Q 54.984375 8.9375 57.6875 13.421875 
Q 60.40625 17.921875 60.40625 22.796875 
Q 60.40625 25.78125 59.15625 28.4375 
Q 57.90625 31.109375 55.5625 32.640625 
Q 53.21875 34.1875 50.203125 34.1875 
L 30.71875 34.1875 
L 23.78125 6.5 
Q 23.390625 5.125 23.390625 4.296875 
z
M 31.390625 36.8125 
L 46.578125 36.8125 
Q 51.375 36.8125 55.890625 39.25 
Q 60.40625 41.703125 63.25 45.890625 
Q 66.109375 50.09375 66.109375 54.78125 
Q 66.109375 59.125 63.390625 61.953125 
Q 60.6875 64.796875 56.390625 64.796875 
L 42.671875 64.796875 
Q 39.984375 64.796875 39.0625 64.296875 
Q 38.140625 63.8125 37.5 61.375 
z
" id="Cmmi10-66"/>
      </defs>
      <g transform="translate(317.424238 290.662)scale(0.1 -0.1)">
       <use transform="translate(0 0.6875)" xlink:href="#Cmmi10-66"/>
      </g>
     </g>
    </g>
   </g>
   <g id="matplotlib.axis_2">
    <g id="ytick_1">
     <g id="line2d_15">
      <path clip-path="url(#p9598c57710)" d="M 30.695312 256.291846 
L 335.058949 256.291846 
" style="fill:none;stroke:#b0b0b0;stroke-linecap:square;stroke-width:0.8;"/>
     </g>
     <g id="line2d_16">
      <defs>
       <path d="M 0 0 
L -3.5 0 
" id="m96778028d9" style="stroke:#000000;stroke-width:0.8;"/>
      </defs>
      <g>
       <use style="stroke:#000000;stroke-width:0.8;" x="30.695312" xlink:href="#m96778028d9" y="256.291846"/>
      </g>
     </g>
     <g id="text_8">
      <!-- 1.0 -->
      <defs>
       <path d="M 48.6875 0 
L 8.59375 0 
L 8.59375 7.90625 
L 25 7.90625 
L 25 54.5 
L 9.71875 46.1875 
L 6.59375 53.421875 
L 26.90625 64.109375 
L 34.421875 64.109375 
L 34.421875 7.90625 
L 48.6875 7.90625 
z
" id="Consolas-with-Yahei-49"/>
       <path d="M 27.09375 15.375 
Q 28.765625 15.375 30.25 14.734375 
Q 31.734375 14.109375 32.828125 12.984375 
Q 33.9375 11.859375 34.5625 10.375 
Q 35.203125 8.890625 35.203125 7.171875 
Q 35.203125 5.515625 34.5625 4.046875 
Q 33.9375 2.59375 32.828125 1.484375 
Q 31.734375 0.390625 30.25 -0.234375 
Q 28.765625 -0.875 27.09375 -0.875 
Q 25.390625 -0.875 23.921875 -0.234375 
Q 22.46875 0.390625 21.359375 1.484375 
Q 20.265625 2.59375 19.625 4.046875 
Q 19 5.515625 19 7.171875 
Q 19 8.890625 19.625 10.375 
Q 20.265625 11.859375 21.359375 12.984375 
Q 22.46875 14.109375 23.921875 14.734375 
Q 25.390625 15.375 27.09375 15.375 
z
" id="Consolas-with-Yahei-46"/>
       <path d="M 50.6875 31.890625 
Q 50.6875 24.5625 49.21875 18.53125 
Q 47.75 12.5 44.765625 8.171875 
Q 41.796875 3.859375 37.375 1.484375 
Q 32.953125 -0.875 27 -0.875 
Q 21.875 -0.875 17.671875 1.046875 
Q 13.484375 2.984375 10.5 6.984375 
Q 7.515625 10.984375 5.90625 17.1875 
Q 4.296875 23.390625 4.296875 31.890625 
Q 4.296875 39.203125 5.78125 45.25 
Q 7.28125 51.3125 10.234375 55.640625 
Q 13.1875 59.96875 17.625 62.328125 
Q 22.078125 64.703125 27.984375 64.703125 
Q 33.109375 64.703125 37.296875 62.765625 
Q 41.5 60.84375 44.484375 56.8125 
Q 47.46875 52.78125 49.078125 46.578125 
Q 50.6875 40.375 50.6875 31.890625 
z
M 42.09375 31.59375 
Q 42.09375 33.25 41.96875 34.890625 
Q 41.84375 36.53125 41.703125 38.09375 
L 14.703125 18.015625 
Q 15.4375 15.484375 16.546875 13.328125 
Q 17.671875 11.1875 19.25 9.640625 
Q 20.84375 8.109375 22.875 7.25 
Q 24.90625 6.390625 27.484375 6.390625 
Q 30.8125 6.390625 33.515625 8 
Q 36.234375 9.625 38.140625 12.796875 
Q 40.046875 15.96875 41.0625 20.671875 
Q 42.09375 25.390625 42.09375 31.59375 
z
M 12.890625 32.171875 
Q 12.890625 30.671875 12.90625 29.15625 
Q 12.9375 27.640625 13.09375 26.21875 
L 40.09375 46.1875 
Q 39.359375 48.6875 38.234375 50.734375 
Q 37.109375 52.78125 35.546875 54.265625 
Q 33.984375 55.765625 31.984375 56.59375 
Q 29.984375 57.421875 27.484375 57.421875 
Q 24.171875 57.421875 21.453125 55.8125 
Q 18.75 54.203125 16.84375 51 
Q 14.9375 47.796875 13.90625 43.078125 
Q 12.890625 38.375 12.890625 32.171875 
z
" id="Consolas-with-Yahei-48"/>
      </defs>
      <g transform="translate(7.2 259.741846)scale(0.1 -0.1)">
       <use xlink:href="#Consolas-with-Yahei-49"/>
       <use x="54.980469" xlink:href="#Consolas-with-Yahei-46"/>
       <use x="109.960938" xlink:href="#Consolas-with-Yahei-48"/>
      </g>
     </g>
    </g>
    <g id="ytick_2">
     <g id="line2d_17">
      <path clip-path="url(#p9598c57710)" d="M 30.695312 215.351538 
L 335.058949 215.351538 
" style="fill:none;stroke:#b0b0b0;stroke-linecap:square;stroke-width:0.8;"/>
     </g>
     <g id="line2d_18">
      <g>
       <use style="stroke:#000000;stroke-width:0.8;" x="30.695312" xlink:href="#m96778028d9" y="215.351538"/>
      </g>
     </g>
     <g id="text_9">
      <!-- 1.2 -->
      <defs>
       <path d="M 49.21875 0 
L 7.171875 0 
L 7.171875 7.625 
L 23.6875 24.03125 
Q 27.734375 28.03125 30.265625 30.953125 
Q 32.8125 33.890625 34.21875 36.296875 
Q 35.640625 38.71875 36.125 40.859375 
Q 36.625 43.015625 36.625 45.515625 
Q 36.625 47.859375 35.984375 49.96875 
Q 35.359375 52.09375 34.03125 53.703125 
Q 32.71875 55.328125 30.609375 56.25 
Q 28.515625 57.171875 25.59375 57.171875 
Q 21.53125 57.171875 18.203125 55.359375 
Q 14.890625 53.5625 12.109375 50.6875 
L 7.421875 56.296875 
Q 11.03125 60.109375 15.734375 62.40625 
Q 20.453125 64.703125 26.703125 64.703125 
Q 30.953125 64.703125 34.4375 63.421875 
Q 37.9375 62.15625 40.46875 59.765625 
Q 43.015625 57.375 44.40625 53.90625 
Q 45.796875 50.4375 45.796875 46.09375 
Q 45.796875 42.4375 44.8125 39.3125 
Q 43.84375 36.1875 41.859375 33.078125 
Q 39.890625 29.984375 36.890625 26.65625 
Q 33.890625 23.34375 29.78125 19.390625 
L 18.21875 8.109375 
L 49.21875 8.109375 
z
" id="Consolas-with-Yahei-50"/>
      </defs>
      <g transform="translate(7.2 218.801538)scale(0.1 -0.1)">
       <use xlink:href="#Consolas-with-Yahei-49"/>
       <use x="54.980469" xlink:href="#Consolas-with-Yahei-46"/>
       <use x="109.960938" xlink:href="#Consolas-with-Yahei-50"/>
      </g>
     </g>
    </g>
    <g id="ytick_3">
     <g id="line2d_19">
      <path clip-path="url(#p9598c57710)" d="M 30.695312 174.411231 
L 335.058949 174.411231 
" style="fill:none;stroke:#b0b0b0;stroke-linecap:square;stroke-width:0.8;"/>
     </g>
     <g id="line2d_20">
      <g>
       <use style="stroke:#000000;stroke-width:0.8;" x="30.695312" xlink:href="#m96778028d9" y="174.411231"/>
      </g>
     </g>
     <g id="text_10">
      <!-- 1.4 -->
      <defs>
       <path d="M 52.390625 14.109375 
L 41.5 14.109375 
L 41.5 0 
L 32.8125 0 
L 32.8125 14.109375 
L 2.09375 14.109375 
L 2.09375 21.578125 
L 29.296875 63.8125 
L 41.5 63.8125 
L 41.5 21.578125 
L 52.390625 21.578125 
z
M 32.8125 55.609375 
L 10.59375 21.578125 
L 32.8125 21.578125 
z
" id="Consolas-with-Yahei-52"/>
      </defs>
      <g transform="translate(7.2 177.861231)scale(0.1 -0.1)">
       <use xlink:href="#Consolas-with-Yahei-49"/>
       <use x="54.980469" xlink:href="#Consolas-with-Yahei-46"/>
       <use x="109.960938" xlink:href="#Consolas-with-Yahei-52"/>
      </g>
     </g>
    </g>
    <g id="ytick_4">
     <g id="line2d_21">
      <path clip-path="url(#p9598c57710)" d="M 30.695312 133.470923 
L 335.058949 133.470923 
" style="fill:none;stroke:#b0b0b0;stroke-linecap:square;stroke-width:0.8;"/>
     </g>
     <g id="line2d_22">
      <g>
       <use style="stroke:#000000;stroke-width:0.8;" x="30.695312" xlink:href="#m96778028d9" y="133.470923"/>
      </g>
     </g>
     <g id="text_11">
      <!-- 1.6 -->
      <defs>
       <path d="M 50 20.21875 
Q 50 15.828125 48.40625 11.96875 
Q 46.828125 8.109375 43.890625 5.25 
Q 40.96875 2.390625 36.84375 0.75 
Q 32.71875 -0.875 27.6875 -0.875 
Q 22.40625 -0.875 18.359375 0.796875 
Q 14.3125 2.484375 11.578125 5.96875 
Q 8.84375 9.46875 7.421875 14.796875 
Q 6 20.125 6 27.390625 
Q 6 32.28125 6.640625 36.859375 
Q 7.28125 41.453125 8.734375 45.5 
Q 10.203125 49.5625 12.640625 52.921875 
Q 15.09375 56.296875 18.71875 58.71875 
Q 22.359375 61.140625 27.296875 62.46875 
Q 32.234375 63.8125 38.71875 63.8125 
L 45.015625 63.8125 
L 45.015625 56.390625 
L 38.1875 56.390625 
Q 32.46875 56.390625 28.265625 55.015625 
Q 24.078125 53.65625 21.234375 51.171875 
Q 18.40625 48.6875 16.890625 45.171875 
Q 15.375 41.65625 14.984375 37.3125 
L 14.796875 35.296875 
Q 17.875 37.109375 21.890625 38.203125 
Q 25.921875 39.3125 30.609375 39.3125 
Q 35.453125 39.3125 39.078125 37.890625 
Q 42.71875 36.46875 45.140625 33.953125 
Q 47.5625 31.453125 48.78125 27.9375 
Q 50 24.421875 50 20.21875 
z
M 41.109375 19.671875 
Q 41.109375 22.609375 40.40625 24.96875 
Q 39.703125 27.34375 38.1875 28.96875 
Q 36.671875 30.609375 34.34375 31.515625 
Q 32.03125 32.421875 28.8125 32.421875 
Q 26.953125 32.421875 25.046875 32.078125 
Q 23.140625 31.734375 21.3125 31.125 
Q 19.484375 30.515625 17.8125 29.734375 
Q 16.15625 28.953125 14.796875 28.078125 
Q 14.796875 21.78125 15.671875 17.546875 
Q 16.546875 13.328125 18.28125 10.78125 
Q 20.015625 8.25 22.546875 7.171875 
Q 25.09375 6.109375 28.421875 6.109375 
Q 31.203125 6.109375 33.515625 7 
Q 35.84375 7.90625 37.515625 9.65625 
Q 39.203125 11.421875 40.15625 13.9375 
Q 41.109375 16.453125 41.109375 19.671875 
z
" id="Consolas-with-Yahei-54"/>
      </defs>
      <g transform="translate(7.2 136.920923)scale(0.1 -0.1)">
       <use xlink:href="#Consolas-with-Yahei-49"/>
       <use x="54.980469" xlink:href="#Consolas-with-Yahei-46"/>
       <use x="109.960938" xlink:href="#Consolas-with-Yahei-54"/>
      </g>
     </g>
    </g>
    <g id="ytick_5">
     <g id="line2d_23">
      <path clip-path="url(#p9598c57710)" d="M 30.695312 92.530615 
L 335.058949 92.530615 
" style="fill:none;stroke:#b0b0b0;stroke-linecap:square;stroke-width:0.8;"/>
     </g>
     <g id="line2d_24">
      <g>
       <use style="stroke:#000000;stroke-width:0.8;" x="30.695312" xlink:href="#m96778028d9" y="92.530615"/>
      </g>
     </g>
     <g id="text_12">
      <!-- 1.8 -->
      <defs>
       <path d="M 49.21875 16.015625 
Q 49.21875 11.96875 47.5625 8.8125 
Q 45.90625 5.671875 42.921875 3.515625 
Q 39.9375 1.375 35.890625 0.25 
Q 31.84375 -0.875 27.09375 -0.875 
Q 21.875 -0.875 17.890625 0.296875 
Q 13.921875 1.46875 11.234375 3.5625 
Q 8.546875 5.671875 7.171875 8.546875 
Q 5.8125 11.421875 5.8125 14.890625 
Q 5.8125 20.75 9.078125 25 
Q 12.359375 29.25 19.1875 32.71875 
Q 12.9375 35.890625 10.046875 39.765625 
Q 7.171875 43.65625 7.171875 48.6875 
Q 7.171875 51.765625 8.4375 54.640625 
Q 9.71875 57.515625 12.28125 59.765625 
Q 14.84375 62.015625 18.703125 63.359375 
Q 22.5625 64.703125 27.78125 64.703125 
Q 32.71875 64.703125 36.453125 63.640625 
Q 40.1875 62.59375 42.71875 60.640625 
Q 45.265625 58.6875 46.53125 55.90625 
Q 47.796875 53.125 47.796875 49.703125 
Q 47.796875 44.140625 44.703125 40.234375 
Q 41.609375 36.328125 35.890625 33.40625 
Q 38.71875 31.984375 41.15625 30.265625 
Q 43.609375 28.5625 45.40625 26.453125 
Q 47.21875 24.359375 48.21875 21.765625 
Q 49.21875 19.1875 49.21875 16.015625 
z
M 39.109375 49.03125 
Q 39.109375 53.375 36.0625 55.5 
Q 33.015625 57.625 27.484375 57.625 
Q 22.015625 57.625 18.96875 55.515625 
Q 15.921875 53.421875 15.921875 49.21875 
Q 15.921875 47.3125 16.65625 45.703125 
Q 17.390625 44.09375 18.921875 42.671875 
Q 20.453125 41.265625 22.75 39.890625 
Q 25.046875 38.53125 28.21875 37.109375 
Q 33.734375 39.703125 36.421875 42.5 
Q 39.109375 45.3125 39.109375 49.03125 
z
M 39.984375 15.375 
Q 39.984375 17.1875 39.390625 18.890625 
Q 38.8125 20.609375 37.296875 22.265625 
Q 35.796875 23.921875 33.25 25.578125 
Q 30.71875 27.25 26.8125 29 
Q 23.484375 27.390625 21.21875 25.796875 
Q 18.953125 24.21875 17.546875 22.578125 
Q 16.15625 20.953125 15.5625 19.1875 
Q 14.984375 17.4375 14.984375 15.484375 
Q 14.984375 13.28125 15.9375 11.59375 
Q 16.890625 9.90625 18.546875 8.734375 
Q 20.21875 7.5625 22.515625 6.96875 
Q 24.8125 6.390625 27.484375 6.390625 
Q 30.078125 6.390625 32.375 6.921875 
Q 34.671875 7.46875 36.34375 8.5625 
Q 38.03125 9.671875 39 11.34375 
Q 39.984375 13.03125 39.984375 15.375 
z
" id="Consolas-with-Yahei-56"/>
      </defs>
      <g transform="translate(7.2 95.980615)scale(0.1 -0.1)">
       <use xlink:href="#Consolas-with-Yahei-49"/>
       <use x="54.980469" xlink:href="#Consolas-with-Yahei-46"/>
       <use x="109.960938" xlink:href="#Consolas-with-Yahei-56"/>
      </g>
     </g>
    </g>
    <g id="ytick_6">
     <g id="line2d_25">
      <path clip-path="url(#p9598c57710)" d="M 30.695312 51.590308 
L 335.058949 51.590308 
" style="fill:none;stroke:#b0b0b0;stroke-linecap:square;stroke-width:0.8;"/>
     </g>
     <g id="line2d_26">
      <g>
       <use style="stroke:#000000;stroke-width:0.8;" x="30.695312" xlink:href="#m96778028d9" y="51.590308"/>
      </g>
     </g>
     <g id="text_13">
      <!-- 2.0 -->
      <g transform="translate(7.2 55.040308)scale(0.1 -0.1)">
       <use xlink:href="#Consolas-with-Yahei-50"/>
       <use x="54.980469" xlink:href="#Consolas-with-Yahei-46"/>
       <use x="109.960938" xlink:href="#Consolas-with-Yahei-48"/>
      </g>
     </g>
    </g>
    <g id="ytick_7">
     <g id="line2d_27">
      <path clip-path="url(#p9598c57710)" d="M 30.695312 10.65 
L 335.058949 10.65 
" style="fill:none;stroke:#b0b0b0;stroke-linecap:square;stroke-width:0.8;"/>
     </g>
     <g id="line2d_28">
      <g>
       <use style="stroke:#000000;stroke-width:0.8;" x="30.695312" xlink:href="#m96778028d9" y="10.65"/>
      </g>
     </g>
     <g id="text_14">
      <!-- 2.2 -->
      <g transform="translate(7.2 14.1)scale(0.1 -0.1)">
       <use xlink:href="#Consolas-with-Yahei-50"/>
       <use x="54.980469" xlink:href="#Consolas-with-Yahei-46"/>
       <use x="109.960938" xlink:href="#Consolas-with-Yahei-50"/>
      </g>
     </g>
    </g>
   </g>
   <g id="line2d_29">
    <defs>
     <path d="M 0 -3 
L -0.673542 -0.927051 
L -2.85317 -0.927051 
L -1.089814 0.354102 
L -1.763356 2.427051 
L -0 1.145898 
L 1.763356 2.427051 
L 1.089814 0.354102 
L 2.85317 -0.927051 
L 0.673542 -0.927051 
z
" id="m860ac00340" style="stroke:#ff0000;stroke-linejoin:bevel;"/>
    </defs>
    <g clip-path="url(#p9598c57710)">
     <use style="fill:#ff0000;stroke:#ff0000;stroke-linejoin:bevel;" x="44.530023" xlink:href="#m860ac00340" y="256.291846"/>
     <use style="fill:#ff0000;stroke:#ff0000;stroke-linejoin:bevel;" x="94.838062" xlink:href="#m860ac00340" y="231.223676"/>
     <use style="fill:#ff0000;stroke:#ff0000;stroke-linejoin:bevel;" x="145.146101" xlink:href="#m860ac00340" y="203.085607"/>
     <use style="fill:#ff0000;stroke:#ff0000;stroke-linejoin:bevel;" x="195.45414" xlink:href="#m860ac00340" y="171.501693"/>
     <use style="fill:#ff0000;stroke:#ff0000;stroke-linejoin:bevel;" x="220.60816" xlink:href="#m860ac00340" y="154.287621"/>
     <use style="fill:#ff0000;stroke:#ff0000;stroke-linejoin:bevel;" x="270.916199" xlink:href="#m860ac00340" y="116.727805"/>
     <use style="fill:#ff0000;stroke:#ff0000;stroke-linejoin:bevel;" x="321.224238" xlink:href="#m860ac00340" y="74.568337"/>
    </g>
   </g>
   <g id="line2d_30">
    <path clip-path="url(#p9598c57710)" d="M 44.530023 256.291846 
L 94.838062 232.616492 
L 145.146101 206.202897 
L 195.45414 176.734359 
L 220.60816 155.218627 
L 270.916199 119.853355 
L 321.224238 80.39781 
" style="fill:none;stroke:#0000ff;stroke-dasharray:5.55,2.4;stroke-dashoffset:0;stroke-width:1.5;"/>
   </g>
   <g id="patch_3">
    <path d="M 30.695312 276.762 
L 30.695312 10.65 
" style="fill:none;stroke:#000000;stroke-linecap:square;stroke-linejoin:miter;stroke-width:0.8;"/>
   </g>
   <g id="patch_4">
    <path d="M 335.058949 276.762 
L 335.058949 10.65 
" style="fill:none;stroke:#000000;stroke-linecap:square;stroke-linejoin:miter;stroke-width:0.8;"/>
   </g>
   <g id="patch_5">
    <path d="M 30.695312 276.762 
L 335.058949 276.762 
" style="fill:none;stroke:#000000;stroke-linecap:square;stroke-linejoin:miter;stroke-width:0.8;"/>
   </g>
   <g id="patch_6">
    <path d="M 30.695312 10.65 
L 335.058949 10.65 
" style="fill:none;stroke:#000000;stroke-linecap:square;stroke-linejoin:miter;stroke-width:0.8;"/>
   </g>
   <g id="legend_1">
    <g id="patch_7">
     <path d="M 147.601136 46.7125 
L 328.058949 46.7125 
Q 330.058949 46.7125 330.058949 44.7125 
L 330.058949 17.65 
Q 330.058949 15.65 328.058949 15.65 
L 147.601136 15.65 
Q 145.601136 15.65 145.601136 17.65 
L 145.601136 44.7125 
Q 145.601136 46.7125 147.601136 46.7125 
z
" style="fill:#ffffff;opacity:0.8;stroke:#cccccc;stroke-linejoin:miter;"/>
    </g>
    <g id="line2d_31"/>
    <g id="line2d_32">
     <g>
      <use style="fill:#ff0000;stroke:#ff0000;stroke-linejoin:bevel;" x="159.601136" xlink:href="#m860ac00340" y="23.15"/>
     </g>
    </g>
    <g id="text_15">
     <!-- 12-TET C Lydian frequencies -->
     <defs>
      <path d="M 42.09375 22.609375 
L 12.890625 22.609375 
L 12.890625 30.609375 
L 42.09375 30.609375 
z
" id="Consolas-with-Yahei-45"/>
      <path d="M 50.78125 56.390625 
L 31.890625 56.390625 
L 31.890625 0 
L 23.09375 0 
L 23.09375 56.390625 
L 4.203125 56.390625 
L 4.203125 63.8125 
L 50.78125 63.8125 
z
" id="Consolas-with-Yahei-84"/>
      <path d="M 46.09375 0 
L 9.8125 0 
L 9.8125 63.8125 
L 46.09375 63.8125 
L 46.09375 56.5 
L 18.5 56.5 
L 18.5 36.71875 
L 45.015625 36.71875 
L 45.015625 29.390625 
L 18.5 29.390625 
L 18.5 7.421875 
L 46.09375 7.421875 
z
" id="Consolas-with-Yahei-69"/>
      <path id="Consolas-with-Yahei-32"/>
      <path d="M 48.578125 2.390625 
Q 40.921875 -0.78125 32.515625 -0.78125 
Q 19 -0.78125 11.75 7.296875 
Q 4.5 15.375 4.5 31.203125 
Q 4.5 38.875 6.5 45.0625 
Q 8.5 51.265625 12.203125 55.578125 
Q 15.921875 59.90625 21.1875 62.25 
Q 26.46875 64.59375 33.015625 64.59375 
Q 37.453125 64.59375 41.25 63.84375 
Q 45.0625 63.09375 48.578125 61.53125 
L 48.578125 52.984375 
Q 45.125 54.890625 41.40625 55.890625 
Q 37.703125 56.890625 33.296875 56.890625 
Q 28.8125 56.890625 25.171875 55.203125 
Q 21.53125 53.515625 18.984375 50.3125 
Q 16.453125 47.125 15.078125 42.5 
Q 13.71875 37.890625 13.71875 31.984375 
Q 13.71875 19.578125 18.75 13.28125 
Q 23.78125 6.984375 33.5 6.984375 
Q 37.59375 6.984375 41.359375 7.9375 
Q 45.125 8.890625 48.578125 10.59375 
z
" id="Consolas-with-Yahei-67"/>
      <path d="M 48.09375 0 
L 11.375 0 
L 11.375 63.8125 
L 20.21875 63.8125 
L 20.21875 7.421875 
L 48.09375 7.421875 
z
" id="Consolas-with-Yahei-76"/>
      <path d="M 51.421875 49.03125 
L 34.71875 5.171875 
Q 32.125 -1.515625 29.359375 -6.34375 
Q 26.609375 -11.1875 23.328125 -14.28125 
Q 20.0625 -17.390625 16.15625 -18.84375 
Q 12.25 -20.3125 7.421875 -20.3125 
Q 6.15625 -20.3125 5.125 -20.265625 
Q 4.109375 -20.21875 2.875 -20.125 
L 2.875 -12.40625 
Q 3.953125 -12.546875 5.21875 -12.671875 
Q 6.5 -12.796875 7.90625 -12.796875 
Q 10.25 -12.796875 12.28125 -12.109375 
Q 14.3125 -11.421875 16.109375 -9.875 
Q 17.921875 -8.34375 19.578125 -5.90625 
Q 21.234375 -3.46875 22.796875 0 
L 3.21875 49.03125 
L 12.890625 49.03125 
L 25.296875 16.609375 
L 27.78125 8.984375 
L 30.609375 16.796875 
L 42.09375 49.03125 
z
" id="Consolas-with-Yahei-121"/>
      <path d="M 5.328125 23.484375 
Q 5.328125 29.734375 7.03125 34.59375 
Q 8.734375 39.453125 11.890625 42.796875 
Q 15.046875 46.140625 19.453125 47.875 
Q 23.875 49.609375 29.296875 49.609375 
Q 31.640625 49.609375 33.90625 49.3125 
Q 36.1875 49.03125 38.375 48.390625 
L 38.375 69 
L 46.921875 69 
L 46.921875 0 
L 39.3125 0 
L 39.015625 9.28125 
Q 35.453125 4.109375 31.296875 1.609375 
Q 27.15625 -0.875 22.3125 -0.875 
Q 18.109375 -0.875 14.90625 0.875 
Q 11.71875 2.640625 9.59375 5.828125 
Q 7.46875 9.03125 6.390625 13.515625 
Q 5.328125 18.015625 5.328125 23.484375 
z
M 14.015625 24.03125 
Q 14.015625 15.140625 16.625 10.765625 
Q 19.234375 6.390625 24.03125 6.390625 
Q 27.25 6.390625 30.828125 9.265625 
Q 34.421875 12.15625 38.375 17.828125 
L 38.375 40.578125 
Q 36.28125 41.546875 33.734375 42.0625 
Q 31.203125 42.578125 28.71875 42.578125 
Q 21.78125 42.578125 17.890625 38.078125 
Q 14.015625 33.59375 14.015625 24.03125 
z
" id="Consolas-with-Yahei-100"/>
      <path d="M 24.515625 42 
L 10.015625 42 
L 10.015625 49.03125 
L 33.109375 49.03125 
L 33.109375 7.078125 
L 47.703125 7.078125 
L 47.703125 0 
L 8.40625 0 
L 8.40625 7.078125 
L 24.515625 7.078125 
z
M 27.484375 69.578125 
Q 28.90625 69.578125 30.125 69.0625 
Q 31.34375 68.5625 32.25 67.625 
Q 33.15625 66.703125 33.671875 65.5 
Q 34.1875 64.3125 34.1875 62.890625 
Q 34.1875 61.53125 33.671875 60.296875 
Q 33.15625 59.078125 32.25 58.15625 
Q 31.34375 57.234375 30.125 56.71875 
Q 28.90625 56.203125 27.484375 56.203125 
Q 26.078125 56.203125 24.859375 56.71875 
Q 23.640625 57.234375 22.734375 58.15625 
Q 21.828125 59.078125 21.3125 60.296875 
Q 20.796875 61.53125 20.796875 62.890625 
Q 20.796875 64.3125 21.3125 65.5 
Q 21.828125 66.703125 22.734375 67.625 
Q 23.640625 68.5625 24.859375 69.0625 
Q 26.078125 69.578125 27.484375 69.578125 
z
" id="Consolas-with-Yahei-105"/>
      <path d="M 39.3125 0 
L 39.109375 6.59375 
Q 35.109375 2.640625 30.984375 0.875 
Q 26.859375 -0.875 22.3125 -0.875 
Q 18.109375 -0.875 15.125 0.1875 
Q 12.15625 1.265625 10.21875 3.140625 
Q 8.296875 5.03125 7.390625 7.5625 
Q 6.5 10.109375 6.5 13.09375 
Q 6.5 20.453125 11.984375 24.625 
Q 17.484375 28.8125 28.21875 28.8125 
L 38.375 28.8125 
L 38.375 33.109375 
Q 38.375 37.453125 35.59375 40.0625 
Q 32.8125 42.671875 27.09375 42.671875 
Q 22.953125 42.671875 18.921875 41.75 
Q 14.890625 40.828125 10.59375 39.109375 
L 10.59375 46.78125 
Q 12.203125 47.359375 14.171875 47.921875 
Q 16.15625 48.484375 18.359375 48.921875 
Q 20.5625 49.359375 22.953125 49.625 
Q 25.34375 49.90625 27.78125 49.90625 
Q 32.234375 49.90625 35.796875 48.921875 
Q 39.359375 47.953125 41.8125 45.953125 
Q 44.28125 43.953125 45.59375 40.921875 
Q 46.921875 37.890625 46.921875 33.796875 
L 46.921875 0 
z
M 38.375 22.3125 
L 27.59375 22.3125 
Q 24.421875 22.3125 22.125 21.671875 
Q 19.828125 21.046875 18.359375 19.875 
Q 16.890625 18.703125 16.1875 17.0625 
Q 15.484375 15.4375 15.484375 13.375 
Q 15.484375 11.96875 15.921875 10.671875 
Q 16.359375 9.375 17.328125 8.375 
Q 18.3125 7.375 19.875 6.78125 
Q 21.4375 6.203125 23.6875 6.203125 
Q 26.609375 6.203125 30.390625 7.984375 
Q 34.1875 9.765625 38.375 13.625 
z
" id="Consolas-with-Yahei-97"/>
      <path d="M 7.8125 49.03125 
L 15.375 49.03125 
L 15.71875 41.109375 
Q 17.875 43.65625 19.875 45.328125 
Q 21.875 47.015625 23.796875 48.046875 
Q 25.734375 49.078125 27.734375 49.484375 
Q 29.734375 49.90625 31.890625 49.90625 
Q 39.453125 49.90625 43.328125 45.4375 
Q 47.21875 40.96875 47.21875 31.984375 
L 47.21875 0 
L 38.71875 0 
L 38.71875 31.296875 
Q 38.71875 37.0625 36.5625 39.8125 
Q 34.421875 42.578125 30.171875 42.578125 
Q 28.609375 42.578125 27.125 42.109375 
Q 25.640625 41.65625 24.015625 40.5 
Q 22.40625 39.359375 20.53125 37.40625 
Q 18.65625 35.453125 16.3125 32.515625 
L 16.3125 0 
L 7.8125 0 
z
" id="Consolas-with-Yahei-110"/>
      <path d="M 51.3125 61.078125 
Q 44.625 62.5 39.796875 62.5 
Q 28.328125 62.5 28.328125 50.484375 
L 28.328125 41.890625 
L 49.8125 41.890625 
L 49.8125 34.8125 
L 28.328125 34.8125 
L 28.328125 0 
L 19.671875 0 
L 19.671875 34.8125 
L 3.90625 34.8125 
L 3.90625 41.890625 
L 19.671875 41.890625 
L 19.671875 50 
Q 19.671875 69.578125 40.09375 69.578125 
Q 45.171875 69.578125 51.3125 68.40625 
z
M 0 49.03125 
z
" id="Consolas-with-Yahei-102"/>
      <path d="M 9.8125 49.03125 
L 17.578125 49.03125 
L 17.828125 39.984375 
Q 22.171875 45.21875 26.390625 47.5625 
Q 30.609375 49.90625 34.90625 49.90625 
Q 42.53125 49.90625 46.453125 44.96875 
Q 50.390625 40.046875 50.09375 30.328125 
L 41.5 30.328125 
Q 41.65625 36.765625 39.625 39.671875 
Q 37.59375 42.578125 33.6875 42.578125 
Q 31.984375 42.578125 30.25 41.96875 
Q 28.515625 41.359375 26.6875 40.015625 
Q 24.859375 38.671875 22.796875 36.5625 
Q 20.75 34.46875 18.40625 31.5 
L 18.40625 0 
L 9.8125 0 
z
" id="Consolas-with-Yahei-114"/>
      <path d="M 49.21875 27.09375 
Q 49.21875 25.296875 49.171875 24.078125 
Q 49.125 22.859375 49.03125 21.78125 
L 14.59375 21.78125 
Q 14.59375 14.265625 18.796875 10.234375 
Q 23 6.203125 30.90625 6.203125 
Q 33.0625 6.203125 35.203125 6.375 
Q 37.359375 6.546875 39.359375 6.828125 
Q 41.359375 7.125 43.1875 7.484375 
Q 45.015625 7.859375 46.578125 8.296875 
L 46.578125 1.3125 
Q 43.109375 0.34375 38.734375 -0.265625 
Q 34.375 -0.875 29.6875 -0.875 
Q 23.390625 -0.875 18.84375 0.828125 
Q 14.3125 2.546875 11.40625 5.78125 
Q 8.5 9.03125 7.109375 13.734375 
Q 5.71875 18.453125 5.71875 24.421875 
Q 5.71875 29.59375 7.203125 34.203125 
Q 8.6875 38.8125 11.546875 42.296875 
Q 14.40625 45.796875 18.546875 47.84375 
Q 22.703125 49.90625 27.984375 49.90625 
Q 33.109375 49.90625 37.0625 48.296875 
Q 41.015625 46.6875 43.71875 43.71875 
Q 46.4375 40.765625 47.828125 36.546875 
Q 49.21875 32.328125 49.21875 27.09375 
z
M 40.375 28.328125 
Q 40.53125 31.59375 39.75 34.296875 
Q 38.96875 37.015625 37.328125 38.96875 
Q 35.6875 40.921875 33.25 42.015625 
Q 30.8125 43.109375 27.59375 43.109375 
Q 24.8125 43.109375 22.515625 42.03125 
Q 20.21875 40.96875 18.546875 39.015625 
Q 16.890625 37.0625 15.859375 34.328125 
Q 14.84375 31.59375 14.59375 28.328125 
z
" id="Consolas-with-Yahei-101"/>
      <path d="M 5.328125 23.484375 
Q 5.328125 28.765625 6.71875 33.5 
Q 8.109375 38.234375 11.015625 41.8125 
Q 13.921875 45.40625 18.453125 47.5 
Q 23 49.609375 29.296875 49.609375 
Q 31.78125 49.609375 34.21875 49.21875 
Q 36.671875 48.828125 39.40625 48 
L 46.921875 49.90625 
L 46.921875 -20.015625 
L 38.375 -20.015625 
L 38.375 -1.515625 
L 38.8125 8.984375 
Q 31.890625 -0.875 22.3125 -0.875 
Q 18.015625 -0.875 14.84375 0.875 
Q 11.671875 2.640625 9.546875 5.859375 
Q 7.421875 9.078125 6.375 13.5625 
Q 5.328125 18.0625 5.328125 23.484375 
z
M 14.015625 24.03125 
Q 14.015625 19.921875 14.625 16.640625 
Q 15.234375 13.375 16.46875 11.109375 
Q 17.71875 8.84375 19.59375 7.609375 
Q 21.484375 6.390625 24.03125 6.390625 
Q 27.25 6.390625 30.828125 9.265625 
Q 34.421875 12.15625 38.375 17.828125 
L 38.375 40.578125 
Q 36.421875 41.5 33.953125 42.078125 
Q 31.5 42.671875 28.71875 42.671875 
Q 21.53125 42.671875 17.765625 37.9375 
Q 14.015625 33.203125 14.015625 24.03125 
z
" id="Consolas-with-Yahei-113"/>
      <path d="M 47.21875 0 
L 39.59375 0 
L 39.3125 7.90625 
Q 37.109375 5.375 35.125 3.6875 
Q 33.15625 2 31.203125 0.96875 
Q 29.25 -0.046875 27.265625 -0.453125 
Q 25.296875 -0.875 23.09375 -0.875 
Q 15.53125 -0.875 11.671875 3.5625 
Q 7.8125 8.015625 7.8125 17 
L 7.8125 49.03125 
L 16.3125 49.03125 
L 16.3125 17.671875 
Q 16.3125 6.390625 24.8125 6.390625 
Q 26.375 6.390625 27.859375 6.859375 
Q 29.34375 7.328125 30.984375 8.46875 
Q 32.625 9.625 34.5 11.578125 
Q 36.375 13.53125 38.71875 16.5 
L 38.71875 49.03125 
L 47.21875 49.03125 
z
" id="Consolas-with-Yahei-117"/>
      <path d="M 45.90625 1.8125 
Q 42.578125 0.53125 39.078125 -0.078125 
Q 35.59375 -0.6875 31.890625 -0.6875 
Q 20.265625 -0.6875 13.984375 5.609375 
Q 7.71875 11.921875 7.71875 24.03125 
Q 7.71875 29.828125 9.515625 34.5625 
Q 11.328125 39.3125 14.59375 42.671875 
Q 17.875 46.046875 22.40625 47.875 
Q 26.953125 49.703125 32.421875 49.703125 
Q 36.234375 49.703125 39.546875 49.171875 
Q 42.875 48.640625 45.90625 47.40625 
L 45.90625 39.3125 
Q 42.71875 40.96875 39.421875 41.71875 
Q 36.140625 42.484375 32.625 42.484375 
Q 29.34375 42.484375 26.4375 41.234375 
Q 23.53125 39.984375 21.328125 37.640625 
Q 19.140625 35.296875 17.875 31.921875 
Q 16.609375 28.5625 16.609375 24.3125 
Q 16.609375 15.4375 20.921875 11.015625 
Q 25.25 6.59375 32.90625 6.59375 
Q 36.375 6.59375 39.625 7.375 
Q 42.875 8.15625 45.90625 9.71875 
z
" id="Consolas-with-Yahei-99"/>
      <path d="M 46.625 13.375 
Q 46.625 10.796875 45.75 8.734375 
Q 44.875 6.6875 43.359375 5.09375 
Q 41.84375 3.515625 39.84375 2.390625 
Q 37.84375 1.265625 35.5625 0.53125 
Q 33.296875 -0.203125 30.90625 -0.53125 
Q 28.515625 -0.875 26.21875 -0.875 
Q 21.234375 -0.875 17.0625 -0.4375 
Q 12.890625 0 8.890625 0.984375 
L 8.890625 8.796875 
Q 13.1875 7.5625 17.4375 6.921875 
Q 21.6875 6.296875 25.875 6.296875 
Q 31.984375 6.296875 34.90625 7.953125 
Q 37.84375 9.625 37.84375 12.703125 
Q 37.84375 14.015625 37.375 15.0625 
Q 36.921875 16.109375 35.6875 17.0625 
Q 34.46875 18.015625 31.90625 19.03125 
Q 29.34375 20.0625 24.90625 21.390625 
Q 21.578125 22.359375 18.765625 23.609375 
Q 15.96875 24.859375 13.90625 26.5625 
Q 11.859375 28.265625 10.6875 30.5625 
Q 9.515625 32.859375 9.515625 35.984375 
Q 9.515625 38.03125 10.46875 40.46875 
Q 11.421875 42.921875 13.71875 45.015625 
Q 16.015625 47.125 19.921875 48.515625 
Q 23.828125 49.90625 29.6875 49.90625 
Q 32.5625 49.90625 36.078125 49.578125 
Q 39.59375 49.265625 43.40625 48.484375 
L 43.40625 40.921875 
Q 39.40625 41.890625 35.8125 42.359375 
Q 32.234375 42.828125 29.59375 42.828125 
Q 26.421875 42.828125 24.25 42.328125 
Q 22.078125 41.84375 20.734375 40.984375 
Q 19.390625 40.140625 18.796875 38.984375 
Q 18.21875 37.84375 18.21875 36.53125 
Q 18.21875 35.203125 18.71875 34.125 
Q 19.234375 33.0625 20.625 32.0625 
Q 22.015625 31.0625 24.5 30.046875 
Q 27 29.046875 31 27.875 
Q 35.359375 26.609375 38.328125 25.21875 
Q 41.3125 23.828125 43.15625 22.109375 
Q 45.015625 20.40625 45.8125 18.25 
Q 46.625 16.109375 46.625 13.375 
z
" id="Consolas-with-Yahei-115"/>
     </defs>
     <g transform="translate(177.601136 26.65)scale(0.1 -0.1)">
      <use xlink:href="#Consolas-with-Yahei-49"/>
      <use x="54.980469" xlink:href="#Consolas-with-Yahei-50"/>
      <use x="109.960938" xlink:href="#Consolas-with-Yahei-45"/>
      <use x="164.941406" xlink:href="#Consolas-with-Yahei-84"/>
      <use x="219.921875" xlink:href="#Consolas-with-Yahei-69"/>
      <use x="274.902344" xlink:href="#Consolas-with-Yahei-84"/>
      <use x="329.882812" xlink:href="#Consolas-with-Yahei-32"/>
      <use x="384.863281" xlink:href="#Consolas-with-Yahei-67"/>
      <use x="439.84375" xlink:href="#Consolas-with-Yahei-32"/>
      <use x="494.824219" xlink:href="#Consolas-with-Yahei-76"/>
      <use x="549.804688" xlink:href="#Consolas-with-Yahei-121"/>
      <use x="604.785156" xlink:href="#Consolas-with-Yahei-100"/>
      <use x="659.765625" xlink:href="#Consolas-with-Yahei-105"/>
      <use x="714.746094" xlink:href="#Consolas-with-Yahei-97"/>
      <use x="769.726562" xlink:href="#Consolas-with-Yahei-110"/>
      <use x="824.707031" xlink:href="#Consolas-with-Yahei-32"/>
      <use x="879.6875" xlink:href="#Consolas-with-Yahei-102"/>
      <use x="934.667969" xlink:href="#Consolas-with-Yahei-114"/>
      <use x="989.648438" xlink:href="#Consolas-with-Yahei-101"/>
      <use x="1044.628906" xlink:href="#Consolas-with-Yahei-113"/>
      <use x="1099.609375" xlink:href="#Consolas-with-Yahei-117"/>
      <use x="1154.589844" xlink:href="#Consolas-with-Yahei-101"/>
      <use x="1209.570312" xlink:href="#Consolas-with-Yahei-110"/>
      <use x="1264.550781" xlink:href="#Consolas-with-Yahei-99"/>
      <use x="1319.53125" xlink:href="#Consolas-with-Yahei-105"/>
      <use x="1374.511719" xlink:href="#Consolas-with-Yahei-101"/>
      <use x="1429.492188" xlink:href="#Consolas-with-Yahei-115"/>
     </g>
    </g>
    <g id="line2d_33">
     <path d="M 149.601136 37.18125 
L 169.601136 37.18125 
" style="fill:none;stroke:#0000ff;stroke-dasharray:5.55,2.4;stroke-dashoffset:0;stroke-width:1.5;"/>
    </g>
    <g id="line2d_34"/>
    <g id="text_16">
     <!-- 19-TET C Lydian frequencies -->
     <defs>
      <path d="M 48.875 35.5 
Q 48.875 26.171875 46.625 19.453125 
Q 44.390625 12.75 39.984375 8.421875 
Q 35.59375 4.109375 29.09375 2.046875 
Q 22.609375 0 14.109375 0 
L 8.796875 0 
L 8.796875 7.421875 
L 14.703125 7.421875 
Q 21 7.421875 25.578125 8.6875 
Q 30.171875 9.96875 33.21875 12.421875 
Q 36.28125 14.890625 37.890625 18.421875 
Q 39.5 21.96875 39.890625 26.515625 
L 40.09375 28.515625 
Q 37.015625 26.703125 33 25.609375 
Q 29 24.515625 24.3125 24.515625 
Q 19.484375 24.515625 15.8125 25.921875 
Q 12.15625 27.34375 9.734375 29.875 
Q 7.328125 32.421875 6.109375 35.90625 
Q 4.890625 39.40625 4.890625 43.5 
Q 4.890625 47.953125 6.5 51.8125 
Q 8.109375 55.671875 11.015625 58.515625 
Q 13.921875 61.375 17.96875 63.03125 
Q 22.015625 64.703125 26.90625 64.703125 
Q 31.640625 64.703125 35.671875 63.140625 
Q 39.703125 61.578125 42.625 58.078125 
Q 45.5625 54.59375 47.21875 49.015625 
Q 48.875 43.453125 48.875 35.5 
z
M 26.515625 57.71875 
Q 23.78125 57.71875 21.453125 56.8125 
Q 19.140625 55.90625 17.453125 54.171875 
Q 15.765625 52.4375 14.78125 49.890625 
Q 13.8125 47.359375 13.8125 44.09375 
Q 13.8125 41.109375 14.515625 38.765625 
Q 15.234375 36.421875 16.71875 34.78125 
Q 18.21875 33.15625 20.5625 32.265625 
Q 22.90625 31.390625 26.125 31.390625 
Q 27.9375 31.390625 29.859375 31.734375 
Q 31.78125 32.078125 33.609375 32.65625 
Q 35.453125 33.25 37.109375 34.03125 
Q 38.765625 34.8125 40.09375 35.6875 
Q 40.09375 42 39.15625 46.21875 
Q 38.234375 50.4375 36.46875 53 
Q 34.71875 55.5625 32.203125 56.640625 
Q 29.6875 57.71875 26.515625 57.71875 
z
" id="Consolas-with-Yahei-57"/>
     </defs>
     <g transform="translate(177.601136 40.68125)scale(0.1 -0.1)">
      <use xlink:href="#Consolas-with-Yahei-49"/>
      <use x="54.980469" xlink:href="#Consolas-with-Yahei-57"/>
      <use x="109.960938" xlink:href="#Consolas-with-Yahei-45"/>
      <use x="164.941406" xlink:href="#Consolas-with-Yahei-84"/>
      <use x="219.921875" xlink:href="#Consolas-with-Yahei-69"/>
      <use x="274.902344" xlink:href="#Consolas-with-Yahei-84"/>
      <use x="329.882812" xlink:href="#Consolas-with-Yahei-32"/>
      <use x="384.863281" xlink:href="#Consolas-with-Yahei-67"/>
      <use x="439.84375" xlink:href="#Consolas-with-Yahei-32"/>
      <use x="494.824219" xlink:href="#Consolas-with-Yahei-76"/>
      <use x="549.804688" xlink:href="#Consolas-with-Yahei-121"/>
      <use x="604.785156" xlink:href="#Consolas-with-Yahei-100"/>
      <use x="659.765625" xlink:href="#Consolas-with-Yahei-105"/>
      <use x="714.746094" xlink:href="#Consolas-with-Yahei-97"/>
      <use x="769.726562" xlink:href="#Consolas-with-Yahei-110"/>
      <use x="824.707031" xlink:href="#Consolas-with-Yahei-32"/>
      <use x="879.6875" xlink:href="#Consolas-with-Yahei-102"/>
      <use x="934.667969" xlink:href="#Consolas-with-Yahei-114"/>
      <use x="989.648438" xlink:href="#Consolas-with-Yahei-101"/>
      <use x="1044.628906" xlink:href="#Consolas-with-Yahei-113"/>
      <use x="1099.609375" xlink:href="#Consolas-with-Yahei-117"/>
      <use x="1154.589844" xlink:href="#Consolas-with-Yahei-101"/>
      <use x="1209.570312" xlink:href="#Consolas-with-Yahei-110"/>
      <use x="1264.550781" xlink:href="#Consolas-with-Yahei-99"/>
      <use x="1319.53125" xlink:href="#Consolas-with-Yahei-105"/>
      <use x="1374.511719" xlink:href="#Consolas-with-Yahei-101"/>
      <use x="1429.492188" xlink:href="#Consolas-with-Yahei-115"/>
     </g>
    </g>
   </g>
  </g>
  <g id="axes_2">
   <g id="patch_8">
    <path d="M 395.931676 276.762 
L 700.295312 276.762 
L 700.295312 10.65 
L 395.931676 10.65 
z
" style="fill:#ffffff;"/>
   </g>
   <g id="matplotlib.axis_3">
    <g id="xtick_8">
     <g id="line2d_35">
      <path clip-path="url(#pf44d2f0442)" d="M 409.766387 276.762 
L 409.766387 10.65 
" style="fill:none;stroke:#b0b0b0;stroke-linecap:square;stroke-width:0.8;"/>
     </g>
     <g id="line2d_36">
      <g>
       <use style="stroke:#000000;stroke-width:0.8;" x="409.766387" xlink:href="#m277538f463" y="276.762"/>
      </g>
     </g>
     <g id="text_17">
      <!-- $D$ -->
      <g transform="translate(405.616387 290.662)scale(0.1 -0.1)">
       <use transform="translate(0 0.6875)" xlink:href="#Cmmi10-68"/>
      </g>
     </g>
    </g>
    <g id="xtick_9">
     <g id="line2d_37">
      <path clip-path="url(#pf44d2f0442)" d="M 460.074426 276.762 
L 460.074426 10.65 
" style="fill:none;stroke:#b0b0b0;stroke-linecap:square;stroke-width:0.8;"/>
     </g>
     <g id="line2d_38">
      <g>
       <use style="stroke:#000000;stroke-width:0.8;" x="460.074426" xlink:href="#m277538f463" y="276.762"/>
      </g>
     </g>
     <g id="text_18">
      <!-- $E$ -->
      <g transform="translate(456.374426 290.662)scale(0.1 -0.1)">
       <use transform="translate(0 0.6875)" xlink:href="#Cmmi10-69"/>
      </g>
     </g>
    </g>
    <g id="xtick_10">
     <g id="line2d_39">
      <path clip-path="url(#pf44d2f0442)" d="M 510.382465 276.762 
L 510.382465 10.65 
" style="fill:none;stroke:#b0b0b0;stroke-linecap:square;stroke-width:0.8;"/>
     </g>
     <g id="line2d_40">
      <g>
       <use style="stroke:#000000;stroke-width:0.8;" x="510.382465" xlink:href="#m277538f463" y="276.762"/>
      </g>
     </g>
     <g id="text_19">
      <!-- $F\sharp$ -->
      <g transform="translate(505.182465 290.962)scale(0.1 -0.1)">
       <use transform="translate(0 0.21875)" xlink:href="#Cmmi10-70"/>
       <use transform="translate(64.306641 0.21875)" xlink:href="#Cmmi10-93"/>
      </g>
     </g>
    </g>
    <g id="xtick_11">
     <g id="line2d_41">
      <path clip-path="url(#pf44d2f0442)" d="M 560.690504 276.762 
L 560.690504 10.65 
" style="fill:none;stroke:#b0b0b0;stroke-linecap:square;stroke-width:0.8;"/>
     </g>
     <g id="line2d_42">
      <g>
       <use style="stroke:#000000;stroke-width:0.8;" x="560.690504" xlink:href="#m277538f463" y="276.762"/>
      </g>
     </g>
     <g id="text_20">
      <!-- $G\sharp$ -->
      <g transform="translate(554.790504 290.962)scale(0.1 -0.1)">
       <use transform="translate(0 0.21875)" xlink:href="#Cmmi10-71"/>
       <use transform="translate(78.613281 0.21875)" xlink:href="#Cmmi10-93"/>
      </g>
     </g>
    </g>
    <g id="xtick_12">
     <g id="line2d_43">
      <path clip-path="url(#pf44d2f0442)" d="M 585.844524 276.762 
L 585.844524 10.65 
" style="fill:none;stroke:#b0b0b0;stroke-linecap:square;stroke-width:0.8;"/>
     </g>
     <g id="line2d_44">
      <g>
       <use style="stroke:#000000;stroke-width:0.8;" x="585.844524" xlink:href="#m277538f463" y="276.762"/>
      </g>
     </g>
     <g id="text_21">
      <!-- $A$ -->
      <g transform="translate(582.094524 290.662)scale(0.1 -0.1)">
       <use transform="translate(0 0.421875)" xlink:href="#Cmmi10-65"/>
      </g>
     </g>
    </g>
    <g id="xtick_13">
     <g id="line2d_45">
      <path clip-path="url(#pf44d2f0442)" d="M 636.152563 276.762 
L 636.152563 10.65 
" style="fill:none;stroke:#b0b0b0;stroke-linecap:square;stroke-width:0.8;"/>
     </g>
     <g id="line2d_46">
      <g>
       <use style="stroke:#000000;stroke-width:0.8;" x="636.152563" xlink:href="#m277538f463" y="276.762"/>
      </g>
     </g>
     <g id="text_22">
      <!-- $B$ -->
      <g transform="translate(632.352563 290.662)scale(0.1 -0.1)">
       <use transform="translate(0 0.6875)" xlink:href="#Cmmi10-66"/>
      </g>
     </g>
    </g>
    <g id="xtick_14">
     <g id="line2d_47">
      <path clip-path="url(#pf44d2f0442)" d="M 686.460602 276.762 
L 686.460602 10.65 
" style="fill:none;stroke:#b0b0b0;stroke-linecap:square;stroke-width:0.8;"/>
     </g>
     <g id="line2d_48">
      <g>
       <use style="stroke:#000000;stroke-width:0.8;" x="686.460602" xlink:href="#m277538f463" y="276.762"/>
      </g>
     </g>
     <g id="text_23">
      <!-- $C\sharp$ -->
      <g transform="translate(680.910602 290.962)scale(0.1 -0.1)">
       <use transform="translate(0 0.21875)" xlink:href="#Cmmi10-67"/>
       <use transform="translate(71.386719 0.21875)" xlink:href="#Cmmi10-93"/>
      </g>
     </g>
    </g>
   </g>
   <g id="matplotlib.axis_4">
    <g id="ytick_8">
     <g id="line2d_49">
      <path clip-path="url(#pf44d2f0442)" d="M 395.931676 256.291846 
L 700.295312 256.291846 
" style="fill:none;stroke:#b0b0b0;stroke-linecap:square;stroke-width:0.8;"/>
     </g>
     <g id="line2d_50">
      <g>
       <use style="stroke:#000000;stroke-width:0.8;" x="395.931676" xlink:href="#m96778028d9" y="256.291846"/>
      </g>
     </g>
     <g id="text_24">
      <!-- 1.0 -->
      <g transform="translate(372.436364 259.741846)scale(0.1 -0.1)">
       <use xlink:href="#Consolas-with-Yahei-49"/>
       <use x="54.980469" xlink:href="#Consolas-with-Yahei-46"/>
       <use x="109.960938" xlink:href="#Consolas-with-Yahei-48"/>
      </g>
     </g>
    </g>
    <g id="ytick_9">
     <g id="line2d_51">
      <path clip-path="url(#pf44d2f0442)" d="M 395.931676 215.351538 
L 700.295312 215.351538 
" style="fill:none;stroke:#b0b0b0;stroke-linecap:square;stroke-width:0.8;"/>
     </g>
     <g id="line2d_52">
      <g>
       <use style="stroke:#000000;stroke-width:0.8;" x="395.931676" xlink:href="#m96778028d9" y="215.351538"/>
      </g>
     </g>
     <g id="text_25">
      <!-- 1.2 -->
      <g transform="translate(372.436364 218.801538)scale(0.1 -0.1)">
       <use xlink:href="#Consolas-with-Yahei-49"/>
       <use x="54.980469" xlink:href="#Consolas-with-Yahei-46"/>
       <use x="109.960938" xlink:href="#Consolas-with-Yahei-50"/>
      </g>
     </g>
    </g>
    <g id="ytick_10">
     <g id="line2d_53">
      <path clip-path="url(#pf44d2f0442)" d="M 395.931676 174.411231 
L 700.295312 174.411231 
" style="fill:none;stroke:#b0b0b0;stroke-linecap:square;stroke-width:0.8;"/>
     </g>
     <g id="line2d_54">
      <g>
       <use style="stroke:#000000;stroke-width:0.8;" x="395.931676" xlink:href="#m96778028d9" y="174.411231"/>
      </g>
     </g>
     <g id="text_26">
      <!-- 1.4 -->
      <g transform="translate(372.436364 177.861231)scale(0.1 -0.1)">
       <use xlink:href="#Consolas-with-Yahei-49"/>
       <use x="54.980469" xlink:href="#Consolas-with-Yahei-46"/>
       <use x="109.960938" xlink:href="#Consolas-with-Yahei-52"/>
      </g>
     </g>
    </g>
    <g id="ytick_11">
     <g id="line2d_55">
      <path clip-path="url(#pf44d2f0442)" d="M 395.931676 133.470923 
L 700.295312 133.470923 
" style="fill:none;stroke:#b0b0b0;stroke-linecap:square;stroke-width:0.8;"/>
     </g>
     <g id="line2d_56">
      <g>
       <use style="stroke:#000000;stroke-width:0.8;" x="395.931676" xlink:href="#m96778028d9" y="133.470923"/>
      </g>
     </g>
     <g id="text_27">
      <!-- 1.6 -->
      <g transform="translate(372.436364 136.920923)scale(0.1 -0.1)">
       <use xlink:href="#Consolas-with-Yahei-49"/>
       <use x="54.980469" xlink:href="#Consolas-with-Yahei-46"/>
       <use x="109.960938" xlink:href="#Consolas-with-Yahei-54"/>
      </g>
     </g>
    </g>
    <g id="ytick_12">
     <g id="line2d_57">
      <path clip-path="url(#pf44d2f0442)" d="M 395.931676 92.530615 
L 700.295312 92.530615 
" style="fill:none;stroke:#b0b0b0;stroke-linecap:square;stroke-width:0.8;"/>
     </g>
     <g id="line2d_58">
      <g>
       <use style="stroke:#000000;stroke-width:0.8;" x="395.931676" xlink:href="#m96778028d9" y="92.530615"/>
      </g>
     </g>
     <g id="text_28">
      <!-- 1.8 -->
      <g transform="translate(372.436364 95.980615)scale(0.1 -0.1)">
       <use xlink:href="#Consolas-with-Yahei-49"/>
       <use x="54.980469" xlink:href="#Consolas-with-Yahei-46"/>
       <use x="109.960938" xlink:href="#Consolas-with-Yahei-56"/>
      </g>
     </g>
    </g>
    <g id="ytick_13">
     <g id="line2d_59">
      <path clip-path="url(#pf44d2f0442)" d="M 395.931676 51.590308 
L 700.295312 51.590308 
" style="fill:none;stroke:#b0b0b0;stroke-linecap:square;stroke-width:0.8;"/>
     </g>
     <g id="line2d_60">
      <g>
       <use style="stroke:#000000;stroke-width:0.8;" x="395.931676" xlink:href="#m96778028d9" y="51.590308"/>
      </g>
     </g>
     <g id="text_29">
      <!-- 2.0 -->
      <g transform="translate(372.436364 55.040308)scale(0.1 -0.1)">
       <use xlink:href="#Consolas-with-Yahei-50"/>
       <use x="54.980469" xlink:href="#Consolas-with-Yahei-46"/>
       <use x="109.960938" xlink:href="#Consolas-with-Yahei-48"/>
      </g>
     </g>
    </g>
    <g id="ytick_14">
     <g id="line2d_61">
      <path clip-path="url(#pf44d2f0442)" d="M 395.931676 10.65 
L 700.295312 10.65 
" style="fill:none;stroke:#b0b0b0;stroke-linecap:square;stroke-width:0.8;"/>
     </g>
     <g id="line2d_62">
      <g>
       <use style="stroke:#000000;stroke-width:0.8;" x="395.931676" xlink:href="#m96778028d9" y="10.65"/>
      </g>
     </g>
     <g id="text_30">
      <!-- 2.2 -->
      <g transform="translate(372.436364 14.1)scale(0.1 -0.1)">
       <use xlink:href="#Consolas-with-Yahei-50"/>
       <use x="54.980469" xlink:href="#Consolas-with-Yahei-46"/>
       <use x="109.960938" xlink:href="#Consolas-with-Yahei-50"/>
      </g>
     </g>
    </g>
   </g>
   <g id="line2d_63">
    <g clip-path="url(#pf44d2f0442)">
     <use style="fill:#ff0000;stroke:#ff0000;stroke-linejoin:bevel;" x="409.766387" xlink:href="#m860ac00340" y="231.223676"/>
     <use style="fill:#ff0000;stroke:#ff0000;stroke-linejoin:bevel;" x="460.074426" xlink:href="#m860ac00340" y="203.085607"/>
     <use style="fill:#ff0000;stroke:#ff0000;stroke-linejoin:bevel;" x="510.382465" xlink:href="#m860ac00340" y="171.501693"/>
     <use style="fill:#ff0000;stroke:#ff0000;stroke-linejoin:bevel;" x="560.690504" xlink:href="#m860ac00340" y="136.049947"/>
     <use style="fill:#ff0000;stroke:#ff0000;stroke-linejoin:bevel;" x="585.844524" xlink:href="#m860ac00340" y="116.727805"/>
     <use style="fill:#ff0000;stroke:#ff0000;stroke-linejoin:bevel;" x="636.152563" xlink:href="#m860ac00340" y="74.568337"/>
     <use style="fill:#ff0000;stroke:#ff0000;stroke-linejoin:bevel;" x="686.460602" xlink:href="#m860ac00340" y="27.245934"/>
    </g>
   </g>
   <g id="line2d_64">
    <path clip-path="url(#pf44d2f0442)" d="M 409.766387 232.616492 
L 460.074426 206.202897 
L 510.382465 176.734359 
L 560.690504 143.857552 
L 585.844524 119.853355 
L 636.152563 80.39781 
L 686.460602 36.378918 
" style="fill:none;stroke:#0000ff;stroke-dasharray:5.55,2.4;stroke-dashoffset:0;stroke-width:1.5;"/>
   </g>
   <g id="patch_9">
    <path d="M 395.931676 276.762 
L 395.931676 10.65 
" style="fill:none;stroke:#000000;stroke-linecap:square;stroke-linejoin:miter;stroke-width:0.8;"/>
   </g>
   <g id="patch_10">
    <path d="M 700.295312 276.762 
L 700.295312 10.65 
" style="fill:none;stroke:#000000;stroke-linecap:square;stroke-linejoin:miter;stroke-width:0.8;"/>
   </g>
   <g id="patch_11">
    <path d="M 395.931676 276.762 
L 700.295312 276.762 
" style="fill:none;stroke:#000000;stroke-linecap:square;stroke-linejoin:miter;stroke-width:0.8;"/>
   </g>
   <g id="patch_12">
    <path d="M 395.931676 10.65 
L 700.295312 10.65 
" style="fill:none;stroke:#000000;stroke-linecap:square;stroke-linejoin:miter;stroke-width:0.8;"/>
   </g>
   <g id="legend_2">
    <g id="patch_13">
     <path d="M 402.931676 46.7125 
L 583.389489 46.7125 
Q 585.389489 46.7125 585.389489 44.7125 
L 585.389489 17.65 
Q 585.389489 15.65 583.389489 15.65 
L 402.931676 15.65 
Q 400.931676 15.65 400.931676 17.65 
L 400.931676 44.7125 
Q 400.931676 46.7125 402.931676 46.7125 
z
" style="fill:#ffffff;opacity:0.8;stroke:#cccccc;stroke-linejoin:miter;"/>
    </g>
    <g id="line2d_65"/>
    <g id="line2d_66">
     <g>
      <use style="fill:#ff0000;stroke:#ff0000;stroke-linejoin:bevel;" x="414.931676" xlink:href="#m860ac00340" y="23.15"/>
     </g>
    </g>
    <g id="text_31">
     <!-- 12-TET D Lydian frequencies -->
     <defs>
      <path d="M 51.421875 32.625 
Q 51.421875 28.03125 50.703125 23.828125 
Q 50 19.625 48.4375 16.015625 
Q 46.875 12.40625 44.375 9.453125 
Q 41.890625 6.5 38.28125 4.390625 
Q 34.671875 2.296875 29.875 1.140625 
Q 25.09375 0 19 0 
L 5.328125 0 
L 5.328125 63.8125 
L 21.78125 63.8125 
Q 36.71875 63.8125 44.0625 56.125 
Q 51.421875 48.4375 51.421875 32.625 
z
M 42.28125 31.984375 
Q 42.28125 38.765625 41.015625 43.453125 
Q 39.75 48.140625 37.15625 51.015625 
Q 34.578125 53.90625 30.671875 55.203125 
Q 26.765625 56.5 21.484375 56.5 
L 14.015625 56.5 
L 14.015625 7.515625 
L 20.515625 7.515625 
Q 42.28125 7.515625 42.28125 31.984375 
z
" id="Consolas-with-Yahei-68"/>
     </defs>
     <g transform="translate(432.931676 26.65)scale(0.1 -0.1)">
      <use xlink:href="#Consolas-with-Yahei-49"/>
      <use x="54.980469" xlink:href="#Consolas-with-Yahei-50"/>
      <use x="109.960938" xlink:href="#Consolas-with-Yahei-45"/>
      <use x="164.941406" xlink:href="#Consolas-with-Yahei-84"/>
      <use x="219.921875" xlink:href="#Consolas-with-Yahei-69"/>
      <use x="274.902344" xlink:href="#Consolas-with-Yahei-84"/>
      <use x="329.882812" xlink:href="#Consolas-with-Yahei-32"/>
      <use x="384.863281" xlink:href="#Consolas-with-Yahei-68"/>
      <use x="439.84375" xlink:href="#Consolas-with-Yahei-32"/>
      <use x="494.824219" xlink:href="#Consolas-with-Yahei-76"/>
      <use x="549.804688" xlink:href="#Consolas-with-Yahei-121"/>
      <use x="604.785156" xlink:href="#Consolas-with-Yahei-100"/>
      <use x="659.765625" xlink:href="#Consolas-with-Yahei-105"/>
      <use x="714.746094" xlink:href="#Consolas-with-Yahei-97"/>
      <use x="769.726562" xlink:href="#Consolas-with-Yahei-110"/>
      <use x="824.707031" xlink:href="#Consolas-with-Yahei-32"/>
      <use x="879.6875" xlink:href="#Consolas-with-Yahei-102"/>
      <use x="934.667969" xlink:href="#Consolas-with-Yahei-114"/>
      <use x="989.648438" xlink:href="#Consolas-with-Yahei-101"/>
      <use x="1044.628906" xlink:href="#Consolas-with-Yahei-113"/>
      <use x="1099.609375" xlink:href="#Consolas-with-Yahei-117"/>
      <use x="1154.589844" xlink:href="#Consolas-with-Yahei-101"/>
      <use x="1209.570312" xlink:href="#Consolas-with-Yahei-110"/>
      <use x="1264.550781" xlink:href="#Consolas-with-Yahei-99"/>
      <use x="1319.53125" xlink:href="#Consolas-with-Yahei-105"/>
      <use x="1374.511719" xlink:href="#Consolas-with-Yahei-101"/>
      <use x="1429.492188" xlink:href="#Consolas-with-Yahei-115"/>
     </g>
    </g>
    <g id="line2d_67">
     <path d="M 404.931676 37.18125 
L 424.931676 37.18125 
" style="fill:none;stroke:#0000ff;stroke-dasharray:5.55,2.4;stroke-dashoffset:0;stroke-width:1.5;"/>
    </g>
    <g id="line2d_68"/>
    <g id="text_32">
     <!-- 19-TET D Lydian frequencies -->
     <g transform="translate(432.931676 40.68125)scale(0.1 -0.1)">
      <use xlink:href="#Consolas-with-Yahei-49"/>
      <use x="54.980469" xlink:href="#Consolas-with-Yahei-57"/>
      <use x="109.960938" xlink:href="#Consolas-with-Yahei-45"/>
      <use x="164.941406" xlink:href="#Consolas-with-Yahei-84"/>
      <use x="219.921875" xlink:href="#Consolas-with-Yahei-69"/>
      <use x="274.902344" xlink:href="#Consolas-with-Yahei-84"/>
      <use x="329.882812" xlink:href="#Consolas-with-Yahei-32"/>
      <use x="384.863281" xlink:href="#Consolas-with-Yahei-68"/>
      <use x="439.84375" xlink:href="#Consolas-with-Yahei-32"/>
      <use x="494.824219" xlink:href="#Consolas-with-Yahei-76"/>
      <use x="549.804688" xlink:href="#Consolas-with-Yahei-121"/>
      <use x="604.785156" xlink:href="#Consolas-with-Yahei-100"/>
      <use x="659.765625" xlink:href="#Consolas-with-Yahei-105"/>
      <use x="714.746094" xlink:href="#Consolas-with-Yahei-97"/>
      <use x="769.726562" xlink:href="#Consolas-with-Yahei-110"/>
      <use x="824.707031" xlink:href="#Consolas-with-Yahei-32"/>
      <use x="879.6875" xlink:href="#Consolas-with-Yahei-102"/>
      <use x="934.667969" xlink:href="#Consolas-with-Yahei-114"/>
      <use x="989.648438" xlink:href="#Consolas-with-Yahei-101"/>
      <use x="1044.628906" xlink:href="#Consolas-with-Yahei-113"/>
      <use x="1099.609375" xlink:href="#Consolas-with-Yahei-117"/>
      <use x="1154.589844" xlink:href="#Consolas-with-Yahei-101"/>
      <use x="1209.570312" xlink:href="#Consolas-with-Yahei-110"/>
      <use x="1264.550781" xlink:href="#Consolas-with-Yahei-99"/>
      <use x="1319.53125" xlink:href="#Consolas-with-Yahei-105"/>
      <use x="1374.511719" xlink:href="#Consolas-with-Yahei-101"/>
      <use x="1429.492188" xlink:href="#Consolas-with-Yahei-115"/>
     </g>
    </g>
   </g>
  </g>
 </g>
 <defs>
  <clipPath id="p9598c57710">
   <rect height="266.112" width="304.363636" x="30.695312" y="10.65"/>
  </clipPath>
  <clipPath id="pf44d2f0442">
   <rect height="266.112" width="304.363636" x="395.931676" y="10.65"/>
  </clipPath>
 </defs>
</svg>
