<?xml version="1.0" encoding="utf-8" standalone="no"?>
<!DOCTYPE svg PUBLIC "-//W3C//DTD SVG 1.1//EN"
  "http://www.w3.org/Graphics/SVG/1.1/DTD/svg11.dtd">
<!-- Created with matplotlib (https://matplotlib.org/) -->
<svg height="432pt" version="1.1" viewBox="0 0 992.878455 432" width="992.878455pt" xmlns="http://www.w3.org/2000/svg" xmlns:xlink="http://www.w3.org/1999/xlink">
 <defs>
  <style type="text/css">
*{stroke-linecap:butt;stroke-linejoin:round;}
  </style>
 </defs>
 <g id="figure_1">
  <g id="patch_1">
   <path d="M 0 432 
L 992.878455 432 
L 992.878455 0 
L 0 0 
z
" style="fill:#ffffff;"/>
  </g>
  <g id="axes_1">
   <g id="patch_2">
    <path clip-path="url(#p7cb64de25c)" d="M -1141.540327 216 
L -1016.761853 216 
L -1016.761853 36 
L -1141.540327 36 
z
" style="fill:#cccccc;"/>
   </g>
   <g id="patch_3">
    <path clip-path="url(#p7cb64de25c)" d="M -670.046477 216 
L -558.881495 216 
L -558.881495 36 
L -670.046477 36 
z
" style="fill:#cccccc;"/>
   </g>
   <g id="patch_4">
    <path clip-path="url(#p7cb64de25c)" d="M -249.993211 216 
L -150.956471 216 
L -150.956471 36 
L -249.993211 36 
z
" style="fill:#cccccc;"/>
   </g>
   <g id="patch_5">
    <path clip-path="url(#p7cb64de25c)" d="M 124.231705 216 
L 212.46341 216 
L 212.46341 36 
L 124.231705 36 
z
" style="fill:#cccccc;"/>
   </g>
   <g id="patch_6">
    <path clip-path="url(#p7cb64de25c)" d="M 610.427441 396 
L 684.621165 396 
L 684.621165 36 
L 610.427441 36 
z
" style="fill:#cccccc;"/>
   </g>
   <g id="patch_7">
    <path clip-path="url(#p7cb64de25c)" d="M 1019.267692 216 
L 1081.656929 216 
L 1081.656929 36 
L 1019.267692 36 
z
" style="fill:#cccccc;"/>
   </g>
   <g id="patch_8">
    <path clip-path="url(#p7cb64de25c)" d="M 1255.014617 216 
L 1310.597108 216 
L 1310.597108 36 
L 1255.014617 36 
z
" style="fill:#cccccc;"/>
   </g>
   <g id="patch_9">
    <path clip-path="url(#p7cb64de25c)" d="M 1465.04125 216 
L 1514.55962 216 
L 1514.55962 36 
L 1465.04125 36 
z
" style="fill:#cccccc;"/>
   </g>
   <g id="patch_10">
    <path clip-path="url(#p7cb64de25c)" d="M 1652.153708 216 
L 1696.269561 216 
L 1696.269561 36 
L 1652.153708 36 
z
" style="fill:#cccccc;"/>
   </g>
   <g id="line2d_1">
    <path clip-path="url(#p7cb64de25c)" style="fill:none;stroke:#000000;stroke-width:10;"/>
   </g>
   <g id="line2d_2">
    <path clip-path="url(#p7cb64de25c)" style="fill:none;stroke:#000000;stroke-width:5;"/>
   </g>
   <g id="line2d_3">
    <path clip-path="url(#p7cb64de25c)" d="M 36 396 
L 36 36 
" style="fill:none;stroke:#000000;stroke-width:3;"/>
   </g>
   <g id="line2d_4">
    <path clip-path="url(#p7cb64de25c)" d="M 212.46341 396 
L 212.46341 36 
" style="fill:none;stroke:#000000;stroke-width:3;"/>
   </g>
   <g id="line2d_5">
    <path clip-path="url(#p7cb64de25c)" d="M 379.02269 396 
L 379.02269 36 
" style="fill:none;stroke:#000000;stroke-width:3;"/>
   </g>
   <g id="line2d_6">
    <path clip-path="url(#p7cb64de25c)" d="M 536.233716 396 
L 536.233716 36 
" style="fill:none;stroke:#000000;stroke-width:3;"/>
   </g>
   <g id="line2d_7">
    <path clip-path="url(#p7cb64de25c)" d="M 684.621165 396 
L 684.621165 36 
" style="fill:none;stroke:#000000;stroke-width:3;"/>
   </g>
   <g id="line2d_8">
    <path clip-path="url(#p7cb64de25c)" d="M 824.680267 396 
L 824.680267 36 
" style="fill:none;stroke:#000000;stroke-width:3;"/>
   </g>
   <g id="line2d_9">
    <path clip-path="url(#p7cb64de25c)" d="M 956.878455 396 
L 956.878455 36 
" style="fill:none;stroke:#000000;stroke-width:3;"/>
   </g>
   <g id="line2d_10">
    <path clip-path="url(#p7cb64de25c)" d="M -1 396 
L 993.878455 396 
" style="fill:none;stroke:#808080;stroke-linecap:square;stroke-width:3;"/>
   </g>
   <g id="line2d_11">
    <path clip-path="url(#p7cb64de25c)" d="M -1 324 
L 993.878455 324 
" style="fill:none;stroke:#808080;stroke-linecap:square;stroke-width:3;"/>
   </g>
   <g id="line2d_12">
    <path clip-path="url(#p7cb64de25c)" d="M -1 252 
L 993.878455 252 
" style="fill:none;stroke:#808080;stroke-linecap:square;stroke-width:3;"/>
   </g>
   <g id="line2d_13">
    <path clip-path="url(#p7cb64de25c)" d="M -1 180 
L 993.878455 180 
" style="fill:none;stroke:#808080;stroke-linecap:square;stroke-width:3;"/>
   </g>
   <g id="line2d_14">
    <path clip-path="url(#p7cb64de25c)" d="M -1 108 
L 993.878455 108 
" style="fill:none;stroke:#808080;stroke-linecap:square;stroke-width:3;"/>
   </g>
   <g id="line2d_15">
    <path clip-path="url(#p7cb64de25c)" d="M -1 36 
L 993.878455 36 
" style="fill:none;stroke:#808080;stroke-linecap:square;stroke-width:3;"/>
   </g>
   <g id="text_1">
    <!-- 8 -->
    <defs>
     <path d="M 31.78125 34.625 
Q 24.75 34.625 20.71875 30.859375 
Q 16.703125 27.09375 16.703125 20.515625 
Q 16.703125 13.921875 20.71875 10.15625 
Q 24.75 6.390625 31.78125 6.390625 
Q 38.8125 6.390625 42.859375 10.171875 
Q 46.921875 13.96875 46.921875 20.515625 
Q 46.921875 27.09375 42.890625 30.859375 
Q 38.875 34.625 31.78125 34.625 
z
M 21.921875 38.8125 
Q 15.578125 40.375 12.03125 44.71875 
Q 8.5 49.078125 8.5 55.328125 
Q 8.5 64.0625 14.71875 69.140625 
Q 20.953125 74.21875 31.78125 74.21875 
Q 42.671875 74.21875 48.875 69.140625 
Q 55.078125 64.0625 55.078125 55.328125 
Q 55.078125 49.078125 51.53125 44.71875 
Q 48 40.375 41.703125 38.8125 
Q 48.828125 37.15625 52.796875 32.3125 
Q 56.78125 27.484375 56.78125 20.515625 
Q 56.78125 9.90625 50.3125 4.234375 
Q 43.84375 -1.421875 31.78125 -1.421875 
Q 19.734375 -1.421875 13.25 4.234375 
Q 6.78125 9.90625 6.78125 20.515625 
Q 6.78125 27.484375 10.78125 32.3125 
Q 14.796875 37.15625 21.921875 38.8125 
z
M 18.3125 54.390625 
Q 18.3125 48.734375 21.84375 45.5625 
Q 25.390625 42.390625 31.78125 42.390625 
Q 38.140625 42.390625 41.71875 45.5625 
Q 45.3125 48.734375 45.3125 54.390625 
Q 45.3125 60.0625 41.71875 63.234375 
Q 38.140625 66.40625 31.78125 66.40625 
Q 25.390625 66.40625 21.84375 63.234375 
Q 18.3125 60.0625 18.3125 54.390625 
z
" id="DejaVuSans-56"/>
    </defs>
    <g style="fill:#0000ff;" transform="translate(30.432813 428.521214)scale(0.175 -0.175)">
     <use xlink:href="#DejaVuSans-56"/>
    </g>
   </g>
   <g id="text_2">
    <!-- 9 -->
    <defs>
     <path d="M 10.984375 1.515625 
L 10.984375 10.5 
Q 14.703125 8.734375 18.5 7.8125 
Q 22.3125 6.890625 25.984375 6.890625 
Q 35.75 6.890625 40.890625 13.453125 
Q 46.046875 20.015625 46.78125 33.40625 
Q 43.953125 29.203125 39.59375 26.953125 
Q 35.25 24.703125 29.984375 24.703125 
Q 19.046875 24.703125 12.671875 31.3125 
Q 6.296875 37.9375 6.296875 49.421875 
Q 6.296875 60.640625 12.9375 67.421875 
Q 19.578125 74.21875 30.609375 74.21875 
Q 43.265625 74.21875 49.921875 64.515625 
Q 56.59375 54.828125 56.59375 36.375 
Q 56.59375 19.140625 48.40625 8.859375 
Q 40.234375 -1.421875 26.421875 -1.421875 
Q 22.703125 -1.421875 18.890625 -0.6875 
Q 15.09375 0.046875 10.984375 1.515625 
z
M 30.609375 32.421875 
Q 37.25 32.421875 41.125 36.953125 
Q 45.015625 41.5 45.015625 49.421875 
Q 45.015625 57.28125 41.125 61.84375 
Q 37.25 66.40625 30.609375 66.40625 
Q 23.96875 66.40625 20.09375 61.84375 
Q 16.21875 57.28125 16.21875 49.421875 
Q 16.21875 41.5 20.09375 36.953125 
Q 23.96875 32.421875 30.609375 32.421875 
z
" id="DejaVuSans-57"/>
    </defs>
    <g style="fill:#0000ff;" transform="translate(206.896223 428.521214)scale(0.175 -0.175)">
     <use xlink:href="#DejaVuSans-57"/>
    </g>
   </g>
   <g id="text_3">
    <!-- 10 -->
    <defs>
     <path d="M 12.40625 8.296875 
L 28.515625 8.296875 
L 28.515625 63.921875 
L 10.984375 60.40625 
L 10.984375 69.390625 
L 28.421875 72.90625 
L 38.28125 72.90625 
L 38.28125 8.296875 
L 54.390625 8.296875 
L 54.390625 0 
L 12.40625 0 
z
" id="DejaVuSans-49"/>
     <path d="M 31.78125 66.40625 
Q 24.171875 66.40625 20.328125 58.90625 
Q 16.5 51.421875 16.5 36.375 
Q 16.5 21.390625 20.328125 13.890625 
Q 24.171875 6.390625 31.78125 6.390625 
Q 39.453125 6.390625 43.28125 13.890625 
Q 47.125 21.390625 47.125 36.375 
Q 47.125 51.421875 43.28125 58.90625 
Q 39.453125 66.40625 31.78125 66.40625 
z
M 31.78125 74.21875 
Q 44.046875 74.21875 50.515625 64.515625 
Q 56.984375 54.828125 56.984375 36.375 
Q 56.984375 17.96875 50.515625 8.265625 
Q 44.046875 -1.421875 31.78125 -1.421875 
Q 19.53125 -1.421875 13.0625 8.265625 
Q 6.59375 17.96875 6.59375 36.375 
Q 6.59375 54.828125 13.0625 64.515625 
Q 19.53125 74.21875 31.78125 74.21875 
z
" id="DejaVuSans-48"/>
    </defs>
    <g style="fill:#0000ff;" transform="translate(367.888315 428.521214)scale(0.175 -0.175)">
     <use xlink:href="#DejaVuSans-49"/>
     <use x="63.623047" xlink:href="#DejaVuSans-48"/>
    </g>
   </g>
   <g id="text_4">
    <!-- 11 -->
    <g style="fill:#0000ff;" transform="translate(525.099341 428.521214)scale(0.175 -0.175)">
     <use xlink:href="#DejaVuSans-49"/>
     <use x="63.623047" xlink:href="#DejaVuSans-49"/>
    </g>
   </g>
   <g id="text_5">
    <!-- 12 -->
    <defs>
     <path d="M 19.1875 8.296875 
L 53.609375 8.296875 
L 53.609375 0 
L 7.328125 0 
L 7.328125 8.296875 
Q 12.9375 14.109375 22.625 23.890625 
Q 32.328125 33.6875 34.8125 36.53125 
Q 39.546875 41.84375 41.421875 45.53125 
Q 43.3125 49.21875 43.3125 52.78125 
Q 43.3125 58.59375 39.234375 62.25 
Q 35.15625 65.921875 28.609375 65.921875 
Q 23.96875 65.921875 18.8125 64.3125 
Q 13.671875 62.703125 7.8125 59.421875 
L 7.8125 69.390625 
Q 13.765625 71.78125 18.9375 73 
Q 24.125 74.21875 28.421875 74.21875 
Q 39.75 74.21875 46.484375 68.546875 
Q 53.21875 62.890625 53.21875 53.421875 
Q 53.21875 48.921875 51.53125 44.890625 
Q 49.859375 40.875 45.40625 35.40625 
Q 44.1875 33.984375 37.640625 27.21875 
Q 31.109375 20.453125 19.1875 8.296875 
z
" id="DejaVuSans-50"/>
    </defs>
    <g style="fill:#0000ff;" transform="translate(673.48679 428.521214)scale(0.175 -0.175)">
     <use xlink:href="#DejaVuSans-49"/>
     <use x="63.623047" xlink:href="#DejaVuSans-50"/>
    </g>
   </g>
   <g id="text_6">
    <!-- 13 -->
    <defs>
     <path d="M 40.578125 39.3125 
Q 47.65625 37.796875 51.625 33 
Q 55.609375 28.21875 55.609375 21.1875 
Q 55.609375 10.40625 48.1875 4.484375 
Q 40.765625 -1.421875 27.09375 -1.421875 
Q 22.515625 -1.421875 17.65625 -0.515625 
Q 12.796875 0.390625 7.625 2.203125 
L 7.625 11.71875 
Q 11.71875 9.328125 16.59375 8.109375 
Q 21.484375 6.890625 26.8125 6.890625 
Q 36.078125 6.890625 40.9375 10.546875 
Q 45.796875 14.203125 45.796875 21.1875 
Q 45.796875 27.640625 41.28125 31.265625 
Q 36.765625 34.90625 28.71875 34.90625 
L 20.21875 34.90625 
L 20.21875 43.015625 
L 29.109375 43.015625 
Q 36.375 43.015625 40.234375 45.921875 
Q 44.09375 48.828125 44.09375 54.296875 
Q 44.09375 59.90625 40.109375 62.90625 
Q 36.140625 65.921875 28.71875 65.921875 
Q 24.65625 65.921875 20.015625 65.03125 
Q 15.375 64.15625 9.8125 62.3125 
L 9.8125 71.09375 
Q 15.4375 72.65625 20.34375 73.4375 
Q 25.25 74.21875 29.59375 74.21875 
Q 40.828125 74.21875 47.359375 69.109375 
Q 53.90625 64.015625 53.90625 55.328125 
Q 53.90625 49.265625 50.4375 45.09375 
Q 46.96875 40.921875 40.578125 39.3125 
z
" id="DejaVuSans-51"/>
    </defs>
    <g style="fill:#0000ff;" transform="translate(813.545892 428.521214)scale(0.175 -0.175)">
     <use xlink:href="#DejaVuSans-49"/>
     <use x="63.623047" xlink:href="#DejaVuSans-51"/>
    </g>
   </g>
   <g id="text_7">
    <!-- 14 -->
    <defs>
     <path d="M 37.796875 64.3125 
L 12.890625 25.390625 
L 37.796875 25.390625 
z
M 35.203125 72.90625 
L 47.609375 72.90625 
L 47.609375 25.390625 
L 58.015625 25.390625 
L 58.015625 17.1875 
L 47.609375 17.1875 
L 47.609375 0 
L 37.796875 0 
L 37.796875 17.1875 
L 4.890625 17.1875 
L 4.890625 26.703125 
z
" id="DejaVuSans-52"/>
    </defs>
    <g style="fill:#0000ff;" transform="translate(945.74408 428.521214)scale(0.175 -0.175)">
     <use xlink:href="#DejaVuSans-49"/>
     <use x="63.623047" xlink:href="#DejaVuSans-52"/>
    </g>
   </g>
   <g id="patch_11">
    <path d="M 88.939023 210 
C 96.895116 210 104.526419 206.839011 110.152227 201.213203 
C 115.778034 195.587396 118.939023 187.956093 118.939023 180 
C 118.939023 172.043907 115.778034 164.412604 110.152227 158.786797 
C 104.526419 153.160989 96.895116 150 88.939023 150 
C 80.98293 150 73.351627 153.160989 67.72582 158.786797 
C 62.100012 164.412604 58.939023 172.043907 58.939023 180 
C 58.939023 187.956093 62.100012 195.587396 67.72582 201.213203 
C 73.351627 206.839011 80.98293 210 88.939023 210 
z
" style="fill:#d9544c;stroke:#d9544c;stroke-linejoin:miter;"/>
   </g>
   <g id="patch_12">
    <path d="M 262.431194 354 
C 270.387287 354 278.01859 350.839011 283.644398 345.213203 
C 289.270205 339.587396 292.431194 331.956093 292.431194 324 
C 292.431194 316.043907 289.270205 308.412604 283.644398 302.786797 
C 278.01859 297.160989 270.387287 294 262.431194 294 
C 254.475101 294 246.843798 297.160989 241.217991 302.786797 
C 235.592184 308.412604 232.431194 316.043907 232.431194 324 
C 232.431194 331.956093 235.592184 339.587396 241.217991 345.213203 
C 246.843798 350.839011 254.475101 354 262.431194 354 
z
" style="fill:#d9544c;stroke:#d9544c;stroke-linejoin:miter;"/>
   </g>
   <g id="patch_13">
    <path d="M 262.431194 282 
C 270.387287 282 278.01859 278.839011 283.644398 273.213203 
C 289.270205 267.587396 292.431194 259.956093 292.431194 252 
C 292.431194 244.043907 289.270205 236.412604 283.644398 230.786797 
C 278.01859 225.160989 270.387287 222 262.431194 222 
C 254.475101 222 246.843798 225.160989 241.217991 230.786797 
C 235.592184 236.412604 232.431194 244.043907 232.431194 252 
C 232.431194 259.956093 235.592184 267.587396 241.217991 273.213203 
C 246.843798 278.839011 254.475101 282 262.431194 282 
z
" style="fill:#d9544c;stroke:#d9544c;stroke-linejoin:miter;"/>
   </g>
   <g id="patch_14">
    <path d="M 262.431194 138 
C 270.387287 138 278.01859 134.839011 283.644398 129.213203 
C 289.270205 123.587396 292.431194 115.956093 292.431194 108 
C 292.431194 100.043907 289.270205 92.412604 283.644398 86.786797 
C 278.01859 81.160989 270.387287 78 262.431194 78 
C 254.475101 78 246.843798 81.160989 241.217991 86.786797 
C 235.592184 92.412604 232.431194 100.043907 232.431194 108 
C 232.431194 115.956093 235.592184 123.587396 241.217991 129.213203 
C 246.843798 134.839011 254.475101 138 262.431194 138 
z
" style="fill:#d9544c;stroke:#d9544c;stroke-linejoin:miter;"/>
   </g>
   <g id="patch_15">
    <path d="M 580.749951 426 
C 588.706044 426 596.337347 422.839011 601.963154 417.213203 
C 607.588962 411.587396 610.749951 403.956093 610.749951 396 
C 610.749951 388.043907 607.588962 380.412604 601.963154 374.786797 
C 596.337347 369.160989 588.706044 366 580.749951 366 
C 572.793858 366 565.162555 369.160989 559.536748 374.786797 
C 553.91094 380.412604 550.749951 388.043907 550.749951 396 
C 550.749951 403.956093 553.91094 411.587396 559.536748 417.213203 
C 565.162555 422.839011 572.793858 426 580.749951 426 
z
" style="fill:#d9544c;stroke:#d9544c;stroke-linejoin:miter;"/>
   </g>
   <g id="patch_16">
    <path d="M 580.749951 354 
C 588.706044 354 596.337347 350.839011 601.963154 345.213203 
C 607.588962 339.587396 610.749951 331.956093 610.749951 324 
C 610.749951 316.043907 607.588962 308.412604 601.963154 302.786797 
C 596.337347 297.160989 588.706044 294 580.749951 294 
C 572.793858 294 565.162555 297.160989 559.536748 302.786797 
C 553.91094 308.412604 550.749951 316.043907 550.749951 324 
C 550.749951 331.956093 553.91094 339.587396 559.536748 345.213203 
C 565.162555 350.839011 572.793858 354 580.749951 354 
z
" style="fill:#d9544c;stroke:#d9544c;stroke-linejoin:miter;"/>
   </g>
   <g id="patch_17">
    <path d="M 580.749951 210 
C 588.706044 210 596.337347 206.839011 601.963154 201.213203 
C 607.588962 195.587396 610.749951 187.956093 610.749951 180 
C 610.749951 172.043907 607.588962 164.412604 601.963154 158.786797 
C 596.337347 153.160989 588.706044 150 580.749951 150 
C 572.793858 150 565.162555 153.160989 559.536748 158.786797 
C 553.91094 164.412604 550.749951 172.043907 550.749951 180 
C 550.749951 187.956093 553.91094 195.587396 559.536748 201.213203 
C 565.162555 206.839011 572.793858 210 580.749951 210 
z
" style="fill:#d9544c;stroke:#d9544c;stroke-linejoin:miter;"/>
   </g>
   <g id="patch_18">
    <path d="M 580.749951 66 
C 588.706044 66 596.337347 62.839011 601.963154 57.213203 
C 607.588962 51.587396 610.749951 43.956093 610.749951 36 
C 610.749951 28.043907 607.588962 20.412604 601.963154 14.786797 
C 596.337347 9.160989 588.706044 6 580.749951 6 
C 572.793858 6 565.162555 9.160989 559.536748 14.786797 
C 553.91094 20.412604 550.749951 28.043907 550.749951 36 
C 550.749951 43.956093 553.91094 51.587396 559.536748 57.213203 
C 565.162555 62.839011 572.793858 66 580.749951 66 
z
" style="fill:#d9544c;stroke:#d9544c;stroke-linejoin:miter;"/>
   </g>
   <g id="patch_19">
    <path d="M 726.638896 138 
C 734.594989 138 742.226292 134.839011 747.852099 129.213203 
C 753.477907 123.587396 756.638896 115.956093 756.638896 108 
C 756.638896 100.043907 753.477907 92.412604 747.852099 86.786797 
C 742.226292 81.160989 734.594989 78 726.638896 78 
C 718.682803 78 711.0515 81.160989 705.425692 86.786797 
C 699.799885 92.412604 696.638896 100.043907 696.638896 108 
C 696.638896 115.956093 699.799885 123.587396 705.425692 129.213203 
C 711.0515 134.839011 718.682803 138 726.638896 138 
z
" style="fill:#d9544c;stroke:#d9544c;stroke-linejoin:miter;"/>
   </g>
   <g id="patch_20">
    <path d="M 864.339723 282 
C 872.295816 282 879.92712 278.839011 885.552927 273.213203 
C 891.178734 267.587396 894.339723 259.956093 894.339723 252 
C 894.339723 244.043907 891.178734 236.412604 885.552927 230.786797 
C 879.92712 225.160989 872.295816 222 864.339723 222 
C 856.38363 222 848.752327 225.160989 843.12652 230.786797 
C 837.500713 236.412604 834.339723 244.043907 834.339723 252 
C 834.339723 259.956093 837.500713 267.587396 843.12652 273.213203 
C 848.752327 278.839011 856.38363 282 864.339723 282 
z
" style="fill:#d9544c;stroke:#d9544c;stroke-linejoin:miter;"/>
   </g>
   <g id="patch_21">
    <path d="M 864.339723 210 
C 872.295816 210 879.92712 206.839011 885.552927 201.213203 
C 891.178734 195.587396 894.339723 187.956093 894.339723 180 
C 894.339723 172.043907 891.178734 164.412604 885.552927 158.786797 
C 879.92712 153.160989 872.295816 150 864.339723 150 
C 856.38363 150 848.752327 153.160989 843.12652 158.786797 
C 837.500713 164.412604 834.339723 172.043907 834.339723 180 
C 834.339723 187.956093 837.500713 195.587396 843.12652 201.213203 
C 848.752327 206.839011 856.38363 210 864.339723 210 
z
" style="fill:#d9544c;stroke:#d9544c;stroke-linejoin:miter;"/>
   </g>
   <g id="text_8">
    <!-- E3(5) -->
    <defs>
     <path d="M 9.8125 72.90625 
L 55.90625 72.90625 
L 55.90625 64.59375 
L 19.671875 64.59375 
L 19.671875 43.015625 
L 54.390625 43.015625 
L 54.390625 34.71875 
L 19.671875 34.71875 
L 19.671875 8.296875 
L 56.78125 8.296875 
L 56.78125 0 
L 9.8125 0 
z
" id="DejaVuSans-69"/>
     <path d="M 31 75.875 
Q 24.46875 64.65625 21.28125 53.65625 
Q 18.109375 42.671875 18.109375 31.390625 
Q 18.109375 20.125 21.3125 9.0625 
Q 24.515625 -2 31 -13.1875 
L 23.1875 -13.1875 
Q 15.875 -1.703125 12.234375 9.375 
Q 8.59375 20.453125 8.59375 31.390625 
Q 8.59375 42.28125 12.203125 53.3125 
Q 15.828125 64.359375 23.1875 75.875 
z
" id="DejaVuSans-40"/>
     <path d="M 10.796875 72.90625 
L 49.515625 72.90625 
L 49.515625 64.59375 
L 19.828125 64.59375 
L 19.828125 46.734375 
Q 21.96875 47.46875 24.109375 47.828125 
Q 26.265625 48.1875 28.421875 48.1875 
Q 40.625 48.1875 47.75 41.5 
Q 54.890625 34.8125 54.890625 23.390625 
Q 54.890625 11.625 47.5625 5.09375 
Q 40.234375 -1.421875 26.90625 -1.421875 
Q 22.3125 -1.421875 17.546875 -0.640625 
Q 12.796875 0.140625 7.71875 1.703125 
L 7.71875 11.625 
Q 12.109375 9.234375 16.796875 8.0625 
Q 21.484375 6.890625 26.703125 6.890625 
Q 35.15625 6.890625 40.078125 11.328125 
Q 45.015625 15.765625 45.015625 23.390625 
Q 45.015625 31 40.078125 35.4375 
Q 35.15625 39.890625 26.703125 39.890625 
Q 22.75 39.890625 18.8125 39.015625 
Q 14.890625 38.140625 10.796875 36.28125 
z
" id="DejaVuSans-53"/>
     <path d="M 8.015625 75.875 
L 15.828125 75.875 
Q 23.140625 64.359375 26.78125 53.3125 
Q 30.421875 42.28125 30.421875 31.390625 
Q 30.421875 20.453125 26.78125 9.375 
Q 23.140625 -1.703125 15.828125 -13.1875 
L 8.015625 -13.1875 
Q 14.5 -2 17.703125 9.0625 
Q 20.90625 20.125 20.90625 31.390625 
Q 20.90625 42.671875 17.703125 53.65625 
Q 14.5 64.65625 8.015625 75.875 
z
" id="DejaVuSans-41"/>
    </defs>
    <g style="fill:#ffffff;" transform="translate(71.041106 183.679167)scale(0.133333 -0.133333)">
     <use xlink:href="#DejaVuSans-69"/>
     <use x="63.183594" xlink:href="#DejaVuSans-51"/>
     <use x="126.806641" xlink:href="#DejaVuSans-40"/>
     <use x="165.820312" xlink:href="#DejaVuSans-53"/>
     <use x="229.443359" xlink:href="#DejaVuSans-41"/>
    </g>
   </g>
   <g id="text_9">
    <!-- G2(7) -->
    <defs>
     <path d="M 59.515625 10.40625 
L 59.515625 29.984375 
L 43.40625 29.984375 
L 43.40625 38.09375 
L 69.28125 38.09375 
L 69.28125 6.78125 
Q 63.578125 2.734375 56.6875 0.65625 
Q 49.8125 -1.421875 42 -1.421875 
Q 24.90625 -1.421875 15.25 8.5625 
Q 5.609375 18.5625 5.609375 36.375 
Q 5.609375 54.25 15.25 64.234375 
Q 24.90625 74.21875 42 74.21875 
Q 49.125 74.21875 55.546875 72.453125 
Q 61.96875 70.703125 67.390625 67.28125 
L 67.390625 56.78125 
Q 61.921875 61.421875 55.765625 63.765625 
Q 49.609375 66.109375 42.828125 66.109375 
Q 29.4375 66.109375 22.71875 58.640625 
Q 16.015625 51.171875 16.015625 36.375 
Q 16.015625 21.625 22.71875 14.15625 
Q 29.4375 6.6875 42.828125 6.6875 
Q 48.046875 6.6875 52.140625 7.59375 
Q 56.25 8.5 59.515625 10.40625 
z
" id="DejaVuSans-71"/>
     <path d="M 8.203125 72.90625 
L 55.078125 72.90625 
L 55.078125 68.703125 
L 28.609375 0 
L 18.3125 0 
L 43.21875 64.59375 
L 8.203125 64.59375 
z
" id="DejaVuSans-55"/>
    </defs>
    <g style="fill:#ffffff;" transform="translate(243.580153 327.679167)scale(0.133333 -0.133333)">
     <use xlink:href="#DejaVuSans-71"/>
     <use x="77.490234" xlink:href="#DejaVuSans-50"/>
     <use x="141.113281" xlink:href="#DejaVuSans-40"/>
     <use x="180.126953" xlink:href="#DejaVuSans-55"/>
     <use x="243.75" xlink:href="#DejaVuSans-41"/>
    </g>
   </g>
   <g id="text_10">
    <!-- C3(3) -->
    <defs>
     <path d="M 64.40625 67.28125 
L 64.40625 56.890625 
Q 59.421875 61.53125 53.78125 63.8125 
Q 48.140625 66.109375 41.796875 66.109375 
Q 29.296875 66.109375 22.65625 58.46875 
Q 16.015625 50.828125 16.015625 36.375 
Q 16.015625 21.96875 22.65625 14.328125 
Q 29.296875 6.6875 41.796875 6.6875 
Q 48.140625 6.6875 53.78125 8.984375 
Q 59.421875 11.28125 64.40625 15.921875 
L 64.40625 5.609375 
Q 59.234375 2.09375 53.4375 0.328125 
Q 47.65625 -1.421875 41.21875 -1.421875 
Q 24.65625 -1.421875 15.125 8.703125 
Q 5.609375 18.84375 5.609375 36.375 
Q 5.609375 53.953125 15.125 64.078125 
Q 24.65625 74.21875 41.21875 74.21875 
Q 47.75 74.21875 53.53125 72.484375 
Q 59.328125 70.75 64.40625 67.28125 
z
" id="DejaVuSans-67"/>
    </defs>
    <g style="fill:#ffffff;" transform="translate(244.090569 255.679167)scale(0.133333 -0.133333)">
     <use xlink:href="#DejaVuSans-67"/>
     <use x="69.824219" xlink:href="#DejaVuSans-51"/>
     <use x="133.447266" xlink:href="#DejaVuSans-40"/>
     <use x="172.460938" xlink:href="#DejaVuSans-51"/>
     <use x="236.083984" xlink:href="#DejaVuSans-41"/>
    </g>
   </g>
   <g id="text_11">
    <!-- A3(R) -->
    <defs>
     <path d="M 34.1875 63.1875 
L 20.796875 26.90625 
L 47.609375 26.90625 
z
M 28.609375 72.90625 
L 39.796875 72.90625 
L 67.578125 0 
L 57.328125 0 
L 50.6875 18.703125 
L 17.828125 18.703125 
L 11.1875 0 
L 0.78125 0 
z
" id="DejaVuSans-65"/>
     <path d="M 44.390625 34.1875 
Q 47.5625 33.109375 50.5625 29.59375 
Q 53.5625 26.078125 56.59375 19.921875 
L 66.609375 0 
L 56 0 
L 46.6875 18.703125 
Q 43.0625 26.03125 39.671875 28.421875 
Q 36.28125 30.8125 30.421875 30.8125 
L 19.671875 30.8125 
L 19.671875 0 
L 9.8125 0 
L 9.8125 72.90625 
L 32.078125 72.90625 
Q 44.578125 72.90625 50.734375 67.671875 
Q 56.890625 62.453125 56.890625 51.90625 
Q 56.890625 45.015625 53.6875 40.46875 
Q 50.484375 35.9375 44.390625 34.1875 
z
M 19.671875 64.796875 
L 19.671875 38.921875 
L 32.078125 38.921875 
Q 39.203125 38.921875 42.84375 42.21875 
Q 46.484375 45.515625 46.484375 51.90625 
Q 46.484375 58.296875 42.84375 61.546875 
Q 39.203125 64.796875 32.078125 64.796875 
z
" id="DejaVuSans-82"/>
    </defs>
    <g style="fill:#ffffff;" transform="translate(243.794736 111.679167)scale(0.133333 -0.133333)">
     <use xlink:href="#DejaVuSans-65"/>
     <use x="68.408203" xlink:href="#DejaVuSans-51"/>
     <use x="132.03125" xlink:href="#DejaVuSans-40"/>
     <use x="171.044922" xlink:href="#DejaVuSans-82"/>
     <use x="240.527344" xlink:href="#DejaVuSans-41"/>
    </g>
   </g>
   <g id="text_12">
    <!-- E2(5) -->
    <g style="fill:#ffffff;" transform="translate(562.852034 399.679167)scale(0.133333 -0.133333)">
     <use xlink:href="#DejaVuSans-69"/>
     <use x="63.183594" xlink:href="#DejaVuSans-50"/>
     <use x="126.806641" xlink:href="#DejaVuSans-40"/>
     <use x="165.820312" xlink:href="#DejaVuSans-53"/>
     <use x="229.443359" xlink:href="#DejaVuSans-41"/>
    </g>
   </g>
   <g id="text_13">
    <!-- A2(R) -->
    <g style="fill:#ffffff;" transform="translate(562.113493 327.679167)scale(0.133333 -0.133333)">
     <use xlink:href="#DejaVuSans-65"/>
     <use x="68.408203" xlink:href="#DejaVuSans-50"/>
     <use x="132.03125" xlink:href="#DejaVuSans-40"/>
     <use x="171.044922" xlink:href="#DejaVuSans-82"/>
     <use x="240.527344" xlink:href="#DejaVuSans-41"/>
    </g>
   </g>
   <g id="text_14">
    <!-- G3(7) -->
    <g style="fill:#ffffff;" transform="translate(561.898909 183.679167)scale(0.133333 -0.133333)">
     <use xlink:href="#DejaVuSans-71"/>
     <use x="77.490234" xlink:href="#DejaVuSans-51"/>
     <use x="141.113281" xlink:href="#DejaVuSans-40"/>
     <use x="180.126953" xlink:href="#DejaVuSans-55"/>
     <use x="243.75" xlink:href="#DejaVuSans-41"/>
    </g>
   </g>
   <g id="text_15">
    <!-- E4(5) -->
    <g style="fill:#ffffff;" transform="translate(562.852034 39.679167)scale(0.133333 -0.133333)">
     <use xlink:href="#DejaVuSans-69"/>
     <use x="63.183594" xlink:href="#DejaVuSans-52"/>
     <use x="126.806641" xlink:href="#DejaVuSans-40"/>
     <use x="165.820312" xlink:href="#DejaVuSans-53"/>
     <use x="229.443359" xlink:href="#DejaVuSans-41"/>
    </g>
   </g>
   <g id="text_16">
    <!-- C4(3) -->
    <g style="fill:#ffffff;" transform="translate(708.298271 111.679167)scale(0.133333 -0.133333)">
     <use xlink:href="#DejaVuSans-67"/>
     <use x="69.824219" xlink:href="#DejaVuSans-52"/>
     <use x="133.447266" xlink:href="#DejaVuSans-40"/>
     <use x="172.460938" xlink:href="#DejaVuSans-51"/>
     <use x="236.083984" xlink:href="#DejaVuSans-41"/>
    </g>
   </g>
   <g id="text_17">
    <!-- E3(5) -->
    <g style="fill:#ffffff;" transform="translate(846.441807 255.679167)scale(0.133333 -0.133333)">
     <use xlink:href="#DejaVuSans-69"/>
     <use x="63.183594" xlink:href="#DejaVuSans-51"/>
     <use x="126.806641" xlink:href="#DejaVuSans-40"/>
     <use x="165.820312" xlink:href="#DejaVuSans-53"/>
     <use x="229.443359" xlink:href="#DejaVuSans-41"/>
    </g>
   </g>
   <g id="text_18">
    <!-- A3(R) -->
    <g style="fill:#ffffff;" transform="translate(845.703265 183.679167)scale(0.133333 -0.133333)">
     <use xlink:href="#DejaVuSans-65"/>
     <use x="68.408203" xlink:href="#DejaVuSans-51"/>
     <use x="132.03125" xlink:href="#DejaVuSans-40"/>
     <use x="171.044922" xlink:href="#DejaVuSans-82"/>
     <use x="240.527344" xlink:href="#DejaVuSans-41"/>
    </g>
   </g>
   <g id="patch_22">
    <path d="M 124.231705 354 
C 132.187798 354 139.819101 350.839011 145.444909 345.213203 
C 151.070716 339.587396 154.231705 331.956093 154.231705 324 
C 154.231705 316.043907 151.070716 308.412604 145.444909 302.786797 
C 139.819101 297.160989 132.187798 294 124.231705 294 
C 116.275612 294 108.644309 297.160989 103.018502 302.786797 
C 97.392694 308.412604 94.231705 316.043907 94.231705 324 
C 94.231705 331.956093 97.392694 339.587396 103.018502 345.213203 
C 108.644309 350.839011 116.275612 354 124.231705 354 
z
" style="fill:#d9944c;stroke:#d9944c;stroke-linejoin:miter;"/>
   </g>
   <g id="patch_23">
    <path d="M 124.231705 138 
C 132.187798 138 139.819101 134.839011 145.444909 129.213203 
C 151.070716 123.587396 154.231705 115.956093 154.231705 108 
C 154.231705 100.043907 151.070716 92.412604 145.444909 86.786797 
C 139.819101 81.160989 132.187798 78 124.231705 78 
C 116.275612 78 108.644309 81.160989 103.018502 86.786797 
C 97.392694 92.412604 94.231705 100.043907 94.231705 108 
C 94.231705 115.956093 97.392694 123.587396 103.018502 129.213203 
C 108.644309 134.839011 116.275612 138 124.231705 138 
z
" style="fill:#d9944c;stroke:#d9944c;stroke-linejoin:miter;"/>
   </g>
   <g id="patch_24">
    <path d="M 295.74305 282 
C 303.699143 282 311.330446 278.839011 316.956254 273.213203 
C 322.582061 267.587396 325.74305 259.956093 325.74305 252 
C 325.74305 244.043907 322.582061 236.412604 316.956254 230.786797 
C 311.330446 225.160989 303.699143 222 295.74305 222 
C 287.786957 222 280.155654 225.160989 274.529847 230.786797 
C 268.90404 236.412604 265.74305 244.043907 265.74305 252 
C 265.74305 259.956093 268.90404 267.587396 274.529847 273.213203 
C 280.155654 278.839011 287.786957 282 295.74305 282 
z
" style="fill:#d9944c;stroke:#d9944c;stroke-linejoin:miter;"/>
   </g>
   <g id="patch_25">
    <path d="M 457.628203 426 
C 465.584296 426 473.215599 422.839011 478.841407 417.213203 
C 484.467214 411.587396 487.628203 403.956093 487.628203 396 
C 487.628203 388.043907 484.467214 380.412604 478.841407 374.786797 
C 473.215599 369.160989 465.584296 366 457.628203 366 
C 449.67211 366 442.040807 369.160989 436.415 374.786797 
C 430.789193 380.412604 427.628203 388.043907 427.628203 396 
C 427.628203 403.956093 430.789193 411.587396 436.415 417.213203 
C 442.040807 422.839011 449.67211 426 457.628203 426 
z
" style="fill:#d9944c;stroke:#d9944c;stroke-linejoin:miter;"/>
   </g>
   <g id="patch_26">
    <path d="M 457.628203 354 
C 465.584296 354 473.215599 350.839011 478.841407 345.213203 
C 484.467214 339.587396 487.628203 331.956093 487.628203 324 
C 487.628203 316.043907 484.467214 308.412604 478.841407 302.786797 
C 473.215599 297.160989 465.584296 294 457.628203 294 
C 449.67211 294 442.040807 297.160989 436.415 302.786797 
C 430.789193 308.412604 427.628203 316.043907 427.628203 324 
C 427.628203 331.956093 430.789193 339.587396 436.415 345.213203 
C 442.040807 350.839011 449.67211 354 457.628203 354 
z
" style="fill:#d9944c;stroke:#d9944c;stroke-linejoin:miter;"/>
   </g>
   <g id="patch_27">
    <path d="M 457.628203 210 
C 465.584296 210 473.215599 206.839011 478.841407 201.213203 
C 484.467214 195.587396 487.628203 187.956093 487.628203 180 
C 487.628203 172.043907 484.467214 164.412604 478.841407 158.786797 
C 473.215599 153.160989 465.584296 150 457.628203 150 
C 449.67211 150 442.040807 153.160989 436.415 158.786797 
C 430.789193 164.412604 427.628203 172.043907 427.628203 180 
C 427.628203 187.956093 430.789193 195.587396 436.415 201.213203 
C 442.040807 206.839011 449.67211 210 457.628203 210 
z
" style="fill:#d9944c;stroke:#d9944c;stroke-linejoin:miter;"/>
   </g>
   <g id="patch_28">
    <path d="M 457.628203 66 
C 465.584296 66 473.215599 62.839011 478.841407 57.213203 
C 484.467214 51.587396 487.628203 43.956093 487.628203 36 
C 487.628203 28.043907 484.467214 20.412604 478.841407 14.786797 
C 473.215599 9.160989 465.584296 6 457.628203 6 
C 449.67211 6 442.040807 9.160989 436.415 14.786797 
C 430.789193 20.412604 427.628203 28.043907 427.628203 36 
C 427.628203 43.956093 430.789193 51.587396 436.415 57.213203 
C 442.040807 62.839011 449.67211 66 457.628203 66 
z
" style="fill:#d9944c;stroke:#d9944c;stroke-linejoin:miter;"/>
   </g>
   <g id="patch_29">
    <path d="M 754.650716 282 
C 762.606809 282 770.238112 278.839011 775.86392 273.213203 
C 781.489727 267.587396 784.650716 259.956093 784.650716 252 
C 784.650716 244.043907 781.489727 236.412604 775.86392 230.786797 
C 770.238112 225.160989 762.606809 222 754.650716 222 
C 746.694623 222 739.06332 225.160989 733.437513 230.786797 
C 727.811705 236.412604 724.650716 244.043907 724.650716 252 
C 724.650716 259.956093 727.811705 267.587396 733.437513 273.213203 
C 739.06332 278.839011 746.694623 282 754.650716 282 
z
" style="fill:#d9944c;stroke:#d9944c;stroke-linejoin:miter;"/>
   </g>
   <g id="patch_30">
    <path d="M 754.650716 210 
C 762.606809 210 770.238112 206.839011 775.86392 201.213203 
C 781.489727 195.587396 784.650716 187.956093 784.650716 180 
C 784.650716 172.043907 781.489727 164.412604 775.86392 158.786797 
C 770.238112 153.160989 762.606809 150 754.650716 150 
C 746.694623 150 739.06332 153.160989 733.437513 158.786797 
C 727.811705 164.412604 724.650716 172.043907 724.650716 180 
C 724.650716 187.956093 727.811705 195.587396 733.437513 201.213203 
C 739.06332 206.839011 746.694623 210 754.650716 210 
z
" style="fill:#d9944c;stroke:#d9944c;stroke-linejoin:miter;"/>
   </g>
   <g id="patch_31">
    <path d="M 754.650716 138 
C 762.606809 138 770.238112 134.839011 775.86392 129.213203 
C 781.489727 123.587396 784.650716 115.956093 784.650716 108 
C 784.650716 100.043907 781.489727 92.412604 775.86392 86.786797 
C 770.238112 81.160989 762.606809 78 754.650716 78 
C 746.694623 78 739.06332 81.160989 733.437513 86.786797 
C 727.811705 92.412604 724.650716 100.043907 724.650716 108 
C 724.650716 115.956093 727.811705 123.587396 733.437513 129.213203 
C 739.06332 134.839011 746.694623 138 754.650716 138 
z
" style="fill:#d9944c;stroke:#d9944c;stroke-linejoin:miter;"/>
   </g>
   <g id="patch_32">
    <path d="M 890.779361 426 
C 898.735454 426 906.366757 422.839011 911.992564 417.213203 
C 917.618372 411.587396 920.779361 403.956093 920.779361 396 
C 920.779361 388.043907 917.618372 380.412604 911.992564 374.786797 
C 906.366757 369.160989 898.735454 366 890.779361 366 
C 882.823268 366 875.191965 369.160989 869.566158 374.786797 
C 863.94035 380.412604 860.779361 388.043907 860.779361 396 
C 860.779361 403.956093 863.94035 411.587396 869.566158 417.213203 
C 875.191965 422.839011 882.823268 426 890.779361 426 
z
" style="fill:#d9944c;stroke:#d9944c;stroke-linejoin:miter;"/>
   </g>
   <g id="patch_33">
    <path d="M 890.779361 66 
C 898.735454 66 906.366757 62.839011 911.992564 57.213203 
C 917.618372 51.587396 920.779361 43.956093 920.779361 36 
C 920.779361 28.043907 917.618372 20.412604 911.992564 14.786797 
C 906.366757 9.160989 898.735454 6 890.779361 6 
C 882.823268 6 875.191965 9.160989 869.566158 14.786797 
C 863.94035 20.412604 860.779361 28.043907 860.779361 36 
C 860.779361 43.956093 863.94035 51.587396 869.566158 57.213203 
C 875.191965 62.839011 882.823268 66 890.779361 66 
z
" style="fill:#d9944c;stroke:#d9944c;stroke-linejoin:miter;"/>
   </g>
   <g id="text_19">
    <!-- F#2(7) -->
    <defs>
     <path d="M 9.8125 72.90625 
L 51.703125 72.90625 
L 51.703125 64.59375 
L 19.671875 64.59375 
L 19.671875 43.109375 
L 48.578125 43.109375 
L 48.578125 34.8125 
L 19.671875 34.8125 
L 19.671875 0 
L 9.8125 0 
z
" id="DejaVuSans-70"/>
     <path d="M 51.125 44 
L 36.921875 44 
L 32.8125 27.6875 
L 47.125 27.6875 
z
M 43.796875 71.78125 
L 38.71875 51.515625 
L 52.984375 51.515625 
L 58.109375 71.78125 
L 65.921875 71.78125 
L 60.890625 51.515625 
L 76.125 51.515625 
L 76.125 44 
L 58.984375 44 
L 54.984375 27.6875 
L 70.515625 27.6875 
L 70.515625 20.21875 
L 53.078125 20.21875 
L 48 0 
L 40.1875 0 
L 45.21875 20.21875 
L 30.90625 20.21875 
L 25.875 0 
L 18.015625 0 
L 23.09375 20.21875 
L 7.71875 20.21875 
L 7.71875 27.6875 
L 24.90625 27.6875 
L 29 44 
L 13.28125 44 
L 13.28125 51.515625 
L 30.90625 51.515625 
L 35.890625 71.78125 
z
" id="DejaVuSans-35"/>
    </defs>
    <g style="fill:#ffffff;" transform="translate(101.125455 327.679167)scale(0.133333 -0.133333)">
     <use xlink:href="#DejaVuSans-70"/>
     <use x="57.519531" xlink:href="#DejaVuSans-35"/>
     <use x="141.308594" xlink:href="#DejaVuSans-50"/>
     <use x="204.931641" xlink:href="#DejaVuSans-40"/>
     <use x="243.945312" xlink:href="#DejaVuSans-55"/>
     <use x="307.568359" xlink:href="#DejaVuSans-41"/>
    </g>
   </g>
   <g id="text_20">
    <!-- G#3(R) -->
    <g style="fill:#ffffff;" transform="translate(99.40358 111.679167)scale(0.133333 -0.133333)">
     <use xlink:href="#DejaVuSans-71"/>
     <use x="77.490234" xlink:href="#DejaVuSans-35"/>
     <use x="161.279297" xlink:href="#DejaVuSans-51"/>
     <use x="224.902344" xlink:href="#DejaVuSans-40"/>
     <use x="263.916016" xlink:href="#DejaVuSans-82"/>
     <use x="333.398438" xlink:href="#DejaVuSans-41"/>
    </g>
   </g>
   <g id="text_21">
    <!-- B#3(3) -->
    <defs>
     <path d="M 19.671875 34.8125 
L 19.671875 8.109375 
L 35.5 8.109375 
Q 43.453125 8.109375 47.28125 11.40625 
Q 51.125 14.703125 51.125 21.484375 
Q 51.125 28.328125 47.28125 31.5625 
Q 43.453125 34.8125 35.5 34.8125 
z
M 19.671875 64.796875 
L 19.671875 42.828125 
L 34.28125 42.828125 
Q 41.5 42.828125 45.03125 45.53125 
Q 48.578125 48.25 48.578125 53.8125 
Q 48.578125 59.328125 45.03125 62.0625 
Q 41.5 64.796875 34.28125 64.796875 
z
M 9.8125 72.90625 
L 35.015625 72.90625 
Q 46.296875 72.90625 52.390625 68.21875 
Q 58.5 63.53125 58.5 54.890625 
Q 58.5 48.1875 55.375 44.234375 
Q 52.25 40.28125 46.1875 39.3125 
Q 53.46875 37.75 57.5 32.78125 
Q 61.53125 27.828125 61.53125 20.40625 
Q 61.53125 10.640625 54.890625 5.3125 
Q 48.25 0 35.984375 0 
L 9.8125 0 
z
" id="DejaVuSans-66"/>
    </defs>
    <g style="fill:#ffffff;" transform="translate(271.897217 255.679167)scale(0.133333 -0.133333)">
     <use xlink:href="#DejaVuSans-66"/>
     <use x="68.603516" xlink:href="#DejaVuSans-35"/>
     <use x="152.392578" xlink:href="#DejaVuSans-51"/>
     <use x="216.015625" xlink:href="#DejaVuSans-40"/>
     <use x="255.029297" xlink:href="#DejaVuSans-51"/>
     <use x="318.652344" xlink:href="#DejaVuSans-41"/>
    </g>
   </g>
   <g id="text_22">
    <!-- D#2(5) -->
    <defs>
     <path d="M 19.671875 64.796875 
L 19.671875 8.109375 
L 31.59375 8.109375 
Q 46.6875 8.109375 53.6875 14.9375 
Q 60.6875 21.78125 60.6875 36.53125 
Q 60.6875 51.171875 53.6875 57.984375 
Q 46.6875 64.796875 31.59375 64.796875 
z
M 9.8125 72.90625 
L 30.078125 72.90625 
Q 51.265625 72.90625 61.171875 64.09375 
Q 71.09375 55.28125 71.09375 36.53125 
Q 71.09375 17.671875 61.125 8.828125 
Q 51.171875 0 30.078125 0 
L 9.8125 0 
z
" id="DejaVuSans-68"/>
    </defs>
    <g style="fill:#ffffff;" transform="translate(433.222995 399.679167)scale(0.133333 -0.133333)">
     <use xlink:href="#DejaVuSans-68"/>
     <use x="77.001953" xlink:href="#DejaVuSans-35"/>
     <use x="160.791016" xlink:href="#DejaVuSans-50"/>
     <use x="224.414062" xlink:href="#DejaVuSans-40"/>
     <use x="263.427734" xlink:href="#DejaVuSans-53"/>
     <use x="327.050781" xlink:href="#DejaVuSans-41"/>
    </g>
   </g>
   <g id="text_23">
    <!-- G#2(R) -->
    <g style="fill:#ffffff;" transform="translate(432.800078 327.679167)scale(0.133333 -0.133333)">
     <use xlink:href="#DejaVuSans-71"/>
     <use x="77.490234" xlink:href="#DejaVuSans-35"/>
     <use x="161.279297" xlink:href="#DejaVuSans-50"/>
     <use x="224.902344" xlink:href="#DejaVuSans-40"/>
     <use x="263.916016" xlink:href="#DejaVuSans-82"/>
     <use x="333.398438" xlink:href="#DejaVuSans-41"/>
    </g>
   </g>
   <g id="text_24">
    <!-- F#3(7) -->
    <g style="fill:#ffffff;" transform="translate(434.521953 183.679167)scale(0.133333 -0.133333)">
     <use xlink:href="#DejaVuSans-70"/>
     <use x="57.519531" xlink:href="#DejaVuSans-35"/>
     <use x="141.308594" xlink:href="#DejaVuSans-51"/>
     <use x="204.931641" xlink:href="#DejaVuSans-40"/>
     <use x="243.945312" xlink:href="#DejaVuSans-55"/>
     <use x="307.568359" xlink:href="#DejaVuSans-41"/>
    </g>
   </g>
   <g id="text_25">
    <!-- D#4(5) -->
    <g style="fill:#ffffff;" transform="translate(433.222995 39.679167)scale(0.133333 -0.133333)">
     <use xlink:href="#DejaVuSans-68"/>
     <use x="77.001953" xlink:href="#DejaVuSans-35"/>
     <use x="160.791016" xlink:href="#DejaVuSans-52"/>
     <use x="224.414062" xlink:href="#DejaVuSans-40"/>
     <use x="263.427734" xlink:href="#DejaVuSans-53"/>
     <use x="327.050781" xlink:href="#DejaVuSans-41"/>
    </g>
   </g>
   <g id="text_26">
    <!-- D#3(5) -->
    <g style="fill:#ffffff;" transform="translate(730.245508 255.679167)scale(0.133333 -0.133333)">
     <use xlink:href="#DejaVuSans-68"/>
     <use x="77.001953" xlink:href="#DejaVuSans-35"/>
     <use x="160.791016" xlink:href="#DejaVuSans-51"/>
     <use x="224.414062" xlink:href="#DejaVuSans-40"/>
     <use x="263.427734" xlink:href="#DejaVuSans-53"/>
     <use x="327.050781" xlink:href="#DejaVuSans-41"/>
    </g>
   </g>
   <g id="text_27">
    <!-- G#3(R) -->
    <g style="fill:#ffffff;" transform="translate(729.822591 183.679167)scale(0.133333 -0.133333)">
     <use xlink:href="#DejaVuSans-71"/>
     <use x="77.490234" xlink:href="#DejaVuSans-35"/>
     <use x="161.279297" xlink:href="#DejaVuSans-51"/>
     <use x="224.902344" xlink:href="#DejaVuSans-40"/>
     <use x="263.916016" xlink:href="#DejaVuSans-82"/>
     <use x="333.398438" xlink:href="#DejaVuSans-41"/>
    </g>
   </g>
   <g id="text_28">
    <!-- B#4(3) -->
    <g style="fill:#ffffff;" transform="translate(730.804883 111.679167)scale(0.133333 -0.133333)">
     <use xlink:href="#DejaVuSans-66"/>
     <use x="68.603516" xlink:href="#DejaVuSans-35"/>
     <use x="152.392578" xlink:href="#DejaVuSans-52"/>
     <use x="216.015625" xlink:href="#DejaVuSans-40"/>
     <use x="255.029297" xlink:href="#DejaVuSans-51"/>
     <use x="318.652344" xlink:href="#DejaVuSans-41"/>
    </g>
   </g>
   <g id="text_29">
    <!-- F#2(7) -->
    <g style="fill:#ffffff;" transform="translate(867.673111 399.679167)scale(0.133333 -0.133333)">
     <use xlink:href="#DejaVuSans-70"/>
     <use x="57.519531" xlink:href="#DejaVuSans-35"/>
     <use x="141.308594" xlink:href="#DejaVuSans-50"/>
     <use x="204.931641" xlink:href="#DejaVuSans-40"/>
     <use x="243.945312" xlink:href="#DejaVuSans-55"/>
     <use x="307.568359" xlink:href="#DejaVuSans-41"/>
    </g>
   </g>
   <g id="text_30">
    <!-- F#4(7) -->
    <g style="fill:#ffffff;" transform="translate(867.673111 39.679167)scale(0.133333 -0.133333)">
     <use xlink:href="#DejaVuSans-70"/>
     <use x="57.519531" xlink:href="#DejaVuSans-35"/>
     <use x="141.308594" xlink:href="#DejaVuSans-52"/>
     <use x="204.931641" xlink:href="#DejaVuSans-40"/>
     <use x="243.945312" xlink:href="#DejaVuSans-55"/>
     <use x="307.568359" xlink:href="#DejaVuSans-41"/>
    </g>
   </g>
   <g id="patch_34">
    <path d="M 159.524387 282 
C 167.48048 282 175.111783 278.839011 180.737591 273.213203 
C 186.363398 267.587396 189.524387 259.956093 189.524387 252 
C 189.524387 244.043907 186.363398 236.412604 180.737591 230.786797 
C 175.111783 225.160989 167.48048 222 159.524387 222 
C 151.568294 222 143.936991 225.160989 138.311184 230.786797 
C 132.685376 236.412604 129.524387 244.043907 129.524387 252 
C 129.524387 259.956093 132.685376 267.587396 138.311184 273.213203 
C 143.936991 278.839011 151.568294 282 159.524387 282 
z
" style="fill:#d9d34c;stroke:#d9d34c;stroke-linejoin:miter;"/>
   </g>
   <g id="patch_35">
    <path d="M 159.524387 210 
C 167.48048 210 175.111783 206.839011 180.737591 201.213203 
C 186.363398 195.587396 189.524387 187.956093 189.524387 180 
C 189.524387 172.043907 186.363398 164.412604 180.737591 158.786797 
C 175.111783 153.160989 167.48048 150 159.524387 150 
C 151.568294 150 143.936991 153.160989 138.311184 158.786797 
C 132.685376 164.412604 129.524387 172.043907 129.524387 180 
C 129.524387 187.956093 132.685376 195.587396 138.311184 201.213203 
C 143.936991 206.839011 151.568294 210 159.524387 210 
z
" style="fill:#d9d34c;stroke:#d9d34c;stroke-linejoin:miter;"/>
   </g>
   <g id="patch_36">
    <path d="M 329.054906 426 
C 337.010999 426 344.642302 422.839011 350.26811 417.213203 
C 355.893917 411.587396 359.054906 403.956093 359.054906 396 
C 359.054906 388.043907 355.893917 380.412604 350.26811 374.786797 
C 344.642302 369.160989 337.010999 366 329.054906 366 
C 321.098813 366 313.46751 369.160989 307.841703 374.786797 
C 302.215896 380.412604 299.054906 388.043907 299.054906 396 
C 299.054906 403.956093 302.215896 411.587396 307.841703 417.213203 
C 313.46751 422.839011 321.098813 426 329.054906 426 
z
" style="fill:#d9d34c;stroke:#d9d34c;stroke-linejoin:miter;"/>
   </g>
   <g id="patch_37">
    <path d="M 329.054906 354 
C 337.010999 354 344.642302 350.839011 350.26811 345.213203 
C 355.893917 339.587396 359.054906 331.956093 359.054906 324 
C 359.054906 316.043907 355.893917 308.412604 350.26811 302.786797 
C 344.642302 297.160989 337.010999 294 329.054906 294 
C 321.098813 294 313.46751 297.160989 307.841703 302.786797 
C 302.215896 308.412604 299.054906 316.043907 299.054906 324 
C 299.054906 331.956093 302.215896 339.587396 307.841703 345.213203 
C 313.46751 350.839011 321.098813 354 329.054906 354 
z
" style="fill:#d9d34c;stroke:#d9d34c;stroke-linejoin:miter;"/>
   </g>
   <g id="patch_38">
    <path d="M 329.054906 282 
C 337.010999 282 344.642302 278.839011 350.26811 273.213203 
C 355.893917 267.587396 359.054906 259.956093 359.054906 252 
C 359.054906 244.043907 355.893917 236.412604 350.26811 230.786797 
C 344.642302 225.160989 337.010999 222 329.054906 222 
C 321.098813 222 313.46751 225.160989 307.841703 230.786797 
C 302.215896 236.412604 299.054906 244.043907 299.054906 252 
C 299.054906 259.956093 302.215896 267.587396 307.841703 273.213203 
C 313.46751 278.839011 321.098813 282 329.054906 282 
z
" style="fill:#d9d34c;stroke:#d9d34c;stroke-linejoin:miter;"/>
   </g>
   <g id="patch_39">
    <path d="M 329.054906 210 
C 337.010999 210 344.642302 206.839011 350.26811 201.213203 
C 355.893917 195.587396 359.054906 187.956093 359.054906 180 
C 359.054906 172.043907 355.893917 164.412604 350.26811 158.786797 
C 344.642302 153.160989 337.010999 150 329.054906 150 
C 321.098813 150 313.46751 153.160989 307.841703 158.786797 
C 302.215896 164.412604 299.054906 172.043907 299.054906 180 
C 299.054906 187.956093 302.215896 195.587396 307.841703 201.213203 
C 313.46751 206.839011 321.098813 210 329.054906 210 
z
" style="fill:#d9d34c;stroke:#d9d34c;stroke-linejoin:miter;"/>
   </g>
   <g id="patch_40">
    <path d="M 329.054906 138 
C 337.010999 138 344.642302 134.839011 350.26811 129.213203 
C 355.893917 123.587396 359.054906 115.956093 359.054906 108 
C 359.054906 100.043907 355.893917 92.412604 350.26811 86.786797 
C 344.642302 81.160989 337.010999 78 329.054906 78 
C 321.098813 78 313.46751 81.160989 307.841703 86.786797 
C 302.215896 92.412604 299.054906 100.043907 299.054906 108 
C 299.054906 115.956093 302.215896 123.587396 307.841703 129.213203 
C 313.46751 134.839011 321.098813 138 329.054906 138 
z
" style="fill:#d9d34c;stroke:#d9d34c;stroke-linejoin:miter;"/>
   </g>
   <g id="patch_41">
    <path d="M 329.054906 66 
C 337.010999 66 344.642302 62.839011 350.26811 57.213203 
C 355.893917 51.587396 359.054906 43.956093 359.054906 36 
C 359.054906 28.043907 355.893917 20.412604 350.26811 14.786797 
C 344.642302 9.160989 337.010999 6 329.054906 6 
C 321.098813 6 313.46751 9.160989 307.841703 14.786797 
C 302.215896 20.412604 299.054906 28.043907 299.054906 36 
C 299.054906 43.956093 302.215896 51.587396 307.841703 57.213203 
C 313.46751 62.839011 321.098813 66 329.054906 66 
z
" style="fill:#d9d34c;stroke:#d9d34c;stroke-linejoin:miter;"/>
   </g>
   <g id="patch_42">
    <path d="M 640.104931 426 
C 648.061024 426 655.692327 422.839011 661.318134 417.213203 
C 666.943941 411.587396 670.104931 403.956093 670.104931 396 
C 670.104931 388.043907 666.943941 380.412604 661.318134 374.786797 
C 655.692327 369.160989 648.061024 366 640.104931 366 
C 632.148838 366 624.517535 369.160989 618.891727 374.786797 
C 613.26592 380.412604 610.104931 388.043907 610.104931 396 
C 610.104931 403.956093 613.26592 411.587396 618.891727 417.213203 
C 624.517535 422.839011 632.148838 426 640.104931 426 
z
" style="fill:#d9d34c;stroke:#d9d34c;stroke-linejoin:miter;"/>
   </g>
   <g id="patch_43">
    <path d="M 640.104931 354 
C 648.061024 354 655.692327 350.839011 661.318134 345.213203 
C 666.943941 339.587396 670.104931 331.956093 670.104931 324 
C 670.104931 316.043907 666.943941 308.412604 661.318134 302.786797 
C 655.692327 297.160989 648.061024 294 640.104931 294 
C 632.148838 294 624.517535 297.160989 618.891727 302.786797 
C 613.26592 308.412604 610.104931 316.043907 610.104931 324 
C 610.104931 331.956093 613.26592 339.587396 618.891727 345.213203 
C 624.517535 350.839011 632.148838 354 640.104931 354 
z
" style="fill:#d9d34c;stroke:#d9d34c;stroke-linejoin:miter;"/>
   </g>
   <g id="patch_44">
    <path d="M 640.104931 282 
C 648.061024 282 655.692327 278.839011 661.318134 273.213203 
C 666.943941 267.587396 670.104931 259.956093 670.104931 252 
C 670.104931 244.043907 666.943941 236.412604 661.318134 230.786797 
C 655.692327 225.160989 648.061024 222 640.104931 222 
C 632.148838 222 624.517535 225.160989 618.891727 230.786797 
C 613.26592 236.412604 610.104931 244.043907 610.104931 252 
C 610.104931 259.956093 613.26592 267.587396 618.891727 273.213203 
C 624.517535 278.839011 632.148838 282 640.104931 282 
z
" style="fill:#d9d34c;stroke:#d9d34c;stroke-linejoin:miter;"/>
   </g>
   <g id="patch_45">
    <path d="M 640.104931 210 
C 648.061024 210 655.692327 206.839011 661.318134 201.213203 
C 666.943941 195.587396 670.104931 187.956093 670.104931 180 
C 670.104931 172.043907 666.943941 164.412604 661.318134 158.786797 
C 655.692327 153.160989 648.061024 150 640.104931 150 
C 632.148838 150 624.517535 153.160989 618.891727 158.786797 
C 613.26592 164.412604 610.104931 172.043907 610.104931 180 
C 610.104931 187.956093 613.26592 195.587396 618.891727 201.213203 
C 624.517535 206.839011 632.148838 210 640.104931 210 
z
" style="fill:#d9d34c;stroke:#d9d34c;stroke-linejoin:miter;"/>
   </g>
   <g id="patch_46">
    <path d="M 640.104931 138 
C 648.061024 138 655.692327 134.839011 661.318134 129.213203 
C 666.943941 123.587396 670.104931 115.956093 670.104931 108 
C 670.104931 100.043907 666.943941 92.412604 661.318134 86.786797 
C 655.692327 81.160989 648.061024 78 640.104931 78 
C 632.148838 78 624.517535 81.160989 618.891727 86.786797 
C 613.26592 92.412604 610.104931 100.043907 610.104931 108 
C 610.104931 115.956093 613.26592 123.587396 618.891727 129.213203 
C 624.517535 134.839011 632.148838 138 640.104931 138 
z
" style="fill:#d9d34c;stroke:#d9d34c;stroke-linejoin:miter;"/>
   </g>
   <g id="patch_47">
    <path d="M 640.104931 66 
C 648.061024 66 655.692327 62.839011 661.318134 57.213203 
C 666.943941 51.587396 670.104931 43.956093 670.104931 36 
C 670.104931 28.043907 666.943941 20.412604 661.318134 14.786797 
C 655.692327 9.160989 648.061024 6 640.104931 6 
C 632.148838 6 624.517535 9.160989 618.891727 14.786797 
C 613.26592 20.412604 610.104931 28.043907 610.104931 36 
C 610.104931 43.956093 613.26592 51.587396 618.891727 57.213203 
C 624.517535 62.839011 632.148838 66 640.104931 66 
z
" style="fill:#d9d34c;stroke:#d9d34c;stroke-linejoin:miter;"/>
   </g>
   <g id="patch_48">
    <path d="M 782.662536 426 
C 790.618629 426 798.249933 422.839011 803.87574 417.213203 
C 809.501547 411.587396 812.662536 403.956093 812.662536 396 
C 812.662536 388.043907 809.501547 380.412604 803.87574 374.786797 
C 798.249933 369.160989 790.618629 366 782.662536 366 
C 774.706443 366 767.07514 369.160989 761.449333 374.786797 
C 755.823526 380.412604 752.662536 388.043907 752.662536 396 
C 752.662536 403.956093 755.823526 411.587396 761.449333 417.213203 
C 767.07514 422.839011 774.706443 426 782.662536 426 
z
" style="fill:#d9d34c;stroke:#d9d34c;stroke-linejoin:miter;"/>
   </g>
   <g id="patch_49">
    <path d="M 782.662536 138 
C 790.618629 138 798.249933 134.839011 803.87574 129.213203 
C 809.501547 123.587396 812.662536 115.956093 812.662536 108 
C 812.662536 100.043907 809.501547 92.412604 803.87574 86.786797 
C 798.249933 81.160989 790.618629 78 782.662536 78 
C 774.706443 78 767.07514 81.160989 761.449333 86.786797 
C 755.823526 92.412604 752.662536 100.043907 752.662536 108 
C 752.662536 115.956093 755.823526 123.587396 761.449333 129.213203 
C 767.07514 134.839011 774.706443 138 782.662536 138 
z
" style="fill:#d9d34c;stroke:#d9d34c;stroke-linejoin:miter;"/>
   </g>
   <g id="patch_50">
    <path d="M 782.662536 66 
C 790.618629 66 798.249933 62.839011 803.87574 57.213203 
C 809.501547 51.587396 812.662536 43.956093 812.662536 36 
C 812.662536 28.043907 809.501547 20.412604 803.87574 14.786797 
C 798.249933 9.160989 790.618629 6 782.662536 6 
C 774.706443 6 767.07514 9.160989 761.449333 14.786797 
C 755.823526 20.412604 752.662536 28.043907 752.662536 36 
C 752.662536 43.956093 755.823526 51.587396 761.449333 57.213203 
C 767.07514 62.839011 774.706443 66 782.662536 66 
z
" style="fill:#d9d34c;stroke:#d9d34c;stroke-linejoin:miter;"/>
   </g>
   <g id="patch_51">
    <path d="M 917.218999 354 
C 925.175092 354 932.806395 350.839011 938.432202 345.213203 
C 944.058009 339.587396 947.218999 331.956093 947.218999 324 
C 947.218999 316.043907 944.058009 308.412604 938.432202 302.786797 
C 932.806395 297.160989 925.175092 294 917.218999 294 
C 909.262906 294 901.631603 297.160989 896.005795 302.786797 
C 890.379988 308.412604 887.218999 316.043907 887.218999 324 
C 887.218999 331.956093 890.379988 339.587396 896.005795 345.213203 
C 901.631603 350.839011 909.262906 354 917.218999 354 
z
" style="fill:#d9d34c;stroke:#d9d34c;stroke-linejoin:miter;"/>
   </g>
   <g id="patch_52">
    <path d="M 917.218999 282 
C 925.175092 282 932.806395 278.839011 938.432202 273.213203 
C 944.058009 267.587396 947.218999 259.956093 947.218999 252 
C 947.218999 244.043907 944.058009 236.412604 938.432202 230.786797 
C 932.806395 225.160989 925.175092 222 917.218999 222 
C 909.262906 222 901.631603 225.160989 896.005795 230.786797 
C 890.379988 236.412604 887.218999 244.043907 887.218999 252 
C 887.218999 259.956093 890.379988 267.587396 896.005795 273.213203 
C 901.631603 278.839011 909.262906 282 917.218999 282 
z
" style="fill:#d9d34c;stroke:#d9d34c;stroke-linejoin:miter;"/>
   </g>
   <g id="patch_53">
    <path d="M 917.218999 210 
C 925.175092 210 932.806395 206.839011 938.432202 201.213203 
C 944.058009 195.587396 947.218999 187.956093 947.218999 180 
C 947.218999 172.043907 944.058009 164.412604 938.432202 158.786797 
C 932.806395 153.160989 925.175092 150 917.218999 150 
C 909.262906 150 901.631603 153.160989 896.005795 158.786797 
C 890.379988 164.412604 887.218999 172.043907 887.218999 180 
C 887.218999 187.956093 890.379988 195.587396 896.005795 201.213203 
C 901.631603 206.839011 909.262906 210 917.218999 210 
z
" style="fill:#d9d34c;stroke:#d9d34c;stroke-linejoin:miter;"/>
   </g>
   <g id="text_31">
    <!-- B2(13) -->
    <g style="fill:#ffffff;" transform="translate(137.023346 255.679167)scale(0.133333 -0.133333)">
     <use xlink:href="#DejaVuSans-66"/>
     <use x="68.603516" xlink:href="#DejaVuSans-50"/>
     <use x="132.226562" xlink:href="#DejaVuSans-40"/>
     <use x="171.240234" xlink:href="#DejaVuSans-49"/>
     <use x="234.863281" xlink:href="#DejaVuSans-51"/>
     <use x="298.486328" xlink:href="#DejaVuSans-41"/>
    </g>
   </g>
   <g id="text_32">
    <!-- E3(9) -->
    <g style="fill:#ffffff;" transform="translate(141.626471 183.679167)scale(0.133333 -0.133333)">
     <use xlink:href="#DejaVuSans-69"/>
     <use x="63.183594" xlink:href="#DejaVuSans-51"/>
     <use x="126.806641" xlink:href="#DejaVuSans-40"/>
     <use x="165.820312" xlink:href="#DejaVuSans-57"/>
     <use x="229.443359" xlink:href="#DejaVuSans-41"/>
    </g>
   </g>
   <g id="text_33">
    <!-- D2(R) -->
    <g style="fill:#ffffff;" transform="translate(309.845531 399.679167)scale(0.133333 -0.133333)">
     <use xlink:href="#DejaVuSans-68"/>
     <use x="77.001953" xlink:href="#DejaVuSans-50"/>
     <use x="140.625" xlink:href="#DejaVuSans-40"/>
     <use x="179.638672" xlink:href="#DejaVuSans-82"/>
     <use x="249.121094" xlink:href="#DejaVuSans-41"/>
    </g>
   </g>
   <g id="text_34">
    <!-- G2(11) -->
    <g style="fill:#ffffff;" transform="translate(305.962198 327.679167)scale(0.133333 -0.133333)">
     <use xlink:href="#DejaVuSans-71"/>
     <use x="77.490234" xlink:href="#DejaVuSans-50"/>
     <use x="141.113281" xlink:href="#DejaVuSans-40"/>
     <use x="180.126953" xlink:href="#DejaVuSans-49"/>
     <use x="243.75" xlink:href="#DejaVuSans-49"/>
     <use x="307.373047" xlink:href="#DejaVuSans-41"/>
    </g>
   </g>
   <g id="text_35">
    <!-- C3(7) -->
    <g style="fill:#ffffff;" transform="translate(310.714281 255.679167)scale(0.133333 -0.133333)">
     <use xlink:href="#DejaVuSans-67"/>
     <use x="69.824219" xlink:href="#DejaVuSans-51"/>
     <use x="133.447266" xlink:href="#DejaVuSans-40"/>
     <use x="172.460938" xlink:href="#DejaVuSans-55"/>
     <use x="236.083984" xlink:href="#DejaVuSans-41"/>
    </g>
   </g>
   <g id="text_36">
    <!-- F3(3) -->
    <g style="fill:#ffffff;" transform="translate(311.535115 183.679167)scale(0.133333 -0.133333)">
     <use xlink:href="#DejaVuSans-70"/>
     <use x="57.519531" xlink:href="#DejaVuSans-51"/>
     <use x="121.142578" xlink:href="#DejaVuSans-40"/>
     <use x="160.15625" xlink:href="#DejaVuSans-51"/>
     <use x="223.779297" xlink:href="#DejaVuSans-41"/>
    </g>
   </g>
   <g id="text_37">
    <!-- A3(5) -->
    <g style="fill:#ffffff;" transform="translate(310.809073 111.679167)scale(0.133333 -0.133333)">
     <use xlink:href="#DejaVuSans-65"/>
     <use x="68.408203" xlink:href="#DejaVuSans-51"/>
     <use x="132.03125" xlink:href="#DejaVuSans-40"/>
     <use x="171.044922" xlink:href="#DejaVuSans-53"/>
     <use x="234.667969" xlink:href="#DejaVuSans-41"/>
    </g>
   </g>
   <g id="text_38">
    <!-- D4(R) -->
    <g style="fill:#ffffff;" transform="translate(309.845531 39.679167)scale(0.133333 -0.133333)">
     <use xlink:href="#DejaVuSans-68"/>
     <use x="77.001953" xlink:href="#DejaVuSans-52"/>
     <use x="140.625" xlink:href="#DejaVuSans-40"/>
     <use x="179.638672" xlink:href="#DejaVuSans-82"/>
     <use x="249.121094" xlink:href="#DejaVuSans-41"/>
    </g>
   </g>
   <g id="text_39">
    <!-- E2(9) -->
    <g style="fill:#ffffff;" transform="translate(622.207014 399.679167)scale(0.133333 -0.133333)">
     <use xlink:href="#DejaVuSans-69"/>
     <use x="63.183594" xlink:href="#DejaVuSans-50"/>
     <use x="126.806641" xlink:href="#DejaVuSans-40"/>
     <use x="165.820312" xlink:href="#DejaVuSans-57"/>
     <use x="229.443359" xlink:href="#DejaVuSans-41"/>
    </g>
   </g>
   <g id="text_40">
    <!-- A2(5) -->
    <g style="fill:#ffffff;" transform="translate(621.859097 327.679167)scale(0.133333 -0.133333)">
     <use xlink:href="#DejaVuSans-65"/>
     <use x="68.408203" xlink:href="#DejaVuSans-50"/>
     <use x="132.03125" xlink:href="#DejaVuSans-40"/>
     <use x="171.044922" xlink:href="#DejaVuSans-53"/>
     <use x="234.667969" xlink:href="#DejaVuSans-41"/>
    </g>
   </g>
   <g id="text_41">
    <!-- D3(R) -->
    <g style="fill:#ffffff;" transform="translate(620.895556 255.679167)scale(0.133333 -0.133333)">
     <use xlink:href="#DejaVuSans-68"/>
     <use x="77.001953" xlink:href="#DejaVuSans-51"/>
     <use x="140.625" xlink:href="#DejaVuSans-40"/>
     <use x="179.638672" xlink:href="#DejaVuSans-82"/>
     <use x="249.121094" xlink:href="#DejaVuSans-41"/>
    </g>
   </g>
   <g id="text_42">
    <!-- G3(11) -->
    <g style="fill:#ffffff;" transform="translate(617.012222 183.679167)scale(0.133333 -0.133333)">
     <use xlink:href="#DejaVuSans-71"/>
     <use x="77.490234" xlink:href="#DejaVuSans-51"/>
     <use x="141.113281" xlink:href="#DejaVuSans-40"/>
     <use x="180.126953" xlink:href="#DejaVuSans-49"/>
     <use x="243.75" xlink:href="#DejaVuSans-49"/>
     <use x="307.373047" xlink:href="#DejaVuSans-41"/>
    </g>
   </g>
   <g id="text_43">
    <!-- B3(13) -->
    <g style="fill:#ffffff;" transform="translate(617.603889 111.679167)scale(0.133333 -0.133333)">
     <use xlink:href="#DejaVuSans-66"/>
     <use x="68.603516" xlink:href="#DejaVuSans-51"/>
     <use x="132.226562" xlink:href="#DejaVuSans-40"/>
     <use x="171.240234" xlink:href="#DejaVuSans-49"/>
     <use x="234.863281" xlink:href="#DejaVuSans-51"/>
     <use x="298.486328" xlink:href="#DejaVuSans-41"/>
    </g>
   </g>
   <g id="text_44">
    <!-- E4(9) -->
    <g style="fill:#ffffff;" transform="translate(622.207014 39.679167)scale(0.133333 -0.133333)">
     <use xlink:href="#DejaVuSans-69"/>
     <use x="63.183594" xlink:href="#DejaVuSans-52"/>
     <use x="126.806641" xlink:href="#DejaVuSans-40"/>
     <use x="165.820312" xlink:href="#DejaVuSans-57"/>
     <use x="229.443359" xlink:href="#DejaVuSans-41"/>
    </g>
   </g>
   <g id="text_45">
    <!-- F2(3) -->
    <g style="fill:#ffffff;" transform="translate(765.142745 399.679167)scale(0.133333 -0.133333)">
     <use xlink:href="#DejaVuSans-70"/>
     <use x="57.519531" xlink:href="#DejaVuSans-50"/>
     <use x="121.142578" xlink:href="#DejaVuSans-40"/>
     <use x="160.15625" xlink:href="#DejaVuSans-51"/>
     <use x="223.779297" xlink:href="#DejaVuSans-41"/>
    </g>
   </g>
   <g id="text_46">
    <!-- C4(7) -->
    <g style="fill:#ffffff;" transform="translate(764.321911 111.679167)scale(0.133333 -0.133333)">
     <use xlink:href="#DejaVuSans-67"/>
     <use x="69.824219" xlink:href="#DejaVuSans-52"/>
     <use x="133.447266" xlink:href="#DejaVuSans-40"/>
     <use x="172.460938" xlink:href="#DejaVuSans-55"/>
     <use x="236.083984" xlink:href="#DejaVuSans-41"/>
    </g>
   </g>
   <g id="text_47">
    <!-- F4(3) -->
    <g style="fill:#ffffff;" transform="translate(765.142745 39.679167)scale(0.133333 -0.133333)">
     <use xlink:href="#DejaVuSans-70"/>
     <use x="57.519531" xlink:href="#DejaVuSans-52"/>
     <use x="121.142578" xlink:href="#DejaVuSans-40"/>
     <use x="160.15625" xlink:href="#DejaVuSans-51"/>
     <use x="223.779297" xlink:href="#DejaVuSans-41"/>
    </g>
   </g>
   <g id="text_48">
    <!-- B2(13) -->
    <g style="fill:#ffffff;" transform="translate(894.717957 327.679167)scale(0.133333 -0.133333)">
     <use xlink:href="#DejaVuSans-66"/>
     <use x="68.603516" xlink:href="#DejaVuSans-50"/>
     <use x="132.226562" xlink:href="#DejaVuSans-40"/>
     <use x="171.240234" xlink:href="#DejaVuSans-49"/>
     <use x="234.863281" xlink:href="#DejaVuSans-51"/>
     <use x="298.486328" xlink:href="#DejaVuSans-41"/>
    </g>
   </g>
   <g id="text_49">
    <!-- E3(9) -->
    <g style="fill:#ffffff;" transform="translate(899.321082 255.679167)scale(0.133333 -0.133333)">
     <use xlink:href="#DejaVuSans-69"/>
     <use x="63.183594" xlink:href="#DejaVuSans-51"/>
     <use x="126.806641" xlink:href="#DejaVuSans-40"/>
     <use x="165.820312" xlink:href="#DejaVuSans-57"/>
     <use x="229.443359" xlink:href="#DejaVuSans-41"/>
    </g>
   </g>
   <g id="text_50">
    <!-- A3(5) -->
    <g style="fill:#ffffff;" transform="translate(898.973165 183.679167)scale(0.133333 -0.133333)">
     <use xlink:href="#DejaVuSans-65"/>
     <use x="68.408203" xlink:href="#DejaVuSans-51"/>
     <use x="132.03125" xlink:href="#DejaVuSans-40"/>
     <use x="171.044922" xlink:href="#DejaVuSans-53"/>
     <use x="234.667969" xlink:href="#DejaVuSans-41"/>
    </g>
   </g>
  </g>
 </g>
 <defs>
  <clipPath id="p7cb64de25c">
   <rect height="432" width="920.878455" x="36" y="0"/>
  </clipPath>
 </defs>
</svg>
