<?xml version="1.0" encoding="utf-8" standalone="no"?>
<!DOCTYPE svg PUBLIC "-//W3C//DTD SVG 1.1//EN"
  "http://www.w3.org/Graphics/SVG/1.1/DTD/svg11.dtd">
<!-- Created with matplotlib (https://matplotlib.org/) -->
<svg height="432pt" version="1.1" viewBox="0 0 2639.454545 432" width="2639.454545pt" xmlns="http://www.w3.org/2000/svg" xmlns:xlink="http://www.w3.org/1999/xlink">
 <defs>
  <style type="text/css">
*{stroke-linecap:butt;stroke-linejoin:round;}
  </style>
 </defs>
 <g id="figure_1">
  <g id="patch_1">
   <path d="M 0 432 
L 2639.454545 432 
L 2639.454545 0 
L 0 0 
z
" style="fill:#ffffff;"/>
  </g>
  <g id="axes_1">
   <g id="patch_2">
    <path clip-path="url(#p15c2c1dd53)" d="M 777.293053 216 
L 902.071528 216 
L 902.071528 36 
L 777.293053 36 
z
" style="fill:#cccccc;"/>
   </g>
   <g id="patch_3">
    <path clip-path="url(#p15c2c1dd53)" d="M 1248.786903 216 
L 1359.951885 216 
L 1359.951885 36 
L 1248.786903 36 
z
" style="fill:#cccccc;"/>
   </g>
   <g id="patch_4">
    <path clip-path="url(#p15c2c1dd53)" d="M 1668.840169 216 
L 1767.876909 216 
L 1767.876909 36 
L 1668.840169 36 
z
" style="fill:#cccccc;"/>
   </g>
   <g id="patch_5">
    <path clip-path="url(#p15c2c1dd53)" d="M 2043.065085 216 
L 2131.29679 216 
L 2131.29679 36 
L 2043.065085 36 
z
" style="fill:#cccccc;"/>
   </g>
   <g id="patch_6">
    <path clip-path="url(#p15c2c1dd53)" d="M 2529.260821 396 
L 2603.454545 396 
L 2603.454545 36 
L 2529.260821 36 
z
" style="fill:#cccccc;"/>
   </g>
   <g id="patch_7">
    <path clip-path="url(#p15c2c1dd53)" d="M 2938.101072 216 
L 3000.490309 216 
L 3000.490309 36 
L 2938.101072 36 
z
" style="fill:#cccccc;"/>
   </g>
   <g id="patch_8">
    <path clip-path="url(#p15c2c1dd53)" d="M 3173.847997 216 
L 3229.430488 216 
L 3229.430488 36 
L 3173.847997 36 
z
" style="fill:#cccccc;"/>
   </g>
   <g id="patch_9">
    <path clip-path="url(#p15c2c1dd53)" d="M 3383.87463 216 
L 3433.393 216 
L 3433.393 36 
L 3383.87463 36 
z
" style="fill:#cccccc;"/>
   </g>
   <g id="patch_10">
    <path clip-path="url(#p15c2c1dd53)" d="M 3570.987088 216 
L 3615.102941 216 
L 3615.102941 36 
L 3570.987088 36 
z
" style="fill:#cccccc;"/>
   </g>
   <g id="line2d_1">
    <path clip-path="url(#p15c2c1dd53)" d="M 108 396 
L 108 36 
" style="fill:none;stroke:#000000;stroke-width:10;"/>
   </g>
   <g id="line2d_2">
    <path clip-path="url(#p15c2c1dd53)" style="fill:none;stroke:#000000;stroke-width:5;"/>
   </g>
   <g id="line2d_3">
    <path clip-path="url(#p15c2c1dd53)" d="M 36 396 
L 36 36 
" style="fill:none;stroke:#000000;stroke-width:3;"/>
   </g>
   <g id="line2d_4">
    <path clip-path="url(#p15c2c1dd53)" d="M 108 396 
L 108 36 
" style="fill:none;stroke:#000000;stroke-width:3;"/>
   </g>
   <g id="line2d_5">
    <path clip-path="url(#p15c2c1dd53)" d="M 388.118203 396 
L 388.118203 36 
" style="fill:none;stroke:#000000;stroke-width:3;"/>
   </g>
   <g id="line2d_6">
    <path clip-path="url(#p15c2c1dd53)" d="M 652.514579 396 
L 652.514579 36 
" style="fill:none;stroke:#000000;stroke-width:3;"/>
   </g>
   <g id="line2d_7">
    <path clip-path="url(#p15c2c1dd53)" d="M 902.071528 396 
L 902.071528 36 
" style="fill:none;stroke:#000000;stroke-width:3;"/>
   </g>
   <g id="line2d_8">
    <path clip-path="url(#p15c2c1dd53)" d="M 1137.62192 396 
L 1137.62192 36 
" style="fill:none;stroke:#000000;stroke-width:3;"/>
   </g>
   <g id="line2d_9">
    <path clip-path="url(#p15c2c1dd53)" d="M 1359.951885 396 
L 1359.951885 36 
" style="fill:none;stroke:#000000;stroke-width:3;"/>
   </g>
   <g id="line2d_10">
    <path clip-path="url(#p15c2c1dd53)" d="M 1569.803428 396 
L 1569.803428 36 
" style="fill:none;stroke:#000000;stroke-width:3;"/>
   </g>
   <g id="line2d_11">
    <path clip-path="url(#p15c2c1dd53)" d="M 1767.876909 396 
L 1767.876909 36 
" style="fill:none;stroke:#000000;stroke-width:3;"/>
   </g>
   <g id="line2d_12">
    <path clip-path="url(#p15c2c1dd53)" d="M 1954.83338 396 
L 1954.83338 36 
" style="fill:none;stroke:#000000;stroke-width:3;"/>
   </g>
   <g id="line2d_13">
    <path clip-path="url(#p15c2c1dd53)" d="M 2131.29679 396 
L 2131.29679 36 
" style="fill:none;stroke:#000000;stroke-width:3;"/>
   </g>
   <g id="line2d_14">
    <path clip-path="url(#p15c2c1dd53)" d="M 2297.85607 396 
L 2297.85607 36 
" style="fill:none;stroke:#000000;stroke-width:3;"/>
   </g>
   <g id="line2d_15">
    <path clip-path="url(#p15c2c1dd53)" d="M 2455.067096 396 
L 2455.067096 36 
" style="fill:none;stroke:#000000;stroke-width:3;"/>
   </g>
   <g id="line2d_16">
    <path clip-path="url(#p15c2c1dd53)" d="M 2603.454545 396 
L 2603.454545 36 
" style="fill:none;stroke:#000000;stroke-width:3;"/>
   </g>
   <g id="line2d_17">
    <path clip-path="url(#p15c2c1dd53)" d="M 36 396 
L 2640.454545 396 
" style="fill:none;stroke:#808080;stroke-linecap:square;stroke-width:3;"/>
   </g>
   <g id="line2d_18">
    <path clip-path="url(#p15c2c1dd53)" d="M 36 324 
L 2640.454545 324 
" style="fill:none;stroke:#808080;stroke-linecap:square;stroke-width:3;"/>
   </g>
   <g id="line2d_19">
    <path clip-path="url(#p15c2c1dd53)" d="M 36 252 
L 2640.454545 252 
" style="fill:none;stroke:#808080;stroke-linecap:square;stroke-width:3;"/>
   </g>
   <g id="line2d_20">
    <path clip-path="url(#p15c2c1dd53)" d="M 36 180 
L 2640.454545 180 
" style="fill:none;stroke:#808080;stroke-linecap:square;stroke-width:3;"/>
   </g>
   <g id="line2d_21">
    <path clip-path="url(#p15c2c1dd53)" d="M 36 108 
L 2640.454545 108 
" style="fill:none;stroke:#808080;stroke-linecap:square;stroke-width:3;"/>
   </g>
   <g id="line2d_22">
    <path clip-path="url(#p15c2c1dd53)" d="M 36 36 
L 2640.454545 36 
" style="fill:none;stroke:#808080;stroke-linecap:square;stroke-width:3;"/>
   </g>
   <g id="text_1">
    <!-- -1 -->
    <defs>
     <path d="M 4.890625 31.390625 
L 31.203125 31.390625 
L 31.203125 23.390625 
L 4.890625 23.390625 
z
" id="DejaVuSans-45"/>
     <path d="M 12.40625 8.296875 
L 28.515625 8.296875 
L 28.515625 63.921875 
L 10.984375 60.40625 
L 10.984375 69.390625 
L 28.421875 72.90625 
L 38.28125 72.90625 
L 38.28125 8.296875 
L 54.390625 8.296875 
L 54.390625 0 
L 12.40625 0 
z
" id="DejaVuSans-49"/>
    </defs>
    <g style="fill:#0000ff;" transform="translate(27.275977 428.521214)scale(0.175 -0.175)">
     <use xlink:href="#DejaVuSans-45"/>
     <use x="36.083984" xlink:href="#DejaVuSans-49"/>
    </g>
   </g>
   <g id="text_2">
    <!-- 0 -->
    <defs>
     <path d="M 31.78125 66.40625 
Q 24.171875 66.40625 20.328125 58.90625 
Q 16.5 51.421875 16.5 36.375 
Q 16.5 21.390625 20.328125 13.890625 
Q 24.171875 6.390625 31.78125 6.390625 
Q 39.453125 6.390625 43.28125 13.890625 
Q 47.125 21.390625 47.125 36.375 
Q 47.125 51.421875 43.28125 58.90625 
Q 39.453125 66.40625 31.78125 66.40625 
z
M 31.78125 74.21875 
Q 44.046875 74.21875 50.515625 64.515625 
Q 56.984375 54.828125 56.984375 36.375 
Q 56.984375 17.96875 50.515625 8.265625 
Q 44.046875 -1.421875 31.78125 -1.421875 
Q 19.53125 -1.421875 13.0625 8.265625 
Q 6.59375 17.96875 6.59375 36.375 
Q 6.59375 54.828125 13.0625 64.515625 
Q 19.53125 74.21875 31.78125 74.21875 
z
" id="DejaVuSans-48"/>
    </defs>
    <g style="fill:#0000ff;" transform="translate(102.432813 428.521214)scale(0.175 -0.175)">
     <use xlink:href="#DejaVuSans-48"/>
    </g>
   </g>
   <g id="text_3">
    <!-- 1 -->
    <g style="fill:#0000ff;" transform="translate(382.551016 428.521214)scale(0.175 -0.175)">
     <use xlink:href="#DejaVuSans-49"/>
    </g>
   </g>
   <g id="text_4">
    <!-- 2 -->
    <defs>
     <path d="M 19.1875 8.296875 
L 53.609375 8.296875 
L 53.609375 0 
L 7.328125 0 
L 7.328125 8.296875 
Q 12.9375 14.109375 22.625 23.890625 
Q 32.328125 33.6875 34.8125 36.53125 
Q 39.546875 41.84375 41.421875 45.53125 
Q 43.3125 49.21875 43.3125 52.78125 
Q 43.3125 58.59375 39.234375 62.25 
Q 35.15625 65.921875 28.609375 65.921875 
Q 23.96875 65.921875 18.8125 64.3125 
Q 13.671875 62.703125 7.8125 59.421875 
L 7.8125 69.390625 
Q 13.765625 71.78125 18.9375 73 
Q 24.125 74.21875 28.421875 74.21875 
Q 39.75 74.21875 46.484375 68.546875 
Q 53.21875 62.890625 53.21875 53.421875 
Q 53.21875 48.921875 51.53125 44.890625 
Q 49.859375 40.875 45.40625 35.40625 
Q 44.1875 33.984375 37.640625 27.21875 
Q 31.109375 20.453125 19.1875 8.296875 
z
" id="DejaVuSans-50"/>
    </defs>
    <g style="fill:#0000ff;" transform="translate(646.947392 428.521214)scale(0.175 -0.175)">
     <use xlink:href="#DejaVuSans-50"/>
    </g>
   </g>
   <g id="text_5">
    <!-- 3 -->
    <defs>
     <path d="M 40.578125 39.3125 
Q 47.65625 37.796875 51.625 33 
Q 55.609375 28.21875 55.609375 21.1875 
Q 55.609375 10.40625 48.1875 4.484375 
Q 40.765625 -1.421875 27.09375 -1.421875 
Q 22.515625 -1.421875 17.65625 -0.515625 
Q 12.796875 0.390625 7.625 2.203125 
L 7.625 11.71875 
Q 11.71875 9.328125 16.59375 8.109375 
Q 21.484375 6.890625 26.8125 6.890625 
Q 36.078125 6.890625 40.9375 10.546875 
Q 45.796875 14.203125 45.796875 21.1875 
Q 45.796875 27.640625 41.28125 31.265625 
Q 36.765625 34.90625 28.71875 34.90625 
L 20.21875 34.90625 
L 20.21875 43.015625 
L 29.109375 43.015625 
Q 36.375 43.015625 40.234375 45.921875 
Q 44.09375 48.828125 44.09375 54.296875 
Q 44.09375 59.90625 40.109375 62.90625 
Q 36.140625 65.921875 28.71875 65.921875 
Q 24.65625 65.921875 20.015625 65.03125 
Q 15.375 64.15625 9.8125 62.3125 
L 9.8125 71.09375 
Q 15.4375 72.65625 20.34375 73.4375 
Q 25.25 74.21875 29.59375 74.21875 
Q 40.828125 74.21875 47.359375 69.109375 
Q 53.90625 64.015625 53.90625 55.328125 
Q 53.90625 49.265625 50.4375 45.09375 
Q 46.96875 40.921875 40.578125 39.3125 
z
" id="DejaVuSans-51"/>
    </defs>
    <g style="fill:#0000ff;" transform="translate(896.50434 428.521214)scale(0.175 -0.175)">
     <use xlink:href="#DejaVuSans-51"/>
    </g>
   </g>
   <g id="text_6">
    <!-- 4 -->
    <defs>
     <path d="M 37.796875 64.3125 
L 12.890625 25.390625 
L 37.796875 25.390625 
z
M 35.203125 72.90625 
L 47.609375 72.90625 
L 47.609375 25.390625 
L 58.015625 25.390625 
L 58.015625 17.1875 
L 47.609375 17.1875 
L 47.609375 0 
L 37.796875 0 
L 37.796875 17.1875 
L 4.890625 17.1875 
L 4.890625 26.703125 
z
" id="DejaVuSans-52"/>
    </defs>
    <g style="fill:#0000ff;" transform="translate(1132.054733 428.521214)scale(0.175 -0.175)">
     <use xlink:href="#DejaVuSans-52"/>
    </g>
   </g>
   <g id="text_7">
    <!-- 5 -->
    <defs>
     <path d="M 10.796875 72.90625 
L 49.515625 72.90625 
L 49.515625 64.59375 
L 19.828125 64.59375 
L 19.828125 46.734375 
Q 21.96875 47.46875 24.109375 47.828125 
Q 26.265625 48.1875 28.421875 48.1875 
Q 40.625 48.1875 47.75 41.5 
Q 54.890625 34.8125 54.890625 23.390625 
Q 54.890625 11.625 47.5625 5.09375 
Q 40.234375 -1.421875 26.90625 -1.421875 
Q 22.3125 -1.421875 17.546875 -0.640625 
Q 12.796875 0.140625 7.71875 1.703125 
L 7.71875 11.625 
Q 12.109375 9.234375 16.796875 8.0625 
Q 21.484375 6.890625 26.703125 6.890625 
Q 35.15625 6.890625 40.078125 11.328125 
Q 45.015625 15.765625 45.015625 23.390625 
Q 45.015625 31 40.078125 35.4375 
Q 35.15625 39.890625 26.703125 39.890625 
Q 22.75 39.890625 18.8125 39.015625 
Q 14.890625 38.140625 10.796875 36.28125 
z
" id="DejaVuSans-53"/>
    </defs>
    <g style="fill:#0000ff;" transform="translate(1354.384698 428.521214)scale(0.175 -0.175)">
     <use xlink:href="#DejaVuSans-53"/>
    </g>
   </g>
   <g id="text_8">
    <!-- 6 -->
    <defs>
     <path d="M 33.015625 40.375 
Q 26.375 40.375 22.484375 35.828125 
Q 18.609375 31.296875 18.609375 23.390625 
Q 18.609375 15.53125 22.484375 10.953125 
Q 26.375 6.390625 33.015625 6.390625 
Q 39.65625 6.390625 43.53125 10.953125 
Q 47.40625 15.53125 47.40625 23.390625 
Q 47.40625 31.296875 43.53125 35.828125 
Q 39.65625 40.375 33.015625 40.375 
z
M 52.59375 71.296875 
L 52.59375 62.3125 
Q 48.875 64.0625 45.09375 64.984375 
Q 41.3125 65.921875 37.59375 65.921875 
Q 27.828125 65.921875 22.671875 59.328125 
Q 17.53125 52.734375 16.796875 39.40625 
Q 19.671875 43.65625 24.015625 45.921875 
Q 28.375 48.1875 33.59375 48.1875 
Q 44.578125 48.1875 50.953125 41.515625 
Q 57.328125 34.859375 57.328125 23.390625 
Q 57.328125 12.15625 50.6875 5.359375 
Q 44.046875 -1.421875 33.015625 -1.421875 
Q 20.359375 -1.421875 13.671875 8.265625 
Q 6.984375 17.96875 6.984375 36.375 
Q 6.984375 53.65625 15.1875 63.9375 
Q 23.390625 74.21875 37.203125 74.21875 
Q 40.921875 74.21875 44.703125 73.484375 
Q 48.484375 72.75 52.59375 71.296875 
z
" id="DejaVuSans-54"/>
    </defs>
    <g style="fill:#0000ff;" transform="translate(1564.236241 428.521214)scale(0.175 -0.175)">
     <use xlink:href="#DejaVuSans-54"/>
    </g>
   </g>
   <g id="text_9">
    <!-- 7 -->
    <defs>
     <path d="M 8.203125 72.90625 
L 55.078125 72.90625 
L 55.078125 68.703125 
L 28.609375 0 
L 18.3125 0 
L 43.21875 64.59375 
L 8.203125 64.59375 
z
" id="DejaVuSans-55"/>
    </defs>
    <g style="fill:#0000ff;" transform="translate(1762.309722 428.521214)scale(0.175 -0.175)">
     <use xlink:href="#DejaVuSans-55"/>
    </g>
   </g>
   <g id="text_10">
    <!-- 8 -->
    <defs>
     <path d="M 31.78125 34.625 
Q 24.75 34.625 20.71875 30.859375 
Q 16.703125 27.09375 16.703125 20.515625 
Q 16.703125 13.921875 20.71875 10.15625 
Q 24.75 6.390625 31.78125 6.390625 
Q 38.8125 6.390625 42.859375 10.171875 
Q 46.921875 13.96875 46.921875 20.515625 
Q 46.921875 27.09375 42.890625 30.859375 
Q 38.875 34.625 31.78125 34.625 
z
M 21.921875 38.8125 
Q 15.578125 40.375 12.03125 44.71875 
Q 8.5 49.078125 8.5 55.328125 
Q 8.5 64.0625 14.71875 69.140625 
Q 20.953125 74.21875 31.78125 74.21875 
Q 42.671875 74.21875 48.875 69.140625 
Q 55.078125 64.0625 55.078125 55.328125 
Q 55.078125 49.078125 51.53125 44.71875 
Q 48 40.375 41.703125 38.8125 
Q 48.828125 37.15625 52.796875 32.3125 
Q 56.78125 27.484375 56.78125 20.515625 
Q 56.78125 9.90625 50.3125 4.234375 
Q 43.84375 -1.421875 31.78125 -1.421875 
Q 19.734375 -1.421875 13.25 4.234375 
Q 6.78125 9.90625 6.78125 20.515625 
Q 6.78125 27.484375 10.78125 32.3125 
Q 14.796875 37.15625 21.921875 38.8125 
z
M 18.3125 54.390625 
Q 18.3125 48.734375 21.84375 45.5625 
Q 25.390625 42.390625 31.78125 42.390625 
Q 38.140625 42.390625 41.71875 45.5625 
Q 45.3125 48.734375 45.3125 54.390625 
Q 45.3125 60.0625 41.71875 63.234375 
Q 38.140625 66.40625 31.78125 66.40625 
Q 25.390625 66.40625 21.84375 63.234375 
Q 18.3125 60.0625 18.3125 54.390625 
z
" id="DejaVuSans-56"/>
    </defs>
    <g style="fill:#0000ff;" transform="translate(1949.266193 428.521214)scale(0.175 -0.175)">
     <use xlink:href="#DejaVuSans-56"/>
    </g>
   </g>
   <g id="text_11">
    <!-- 9 -->
    <defs>
     <path d="M 10.984375 1.515625 
L 10.984375 10.5 
Q 14.703125 8.734375 18.5 7.8125 
Q 22.3125 6.890625 25.984375 6.890625 
Q 35.75 6.890625 40.890625 13.453125 
Q 46.046875 20.015625 46.78125 33.40625 
Q 43.953125 29.203125 39.59375 26.953125 
Q 35.25 24.703125 29.984375 24.703125 
Q 19.046875 24.703125 12.671875 31.3125 
Q 6.296875 37.9375 6.296875 49.421875 
Q 6.296875 60.640625 12.9375 67.421875 
Q 19.578125 74.21875 30.609375 74.21875 
Q 43.265625 74.21875 49.921875 64.515625 
Q 56.59375 54.828125 56.59375 36.375 
Q 56.59375 19.140625 48.40625 8.859375 
Q 40.234375 -1.421875 26.421875 -1.421875 
Q 22.703125 -1.421875 18.890625 -0.6875 
Q 15.09375 0.046875 10.984375 1.515625 
z
M 30.609375 32.421875 
Q 37.25 32.421875 41.125 36.953125 
Q 45.015625 41.5 45.015625 49.421875 
Q 45.015625 57.28125 41.125 61.84375 
Q 37.25 66.40625 30.609375 66.40625 
Q 23.96875 66.40625 20.09375 61.84375 
Q 16.21875 57.28125 16.21875 49.421875 
Q 16.21875 41.5 20.09375 36.953125 
Q 23.96875 32.421875 30.609375 32.421875 
z
" id="DejaVuSans-57"/>
    </defs>
    <g style="fill:#0000ff;" transform="translate(2125.729603 428.521214)scale(0.175 -0.175)">
     <use xlink:href="#DejaVuSans-57"/>
    </g>
   </g>
   <g id="text_12">
    <!-- 10 -->
    <g style="fill:#0000ff;" transform="translate(2286.721695 428.521214)scale(0.175 -0.175)">
     <use xlink:href="#DejaVuSans-49"/>
     <use x="63.623047" xlink:href="#DejaVuSans-48"/>
    </g>
   </g>
   <g id="text_13">
    <!-- 11 -->
    <g style="fill:#0000ff;" transform="translate(2443.932721 428.521214)scale(0.175 -0.175)">
     <use xlink:href="#DejaVuSans-49"/>
     <use x="63.623047" xlink:href="#DejaVuSans-49"/>
    </g>
   </g>
   <g id="text_14">
    <!-- 12 -->
    <g style="fill:#0000ff;" transform="translate(2592.32017 428.521214)scale(0.175 -0.175)">
     <use xlink:href="#DejaVuSans-49"/>
     <use x="63.623047" xlink:href="#DejaVuSans-50"/>
    </g>
   </g>
   <g id="patch_11">
    <path d="M 64.8 426 
C 72.756093 426 80.387396 422.839011 86.013203 417.213203 
C 91.639011 411.587396 94.8 403.956093 94.8 396 
C 94.8 388.043907 91.639011 380.412604 86.013203 374.786797 
C 80.387396 369.160989 72.756093 366 64.8 366 
C 56.843907 366 49.212604 369.160989 43.586797 374.786797 
C 37.960989 380.412604 34.8 388.043907 34.8 396 
C 34.8 403.956093 37.960989 411.587396 43.586797 417.213203 
C 49.212604 422.839011 56.843907 426 64.8 426 
z
" style="fill:#d9544c;stroke:#d9544c;stroke-linejoin:miter;"/>
   </g>
   <g id="patch_12">
    <path d="M 64.8 354 
C 72.756093 354 80.387396 350.839011 86.013203 345.213203 
C 91.639011 339.587396 94.8 331.956093 94.8 324 
C 94.8 316.043907 91.639011 308.412604 86.013203 302.786797 
C 80.387396 297.160989 72.756093 294 64.8 294 
C 56.843907 294 49.212604 297.160989 43.586797 302.786797 
C 37.960989 308.412604 34.8 316.043907 34.8 324 
C 34.8 331.956093 37.960989 339.587396 43.586797 345.213203 
C 49.212604 350.839011 56.843907 354 64.8 354 
z
" style="fill:#d9544c;stroke:#d9544c;stroke-linejoin:miter;"/>
   </g>
   <g id="patch_13">
    <path d="M 64.8 210 
C 72.756093 210 80.387396 206.839011 86.013203 201.213203 
C 91.639011 195.587396 94.8 187.956093 94.8 180 
C 94.8 172.043907 91.639011 164.412604 86.013203 158.786797 
C 80.387396 153.160989 72.756093 150 64.8 150 
C 56.843907 150 49.212604 153.160989 43.586797 158.786797 
C 37.960989 164.412604 34.8 172.043907 34.8 180 
C 34.8 187.956093 37.960989 195.587396 43.586797 201.213203 
C 49.212604 206.839011 56.843907 210 64.8 210 
z
" style="fill:#d9544c;stroke:#d9544c;stroke-linejoin:miter;"/>
   </g>
   <g id="patch_14">
    <path d="M 64.8 66 
C 72.756093 66 80.387396 62.839011 86.013203 57.213203 
C 91.639011 51.587396 94.8 43.956093 94.8 36 
C 94.8 28.043907 91.639011 20.412604 86.013203 14.786797 
C 80.387396 9.160989 72.756093 6 64.8 6 
C 56.843907 6 49.212604 9.160989 43.586797 14.786797 
C 37.960989 20.412604 34.8 28.043907 34.8 36 
C 34.8 43.956093 37.960989 51.587396 43.586797 57.213203 
C 49.212604 62.839011 56.843907 66 64.8 66 
z
" style="fill:#d9544c;stroke:#d9544c;stroke-linejoin:miter;"/>
   </g>
   <g id="patch_15">
    <path d="M 220.047281 138 
C 228.003374 138 235.634677 134.839011 241.260485 129.213203 
C 246.886292 123.587396 250.047281 115.956093 250.047281 108 
C 250.047281 100.043907 246.886292 92.412604 241.260485 86.786797 
C 235.634677 81.160989 228.003374 78 220.047281 78 
C 212.091188 78 204.459885 81.160989 198.834078 86.786797 
C 193.20827 92.412604 190.047281 100.043907 190.047281 108 
C 190.047281 115.956093 193.20827 123.587396 198.834078 129.213203 
C 204.459885 134.839011 212.091188 138 220.047281 138 
z
" style="fill:#d9544c;stroke:#d9544c;stroke-linejoin:miter;"/>
   </g>
   <g id="patch_16">
    <path d="M 493.876754 282 
C 501.832847 282 509.46415 278.839011 515.089957 273.213203 
C 520.715764 267.587396 523.876754 259.956093 523.876754 252 
C 523.876754 244.043907 520.715764 236.412604 515.089957 230.786797 
C 509.46415 225.160989 501.832847 222 493.876754 222 
C 485.920661 222 478.289358 225.160989 472.66355 230.786797 
C 467.037743 236.412604 463.876754 244.043907 463.876754 252 
C 463.876754 259.956093 467.037743 267.587396 472.66355 273.213203 
C 478.289358 278.839011 485.920661 282 493.876754 282 
z
" style="fill:#d9544c;stroke:#d9544c;stroke-linejoin:miter;"/>
   </g>
   <g id="patch_17">
    <path d="M 493.876754 210 
C 501.832847 210 509.46415 206.839011 515.089957 201.213203 
C 520.715764 195.587396 523.876754 187.956093 523.876754 180 
C 523.876754 172.043907 520.715764 164.412604 515.089957 158.786797 
C 509.46415 153.160989 501.832847 150 493.876754 150 
C 485.920661 150 478.289358 153.160989 472.66355 158.786797 
C 467.037743 164.412604 463.876754 172.043907 463.876754 180 
C 463.876754 187.956093 467.037743 195.587396 472.66355 201.213203 
C 478.289358 206.839011 485.920661 210 493.876754 210 
z
" style="fill:#d9544c;stroke:#d9544c;stroke-linejoin:miter;"/>
   </g>
   <g id="patch_18">
    <path d="M 752.337359 426 
C 760.293452 426 767.924755 422.839011 773.550562 417.213203 
C 779.176369 411.587396 782.337359 403.956093 782.337359 396 
C 782.337359 388.043907 779.176369 380.412604 773.550562 374.786797 
C 767.924755 369.160989 760.293452 366 752.337359 366 
C 744.381266 366 736.749963 369.160989 731.124155 374.786797 
C 725.498348 380.412604 722.337359 388.043907 722.337359 396 
C 722.337359 403.956093 725.498348 411.587396 731.124155 417.213203 
C 736.749963 422.839011 744.381266 426 752.337359 426 
z
" style="fill:#d9544c;stroke:#d9544c;stroke-linejoin:miter;"/>
   </g>
   <g id="patch_19">
    <path d="M 752.337359 354 
C 760.293452 354 767.924755 350.839011 773.550562 345.213203 
C 779.176369 339.587396 782.337359 331.956093 782.337359 324 
C 782.337359 316.043907 779.176369 308.412604 773.550562 302.786797 
C 767.924755 297.160989 760.293452 294 752.337359 294 
C 744.381266 294 736.749963 297.160989 731.124155 302.786797 
C 725.498348 308.412604 722.337359 316.043907 722.337359 324 
C 722.337359 331.956093 725.498348 339.587396 731.124155 345.213203 
C 736.749963 350.839011 744.381266 354 752.337359 354 
z
" style="fill:#d9544c;stroke:#d9544c;stroke-linejoin:miter;"/>
   </g>
   <g id="patch_20">
    <path d="M 752.337359 66 
C 760.293452 66 767.924755 62.839011 773.550562 57.213203 
C 779.176369 51.587396 782.337359 43.956093 782.337359 36 
C 782.337359 28.043907 779.176369 20.412604 773.550562 14.786797 
C 767.924755 9.160989 760.293452 6 752.337359 6 
C 744.381266 6 736.749963 9.160989 731.124155 14.786797 
C 725.498348 20.412604 722.337359 28.043907 722.337359 36 
C 722.337359 43.956093 725.498348 51.587396 731.124155 57.213203 
C 736.749963 62.839011 744.381266 66 752.337359 66 
z
" style="fill:#d9544c;stroke:#d9544c;stroke-linejoin:miter;"/>
   </g>
   <g id="patch_21">
    <path d="M 1226.553906 426 
C 1234.509999 426 1242.141302 422.839011 1247.76711 417.213203 
C 1253.392917 411.587396 1256.553906 403.956093 1256.553906 396 
C 1256.553906 388.043907 1253.392917 380.412604 1247.76711 374.786797 
C 1242.141302 369.160989 1234.509999 366 1226.553906 366 
C 1218.597813 366 1210.96651 369.160989 1205.340703 374.786797 
C 1199.714896 380.412604 1196.553906 388.043907 1196.553906 396 
C 1196.553906 403.956093 1199.714896 411.587396 1205.340703 417.213203 
C 1210.96651 422.839011 1218.597813 426 1226.553906 426 
z
" style="fill:#d9544c;stroke:#d9544c;stroke-linejoin:miter;"/>
   </g>
   <g id="patch_22">
    <path d="M 1226.553906 282 
C 1234.509999 282 1242.141302 278.839011 1247.76711 273.213203 
C 1253.392917 267.587396 1256.553906 259.956093 1256.553906 252 
C 1256.553906 244.043907 1253.392917 236.412604 1247.76711 230.786797 
C 1242.141302 225.160989 1234.509999 222 1226.553906 222 
C 1218.597813 222 1210.96651 225.160989 1205.340703 230.786797 
C 1199.714896 236.412604 1196.553906 244.043907 1196.553906 252 
C 1196.553906 259.956093 1199.714896 267.587396 1205.340703 273.213203 
C 1210.96651 278.839011 1218.597813 282 1226.553906 282 
z
" style="fill:#d9544c;stroke:#d9544c;stroke-linejoin:miter;"/>
   </g>
   <g id="patch_23">
    <path d="M 1226.553906 210 
C 1234.509999 210 1242.141302 206.839011 1247.76711 201.213203 
C 1253.392917 195.587396 1256.553906 187.956093 1256.553906 180 
C 1256.553906 172.043907 1253.392917 164.412604 1247.76711 158.786797 
C 1242.141302 153.160989 1234.509999 150 1226.553906 150 
C 1218.597813 150 1210.96651 153.160989 1205.340703 158.786797 
C 1199.714896 164.412604 1196.553906 172.043907 1196.553906 180 
C 1196.553906 187.956093 1199.714896 195.587396 1205.340703 201.213203 
C 1210.96651 206.839011 1218.597813 210 1226.553906 210 
z
" style="fill:#d9544c;stroke:#d9544c;stroke-linejoin:miter;"/>
   </g>
   <g id="patch_24">
    <path d="M 1226.553906 138 
C 1234.509999 138 1242.141302 134.839011 1247.76711 129.213203 
C 1253.392917 123.587396 1256.553906 115.956093 1256.553906 108 
C 1256.553906 100.043907 1253.392917 92.412604 1247.76711 86.786797 
C 1242.141302 81.160989 1234.509999 78 1226.553906 78 
C 1218.597813 78 1210.96651 81.160989 1205.340703 86.786797 
C 1199.714896 92.412604 1196.553906 100.043907 1196.553906 108 
C 1196.553906 115.956093 1199.714896 123.587396 1205.340703 129.213203 
C 1210.96651 134.839011 1218.597813 138 1226.553906 138 
z
" style="fill:#d9544c;stroke:#d9544c;stroke-linejoin:miter;"/>
   </g>
   <g id="patch_25">
    <path d="M 1226.553906 66 
C 1234.509999 66 1242.141302 62.839011 1247.76711 57.213203 
C 1253.392917 51.587396 1256.553906 43.956093 1256.553906 36 
C 1256.553906 28.043907 1253.392917 20.412604 1247.76711 14.786797 
C 1242.141302 9.160989 1234.509999 6 1226.553906 6 
C 1218.597813 6 1210.96651 9.160989 1205.340703 14.786797 
C 1199.714896 20.412604 1196.553906 28.043907 1196.553906 36 
C 1196.553906 43.956093 1199.714896 51.587396 1205.340703 57.213203 
C 1210.96651 62.839011 1218.597813 66 1226.553906 66 
z
" style="fill:#d9544c;stroke:#d9544c;stroke-linejoin:miter;"/>
   </g>
   <g id="patch_26">
    <path d="M 1649.032821 354 
C 1656.988914 354 1664.620217 350.839011 1670.246024 345.213203 
C 1675.871832 339.587396 1679.032821 331.956093 1679.032821 324 
C 1679.032821 316.043907 1675.871832 308.412604 1670.246024 302.786797 
C 1664.620217 297.160989 1656.988914 294 1649.032821 294 
C 1641.076728 294 1633.445425 297.160989 1627.819617 302.786797 
C 1622.19381 308.412604 1619.032821 316.043907 1619.032821 324 
C 1619.032821 331.956093 1622.19381 339.587396 1627.819617 345.213203 
C 1633.445425 350.839011 1641.076728 354 1649.032821 354 
z
" style="fill:#d9544c;stroke:#d9544c;stroke-linejoin:miter;"/>
   </g>
   <g id="patch_27">
    <path d="M 1649.032821 282 
C 1656.988914 282 1664.620217 278.839011 1670.246024 273.213203 
C 1675.871832 267.587396 1679.032821 259.956093 1679.032821 252 
C 1679.032821 244.043907 1675.871832 236.412604 1670.246024 230.786797 
C 1664.620217 225.160989 1656.988914 222 1649.032821 222 
C 1641.076728 222 1633.445425 225.160989 1627.819617 230.786797 
C 1622.19381 236.412604 1619.032821 244.043907 1619.032821 252 
C 1619.032821 259.956093 1622.19381 267.587396 1627.819617 273.213203 
C 1633.445425 278.839011 1641.076728 282 1649.032821 282 
z
" style="fill:#d9544c;stroke:#d9544c;stroke-linejoin:miter;"/>
   </g>
   <g id="patch_28">
    <path d="M 1842.659498 426 
C 1850.615591 426 1858.246894 422.839011 1863.872701 417.213203 
C 1869.498508 411.587396 1872.659498 403.956093 1872.659498 396 
C 1872.659498 388.043907 1869.498508 380.412604 1863.872701 374.786797 
C 1858.246894 369.160989 1850.615591 366 1842.659498 366 
C 1834.703405 366 1827.072102 369.160989 1821.446294 374.786797 
C 1815.820487 380.412604 1812.659498 388.043907 1812.659498 396 
C 1812.659498 403.956093 1815.820487 411.587396 1821.446294 417.213203 
C 1827.072102 422.839011 1834.703405 426 1842.659498 426 
z
" style="fill:#d9544c;stroke:#d9544c;stroke-linejoin:miter;"/>
   </g>
   <g id="patch_29">
    <path d="M 1842.659498 138 
C 1850.615591 138 1858.246894 134.839011 1863.872701 129.213203 
C 1869.498508 123.587396 1872.659498 115.956093 1872.659498 108 
C 1872.659498 100.043907 1869.498508 92.412604 1863.872701 86.786797 
C 1858.246894 81.160989 1850.615591 78 1842.659498 78 
C 1834.703405 78 1827.072102 81.160989 1821.446294 86.786797 
C 1815.820487 92.412604 1812.659498 100.043907 1812.659498 108 
C 1812.659498 115.956093 1815.820487 123.587396 1821.446294 129.213203 
C 1827.072102 134.839011 1834.703405 138 1842.659498 138 
z
" style="fill:#d9544c;stroke:#d9544c;stroke-linejoin:miter;"/>
   </g>
   <g id="patch_30">
    <path d="M 1842.659498 66 
C 1850.615591 66 1858.246894 62.839011 1863.872701 57.213203 
C 1869.498508 51.587396 1872.659498 43.956093 1872.659498 36 
C 1872.659498 28.043907 1869.498508 20.412604 1863.872701 14.786797 
C 1858.246894 9.160989 1850.615591 6 1842.659498 6 
C 1834.703405 6 1827.072102 9.160989 1821.446294 14.786797 
C 1815.820487 20.412604 1812.659498 28.043907 1812.659498 36 
C 1812.659498 43.956093 1815.820487 51.587396 1821.446294 57.213203 
C 1827.072102 62.839011 1834.703405 66 1842.659498 66 
z
" style="fill:#d9544c;stroke:#d9544c;stroke-linejoin:miter;"/>
   </g>
   <g id="patch_31">
    <path d="M 2025.418744 210 
C 2033.374837 210 2041.00614 206.839011 2046.631948 201.213203 
C 2052.257755 195.587396 2055.418744 187.956093 2055.418744 180 
C 2055.418744 172.043907 2052.257755 164.412604 2046.631948 158.786797 
C 2041.00614 153.160989 2033.374837 150 2025.418744 150 
C 2017.462651 150 2009.831348 153.160989 2004.205541 158.786797 
C 1998.579733 164.412604 1995.418744 172.043907 1995.418744 180 
C 1995.418744 187.956093 1998.579733 195.587396 2004.205541 201.213203 
C 2009.831348 206.839011 2017.462651 210 2025.418744 210 
z
" style="fill:#d9544c;stroke:#d9544c;stroke-linejoin:miter;"/>
   </g>
   <g id="patch_32">
    <path d="M 2197.920502 354 
C 2205.876595 354 2213.507898 350.839011 2219.133706 345.213203 
C 2224.759513 339.587396 2227.920502 331.956093 2227.920502 324 
C 2227.920502 316.043907 2224.759513 308.412604 2219.133706 302.786797 
C 2213.507898 297.160989 2205.876595 294 2197.920502 294 
C 2189.964409 294 2182.333106 297.160989 2176.707299 302.786797 
C 2171.081492 308.412604 2167.920502 316.043907 2167.920502 324 
C 2167.920502 331.956093 2171.081492 339.587396 2176.707299 345.213203 
C 2182.333106 350.839011 2189.964409 354 2197.920502 354 
z
" style="fill:#d9544c;stroke:#d9544c;stroke-linejoin:miter;"/>
   </g>
   <g id="patch_33">
    <path d="M 2197.920502 282 
C 2205.876595 282 2213.507898 278.839011 2219.133706 273.213203 
C 2224.759513 267.587396 2227.920502 259.956093 2227.920502 252 
C 2227.920502 244.043907 2224.759513 236.412604 2219.133706 230.786797 
C 2213.507898 225.160989 2205.876595 222 2197.920502 222 
C 2189.964409 222 2182.333106 225.160989 2176.707299 230.786797 
C 2171.081492 236.412604 2167.920502 244.043907 2167.920502 252 
C 2167.920502 259.956093 2171.081492 267.587396 2176.707299 273.213203 
C 2182.333106 278.839011 2189.964409 282 2197.920502 282 
z
" style="fill:#d9544c;stroke:#d9544c;stroke-linejoin:miter;"/>
   </g>
   <g id="patch_34">
    <path d="M 2197.920502 138 
C 2205.876595 138 2213.507898 134.839011 2219.133706 129.213203 
C 2224.759513 123.587396 2227.920502 115.956093 2227.920502 108 
C 2227.920502 100.043907 2224.759513 92.412604 2219.133706 86.786797 
C 2213.507898 81.160989 2205.876595 78 2197.920502 78 
C 2189.964409 78 2182.333106 81.160989 2176.707299 86.786797 
C 2171.081492 92.412604 2167.920502 100.043907 2167.920502 108 
C 2167.920502 115.956093 2171.081492 123.587396 2176.707299 129.213203 
C 2182.333106 134.839011 2189.964409 138 2197.920502 138 
z
" style="fill:#d9544c;stroke:#d9544c;stroke-linejoin:miter;"/>
   </g>
   <g id="patch_35">
    <path d="M 2514.422076 426 
C 2522.378169 426 2530.009472 422.839011 2535.635279 417.213203 
C 2541.261087 411.587396 2544.422076 403.956093 2544.422076 396 
C 2544.422076 388.043907 2541.261087 380.412604 2535.635279 374.786797 
C 2530.009472 369.160989 2522.378169 366 2514.422076 366 
C 2506.465983 366 2498.83468 369.160989 2493.208873 374.786797 
C 2487.583065 380.412604 2484.422076 388.043907 2484.422076 396 
C 2484.422076 403.956093 2487.583065 411.587396 2493.208873 417.213203 
C 2498.83468 422.839011 2506.465983 426 2514.422076 426 
z
" style="fill:#d9544c;stroke:#d9544c;stroke-linejoin:miter;"/>
   </g>
   <g id="patch_36">
    <path d="M 2514.422076 354 
C 2522.378169 354 2530.009472 350.839011 2535.635279 345.213203 
C 2541.261087 339.587396 2544.422076 331.956093 2544.422076 324 
C 2544.422076 316.043907 2541.261087 308.412604 2535.635279 302.786797 
C 2530.009472 297.160989 2522.378169 294 2514.422076 294 
C 2506.465983 294 2498.83468 297.160989 2493.208873 302.786797 
C 2487.583065 308.412604 2484.422076 316.043907 2484.422076 324 
C 2484.422076 331.956093 2487.583065 339.587396 2493.208873 345.213203 
C 2498.83468 350.839011 2506.465983 354 2514.422076 354 
z
" style="fill:#d9544c;stroke:#d9544c;stroke-linejoin:miter;"/>
   </g>
   <g id="patch_37">
    <path d="M 2514.422076 210 
C 2522.378169 210 2530.009472 206.839011 2535.635279 201.213203 
C 2541.261087 195.587396 2544.422076 187.956093 2544.422076 180 
C 2544.422076 172.043907 2541.261087 164.412604 2535.635279 158.786797 
C 2530.009472 153.160989 2522.378169 150 2514.422076 150 
C 2506.465983 150 2498.83468 153.160989 2493.208873 158.786797 
C 2487.583065 164.412604 2484.422076 172.043907 2484.422076 180 
C 2484.422076 187.956093 2487.583065 195.587396 2493.208873 201.213203 
C 2498.83468 206.839011 2506.465983 210 2514.422076 210 
z
" style="fill:#d9544c;stroke:#d9544c;stroke-linejoin:miter;"/>
   </g>
   <g id="patch_38">
    <path d="M 2514.422076 66 
C 2522.378169 66 2530.009472 62.839011 2535.635279 57.213203 
C 2541.261087 51.587396 2544.422076 43.956093 2544.422076 36 
C 2544.422076 28.043907 2541.261087 20.412604 2535.635279 14.786797 
C 2530.009472 9.160989 2522.378169 6 2514.422076 6 
C 2506.465983 6 2498.83468 9.160989 2493.208873 14.786797 
C 2487.583065 20.412604 2484.422076 28.043907 2484.422076 36 
C 2484.422076 43.956093 2487.583065 51.587396 2493.208873 57.213203 
C 2498.83468 62.839011 2506.465983 66 2514.422076 66 
z
" style="fill:#d9544c;stroke:#d9544c;stroke-linejoin:miter;"/>
   </g>
   <g id="text_15">
    <!-- E1(5) -->
    <defs>
     <path d="M 9.8125 72.90625 
L 55.90625 72.90625 
L 55.90625 64.59375 
L 19.671875 64.59375 
L 19.671875 43.015625 
L 54.390625 43.015625 
L 54.390625 34.71875 
L 19.671875 34.71875 
L 19.671875 8.296875 
L 56.78125 8.296875 
L 56.78125 0 
L 9.8125 0 
z
" id="DejaVuSans-69"/>
     <path d="M 31 75.875 
Q 24.46875 64.65625 21.28125 53.65625 
Q 18.109375 42.671875 18.109375 31.390625 
Q 18.109375 20.125 21.3125 9.0625 
Q 24.515625 -2 31 -13.1875 
L 23.1875 -13.1875 
Q 15.875 -1.703125 12.234375 9.375 
Q 8.59375 20.453125 8.59375 31.390625 
Q 8.59375 42.28125 12.203125 53.3125 
Q 15.828125 64.359375 23.1875 75.875 
z
" id="DejaVuSans-40"/>
     <path d="M 8.015625 75.875 
L 15.828125 75.875 
Q 23.140625 64.359375 26.78125 53.3125 
Q 30.421875 42.28125 30.421875 31.390625 
Q 30.421875 20.453125 26.78125 9.375 
Q 23.140625 -1.703125 15.828125 -13.1875 
L 8.015625 -13.1875 
Q 14.5 -2 17.703125 9.0625 
Q 20.90625 20.125 20.90625 31.390625 
Q 20.90625 42.671875 17.703125 53.65625 
Q 14.5 64.65625 8.015625 75.875 
z
" id="DejaVuSans-41"/>
    </defs>
    <g style="fill:#ffffff;" transform="translate(46.902083 399.679167)scale(0.133333 -0.133333)">
     <use xlink:href="#DejaVuSans-69"/>
     <use x="63.183594" xlink:href="#DejaVuSans-49"/>
     <use x="126.806641" xlink:href="#DejaVuSans-40"/>
     <use x="165.820312" xlink:href="#DejaVuSans-53"/>
     <use x="229.443359" xlink:href="#DejaVuSans-41"/>
    </g>
   </g>
   <g id="text_16">
    <!-- A1(R) -->
    <defs>
     <path d="M 34.1875 63.1875 
L 20.796875 26.90625 
L 47.609375 26.90625 
z
M 28.609375 72.90625 
L 39.796875 72.90625 
L 67.578125 0 
L 57.328125 0 
L 50.6875 18.703125 
L 17.828125 18.703125 
L 11.1875 0 
L 0.78125 0 
z
" id="DejaVuSans-65"/>
     <path d="M 44.390625 34.1875 
Q 47.5625 33.109375 50.5625 29.59375 
Q 53.5625 26.078125 56.59375 19.921875 
L 66.609375 0 
L 56 0 
L 46.6875 18.703125 
Q 43.0625 26.03125 39.671875 28.421875 
Q 36.28125 30.8125 30.421875 30.8125 
L 19.671875 30.8125 
L 19.671875 0 
L 9.8125 0 
L 9.8125 72.90625 
L 32.078125 72.90625 
Q 44.578125 72.90625 50.734375 67.671875 
Q 56.890625 62.453125 56.890625 51.90625 
Q 56.890625 45.015625 53.6875 40.46875 
Q 50.484375 35.9375 44.390625 34.1875 
z
M 19.671875 64.796875 
L 19.671875 38.921875 
L 32.078125 38.921875 
Q 39.203125 38.921875 42.84375 42.21875 
Q 46.484375 45.515625 46.484375 51.90625 
Q 46.484375 58.296875 42.84375 61.546875 
Q 39.203125 64.796875 32.078125 64.796875 
z
" id="DejaVuSans-82"/>
    </defs>
    <g style="fill:#ffffff;" transform="translate(46.163542 327.679167)scale(0.133333 -0.133333)">
     <use xlink:href="#DejaVuSans-65"/>
     <use x="68.408203" xlink:href="#DejaVuSans-49"/>
     <use x="132.03125" xlink:href="#DejaVuSans-40"/>
     <use x="171.044922" xlink:href="#DejaVuSans-82"/>
     <use x="240.527344" xlink:href="#DejaVuSans-41"/>
    </g>
   </g>
   <g id="text_17">
    <!-- G2(7) -->
    <defs>
     <path d="M 59.515625 10.40625 
L 59.515625 29.984375 
L 43.40625 29.984375 
L 43.40625 38.09375 
L 69.28125 38.09375 
L 69.28125 6.78125 
Q 63.578125 2.734375 56.6875 0.65625 
Q 49.8125 -1.421875 42 -1.421875 
Q 24.90625 -1.421875 15.25 8.5625 
Q 5.609375 18.5625 5.609375 36.375 
Q 5.609375 54.25 15.25 64.234375 
Q 24.90625 74.21875 42 74.21875 
Q 49.125 74.21875 55.546875 72.453125 
Q 61.96875 70.703125 67.390625 67.28125 
L 67.390625 56.78125 
Q 61.921875 61.421875 55.765625 63.765625 
Q 49.609375 66.109375 42.828125 66.109375 
Q 29.4375 66.109375 22.71875 58.640625 
Q 16.015625 51.171875 16.015625 36.375 
Q 16.015625 21.625 22.71875 14.15625 
Q 29.4375 6.6875 42.828125 6.6875 
Q 48.046875 6.6875 52.140625 7.59375 
Q 56.25 8.5 59.515625 10.40625 
z
" id="DejaVuSans-71"/>
    </defs>
    <g style="fill:#ffffff;" transform="translate(45.948958 183.679167)scale(0.133333 -0.133333)">
     <use xlink:href="#DejaVuSans-71"/>
     <use x="77.490234" xlink:href="#DejaVuSans-50"/>
     <use x="141.113281" xlink:href="#DejaVuSans-40"/>
     <use x="180.126953" xlink:href="#DejaVuSans-55"/>
     <use x="243.75" xlink:href="#DejaVuSans-41"/>
    </g>
   </g>
   <g id="text_18">
    <!-- E3(5) -->
    <g style="fill:#ffffff;" transform="translate(46.902083 39.679167)scale(0.133333 -0.133333)">
     <use xlink:href="#DejaVuSans-69"/>
     <use x="63.183594" xlink:href="#DejaVuSans-51"/>
     <use x="126.806641" xlink:href="#DejaVuSans-40"/>
     <use x="165.820312" xlink:href="#DejaVuSans-53"/>
     <use x="229.443359" xlink:href="#DejaVuSans-41"/>
    </g>
   </g>
   <g id="text_19">
    <!-- C3(3) -->
    <defs>
     <path d="M 64.40625 67.28125 
L 64.40625 56.890625 
Q 59.421875 61.53125 53.78125 63.8125 
Q 48.140625 66.109375 41.796875 66.109375 
Q 29.296875 66.109375 22.65625 58.46875 
Q 16.015625 50.828125 16.015625 36.375 
Q 16.015625 21.96875 22.65625 14.328125 
Q 29.296875 6.6875 41.796875 6.6875 
Q 48.140625 6.6875 53.78125 8.984375 
Q 59.421875 11.28125 64.40625 15.921875 
L 64.40625 5.609375 
Q 59.234375 2.09375 53.4375 0.328125 
Q 47.65625 -1.421875 41.21875 -1.421875 
Q 24.65625 -1.421875 15.125 8.703125 
Q 5.609375 18.84375 5.609375 36.375 
Q 5.609375 53.953125 15.125 64.078125 
Q 24.65625 74.21875 41.21875 74.21875 
Q 47.75 74.21875 53.53125 72.484375 
Q 59.328125 70.75 64.40625 67.28125 
z
" id="DejaVuSans-67"/>
    </defs>
    <g style="fill:#ffffff;" transform="translate(201.706656 111.679167)scale(0.133333 -0.133333)">
     <use xlink:href="#DejaVuSans-67"/>
     <use x="69.824219" xlink:href="#DejaVuSans-51"/>
     <use x="133.447266" xlink:href="#DejaVuSans-40"/>
     <use x="172.460938" xlink:href="#DejaVuSans-51"/>
     <use x="236.083984" xlink:href="#DejaVuSans-41"/>
    </g>
   </g>
   <g id="text_20">
    <!-- E2(5) -->
    <g style="fill:#ffffff;" transform="translate(475.978837 255.679167)scale(0.133333 -0.133333)">
     <use xlink:href="#DejaVuSans-69"/>
     <use x="63.183594" xlink:href="#DejaVuSans-50"/>
     <use x="126.806641" xlink:href="#DejaVuSans-40"/>
     <use x="165.820312" xlink:href="#DejaVuSans-53"/>
     <use x="229.443359" xlink:href="#DejaVuSans-41"/>
    </g>
   </g>
   <g id="text_21">
    <!-- A2(R) -->
    <g style="fill:#ffffff;" transform="translate(475.240295 183.679167)scale(0.133333 -0.133333)">
     <use xlink:href="#DejaVuSans-65"/>
     <use x="68.408203" xlink:href="#DejaVuSans-50"/>
     <use x="132.03125" xlink:href="#DejaVuSans-40"/>
     <use x="171.044922" xlink:href="#DejaVuSans-82"/>
     <use x="240.527344" xlink:href="#DejaVuSans-41"/>
    </g>
   </g>
   <g id="text_22">
    <!-- G1(7) -->
    <g style="fill:#ffffff;" transform="translate(733.486317 399.679167)scale(0.133333 -0.133333)">
     <use xlink:href="#DejaVuSans-71"/>
     <use x="77.490234" xlink:href="#DejaVuSans-49"/>
     <use x="141.113281" xlink:href="#DejaVuSans-40"/>
     <use x="180.126953" xlink:href="#DejaVuSans-55"/>
     <use x="243.75" xlink:href="#DejaVuSans-41"/>
    </g>
   </g>
   <g id="text_23">
    <!-- C2(3) -->
    <g style="fill:#ffffff;" transform="translate(733.996734 327.679167)scale(0.133333 -0.133333)">
     <use xlink:href="#DejaVuSans-67"/>
     <use x="69.824219" xlink:href="#DejaVuSans-50"/>
     <use x="133.447266" xlink:href="#DejaVuSans-40"/>
     <use x="172.460938" xlink:href="#DejaVuSans-51"/>
     <use x="236.083984" xlink:href="#DejaVuSans-41"/>
    </g>
   </g>
   <g id="text_24">
    <!-- G3(7) -->
    <g style="fill:#ffffff;" transform="translate(733.486317 39.679167)scale(0.133333 -0.133333)">
     <use xlink:href="#DejaVuSans-71"/>
     <use x="77.490234" xlink:href="#DejaVuSans-51"/>
     <use x="141.113281" xlink:href="#DejaVuSans-40"/>
     <use x="180.126953" xlink:href="#DejaVuSans-55"/>
     <use x="243.75" xlink:href="#DejaVuSans-41"/>
    </g>
   </g>
   <g id="text_25">
    <!-- A1(R) -->
    <g style="fill:#ffffff;" transform="translate(1207.917448 399.679167)scale(0.133333 -0.133333)">
     <use xlink:href="#DejaVuSans-65"/>
     <use x="68.408203" xlink:href="#DejaVuSans-49"/>
     <use x="132.03125" xlink:href="#DejaVuSans-40"/>
     <use x="171.044922" xlink:href="#DejaVuSans-82"/>
     <use x="240.527344" xlink:href="#DejaVuSans-41"/>
    </g>
   </g>
   <g id="text_26">
    <!-- G2(7) -->
    <g style="fill:#ffffff;" transform="translate(1207.702865 255.679167)scale(0.133333 -0.133333)">
     <use xlink:href="#DejaVuSans-71"/>
     <use x="77.490234" xlink:href="#DejaVuSans-50"/>
     <use x="141.113281" xlink:href="#DejaVuSans-40"/>
     <use x="180.126953" xlink:href="#DejaVuSans-55"/>
     <use x="243.75" xlink:href="#DejaVuSans-41"/>
    </g>
   </g>
   <g id="text_27">
    <!-- C3(3) -->
    <g style="fill:#ffffff;" transform="translate(1208.213281 183.679167)scale(0.133333 -0.133333)">
     <use xlink:href="#DejaVuSans-67"/>
     <use x="69.824219" xlink:href="#DejaVuSans-51"/>
     <use x="133.447266" xlink:href="#DejaVuSans-40"/>
     <use x="172.460938" xlink:href="#DejaVuSans-51"/>
     <use x="236.083984" xlink:href="#DejaVuSans-41"/>
    </g>
   </g>
   <g id="text_28">
    <!-- E3(5) -->
    <g style="fill:#ffffff;" transform="translate(1208.65599 111.679167)scale(0.133333 -0.133333)">
     <use xlink:href="#DejaVuSans-69"/>
     <use x="63.183594" xlink:href="#DejaVuSans-51"/>
     <use x="126.806641" xlink:href="#DejaVuSans-40"/>
     <use x="165.820312" xlink:href="#DejaVuSans-53"/>
     <use x="229.443359" xlink:href="#DejaVuSans-41"/>
    </g>
   </g>
   <g id="text_29">
    <!-- A3(R) -->
    <g style="fill:#ffffff;" transform="translate(1207.917448 39.679167)scale(0.133333 -0.133333)">
     <use xlink:href="#DejaVuSans-65"/>
     <use x="68.408203" xlink:href="#DejaVuSans-51"/>
     <use x="132.03125" xlink:href="#DejaVuSans-40"/>
     <use x="171.044922" xlink:href="#DejaVuSans-82"/>
     <use x="240.527344" xlink:href="#DejaVuSans-41"/>
    </g>
   </g>
   <g id="text_30">
    <!-- E2(5) -->
    <g style="fill:#ffffff;" transform="translate(1631.134904 327.679167)scale(0.133333 -0.133333)">
     <use xlink:href="#DejaVuSans-69"/>
     <use x="63.183594" xlink:href="#DejaVuSans-50"/>
     <use x="126.806641" xlink:href="#DejaVuSans-40"/>
     <use x="165.820312" xlink:href="#DejaVuSans-53"/>
     <use x="229.443359" xlink:href="#DejaVuSans-41"/>
    </g>
   </g>
   <g id="text_31">
    <!-- A2(R) -->
    <g style="fill:#ffffff;" transform="translate(1630.396362 255.679167)scale(0.133333 -0.133333)">
     <use xlink:href="#DejaVuSans-65"/>
     <use x="68.408203" xlink:href="#DejaVuSans-50"/>
     <use x="132.03125" xlink:href="#DejaVuSans-40"/>
     <use x="171.044922" xlink:href="#DejaVuSans-82"/>
     <use x="240.527344" xlink:href="#DejaVuSans-41"/>
    </g>
   </g>
   <g id="text_32">
    <!-- C2(3) -->
    <g style="fill:#ffffff;" transform="translate(1824.318873 399.679167)scale(0.133333 -0.133333)">
     <use xlink:href="#DejaVuSans-67"/>
     <use x="69.824219" xlink:href="#DejaVuSans-50"/>
     <use x="133.447266" xlink:href="#DejaVuSans-40"/>
     <use x="172.460938" xlink:href="#DejaVuSans-51"/>
     <use x="236.083984" xlink:href="#DejaVuSans-41"/>
    </g>
   </g>
   <g id="text_33">
    <!-- G3(7) -->
    <g style="fill:#ffffff;" transform="translate(1823.808456 111.679167)scale(0.133333 -0.133333)">
     <use xlink:href="#DejaVuSans-71"/>
     <use x="77.490234" xlink:href="#DejaVuSans-51"/>
     <use x="141.113281" xlink:href="#DejaVuSans-40"/>
     <use x="180.126953" xlink:href="#DejaVuSans-55"/>
     <use x="243.75" xlink:href="#DejaVuSans-41"/>
    </g>
   </g>
   <g id="text_34">
    <!-- C4(3) -->
    <g style="fill:#ffffff;" transform="translate(1824.318873 39.679167)scale(0.133333 -0.133333)">
     <use xlink:href="#DejaVuSans-67"/>
     <use x="69.824219" xlink:href="#DejaVuSans-52"/>
     <use x="133.447266" xlink:href="#DejaVuSans-40"/>
     <use x="172.460938" xlink:href="#DejaVuSans-51"/>
     <use x="236.083984" xlink:href="#DejaVuSans-41"/>
    </g>
   </g>
   <g id="text_35">
    <!-- E3(5) -->
    <g style="fill:#ffffff;" transform="translate(2007.520827 183.679167)scale(0.133333 -0.133333)">
     <use xlink:href="#DejaVuSans-69"/>
     <use x="63.183594" xlink:href="#DejaVuSans-51"/>
     <use x="126.806641" xlink:href="#DejaVuSans-40"/>
     <use x="165.820312" xlink:href="#DejaVuSans-53"/>
     <use x="229.443359" xlink:href="#DejaVuSans-41"/>
    </g>
   </g>
   <g id="text_36">
    <!-- G2(7) -->
    <g style="fill:#ffffff;" transform="translate(2179.069461 327.679167)scale(0.133333 -0.133333)">
     <use xlink:href="#DejaVuSans-71"/>
     <use x="77.490234" xlink:href="#DejaVuSans-50"/>
     <use x="141.113281" xlink:href="#DejaVuSans-40"/>
     <use x="180.126953" xlink:href="#DejaVuSans-55"/>
     <use x="243.75" xlink:href="#DejaVuSans-41"/>
    </g>
   </g>
   <g id="text_37">
    <!-- C3(3) -->
    <g style="fill:#ffffff;" transform="translate(2179.579877 255.679167)scale(0.133333 -0.133333)">
     <use xlink:href="#DejaVuSans-67"/>
     <use x="69.824219" xlink:href="#DejaVuSans-51"/>
     <use x="133.447266" xlink:href="#DejaVuSans-40"/>
     <use x="172.460938" xlink:href="#DejaVuSans-51"/>
     <use x="236.083984" xlink:href="#DejaVuSans-41"/>
    </g>
   </g>
   <g id="text_38">
    <!-- A3(R) -->
    <g style="fill:#ffffff;" transform="translate(2179.284044 111.679167)scale(0.133333 -0.133333)">
     <use xlink:href="#DejaVuSans-65"/>
     <use x="68.408203" xlink:href="#DejaVuSans-51"/>
     <use x="132.03125" xlink:href="#DejaVuSans-40"/>
     <use x="171.044922" xlink:href="#DejaVuSans-82"/>
     <use x="240.527344" xlink:href="#DejaVuSans-41"/>
    </g>
   </g>
   <g id="text_39">
    <!-- E2(5) -->
    <g style="fill:#ffffff;" transform="translate(2496.524159 399.679167)scale(0.133333 -0.133333)">
     <use xlink:href="#DejaVuSans-69"/>
     <use x="63.183594" xlink:href="#DejaVuSans-50"/>
     <use x="126.806641" xlink:href="#DejaVuSans-40"/>
     <use x="165.820312" xlink:href="#DejaVuSans-53"/>
     <use x="229.443359" xlink:href="#DejaVuSans-41"/>
    </g>
   </g>
   <g id="text_40">
    <!-- A2(R) -->
    <g style="fill:#ffffff;" transform="translate(2495.785618 327.679167)scale(0.133333 -0.133333)">
     <use xlink:href="#DejaVuSans-65"/>
     <use x="68.408203" xlink:href="#DejaVuSans-50"/>
     <use x="132.03125" xlink:href="#DejaVuSans-40"/>
     <use x="171.044922" xlink:href="#DejaVuSans-82"/>
     <use x="240.527344" xlink:href="#DejaVuSans-41"/>
    </g>
   </g>
   <g id="text_41">
    <!-- G3(7) -->
    <g style="fill:#ffffff;" transform="translate(2495.571034 183.679167)scale(0.133333 -0.133333)">
     <use xlink:href="#DejaVuSans-71"/>
     <use x="77.490234" xlink:href="#DejaVuSans-51"/>
     <use x="141.113281" xlink:href="#DejaVuSans-40"/>
     <use x="180.126953" xlink:href="#DejaVuSans-55"/>
     <use x="243.75" xlink:href="#DejaVuSans-41"/>
    </g>
   </g>
   <g id="text_42">
    <!-- E4(5) -->
    <g style="fill:#ffffff;" transform="translate(2496.524159 39.679167)scale(0.133333 -0.133333)">
     <use xlink:href="#DejaVuSans-69"/>
     <use x="63.183594" xlink:href="#DejaVuSans-52"/>
     <use x="126.806641" xlink:href="#DejaVuSans-40"/>
     <use x="165.820312" xlink:href="#DejaVuSans-53"/>
     <use x="229.443359" xlink:href="#DejaVuSans-41"/>
    </g>
   </g>
   <g id="patch_39">
    <path d="M 276.070922 282 
C 284.027015 282 291.658318 278.839011 297.284125 273.213203 
C 302.909933 267.587396 306.070922 259.956093 306.070922 252 
C 306.070922 244.043907 302.909933 236.412604 297.284125 230.786797 
C 291.658318 225.160989 284.027015 222 276.070922 222 
C 268.114829 222 260.483526 225.160989 254.857718 230.786797 
C 249.231911 236.412604 246.070922 244.043907 246.070922 252 
C 246.070922 259.956093 249.231911 267.587396 254.857718 273.213203 
C 260.483526 278.839011 268.114829 282 276.070922 282 
z
" style="fill:#d9944c;stroke:#d9944c;stroke-linejoin:miter;"/>
   </g>
   <g id="patch_40">
    <path d="M 276.070922 210 
C 284.027015 210 291.658318 206.839011 297.284125 201.213203 
C 302.909933 195.587396 306.070922 187.956093 306.070922 180 
C 306.070922 172.043907 302.909933 164.412604 297.284125 158.786797 
C 291.658318 153.160989 284.027015 150 276.070922 150 
C 268.114829 150 260.483526 153.160989 254.857718 158.786797 
C 249.231911 164.412604 246.070922 172.043907 246.070922 180 
C 246.070922 187.956093 249.231911 195.587396 254.857718 201.213203 
C 260.483526 206.839011 268.114829 210 276.070922 210 
z
" style="fill:#d9944c;stroke:#d9944c;stroke-linejoin:miter;"/>
   </g>
   <g id="patch_41">
    <path d="M 276.070922 138 
C 284.027015 138 291.658318 134.839011 297.284125 129.213203 
C 302.909933 123.587396 306.070922 115.956093 306.070922 108 
C 306.070922 100.043907 302.909933 92.412604 297.284125 86.786797 
C 291.658318 81.160989 284.027015 78 276.070922 78 
C 268.114829 78 260.483526 81.160989 254.857718 86.786797 
C 249.231911 92.412604 246.070922 100.043907 246.070922 108 
C 246.070922 115.956093 249.231911 123.587396 254.857718 129.213203 
C 260.483526 134.839011 268.114829 138 276.070922 138 
z
" style="fill:#d9944c;stroke:#d9944c;stroke-linejoin:miter;"/>
   </g>
   <g id="patch_42">
    <path d="M 546.756029 426 
C 554.712122 426 562.343425 422.839011 567.969232 417.213203 
C 573.59504 411.587396 576.756029 403.956093 576.756029 396 
C 576.756029 388.043907 573.59504 380.412604 567.969232 374.786797 
C 562.343425 369.160989 554.712122 366 546.756029 366 
C 538.799936 366 531.168633 369.160989 525.542825 374.786797 
C 519.917018 380.412604 516.756029 388.043907 516.756029 396 
C 516.756029 403.956093 519.917018 411.587396 525.542825 417.213203 
C 531.168633 422.839011 538.799936 426 546.756029 426 
z
" style="fill:#d9944c;stroke:#d9944c;stroke-linejoin:miter;"/>
   </g>
   <g id="patch_43">
    <path d="M 546.756029 66 
C 554.712122 66 562.343425 62.839011 567.969232 57.213203 
C 573.59504 51.587396 576.756029 43.956093 576.756029 36 
C 576.756029 28.043907 573.59504 20.412604 567.969232 14.786797 
C 562.343425 9.160989 554.712122 6 546.756029 6 
C 538.799936 6 531.168633 9.160989 525.542825 14.786797 
C 519.917018 20.412604 516.756029 28.043907 516.756029 36 
C 516.756029 43.956093 519.917018 51.587396 525.542825 57.213203 
C 531.168633 62.839011 538.799936 66 546.756029 66 
z
" style="fill:#d9944c;stroke:#d9944c;stroke-linejoin:miter;"/>
   </g>
   <g id="patch_44">
    <path d="M 802.248748 354 
C 810.204841 354 817.836144 350.839011 823.461952 345.213203 
C 829.087759 339.587396 832.248748 331.956093 832.248748 324 
C 832.248748 316.043907 829.087759 308.412604 823.461952 302.786797 
C 817.836144 297.160989 810.204841 294 802.248748 294 
C 794.292655 294 786.661352 297.160989 781.035545 302.786797 
C 775.409738 308.412604 772.248748 316.043907 772.248748 324 
C 772.248748 331.956093 775.409738 339.587396 781.035545 345.213203 
C 786.661352 350.839011 794.292655 354 802.248748 354 
z
" style="fill:#d9944c;stroke:#d9944c;stroke-linejoin:miter;"/>
   </g>
   <g id="patch_45">
    <path d="M 1043.401763 426 
C 1051.357856 426 1058.989159 422.839011 1064.614967 417.213203 
C 1070.240774 411.587396 1073.401763 403.956093 1073.401763 396 
C 1073.401763 388.043907 1070.240774 380.412604 1064.614967 374.786797 
C 1058.989159 369.160989 1051.357856 366 1043.401763 366 
C 1035.44567 366 1027.814367 369.160989 1022.18856 374.786797 
C 1016.562752 380.412604 1013.401763 388.043907 1013.401763 396 
C 1013.401763 403.956093 1016.562752 411.587396 1022.18856 417.213203 
C 1027.814367 422.839011 1035.44567 426 1043.401763 426 
z
" style="fill:#d9944c;stroke:#d9944c;stroke-linejoin:miter;"/>
   </g>
   <g id="patch_46">
    <path d="M 1043.401763 282 
C 1051.357856 282 1058.989159 278.839011 1064.614967 273.213203 
C 1070.240774 267.587396 1073.401763 259.956093 1073.401763 252 
C 1073.401763 244.043907 1070.240774 236.412604 1064.614967 230.786797 
C 1058.989159 225.160989 1051.357856 222 1043.401763 222 
C 1035.44567 222 1027.814367 225.160989 1022.18856 230.786797 
C 1016.562752 236.412604 1013.401763 244.043907 1013.401763 252 
C 1013.401763 259.956093 1016.562752 267.587396 1022.18856 273.213203 
C 1027.814367 278.839011 1035.44567 282 1043.401763 282 
z
" style="fill:#d9944c;stroke:#d9944c;stroke-linejoin:miter;"/>
   </g>
   <g id="patch_47">
    <path d="M 1043.401763 138 
C 1051.357856 138 1058.989159 134.839011 1064.614967 129.213203 
C 1070.240774 123.587396 1073.401763 115.956093 1073.401763 108 
C 1073.401763 100.043907 1070.240774 92.412604 1064.614967 86.786797 
C 1058.989159 81.160989 1051.357856 78 1043.401763 78 
C 1035.44567 78 1027.814367 81.160989 1022.18856 86.786797 
C 1016.562752 92.412604 1013.401763 100.043907 1013.401763 108 
C 1013.401763 115.956093 1016.562752 123.587396 1022.18856 129.213203 
C 1027.814367 134.839011 1035.44567 138 1043.401763 138 
z
" style="fill:#d9944c;stroke:#d9944c;stroke-linejoin:miter;"/>
   </g>
   <g id="patch_48">
    <path d="M 1043.401763 66 
C 1051.357856 66 1058.989159 62.839011 1064.614967 57.213203 
C 1070.240774 51.587396 1073.401763 43.956093 1073.401763 36 
C 1073.401763 28.043907 1070.240774 20.412604 1064.614967 14.786797 
C 1058.989159 9.160989 1051.357856 6 1043.401763 6 
C 1035.44567 6 1027.814367 9.160989 1022.18856 14.786797 
C 1016.562752 20.412604 1013.401763 28.043907 1013.401763 36 
C 1013.401763 43.956093 1016.562752 51.587396 1022.18856 57.213203 
C 1027.814367 62.839011 1035.44567 66 1043.401763 66 
z
" style="fill:#d9944c;stroke:#d9944c;stroke-linejoin:miter;"/>
   </g>
   <g id="patch_49">
    <path d="M 1271.019899 210 
C 1278.975992 210 1286.607296 206.839011 1292.233103 201.213203 
C 1297.85891 195.587396 1301.019899 187.956093 1301.019899 180 
C 1301.019899 172.043907 1297.85891 164.412604 1292.233103 158.786797 
C 1286.607296 153.160989 1278.975992 150 1271.019899 150 
C 1263.063806 150 1255.432503 153.160989 1249.806696 158.786797 
C 1244.180889 164.412604 1241.019899 172.043907 1241.019899 180 
C 1241.019899 187.956093 1244.180889 195.587396 1249.806696 201.213203 
C 1255.432503 206.839011 1263.063806 210 1271.019899 210 
z
" style="fill:#d9944c;stroke:#d9944c;stroke-linejoin:miter;"/>
   </g>
   <g id="patch_50">
    <path d="M 1485.862811 354 
C 1493.818904 354 1501.450207 350.839011 1507.076015 345.213203 
C 1512.701822 339.587396 1515.862811 331.956093 1515.862811 324 
C 1515.862811 316.043907 1512.701822 308.412604 1507.076015 302.786797 
C 1501.450207 297.160989 1493.818904 294 1485.862811 294 
C 1477.906718 294 1470.275415 297.160989 1464.649608 302.786797 
C 1459.0238 308.412604 1455.862811 316.043907 1455.862811 324 
C 1455.862811 331.956093 1459.0238 339.587396 1464.649608 345.213203 
C 1470.275415 350.839011 1477.906718 354 1485.862811 354 
z
" style="fill:#d9944c;stroke:#d9944c;stroke-linejoin:miter;"/>
   </g>
   <g id="patch_51">
    <path d="M 1485.862811 282 
C 1493.818904 282 1501.450207 278.839011 1507.076015 273.213203 
C 1512.701822 267.587396 1515.862811 259.956093 1515.862811 252 
C 1515.862811 244.043907 1512.701822 236.412604 1507.076015 230.786797 
C 1501.450207 225.160989 1493.818904 222 1485.862811 222 
C 1477.906718 222 1470.275415 225.160989 1464.649608 230.786797 
C 1459.0238 236.412604 1455.862811 244.043907 1455.862811 252 
C 1455.862811 259.956093 1459.0238 267.587396 1464.649608 273.213203 
C 1470.275415 278.839011 1477.906718 282 1485.862811 282 
z
" style="fill:#d9944c;stroke:#d9944c;stroke-linejoin:miter;"/>
   </g>
   <g id="patch_52">
    <path d="M 1688.647517 138 
C 1696.60361 138 1704.234913 134.839011 1709.86072 129.213203 
C 1715.486528 123.587396 1718.647517 115.956093 1718.647517 108 
C 1718.647517 100.043907 1715.486528 92.412604 1709.86072 86.786797 
C 1704.234913 81.160989 1696.60361 78 1688.647517 78 
C 1680.691424 78 1673.060121 81.160989 1667.434314 86.786797 
C 1661.808506 92.412604 1658.647517 100.043907 1658.647517 108 
C 1658.647517 115.956093 1661.808506 123.587396 1667.434314 129.213203 
C 1673.060121 134.839011 1680.691424 138 1688.647517 138 
z
" style="fill:#d9944c;stroke:#d9944c;stroke-linejoin:miter;"/>
   </g>
   <g id="patch_53">
    <path d="M 1880.050792 426 
C 1888.006885 426 1895.638188 422.839011 1901.263995 417.213203 
C 1906.889803 411.587396 1910.050792 403.956093 1910.050792 396 
C 1910.050792 388.043907 1906.889803 380.412604 1901.263995 374.786797 
C 1895.638188 369.160989 1888.006885 366 1880.050792 366 
C 1872.094699 366 1864.463396 369.160989 1858.837588 374.786797 
C 1853.211781 380.412604 1850.050792 388.043907 1850.050792 396 
C 1850.050792 403.956093 1853.211781 411.587396 1858.837588 417.213203 
C 1864.463396 422.839011 1872.094699 426 1880.050792 426 
z
" style="fill:#d9944c;stroke:#d9944c;stroke-linejoin:miter;"/>
   </g>
   <g id="patch_54">
    <path d="M 1880.050792 210 
C 1888.006885 210 1895.638188 206.839011 1901.263995 201.213203 
C 1906.889803 195.587396 1910.050792 187.956093 1910.050792 180 
C 1910.050792 172.043907 1906.889803 164.412604 1901.263995 158.786797 
C 1895.638188 153.160989 1888.006885 150 1880.050792 150 
C 1872.094699 150 1864.463396 153.160989 1858.837588 158.786797 
C 1853.211781 164.412604 1850.050792 172.043907 1850.050792 180 
C 1850.050792 187.956093 1853.211781 195.587396 1858.837588 201.213203 
C 1864.463396 206.839011 1872.094699 210 1880.050792 210 
z
" style="fill:#d9944c;stroke:#d9944c;stroke-linejoin:miter;"/>
   </g>
   <g id="patch_55">
    <path d="M 1880.050792 66 
C 1888.006885 66 1895.638188 62.839011 1901.263995 57.213203 
C 1906.889803 51.587396 1910.050792 43.956093 1910.050792 36 
C 1910.050792 28.043907 1906.889803 20.412604 1901.263995 14.786797 
C 1895.638188 9.160989 1888.006885 6 1880.050792 6 
C 1872.094699 6 1864.463396 9.160989 1858.837588 14.786797 
C 1853.211781 20.412604 1850.050792 28.043907 1850.050792 36 
C 1850.050792 43.956093 1853.211781 51.587396 1858.837588 57.213203 
C 1864.463396 62.839011 1872.094699 66 1880.050792 66 
z
" style="fill:#d9944c;stroke:#d9944c;stroke-linejoin:miter;"/>
   </g>
   <g id="patch_56">
    <path d="M 2060.711426 354 
C 2068.667519 354 2076.298822 350.839011 2081.92463 345.213203 
C 2087.550437 339.587396 2090.711426 331.956093 2090.711426 324 
C 2090.711426 316.043907 2087.550437 308.412604 2081.92463 302.786797 
C 2076.298822 297.160989 2068.667519 294 2060.711426 294 
C 2052.755333 294 2045.12403 297.160989 2039.498223 302.786797 
C 2033.872415 308.412604 2030.711426 316.043907 2030.711426 324 
C 2030.711426 331.956093 2033.872415 339.587396 2039.498223 345.213203 
C 2045.12403 350.839011 2052.755333 354 2060.711426 354 
z
" style="fill:#d9944c;stroke:#d9944c;stroke-linejoin:miter;"/>
   </g>
   <g id="patch_57">
    <path d="M 2060.711426 138 
C 2068.667519 138 2076.298822 134.839011 2081.92463 129.213203 
C 2087.550437 123.587396 2090.711426 115.956093 2090.711426 108 
C 2090.711426 100.043907 2087.550437 92.412604 2081.92463 86.786797 
C 2076.298822 81.160989 2068.667519 78 2060.711426 78 
C 2052.755333 78 2045.12403 81.160989 2039.498223 86.786797 
C 2033.872415 92.412604 2030.711426 100.043907 2030.711426 108 
C 2030.711426 115.956093 2033.872415 123.587396 2039.498223 129.213203 
C 2045.12403 134.839011 2052.755333 138 2060.711426 138 
z
" style="fill:#d9944c;stroke:#d9944c;stroke-linejoin:miter;"/>
   </g>
   <g id="patch_58">
    <path d="M 2231.232358 282 
C 2239.188451 282 2246.819754 278.839011 2252.445562 273.213203 
C 2258.071369 267.587396 2261.232358 259.956093 2261.232358 252 
C 2261.232358 244.043907 2258.071369 236.412604 2252.445562 230.786797 
C 2246.819754 225.160989 2239.188451 222 2231.232358 222 
C 2223.276265 222 2215.644962 225.160989 2210.019155 230.786797 
C 2204.393348 236.412604 2201.232358 244.043907 2201.232358 252 
C 2201.232358 259.956093 2204.393348 267.587396 2210.019155 273.213203 
C 2215.644962 278.839011 2223.276265 282 2231.232358 282 
z
" style="fill:#d9944c;stroke:#d9944c;stroke-linejoin:miter;"/>
   </g>
   <g id="patch_59">
    <path d="M 2392.182686 426 
C 2400.138779 426 2407.770082 422.839011 2413.395889 417.213203 
C 2419.021697 411.587396 2422.182686 403.956093 2422.182686 396 
C 2422.182686 388.043907 2419.021697 380.412604 2413.395889 374.786797 
C 2407.770082 369.160989 2400.138779 366 2392.182686 366 
C 2384.226593 366 2376.59529 369.160989 2370.969483 374.786797 
C 2365.343675 380.412604 2362.182686 388.043907 2362.182686 396 
C 2362.182686 403.956093 2365.343675 411.587396 2370.969483 417.213203 
C 2376.59529 422.839011 2384.226593 426 2392.182686 426 
z
" style="fill:#d9944c;stroke:#d9944c;stroke-linejoin:miter;"/>
   </g>
   <g id="patch_60">
    <path d="M 2392.182686 354 
C 2400.138779 354 2407.770082 350.839011 2413.395889 345.213203 
C 2419.021697 339.587396 2422.182686 331.956093 2422.182686 324 
C 2422.182686 316.043907 2419.021697 308.412604 2413.395889 302.786797 
C 2407.770082 297.160989 2400.138779 294 2392.182686 294 
C 2384.226593 294 2376.59529 297.160989 2370.969483 302.786797 
C 2365.343675 308.412604 2362.182686 316.043907 2362.182686 324 
C 2362.182686 331.956093 2365.343675 339.587396 2370.969483 345.213203 
C 2376.59529 350.839011 2384.226593 354 2392.182686 354 
z
" style="fill:#d9944c;stroke:#d9944c;stroke-linejoin:miter;"/>
   </g>
   <g id="patch_61">
    <path d="M 2392.182686 210 
C 2400.138779 210 2407.770082 206.839011 2413.395889 201.213203 
C 2419.021697 195.587396 2422.182686 187.956093 2422.182686 180 
C 2422.182686 172.043907 2419.021697 164.412604 2413.395889 158.786797 
C 2407.770082 153.160989 2400.138779 150 2392.182686 150 
C 2384.226593 150 2376.59529 153.160989 2370.969483 158.786797 
C 2365.343675 164.412604 2362.182686 172.043907 2362.182686 180 
C 2362.182686 187.956093 2365.343675 195.587396 2370.969483 201.213203 
C 2376.59529 206.839011 2384.226593 210 2392.182686 210 
z
" style="fill:#d9944c;stroke:#d9944c;stroke-linejoin:miter;"/>
   </g>
   <g id="patch_62">
    <path d="M 2392.182686 66 
C 2400.138779 66 2407.770082 62.839011 2413.395889 57.213203 
C 2419.021697 51.587396 2422.182686 43.956093 2422.182686 36 
C 2422.182686 28.043907 2419.021697 20.412604 2413.395889 14.786797 
C 2407.770082 9.160989 2400.138779 6 2392.182686 6 
C 2384.226593 6 2376.59529 9.160989 2370.969483 14.786797 
C 2365.343675 20.412604 2362.182686 28.043907 2362.182686 36 
C 2362.182686 43.956093 2365.343675 51.587396 2370.969483 57.213203 
C 2376.59529 62.839011 2384.226593 66 2392.182686 66 
z
" style="fill:#d9944c;stroke:#d9944c;stroke-linejoin:miter;"/>
   </g>
   <g id="text_43">
    <!-- D#2(5) -->
    <defs>
     <path d="M 19.671875 64.796875 
L 19.671875 8.109375 
L 31.59375 8.109375 
Q 46.6875 8.109375 53.6875 14.9375 
Q 60.6875 21.78125 60.6875 36.53125 
Q 60.6875 51.171875 53.6875 57.984375 
Q 46.6875 64.796875 31.59375 64.796875 
z
M 9.8125 72.90625 
L 30.078125 72.90625 
Q 51.265625 72.90625 61.171875 64.09375 
Q 71.09375 55.28125 71.09375 36.53125 
Q 71.09375 17.671875 61.125 8.828125 
Q 51.171875 0 30.078125 0 
L 9.8125 0 
z
" id="DejaVuSans-68"/>
     <path d="M 51.125 44 
L 36.921875 44 
L 32.8125 27.6875 
L 47.125 27.6875 
z
M 43.796875 71.78125 
L 38.71875 51.515625 
L 52.984375 51.515625 
L 58.109375 71.78125 
L 65.921875 71.78125 
L 60.890625 51.515625 
L 76.125 51.515625 
L 76.125 44 
L 58.984375 44 
L 54.984375 27.6875 
L 70.515625 27.6875 
L 70.515625 20.21875 
L 53.078125 20.21875 
L 48 0 
L 40.1875 0 
L 45.21875 20.21875 
L 30.90625 20.21875 
L 25.875 0 
L 18.015625 0 
L 23.09375 20.21875 
L 7.71875 20.21875 
L 7.71875 27.6875 
L 24.90625 27.6875 
L 29 44 
L 13.28125 44 
L 13.28125 51.515625 
L 30.90625 51.515625 
L 35.890625 71.78125 
z
" id="DejaVuSans-35"/>
    </defs>
    <g style="fill:#ffffff;" transform="translate(251.665714 255.679167)scale(0.133333 -0.133333)">
     <use xlink:href="#DejaVuSans-68"/>
     <use x="77.001953" xlink:href="#DejaVuSans-35"/>
     <use x="160.791016" xlink:href="#DejaVuSans-50"/>
     <use x="224.414062" xlink:href="#DejaVuSans-40"/>
     <use x="263.427734" xlink:href="#DejaVuSans-53"/>
     <use x="327.050781" xlink:href="#DejaVuSans-41"/>
    </g>
   </g>
   <g id="text_44">
    <!-- G#2(R) -->
    <g style="fill:#ffffff;" transform="translate(251.242797 183.679167)scale(0.133333 -0.133333)">
     <use xlink:href="#DejaVuSans-71"/>
     <use x="77.490234" xlink:href="#DejaVuSans-35"/>
     <use x="161.279297" xlink:href="#DejaVuSans-50"/>
     <use x="224.902344" xlink:href="#DejaVuSans-40"/>
     <use x="263.916016" xlink:href="#DejaVuSans-82"/>
     <use x="333.398438" xlink:href="#DejaVuSans-41"/>
    </g>
   </g>
   <g id="text_45">
    <!-- B#3(3) -->
    <defs>
     <path d="M 19.671875 34.8125 
L 19.671875 8.109375 
L 35.5 8.109375 
Q 43.453125 8.109375 47.28125 11.40625 
Q 51.125 14.703125 51.125 21.484375 
Q 51.125 28.328125 47.28125 31.5625 
Q 43.453125 34.8125 35.5 34.8125 
z
M 19.671875 64.796875 
L 19.671875 42.828125 
L 34.28125 42.828125 
Q 41.5 42.828125 45.03125 45.53125 
Q 48.578125 48.25 48.578125 53.8125 
Q 48.578125 59.328125 45.03125 62.0625 
Q 41.5 64.796875 34.28125 64.796875 
z
M 9.8125 72.90625 
L 35.015625 72.90625 
Q 46.296875 72.90625 52.390625 68.21875 
Q 58.5 63.53125 58.5 54.890625 
Q 58.5 48.1875 55.375 44.234375 
Q 52.25 40.28125 46.1875 39.3125 
Q 53.46875 37.75 57.5 32.78125 
Q 61.53125 27.828125 61.53125 20.40625 
Q 61.53125 10.640625 54.890625 5.3125 
Q 48.25 0 35.984375 0 
L 9.8125 0 
z
" id="DejaVuSans-66"/>
    </defs>
    <g style="fill:#ffffff;" transform="translate(252.225089 111.679167)scale(0.133333 -0.133333)">
     <use xlink:href="#DejaVuSans-66"/>
     <use x="68.603516" xlink:href="#DejaVuSans-35"/>
     <use x="152.392578" xlink:href="#DejaVuSans-51"/>
     <use x="216.015625" xlink:href="#DejaVuSans-40"/>
     <use x="255.029297" xlink:href="#DejaVuSans-51"/>
     <use x="318.652344" xlink:href="#DejaVuSans-41"/>
    </g>
   </g>
   <g id="text_46">
    <!-- F#1(7) -->
    <defs>
     <path d="M 9.8125 72.90625 
L 51.703125 72.90625 
L 51.703125 64.59375 
L 19.671875 64.59375 
L 19.671875 43.109375 
L 48.578125 43.109375 
L 48.578125 34.8125 
L 19.671875 34.8125 
L 19.671875 0 
L 9.8125 0 
z
" id="DejaVuSans-70"/>
    </defs>
    <g style="fill:#ffffff;" transform="translate(523.649779 399.679167)scale(0.133333 -0.133333)">
     <use xlink:href="#DejaVuSans-70"/>
     <use x="57.519531" xlink:href="#DejaVuSans-35"/>
     <use x="141.308594" xlink:href="#DejaVuSans-49"/>
     <use x="204.931641" xlink:href="#DejaVuSans-40"/>
     <use x="243.945312" xlink:href="#DejaVuSans-55"/>
     <use x="307.568359" xlink:href="#DejaVuSans-41"/>
    </g>
   </g>
   <g id="text_47">
    <!-- F#3(7) -->
    <g style="fill:#ffffff;" transform="translate(523.649779 39.679167)scale(0.133333 -0.133333)">
     <use xlink:href="#DejaVuSans-70"/>
     <use x="57.519531" xlink:href="#DejaVuSans-35"/>
     <use x="141.308594" xlink:href="#DejaVuSans-51"/>
     <use x="204.931641" xlink:href="#DejaVuSans-40"/>
     <use x="243.945312" xlink:href="#DejaVuSans-55"/>
     <use x="307.568359" xlink:href="#DejaVuSans-41"/>
    </g>
   </g>
   <g id="text_48">
    <!-- B#2(3) -->
    <g style="fill:#ffffff;" transform="translate(778.402915 327.679167)scale(0.133333 -0.133333)">
     <use xlink:href="#DejaVuSans-66"/>
     <use x="68.603516" xlink:href="#DejaVuSans-35"/>
     <use x="152.392578" xlink:href="#DejaVuSans-50"/>
     <use x="216.015625" xlink:href="#DejaVuSans-40"/>
     <use x="255.029297" xlink:href="#DejaVuSans-51"/>
     <use x="318.652344" xlink:href="#DejaVuSans-41"/>
    </g>
   </g>
   <g id="text_49">
    <!-- G#1(R) -->
    <g style="fill:#ffffff;" transform="translate(1018.573638 399.679167)scale(0.133333 -0.133333)">
     <use xlink:href="#DejaVuSans-71"/>
     <use x="77.490234" xlink:href="#DejaVuSans-35"/>
     <use x="161.279297" xlink:href="#DejaVuSans-49"/>
     <use x="224.902344" xlink:href="#DejaVuSans-40"/>
     <use x="263.916016" xlink:href="#DejaVuSans-82"/>
     <use x="333.398438" xlink:href="#DejaVuSans-41"/>
    </g>
   </g>
   <g id="text_50">
    <!-- F#2(7) -->
    <g style="fill:#ffffff;" transform="translate(1020.295513 255.679167)scale(0.133333 -0.133333)">
     <use xlink:href="#DejaVuSans-70"/>
     <use x="57.519531" xlink:href="#DejaVuSans-35"/>
     <use x="141.308594" xlink:href="#DejaVuSans-50"/>
     <use x="204.931641" xlink:href="#DejaVuSans-40"/>
     <use x="243.945312" xlink:href="#DejaVuSans-55"/>
     <use x="307.568359" xlink:href="#DejaVuSans-41"/>
    </g>
   </g>
   <g id="text_51">
    <!-- D#3(5) -->
    <g style="fill:#ffffff;" transform="translate(1018.996555 111.679167)scale(0.133333 -0.133333)">
     <use xlink:href="#DejaVuSans-68"/>
     <use x="77.001953" xlink:href="#DejaVuSans-35"/>
     <use x="160.791016" xlink:href="#DejaVuSans-51"/>
     <use x="224.414062" xlink:href="#DejaVuSans-40"/>
     <use x="263.427734" xlink:href="#DejaVuSans-53"/>
     <use x="327.050781" xlink:href="#DejaVuSans-41"/>
    </g>
   </g>
   <g id="text_52">
    <!-- G#3(R) -->
    <g style="fill:#ffffff;" transform="translate(1018.573638 39.679167)scale(0.133333 -0.133333)">
     <use xlink:href="#DejaVuSans-71"/>
     <use x="77.490234" xlink:href="#DejaVuSans-35"/>
     <use x="161.279297" xlink:href="#DejaVuSans-51"/>
     <use x="224.902344" xlink:href="#DejaVuSans-40"/>
     <use x="263.916016" xlink:href="#DejaVuSans-82"/>
     <use x="333.398438" xlink:href="#DejaVuSans-41"/>
    </g>
   </g>
   <g id="text_53">
    <!-- B#3(3) -->
    <g style="fill:#ffffff;" transform="translate(1247.174066 183.679167)scale(0.133333 -0.133333)">
     <use xlink:href="#DejaVuSans-66"/>
     <use x="68.603516" xlink:href="#DejaVuSans-35"/>
     <use x="152.392578" xlink:href="#DejaVuSans-51"/>
     <use x="216.015625" xlink:href="#DejaVuSans-40"/>
     <use x="255.029297" xlink:href="#DejaVuSans-51"/>
     <use x="318.652344" xlink:href="#DejaVuSans-41"/>
    </g>
   </g>
   <g id="text_54">
    <!-- D#2(5) -->
    <g style="fill:#ffffff;" transform="translate(1461.457603 327.679167)scale(0.133333 -0.133333)">
     <use xlink:href="#DejaVuSans-68"/>
     <use x="77.001953" xlink:href="#DejaVuSans-35"/>
     <use x="160.791016" xlink:href="#DejaVuSans-50"/>
     <use x="224.414062" xlink:href="#DejaVuSans-40"/>
     <use x="263.427734" xlink:href="#DejaVuSans-53"/>
     <use x="327.050781" xlink:href="#DejaVuSans-41"/>
    </g>
   </g>
   <g id="text_55">
    <!-- G#2(R) -->
    <g style="fill:#ffffff;" transform="translate(1461.034686 255.679167)scale(0.133333 -0.133333)">
     <use xlink:href="#DejaVuSans-71"/>
     <use x="77.490234" xlink:href="#DejaVuSans-35"/>
     <use x="161.279297" xlink:href="#DejaVuSans-50"/>
     <use x="224.902344" xlink:href="#DejaVuSans-40"/>
     <use x="263.916016" xlink:href="#DejaVuSans-82"/>
     <use x="333.398438" xlink:href="#DejaVuSans-41"/>
    </g>
   </g>
   <g id="text_56">
    <!-- F#3(7) -->
    <g style="fill:#ffffff;" transform="translate(1665.541267 111.679167)scale(0.133333 -0.133333)">
     <use xlink:href="#DejaVuSans-70"/>
     <use x="57.519531" xlink:href="#DejaVuSans-35"/>
     <use x="141.308594" xlink:href="#DejaVuSans-51"/>
     <use x="204.931641" xlink:href="#DejaVuSans-40"/>
     <use x="243.945312" xlink:href="#DejaVuSans-55"/>
     <use x="307.568359" xlink:href="#DejaVuSans-41"/>
    </g>
   </g>
   <g id="text_57">
    <!-- B#2(3) -->
    <g style="fill:#ffffff;" transform="translate(1856.204958 399.679167)scale(0.133333 -0.133333)">
     <use xlink:href="#DejaVuSans-66"/>
     <use x="68.603516" xlink:href="#DejaVuSans-35"/>
     <use x="152.392578" xlink:href="#DejaVuSans-50"/>
     <use x="216.015625" xlink:href="#DejaVuSans-40"/>
     <use x="255.029297" xlink:href="#DejaVuSans-51"/>
     <use x="318.652344" xlink:href="#DejaVuSans-41"/>
    </g>
   </g>
   <g id="text_58">
    <!-- D#3(5) -->
    <g style="fill:#ffffff;" transform="translate(1855.645583 183.679167)scale(0.133333 -0.133333)">
     <use xlink:href="#DejaVuSans-68"/>
     <use x="77.001953" xlink:href="#DejaVuSans-35"/>
     <use x="160.791016" xlink:href="#DejaVuSans-51"/>
     <use x="224.414062" xlink:href="#DejaVuSans-40"/>
     <use x="263.427734" xlink:href="#DejaVuSans-53"/>
     <use x="327.050781" xlink:href="#DejaVuSans-41"/>
    </g>
   </g>
   <g id="text_59">
    <!-- B#4(3) -->
    <g style="fill:#ffffff;" transform="translate(1856.204958 39.679167)scale(0.133333 -0.133333)">
     <use xlink:href="#DejaVuSans-66"/>
     <use x="68.603516" xlink:href="#DejaVuSans-35"/>
     <use x="152.392578" xlink:href="#DejaVuSans-52"/>
     <use x="216.015625" xlink:href="#DejaVuSans-40"/>
     <use x="255.029297" xlink:href="#DejaVuSans-51"/>
     <use x="318.652344" xlink:href="#DejaVuSans-41"/>
    </g>
   </g>
   <g id="text_60">
    <!-- F#2(7) -->
    <g style="fill:#ffffff;" transform="translate(2037.605176 327.679167)scale(0.133333 -0.133333)">
     <use xlink:href="#DejaVuSans-70"/>
     <use x="57.519531" xlink:href="#DejaVuSans-35"/>
     <use x="141.308594" xlink:href="#DejaVuSans-50"/>
     <use x="204.931641" xlink:href="#DejaVuSans-40"/>
     <use x="243.945312" xlink:href="#DejaVuSans-55"/>
     <use x="307.568359" xlink:href="#DejaVuSans-41"/>
    </g>
   </g>
   <g id="text_61">
    <!-- G#3(R) -->
    <g style="fill:#ffffff;" transform="translate(2035.883301 111.679167)scale(0.133333 -0.133333)">
     <use xlink:href="#DejaVuSans-71"/>
     <use x="77.490234" xlink:href="#DejaVuSans-35"/>
     <use x="161.279297" xlink:href="#DejaVuSans-51"/>
     <use x="224.902344" xlink:href="#DejaVuSans-40"/>
     <use x="263.916016" xlink:href="#DejaVuSans-82"/>
     <use x="333.398438" xlink:href="#DejaVuSans-41"/>
    </g>
   </g>
   <g id="text_62">
    <!-- B#3(3) -->
    <g style="fill:#ffffff;" transform="translate(2207.386525 255.679167)scale(0.133333 -0.133333)">
     <use xlink:href="#DejaVuSans-66"/>
     <use x="68.603516" xlink:href="#DejaVuSans-35"/>
     <use x="152.392578" xlink:href="#DejaVuSans-51"/>
     <use x="216.015625" xlink:href="#DejaVuSans-40"/>
     <use x="255.029297" xlink:href="#DejaVuSans-51"/>
     <use x="318.652344" xlink:href="#DejaVuSans-41"/>
    </g>
   </g>
   <g id="text_63">
    <!-- D#2(5) -->
    <g style="fill:#ffffff;" transform="translate(2367.777478 399.679167)scale(0.133333 -0.133333)">
     <use xlink:href="#DejaVuSans-68"/>
     <use x="77.001953" xlink:href="#DejaVuSans-35"/>
     <use x="160.791016" xlink:href="#DejaVuSans-50"/>
     <use x="224.414062" xlink:href="#DejaVuSans-40"/>
     <use x="263.427734" xlink:href="#DejaVuSans-53"/>
     <use x="327.050781" xlink:href="#DejaVuSans-41"/>
    </g>
   </g>
   <g id="text_64">
    <!-- G#2(R) -->
    <g style="fill:#ffffff;" transform="translate(2367.354561 327.679167)scale(0.133333 -0.133333)">
     <use xlink:href="#DejaVuSans-71"/>
     <use x="77.490234" xlink:href="#DejaVuSans-35"/>
     <use x="161.279297" xlink:href="#DejaVuSans-50"/>
     <use x="224.902344" xlink:href="#DejaVuSans-40"/>
     <use x="263.916016" xlink:href="#DejaVuSans-82"/>
     <use x="333.398438" xlink:href="#DejaVuSans-41"/>
    </g>
   </g>
   <g id="text_65">
    <!-- F#3(7) -->
    <g style="fill:#ffffff;" transform="translate(2369.076436 183.679167)scale(0.133333 -0.133333)">
     <use xlink:href="#DejaVuSans-70"/>
     <use x="57.519531" xlink:href="#DejaVuSans-35"/>
     <use x="141.308594" xlink:href="#DejaVuSans-51"/>
     <use x="204.931641" xlink:href="#DejaVuSans-40"/>
     <use x="243.945312" xlink:href="#DejaVuSans-55"/>
     <use x="307.568359" xlink:href="#DejaVuSans-41"/>
    </g>
   </g>
   <g id="text_66">
    <!-- D#4(5) -->
    <g style="fill:#ffffff;" transform="translate(2367.777478 39.679167)scale(0.133333 -0.133333)">
     <use xlink:href="#DejaVuSans-68"/>
     <use x="77.001953" xlink:href="#DejaVuSans-35"/>
     <use x="160.791016" xlink:href="#DejaVuSans-52"/>
     <use x="224.414062" xlink:href="#DejaVuSans-40"/>
     <use x="263.427734" xlink:href="#DejaVuSans-53"/>
     <use x="327.050781" xlink:href="#DejaVuSans-41"/>
    </g>
   </g>
  </g>
 </g>
 <defs>
  <clipPath id="p15c2c1dd53">
   <rect height="432" width="2567.454545" x="36" y="0"/>
  </clipPath>
 </defs>
</svg>
