<?xml version="1.0" encoding="utf-8" standalone="no"?>
<!DOCTYPE svg PUBLIC "-//W3C//DTD SVG 1.1//EN"
  "http://www.w3.org/Graphics/SVG/1.1/DTD/svg11.dtd">
<!-- Created with matplotlib (https://matplotlib.org/) -->
<svg height="230.4pt" version="1.1" viewBox="0 0 878.4 230.4" width="878.4pt" xmlns="http://www.w3.org/2000/svg" xmlns:xlink="http://www.w3.org/1999/xlink">
 <defs>
  <style type="text/css">
*{stroke-linecap:butt;stroke-linejoin:round;}
  </style>
 </defs>
 <g id="figure_1">
  <g id="patch_1">
   <path d="M 0 230.4 
L 878.4 230.4 
L 878.4 0 
L 0 0 
z
" style="fill:#ffffff;"/>
  </g>
  <g id="axes_1">
   <g id="patch_2">
    <path clip-path="url(#pa6034118b8)" d="M 223.2 115.2 
L 254.057143 115.2 
L 254.057143 38.057143 
L 223.2 38.057143 
z
" style="fill:#808080;opacity:0.2;stroke:#808080;stroke-linejoin:miter;"/>
   </g>
   <g id="patch_3">
    <path clip-path="url(#pa6034118b8)" d="M 346.628571 115.2 
L 377.485714 115.2 
L 377.485714 38.057143 
L 346.628571 38.057143 
z
" style="fill:#808080;opacity:0.2;stroke:#808080;stroke-linejoin:miter;"/>
   </g>
   <g id="patch_4">
    <path clip-path="url(#pa6034118b8)" d="M 470.057143 115.2 
L 500.914286 115.2 
L 500.914286 38.057143 
L 470.057143 38.057143 
z
" style="fill:#808080;opacity:0.2;stroke:#808080;stroke-linejoin:miter;"/>
   </g>
   <g id="patch_5">
    <path clip-path="url(#pa6034118b8)" d="M 593.485714 115.2 
L 624.342857 115.2 
L 624.342857 38.057143 
L 593.485714 38.057143 
z
" style="fill:#808080;opacity:0.2;stroke:#808080;stroke-linejoin:miter;"/>
   </g>
   <g id="patch_6">
    <path clip-path="url(#pa6034118b8)" d="M 778.628571 192.342857 
L 809.485714 192.342857 
L 809.485714 38.057143 
L 778.628571 38.057143 
z
" style="fill:#808080;opacity:0.2;stroke:#808080;stroke-linejoin:miter;"/>
   </g>
   <g id="line2d_1">
    <path clip-path="url(#pa6034118b8)" d="M 68.914286 192.342857 
L 68.914286 38.057143 
" style="fill:none;stroke:#000000;stroke-linecap:square;stroke-width:2;"/>
   </g>
   <g id="line2d_2">
    <path clip-path="url(#pa6034118b8)" d="M 130.628571 192.342857 
L 130.628571 38.057143 
" style="fill:none;stroke:#000000;stroke-linecap:square;stroke-width:2;"/>
   </g>
   <g id="line2d_3">
    <path clip-path="url(#pa6034118b8)" d="M 192.342857 192.342857 
L 192.342857 38.057143 
" style="fill:none;stroke:#000000;stroke-linecap:square;stroke-width:2;"/>
   </g>
   <g id="line2d_4">
    <path clip-path="url(#pa6034118b8)" d="M 254.057143 192.342857 
L 254.057143 38.057143 
" style="fill:none;stroke:#000000;stroke-linecap:square;stroke-width:2;"/>
   </g>
   <g id="line2d_5">
    <path clip-path="url(#pa6034118b8)" d="M 315.771429 192.342857 
L 315.771429 38.057143 
" style="fill:none;stroke:#000000;stroke-linecap:square;stroke-width:2;"/>
   </g>
   <g id="line2d_6">
    <path clip-path="url(#pa6034118b8)" d="M 377.485714 192.342857 
L 377.485714 38.057143 
" style="fill:none;stroke:#000000;stroke-linecap:square;stroke-width:2;"/>
   </g>
   <g id="line2d_7">
    <path clip-path="url(#pa6034118b8)" d="M 439.2 192.342857 
L 439.2 38.057143 
" style="fill:none;stroke:#000000;stroke-linecap:square;stroke-width:2;"/>
   </g>
   <g id="line2d_8">
    <path clip-path="url(#pa6034118b8)" d="M 500.914286 192.342857 
L 500.914286 38.057143 
" style="fill:none;stroke:#000000;stroke-linecap:square;stroke-width:2;"/>
   </g>
   <g id="line2d_9">
    <path clip-path="url(#pa6034118b8)" d="M 562.628571 192.342857 
L 562.628571 38.057143 
" style="fill:none;stroke:#000000;stroke-linecap:square;stroke-width:2;"/>
   </g>
   <g id="line2d_10">
    <path clip-path="url(#pa6034118b8)" d="M 624.342857 192.342857 
L 624.342857 38.057143 
" style="fill:none;stroke:#000000;stroke-linecap:square;stroke-width:2;"/>
   </g>
   <g id="line2d_11">
    <path clip-path="url(#pa6034118b8)" d="M 686.057143 192.342857 
L 686.057143 38.057143 
" style="fill:none;stroke:#000000;stroke-linecap:square;stroke-width:2;"/>
   </g>
   <g id="line2d_12">
    <path clip-path="url(#pa6034118b8)" d="M 747.771429 192.342857 
L 747.771429 38.057143 
" style="fill:none;stroke:#000000;stroke-linecap:square;stroke-width:2;"/>
   </g>
   <g id="line2d_13">
    <path clip-path="url(#pa6034118b8)" d="M 809.485714 192.342857 
L 809.485714 38.057143 
" style="fill:none;stroke:#000000;stroke-linecap:square;stroke-width:2;"/>
   </g>
   <g id="line2d_14">
    <path clip-path="url(#pa6034118b8)" d="M 68.914286 192.342857 
L 809.485714 192.342857 
" style="fill:none;stroke:#000000;stroke-linecap:square;"/>
   </g>
   <g id="line2d_15">
    <path clip-path="url(#pa6034118b8)" d="M 68.914286 161.485714 
L 809.485714 161.485714 
" style="fill:none;stroke:#000000;stroke-linecap:square;"/>
   </g>
   <g id="line2d_16">
    <path clip-path="url(#pa6034118b8)" d="M 68.914286 130.628571 
L 809.485714 130.628571 
" style="fill:none;stroke:#000000;stroke-linecap:square;"/>
   </g>
   <g id="line2d_17">
    <path clip-path="url(#pa6034118b8)" d="M 68.914286 99.771429 
L 809.485714 99.771429 
" style="fill:none;stroke:#000000;stroke-linecap:square;"/>
   </g>
   <g id="line2d_18">
    <path clip-path="url(#pa6034118b8)" d="M 68.914286 68.914286 
L 809.485714 68.914286 
" style="fill:none;stroke:#000000;stroke-linecap:square;"/>
   </g>
   <g id="line2d_19">
    <path clip-path="url(#pa6034118b8)" d="M 68.914286 38.057143 
L 809.485714 38.057143 
" style="fill:none;stroke:#000000;stroke-linecap:square;"/>
   </g>
   <g id="patch_7">
    <path clip-path="url(#pa6034118b8)" d="M 99.771429 78.171429 
C 102.226452 78.171429 104.581254 77.196038 106.317217 75.460074 
C 108.05318 73.724111 109.028571 71.369309 109.028571 68.914286 
C 109.028571 66.459263 108.05318 64.104461 106.317217 62.368497 
C 104.581254 60.632534 102.226452 59.657143 99.771429 59.657143 
C 97.316406 59.657143 94.961603 60.632534 93.22564 62.368497 
C 91.489677 64.104461 90.514286 66.459263 90.514286 68.914286 
C 90.514286 71.369309 91.489677 73.724111 93.22564 75.460074 
C 94.961603 77.196038 97.316406 78.171429 99.771429 78.171429 
z
" style="fill:#ff0000;stroke:#ff0000;stroke-linejoin:miter;"/>
   </g>
   <g id="patch_8">
    <path clip-path="url(#pa6034118b8)" d="M 223.2 170.742857 
C 225.655023 170.742857 228.009825 169.767466 229.745788 168.031503 
C 231.481752 166.295539 232.457143 163.940737 232.457143 161.485714 
C 232.457143 159.030691 231.481752 156.675889 229.745788 154.939926 
C 228.009825 153.203962 225.655023 152.228571 223.2 152.228571 
C 220.744977 152.228571 218.390175 153.203962 216.654212 154.939926 
C 214.918248 156.675889 213.942857 159.030691 213.942857 161.485714 
C 213.942857 163.940737 214.918248 166.295539 216.654212 168.031503 
C 218.390175 169.767466 220.744977 170.742857 223.2 170.742857 
z
" style="fill:#ff0000;stroke:#ff0000;stroke-linejoin:miter;"/>
   </g>
   <g id="patch_9">
    <path clip-path="url(#pa6034118b8)" d="M 346.628571 109.028571 
C 349.083594 109.028571 351.438397 108.05318 353.17436 106.317217 
C 354.910323 104.581254 355.885714 102.226452 355.885714 99.771429 
C 355.885714 97.316406 354.910323 94.961603 353.17436 93.22564 
C 351.438397 91.489677 349.083594 90.514286 346.628571 90.514286 
C 344.173548 90.514286 341.818746 91.489677 340.082783 93.22564 
C 338.34682 94.961603 337.371429 97.316406 337.371429 99.771429 
C 337.371429 102.226452 338.34682 104.581254 340.082783 106.317217 
C 341.818746 108.05318 344.173548 109.028571 346.628571 109.028571 
z
" style="fill:#ff0000;stroke:#ff0000;stroke-linejoin:miter;"/>
   </g>
   <g id="patch_10">
    <path clip-path="url(#pa6034118b8)" d="M 531.771429 201.6 
C 534.226452 201.6 536.581254 200.624609 538.317217 198.888646 
C 540.05318 197.152682 541.028571 194.79788 541.028571 192.342857 
C 541.028571 189.887834 540.05318 187.533032 538.317217 185.797069 
C 536.581254 184.061105 534.226452 183.085714 531.771429 183.085714 
C 529.316406 183.085714 526.961603 184.061105 525.22564 185.797069 
C 523.489677 187.533032 522.514286 189.887834 522.514286 192.342857 
C 522.514286 194.79788 523.489677 197.152682 525.22564 198.888646 
C 526.961603 200.624609 529.316406 201.6 531.771429 201.6 
z
" style="fill:#ff0000;stroke:#ff0000;stroke-linejoin:miter;"/>
   </g>
   <g id="patch_11">
    <path clip-path="url(#pa6034118b8)" d="M 531.771429 47.314286 
C 534.226452 47.314286 536.581254 46.338895 538.317217 44.602931 
C 540.05318 42.866968 541.028571 40.512166 541.028571 38.057143 
C 541.028571 35.60212 540.05318 33.247318 538.317217 31.511354 
C 536.581254 29.775391 534.226452 28.8 531.771429 28.8 
C 529.316406 28.8 526.961603 29.775391 525.22564 31.511354 
C 523.489677 33.247318 522.514286 35.60212 522.514286 38.057143 
C 522.514286 40.512166 523.489677 42.866968 525.22564 44.602931 
C 526.961603 46.338895 529.316406 47.314286 531.771429 47.314286 
z
" style="fill:#ff0000;stroke:#ff0000;stroke-linejoin:miter;"/>
   </g>
   <g id="patch_12">
    <path clip-path="url(#pa6034118b8)" d="M 655.2 139.885714 
C 657.655023 139.885714 660.009825 138.910323 661.745788 137.17436 
C 663.481752 135.438397 664.457143 133.083594 664.457143 130.628571 
C 664.457143 128.173548 663.481752 125.818746 661.745788 124.082783 
C 660.009825 122.34682 657.655023 121.371429 655.2 121.371429 
C 652.744977 121.371429 650.390175 122.34682 648.654212 124.082783 
C 646.918248 125.818746 645.942857 128.173548 645.942857 130.628571 
C 645.942857 133.083594 646.918248 135.438397 648.654212 137.17436 
C 650.390175 138.910323 652.744977 139.885714 655.2 139.885714 
z
" style="fill:#ff0000;stroke:#ff0000;stroke-linejoin:miter;"/>
   </g>
   <g id="patch_13">
    <path clip-path="url(#pa6034118b8)" d="M 161.485714 78.171429 
C 163.940737 78.171429 166.295539 77.196038 168.031503 75.460074 
C 169.767466 73.724111 170.742857 71.369309 170.742857 68.914286 
C 170.742857 66.459263 169.767466 64.104461 168.031503 62.368497 
C 166.295539 60.632534 163.940737 59.657143 161.485714 59.657143 
C 159.030691 59.657143 156.675889 60.632534 154.939926 62.368497 
C 153.203962 64.104461 152.228571 66.459263 152.228571 68.914286 
C 152.228571 71.369309 153.203962 73.724111 154.939926 75.460074 
C 156.675889 77.196038 159.030691 78.171429 161.485714 78.171429 
z
" style="fill:#da0606;stroke:#da0606;stroke-linejoin:miter;"/>
   </g>
   <g id="patch_14">
    <path clip-path="url(#pa6034118b8)" d="M 284.914286 170.742857 
C 287.369309 170.742857 289.724111 169.767466 291.460074 168.031503 
C 293.196038 166.295539 294.171429 163.940737 294.171429 161.485714 
C 294.171429 159.030691 293.196038 156.675889 291.460074 154.939926 
C 289.724111 153.203962 287.369309 152.228571 284.914286 152.228571 
C 282.459263 152.228571 280.104461 153.203962 278.368497 154.939926 
C 276.632534 156.675889 275.657143 159.030691 275.657143 161.485714 
C 275.657143 163.940737 276.632534 166.295539 278.368497 168.031503 
C 280.104461 169.767466 282.459263 170.742857 284.914286 170.742857 
z
" style="fill:#da0606;stroke:#da0606;stroke-linejoin:miter;"/>
   </g>
   <g id="patch_15">
    <path clip-path="url(#pa6034118b8)" d="M 408.342857 109.028571 
C 410.79788 109.028571 413.152682 108.05318 414.888646 106.317217 
C 416.624609 104.581254 417.6 102.226452 417.6 99.771429 
C 417.6 97.316406 416.624609 94.961603 414.888646 93.22564 
C 413.152682 91.489677 410.79788 90.514286 408.342857 90.514286 
C 405.887834 90.514286 403.533032 91.489677 401.797069 93.22564 
C 400.061105 94.961603 399.085714 97.316406 399.085714 99.771429 
C 399.085714 102.226452 400.061105 104.581254 401.797069 106.317217 
C 403.533032 108.05318 405.887834 109.028571 408.342857 109.028571 
z
" style="fill:#da0606;stroke:#da0606;stroke-linejoin:miter;"/>
   </g>
   <g id="patch_16">
    <path clip-path="url(#pa6034118b8)" d="M 593.485714 201.6 
C 595.940737 201.6 598.295539 200.624609 600.031503 198.888646 
C 601.767466 197.152682 602.742857 194.79788 602.742857 192.342857 
C 602.742857 189.887834 601.767466 187.533032 600.031503 185.797069 
C 598.295539 184.061105 595.940737 183.085714 593.485714 183.085714 
C 591.030691 183.085714 588.675889 184.061105 586.939926 185.797069 
C 585.203962 187.533032 584.228571 189.887834 584.228571 192.342857 
C 584.228571 194.79788 585.203962 197.152682 586.939926 198.888646 
C 588.675889 200.624609 591.030691 201.6 593.485714 201.6 
z
" style="fill:#da0606;stroke:#da0606;stroke-linejoin:miter;"/>
   </g>
   <g id="patch_17">
    <path clip-path="url(#pa6034118b8)" d="M 593.485714 47.314286 
C 595.940737 47.314286 598.295539 46.338895 600.031503 44.602931 
C 601.767466 42.866968 602.742857 40.512166 602.742857 38.057143 
C 602.742857 35.60212 601.767466 33.247318 600.031503 31.511354 
C 598.295539 29.775391 595.940737 28.8 593.485714 28.8 
C 591.030691 28.8 588.675889 29.775391 586.939926 31.511354 
C 585.203962 33.247318 584.228571 35.60212 584.228571 38.057143 
C 584.228571 40.512166 585.203962 42.866968 586.939926 44.602931 
C 588.675889 46.338895 591.030691 47.314286 593.485714 47.314286 
z
" style="fill:#da0606;stroke:#da0606;stroke-linejoin:miter;"/>
   </g>
   <g id="patch_18">
    <path clip-path="url(#pa6034118b8)" d="M 716.914286 139.885714 
C 719.369309 139.885714 721.724111 138.910323 723.460074 137.17436 
C 725.196038 135.438397 726.171429 133.083594 726.171429 130.628571 
C 726.171429 128.173548 725.196038 125.818746 723.460074 124.082783 
C 721.724111 122.34682 719.369309 121.371429 716.914286 121.371429 
C 714.459263 121.371429 712.104461 122.34682 710.368497 124.082783 
C 708.632534 125.818746 707.657143 128.173548 707.657143 130.628571 
C 707.657143 133.083594 708.632534 135.438397 710.368497 137.17436 
C 712.104461 138.910323 714.459263 139.885714 716.914286 139.885714 
z
" style="fill:#da0606;stroke:#da0606;stroke-linejoin:miter;"/>
   </g>
   <g id="patch_19">
    <path clip-path="url(#pa6034118b8)" d="M 53.485714 201.6 
C 55.940737 201.6 58.295539 200.624609 60.031503 198.888646 
C 61.767466 197.152682 62.742857 194.79788 62.742857 192.342857 
C 62.742857 189.887834 61.767466 187.533032 60.031503 185.797069 
C 58.295539 184.061105 55.940737 183.085714 53.485714 183.085714 
C 51.030691 183.085714 48.675889 184.061105 46.939926 185.797069 
C 45.203962 187.533032 44.228571 189.887834 44.228571 192.342857 
C 44.228571 194.79788 45.203962 197.152682 46.939926 198.888646 
C 48.675889 200.624609 51.030691 201.6 53.485714 201.6 
z
" style="fill:#ffffff;stroke:#b50b0b;stroke-linejoin:miter;"/>
   </g>
   <g id="patch_20">
    <path clip-path="url(#pa6034118b8)" d="M 53.485714 47.314286 
C 55.940737 47.314286 58.295539 46.338895 60.031503 44.602931 
C 61.767466 42.866968 62.742857 40.512166 62.742857 38.057143 
C 62.742857 35.60212 61.767466 33.247318 60.031503 31.511354 
C 58.295539 29.775391 55.940737 28.8 53.485714 28.8 
C 51.030691 28.8 48.675889 29.775391 46.939926 31.511354 
C 45.203962 33.247318 44.228571 35.60212 44.228571 38.057143 
C 44.228571 40.512166 45.203962 42.866968 46.939926 44.602931 
C 48.675889 46.338895 51.030691 47.314286 53.485714 47.314286 
z
" style="fill:#ffffff;stroke:#b50b0b;stroke-linejoin:miter;"/>
   </g>
   <g id="patch_21">
    <path clip-path="url(#pa6034118b8)" d="M 161.485714 139.885714 
C 163.940737 139.885714 166.295539 138.910323 168.031503 137.17436 
C 169.767466 135.438397 170.742857 133.083594 170.742857 130.628571 
C 170.742857 128.173548 169.767466 125.818746 168.031503 124.082783 
C 166.295539 122.34682 163.940737 121.371429 161.485714 121.371429 
C 159.030691 121.371429 156.675889 122.34682 154.939926 124.082783 
C 153.203962 125.818746 152.228571 128.173548 152.228571 130.628571 
C 152.228571 133.083594 153.203962 135.438397 154.939926 137.17436 
C 156.675889 138.910323 159.030691 139.885714 161.485714 139.885714 
z
" style="fill:#b50b0b;stroke:#b50b0b;stroke-linejoin:miter;"/>
   </g>
   <g id="patch_22">
    <path clip-path="url(#pa6034118b8)" d="M 346.628571 78.171429 
C 349.083594 78.171429 351.438397 77.196038 353.17436 75.460074 
C 354.910323 73.724111 355.885714 71.369309 355.885714 68.914286 
C 355.885714 66.459263 354.910323 64.104461 353.17436 62.368497 
C 351.438397 60.632534 349.083594 59.657143 346.628571 59.657143 
C 344.173548 59.657143 341.818746 60.632534 340.082783 62.368497 
C 338.34682 64.104461 337.371429 66.459263 337.371429 68.914286 
C 337.371429 71.369309 338.34682 73.724111 340.082783 75.460074 
C 341.818746 77.196038 344.173548 78.171429 346.628571 78.171429 
z
" style="fill:#b50b0b;stroke:#b50b0b;stroke-linejoin:miter;"/>
   </g>
   <g id="patch_23">
    <path clip-path="url(#pa6034118b8)" d="M 470.057143 170.742857 
C 472.512166 170.742857 474.866968 169.767466 476.602931 168.031503 
C 478.338895 166.295539 479.314286 163.940737 479.314286 161.485714 
C 479.314286 159.030691 478.338895 156.675889 476.602931 154.939926 
C 474.866968 153.203962 472.512166 152.228571 470.057143 152.228571 
C 467.60212 152.228571 465.247318 153.203962 463.511354 154.939926 
C 461.775391 156.675889 460.8 159.030691 460.8 161.485714 
C 460.8 163.940737 461.775391 166.295539 463.511354 168.031503 
C 465.247318 169.767466 467.60212 170.742857 470.057143 170.742857 
z
" style="fill:#b50b0b;stroke:#b50b0b;stroke-linejoin:miter;"/>
   </g>
   <g id="patch_24">
    <path clip-path="url(#pa6034118b8)" d="M 593.485714 109.028571 
C 595.940737 109.028571 598.295539 108.05318 600.031503 106.317217 
C 601.767466 104.581254 602.742857 102.226452 602.742857 99.771429 
C 602.742857 97.316406 601.767466 94.961603 600.031503 93.22564 
C 598.295539 91.489677 595.940737 90.514286 593.485714 90.514286 
C 591.030691 90.514286 588.675889 91.489677 586.939926 93.22564 
C 585.203962 94.961603 584.228571 97.316406 584.228571 99.771429 
C 584.228571 102.226452 585.203962 104.581254 586.939926 106.317217 
C 588.675889 108.05318 591.030691 109.028571 593.485714 109.028571 
z
" style="fill:#b50b0b;stroke:#b50b0b;stroke-linejoin:miter;"/>
   </g>
   <g id="patch_25">
    <path clip-path="url(#pa6034118b8)" d="M 778.628571 201.6 
C 781.083594 201.6 783.438397 200.624609 785.17436 198.888646 
C 786.910323 197.152682 787.885714 194.79788 787.885714 192.342857 
C 787.885714 189.887834 786.910323 187.533032 785.17436 185.797069 
C 783.438397 184.061105 781.083594 183.085714 778.628571 183.085714 
C 776.173548 183.085714 773.818746 184.061105 772.082783 185.797069 
C 770.34682 187.533032 769.371429 189.887834 769.371429 192.342857 
C 769.371429 194.79788 770.34682 197.152682 772.082783 198.888646 
C 773.818746 200.624609 776.173548 201.6 778.628571 201.6 
z
" style="fill:#b50b0b;stroke:#b50b0b;stroke-linejoin:miter;"/>
   </g>
   <g id="patch_26">
    <path clip-path="url(#pa6034118b8)" d="M 778.628571 47.314286 
C 781.083594 47.314286 783.438397 46.338895 785.17436 44.602931 
C 786.910323 42.866968 787.885714 40.512166 787.885714 38.057143 
C 787.885714 35.60212 786.910323 33.247318 785.17436 31.511354 
C 783.438397 29.775391 781.083594 28.8 778.628571 28.8 
C 776.173548 28.8 773.818746 29.775391 772.082783 31.511354 
C 770.34682 33.247318 769.371429 35.60212 769.371429 38.057143 
C 769.371429 40.512166 770.34682 42.866968 772.082783 44.602931 
C 773.818746 46.338895 776.173548 47.314286 778.628571 47.314286 
z
" style="fill:#b50b0b;stroke:#b50b0b;stroke-linejoin:miter;"/>
   </g>
   <g id="patch_27">
    <path clip-path="url(#pa6034118b8)" d="M 99.771429 201.6 
C 102.226452 201.6 104.581254 200.624609 106.317217 198.888646 
C 108.05318 197.152682 109.028571 194.79788 109.028571 192.342857 
C 109.028571 189.887834 108.05318 187.533032 106.317217 185.797069 
C 104.581254 184.061105 102.226452 183.085714 99.771429 183.085714 
C 97.316406 183.085714 94.961603 184.061105 93.22564 185.797069 
C 91.489677 187.533032 90.514286 189.887834 90.514286 192.342857 
C 90.514286 194.79788 91.489677 197.152682 93.22564 198.888646 
C 94.961603 200.624609 97.316406 201.6 99.771429 201.6 
z
" style="fill:#911111;stroke:#911111;stroke-linejoin:miter;"/>
   </g>
   <g id="patch_28">
    <path clip-path="url(#pa6034118b8)" d="M 99.771429 47.314286 
C 102.226452 47.314286 104.581254 46.338895 106.317217 44.602931 
C 108.05318 42.866968 109.028571 40.512166 109.028571 38.057143 
C 109.028571 35.60212 108.05318 33.247318 106.317217 31.511354 
C 104.581254 29.775391 102.226452 28.8 99.771429 28.8 
C 97.316406 28.8 94.961603 29.775391 93.22564 31.511354 
C 91.489677 33.247318 90.514286 35.60212 90.514286 38.057143 
C 90.514286 40.512166 91.489677 42.866968 93.22564 44.602931 
C 94.961603 46.338895 97.316406 47.314286 99.771429 47.314286 
z
" style="fill:#911111;stroke:#911111;stroke-linejoin:miter;"/>
   </g>
   <g id="patch_29">
    <path clip-path="url(#pa6034118b8)" d="M 223.2 139.885714 
C 225.655023 139.885714 228.009825 138.910323 229.745788 137.17436 
C 231.481752 135.438397 232.457143 133.083594 232.457143 130.628571 
C 232.457143 128.173548 231.481752 125.818746 229.745788 124.082783 
C 228.009825 122.34682 225.655023 121.371429 223.2 121.371429 
C 220.744977 121.371429 218.390175 122.34682 216.654212 124.082783 
C 214.918248 125.818746 213.942857 128.173548 213.942857 130.628571 
C 213.942857 133.083594 214.918248 135.438397 216.654212 137.17436 
C 218.390175 138.910323 220.744977 139.885714 223.2 139.885714 
z
" style="fill:#911111;stroke:#911111;stroke-linejoin:miter;"/>
   </g>
   <g id="patch_30">
    <path clip-path="url(#pa6034118b8)" d="M 408.342857 78.171429 
C 410.79788 78.171429 413.152682 77.196038 414.888646 75.460074 
C 416.624609 73.724111 417.6 71.369309 417.6 68.914286 
C 417.6 66.459263 416.624609 64.104461 414.888646 62.368497 
C 413.152682 60.632534 410.79788 59.657143 408.342857 59.657143 
C 405.887834 59.657143 403.533032 60.632534 401.797069 62.368497 
C 400.061105 64.104461 399.085714 66.459263 399.085714 68.914286 
C 399.085714 71.369309 400.061105 73.724111 401.797069 75.460074 
C 403.533032 77.196038 405.887834 78.171429 408.342857 78.171429 
z
" style="fill:#911111;stroke:#911111;stroke-linejoin:miter;"/>
   </g>
   <g id="patch_31">
    <path clip-path="url(#pa6034118b8)" d="M 531.771429 170.742857 
C 534.226452 170.742857 536.581254 169.767466 538.317217 168.031503 
C 540.05318 166.295539 541.028571 163.940737 541.028571 161.485714 
C 541.028571 159.030691 540.05318 156.675889 538.317217 154.939926 
C 536.581254 153.203962 534.226452 152.228571 531.771429 152.228571 
C 529.316406 152.228571 526.961603 153.203962 525.22564 154.939926 
C 523.489677 156.675889 522.514286 159.030691 522.514286 161.485714 
C 522.514286 163.940737 523.489677 166.295539 525.22564 168.031503 
C 526.961603 169.767466 529.316406 170.742857 531.771429 170.742857 
z
" style="fill:#911111;stroke:#911111;stroke-linejoin:miter;"/>
   </g>
   <g id="patch_32">
    <path clip-path="url(#pa6034118b8)" d="M 655.2 109.028571 
C 657.655023 109.028571 660.009825 108.05318 661.745788 106.317217 
C 663.481752 104.581254 664.457143 102.226452 664.457143 99.771429 
C 664.457143 97.316406 663.481752 94.961603 661.745788 93.22564 
C 660.009825 91.489677 657.655023 90.514286 655.2 90.514286 
C 652.744977 90.514286 650.390175 91.489677 648.654212 93.22564 
C 646.918248 94.961603 645.942857 97.316406 645.942857 99.771429 
C 645.942857 102.226452 646.918248 104.581254 648.654212 106.317217 
C 650.390175 108.05318 652.744977 109.028571 655.2 109.028571 
z
" style="fill:#911111;stroke:#911111;stroke-linejoin:miter;"/>
   </g>
   <g id="patch_33">
    <path clip-path="url(#pa6034118b8)" d="M 53.485714 109.028571 
C 55.940737 109.028571 58.295539 108.05318 60.031503 106.317217 
C 61.767466 104.581254 62.742857 102.226452 62.742857 99.771429 
C 62.742857 97.316406 61.767466 94.961603 60.031503 93.22564 
C 58.295539 91.489677 55.940737 90.514286 53.485714 90.514286 
C 51.030691 90.514286 48.675889 91.489677 46.939926 93.22564 
C 45.203962 94.961603 44.228571 97.316406 44.228571 99.771429 
C 44.228571 102.226452 45.203962 104.581254 46.939926 106.317217 
C 48.675889 108.05318 51.030691 109.028571 53.485714 109.028571 
z
" style="fill:#ffffff;stroke:#6c1717;stroke-linejoin:miter;"/>
   </g>
   <g id="patch_34">
    <path clip-path="url(#pa6034118b8)" d="M 223.2 201.6 
C 225.655023 201.6 228.009825 200.624609 229.745788 198.888646 
C 231.481752 197.152682 232.457143 194.79788 232.457143 192.342857 
C 232.457143 189.887834 231.481752 187.533032 229.745788 185.797069 
C 228.009825 184.061105 225.655023 183.085714 223.2 183.085714 
C 220.744977 183.085714 218.390175 184.061105 216.654212 185.797069 
C 214.918248 187.533032 213.942857 189.887834 213.942857 192.342857 
C 213.942857 194.79788 214.918248 197.152682 216.654212 198.888646 
C 218.390175 200.624609 220.744977 201.6 223.2 201.6 
z
" style="fill:#6c1717;stroke:#6c1717;stroke-linejoin:miter;"/>
   </g>
   <g id="patch_35">
    <path clip-path="url(#pa6034118b8)" d="M 223.2 47.314286 
C 225.655023 47.314286 228.009825 46.338895 229.745788 44.602931 
C 231.481752 42.866968 232.457143 40.512166 232.457143 38.057143 
C 232.457143 35.60212 231.481752 33.247318 229.745788 31.511354 
C 228.009825 29.775391 225.655023 28.8 223.2 28.8 
C 220.744977 28.8 218.390175 29.775391 216.654212 31.511354 
C 214.918248 33.247318 213.942857 35.60212 213.942857 38.057143 
C 213.942857 40.512166 214.918248 42.866968 216.654212 44.602931 
C 218.390175 46.338895 220.744977 47.314286 223.2 47.314286 
z
" style="fill:#6c1717;stroke:#6c1717;stroke-linejoin:miter;"/>
   </g>
   <g id="patch_36">
    <path clip-path="url(#pa6034118b8)" d="M 346.628571 139.885714 
C 349.083594 139.885714 351.438397 138.910323 353.17436 137.17436 
C 354.910323 135.438397 355.885714 133.083594 355.885714 130.628571 
C 355.885714 128.173548 354.910323 125.818746 353.17436 124.082783 
C 351.438397 122.34682 349.083594 121.371429 346.628571 121.371429 
C 344.173548 121.371429 341.818746 122.34682 340.082783 124.082783 
C 338.34682 125.818746 337.371429 128.173548 337.371429 130.628571 
C 337.371429 133.083594 338.34682 135.438397 340.082783 137.17436 
C 341.818746 138.910323 344.173548 139.885714 346.628571 139.885714 
z
" style="fill:#6c1717;stroke:#6c1717;stroke-linejoin:miter;"/>
   </g>
   <g id="patch_37">
    <path clip-path="url(#pa6034118b8)" d="M 531.771429 78.171429 
C 534.226452 78.171429 536.581254 77.196038 538.317217 75.460074 
C 540.05318 73.724111 541.028571 71.369309 541.028571 68.914286 
C 541.028571 66.459263 540.05318 64.104461 538.317217 62.368497 
C 536.581254 60.632534 534.226452 59.657143 531.771429 59.657143 
C 529.316406 59.657143 526.961603 60.632534 525.22564 62.368497 
C 523.489677 64.104461 522.514286 66.459263 522.514286 68.914286 
C 522.514286 71.369309 523.489677 73.724111 525.22564 75.460074 
C 526.961603 77.196038 529.316406 78.171429 531.771429 78.171429 
z
" style="fill:#6c1717;stroke:#6c1717;stroke-linejoin:miter;"/>
   </g>
   <g id="patch_38">
    <path clip-path="url(#pa6034118b8)" d="M 655.2 170.742857 
C 657.655023 170.742857 660.009825 169.767466 661.745788 168.031503 
C 663.481752 166.295539 664.457143 163.940737 664.457143 161.485714 
C 664.457143 159.030691 663.481752 156.675889 661.745788 154.939926 
C 660.009825 153.203962 657.655023 152.228571 655.2 152.228571 
C 652.744977 152.228571 650.390175 153.203962 648.654212 154.939926 
C 646.918248 156.675889 645.942857 159.030691 645.942857 161.485714 
C 645.942857 163.940737 646.918248 166.295539 648.654212 168.031503 
C 650.390175 169.767466 652.744977 170.742857 655.2 170.742857 
z
" style="fill:#6c1717;stroke:#6c1717;stroke-linejoin:miter;"/>
   </g>
   <g id="patch_39">
    <path clip-path="url(#pa6034118b8)" d="M 778.628571 109.028571 
C 781.083594 109.028571 783.438397 108.05318 785.17436 106.317217 
C 786.910323 104.581254 787.885714 102.226452 787.885714 99.771429 
C 787.885714 97.316406 786.910323 94.961603 785.17436 93.22564 
C 783.438397 91.489677 781.083594 90.514286 778.628571 90.514286 
C 776.173548 90.514286 773.818746 91.489677 772.082783 93.22564 
C 770.34682 94.961603 769.371429 97.316406 769.371429 99.771429 
C 769.371429 102.226452 770.34682 104.581254 772.082783 106.317217 
C 773.818746 108.05318 776.173548 109.028571 778.628571 109.028571 
z
" style="fill:#6c1717;stroke:#6c1717;stroke-linejoin:miter;"/>
   </g>
   <g id="patch_40">
    <path clip-path="url(#pa6034118b8)" d="M 99.771429 109.028571 
C 102.226452 109.028571 104.581254 108.05318 106.317217 106.317217 
C 108.05318 104.581254 109.028571 102.226452 109.028571 99.771429 
C 109.028571 97.316406 108.05318 94.961603 106.317217 93.22564 
C 104.581254 91.489677 102.226452 90.514286 99.771429 90.514286 
C 97.316406 90.514286 94.961603 91.489677 93.22564 93.22564 
C 91.489677 94.961603 90.514286 97.316406 90.514286 99.771429 
C 90.514286 102.226452 91.489677 104.581254 93.22564 106.317217 
C 94.961603 108.05318 97.316406 109.028571 99.771429 109.028571 
z
" style="fill:#471c1c;stroke:#471c1c;stroke-linejoin:miter;"/>
   </g>
   <g id="patch_41">
    <path clip-path="url(#pa6034118b8)" d="M 284.914286 201.6 
C 287.369309 201.6 289.724111 200.624609 291.460074 198.888646 
C 293.196038 197.152682 294.171429 194.79788 294.171429 192.342857 
C 294.171429 189.887834 293.196038 187.533032 291.460074 185.797069 
C 289.724111 184.061105 287.369309 183.085714 284.914286 183.085714 
C 282.459263 183.085714 280.104461 184.061105 278.368497 185.797069 
C 276.632534 187.533032 275.657143 189.887834 275.657143 192.342857 
C 275.657143 194.79788 276.632534 197.152682 278.368497 198.888646 
C 280.104461 200.624609 282.459263 201.6 284.914286 201.6 
z
" style="fill:#471c1c;stroke:#471c1c;stroke-linejoin:miter;"/>
   </g>
   <g id="patch_42">
    <path clip-path="url(#pa6034118b8)" d="M 284.914286 47.314286 
C 287.369309 47.314286 289.724111 46.338895 291.460074 44.602931 
C 293.196038 42.866968 294.171429 40.512166 294.171429 38.057143 
C 294.171429 35.60212 293.196038 33.247318 291.460074 31.511354 
C 289.724111 29.775391 287.369309 28.8 284.914286 28.8 
C 282.459263 28.8 280.104461 29.775391 278.368497 31.511354 
C 276.632534 33.247318 275.657143 35.60212 275.657143 38.057143 
C 275.657143 40.512166 276.632534 42.866968 278.368497 44.602931 
C 280.104461 46.338895 282.459263 47.314286 284.914286 47.314286 
z
" style="fill:#471c1c;stroke:#471c1c;stroke-linejoin:miter;"/>
   </g>
   <g id="patch_43">
    <path clip-path="url(#pa6034118b8)" d="M 408.342857 139.885714 
C 410.79788 139.885714 413.152682 138.910323 414.888646 137.17436 
C 416.624609 135.438397 417.6 133.083594 417.6 130.628571 
C 417.6 128.173548 416.624609 125.818746 414.888646 124.082783 
C 413.152682 122.34682 410.79788 121.371429 408.342857 121.371429 
C 405.887834 121.371429 403.533032 122.34682 401.797069 124.082783 
C 400.061105 125.818746 399.085714 128.173548 399.085714 130.628571 
C 399.085714 133.083594 400.061105 135.438397 401.797069 137.17436 
C 403.533032 138.910323 405.887834 139.885714 408.342857 139.885714 
z
" style="fill:#471c1c;stroke:#471c1c;stroke-linejoin:miter;"/>
   </g>
   <g id="patch_44">
    <path clip-path="url(#pa6034118b8)" d="M 593.485714 78.171429 
C 595.940737 78.171429 598.295539 77.196038 600.031503 75.460074 
C 601.767466 73.724111 602.742857 71.369309 602.742857 68.914286 
C 602.742857 66.459263 601.767466 64.104461 600.031503 62.368497 
C 598.295539 60.632534 595.940737 59.657143 593.485714 59.657143 
C 591.030691 59.657143 588.675889 60.632534 586.939926 62.368497 
C 585.203962 64.104461 584.228571 66.459263 584.228571 68.914286 
C 584.228571 71.369309 585.203962 73.724111 586.939926 75.460074 
C 588.675889 77.196038 591.030691 78.171429 593.485714 78.171429 
z
" style="fill:#471c1c;stroke:#471c1c;stroke-linejoin:miter;"/>
   </g>
   <g id="patch_45">
    <path clip-path="url(#pa6034118b8)" d="M 716.914286 170.742857 
C 719.369309 170.742857 721.724111 169.767466 723.460074 168.031503 
C 725.196038 166.295539 726.171429 163.940737 726.171429 161.485714 
C 726.171429 159.030691 725.196038 156.675889 723.460074 154.939926 
C 721.724111 153.203962 719.369309 152.228571 716.914286 152.228571 
C 714.459263 152.228571 712.104461 153.203962 710.368497 154.939926 
C 708.632534 156.675889 707.657143 159.030691 707.657143 161.485714 
C 707.657143 163.940737 708.632534 166.295539 710.368497 168.031503 
C 712.104461 169.767466 714.459263 170.742857 716.914286 170.742857 
z
" style="fill:#471c1c;stroke:#471c1c;stroke-linejoin:miter;"/>
   </g>
   <g id="patch_46">
    <path clip-path="url(#pa6034118b8)" d="M 99.771429 170.742857 
C 102.226452 170.742857 104.581254 169.767466 106.317217 168.031503 
C 108.05318 166.295539 109.028571 163.940737 109.028571 161.485714 
C 109.028571 159.030691 108.05318 156.675889 106.317217 154.939926 
C 104.581254 153.203962 102.226452 152.228571 99.771429 152.228571 
C 97.316406 152.228571 94.961603 153.203962 93.22564 154.939926 
C 91.489677 156.675889 90.514286 159.030691 90.514286 161.485714 
C 90.514286 163.940737 91.489677 166.295539 93.22564 168.031503 
C 94.961603 169.767466 97.316406 170.742857 99.771429 170.742857 
z
" style="fill:#222222;stroke:#222222;stroke-linejoin:miter;"/>
   </g>
   <g id="patch_47">
    <path clip-path="url(#pa6034118b8)" d="M 223.2 109.028571 
C 225.655023 109.028571 228.009825 108.05318 229.745788 106.317217 
C 231.481752 104.581254 232.457143 102.226452 232.457143 99.771429 
C 232.457143 97.316406 231.481752 94.961603 229.745788 93.22564 
C 228.009825 91.489677 225.655023 90.514286 223.2 90.514286 
C 220.744977 90.514286 218.390175 91.489677 216.654212 93.22564 
C 214.918248 94.961603 213.942857 97.316406 213.942857 99.771429 
C 213.942857 102.226452 214.918248 104.581254 216.654212 106.317217 
C 218.390175 108.05318 220.744977 109.028571 223.2 109.028571 
z
" style="fill:#222222;stroke:#222222;stroke-linejoin:miter;"/>
   </g>
   <g id="patch_48">
    <path clip-path="url(#pa6034118b8)" d="M 408.342857 201.6 
C 410.79788 201.6 413.152682 200.624609 414.888646 198.888646 
C 416.624609 197.152682 417.6 194.79788 417.6 192.342857 
C 417.6 189.887834 416.624609 187.533032 414.888646 185.797069 
C 413.152682 184.061105 410.79788 183.085714 408.342857 183.085714 
C 405.887834 183.085714 403.533032 184.061105 401.797069 185.797069 
C 400.061105 187.533032 399.085714 189.887834 399.085714 192.342857 
C 399.085714 194.79788 400.061105 197.152682 401.797069 198.888646 
C 403.533032 200.624609 405.887834 201.6 408.342857 201.6 
z
" style="fill:#222222;stroke:#222222;stroke-linejoin:miter;"/>
   </g>
   <g id="patch_49">
    <path clip-path="url(#pa6034118b8)" d="M 408.342857 47.314286 
C 410.79788 47.314286 413.152682 46.338895 414.888646 44.602931 
C 416.624609 42.866968 417.6 40.512166 417.6 38.057143 
C 417.6 35.60212 416.624609 33.247318 414.888646 31.511354 
C 413.152682 29.775391 410.79788 28.8 408.342857 28.8 
C 405.887834 28.8 403.533032 29.775391 401.797069 31.511354 
C 400.061105 33.247318 399.085714 35.60212 399.085714 38.057143 
C 399.085714 40.512166 400.061105 42.866968 401.797069 44.602931 
C 403.533032 46.338895 405.887834 47.314286 408.342857 47.314286 
z
" style="fill:#222222;stroke:#222222;stroke-linejoin:miter;"/>
   </g>
   <g id="patch_50">
    <path clip-path="url(#pa6034118b8)" d="M 531.771429 139.885714 
C 534.226452 139.885714 536.581254 138.910323 538.317217 137.17436 
C 540.05318 135.438397 541.028571 133.083594 541.028571 130.628571 
C 541.028571 128.173548 540.05318 125.818746 538.317217 124.082783 
C 536.581254 122.34682 534.226452 121.371429 531.771429 121.371429 
C 529.316406 121.371429 526.961603 122.34682 525.22564 124.082783 
C 523.489677 125.818746 522.514286 128.173548 522.514286 130.628571 
C 522.514286 133.083594 523.489677 135.438397 525.22564 137.17436 
C 526.961603 138.910323 529.316406 139.885714 531.771429 139.885714 
z
" style="fill:#222222;stroke:#222222;stroke-linejoin:miter;"/>
   </g>
   <g id="patch_51">
    <path clip-path="url(#pa6034118b8)" d="M 716.914286 78.171429 
C 719.369309 78.171429 721.724111 77.196038 723.460074 75.460074 
C 725.196038 73.724111 726.171429 71.369309 726.171429 68.914286 
C 726.171429 66.459263 725.196038 64.104461 723.460074 62.368497 
C 721.724111 60.632534 719.369309 59.657143 716.914286 59.657143 
C 714.459263 59.657143 712.104461 60.632534 710.368497 62.368497 
C 708.632534 64.104461 707.657143 66.459263 707.657143 68.914286 
C 707.657143 71.369309 708.632534 73.724111 710.368497 75.460074 
C 712.104461 77.196038 714.459263 78.171429 716.914286 78.171429 
z
" style="fill:#222222;stroke:#222222;stroke-linejoin:miter;"/>
   </g>
   <g id="text_1">
    <!-- C Phrygian(#3) (color_style=degree) -->
    <defs>
     <path d="M 48.578125 2.390625 
Q 40.921875 -0.78125 32.515625 -0.78125 
Q 19 -0.78125 11.75 7.296875 
Q 4.5 15.375 4.5 31.203125 
Q 4.5 38.875 6.5 45.0625 
Q 8.5 51.265625 12.203125 55.578125 
Q 15.921875 59.90625 21.1875 62.25 
Q 26.46875 64.59375 33.015625 64.59375 
Q 37.453125 64.59375 41.25 63.84375 
Q 45.0625 63.09375 48.578125 61.53125 
L 48.578125 52.984375 
Q 45.125 54.890625 41.40625 55.890625 
Q 37.703125 56.890625 33.296875 56.890625 
Q 28.8125 56.890625 25.171875 55.203125 
Q 21.53125 53.515625 18.984375 50.3125 
Q 16.453125 47.125 15.078125 42.5 
Q 13.71875 37.890625 13.71875 31.984375 
Q 13.71875 19.578125 18.75 13.28125 
Q 23.78125 6.984375 33.5 6.984375 
Q 37.59375 6.984375 41.359375 7.9375 
Q 45.125 8.890625 48.578125 10.59375 
z
" id="Consolas-with-Yahei-67"/>
     <path id="Consolas-with-Yahei-32"/>
     <path d="M 49.609375 44.28125 
Q 49.609375 40.375 48.140625 36.546875 
Q 46.6875 32.71875 43.609375 29.6875 
Q 40.53125 26.65625 35.734375 24.78125 
Q 30.953125 22.90625 24.3125 22.90625 
L 16.40625 22.90625 
L 16.40625 0 
L 7.71875 0 
L 7.71875 63.8125 
L 25.6875 63.8125 
Q 30.421875 63.8125 34.765625 62.765625 
Q 39.109375 61.71875 42.40625 59.375 
Q 45.703125 57.03125 47.65625 53.3125 
Q 49.609375 49.609375 49.609375 44.28125 
z
M 40.578125 43.890625 
Q 40.578125 50.046875 36.546875 53.3125 
Q 32.515625 56.59375 25.296875 56.59375 
L 16.40625 56.59375 
L 16.40625 30.328125 
L 24.515625 30.328125 
Q 32.234375 30.328125 36.40625 33.6875 
Q 40.578125 37.0625 40.578125 43.890625 
z
" id="Consolas-with-Yahei-80"/>
     <path d="M 47.21875 0 
L 38.71875 0 
L 38.71875 31.296875 
Q 38.71875 36.96875 36.59375 39.765625 
Q 34.46875 42.578125 30.515625 42.578125 
Q 28.8125 42.578125 27.3125 42.109375 
Q 25.828125 41.65625 24.21875 40.5 
Q 22.609375 39.359375 20.703125 37.40625 
Q 18.796875 35.453125 16.3125 32.515625 
L 16.3125 0 
L 7.8125 0 
L 7.8125 69 
L 16.3125 69 
L 16.3125 49.03125 
L 16.015625 41.3125 
Q 18.015625 43.703125 19.9375 45.328125 
Q 21.875 46.96875 23.796875 48 
Q 25.734375 49.03125 27.734375 49.46875 
Q 29.734375 49.90625 31.890625 49.90625 
Q 39.203125 49.90625 43.203125 45.4375 
Q 47.21875 40.96875 47.21875 31.984375 
z
" id="Consolas-with-Yahei-104"/>
     <path d="M 9.8125 49.03125 
L 17.578125 49.03125 
L 17.828125 39.984375 
Q 22.171875 45.21875 26.390625 47.5625 
Q 30.609375 49.90625 34.90625 49.90625 
Q 42.53125 49.90625 46.453125 44.96875 
Q 50.390625 40.046875 50.09375 30.328125 
L 41.5 30.328125 
Q 41.65625 36.765625 39.625 39.671875 
Q 37.59375 42.578125 33.6875 42.578125 
Q 31.984375 42.578125 30.25 41.96875 
Q 28.515625 41.359375 26.6875 40.015625 
Q 24.859375 38.671875 22.796875 36.5625 
Q 20.75 34.46875 18.40625 31.5 
L 18.40625 0 
L 9.8125 0 
z
" id="Consolas-with-Yahei-114"/>
     <path d="M 51.421875 49.03125 
L 34.71875 5.171875 
Q 32.125 -1.515625 29.359375 -6.34375 
Q 26.609375 -11.1875 23.328125 -14.28125 
Q 20.0625 -17.390625 16.15625 -18.84375 
Q 12.25 -20.3125 7.421875 -20.3125 
Q 6.15625 -20.3125 5.125 -20.265625 
Q 4.109375 -20.21875 2.875 -20.125 
L 2.875 -12.40625 
Q 3.953125 -12.546875 5.21875 -12.671875 
Q 6.5 -12.796875 7.90625 -12.796875 
Q 10.25 -12.796875 12.28125 -12.109375 
Q 14.3125 -11.421875 16.109375 -9.875 
Q 17.921875 -8.34375 19.578125 -5.90625 
Q 21.234375 -3.46875 22.796875 0 
L 3.21875 49.03125 
L 12.890625 49.03125 
L 25.296875 16.609375 
L 27.78125 8.984375 
L 30.609375 16.796875 
L 42.09375 49.03125 
z
" id="Consolas-with-Yahei-121"/>
     <path d="M 43.109375 42.09375 
Q 44.484375 40.375 45.234375 38.109375 
Q 46 35.84375 46 33.203125 
Q 46 29.390625 44.609375 26.234375 
Q 43.21875 23.09375 40.671875 20.84375 
Q 38.140625 18.609375 34.59375 17.359375 
Q 31.0625 16.109375 26.8125 16.109375 
Q 23.734375 16.109375 21.046875 16.765625 
Q 18.359375 17.4375 16.796875 18.40625 
Q 15.875 17.046875 15.234375 15.8125 
Q 14.59375 14.59375 14.59375 13.09375 
Q 14.59375 11.234375 16.375 10.015625 
Q 18.171875 8.796875 21.09375 8.6875 
L 33.984375 8.203125 
Q 37.640625 8.109375 40.734375 7.28125 
Q 43.84375 6.453125 46.0625 4.890625 
Q 48.296875 3.328125 49.53125 1.03125 
Q 50.78125 -1.265625 50.78125 -4.296875 
Q 50.78125 -7.5625 49.359375 -10.484375 
Q 47.953125 -13.421875 45 -15.640625 
Q 42.046875 -17.875 37.5 -19.1875 
Q 32.953125 -20.515625 26.703125 -20.515625 
Q 20.75 -20.515625 16.578125 -19.5625 
Q 12.40625 -18.609375 9.71875 -16.921875 
Q 7.03125 -15.234375 5.8125 -12.90625 
Q 4.59375 -10.59375 4.59375 -7.8125 
Q 4.59375 -4.25 6.25 -1.5625 
Q 7.90625 1.125 11.375 3.609375 
Q 10.109375 4.203125 9.171875 5.078125 
Q 8.25 5.953125 7.65625 7 
Q 7.078125 8.0625 6.78125 9.234375 
Q 6.5 10.40625 6.5 11.53125 
Q 6.5 14.703125 7.984375 17.328125 
Q 9.46875 19.96875 11.53125 22.3125 
Q 10.59375 23.4375 9.890625 24.515625 
Q 9.1875 25.59375 8.671875 26.828125 
Q 8.15625 28.078125 7.890625 29.515625 
Q 7.625 30.953125 7.625 32.8125 
Q 7.625 36.625 9.015625 39.765625 
Q 10.40625 42.921875 12.921875 45.15625 
Q 15.4375 47.40625 18.96875 48.65625 
Q 22.515625 49.90625 26.8125 49.90625 
Q 28.609375 49.90625 30.265625 49.65625 
Q 31.9375 49.421875 33.203125 49.03125 
L 50.984375 49.03125 
L 50.984375 42.09375 
z
M 13.625 -7.078125 
Q 13.625 -10.546875 17.234375 -12.125 
Q 20.84375 -13.71875 27.296875 -13.71875 
Q 31.34375 -13.71875 34.09375 -12.984375 
Q 36.859375 -12.25 38.546875 -11.046875 
Q 40.234375 -9.859375 40.96875 -8.3125 
Q 41.703125 -6.78125 41.703125 -5.171875 
Q 41.703125 -2.203125 39.25 -0.78125 
Q 36.8125 0.640625 31.78125 0.875 
L 19 1.3125 
Q 17.390625 0.25 16.328125 -0.78125 
Q 15.28125 -1.8125 14.6875 -2.859375 
Q 14.109375 -3.90625 13.859375 -4.953125 
Q 13.625 -6 13.625 -7.078125 
z
M 16.21875 33.015625 
Q 16.21875 30.671875 17 28.71875 
Q 17.78125 26.765625 19.1875 25.390625 
Q 20.609375 24.03125 22.53125 23.265625 
Q 24.46875 22.515625 26.8125 22.515625 
Q 29.34375 22.515625 31.3125 23.359375 
Q 33.296875 24.21875 34.640625 25.6875 
Q 35.984375 27.15625 36.6875 29.046875 
Q 37.40625 30.953125 37.40625 33.015625 
Q 37.40625 35.359375 36.625 37.3125 
Q 35.84375 39.265625 34.421875 40.625 
Q 33.015625 42 31.078125 42.75 
Q 29.15625 43.5 26.8125 43.5 
Q 24.265625 43.5 22.28125 42.625 
Q 20.3125 41.75 18.96875 40.3125 
Q 17.625 38.875 16.921875 36.96875 
Q 16.21875 35.0625 16.21875 33.015625 
z
" id="Consolas-with-Yahei-103"/>
     <path d="M 24.515625 42 
L 10.015625 42 
L 10.015625 49.03125 
L 33.109375 49.03125 
L 33.109375 7.078125 
L 47.703125 7.078125 
L 47.703125 0 
L 8.40625 0 
L 8.40625 7.078125 
L 24.515625 7.078125 
z
M 27.484375 69.578125 
Q 28.90625 69.578125 30.125 69.0625 
Q 31.34375 68.5625 32.25 67.625 
Q 33.15625 66.703125 33.671875 65.5 
Q 34.1875 64.3125 34.1875 62.890625 
Q 34.1875 61.53125 33.671875 60.296875 
Q 33.15625 59.078125 32.25 58.15625 
Q 31.34375 57.234375 30.125 56.71875 
Q 28.90625 56.203125 27.484375 56.203125 
Q 26.078125 56.203125 24.859375 56.71875 
Q 23.640625 57.234375 22.734375 58.15625 
Q 21.828125 59.078125 21.3125 60.296875 
Q 20.796875 61.53125 20.796875 62.890625 
Q 20.796875 64.3125 21.3125 65.5 
Q 21.828125 66.703125 22.734375 67.625 
Q 23.640625 68.5625 24.859375 69.0625 
Q 26.078125 69.578125 27.484375 69.578125 
z
" id="Consolas-with-Yahei-105"/>
     <path d="M 39.3125 0 
L 39.109375 6.59375 
Q 35.109375 2.640625 30.984375 0.875 
Q 26.859375 -0.875 22.3125 -0.875 
Q 18.109375 -0.875 15.125 0.1875 
Q 12.15625 1.265625 10.21875 3.140625 
Q 8.296875 5.03125 7.390625 7.5625 
Q 6.5 10.109375 6.5 13.09375 
Q 6.5 20.453125 11.984375 24.625 
Q 17.484375 28.8125 28.21875 28.8125 
L 38.375 28.8125 
L 38.375 33.109375 
Q 38.375 37.453125 35.59375 40.0625 
Q 32.8125 42.671875 27.09375 42.671875 
Q 22.953125 42.671875 18.921875 41.75 
Q 14.890625 40.828125 10.59375 39.109375 
L 10.59375 46.78125 
Q 12.203125 47.359375 14.171875 47.921875 
Q 16.15625 48.484375 18.359375 48.921875 
Q 20.5625 49.359375 22.953125 49.625 
Q 25.34375 49.90625 27.78125 49.90625 
Q 32.234375 49.90625 35.796875 48.921875 
Q 39.359375 47.953125 41.8125 45.953125 
Q 44.28125 43.953125 45.59375 40.921875 
Q 46.921875 37.890625 46.921875 33.796875 
L 46.921875 0 
z
M 38.375 22.3125 
L 27.59375 22.3125 
Q 24.421875 22.3125 22.125 21.671875 
Q 19.828125 21.046875 18.359375 19.875 
Q 16.890625 18.703125 16.1875 17.0625 
Q 15.484375 15.4375 15.484375 13.375 
Q 15.484375 11.96875 15.921875 10.671875 
Q 16.359375 9.375 17.328125 8.375 
Q 18.3125 7.375 19.875 6.78125 
Q 21.4375 6.203125 23.6875 6.203125 
Q 26.609375 6.203125 30.390625 7.984375 
Q 34.1875 9.765625 38.375 13.625 
z
" id="Consolas-with-Yahei-97"/>
     <path d="M 7.8125 49.03125 
L 15.375 49.03125 
L 15.71875 41.109375 
Q 17.875 43.65625 19.875 45.328125 
Q 21.875 47.015625 23.796875 48.046875 
Q 25.734375 49.078125 27.734375 49.484375 
Q 29.734375 49.90625 31.890625 49.90625 
Q 39.453125 49.90625 43.328125 45.4375 
Q 47.21875 40.96875 47.21875 31.984375 
L 47.21875 0 
L 38.71875 0 
L 38.71875 31.296875 
Q 38.71875 37.0625 36.5625 39.8125 
Q 34.421875 42.578125 30.171875 42.578125 
Q 28.609375 42.578125 27.125 42.109375 
Q 25.640625 41.65625 24.015625 40.5 
Q 22.40625 39.359375 20.53125 37.40625 
Q 18.65625 35.453125 16.3125 32.515625 
L 16.3125 0 
L 7.8125 0 
z
" id="Consolas-with-Yahei-110"/>
     <path d="M 37.15625 -20.515625 
Q 14.65625 0.34375 14.65625 25.59375 
Q 14.65625 31.5 15.84375 37.375 
Q 17.046875 43.265625 19.703125 49.171875 
Q 22.359375 55.078125 26.734375 60.984375 
Q 31.109375 66.890625 37.359375 72.703125 
L 42.28125 67.671875 
Q 23.34375 48.96875 23.34375 26.21875 
Q 23.34375 14.890625 28.125 4.4375 
Q 32.90625 -6 42.28125 -15.28125 
z
" id="Consolas-with-Yahei-40"/>
     <path d="M 50.296875 17.921875 
L 39.40625 17.921875 
L 37.59375 0 
L 30.375 0 
L 32.171875 17.921875 
L 19.734375 17.921875 
L 17.921875 0 
L 10.6875 0 
L 12.5 17.921875 
L 2.09375 17.921875 
L 2.09375 24.265625 
L 13.140625 24.265625 
L 14.890625 41.359375 
L 4.59375 41.359375 
L 4.59375 47.703125 
L 15.53125 47.703125 
L 17.1875 63.8125 
L 24.3125 63.8125 
L 22.703125 47.703125 
L 35.203125 47.703125 
L 36.859375 63.8125 
L 44.09375 63.8125 
L 42.390625 47.703125 
L 52.875 47.703125 
L 52.875 41.359375 
L 41.75 41.359375 
L 40.046875 24.265625 
L 50.296875 24.265625 
z
M 32.859375 24.265625 
L 34.578125 41.359375 
L 22.078125 41.359375 
L 20.359375 24.265625 
z
" id="Consolas-with-Yahei-35"/>
     <path d="M 48 19.390625 
Q 48 15.1875 46.28125 11.5 
Q 44.578125 7.8125 41.15625 5.046875 
Q 37.75 2.296875 32.5625 0.703125 
Q 27.390625 -0.875 20.515625 -0.875 
Q 16.703125 -0.875 13.671875 -0.625 
Q 10.640625 -0.390625 8.015625 0 
L 8.015625 7.625 
Q 11.03125 7.078125 14.40625 6.78125 
Q 17.78125 6.5 21.296875 6.5 
Q 26.078125 6.5 29.46875 7.34375 
Q 32.859375 8.203125 35 9.8125 
Q 37.15625 11.421875 38.125 13.71875 
Q 39.109375 16.015625 39.109375 18.890625 
Q 39.109375 21.53125 37.9375 23.484375 
Q 36.765625 25.4375 34.640625 26.75 
Q 32.515625 28.078125 29.5625 28.734375 
Q 26.609375 29.390625 23.09375 29.390625 
L 15.828125 29.390625 
L 15.828125 36.375 
L 23.1875 36.375 
Q 26.078125 36.375 28.4375 37.125 
Q 30.8125 37.890625 32.5 39.296875 
Q 34.1875 40.71875 35.078125 42.796875 
Q 35.984375 44.875 35.984375 47.515625 
Q 35.984375 52.640625 32.859375 54.984375 
Q 29.734375 57.328125 23.6875 57.328125 
Q 20.453125 57.328125 17.03125 56.6875 
Q 13.625 56.0625 9.71875 54.78125 
L 9.71875 62.203125 
Q 11.375 62.796875 13.25 63.25 
Q 15.140625 63.71875 17.015625 64.03125 
Q 18.890625 64.359375 20.75 64.53125 
Q 22.609375 64.703125 24.3125 64.703125 
Q 29.390625 64.703125 33.25 63.59375 
Q 37.109375 62.5 39.6875 60.453125 
Q 42.28125 58.40625 43.59375 55.46875 
Q 44.921875 52.546875 44.921875 48.875 
Q 44.921875 43.40625 42.109375 39.6875 
Q 39.3125 35.984375 34.421875 33.796875 
Q 36.921875 33.40625 39.328125 32.234375 
Q 41.75 31.0625 43.671875 29.21875 
Q 45.609375 27.390625 46.796875 24.890625 
Q 48 22.40625 48 19.390625 
z
" id="Consolas-with-Yahei-51"/>
     <path d="M 17.828125 72.703125 
Q 40.328125 51.859375 40.328125 26.3125 
Q 40.328125 21.046875 39.25 15.375 
Q 38.1875 9.71875 35.59375 3.78125 
Q 33.015625 -2.15625 28.640625 -8.25 
Q 24.265625 -14.359375 17.625 -20.515625 
L 12.703125 -15.484375 
Q 22.21875 -6.0625 26.90625 4.1875 
Q 31.59375 14.453125 31.59375 25.6875 
Q 31.59375 48.921875 12.703125 67.484375 
z
" id="Consolas-with-Yahei-41"/>
     <path d="M 45.90625 1.8125 
Q 42.578125 0.53125 39.078125 -0.078125 
Q 35.59375 -0.6875 31.890625 -0.6875 
Q 20.265625 -0.6875 13.984375 5.609375 
Q 7.71875 11.921875 7.71875 24.03125 
Q 7.71875 29.828125 9.515625 34.5625 
Q 11.328125 39.3125 14.59375 42.671875 
Q 17.875 46.046875 22.40625 47.875 
Q 26.953125 49.703125 32.421875 49.703125 
Q 36.234375 49.703125 39.546875 49.171875 
Q 42.875 48.640625 45.90625 47.40625 
L 45.90625 39.3125 
Q 42.71875 40.96875 39.421875 41.71875 
Q 36.140625 42.484375 32.625 42.484375 
Q 29.34375 42.484375 26.4375 41.234375 
Q 23.53125 39.984375 21.328125 37.640625 
Q 19.140625 35.296875 17.875 31.921875 
Q 16.609375 28.5625 16.609375 24.3125 
Q 16.609375 15.4375 20.921875 11.015625 
Q 25.25 6.59375 32.90625 6.59375 
Q 36.375 6.59375 39.625 7.375 
Q 42.875 8.15625 45.90625 9.71875 
z
" id="Consolas-with-Yahei-99"/>
     <path d="M 50.484375 24.90625 
Q 50.484375 19.1875 48.875 14.421875 
Q 47.265625 9.671875 44.234375 6.265625 
Q 41.21875 2.875 36.859375 1 
Q 32.515625 -0.875 27 -0.875 
Q 21.734375 -0.875 17.546875 0.75 
Q 13.375 2.390625 10.46875 5.5625 
Q 7.5625 8.734375 6.03125 13.421875 
Q 4.5 18.109375 4.5 24.21875 
Q 4.5 29.9375 6.109375 34.640625 
Q 7.71875 39.359375 10.734375 42.75 
Q 13.765625 46.140625 18.109375 48.015625 
Q 22.46875 49.90625 27.984375 49.90625 
Q 33.25 49.90625 37.421875 48.265625 
Q 41.609375 46.625 44.5 43.46875 
Q 47.40625 40.328125 48.9375 35.640625 
Q 50.484375 30.953125 50.484375 24.90625 
z
M 41.796875 24.515625 
Q 41.796875 29.046875 40.796875 32.4375 
Q 39.796875 35.84375 37.9375 38.109375 
Q 36.078125 40.375 33.421875 41.515625 
Q 30.765625 42.671875 27.484375 42.671875 
Q 23.6875 42.671875 20.96875 41.1875 
Q 18.265625 39.703125 16.53125 37.203125 
Q 14.796875 34.71875 13.984375 31.421875 
Q 13.1875 28.125 13.1875 24.515625 
Q 13.1875 19.96875 14.1875 16.546875 
Q 15.1875 13.140625 17.03125 10.859375 
Q 18.890625 8.59375 21.53125 7.4375 
Q 24.171875 6.296875 27.484375 6.296875 
Q 31.296875 6.296875 34 7.78125 
Q 36.71875 9.28125 38.453125 11.765625 
Q 40.1875 14.265625 40.984375 17.546875 
Q 41.796875 20.84375 41.796875 24.515625 
z
" id="Consolas-with-Yahei-111"/>
     <path d="M 24.515625 62.015625 
L 10.015625 62.015625 
L 10.015625 69 
L 33.109375 69 
L 33.109375 7.078125 
L 47.703125 7.078125 
L 47.703125 0 
L 8.40625 0 
L 8.40625 7.078125 
L 24.515625 7.078125 
z
" id="Consolas-with-Yahei-108"/>
     <path d="M 54.984375 -20.015625 
L 0 -20.015625 
L 0 -12.984375 
L 54.984375 -12.984375 
z
" id="Consolas-with-Yahei-95"/>
     <path d="M 46.625 13.375 
Q 46.625 10.796875 45.75 8.734375 
Q 44.875 6.6875 43.359375 5.09375 
Q 41.84375 3.515625 39.84375 2.390625 
Q 37.84375 1.265625 35.5625 0.53125 
Q 33.296875 -0.203125 30.90625 -0.53125 
Q 28.515625 -0.875 26.21875 -0.875 
Q 21.234375 -0.875 17.0625 -0.4375 
Q 12.890625 0 8.890625 0.984375 
L 8.890625 8.796875 
Q 13.1875 7.5625 17.4375 6.921875 
Q 21.6875 6.296875 25.875 6.296875 
Q 31.984375 6.296875 34.90625 7.953125 
Q 37.84375 9.625 37.84375 12.703125 
Q 37.84375 14.015625 37.375 15.0625 
Q 36.921875 16.109375 35.6875 17.0625 
Q 34.46875 18.015625 31.90625 19.03125 
Q 29.34375 20.0625 24.90625 21.390625 
Q 21.578125 22.359375 18.765625 23.609375 
Q 15.96875 24.859375 13.90625 26.5625 
Q 11.859375 28.265625 10.6875 30.5625 
Q 9.515625 32.859375 9.515625 35.984375 
Q 9.515625 38.03125 10.46875 40.46875 
Q 11.421875 42.921875 13.71875 45.015625 
Q 16.015625 47.125 19.921875 48.515625 
Q 23.828125 49.90625 29.6875 49.90625 
Q 32.5625 49.90625 36.078125 49.578125 
Q 39.59375 49.265625 43.40625 48.484375 
L 43.40625 40.921875 
Q 39.40625 41.890625 35.8125 42.359375 
Q 32.234375 42.828125 29.59375 42.828125 
Q 26.421875 42.828125 24.25 42.328125 
Q 22.078125 41.84375 20.734375 40.984375 
Q 19.390625 40.140625 18.796875 38.984375 
Q 18.21875 37.84375 18.21875 36.53125 
Q 18.21875 35.203125 18.71875 34.125 
Q 19.234375 33.0625 20.625 32.0625 
Q 22.015625 31.0625 24.5 30.046875 
Q 27 29.046875 31 27.875 
Q 35.359375 26.609375 38.328125 25.21875 
Q 41.3125 23.828125 43.15625 22.109375 
Q 45.015625 20.40625 45.8125 18.25 
Q 46.625 16.109375 46.625 13.375 
z
" id="Consolas-with-Yahei-115"/>
     <path d="M 47.3125 0.6875 
Q 44.4375 -0.046875 41.359375 -0.359375 
Q 38.28125 -0.6875 35.109375 -0.6875 
Q 25.875 -0.6875 21.328125 3.484375 
Q 16.796875 7.671875 16.796875 16.3125 
L 16.796875 41.890625 
L 3.078125 41.890625 
L 3.078125 49.03125 
L 16.796875 49.03125 
L 16.796875 62.5 
L 25.296875 64.703125 
L 25.296875 49.03125 
L 47.3125 49.03125 
L 47.3125 41.890625 
L 25.296875 41.890625 
L 25.296875 17 
Q 25.296875 11.71875 28.09375 9.109375 
Q 30.90625 6.5 36.375 6.5 
Q 38.71875 6.5 41.5 6.859375 
Q 44.28125 7.234375 47.3125 8.015625 
z
" id="Consolas-with-Yahei-116"/>
     <path d="M 49.21875 27.09375 
Q 49.21875 25.296875 49.171875 24.078125 
Q 49.125 22.859375 49.03125 21.78125 
L 14.59375 21.78125 
Q 14.59375 14.265625 18.796875 10.234375 
Q 23 6.203125 30.90625 6.203125 
Q 33.0625 6.203125 35.203125 6.375 
Q 37.359375 6.546875 39.359375 6.828125 
Q 41.359375 7.125 43.1875 7.484375 
Q 45.015625 7.859375 46.578125 8.296875 
L 46.578125 1.3125 
Q 43.109375 0.34375 38.734375 -0.265625 
Q 34.375 -0.875 29.6875 -0.875 
Q 23.390625 -0.875 18.84375 0.828125 
Q 14.3125 2.546875 11.40625 5.78125 
Q 8.5 9.03125 7.109375 13.734375 
Q 5.71875 18.453125 5.71875 24.421875 
Q 5.71875 29.59375 7.203125 34.203125 
Q 8.6875 38.8125 11.546875 42.296875 
Q 14.40625 45.796875 18.546875 47.84375 
Q 22.703125 49.90625 27.984375 49.90625 
Q 33.109375 49.90625 37.0625 48.296875 
Q 41.015625 46.6875 43.71875 43.71875 
Q 46.4375 40.765625 47.828125 36.546875 
Q 49.21875 32.328125 49.21875 27.09375 
z
M 40.375 28.328125 
Q 40.53125 31.59375 39.75 34.296875 
Q 38.96875 37.015625 37.328125 38.96875 
Q 35.6875 40.921875 33.25 42.015625 
Q 30.8125 43.109375 27.59375 43.109375 
Q 24.8125 43.109375 22.515625 42.03125 
Q 20.21875 40.96875 18.546875 39.015625 
Q 16.890625 37.0625 15.859375 34.328125 
Q 14.84375 31.59375 14.59375 28.328125 
z
" id="Consolas-with-Yahei-101"/>
     <path d="M 48.484375 31.546875 
L 6.5 31.546875 
L 6.5 38.71875 
L 48.484375 38.71875 
z
M 48.484375 14.546875 
L 6.5 14.546875 
L 6.5 21.734375 
L 48.484375 21.734375 
z
" id="Consolas-with-Yahei-61"/>
     <path d="M 5.328125 23.484375 
Q 5.328125 29.734375 7.03125 34.59375 
Q 8.734375 39.453125 11.890625 42.796875 
Q 15.046875 46.140625 19.453125 47.875 
Q 23.875 49.609375 29.296875 49.609375 
Q 31.640625 49.609375 33.90625 49.3125 
Q 36.1875 49.03125 38.375 48.390625 
L 38.375 69 
L 46.921875 69 
L 46.921875 0 
L 39.3125 0 
L 39.015625 9.28125 
Q 35.453125 4.109375 31.296875 1.609375 
Q 27.15625 -0.875 22.3125 -0.875 
Q 18.109375 -0.875 14.90625 0.875 
Q 11.71875 2.640625 9.59375 5.828125 
Q 7.46875 9.03125 6.390625 13.515625 
Q 5.328125 18.015625 5.328125 23.484375 
z
M 14.015625 24.03125 
Q 14.015625 15.140625 16.625 10.765625 
Q 19.234375 6.390625 24.03125 6.390625 
Q 27.25 6.390625 30.828125 9.265625 
Q 34.421875 12.15625 38.375 17.828125 
L 38.375 40.578125 
Q 36.28125 41.546875 33.734375 42.0625 
Q 31.203125 42.578125 28.71875 42.578125 
Q 21.78125 42.578125 17.890625 38.078125 
Q 14.015625 33.59375 14.015625 24.03125 
z
" id="Consolas-with-Yahei-100"/>
    </defs>
    <g transform="translate(285.24375 26.5975)scale(0.16 -0.16)">
     <use xlink:href="#Consolas-with-Yahei-67"/>
     <use x="54.980469" xlink:href="#Consolas-with-Yahei-32"/>
     <use x="109.960938" xlink:href="#Consolas-with-Yahei-80"/>
     <use x="164.941406" xlink:href="#Consolas-with-Yahei-104"/>
     <use x="219.921875" xlink:href="#Consolas-with-Yahei-114"/>
     <use x="274.902344" xlink:href="#Consolas-with-Yahei-121"/>
     <use x="329.882812" xlink:href="#Consolas-with-Yahei-103"/>
     <use x="384.863281" xlink:href="#Consolas-with-Yahei-105"/>
     <use x="439.84375" xlink:href="#Consolas-with-Yahei-97"/>
     <use x="494.824219" xlink:href="#Consolas-with-Yahei-110"/>
     <use x="549.804688" xlink:href="#Consolas-with-Yahei-40"/>
     <use x="604.785156" xlink:href="#Consolas-with-Yahei-35"/>
     <use x="659.765625" xlink:href="#Consolas-with-Yahei-51"/>
     <use x="714.746094" xlink:href="#Consolas-with-Yahei-41"/>
     <use x="769.726562" xlink:href="#Consolas-with-Yahei-32"/>
     <use x="824.707031" xlink:href="#Consolas-with-Yahei-40"/>
     <use x="879.6875" xlink:href="#Consolas-with-Yahei-99"/>
     <use x="934.667969" xlink:href="#Consolas-with-Yahei-111"/>
     <use x="989.648438" xlink:href="#Consolas-with-Yahei-108"/>
     <use x="1044.628906" xlink:href="#Consolas-with-Yahei-111"/>
     <use x="1099.609375" xlink:href="#Consolas-with-Yahei-114"/>
     <use x="1154.589844" xlink:href="#Consolas-with-Yahei-95"/>
     <use x="1209.570312" xlink:href="#Consolas-with-Yahei-115"/>
     <use x="1264.550781" xlink:href="#Consolas-with-Yahei-116"/>
     <use x="1319.53125" xlink:href="#Consolas-with-Yahei-121"/>
     <use x="1374.511719" xlink:href="#Consolas-with-Yahei-108"/>
     <use x="1429.492188" xlink:href="#Consolas-with-Yahei-101"/>
     <use x="1484.472656" xlink:href="#Consolas-with-Yahei-61"/>
     <use x="1539.453125" xlink:href="#Consolas-with-Yahei-100"/>
     <use x="1594.433594" xlink:href="#Consolas-with-Yahei-101"/>
     <use x="1649.414062" xlink:href="#Consolas-with-Yahei-103"/>
     <use x="1704.394531" xlink:href="#Consolas-with-Yahei-114"/>
     <use x="1759.375" xlink:href="#Consolas-with-Yahei-101"/>
     <use x="1814.355469" xlink:href="#Consolas-with-Yahei-101"/>
     <use x="1869.335938" xlink:href="#Consolas-with-Yahei-41"/>
    </g>
   </g>
   <g id="text_2">
    <!-- 0 -->
    <defs>
     <path d="M 50.6875 31.890625 
Q 50.6875 24.5625 49.21875 18.53125 
Q 47.75 12.5 44.765625 8.171875 
Q 41.796875 3.859375 37.375 1.484375 
Q 32.953125 -0.875 27 -0.875 
Q 21.875 -0.875 17.671875 1.046875 
Q 13.484375 2.984375 10.5 6.984375 
Q 7.515625 10.984375 5.90625 17.1875 
Q 4.296875 23.390625 4.296875 31.890625 
Q 4.296875 39.203125 5.78125 45.25 
Q 7.28125 51.3125 10.234375 55.640625 
Q 13.1875 59.96875 17.625 62.328125 
Q 22.078125 64.703125 27.984375 64.703125 
Q 33.109375 64.703125 37.296875 62.765625 
Q 41.5 60.84375 44.484375 56.8125 
Q 47.46875 52.78125 49.078125 46.578125 
Q 50.6875 40.375 50.6875 31.890625 
z
M 42.09375 31.59375 
Q 42.09375 33.25 41.96875 34.890625 
Q 41.84375 36.53125 41.703125 38.09375 
L 14.703125 18.015625 
Q 15.4375 15.484375 16.546875 13.328125 
Q 17.671875 11.1875 19.25 9.640625 
Q 20.84375 8.109375 22.875 7.25 
Q 24.90625 6.390625 27.484375 6.390625 
Q 30.8125 6.390625 33.515625 8 
Q 36.234375 9.625 38.140625 12.796875 
Q 40.046875 15.96875 41.0625 20.671875 
Q 42.09375 25.390625 42.09375 31.59375 
z
M 12.890625 32.171875 
Q 12.890625 30.671875 12.90625 29.15625 
Q 12.9375 27.640625 13.09375 26.21875 
L 40.09375 46.1875 
Q 39.359375 48.6875 38.234375 50.734375 
Q 37.109375 52.78125 35.546875 54.265625 
Q 33.984375 55.765625 31.984375 56.59375 
Q 29.984375 57.421875 27.484375 57.421875 
Q 24.171875 57.421875 21.453125 55.8125 
Q 18.75 54.203125 16.84375 51 
Q 14.9375 47.796875 13.90625 43.078125 
Q 12.890625 38.375 12.890625 32.171875 
z
" id="Consolas-with-Yahei-48"/>
    </defs>
    <g transform="translate(64.515536 211.690179)scale(0.16 -0.16)">
     <use xlink:href="#Consolas-with-Yahei-48"/>
    </g>
   </g>
   <g id="text_3">
    <!-- 1 -->
    <defs>
     <path d="M 48.6875 0 
L 8.59375 0 
L 8.59375 7.90625 
L 25 7.90625 
L 25 54.5 
L 9.71875 46.1875 
L 6.59375 53.421875 
L 26.90625 64.109375 
L 34.421875 64.109375 
L 34.421875 7.90625 
L 48.6875 7.90625 
z
" id="Consolas-with-Yahei-49"/>
    </defs>
    <g transform="translate(126.229821 211.690179)scale(0.16 -0.16)">
     <use xlink:href="#Consolas-with-Yahei-49"/>
    </g>
   </g>
   <g id="text_4">
    <!-- 2 -->
    <defs>
     <path d="M 49.21875 0 
L 7.171875 0 
L 7.171875 7.625 
L 23.6875 24.03125 
Q 27.734375 28.03125 30.265625 30.953125 
Q 32.8125 33.890625 34.21875 36.296875 
Q 35.640625 38.71875 36.125 40.859375 
Q 36.625 43.015625 36.625 45.515625 
Q 36.625 47.859375 35.984375 49.96875 
Q 35.359375 52.09375 34.03125 53.703125 
Q 32.71875 55.328125 30.609375 56.25 
Q 28.515625 57.171875 25.59375 57.171875 
Q 21.53125 57.171875 18.203125 55.359375 
Q 14.890625 53.5625 12.109375 50.6875 
L 7.421875 56.296875 
Q 11.03125 60.109375 15.734375 62.40625 
Q 20.453125 64.703125 26.703125 64.703125 
Q 30.953125 64.703125 34.4375 63.421875 
Q 37.9375 62.15625 40.46875 59.765625 
Q 43.015625 57.375 44.40625 53.90625 
Q 45.796875 50.4375 45.796875 46.09375 
Q 45.796875 42.4375 44.8125 39.3125 
Q 43.84375 36.1875 41.859375 33.078125 
Q 39.890625 29.984375 36.890625 26.65625 
Q 33.890625 23.34375 29.78125 19.390625 
L 18.21875 8.109375 
L 49.21875 8.109375 
z
" id="Consolas-with-Yahei-50"/>
    </defs>
    <g transform="translate(187.944107 211.690179)scale(0.16 -0.16)">
     <use xlink:href="#Consolas-with-Yahei-50"/>
    </g>
   </g>
   <g id="text_5">
    <!-- 3 -->
    <g transform="translate(249.658393 211.690179)scale(0.16 -0.16)">
     <use xlink:href="#Consolas-with-Yahei-51"/>
    </g>
   </g>
   <g id="text_6">
    <!-- 4 -->
    <defs>
     <path d="M 52.390625 14.109375 
L 41.5 14.109375 
L 41.5 0 
L 32.8125 0 
L 32.8125 14.109375 
L 2.09375 14.109375 
L 2.09375 21.578125 
L 29.296875 63.8125 
L 41.5 63.8125 
L 41.5 21.578125 
L 52.390625 21.578125 
z
M 32.8125 55.609375 
L 10.59375 21.578125 
L 32.8125 21.578125 
z
" id="Consolas-with-Yahei-52"/>
    </defs>
    <g transform="translate(311.372679 211.690179)scale(0.16 -0.16)">
     <use xlink:href="#Consolas-with-Yahei-52"/>
    </g>
   </g>
   <g id="text_7">
    <!-- 5 -->
    <defs>
     <path d="M 47.609375 20.40625 
Q 47.609375 15.671875 45.546875 11.765625 
Q 43.5 7.859375 39.90625 5.046875 
Q 36.328125 2.25 31.4375 0.6875 
Q 26.5625 -0.875 20.90625 -0.875 
Q 19.484375 -0.875 17.84375 -0.796875 
Q 16.21875 -0.734375 14.59375 -0.609375 
Q 12.984375 -0.484375 11.4375 -0.34375 
Q 9.90625 -0.203125 8.6875 0 
L 8.6875 7.71875 
Q 11.328125 7.078125 14.71875 6.78125 
Q 18.109375 6.5 21.578125 6.5 
Q 25.484375 6.5 28.609375 7.421875 
Q 31.734375 8.34375 33.9375 10.078125 
Q 36.140625 11.8125 37.3125 14.28125 
Q 38.484375 16.75 38.484375 19.828125 
Q 38.484375 25.78125 34.203125 28.484375 
Q 29.9375 31.203125 21.921875 31.203125 
L 9.8125 31.203125 
L 9.8125 63.8125 
L 44.1875 63.8125 
L 44.1875 56.390625 
L 17.828125 56.390625 
L 17.828125 38.484375 
L 23.390625 38.484375 
Q 27.984375 38.484375 32.328125 37.640625 
Q 36.671875 36.8125 40.0625 34.734375 
Q 43.453125 32.671875 45.53125 29.171875 
Q 47.609375 25.6875 47.609375 20.40625 
z
" id="Consolas-with-Yahei-53"/>
    </defs>
    <g transform="translate(373.086964 211.690179)scale(0.16 -0.16)">
     <use xlink:href="#Consolas-with-Yahei-53"/>
    </g>
   </g>
   <g id="text_8">
    <!-- 6 -->
    <defs>
     <path d="M 50 20.21875 
Q 50 15.828125 48.40625 11.96875 
Q 46.828125 8.109375 43.890625 5.25 
Q 40.96875 2.390625 36.84375 0.75 
Q 32.71875 -0.875 27.6875 -0.875 
Q 22.40625 -0.875 18.359375 0.796875 
Q 14.3125 2.484375 11.578125 5.96875 
Q 8.84375 9.46875 7.421875 14.796875 
Q 6 20.125 6 27.390625 
Q 6 32.28125 6.640625 36.859375 
Q 7.28125 41.453125 8.734375 45.5 
Q 10.203125 49.5625 12.640625 52.921875 
Q 15.09375 56.296875 18.71875 58.71875 
Q 22.359375 61.140625 27.296875 62.46875 
Q 32.234375 63.8125 38.71875 63.8125 
L 45.015625 63.8125 
L 45.015625 56.390625 
L 38.1875 56.390625 
Q 32.46875 56.390625 28.265625 55.015625 
Q 24.078125 53.65625 21.234375 51.171875 
Q 18.40625 48.6875 16.890625 45.171875 
Q 15.375 41.65625 14.984375 37.3125 
L 14.796875 35.296875 
Q 17.875 37.109375 21.890625 38.203125 
Q 25.921875 39.3125 30.609375 39.3125 
Q 35.453125 39.3125 39.078125 37.890625 
Q 42.71875 36.46875 45.140625 33.953125 
Q 47.5625 31.453125 48.78125 27.9375 
Q 50 24.421875 50 20.21875 
z
M 41.109375 19.671875 
Q 41.109375 22.609375 40.40625 24.96875 
Q 39.703125 27.34375 38.1875 28.96875 
Q 36.671875 30.609375 34.34375 31.515625 
Q 32.03125 32.421875 28.8125 32.421875 
Q 26.953125 32.421875 25.046875 32.078125 
Q 23.140625 31.734375 21.3125 31.125 
Q 19.484375 30.515625 17.8125 29.734375 
Q 16.15625 28.953125 14.796875 28.078125 
Q 14.796875 21.78125 15.671875 17.546875 
Q 16.546875 13.328125 18.28125 10.78125 
Q 20.015625 8.25 22.546875 7.171875 
Q 25.09375 6.109375 28.421875 6.109375 
Q 31.203125 6.109375 33.515625 7 
Q 35.84375 7.90625 37.515625 9.65625 
Q 39.203125 11.421875 40.15625 13.9375 
Q 41.109375 16.453125 41.109375 19.671875 
z
" id="Consolas-with-Yahei-54"/>
    </defs>
    <g transform="translate(434.80125 211.690179)scale(0.16 -0.16)">
     <use xlink:href="#Consolas-with-Yahei-54"/>
    </g>
   </g>
   <g id="text_9">
    <!-- 7 -->
    <defs>
     <path d="M 48.875 55.90625 
L 22.125 0 
L 12.40625 0 
L 40.1875 55.90625 
L 5.71875 55.90625 
L 5.71875 63.8125 
L 48.875 63.8125 
z
" id="Consolas-with-Yahei-55"/>
    </defs>
    <g transform="translate(496.515536 211.690179)scale(0.16 -0.16)">
     <use xlink:href="#Consolas-with-Yahei-55"/>
    </g>
   </g>
   <g id="text_10">
    <!-- 8 -->
    <defs>
     <path d="M 49.21875 16.015625 
Q 49.21875 11.96875 47.5625 8.8125 
Q 45.90625 5.671875 42.921875 3.515625 
Q 39.9375 1.375 35.890625 0.25 
Q 31.84375 -0.875 27.09375 -0.875 
Q 21.875 -0.875 17.890625 0.296875 
Q 13.921875 1.46875 11.234375 3.5625 
Q 8.546875 5.671875 7.171875 8.546875 
Q 5.8125 11.421875 5.8125 14.890625 
Q 5.8125 20.75 9.078125 25 
Q 12.359375 29.25 19.1875 32.71875 
Q 12.9375 35.890625 10.046875 39.765625 
Q 7.171875 43.65625 7.171875 48.6875 
Q 7.171875 51.765625 8.4375 54.640625 
Q 9.71875 57.515625 12.28125 59.765625 
Q 14.84375 62.015625 18.703125 63.359375 
Q 22.5625 64.703125 27.78125 64.703125 
Q 32.71875 64.703125 36.453125 63.640625 
Q 40.1875 62.59375 42.71875 60.640625 
Q 45.265625 58.6875 46.53125 55.90625 
Q 47.796875 53.125 47.796875 49.703125 
Q 47.796875 44.140625 44.703125 40.234375 
Q 41.609375 36.328125 35.890625 33.40625 
Q 38.71875 31.984375 41.15625 30.265625 
Q 43.609375 28.5625 45.40625 26.453125 
Q 47.21875 24.359375 48.21875 21.765625 
Q 49.21875 19.1875 49.21875 16.015625 
z
M 39.109375 49.03125 
Q 39.109375 53.375 36.0625 55.5 
Q 33.015625 57.625 27.484375 57.625 
Q 22.015625 57.625 18.96875 55.515625 
Q 15.921875 53.421875 15.921875 49.21875 
Q 15.921875 47.3125 16.65625 45.703125 
Q 17.390625 44.09375 18.921875 42.671875 
Q 20.453125 41.265625 22.75 39.890625 
Q 25.046875 38.53125 28.21875 37.109375 
Q 33.734375 39.703125 36.421875 42.5 
Q 39.109375 45.3125 39.109375 49.03125 
z
M 39.984375 15.375 
Q 39.984375 17.1875 39.390625 18.890625 
Q 38.8125 20.609375 37.296875 22.265625 
Q 35.796875 23.921875 33.25 25.578125 
Q 30.71875 27.25 26.8125 29 
Q 23.484375 27.390625 21.21875 25.796875 
Q 18.953125 24.21875 17.546875 22.578125 
Q 16.15625 20.953125 15.5625 19.1875 
Q 14.984375 17.4375 14.984375 15.484375 
Q 14.984375 13.28125 15.9375 11.59375 
Q 16.890625 9.90625 18.546875 8.734375 
Q 20.21875 7.5625 22.515625 6.96875 
Q 24.8125 6.390625 27.484375 6.390625 
Q 30.078125 6.390625 32.375 6.921875 
Q 34.671875 7.46875 36.34375 8.5625 
Q 38.03125 9.671875 39 11.34375 
Q 39.984375 13.03125 39.984375 15.375 
z
" id="Consolas-with-Yahei-56"/>
    </defs>
    <g transform="translate(558.229821 211.690179)scale(0.16 -0.16)">
     <use xlink:href="#Consolas-with-Yahei-56"/>
    </g>
   </g>
   <g id="text_11">
    <!-- 9 -->
    <defs>
     <path d="M 48.875 35.5 
Q 48.875 26.171875 46.625 19.453125 
Q 44.390625 12.75 39.984375 8.421875 
Q 35.59375 4.109375 29.09375 2.046875 
Q 22.609375 0 14.109375 0 
L 8.796875 0 
L 8.796875 7.421875 
L 14.703125 7.421875 
Q 21 7.421875 25.578125 8.6875 
Q 30.171875 9.96875 33.21875 12.421875 
Q 36.28125 14.890625 37.890625 18.421875 
Q 39.5 21.96875 39.890625 26.515625 
L 40.09375 28.515625 
Q 37.015625 26.703125 33 25.609375 
Q 29 24.515625 24.3125 24.515625 
Q 19.484375 24.515625 15.8125 25.921875 
Q 12.15625 27.34375 9.734375 29.875 
Q 7.328125 32.421875 6.109375 35.90625 
Q 4.890625 39.40625 4.890625 43.5 
Q 4.890625 47.953125 6.5 51.8125 
Q 8.109375 55.671875 11.015625 58.515625 
Q 13.921875 61.375 17.96875 63.03125 
Q 22.015625 64.703125 26.90625 64.703125 
Q 31.640625 64.703125 35.671875 63.140625 
Q 39.703125 61.578125 42.625 58.078125 
Q 45.5625 54.59375 47.21875 49.015625 
Q 48.875 43.453125 48.875 35.5 
z
M 26.515625 57.71875 
Q 23.78125 57.71875 21.453125 56.8125 
Q 19.140625 55.90625 17.453125 54.171875 
Q 15.765625 52.4375 14.78125 49.890625 
Q 13.8125 47.359375 13.8125 44.09375 
Q 13.8125 41.109375 14.515625 38.765625 
Q 15.234375 36.421875 16.71875 34.78125 
Q 18.21875 33.15625 20.5625 32.265625 
Q 22.90625 31.390625 26.125 31.390625 
Q 27.9375 31.390625 29.859375 31.734375 
Q 31.78125 32.078125 33.609375 32.65625 
Q 35.453125 33.25 37.109375 34.03125 
Q 38.765625 34.8125 40.09375 35.6875 
Q 40.09375 42 39.15625 46.21875 
Q 38.234375 50.4375 36.46875 53 
Q 34.71875 55.5625 32.203125 56.640625 
Q 29.6875 57.71875 26.515625 57.71875 
z
" id="Consolas-with-Yahei-57"/>
    </defs>
    <g transform="translate(619.944107 211.690179)scale(0.16 -0.16)">
     <use xlink:href="#Consolas-with-Yahei-57"/>
    </g>
   </g>
   <g id="text_12">
    <!-- 10 -->
    <g transform="translate(677.259643 211.690179)scale(0.16 -0.16)">
     <use xlink:href="#Consolas-with-Yahei-49"/>
     <use x="54.980469" xlink:href="#Consolas-with-Yahei-48"/>
    </g>
   </g>
   <g id="text_13">
    <!-- 11 -->
    <g transform="translate(738.973929 211.690179)scale(0.16 -0.16)">
     <use xlink:href="#Consolas-with-Yahei-49"/>
     <use x="54.980469" xlink:href="#Consolas-with-Yahei-49"/>
    </g>
   </g>
   <g id="text_14">
    <!-- 12 -->
    <g transform="translate(800.688214 211.690179)scale(0.16 -0.16)">
     <use xlink:href="#Consolas-with-Yahei-49"/>
     <use x="54.980469" xlink:href="#Consolas-with-Yahei-50"/>
    </g>
   </g>
   <g id="text_15">
    <!-- 0 -->
    <g style="fill:#ffffff;" transform="translate(95.372679 72.833036)scale(0.16 -0.16)">
     <use xlink:href="#Consolas-with-Yahei-48"/>
    </g>
   </g>
   <g id="text_16">
    <!-- 0 -->
    <g style="fill:#ffffff;" transform="translate(218.80125 165.404464)scale(0.16 -0.16)">
     <use xlink:href="#Consolas-with-Yahei-48"/>
    </g>
   </g>
   <g id="text_17">
    <!-- 0 -->
    <g style="fill:#ffffff;" transform="translate(342.229821 103.690179)scale(0.16 -0.16)">
     <use xlink:href="#Consolas-with-Yahei-48"/>
    </g>
   </g>
   <g id="text_18">
    <!-- 0 -->
    <g style="fill:#ffffff;" transform="translate(527.372679 196.261607)scale(0.16 -0.16)">
     <use xlink:href="#Consolas-with-Yahei-48"/>
    </g>
   </g>
   <g id="text_19">
    <!-- 0 -->
    <g style="fill:#ffffff;" transform="translate(527.372679 41.975893)scale(0.16 -0.16)">
     <use xlink:href="#Consolas-with-Yahei-48"/>
    </g>
   </g>
   <g id="text_20">
    <!-- 0 -->
    <g style="fill:#ffffff;" transform="translate(650.80125 134.547321)scale(0.16 -0.16)">
     <use xlink:href="#Consolas-with-Yahei-48"/>
    </g>
   </g>
   <g id="text_21">
    <!-- 1 -->
    <g style="fill:#ffffff;" transform="translate(157.086964 72.833036)scale(0.16 -0.16)">
     <use xlink:href="#Consolas-with-Yahei-49"/>
    </g>
   </g>
   <g id="text_22">
    <!-- 1 -->
    <g style="fill:#ffffff;" transform="translate(280.515536 165.404464)scale(0.16 -0.16)">
     <use xlink:href="#Consolas-with-Yahei-49"/>
    </g>
   </g>
   <g id="text_23">
    <!-- 1 -->
    <g style="fill:#ffffff;" transform="translate(403.944107 103.690179)scale(0.16 -0.16)">
     <use xlink:href="#Consolas-with-Yahei-49"/>
    </g>
   </g>
   <g id="text_24">
    <!-- 1 -->
    <g style="fill:#ffffff;" transform="translate(589.086964 196.261607)scale(0.16 -0.16)">
     <use xlink:href="#Consolas-with-Yahei-49"/>
    </g>
   </g>
   <g id="text_25">
    <!-- 1 -->
    <g style="fill:#ffffff;" transform="translate(589.086964 41.975893)scale(0.16 -0.16)">
     <use xlink:href="#Consolas-with-Yahei-49"/>
    </g>
   </g>
   <g id="text_26">
    <!-- 1 -->
    <g style="fill:#ffffff;" transform="translate(712.515536 134.547321)scale(0.16 -0.16)">
     <use xlink:href="#Consolas-with-Yahei-49"/>
    </g>
   </g>
   <g id="text_27">
    <!-- 2 -->
    <g transform="translate(49.086964 196.261607)scale(0.16 -0.16)">
     <use xlink:href="#Consolas-with-Yahei-50"/>
    </g>
   </g>
   <g id="text_28">
    <!-- 2 -->
    <g transform="translate(49.086964 41.975893)scale(0.16 -0.16)">
     <use xlink:href="#Consolas-with-Yahei-50"/>
    </g>
   </g>
   <g id="text_29">
    <!-- 2 -->
    <g style="fill:#ffffff;" transform="translate(157.086964 134.547321)scale(0.16 -0.16)">
     <use xlink:href="#Consolas-with-Yahei-50"/>
    </g>
   </g>
   <g id="text_30">
    <!-- 2 -->
    <g style="fill:#ffffff;" transform="translate(342.229821 72.833036)scale(0.16 -0.16)">
     <use xlink:href="#Consolas-with-Yahei-50"/>
    </g>
   </g>
   <g id="text_31">
    <!-- 2 -->
    <g style="fill:#ffffff;" transform="translate(465.658393 165.404464)scale(0.16 -0.16)">
     <use xlink:href="#Consolas-with-Yahei-50"/>
    </g>
   </g>
   <g id="text_32">
    <!-- 2 -->
    <g style="fill:#ffffff;" transform="translate(589.086964 103.690179)scale(0.16 -0.16)">
     <use xlink:href="#Consolas-with-Yahei-50"/>
    </g>
   </g>
   <g id="text_33">
    <!-- 2 -->
    <g style="fill:#ffffff;" transform="translate(774.229821 196.261607)scale(0.16 -0.16)">
     <use xlink:href="#Consolas-with-Yahei-50"/>
    </g>
   </g>
   <g id="text_34">
    <!-- 2 -->
    <g style="fill:#ffffff;" transform="translate(774.229821 41.975893)scale(0.16 -0.16)">
     <use xlink:href="#Consolas-with-Yahei-50"/>
    </g>
   </g>
   <g id="text_35">
    <!-- 3 -->
    <g style="fill:#ffffff;" transform="translate(95.372679 196.261607)scale(0.16 -0.16)">
     <use xlink:href="#Consolas-with-Yahei-51"/>
    </g>
   </g>
   <g id="text_36">
    <!-- 3 -->
    <g style="fill:#ffffff;" transform="translate(95.372679 41.975893)scale(0.16 -0.16)">
     <use xlink:href="#Consolas-with-Yahei-51"/>
    </g>
   </g>
   <g id="text_37">
    <!-- 3 -->
    <g style="fill:#ffffff;" transform="translate(218.80125 134.547321)scale(0.16 -0.16)">
     <use xlink:href="#Consolas-with-Yahei-51"/>
    </g>
   </g>
   <g id="text_38">
    <!-- 3 -->
    <g style="fill:#ffffff;" transform="translate(403.944107 72.833036)scale(0.16 -0.16)">
     <use xlink:href="#Consolas-with-Yahei-51"/>
    </g>
   </g>
   <g id="text_39">
    <!-- 3 -->
    <g style="fill:#ffffff;" transform="translate(527.372679 165.404464)scale(0.16 -0.16)">
     <use xlink:href="#Consolas-with-Yahei-51"/>
    </g>
   </g>
   <g id="text_40">
    <!-- 3 -->
    <g style="fill:#ffffff;" transform="translate(650.80125 103.690179)scale(0.16 -0.16)">
     <use xlink:href="#Consolas-with-Yahei-51"/>
    </g>
   </g>
   <g id="text_41">
    <!-- 4 -->
    <g transform="translate(49.086964 103.690179)scale(0.16 -0.16)">
     <use xlink:href="#Consolas-with-Yahei-52"/>
    </g>
   </g>
   <g id="text_42">
    <!-- 4 -->
    <g style="fill:#ffffff;" transform="translate(218.80125 196.261607)scale(0.16 -0.16)">
     <use xlink:href="#Consolas-with-Yahei-52"/>
    </g>
   </g>
   <g id="text_43">
    <!-- 4 -->
    <g style="fill:#ffffff;" transform="translate(218.80125 41.975893)scale(0.16 -0.16)">
     <use xlink:href="#Consolas-with-Yahei-52"/>
    </g>
   </g>
   <g id="text_44">
    <!-- 4 -->
    <g style="fill:#ffffff;" transform="translate(342.229821 134.547321)scale(0.16 -0.16)">
     <use xlink:href="#Consolas-with-Yahei-52"/>
    </g>
   </g>
   <g id="text_45">
    <!-- 4 -->
    <g style="fill:#ffffff;" transform="translate(527.372679 72.833036)scale(0.16 -0.16)">
     <use xlink:href="#Consolas-with-Yahei-52"/>
    </g>
   </g>
   <g id="text_46">
    <!-- 4 -->
    <g style="fill:#ffffff;" transform="translate(650.80125 165.404464)scale(0.16 -0.16)">
     <use xlink:href="#Consolas-with-Yahei-52"/>
    </g>
   </g>
   <g id="text_47">
    <!-- 4 -->
    <g style="fill:#ffffff;" transform="translate(774.229821 103.690179)scale(0.16 -0.16)">
     <use xlink:href="#Consolas-with-Yahei-52"/>
    </g>
   </g>
   <g id="text_48">
    <!-- 5 -->
    <g style="fill:#ffffff;" transform="translate(95.372679 103.690179)scale(0.16 -0.16)">
     <use xlink:href="#Consolas-with-Yahei-53"/>
    </g>
   </g>
   <g id="text_49">
    <!-- 5 -->
    <g style="fill:#ffffff;" transform="translate(280.515536 196.261607)scale(0.16 -0.16)">
     <use xlink:href="#Consolas-with-Yahei-53"/>
    </g>
   </g>
   <g id="text_50">
    <!-- 5 -->
    <g style="fill:#ffffff;" transform="translate(280.515536 41.975893)scale(0.16 -0.16)">
     <use xlink:href="#Consolas-with-Yahei-53"/>
    </g>
   </g>
   <g id="text_51">
    <!-- 5 -->
    <g style="fill:#ffffff;" transform="translate(403.944107 134.547321)scale(0.16 -0.16)">
     <use xlink:href="#Consolas-with-Yahei-53"/>
    </g>
   </g>
   <g id="text_52">
    <!-- 5 -->
    <g style="fill:#ffffff;" transform="translate(589.086964 72.833036)scale(0.16 -0.16)">
     <use xlink:href="#Consolas-with-Yahei-53"/>
    </g>
   </g>
   <g id="text_53">
    <!-- 5 -->
    <g style="fill:#ffffff;" transform="translate(712.515536 165.404464)scale(0.16 -0.16)">
     <use xlink:href="#Consolas-with-Yahei-53"/>
    </g>
   </g>
   <g id="text_54">
    <!-- 6 -->
    <g style="fill:#ffffff;" transform="translate(95.372679 165.404464)scale(0.16 -0.16)">
     <use xlink:href="#Consolas-with-Yahei-54"/>
    </g>
   </g>
   <g id="text_55">
    <!-- 6 -->
    <g style="fill:#ffffff;" transform="translate(218.80125 103.690179)scale(0.16 -0.16)">
     <use xlink:href="#Consolas-with-Yahei-54"/>
    </g>
   </g>
   <g id="text_56">
    <!-- 6 -->
    <g style="fill:#ffffff;" transform="translate(403.944107 196.261607)scale(0.16 -0.16)">
     <use xlink:href="#Consolas-with-Yahei-54"/>
    </g>
   </g>
   <g id="text_57">
    <!-- 6 -->
    <g style="fill:#ffffff;" transform="translate(403.944107 41.975893)scale(0.16 -0.16)">
     <use xlink:href="#Consolas-with-Yahei-54"/>
    </g>
   </g>
   <g id="text_58">
    <!-- 6 -->
    <g style="fill:#ffffff;" transform="translate(527.372679 134.547321)scale(0.16 -0.16)">
     <use xlink:href="#Consolas-with-Yahei-54"/>
    </g>
   </g>
   <g id="text_59">
    <!-- 6 -->
    <g style="fill:#ffffff;" transform="translate(712.515536 72.833036)scale(0.16 -0.16)">
     <use xlink:href="#Consolas-with-Yahei-54"/>
    </g>
   </g>
  </g>
 </g>
 <defs>
  <clipPath id="pa6034118b8">
   <rect height="216" width="864" x="7.2" y="7.2"/>
  </clipPath>
 </defs>
</svg>
