<?xml version="1.0" encoding="utf-8" standalone="no"?>
<!DOCTYPE svg PUBLIC "-//W3C//DTD SVG 1.1//EN"
  "http://www.w3.org/Graphics/SVG/1.1/DTD/svg11.dtd">
<!-- Created with matplotlib (https://matplotlib.org/) -->
<svg height="239.559pt" version="1.1" viewBox="0 0 364.581818 239.559" width="364.581818pt" xmlns="http://www.w3.org/2000/svg" xmlns:xlink="http://www.w3.org/1999/xlink">
 <defs>
  <style type="text/css">
*{stroke-linecap:butt;stroke-linejoin:round;}
  </style>
 </defs>
 <g id="figure_1">
  <g id="patch_1">
   <path d="M 0 239.559 
L 364.581818 239.559 
L 364.581818 0 
L 0 0 
z
" style="fill:#ffffff;"/>
  </g>
  <g id="axes_1">
   <g id="patch_2">
    <path clip-path="url(#p1cb2414530)" d="M -14.072727 229.086273 
L 35.018182 229.086273 
L 35.018182 32.722636 
L -14.072727 32.722636 
z
" style="fill:#ffffff;stroke:#000000;stroke-width:2;"/>
   </g>
   <g id="patch_3">
    <path clip-path="url(#p1cb2414530)" d="M 35.018182 229.086273 
L 84.109091 229.086273 
L 84.109091 32.722636 
L 35.018182 32.722636 
z
" style="fill:#ffffff;stroke:#000000;stroke-width:2;"/>
   </g>
   <g id="patch_4">
    <path clip-path="url(#p1cb2414530)" d="M 84.109091 229.086273 
L 133.2 229.086273 
L 133.2 32.722636 
L 84.109091 32.722636 
z
" style="fill:#ffffff;stroke:#000000;stroke-width:2;"/>
   </g>
   <g id="patch_5">
    <path clip-path="url(#p1cb2414530)" d="M 133.2 229.086273 
L 182.290909 229.086273 
L 182.290909 32.722636 
L 133.2 32.722636 
z
" style="fill:#ffffff;stroke:#000000;stroke-width:2;"/>
   </g>
   <g id="patch_6">
    <path clip-path="url(#p1cb2414530)" d="M 182.290909 229.086273 
L 231.381818 229.086273 
L 231.381818 32.722636 
L 182.290909 32.722636 
z
" style="fill:#ffffff;stroke:#000000;stroke-width:2;"/>
   </g>
   <g id="patch_7">
    <path clip-path="url(#p1cb2414530)" d="M 231.381818 229.086273 
L 280.472727 229.086273 
L 280.472727 32.722636 
L 231.381818 32.722636 
z
" style="fill:#ffffff;stroke:#000000;stroke-width:2;"/>
   </g>
   <g id="patch_8">
    <path clip-path="url(#p1cb2414530)" d="M 280.472727 229.086273 
L 329.563636 229.086273 
L 329.563636 32.722636 
L 280.472727 32.722636 
z
" style="fill:#ffffff;stroke:#000000;stroke-width:2;"/>
   </g>
   <g id="patch_9">
    <path clip-path="url(#p1cb2414530)" d="M 329.563636 229.086273 
L 378.654545 229.086273 
L 378.654545 32.722636 
L 329.563636 32.722636 
z
" style="fill:#ffffff;stroke:#000000;stroke-width:2;"/>
   </g>
   <g id="patch_10">
    <path clip-path="url(#p1cb2414530)" d="M 378.654545 229.086273 
L 427.745455 229.086273 
L 427.745455 32.722636 
L 378.654545 32.722636 
z
" style="fill:#ffffff;stroke:#000000;stroke-width:2;"/>
   </g>
   <g id="patch_11">
    <path clip-path="url(#p1cb2414530)" d="M -30.436364 147.268091 
L 2.290909 147.268091 
L 2.290909 32.722636 
L -30.436364 32.722636 
z
" style="stroke:#000000;stroke-width:2;"/>
   </g>
   <g id="patch_12">
    <path clip-path="url(#p1cb2414530)" d="M 67.745455 147.268091 
L 100.472727 147.268091 
L 100.472727 32.722636 
L 67.745455 32.722636 
z
" style="stroke:#000000;stroke-width:2;"/>
   </g>
   <g id="patch_13">
    <path clip-path="url(#p1cb2414530)" d="M 116.836364 147.268091 
L 149.563636 147.268091 
L 149.563636 32.722636 
L 116.836364 32.722636 
z
" style="stroke:#000000;stroke-width:2;"/>
   </g>
   <g id="patch_14">
    <path clip-path="url(#p1cb2414530)" d="M 215.018182 147.268091 
L 247.745455 147.268091 
L 247.745455 32.722636 
L 215.018182 32.722636 
z
" style="stroke:#000000;stroke-width:2;"/>
   </g>
   <g id="patch_15">
    <path clip-path="url(#p1cb2414530)" d="M 264.109091 147.268091 
L 296.836364 147.268091 
L 296.836364 32.722636 
L 264.109091 32.722636 
z
" style="stroke:#000000;stroke-width:2;"/>
   </g>
   <g id="patch_16">
    <path clip-path="url(#p1cb2414530)" d="M 313.2 147.268091 
L 345.927273 147.268091 
L 345.927273 32.722636 
L 313.2 32.722636 
z
" style="stroke:#000000;stroke-width:2;"/>
   </g>
   <g id="patch_17">
    <path clip-path="url(#p1cb2414530)" d="M 59.563636 217.631727 
C 63.035386 217.631727 66.365409 216.252387 68.820307 213.797489 
C 71.275205 211.342591 72.654545 208.012568 72.654545 204.540818 
C 72.654545 201.069069 71.275205 197.739045 68.820307 195.284148 
C 66.365409 192.82925 63.035386 191.449909 59.563636 191.449909 
C 56.091887 191.449909 52.761864 192.82925 50.306966 195.284148 
C 47.852068 197.739045 46.472727 201.069069 46.472727 204.540818 
C 46.472727 208.012568 47.852068 211.342591 50.306966 213.797489 
C 52.761864 216.252387 56.091887 217.631727 59.563636 217.631727 
z
" style="fill:#32cd32;stroke:#222222;stroke-linejoin:miter;"/>
   </g>
   <g id="patch_18">
    <path clip-path="url(#p1cb2414530)" d="M 108.654545 217.631727 
C 112.126295 217.631727 115.456318 216.252387 117.911216 213.797489 
C 120.366114 211.342591 121.745455 208.012568 121.745455 204.540818 
C 121.745455 201.069069 120.366114 197.739045 117.911216 195.284148 
C 115.456318 192.82925 112.126295 191.449909 108.654545 191.449909 
C 105.182796 191.449909 101.852773 192.82925 99.397875 195.284148 
C 96.942977 197.739045 95.563636 201.069069 95.563636 204.540818 
C 95.563636 208.012568 96.942977 211.342591 99.397875 213.797489 
C 101.852773 216.252387 105.182796 217.631727 108.654545 217.631727 
z
" style="fill:#708090;stroke:#222222;stroke-linejoin:miter;"/>
   </g>
   <g id="patch_19">
    <path clip-path="url(#p1cb2414530)" d="M 133.2 135.813545 
C 136.67175 135.813545 140.001773 134.434205 142.456671 131.979307 
C 144.911568 129.524409 146.290909 126.194386 146.290909 122.722636 
C 146.290909 119.250887 144.911568 115.920864 142.456671 113.465966 
C 140.001773 111.011068 136.67175 109.631727 133.2 109.631727 
C 129.72825 109.631727 126.398227 111.011068 123.943329 113.465966 
C 121.488432 115.920864 120.109091 119.250887 120.109091 122.722636 
C 120.109091 126.194386 121.488432 129.524409 123.943329 131.979307 
C 126.398227 134.434205 129.72825 135.813545 133.2 135.813545 
z
" style="fill:#32cd32;stroke:#222222;stroke-linejoin:miter;"/>
   </g>
   <g id="patch_20">
    <path clip-path="url(#p1cb2414530)" d="M 157.745455 217.631727 
C 161.217204 217.631727 164.547227 216.252387 167.002125 213.797489 
C 169.457023 211.342591 170.836364 208.012568 170.836364 204.540818 
C 170.836364 201.069069 169.457023 197.739045 167.002125 195.284148 
C 164.547227 192.82925 161.217204 191.449909 157.745455 191.449909 
C 154.273705 191.449909 150.943682 192.82925 148.488784 195.284148 
C 146.033886 197.739045 144.654545 201.069069 144.654545 204.540818 
C 144.654545 208.012568 146.033886 211.342591 148.488784 213.797489 
C 150.943682 216.252387 154.273705 217.631727 157.745455 217.631727 
z
" style="fill:#ff0000;stroke:#222222;stroke-linejoin:miter;"/>
   </g>
   <g id="patch_21">
    <path clip-path="url(#p1cb2414530)" d="M 255.927273 217.631727 
C 259.399022 217.631727 262.729046 216.252387 265.183943 213.797489 
C 267.638841 211.342591 269.018182 208.012568 269.018182 204.540818 
C 269.018182 201.069069 267.638841 197.739045 265.183943 195.284148 
C 262.729046 192.82925 259.399022 191.449909 255.927273 191.449909 
C 252.455523 191.449909 249.1255 192.82925 246.670602 195.284148 
C 244.215704 197.739045 242.836364 201.069069 242.836364 204.540818 
C 242.836364 208.012568 244.215704 211.342591 246.670602 213.797489 
C 249.1255 216.252387 252.455523 217.631727 255.927273 217.631727 
z
" style="fill:#32cd32;stroke:#222222;stroke-linejoin:miter;"/>
   </g>
   <g id="patch_22">
    <path clip-path="url(#p1cb2414530)" d="M 305.018182 217.631727 
C 308.489931 217.631727 311.819955 216.252387 314.274852 213.797489 
C 316.72975 211.342591 318.109091 208.012568 318.109091 204.540818 
C 318.109091 201.069069 316.72975 197.739045 314.274852 195.284148 
C 311.819955 192.82925 308.489931 191.449909 305.018182 191.449909 
C 301.546432 191.449909 298.216409 192.82925 295.761511 195.284148 
C 293.306613 197.739045 291.927273 201.069069 291.927273 204.540818 
C 291.927273 208.012568 293.306613 211.342591 295.761511 213.797489 
C 298.216409 216.252387 301.546432 217.631727 305.018182 217.631727 
z
" style="fill:#ffd700;stroke:#222222;stroke-linejoin:miter;"/>
   </g>
   <g id="patch_23">
    <path clip-path="url(#p1cb2414530)" d="M 329.563636 135.813545 
C 333.035386 135.813545 336.365409 134.434205 338.820307 131.979307 
C 341.275205 129.524409 342.654545 126.194386 342.654545 122.722636 
C 342.654545 119.250887 341.275205 115.920864 338.820307 113.465966 
C 336.365409 111.011068 333.035386 109.631727 329.563636 109.631727 
C 326.091887 109.631727 322.761864 111.011068 320.306966 113.465966 
C 317.852068 115.920864 316.472727 119.250887 316.472727 122.722636 
C 316.472727 126.194386 317.852068 129.524409 320.306966 131.979307 
C 322.761864 134.434205 326.091887 135.813545 329.563636 135.813545 
z
" style="fill:#32cd32;stroke:#222222;stroke-linejoin:miter;"/>
   </g>
   <g id="text_1">
    <!-- C Dorian(b4) (color_style=avoid) -->
    <defs>
     <path d="M 48.578125 2.390625 
Q 40.921875 -0.78125 32.515625 -0.78125 
Q 19 -0.78125 11.75 7.296875 
Q 4.5 15.375 4.5 31.203125 
Q 4.5 38.875 6.5 45.0625 
Q 8.5 51.265625 12.203125 55.578125 
Q 15.921875 59.90625 21.1875 62.25 
Q 26.46875 64.59375 33.015625 64.59375 
Q 37.453125 64.59375 41.25 63.84375 
Q 45.0625 63.09375 48.578125 61.53125 
L 48.578125 52.984375 
Q 45.125 54.890625 41.40625 55.890625 
Q 37.703125 56.890625 33.296875 56.890625 
Q 28.8125 56.890625 25.171875 55.203125 
Q 21.53125 53.515625 18.984375 50.3125 
Q 16.453125 47.125 15.078125 42.5 
Q 13.71875 37.890625 13.71875 31.984375 
Q 13.71875 19.578125 18.75 13.28125 
Q 23.78125 6.984375 33.5 6.984375 
Q 37.59375 6.984375 41.359375 7.9375 
Q 45.125 8.890625 48.578125 10.59375 
z
" id="Consolas-with-Yahei-67"/>
     <path id="Consolas-with-Yahei-32"/>
     <path d="M 51.421875 32.625 
Q 51.421875 28.03125 50.703125 23.828125 
Q 50 19.625 48.4375 16.015625 
Q 46.875 12.40625 44.375 9.453125 
Q 41.890625 6.5 38.28125 4.390625 
Q 34.671875 2.296875 29.875 1.140625 
Q 25.09375 0 19 0 
L 5.328125 0 
L 5.328125 63.8125 
L 21.78125 63.8125 
Q 36.71875 63.8125 44.0625 56.125 
Q 51.421875 48.4375 51.421875 32.625 
z
M 42.28125 31.984375 
Q 42.28125 38.765625 41.015625 43.453125 
Q 39.75 48.140625 37.15625 51.015625 
Q 34.578125 53.90625 30.671875 55.203125 
Q 26.765625 56.5 21.484375 56.5 
L 14.015625 56.5 
L 14.015625 7.515625 
L 20.515625 7.515625 
Q 42.28125 7.515625 42.28125 31.984375 
z
" id="Consolas-with-Yahei-68"/>
     <path d="M 50.484375 24.90625 
Q 50.484375 19.1875 48.875 14.421875 
Q 47.265625 9.671875 44.234375 6.265625 
Q 41.21875 2.875 36.859375 1 
Q 32.515625 -0.875 27 -0.875 
Q 21.734375 -0.875 17.546875 0.75 
Q 13.375 2.390625 10.46875 5.5625 
Q 7.5625 8.734375 6.03125 13.421875 
Q 4.5 18.109375 4.5 24.21875 
Q 4.5 29.9375 6.109375 34.640625 
Q 7.71875 39.359375 10.734375 42.75 
Q 13.765625 46.140625 18.109375 48.015625 
Q 22.46875 49.90625 27.984375 49.90625 
Q 33.25 49.90625 37.421875 48.265625 
Q 41.609375 46.625 44.5 43.46875 
Q 47.40625 40.328125 48.9375 35.640625 
Q 50.484375 30.953125 50.484375 24.90625 
z
M 41.796875 24.515625 
Q 41.796875 29.046875 40.796875 32.4375 
Q 39.796875 35.84375 37.9375 38.109375 
Q 36.078125 40.375 33.421875 41.515625 
Q 30.765625 42.671875 27.484375 42.671875 
Q 23.6875 42.671875 20.96875 41.1875 
Q 18.265625 39.703125 16.53125 37.203125 
Q 14.796875 34.71875 13.984375 31.421875 
Q 13.1875 28.125 13.1875 24.515625 
Q 13.1875 19.96875 14.1875 16.546875 
Q 15.1875 13.140625 17.03125 10.859375 
Q 18.890625 8.59375 21.53125 7.4375 
Q 24.171875 6.296875 27.484375 6.296875 
Q 31.296875 6.296875 34 7.78125 
Q 36.71875 9.28125 38.453125 11.765625 
Q 40.1875 14.265625 40.984375 17.546875 
Q 41.796875 20.84375 41.796875 24.515625 
z
" id="Consolas-with-Yahei-111"/>
     <path d="M 9.8125 49.03125 
L 17.578125 49.03125 
L 17.828125 39.984375 
Q 22.171875 45.21875 26.390625 47.5625 
Q 30.609375 49.90625 34.90625 49.90625 
Q 42.53125 49.90625 46.453125 44.96875 
Q 50.390625 40.046875 50.09375 30.328125 
L 41.5 30.328125 
Q 41.65625 36.765625 39.625 39.671875 
Q 37.59375 42.578125 33.6875 42.578125 
Q 31.984375 42.578125 30.25 41.96875 
Q 28.515625 41.359375 26.6875 40.015625 
Q 24.859375 38.671875 22.796875 36.5625 
Q 20.75 34.46875 18.40625 31.5 
L 18.40625 0 
L 9.8125 0 
z
" id="Consolas-with-Yahei-114"/>
     <path d="M 24.515625 42 
L 10.015625 42 
L 10.015625 49.03125 
L 33.109375 49.03125 
L 33.109375 7.078125 
L 47.703125 7.078125 
L 47.703125 0 
L 8.40625 0 
L 8.40625 7.078125 
L 24.515625 7.078125 
z
M 27.484375 69.578125 
Q 28.90625 69.578125 30.125 69.0625 
Q 31.34375 68.5625 32.25 67.625 
Q 33.15625 66.703125 33.671875 65.5 
Q 34.1875 64.3125 34.1875 62.890625 
Q 34.1875 61.53125 33.671875 60.296875 
Q 33.15625 59.078125 32.25 58.15625 
Q 31.34375 57.234375 30.125 56.71875 
Q 28.90625 56.203125 27.484375 56.203125 
Q 26.078125 56.203125 24.859375 56.71875 
Q 23.640625 57.234375 22.734375 58.15625 
Q 21.828125 59.078125 21.3125 60.296875 
Q 20.796875 61.53125 20.796875 62.890625 
Q 20.796875 64.3125 21.3125 65.5 
Q 21.828125 66.703125 22.734375 67.625 
Q 23.640625 68.5625 24.859375 69.0625 
Q 26.078125 69.578125 27.484375 69.578125 
z
" id="Consolas-with-Yahei-105"/>
     <path d="M 39.3125 0 
L 39.109375 6.59375 
Q 35.109375 2.640625 30.984375 0.875 
Q 26.859375 -0.875 22.3125 -0.875 
Q 18.109375 -0.875 15.125 0.1875 
Q 12.15625 1.265625 10.21875 3.140625 
Q 8.296875 5.03125 7.390625 7.5625 
Q 6.5 10.109375 6.5 13.09375 
Q 6.5 20.453125 11.984375 24.625 
Q 17.484375 28.8125 28.21875 28.8125 
L 38.375 28.8125 
L 38.375 33.109375 
Q 38.375 37.453125 35.59375 40.0625 
Q 32.8125 42.671875 27.09375 42.671875 
Q 22.953125 42.671875 18.921875 41.75 
Q 14.890625 40.828125 10.59375 39.109375 
L 10.59375 46.78125 
Q 12.203125 47.359375 14.171875 47.921875 
Q 16.15625 48.484375 18.359375 48.921875 
Q 20.5625 49.359375 22.953125 49.625 
Q 25.34375 49.90625 27.78125 49.90625 
Q 32.234375 49.90625 35.796875 48.921875 
Q 39.359375 47.953125 41.8125 45.953125 
Q 44.28125 43.953125 45.59375 40.921875 
Q 46.921875 37.890625 46.921875 33.796875 
L 46.921875 0 
z
M 38.375 22.3125 
L 27.59375 22.3125 
Q 24.421875 22.3125 22.125 21.671875 
Q 19.828125 21.046875 18.359375 19.875 
Q 16.890625 18.703125 16.1875 17.0625 
Q 15.484375 15.4375 15.484375 13.375 
Q 15.484375 11.96875 15.921875 10.671875 
Q 16.359375 9.375 17.328125 8.375 
Q 18.3125 7.375 19.875 6.78125 
Q 21.4375 6.203125 23.6875 6.203125 
Q 26.609375 6.203125 30.390625 7.984375 
Q 34.1875 9.765625 38.375 13.625 
z
" id="Consolas-with-Yahei-97"/>
     <path d="M 7.8125 49.03125 
L 15.375 49.03125 
L 15.71875 41.109375 
Q 17.875 43.65625 19.875 45.328125 
Q 21.875 47.015625 23.796875 48.046875 
Q 25.734375 49.078125 27.734375 49.484375 
Q 29.734375 49.90625 31.890625 49.90625 
Q 39.453125 49.90625 43.328125 45.4375 
Q 47.21875 40.96875 47.21875 31.984375 
L 47.21875 0 
L 38.71875 0 
L 38.71875 31.296875 
Q 38.71875 37.0625 36.5625 39.8125 
Q 34.421875 42.578125 30.171875 42.578125 
Q 28.609375 42.578125 27.125 42.109375 
Q 25.640625 41.65625 24.015625 40.5 
Q 22.40625 39.359375 20.53125 37.40625 
Q 18.65625 35.453125 16.3125 32.515625 
L 16.3125 0 
L 7.8125 0 
z
" id="Consolas-with-Yahei-110"/>
     <path d="M 37.15625 -20.515625 
Q 14.65625 0.34375 14.65625 25.59375 
Q 14.65625 31.5 15.84375 37.375 
Q 17.046875 43.265625 19.703125 49.171875 
Q 22.359375 55.078125 26.734375 60.984375 
Q 31.109375 66.890625 37.359375 72.703125 
L 42.28125 67.671875 
Q 23.34375 48.96875 23.34375 26.21875 
Q 23.34375 14.890625 28.125 4.4375 
Q 32.90625 -6 42.28125 -15.28125 
z
" id="Consolas-with-Yahei-40"/>
     <path d="M 49.703125 25.390625 
Q 49.703125 19.28125 48.015625 14.46875 
Q 46.34375 9.671875 43.234375 6.328125 
Q 40.140625 2.984375 35.6875 1.1875 
Q 31.25 -0.59375 25.6875 -0.59375 
Q 21.34375 -0.59375 16.796875 0.234375 
Q 12.25 1.078125 7.8125 2.875 
L 7.8125 69 
L 16.3125 69 
L 16.3125 50 
L 15.921875 40.921875 
Q 19.578125 45.84375 23.75 47.875 
Q 27.9375 49.90625 32.71875 49.90625 
Q 36.921875 49.90625 40.09375 48.140625 
Q 43.265625 46.390625 45.40625 43.1875 
Q 47.5625 39.984375 48.625 35.46875 
Q 49.703125 30.953125 49.703125 25.390625 
z
M 41.015625 25 
Q 41.015625 28.859375 40.453125 32.078125 
Q 39.890625 35.296875 38.671875 37.59375 
Q 37.453125 39.890625 35.546875 41.1875 
Q 33.640625 42.484375 31 42.484375 
Q 29.390625 42.484375 27.734375 41.96875 
Q 26.078125 41.453125 24.296875 40.25 
Q 22.515625 39.0625 20.53125 37.078125 
Q 18.5625 35.109375 16.3125 32.171875 
L 16.3125 8.40625 
Q 18.796875 7.421875 21.375 6.859375 
Q 23.96875 6.296875 26.3125 6.296875 
Q 29.25 6.296875 31.90625 7.21875 
Q 34.578125 8.15625 36.59375 10.328125 
Q 38.625 12.5 39.8125 16.078125 
Q 41.015625 19.671875 41.015625 25 
z
" id="Consolas-with-Yahei-98"/>
     <path d="M 52.390625 14.109375 
L 41.5 14.109375 
L 41.5 0 
L 32.8125 0 
L 32.8125 14.109375 
L 2.09375 14.109375 
L 2.09375 21.578125 
L 29.296875 63.8125 
L 41.5 63.8125 
L 41.5 21.578125 
L 52.390625 21.578125 
z
M 32.8125 55.609375 
L 10.59375 21.578125 
L 32.8125 21.578125 
z
" id="Consolas-with-Yahei-52"/>
     <path d="M 17.828125 72.703125 
Q 40.328125 51.859375 40.328125 26.3125 
Q 40.328125 21.046875 39.25 15.375 
Q 38.1875 9.71875 35.59375 3.78125 
Q 33.015625 -2.15625 28.640625 -8.25 
Q 24.265625 -14.359375 17.625 -20.515625 
L 12.703125 -15.484375 
Q 22.21875 -6.0625 26.90625 4.1875 
Q 31.59375 14.453125 31.59375 25.6875 
Q 31.59375 48.921875 12.703125 67.484375 
z
" id="Consolas-with-Yahei-41"/>
     <path d="M 45.90625 1.8125 
Q 42.578125 0.53125 39.078125 -0.078125 
Q 35.59375 -0.6875 31.890625 -0.6875 
Q 20.265625 -0.6875 13.984375 5.609375 
Q 7.71875 11.921875 7.71875 24.03125 
Q 7.71875 29.828125 9.515625 34.5625 
Q 11.328125 39.3125 14.59375 42.671875 
Q 17.875 46.046875 22.40625 47.875 
Q 26.953125 49.703125 32.421875 49.703125 
Q 36.234375 49.703125 39.546875 49.171875 
Q 42.875 48.640625 45.90625 47.40625 
L 45.90625 39.3125 
Q 42.71875 40.96875 39.421875 41.71875 
Q 36.140625 42.484375 32.625 42.484375 
Q 29.34375 42.484375 26.4375 41.234375 
Q 23.53125 39.984375 21.328125 37.640625 
Q 19.140625 35.296875 17.875 31.921875 
Q 16.609375 28.5625 16.609375 24.3125 
Q 16.609375 15.4375 20.921875 11.015625 
Q 25.25 6.59375 32.90625 6.59375 
Q 36.375 6.59375 39.625 7.375 
Q 42.875 8.15625 45.90625 9.71875 
z
" id="Consolas-with-Yahei-99"/>
     <path d="M 24.515625 62.015625 
L 10.015625 62.015625 
L 10.015625 69 
L 33.109375 69 
L 33.109375 7.078125 
L 47.703125 7.078125 
L 47.703125 0 
L 8.40625 0 
L 8.40625 7.078125 
L 24.515625 7.078125 
z
" id="Consolas-with-Yahei-108"/>
     <path d="M 54.984375 -20.015625 
L 0 -20.015625 
L 0 -12.984375 
L 54.984375 -12.984375 
z
" id="Consolas-with-Yahei-95"/>
     <path d="M 46.625 13.375 
Q 46.625 10.796875 45.75 8.734375 
Q 44.875 6.6875 43.359375 5.09375 
Q 41.84375 3.515625 39.84375 2.390625 
Q 37.84375 1.265625 35.5625 0.53125 
Q 33.296875 -0.203125 30.90625 -0.53125 
Q 28.515625 -0.875 26.21875 -0.875 
Q 21.234375 -0.875 17.0625 -0.4375 
Q 12.890625 0 8.890625 0.984375 
L 8.890625 8.796875 
Q 13.1875 7.5625 17.4375 6.921875 
Q 21.6875 6.296875 25.875 6.296875 
Q 31.984375 6.296875 34.90625 7.953125 
Q 37.84375 9.625 37.84375 12.703125 
Q 37.84375 14.015625 37.375 15.0625 
Q 36.921875 16.109375 35.6875 17.0625 
Q 34.46875 18.015625 31.90625 19.03125 
Q 29.34375 20.0625 24.90625 21.390625 
Q 21.578125 22.359375 18.765625 23.609375 
Q 15.96875 24.859375 13.90625 26.5625 
Q 11.859375 28.265625 10.6875 30.5625 
Q 9.515625 32.859375 9.515625 35.984375 
Q 9.515625 38.03125 10.46875 40.46875 
Q 11.421875 42.921875 13.71875 45.015625 
Q 16.015625 47.125 19.921875 48.515625 
Q 23.828125 49.90625 29.6875 49.90625 
Q 32.5625 49.90625 36.078125 49.578125 
Q 39.59375 49.265625 43.40625 48.484375 
L 43.40625 40.921875 
Q 39.40625 41.890625 35.8125 42.359375 
Q 32.234375 42.828125 29.59375 42.828125 
Q 26.421875 42.828125 24.25 42.328125 
Q 22.078125 41.84375 20.734375 40.984375 
Q 19.390625 40.140625 18.796875 38.984375 
Q 18.21875 37.84375 18.21875 36.53125 
Q 18.21875 35.203125 18.71875 34.125 
Q 19.234375 33.0625 20.625 32.0625 
Q 22.015625 31.0625 24.5 30.046875 
Q 27 29.046875 31 27.875 
Q 35.359375 26.609375 38.328125 25.21875 
Q 41.3125 23.828125 43.15625 22.109375 
Q 45.015625 20.40625 45.8125 18.25 
Q 46.625 16.109375 46.625 13.375 
z
" id="Consolas-with-Yahei-115"/>
     <path d="M 47.3125 0.6875 
Q 44.4375 -0.046875 41.359375 -0.359375 
Q 38.28125 -0.6875 35.109375 -0.6875 
Q 25.875 -0.6875 21.328125 3.484375 
Q 16.796875 7.671875 16.796875 16.3125 
L 16.796875 41.890625 
L 3.078125 41.890625 
L 3.078125 49.03125 
L 16.796875 49.03125 
L 16.796875 62.5 
L 25.296875 64.703125 
L 25.296875 49.03125 
L 47.3125 49.03125 
L 47.3125 41.890625 
L 25.296875 41.890625 
L 25.296875 17 
Q 25.296875 11.71875 28.09375 9.109375 
Q 30.90625 6.5 36.375 6.5 
Q 38.71875 6.5 41.5 6.859375 
Q 44.28125 7.234375 47.3125 8.015625 
z
" id="Consolas-with-Yahei-116"/>
     <path d="M 51.421875 49.03125 
L 34.71875 5.171875 
Q 32.125 -1.515625 29.359375 -6.34375 
Q 26.609375 -11.1875 23.328125 -14.28125 
Q 20.0625 -17.390625 16.15625 -18.84375 
Q 12.25 -20.3125 7.421875 -20.3125 
Q 6.15625 -20.3125 5.125 -20.265625 
Q 4.109375 -20.21875 2.875 -20.125 
L 2.875 -12.40625 
Q 3.953125 -12.546875 5.21875 -12.671875 
Q 6.5 -12.796875 7.90625 -12.796875 
Q 10.25 -12.796875 12.28125 -12.109375 
Q 14.3125 -11.421875 16.109375 -9.875 
Q 17.921875 -8.34375 19.578125 -5.90625 
Q 21.234375 -3.46875 22.796875 0 
L 3.21875 49.03125 
L 12.890625 49.03125 
L 25.296875 16.609375 
L 27.78125 8.984375 
L 30.609375 16.796875 
L 42.09375 49.03125 
z
" id="Consolas-with-Yahei-121"/>
     <path d="M 49.21875 27.09375 
Q 49.21875 25.296875 49.171875 24.078125 
Q 49.125 22.859375 49.03125 21.78125 
L 14.59375 21.78125 
Q 14.59375 14.265625 18.796875 10.234375 
Q 23 6.203125 30.90625 6.203125 
Q 33.0625 6.203125 35.203125 6.375 
Q 37.359375 6.546875 39.359375 6.828125 
Q 41.359375 7.125 43.1875 7.484375 
Q 45.015625 7.859375 46.578125 8.296875 
L 46.578125 1.3125 
Q 43.109375 0.34375 38.734375 -0.265625 
Q 34.375 -0.875 29.6875 -0.875 
Q 23.390625 -0.875 18.84375 0.828125 
Q 14.3125 2.546875 11.40625 5.78125 
Q 8.5 9.03125 7.109375 13.734375 
Q 5.71875 18.453125 5.71875 24.421875 
Q 5.71875 29.59375 7.203125 34.203125 
Q 8.6875 38.8125 11.546875 42.296875 
Q 14.40625 45.796875 18.546875 47.84375 
Q 22.703125 49.90625 27.984375 49.90625 
Q 33.109375 49.90625 37.0625 48.296875 
Q 41.015625 46.6875 43.71875 43.71875 
Q 46.4375 40.765625 47.828125 36.546875 
Q 49.21875 32.328125 49.21875 27.09375 
z
M 40.375 28.328125 
Q 40.53125 31.59375 39.75 34.296875 
Q 38.96875 37.015625 37.328125 38.96875 
Q 35.6875 40.921875 33.25 42.015625 
Q 30.8125 43.109375 27.59375 43.109375 
Q 24.8125 43.109375 22.515625 42.03125 
Q 20.21875 40.96875 18.546875 39.015625 
Q 16.890625 37.0625 15.859375 34.328125 
Q 14.84375 31.59375 14.59375 28.328125 
z
" id="Consolas-with-Yahei-101"/>
     <path d="M 48.484375 31.546875 
L 6.5 31.546875 
L 6.5 38.71875 
L 48.484375 38.71875 
z
M 48.484375 14.546875 
L 6.5 14.546875 
L 6.5 21.734375 
L 48.484375 21.734375 
z
" id="Consolas-with-Yahei-61"/>
     <path d="M 3.21875 49.03125 
L 12.890625 49.03125 
L 24.90625 16.609375 
L 27.484375 8.6875 
L 30.171875 16.796875 
L 42.09375 49.03125 
L 51.421875 49.03125 
L 32.171875 0 
L 22.40625 0 
z
" id="Consolas-with-Yahei-118"/>
     <path d="M 5.328125 23.484375 
Q 5.328125 29.734375 7.03125 34.59375 
Q 8.734375 39.453125 11.890625 42.796875 
Q 15.046875 46.140625 19.453125 47.875 
Q 23.875 49.609375 29.296875 49.609375 
Q 31.640625 49.609375 33.90625 49.3125 
Q 36.1875 49.03125 38.375 48.390625 
L 38.375 69 
L 46.921875 69 
L 46.921875 0 
L 39.3125 0 
L 39.015625 9.28125 
Q 35.453125 4.109375 31.296875 1.609375 
Q 27.15625 -0.875 22.3125 -0.875 
Q 18.109375 -0.875 14.90625 0.875 
Q 11.71875 2.640625 9.59375 5.828125 
Q 7.46875 9.03125 6.390625 13.515625 
Q 5.328125 18.015625 5.328125 23.484375 
z
M 14.015625 24.03125 
Q 14.015625 15.140625 16.625 10.765625 
Q 19.234375 6.390625 24.03125 6.390625 
Q 27.25 6.390625 30.828125 9.265625 
Q 34.421875 12.15625 38.375 17.828125 
L 38.375 40.578125 
Q 36.28125 41.546875 33.734375 42.0625 
Q 31.203125 42.578125 28.71875 42.578125 
Q 21.78125 42.578125 17.890625 38.078125 
Q 14.015625 33.59375 14.015625 24.03125 
z
" id="Consolas-with-Yahei-100"/>
    </defs>
    <g transform="translate(13.378909 21.159)scale(0.192 -0.192)">
     <use xlink:href="#Consolas-with-Yahei-67"/>
     <use x="54.980469" xlink:href="#Consolas-with-Yahei-32"/>
     <use x="109.960938" xlink:href="#Consolas-with-Yahei-68"/>
     <use x="164.941406" xlink:href="#Consolas-with-Yahei-111"/>
     <use x="219.921875" xlink:href="#Consolas-with-Yahei-114"/>
     <use x="274.902344" xlink:href="#Consolas-with-Yahei-105"/>
     <use x="329.882812" xlink:href="#Consolas-with-Yahei-97"/>
     <use x="384.863281" xlink:href="#Consolas-with-Yahei-110"/>
     <use x="439.84375" xlink:href="#Consolas-with-Yahei-40"/>
     <use x="494.824219" xlink:href="#Consolas-with-Yahei-98"/>
     <use x="549.804688" xlink:href="#Consolas-with-Yahei-52"/>
     <use x="604.785156" xlink:href="#Consolas-with-Yahei-41"/>
     <use x="659.765625" xlink:href="#Consolas-with-Yahei-32"/>
     <use x="714.746094" xlink:href="#Consolas-with-Yahei-40"/>
     <use x="769.726562" xlink:href="#Consolas-with-Yahei-99"/>
     <use x="824.707031" xlink:href="#Consolas-with-Yahei-111"/>
     <use x="879.6875" xlink:href="#Consolas-with-Yahei-108"/>
     <use x="934.667969" xlink:href="#Consolas-with-Yahei-111"/>
     <use x="989.648438" xlink:href="#Consolas-with-Yahei-114"/>
     <use x="1044.628906" xlink:href="#Consolas-with-Yahei-95"/>
     <use x="1099.609375" xlink:href="#Consolas-with-Yahei-115"/>
     <use x="1154.589844" xlink:href="#Consolas-with-Yahei-116"/>
     <use x="1209.570312" xlink:href="#Consolas-with-Yahei-121"/>
     <use x="1264.550781" xlink:href="#Consolas-with-Yahei-108"/>
     <use x="1319.53125" xlink:href="#Consolas-with-Yahei-101"/>
     <use x="1374.511719" xlink:href="#Consolas-with-Yahei-61"/>
     <use x="1429.492188" xlink:href="#Consolas-with-Yahei-97"/>
     <use x="1484.472656" xlink:href="#Consolas-with-Yahei-118"/>
     <use x="1539.453125" xlink:href="#Consolas-with-Yahei-111"/>
     <use x="1594.433594" xlink:href="#Consolas-with-Yahei-105"/>
     <use x="1649.414062" xlink:href="#Consolas-with-Yahei-100"/>
     <use x="1704.394531" xlink:href="#Consolas-with-Yahei-41"/>
    </g>
   </g>
   <g id="text_2">
    <!-- [CN] -->
    <defs>
     <path d="M 40.921875 -20.015625 
L 16.84375 -20.015625 
L 16.84375 70.703125 
L 40.921875 70.703125 
L 40.921875 63.875 
L 24.953125 63.875 
L 24.953125 -13.1875 
L 40.921875 -13.1875 
z
" id="Consolas-with-Yahei-91"/>
     <path d="M 49.21875 0 
L 37.890625 0 
L 19.28125 39.796875 
L 13.921875 52.59375 
L 13.921875 20.40625 
L 13.921875 0 
L 5.8125 0 
L 5.8125 63.8125 
L 17 63.8125 
L 34.71875 26.125 
L 41.109375 11.53125 
L 41.109375 45.703125 
L 41.109375 63.8125 
L 49.21875 63.8125 
z
" id="Consolas-with-Yahei-78"/>
     <path d="M 38.140625 -20.015625 
L 14.0625 -20.015625 
L 14.0625 -13.1875 
L 29.9375 -13.1875 
L 29.9375 63.875 
L 14.0625 63.875 
L 14.0625 70.703125 
L 38.140625 70.703125 
z
" id="Consolas-with-Yahei-93"/>
    </defs>
    <g transform="translate(41.968636 208.595818)scale(0.16 -0.16)">
     <use xlink:href="#Consolas-with-Yahei-91"/>
     <use x="54.980469" xlink:href="#Consolas-with-Yahei-67"/>
     <use x="109.960938" xlink:href="#Consolas-with-Yahei-78"/>
     <use x="164.941406" xlink:href="#Consolas-with-Yahei-93"/>
    </g>
   </g>
   <g id="text_3">
    <!-- [TN] -->
    <defs>
     <path d="M 50.78125 56.390625 
L 31.890625 56.390625 
L 31.890625 0 
L 23.09375 0 
L 23.09375 56.390625 
L 4.203125 56.390625 
L 4.203125 63.8125 
L 50.78125 63.8125 
z
" id="Consolas-with-Yahei-84"/>
    </defs>
    <g transform="translate(91.059545 208.595818)scale(0.16 -0.16)">
     <use xlink:href="#Consolas-with-Yahei-91"/>
     <use x="54.980469" xlink:href="#Consolas-with-Yahei-84"/>
     <use x="109.960938" xlink:href="#Consolas-with-Yahei-78"/>
     <use x="164.941406" xlink:href="#Consolas-with-Yahei-93"/>
    </g>
   </g>
   <g id="text_4">
    <!-- [CN] -->
    <g transform="translate(115.605 126.777636)scale(0.16 -0.16)">
     <use xlink:href="#Consolas-with-Yahei-91"/>
     <use x="54.980469" xlink:href="#Consolas-with-Yahei-67"/>
     <use x="109.960938" xlink:href="#Consolas-with-Yahei-78"/>
     <use x="164.941406" xlink:href="#Consolas-with-Yahei-93"/>
    </g>
   </g>
   <g id="text_5">
    <!-- [A1] -->
    <defs>
     <path d="M 54.5 0 
L 45.015625 0 
L 40.578125 13.921875 
L 14.015625 13.921875 
L 9.515625 0 
L 0.484375 0 
L 21.6875 63.8125 
L 33.59375 63.8125 
z
M 38.09375 21.6875 
L 27.296875 55.8125 
L 16.5 21.6875 
z
" id="Consolas-with-Yahei-65"/>
     <path d="M 48.6875 0 
L 8.59375 0 
L 8.59375 7.90625 
L 25 7.90625 
L 25 54.5 
L 9.71875 46.1875 
L 6.59375 53.421875 
L 26.90625 64.109375 
L 34.421875 64.109375 
L 34.421875 7.90625 
L 48.6875 7.90625 
z
" id="Consolas-with-Yahei-49"/>
    </defs>
    <g transform="translate(140.150455 208.595818)scale(0.16 -0.16)">
     <use xlink:href="#Consolas-with-Yahei-91"/>
     <use x="54.980469" xlink:href="#Consolas-with-Yahei-65"/>
     <use x="109.960938" xlink:href="#Consolas-with-Yahei-49"/>
     <use x="164.941406" xlink:href="#Consolas-with-Yahei-93"/>
    </g>
   </g>
   <g id="text_6">
    <!-- [CN] -->
    <g transform="translate(238.332273 208.595818)scale(0.16 -0.16)">
     <use xlink:href="#Consolas-with-Yahei-91"/>
     <use x="54.980469" xlink:href="#Consolas-with-Yahei-67"/>
     <use x="109.960938" xlink:href="#Consolas-with-Yahei-78"/>
     <use x="164.941406" xlink:href="#Consolas-with-Yahei-93"/>
    </g>
   </g>
   <g id="text_7">
    <!-- [A2] -->
    <defs>
     <path d="M 49.21875 0 
L 7.171875 0 
L 7.171875 7.625 
L 23.6875 24.03125 
Q 27.734375 28.03125 30.265625 30.953125 
Q 32.8125 33.890625 34.21875 36.296875 
Q 35.640625 38.71875 36.125 40.859375 
Q 36.625 43.015625 36.625 45.515625 
Q 36.625 47.859375 35.984375 49.96875 
Q 35.359375 52.09375 34.03125 53.703125 
Q 32.71875 55.328125 30.609375 56.25 
Q 28.515625 57.171875 25.59375 57.171875 
Q 21.53125 57.171875 18.203125 55.359375 
Q 14.890625 53.5625 12.109375 50.6875 
L 7.421875 56.296875 
Q 11.03125 60.109375 15.734375 62.40625 
Q 20.453125 64.703125 26.703125 64.703125 
Q 30.953125 64.703125 34.4375 63.421875 
Q 37.9375 62.15625 40.46875 59.765625 
Q 43.015625 57.375 44.40625 53.90625 
Q 45.796875 50.4375 45.796875 46.09375 
Q 45.796875 42.4375 44.8125 39.3125 
Q 43.84375 36.1875 41.859375 33.078125 
Q 39.890625 29.984375 36.890625 26.65625 
Q 33.890625 23.34375 29.78125 19.390625 
L 18.21875 8.109375 
L 49.21875 8.109375 
z
" id="Consolas-with-Yahei-50"/>
    </defs>
    <g transform="translate(287.423182 208.595818)scale(0.16 -0.16)">
     <use xlink:href="#Consolas-with-Yahei-91"/>
     <use x="54.980469" xlink:href="#Consolas-with-Yahei-65"/>
     <use x="109.960938" xlink:href="#Consolas-with-Yahei-50"/>
     <use x="164.941406" xlink:href="#Consolas-with-Yahei-93"/>
    </g>
   </g>
   <g id="text_8">
    <!-- [CN] -->
    <g transform="translate(311.968636 126.777636)scale(0.16 -0.16)">
     <use xlink:href="#Consolas-with-Yahei-91"/>
     <use x="54.980469" xlink:href="#Consolas-with-Yahei-67"/>
     <use x="109.960938" xlink:href="#Consolas-with-Yahei-78"/>
     <use x="164.941406" xlink:href="#Consolas-with-Yahei-93"/>
    </g>
   </g>
  </g>
 </g>
 <defs>
  <clipPath id="p1cb2414530">
   <rect height="216" width="350.181818" x="7.2" y="16.359"/>
  </clipPath>
 </defs>
</svg>
