<?xml version="1.0" encoding="utf-8" standalone="no"?>
<!DOCTYPE svg PUBLIC "-//W3C//DTD SVG 1.1//EN"
  "http://www.w3.org/Graphics/SVG/1.1/DTD/svg11.dtd">
<!-- Created with matplotlib (https://matplotlib.org/) -->
<svg height="234.14223pt" version="1.1" viewBox="0 0 549.704348 234.14223" width="549.704348pt" xmlns="http://www.w3.org/2000/svg" xmlns:xlink="http://www.w3.org/1999/xlink">
 <defs>
  <style type="text/css">
*{stroke-linecap:butt;stroke-linejoin:round;}
  </style>
 </defs>
 <g id="figure_1">
  <g id="patch_1">
   <path d="M 0 234.14223 
L 549.704348 234.14223 
L 549.704348 0 
L 0 0 
z
" style="fill:#ffffff;"/>
  </g>
  <g id="axes_1">
   <g id="patch_2">
    <path clip-path="url(#p90d1c0a27a)" d="M 11.979503 222.162727 
L 59.774534 222.162727 
L 59.774534 30.982602 
L 11.979503 30.982602 
z
" style="fill:#ffffff;stroke:#000000;stroke-linejoin:miter;stroke-width:1.2;"/>
   </g>
   <g id="patch_3">
    <path clip-path="url(#p90d1c0a27a)" d="M 59.774534 222.162727 
L 107.569565 222.162727 
L 107.569565 30.982602 
L 59.774534 30.982602 
z
" style="fill:#808080;stroke:#000000;stroke-linejoin:miter;stroke-width:1.2;"/>
   </g>
   <g id="patch_4">
    <path clip-path="url(#p90d1c0a27a)" d="M 107.569565 222.162727 
L 155.364596 222.162727 
L 155.364596 30.982602 
L 107.569565 30.982602 
z
" style="fill:#ffffff;stroke:#000000;stroke-linejoin:miter;stroke-width:1.2;"/>
   </g>
   <g id="patch_5">
    <path clip-path="url(#p90d1c0a27a)" d="M 155.364596 222.162727 
L 203.159627 222.162727 
L 203.159627 30.982602 
L 155.364596 30.982602 
z
" style="fill:#808080;stroke:#000000;stroke-linejoin:miter;stroke-width:1.2;"/>
   </g>
   <g id="patch_6">
    <path clip-path="url(#p90d1c0a27a)" d="M 203.159627 222.162727 
L 250.954658 222.162727 
L 250.954658 30.982602 
L 203.159627 30.982602 
z
" style="fill:#ffffff;stroke:#000000;stroke-linejoin:miter;stroke-width:1.2;"/>
   </g>
   <g id="patch_7">
    <path clip-path="url(#p90d1c0a27a)" d="M 250.954658 222.162727 
L 298.749689 222.162727 
L 298.749689 30.982602 
L 250.954658 30.982602 
z
" style="fill:#ffffff;stroke:#000000;stroke-linejoin:miter;stroke-width:1.2;"/>
   </g>
   <g id="patch_8">
    <path clip-path="url(#p90d1c0a27a)" d="M 298.749689 222.162727 
L 346.54472 222.162727 
L 346.54472 30.982602 
L 298.749689 30.982602 
z
" style="fill:#808080;stroke:#000000;stroke-linejoin:miter;stroke-width:1.2;"/>
   </g>
   <g id="patch_9">
    <path clip-path="url(#p90d1c0a27a)" d="M 346.54472 222.162727 
L 394.339752 222.162727 
L 394.339752 30.982602 
L 346.54472 30.982602 
z
" style="fill:#ffffff;stroke:#000000;stroke-linejoin:miter;stroke-width:1.2;"/>
   </g>
   <g id="patch_10">
    <path clip-path="url(#p90d1c0a27a)" d="M 394.339752 222.162727 
L 442.134783 222.162727 
L 442.134783 30.982602 
L 394.339752 30.982602 
z
" style="fill:#808080;stroke:#000000;stroke-linejoin:miter;stroke-width:1.2;"/>
   </g>
   <g id="patch_11">
    <path clip-path="url(#p90d1c0a27a)" d="M 442.134783 222.162727 
L 489.929814 222.162727 
L 489.929814 30.982602 
L 442.134783 30.982602 
z
" style="fill:#ffffff;stroke:#000000;stroke-linejoin:miter;stroke-width:1.2;"/>
   </g>
   <g id="patch_12">
    <path clip-path="url(#p90d1c0a27a)" d="M 489.929814 222.162727 
L 537.724845 222.162727 
L 537.724845 30.982602 
L 489.929814 30.982602 
z
" style="fill:#808080;stroke:#000000;stroke-linejoin:miter;stroke-width:1.2;"/>
   </g>
   <g id="patch_13">
    <path clip-path="url(#p90d1c0a27a)" d="M 35.877019 214.196888 
C 40.102149 214.196888 44.154797 212.518226 47.142415 209.530608 
C 50.130034 206.54299 51.808696 202.490341 51.808696 198.265211 
C 51.808696 194.040081 50.130034 189.987432 47.142415 186.999814 
C 44.154797 184.012196 40.102149 182.333534 35.877019 182.333534 
C 31.651889 182.333534 27.59924 184.012196 24.611622 186.999814 
C 21.624004 189.987432 19.945342 194.040081 19.945342 198.265211 
C 19.945342 202.490341 21.624004 206.54299 24.611622 209.530608 
C 27.59924 212.518226 31.651889 214.196888 35.877019 214.196888 
z
" style="fill:#32cd32;stroke:#222222;stroke-linejoin:miter;"/>
   </g>
   <g id="patch_14">
    <path clip-path="url(#p90d1c0a27a)" d="M 83.67205 214.196888 
C 87.89718 214.196888 91.949828 212.518226 94.937447 209.530608 
C 97.925065 206.54299 99.603727 202.490341 99.603727 198.265211 
C 99.603727 194.040081 97.925065 189.987432 94.937447 186.999814 
C 91.949828 184.012196 87.89718 182.333534 83.67205 182.333534 
C 79.44692 182.333534 75.394271 184.012196 72.406653 186.999814 
C 69.419035 189.987432 67.740373 194.040081 67.740373 198.265211 
C 67.740373 202.490341 69.419035 206.54299 72.406653 209.530608 
C 75.394271 212.518226 79.44692 214.196888 83.67205 214.196888 
z
" style="fill:#1e90ff;stroke:#222222;stroke-linejoin:miter;"/>
   </g>
   <g id="patch_15">
    <path clip-path="url(#p90d1c0a27a)" d="M 227.057143 214.196888 
C 231.282273 214.196888 235.334922 212.518226 238.32254 209.530608 
C 241.310158 206.54299 242.98882 202.490341 242.98882 198.265211 
C 242.98882 194.040081 241.310158 189.987432 238.32254 186.999814 
C 235.334922 184.012196 231.282273 182.333534 227.057143 182.333534 
C 222.832013 182.333534 218.779364 184.012196 215.791746 186.999814 
C 212.804128 189.987432 211.125466 194.040081 211.125466 198.265211 
C 211.125466 202.490341 212.804128 206.54299 215.791746 209.530608 
C 218.779364 212.518226 222.832013 214.196888 227.057143 214.196888 
z
" style="fill:#32cd32;stroke:#222222;stroke-linejoin:miter;"/>
   </g>
   <g id="patch_16">
    <path clip-path="url(#p90d1c0a27a)" d="M 274.852174 214.196888 
C 279.077304 214.196888 283.129953 212.518226 286.117571 209.530608 
C 289.105189 206.54299 290.783851 202.490341 290.783851 198.265211 
C 290.783851 194.040081 289.105189 189.987432 286.117571 186.999814 
C 283.129953 184.012196 279.077304 182.333534 274.852174 182.333534 
C 270.627044 182.333534 266.574395 184.012196 263.586777 186.999814 
C 260.599159 189.987432 258.920497 194.040081 258.920497 198.265211 
C 258.920497 202.490341 260.599159 206.54299 263.586777 209.530608 
C 266.574395 212.518226 270.627044 214.196888 274.852174 214.196888 
z
" style="fill:#ffa500;stroke:#222222;stroke-linejoin:miter;"/>
   </g>
   <g id="patch_17">
    <path clip-path="url(#p90d1c0a27a)" d="M 370.442236 214.196888 
C 374.667366 214.196888 378.720015 212.518226 381.707633 209.530608 
C 384.695251 206.54299 386.373913 202.490341 386.373913 198.265211 
C 386.373913 194.040081 384.695251 189.987432 381.707633 186.999814 
C 378.720015 184.012196 374.667366 182.333534 370.442236 182.333534 
C 366.217106 182.333534 362.164457 184.012196 359.176839 186.999814 
C 356.189221 189.987432 354.510559 194.040081 354.510559 198.265211 
C 354.510559 202.490341 356.189221 206.54299 359.176839 209.530608 
C 362.164457 212.518226 366.217106 214.196888 370.442236 214.196888 
z
" style="fill:#32cd32;stroke:#222222;stroke-linejoin:miter;"/>
   </g>
   <g id="patch_18">
    <path clip-path="url(#p90d1c0a27a)" d="M 466.032298 214.196888 
C 470.257428 214.196888 474.310077 212.518226 477.297695 209.530608 
C 480.285313 206.54299 481.963975 202.490341 481.963975 198.265211 
C 481.963975 194.040081 480.285313 189.987432 477.297695 186.999814 
C 474.310077 184.012196 470.257428 182.333534 466.032298 182.333534 
C 461.807168 182.333534 457.754519 184.012196 454.766901 186.999814 
C 451.779283 189.987432 450.100621 194.040081 450.100621 198.265211 
C 450.100621 202.490341 451.779283 206.54299 454.766901 209.530608 
C 457.754519 212.518226 461.807168 214.196888 466.032298 214.196888 
z
" style="fill:#708090;stroke:#222222;stroke-linejoin:miter;"/>
   </g>
   <g id="patch_19">
    <path clip-path="url(#p90d1c0a27a)" d="M 513.827329 214.196888 
C 518.052459 214.196888 522.105108 212.518226 525.092726 209.530608 
C 528.080344 206.54299 529.759006 202.490341 529.759006 198.265211 
C 529.759006 194.040081 528.080344 189.987432 525.092726 186.999814 
C 522.105108 184.012196 518.052459 182.333534 513.827329 182.333534 
C 509.602199 182.333534 505.549551 184.012196 502.561932 186.999814 
C 499.574314 189.987432 497.895652 194.040081 497.895652 198.265211 
C 497.895652 202.490341 499.574314 206.54299 502.561932 209.530608 
C 505.549551 212.518226 509.602199 214.196888 513.827329 214.196888 
z
" style="fill:#32cd32;stroke:#222222;stroke-linejoin:miter;"/>
   </g>
   <g id="text_1">
    <!-- 0 -->
    <defs>
     <path d="M 50.6875 31.890625 
Q 50.6875 24.5625 49.21875 18.53125 
Q 47.75 12.5 44.765625 8.171875 
Q 41.796875 3.859375 37.375 1.484375 
Q 32.953125 -0.875 27 -0.875 
Q 21.875 -0.875 17.671875 1.046875 
Q 13.484375 2.984375 10.5 6.984375 
Q 7.515625 10.984375 5.90625 17.1875 
Q 4.296875 23.390625 4.296875 31.890625 
Q 4.296875 39.203125 5.78125 45.25 
Q 7.28125 51.3125 10.234375 55.640625 
Q 13.1875 59.96875 17.625 62.328125 
Q 22.078125 64.703125 27.984375 64.703125 
Q 33.109375 64.703125 37.296875 62.765625 
Q 41.5 60.84375 44.484375 56.8125 
Q 47.46875 52.78125 49.078125 46.578125 
Q 50.6875 40.375 50.6875 31.890625 
z
M 42.09375 31.59375 
Q 42.09375 33.25 41.96875 34.890625 
Q 41.84375 36.53125 41.703125 38.09375 
L 14.703125 18.015625 
Q 15.4375 15.484375 16.546875 13.328125 
Q 17.671875 11.1875 19.25 9.640625 
Q 20.84375 8.109375 22.875 7.25 
Q 24.90625 6.390625 27.484375 6.390625 
Q 30.8125 6.390625 33.515625 8 
Q 36.234375 9.625 38.140625 12.796875 
Q 40.046875 15.96875 41.0625 20.671875 
Q 42.09375 25.390625 42.09375 31.59375 
z
M 12.890625 32.171875 
Q 12.890625 30.671875 12.90625 29.15625 
Q 12.9375 27.640625 13.09375 26.21875 
L 40.09375 46.1875 
Q 39.359375 48.6875 38.234375 50.734375 
Q 37.109375 52.78125 35.546875 54.265625 
Q 33.984375 55.765625 31.984375 56.59375 
Q 29.984375 57.421875 27.484375 57.421875 
Q 24.171875 57.421875 21.453125 55.8125 
Q 18.75 54.203125 16.84375 51 
Q 14.9375 47.796875 13.90625 43.078125 
Q 12.890625 38.375 12.890625 32.171875 
z
" id="Consolas-with-Yahei-48"/>
    </defs>
    <g transform="translate(31.478269 58.798868)scale(0.16 -0.16)">
     <use xlink:href="#Consolas-with-Yahei-48"/>
    </g>
   </g>
   <g id="text_2">
    <!-- 1 -->
    <defs>
     <path d="M 48.6875 0 
L 8.59375 0 
L 8.59375 7.90625 
L 25 7.90625 
L 25 54.5 
L 9.71875 46.1875 
L 6.59375 53.421875 
L 26.90625 64.109375 
L 34.421875 64.109375 
L 34.421875 7.90625 
L 48.6875 7.90625 
z
" id="Consolas-with-Yahei-49"/>
    </defs>
    <g transform="translate(79.2733 58.798868)scale(0.16 -0.16)">
     <use xlink:href="#Consolas-with-Yahei-49"/>
    </g>
   </g>
   <g id="text_3">
    <!-- 2 -->
    <defs>
     <path d="M 49.21875 0 
L 7.171875 0 
L 7.171875 7.625 
L 23.6875 24.03125 
Q 27.734375 28.03125 30.265625 30.953125 
Q 32.8125 33.890625 34.21875 36.296875 
Q 35.640625 38.71875 36.125 40.859375 
Q 36.625 43.015625 36.625 45.515625 
Q 36.625 47.859375 35.984375 49.96875 
Q 35.359375 52.09375 34.03125 53.703125 
Q 32.71875 55.328125 30.609375 56.25 
Q 28.515625 57.171875 25.59375 57.171875 
Q 21.53125 57.171875 18.203125 55.359375 
Q 14.890625 53.5625 12.109375 50.6875 
L 7.421875 56.296875 
Q 11.03125 60.109375 15.734375 62.40625 
Q 20.453125 64.703125 26.703125 64.703125 
Q 30.953125 64.703125 34.4375 63.421875 
Q 37.9375 62.15625 40.46875 59.765625 
Q 43.015625 57.375 44.40625 53.90625 
Q 45.796875 50.4375 45.796875 46.09375 
Q 45.796875 42.4375 44.8125 39.3125 
Q 43.84375 36.1875 41.859375 33.078125 
Q 39.890625 29.984375 36.890625 26.65625 
Q 33.890625 23.34375 29.78125 19.390625 
L 18.21875 8.109375 
L 49.21875 8.109375 
z
" id="Consolas-with-Yahei-50"/>
    </defs>
    <g transform="translate(127.068331 58.798868)scale(0.16 -0.16)">
     <use xlink:href="#Consolas-with-Yahei-50"/>
    </g>
   </g>
   <g id="text_4">
    <!-- 3 -->
    <defs>
     <path d="M 48 19.390625 
Q 48 15.1875 46.28125 11.5 
Q 44.578125 7.8125 41.15625 5.046875 
Q 37.75 2.296875 32.5625 0.703125 
Q 27.390625 -0.875 20.515625 -0.875 
Q 16.703125 -0.875 13.671875 -0.625 
Q 10.640625 -0.390625 8.015625 0 
L 8.015625 7.625 
Q 11.03125 7.078125 14.40625 6.78125 
Q 17.78125 6.5 21.296875 6.5 
Q 26.078125 6.5 29.46875 7.34375 
Q 32.859375 8.203125 35 9.8125 
Q 37.15625 11.421875 38.125 13.71875 
Q 39.109375 16.015625 39.109375 18.890625 
Q 39.109375 21.53125 37.9375 23.484375 
Q 36.765625 25.4375 34.640625 26.75 
Q 32.515625 28.078125 29.5625 28.734375 
Q 26.609375 29.390625 23.09375 29.390625 
L 15.828125 29.390625 
L 15.828125 36.375 
L 23.1875 36.375 
Q 26.078125 36.375 28.4375 37.125 
Q 30.8125 37.890625 32.5 39.296875 
Q 34.1875 40.71875 35.078125 42.796875 
Q 35.984375 44.875 35.984375 47.515625 
Q 35.984375 52.640625 32.859375 54.984375 
Q 29.734375 57.328125 23.6875 57.328125 
Q 20.453125 57.328125 17.03125 56.6875 
Q 13.625 56.0625 9.71875 54.78125 
L 9.71875 62.203125 
Q 11.375 62.796875 13.25 63.25 
Q 15.140625 63.71875 17.015625 64.03125 
Q 18.890625 64.359375 20.75 64.53125 
Q 22.609375 64.703125 24.3125 64.703125 
Q 29.390625 64.703125 33.25 63.59375 
Q 37.109375 62.5 39.6875 60.453125 
Q 42.28125 58.40625 43.59375 55.46875 
Q 44.921875 52.546875 44.921875 48.875 
Q 44.921875 43.40625 42.109375 39.6875 
Q 39.3125 35.984375 34.421875 33.796875 
Q 36.921875 33.40625 39.328125 32.234375 
Q 41.75 31.0625 43.671875 29.21875 
Q 45.609375 27.390625 46.796875 24.890625 
Q 48 22.40625 48 19.390625 
z
" id="Consolas-with-Yahei-51"/>
    </defs>
    <g transform="translate(174.863362 58.798868)scale(0.16 -0.16)">
     <use xlink:href="#Consolas-with-Yahei-51"/>
    </g>
   </g>
   <g id="text_5">
    <!-- 4 -->
    <defs>
     <path d="M 52.390625 14.109375 
L 41.5 14.109375 
L 41.5 0 
L 32.8125 0 
L 32.8125 14.109375 
L 2.09375 14.109375 
L 2.09375 21.578125 
L 29.296875 63.8125 
L 41.5 63.8125 
L 41.5 21.578125 
L 52.390625 21.578125 
z
M 32.8125 55.609375 
L 10.59375 21.578125 
L 32.8125 21.578125 
z
" id="Consolas-with-Yahei-52"/>
    </defs>
    <g transform="translate(222.658393 58.798868)scale(0.16 -0.16)">
     <use xlink:href="#Consolas-with-Yahei-52"/>
    </g>
   </g>
   <g id="text_6">
    <!-- 5 -->
    <defs>
     <path d="M 47.609375 20.40625 
Q 47.609375 15.671875 45.546875 11.765625 
Q 43.5 7.859375 39.90625 5.046875 
Q 36.328125 2.25 31.4375 0.6875 
Q 26.5625 -0.875 20.90625 -0.875 
Q 19.484375 -0.875 17.84375 -0.796875 
Q 16.21875 -0.734375 14.59375 -0.609375 
Q 12.984375 -0.484375 11.4375 -0.34375 
Q 9.90625 -0.203125 8.6875 0 
L 8.6875 7.71875 
Q 11.328125 7.078125 14.71875 6.78125 
Q 18.109375 6.5 21.578125 6.5 
Q 25.484375 6.5 28.609375 7.421875 
Q 31.734375 8.34375 33.9375 10.078125 
Q 36.140625 11.8125 37.3125 14.28125 
Q 38.484375 16.75 38.484375 19.828125 
Q 38.484375 25.78125 34.203125 28.484375 
Q 29.9375 31.203125 21.921875 31.203125 
L 9.8125 31.203125 
L 9.8125 63.8125 
L 44.1875 63.8125 
L 44.1875 56.390625 
L 17.828125 56.390625 
L 17.828125 38.484375 
L 23.390625 38.484375 
Q 27.984375 38.484375 32.328125 37.640625 
Q 36.671875 36.8125 40.0625 34.734375 
Q 43.453125 32.671875 45.53125 29.171875 
Q 47.609375 25.6875 47.609375 20.40625 
z
" id="Consolas-with-Yahei-53"/>
    </defs>
    <g transform="translate(270.453424 58.798868)scale(0.16 -0.16)">
     <use xlink:href="#Consolas-with-Yahei-53"/>
    </g>
   </g>
   <g id="text_7">
    <!-- 6 -->
    <defs>
     <path d="M 50 20.21875 
Q 50 15.828125 48.40625 11.96875 
Q 46.828125 8.109375 43.890625 5.25 
Q 40.96875 2.390625 36.84375 0.75 
Q 32.71875 -0.875 27.6875 -0.875 
Q 22.40625 -0.875 18.359375 0.796875 
Q 14.3125 2.484375 11.578125 5.96875 
Q 8.84375 9.46875 7.421875 14.796875 
Q 6 20.125 6 27.390625 
Q 6 32.28125 6.640625 36.859375 
Q 7.28125 41.453125 8.734375 45.5 
Q 10.203125 49.5625 12.640625 52.921875 
Q 15.09375 56.296875 18.71875 58.71875 
Q 22.359375 61.140625 27.296875 62.46875 
Q 32.234375 63.8125 38.71875 63.8125 
L 45.015625 63.8125 
L 45.015625 56.390625 
L 38.1875 56.390625 
Q 32.46875 56.390625 28.265625 55.015625 
Q 24.078125 53.65625 21.234375 51.171875 
Q 18.40625 48.6875 16.890625 45.171875 
Q 15.375 41.65625 14.984375 37.3125 
L 14.796875 35.296875 
Q 17.875 37.109375 21.890625 38.203125 
Q 25.921875 39.3125 30.609375 39.3125 
Q 35.453125 39.3125 39.078125 37.890625 
Q 42.71875 36.46875 45.140625 33.953125 
Q 47.5625 31.453125 48.78125 27.9375 
Q 50 24.421875 50 20.21875 
z
M 41.109375 19.671875 
Q 41.109375 22.609375 40.40625 24.96875 
Q 39.703125 27.34375 38.1875 28.96875 
Q 36.671875 30.609375 34.34375 31.515625 
Q 32.03125 32.421875 28.8125 32.421875 
Q 26.953125 32.421875 25.046875 32.078125 
Q 23.140625 31.734375 21.3125 31.125 
Q 19.484375 30.515625 17.8125 29.734375 
Q 16.15625 28.953125 14.796875 28.078125 
Q 14.796875 21.78125 15.671875 17.546875 
Q 16.546875 13.328125 18.28125 10.78125 
Q 20.015625 8.25 22.546875 7.171875 
Q 25.09375 6.109375 28.421875 6.109375 
Q 31.203125 6.109375 33.515625 7 
Q 35.84375 7.90625 37.515625 9.65625 
Q 39.203125 11.421875 40.15625 13.9375 
Q 41.109375 16.453125 41.109375 19.671875 
z
" id="Consolas-with-Yahei-54"/>
    </defs>
    <g transform="translate(318.248455 58.798868)scale(0.16 -0.16)">
     <use xlink:href="#Consolas-with-Yahei-54"/>
    </g>
   </g>
   <g id="text_8">
    <!-- 7 -->
    <defs>
     <path d="M 48.875 55.90625 
L 22.125 0 
L 12.40625 0 
L 40.1875 55.90625 
L 5.71875 55.90625 
L 5.71875 63.8125 
L 48.875 63.8125 
z
" id="Consolas-with-Yahei-55"/>
    </defs>
    <g transform="translate(366.043486 58.798868)scale(0.16 -0.16)">
     <use xlink:href="#Consolas-with-Yahei-55"/>
    </g>
   </g>
   <g id="text_9">
    <!-- 8 -->
    <defs>
     <path d="M 49.21875 16.015625 
Q 49.21875 11.96875 47.5625 8.8125 
Q 45.90625 5.671875 42.921875 3.515625 
Q 39.9375 1.375 35.890625 0.25 
Q 31.84375 -0.875 27.09375 -0.875 
Q 21.875 -0.875 17.890625 0.296875 
Q 13.921875 1.46875 11.234375 3.5625 
Q 8.546875 5.671875 7.171875 8.546875 
Q 5.8125 11.421875 5.8125 14.890625 
Q 5.8125 20.75 9.078125 25 
Q 12.359375 29.25 19.1875 32.71875 
Q 12.9375 35.890625 10.046875 39.765625 
Q 7.171875 43.65625 7.171875 48.6875 
Q 7.171875 51.765625 8.4375 54.640625 
Q 9.71875 57.515625 12.28125 59.765625 
Q 14.84375 62.015625 18.703125 63.359375 
Q 22.5625 64.703125 27.78125 64.703125 
Q 32.71875 64.703125 36.453125 63.640625 
Q 40.1875 62.59375 42.71875 60.640625 
Q 45.265625 58.6875 46.53125 55.90625 
Q 47.796875 53.125 47.796875 49.703125 
Q 47.796875 44.140625 44.703125 40.234375 
Q 41.609375 36.328125 35.890625 33.40625 
Q 38.71875 31.984375 41.15625 30.265625 
Q 43.609375 28.5625 45.40625 26.453125 
Q 47.21875 24.359375 48.21875 21.765625 
Q 49.21875 19.1875 49.21875 16.015625 
z
M 39.109375 49.03125 
Q 39.109375 53.375 36.0625 55.5 
Q 33.015625 57.625 27.484375 57.625 
Q 22.015625 57.625 18.96875 55.515625 
Q 15.921875 53.421875 15.921875 49.21875 
Q 15.921875 47.3125 16.65625 45.703125 
Q 17.390625 44.09375 18.921875 42.671875 
Q 20.453125 41.265625 22.75 39.890625 
Q 25.046875 38.53125 28.21875 37.109375 
Q 33.734375 39.703125 36.421875 42.5 
Q 39.109375 45.3125 39.109375 49.03125 
z
M 39.984375 15.375 
Q 39.984375 17.1875 39.390625 18.890625 
Q 38.8125 20.609375 37.296875 22.265625 
Q 35.796875 23.921875 33.25 25.578125 
Q 30.71875 27.25 26.8125 29 
Q 23.484375 27.390625 21.21875 25.796875 
Q 18.953125 24.21875 17.546875 22.578125 
Q 16.15625 20.953125 15.5625 19.1875 
Q 14.984375 17.4375 14.984375 15.484375 
Q 14.984375 13.28125 15.9375 11.59375 
Q 16.890625 9.90625 18.546875 8.734375 
Q 20.21875 7.5625 22.515625 6.96875 
Q 24.8125 6.390625 27.484375 6.390625 
Q 30.078125 6.390625 32.375 6.921875 
Q 34.671875 7.46875 36.34375 8.5625 
Q 38.03125 9.671875 39 11.34375 
Q 39.984375 13.03125 39.984375 15.375 
z
" id="Consolas-with-Yahei-56"/>
    </defs>
    <g transform="translate(413.838517 58.798868)scale(0.16 -0.16)">
     <use xlink:href="#Consolas-with-Yahei-56"/>
    </g>
   </g>
   <g id="text_10">
    <!-- 9 -->
    <defs>
     <path d="M 48.875 35.5 
Q 48.875 26.171875 46.625 19.453125 
Q 44.390625 12.75 39.984375 8.421875 
Q 35.59375 4.109375 29.09375 2.046875 
Q 22.609375 0 14.109375 0 
L 8.796875 0 
L 8.796875 7.421875 
L 14.703125 7.421875 
Q 21 7.421875 25.578125 8.6875 
Q 30.171875 9.96875 33.21875 12.421875 
Q 36.28125 14.890625 37.890625 18.421875 
Q 39.5 21.96875 39.890625 26.515625 
L 40.09375 28.515625 
Q 37.015625 26.703125 33 25.609375 
Q 29 24.515625 24.3125 24.515625 
Q 19.484375 24.515625 15.8125 25.921875 
Q 12.15625 27.34375 9.734375 29.875 
Q 7.328125 32.421875 6.109375 35.90625 
Q 4.890625 39.40625 4.890625 43.5 
Q 4.890625 47.953125 6.5 51.8125 
Q 8.109375 55.671875 11.015625 58.515625 
Q 13.921875 61.375 17.96875 63.03125 
Q 22.015625 64.703125 26.90625 64.703125 
Q 31.640625 64.703125 35.671875 63.140625 
Q 39.703125 61.578125 42.625 58.078125 
Q 45.5625 54.59375 47.21875 49.015625 
Q 48.875 43.453125 48.875 35.5 
z
M 26.515625 57.71875 
Q 23.78125 57.71875 21.453125 56.8125 
Q 19.140625 55.90625 17.453125 54.171875 
Q 15.765625 52.4375 14.78125 49.890625 
Q 13.8125 47.359375 13.8125 44.09375 
Q 13.8125 41.109375 14.515625 38.765625 
Q 15.234375 36.421875 16.71875 34.78125 
Q 18.21875 33.15625 20.5625 32.265625 
Q 22.90625 31.390625 26.125 31.390625 
Q 27.9375 31.390625 29.859375 31.734375 
Q 31.78125 32.078125 33.609375 32.65625 
Q 35.453125 33.25 37.109375 34.03125 
Q 38.765625 34.8125 40.09375 35.6875 
Q 40.09375 42 39.15625 46.21875 
Q 38.234375 50.4375 36.46875 53 
Q 34.71875 55.5625 32.203125 56.640625 
Q 29.6875 57.71875 26.515625 57.71875 
z
" id="Consolas-with-Yahei-57"/>
    </defs>
    <g transform="translate(461.633548 58.798868)scale(0.16 -0.16)">
     <use xlink:href="#Consolas-with-Yahei-57"/>
    </g>
   </g>
   <g id="text_11">
    <!-- 10 -->
    <g transform="translate(505.029829 58.798868)scale(0.16 -0.16)">
     <use xlink:href="#Consolas-with-Yahei-49"/>
     <use x="54.980469" xlink:href="#Consolas-with-Yahei-48"/>
    </g>
   </g>
   <g id="text_12">
    <!-- [CN] -->
    <defs>
     <path d="M 40.921875 -20.015625 
L 16.84375 -20.015625 
L 16.84375 70.703125 
L 40.921875 70.703125 
L 40.921875 63.875 
L 24.953125 63.875 
L 24.953125 -13.1875 
L 40.921875 -13.1875 
z
" id="Consolas-with-Yahei-91"/>
     <path d="M 48.578125 2.390625 
Q 40.921875 -0.78125 32.515625 -0.78125 
Q 19 -0.78125 11.75 7.296875 
Q 4.5 15.375 4.5 31.203125 
Q 4.5 38.875 6.5 45.0625 
Q 8.5 51.265625 12.203125 55.578125 
Q 15.921875 59.90625 21.1875 62.25 
Q 26.46875 64.59375 33.015625 64.59375 
Q 37.453125 64.59375 41.25 63.84375 
Q 45.0625 63.09375 48.578125 61.53125 
L 48.578125 52.984375 
Q 45.125 54.890625 41.40625 55.890625 
Q 37.703125 56.890625 33.296875 56.890625 
Q 28.8125 56.890625 25.171875 55.203125 
Q 21.53125 53.515625 18.984375 50.3125 
Q 16.453125 47.125 15.078125 42.5 
Q 13.71875 37.890625 13.71875 31.984375 
Q 13.71875 19.578125 18.75 13.28125 
Q 23.78125 6.984375 33.5 6.984375 
Q 37.59375 6.984375 41.359375 7.9375 
Q 45.125 8.890625 48.578125 10.59375 
z
" id="Consolas-with-Yahei-67"/>
     <path d="M 49.21875 0 
L 37.890625 0 
L 19.28125 39.796875 
L 13.921875 52.59375 
L 13.921875 20.40625 
L 13.921875 0 
L 5.8125 0 
L 5.8125 63.8125 
L 17 63.8125 
L 34.71875 26.125 
L 41.109375 11.53125 
L 41.109375 45.703125 
L 41.109375 63.8125 
L 49.21875 63.8125 
z
" id="Consolas-with-Yahei-78"/>
     <path d="M 38.140625 -20.015625 
L 14.0625 -20.015625 
L 14.0625 -13.1875 
L 29.9375 -13.1875 
L 29.9375 63.875 
L 14.0625 63.875 
L 14.0625 70.703125 
L 38.140625 70.703125 
z
" id="Consolas-with-Yahei-93"/>
    </defs>
    <g transform="translate(18.282019 202.320211)scale(0.16 -0.16)">
     <use xlink:href="#Consolas-with-Yahei-91"/>
     <use x="54.980469" xlink:href="#Consolas-with-Yahei-67"/>
     <use x="109.960938" xlink:href="#Consolas-with-Yahei-78"/>
     <use x="164.941406" xlink:href="#Consolas-with-Yahei-93"/>
    </g>
   </g>
   <g id="text_13">
    <!-- [OK] -->
    <defs>
     <path d="M 52.296875 32.328125 
Q 52.296875 23.734375 50.265625 17.484375 
Q 48.25 11.234375 44.796875 7.15625 
Q 41.359375 3.078125 36.734375 1.09375 
Q 32.125 -0.875 27 -0.875 
Q 20.84375 -0.875 16.28125 1.34375 
Q 11.71875 3.5625 8.71875 7.765625 
Q 5.71875 11.96875 4.25 18 
Q 2.78125 24.03125 2.78125 31.59375 
Q 2.78125 40.09375 4.78125 46.34375 
Q 6.78125 52.59375 10.21875 56.671875 
Q 13.671875 60.75 18.265625 62.71875 
Q 22.859375 64.703125 27.984375 64.703125 
Q 34.125 64.703125 38.6875 62.453125 
Q 43.265625 60.203125 46.28125 56.03125 
Q 49.3125 51.859375 50.796875 45.84375 
Q 52.296875 39.84375 52.296875 32.328125 
z
M 43.265625 31.6875 
Q 43.265625 37.3125 42.40625 41.96875 
Q 41.546875 46.625 39.640625 50 
Q 37.75 53.375 34.734375 55.21875 
Q 31.734375 57.078125 27.484375 57.078125 
Q 23.390625 57.078125 20.4375 55.09375 
Q 17.484375 53.125 15.578125 49.734375 
Q 13.671875 46.34375 12.734375 41.765625 
Q 11.8125 37.203125 11.8125 32.078125 
Q 11.8125 26.421875 12.6875 21.75 
Q 13.578125 17.09375 15.453125 13.75 
Q 17.328125 10.40625 20.3125 8.546875 
Q 23.296875 6.6875 27.484375 6.6875 
Q 31.59375 6.6875 34.5625 8.65625 
Q 37.546875 10.640625 39.46875 14.03125 
Q 41.40625 17.4375 42.328125 21.96875 
Q 43.265625 26.515625 43.265625 31.6875 
z
" id="Consolas-with-Yahei-79"/>
     <path d="M 51.125 0 
L 40.1875 0 
L 16.3125 31.296875 
L 16.3125 0 
L 7.625 0 
L 7.625 63.8125 
L 16.3125 63.8125 
L 16.3125 34.1875 
L 39.703125 63.8125 
L 50 63.8125 
L 24.8125 33.5 
z
" id="Consolas-with-Yahei-75"/>
    </defs>
    <g transform="translate(66.07705 202.320211)scale(0.16 -0.16)">
     <use xlink:href="#Consolas-with-Yahei-91"/>
     <use x="54.980469" xlink:href="#Consolas-with-Yahei-79"/>
     <use x="109.960938" xlink:href="#Consolas-with-Yahei-75"/>
     <use x="164.941406" xlink:href="#Consolas-with-Yahei-93"/>
    </g>
   </g>
   <g id="text_14">
    <!-- [CN] -->
    <g transform="translate(209.462143 202.320211)scale(0.16 -0.16)">
     <use xlink:href="#Consolas-with-Yahei-91"/>
     <use x="54.980469" xlink:href="#Consolas-with-Yahei-67"/>
     <use x="109.960938" xlink:href="#Consolas-with-Yahei-78"/>
     <use x="164.941406" xlink:href="#Consolas-with-Yahei-93"/>
    </g>
   </g>
   <g id="text_15">
    <!-- [A0] -->
    <defs>
     <path d="M 54.5 0 
L 45.015625 0 
L 40.578125 13.921875 
L 14.015625 13.921875 
L 9.515625 0 
L 0.484375 0 
L 21.6875 63.8125 
L 33.59375 63.8125 
z
M 38.09375 21.6875 
L 27.296875 55.8125 
L 16.5 21.6875 
z
" id="Consolas-with-Yahei-65"/>
    </defs>
    <g transform="translate(257.257174 202.320211)scale(0.16 -0.16)">
     <use xlink:href="#Consolas-with-Yahei-91"/>
     <use x="54.980469" xlink:href="#Consolas-with-Yahei-65"/>
     <use x="109.960938" xlink:href="#Consolas-with-Yahei-48"/>
     <use x="164.941406" xlink:href="#Consolas-with-Yahei-93"/>
    </g>
   </g>
   <g id="text_16">
    <!-- [CN] -->
    <g transform="translate(352.847236 202.320211)scale(0.16 -0.16)">
     <use xlink:href="#Consolas-with-Yahei-91"/>
     <use x="54.980469" xlink:href="#Consolas-with-Yahei-67"/>
     <use x="109.960938" xlink:href="#Consolas-with-Yahei-78"/>
     <use x="164.941406" xlink:href="#Consolas-with-Yahei-93"/>
    </g>
   </g>
   <g id="text_17">
    <!-- [TN] -->
    <defs>
     <path d="M 50.78125 56.390625 
L 31.890625 56.390625 
L 31.890625 0 
L 23.09375 0 
L 23.09375 56.390625 
L 4.203125 56.390625 
L 4.203125 63.8125 
L 50.78125 63.8125 
z
" id="Consolas-with-Yahei-84"/>
    </defs>
    <g transform="translate(448.437298 202.320211)scale(0.16 -0.16)">
     <use xlink:href="#Consolas-with-Yahei-91"/>
     <use x="54.980469" xlink:href="#Consolas-with-Yahei-84"/>
     <use x="109.960938" xlink:href="#Consolas-with-Yahei-78"/>
     <use x="164.941406" xlink:href="#Consolas-with-Yahei-93"/>
    </g>
   </g>
   <g id="text_18">
    <!-- [CN] -->
    <g transform="translate(496.232329 202.320211)scale(0.16 -0.16)">
     <use xlink:href="#Consolas-with-Yahei-91"/>
     <use x="54.980469" xlink:href="#Consolas-with-Yahei-67"/>
     <use x="109.960938" xlink:href="#Consolas-with-Yahei-78"/>
     <use x="164.941406" xlink:href="#Consolas-with-Yahei-93"/>
    </g>
   </g>
   <g id="text_19">
    <!-- C Dorian(b4) (color_style=avoid) -->
    <defs>
     <path id="Consolas-with-Yahei-32"/>
     <path d="M 51.421875 32.625 
Q 51.421875 28.03125 50.703125 23.828125 
Q 50 19.625 48.4375 16.015625 
Q 46.875 12.40625 44.375 9.453125 
Q 41.890625 6.5 38.28125 4.390625 
Q 34.671875 2.296875 29.875 1.140625 
Q 25.09375 0 19 0 
L 5.328125 0 
L 5.328125 63.8125 
L 21.78125 63.8125 
Q 36.71875 63.8125 44.0625 56.125 
Q 51.421875 48.4375 51.421875 32.625 
z
M 42.28125 31.984375 
Q 42.28125 38.765625 41.015625 43.453125 
Q 39.75 48.140625 37.15625 51.015625 
Q 34.578125 53.90625 30.671875 55.203125 
Q 26.765625 56.5 21.484375 56.5 
L 14.015625 56.5 
L 14.015625 7.515625 
L 20.515625 7.515625 
Q 42.28125 7.515625 42.28125 31.984375 
z
" id="Consolas-with-Yahei-68"/>
     <path d="M 50.484375 24.90625 
Q 50.484375 19.1875 48.875 14.421875 
Q 47.265625 9.671875 44.234375 6.265625 
Q 41.21875 2.875 36.859375 1 
Q 32.515625 -0.875 27 -0.875 
Q 21.734375 -0.875 17.546875 0.75 
Q 13.375 2.390625 10.46875 5.5625 
Q 7.5625 8.734375 6.03125 13.421875 
Q 4.5 18.109375 4.5 24.21875 
Q 4.5 29.9375 6.109375 34.640625 
Q 7.71875 39.359375 10.734375 42.75 
Q 13.765625 46.140625 18.109375 48.015625 
Q 22.46875 49.90625 27.984375 49.90625 
Q 33.25 49.90625 37.421875 48.265625 
Q 41.609375 46.625 44.5 43.46875 
Q 47.40625 40.328125 48.9375 35.640625 
Q 50.484375 30.953125 50.484375 24.90625 
z
M 41.796875 24.515625 
Q 41.796875 29.046875 40.796875 32.4375 
Q 39.796875 35.84375 37.9375 38.109375 
Q 36.078125 40.375 33.421875 41.515625 
Q 30.765625 42.671875 27.484375 42.671875 
Q 23.6875 42.671875 20.96875 41.1875 
Q 18.265625 39.703125 16.53125 37.203125 
Q 14.796875 34.71875 13.984375 31.421875 
Q 13.1875 28.125 13.1875 24.515625 
Q 13.1875 19.96875 14.1875 16.546875 
Q 15.1875 13.140625 17.03125 10.859375 
Q 18.890625 8.59375 21.53125 7.4375 
Q 24.171875 6.296875 27.484375 6.296875 
Q 31.296875 6.296875 34 7.78125 
Q 36.71875 9.28125 38.453125 11.765625 
Q 40.1875 14.265625 40.984375 17.546875 
Q 41.796875 20.84375 41.796875 24.515625 
z
" id="Consolas-with-Yahei-111"/>
     <path d="M 9.8125 49.03125 
L 17.578125 49.03125 
L 17.828125 39.984375 
Q 22.171875 45.21875 26.390625 47.5625 
Q 30.609375 49.90625 34.90625 49.90625 
Q 42.53125 49.90625 46.453125 44.96875 
Q 50.390625 40.046875 50.09375 30.328125 
L 41.5 30.328125 
Q 41.65625 36.765625 39.625 39.671875 
Q 37.59375 42.578125 33.6875 42.578125 
Q 31.984375 42.578125 30.25 41.96875 
Q 28.515625 41.359375 26.6875 40.015625 
Q 24.859375 38.671875 22.796875 36.5625 
Q 20.75 34.46875 18.40625 31.5 
L 18.40625 0 
L 9.8125 0 
z
" id="Consolas-with-Yahei-114"/>
     <path d="M 24.515625 42 
L 10.015625 42 
L 10.015625 49.03125 
L 33.109375 49.03125 
L 33.109375 7.078125 
L 47.703125 7.078125 
L 47.703125 0 
L 8.40625 0 
L 8.40625 7.078125 
L 24.515625 7.078125 
z
M 27.484375 69.578125 
Q 28.90625 69.578125 30.125 69.0625 
Q 31.34375 68.5625 32.25 67.625 
Q 33.15625 66.703125 33.671875 65.5 
Q 34.1875 64.3125 34.1875 62.890625 
Q 34.1875 61.53125 33.671875 60.296875 
Q 33.15625 59.078125 32.25 58.15625 
Q 31.34375 57.234375 30.125 56.71875 
Q 28.90625 56.203125 27.484375 56.203125 
Q 26.078125 56.203125 24.859375 56.71875 
Q 23.640625 57.234375 22.734375 58.15625 
Q 21.828125 59.078125 21.3125 60.296875 
Q 20.796875 61.53125 20.796875 62.890625 
Q 20.796875 64.3125 21.3125 65.5 
Q 21.828125 66.703125 22.734375 67.625 
Q 23.640625 68.5625 24.859375 69.0625 
Q 26.078125 69.578125 27.484375 69.578125 
z
" id="Consolas-with-Yahei-105"/>
     <path d="M 39.3125 0 
L 39.109375 6.59375 
Q 35.109375 2.640625 30.984375 0.875 
Q 26.859375 -0.875 22.3125 -0.875 
Q 18.109375 -0.875 15.125 0.1875 
Q 12.15625 1.265625 10.21875 3.140625 
Q 8.296875 5.03125 7.390625 7.5625 
Q 6.5 10.109375 6.5 13.09375 
Q 6.5 20.453125 11.984375 24.625 
Q 17.484375 28.8125 28.21875 28.8125 
L 38.375 28.8125 
L 38.375 33.109375 
Q 38.375 37.453125 35.59375 40.0625 
Q 32.8125 42.671875 27.09375 42.671875 
Q 22.953125 42.671875 18.921875 41.75 
Q 14.890625 40.828125 10.59375 39.109375 
L 10.59375 46.78125 
Q 12.203125 47.359375 14.171875 47.921875 
Q 16.15625 48.484375 18.359375 48.921875 
Q 20.5625 49.359375 22.953125 49.625 
Q 25.34375 49.90625 27.78125 49.90625 
Q 32.234375 49.90625 35.796875 48.921875 
Q 39.359375 47.953125 41.8125 45.953125 
Q 44.28125 43.953125 45.59375 40.921875 
Q 46.921875 37.890625 46.921875 33.796875 
L 46.921875 0 
z
M 38.375 22.3125 
L 27.59375 22.3125 
Q 24.421875 22.3125 22.125 21.671875 
Q 19.828125 21.046875 18.359375 19.875 
Q 16.890625 18.703125 16.1875 17.0625 
Q 15.484375 15.4375 15.484375 13.375 
Q 15.484375 11.96875 15.921875 10.671875 
Q 16.359375 9.375 17.328125 8.375 
Q 18.3125 7.375 19.875 6.78125 
Q 21.4375 6.203125 23.6875 6.203125 
Q 26.609375 6.203125 30.390625 7.984375 
Q 34.1875 9.765625 38.375 13.625 
z
" id="Consolas-with-Yahei-97"/>
     <path d="M 7.8125 49.03125 
L 15.375 49.03125 
L 15.71875 41.109375 
Q 17.875 43.65625 19.875 45.328125 
Q 21.875 47.015625 23.796875 48.046875 
Q 25.734375 49.078125 27.734375 49.484375 
Q 29.734375 49.90625 31.890625 49.90625 
Q 39.453125 49.90625 43.328125 45.4375 
Q 47.21875 40.96875 47.21875 31.984375 
L 47.21875 0 
L 38.71875 0 
L 38.71875 31.296875 
Q 38.71875 37.0625 36.5625 39.8125 
Q 34.421875 42.578125 30.171875 42.578125 
Q 28.609375 42.578125 27.125 42.109375 
Q 25.640625 41.65625 24.015625 40.5 
Q 22.40625 39.359375 20.53125 37.40625 
Q 18.65625 35.453125 16.3125 32.515625 
L 16.3125 0 
L 7.8125 0 
z
" id="Consolas-with-Yahei-110"/>
     <path d="M 37.15625 -20.515625 
Q 14.65625 0.34375 14.65625 25.59375 
Q 14.65625 31.5 15.84375 37.375 
Q 17.046875 43.265625 19.703125 49.171875 
Q 22.359375 55.078125 26.734375 60.984375 
Q 31.109375 66.890625 37.359375 72.703125 
L 42.28125 67.671875 
Q 23.34375 48.96875 23.34375 26.21875 
Q 23.34375 14.890625 28.125 4.4375 
Q 32.90625 -6 42.28125 -15.28125 
z
" id="Consolas-with-Yahei-40"/>
     <path d="M 49.703125 25.390625 
Q 49.703125 19.28125 48.015625 14.46875 
Q 46.34375 9.671875 43.234375 6.328125 
Q 40.140625 2.984375 35.6875 1.1875 
Q 31.25 -0.59375 25.6875 -0.59375 
Q 21.34375 -0.59375 16.796875 0.234375 
Q 12.25 1.078125 7.8125 2.875 
L 7.8125 69 
L 16.3125 69 
L 16.3125 50 
L 15.921875 40.921875 
Q 19.578125 45.84375 23.75 47.875 
Q 27.9375 49.90625 32.71875 49.90625 
Q 36.921875 49.90625 40.09375 48.140625 
Q 43.265625 46.390625 45.40625 43.1875 
Q 47.5625 39.984375 48.625 35.46875 
Q 49.703125 30.953125 49.703125 25.390625 
z
M 41.015625 25 
Q 41.015625 28.859375 40.453125 32.078125 
Q 39.890625 35.296875 38.671875 37.59375 
Q 37.453125 39.890625 35.546875 41.1875 
Q 33.640625 42.484375 31 42.484375 
Q 29.390625 42.484375 27.734375 41.96875 
Q 26.078125 41.453125 24.296875 40.25 
Q 22.515625 39.0625 20.53125 37.078125 
Q 18.5625 35.109375 16.3125 32.171875 
L 16.3125 8.40625 
Q 18.796875 7.421875 21.375 6.859375 
Q 23.96875 6.296875 26.3125 6.296875 
Q 29.25 6.296875 31.90625 7.21875 
Q 34.578125 8.15625 36.59375 10.328125 
Q 38.625 12.5 39.8125 16.078125 
Q 41.015625 19.671875 41.015625 25 
z
" id="Consolas-with-Yahei-98"/>
     <path d="M 17.828125 72.703125 
Q 40.328125 51.859375 40.328125 26.3125 
Q 40.328125 21.046875 39.25 15.375 
Q 38.1875 9.71875 35.59375 3.78125 
Q 33.015625 -2.15625 28.640625 -8.25 
Q 24.265625 -14.359375 17.625 -20.515625 
L 12.703125 -15.484375 
Q 22.21875 -6.0625 26.90625 4.1875 
Q 31.59375 14.453125 31.59375 25.6875 
Q 31.59375 48.921875 12.703125 67.484375 
z
" id="Consolas-with-Yahei-41"/>
     <path d="M 45.90625 1.8125 
Q 42.578125 0.53125 39.078125 -0.078125 
Q 35.59375 -0.6875 31.890625 -0.6875 
Q 20.265625 -0.6875 13.984375 5.609375 
Q 7.71875 11.921875 7.71875 24.03125 
Q 7.71875 29.828125 9.515625 34.5625 
Q 11.328125 39.3125 14.59375 42.671875 
Q 17.875 46.046875 22.40625 47.875 
Q 26.953125 49.703125 32.421875 49.703125 
Q 36.234375 49.703125 39.546875 49.171875 
Q 42.875 48.640625 45.90625 47.40625 
L 45.90625 39.3125 
Q 42.71875 40.96875 39.421875 41.71875 
Q 36.140625 42.484375 32.625 42.484375 
Q 29.34375 42.484375 26.4375 41.234375 
Q 23.53125 39.984375 21.328125 37.640625 
Q 19.140625 35.296875 17.875 31.921875 
Q 16.609375 28.5625 16.609375 24.3125 
Q 16.609375 15.4375 20.921875 11.015625 
Q 25.25 6.59375 32.90625 6.59375 
Q 36.375 6.59375 39.625 7.375 
Q 42.875 8.15625 45.90625 9.71875 
z
" id="Consolas-with-Yahei-99"/>
     <path d="M 24.515625 62.015625 
L 10.015625 62.015625 
L 10.015625 69 
L 33.109375 69 
L 33.109375 7.078125 
L 47.703125 7.078125 
L 47.703125 0 
L 8.40625 0 
L 8.40625 7.078125 
L 24.515625 7.078125 
z
" id="Consolas-with-Yahei-108"/>
     <path d="M 54.984375 -20.015625 
L 0 -20.015625 
L 0 -12.984375 
L 54.984375 -12.984375 
z
" id="Consolas-with-Yahei-95"/>
     <path d="M 46.625 13.375 
Q 46.625 10.796875 45.75 8.734375 
Q 44.875 6.6875 43.359375 5.09375 
Q 41.84375 3.515625 39.84375 2.390625 
Q 37.84375 1.265625 35.5625 0.53125 
Q 33.296875 -0.203125 30.90625 -0.53125 
Q 28.515625 -0.875 26.21875 -0.875 
Q 21.234375 -0.875 17.0625 -0.4375 
Q 12.890625 0 8.890625 0.984375 
L 8.890625 8.796875 
Q 13.1875 7.5625 17.4375 6.921875 
Q 21.6875 6.296875 25.875 6.296875 
Q 31.984375 6.296875 34.90625 7.953125 
Q 37.84375 9.625 37.84375 12.703125 
Q 37.84375 14.015625 37.375 15.0625 
Q 36.921875 16.109375 35.6875 17.0625 
Q 34.46875 18.015625 31.90625 19.03125 
Q 29.34375 20.0625 24.90625 21.390625 
Q 21.578125 22.359375 18.765625 23.609375 
Q 15.96875 24.859375 13.90625 26.5625 
Q 11.859375 28.265625 10.6875 30.5625 
Q 9.515625 32.859375 9.515625 35.984375 
Q 9.515625 38.03125 10.46875 40.46875 
Q 11.421875 42.921875 13.71875 45.015625 
Q 16.015625 47.125 19.921875 48.515625 
Q 23.828125 49.90625 29.6875 49.90625 
Q 32.5625 49.90625 36.078125 49.578125 
Q 39.59375 49.265625 43.40625 48.484375 
L 43.40625 40.921875 
Q 39.40625 41.890625 35.8125 42.359375 
Q 32.234375 42.828125 29.59375 42.828125 
Q 26.421875 42.828125 24.25 42.328125 
Q 22.078125 41.84375 20.734375 40.984375 
Q 19.390625 40.140625 18.796875 38.984375 
Q 18.21875 37.84375 18.21875 36.53125 
Q 18.21875 35.203125 18.71875 34.125 
Q 19.234375 33.0625 20.625 32.0625 
Q 22.015625 31.0625 24.5 30.046875 
Q 27 29.046875 31 27.875 
Q 35.359375 26.609375 38.328125 25.21875 
Q 41.3125 23.828125 43.15625 22.109375 
Q 45.015625 20.40625 45.8125 18.25 
Q 46.625 16.109375 46.625 13.375 
z
" id="Consolas-with-Yahei-115"/>
     <path d="M 47.3125 0.6875 
Q 44.4375 -0.046875 41.359375 -0.359375 
Q 38.28125 -0.6875 35.109375 -0.6875 
Q 25.875 -0.6875 21.328125 3.484375 
Q 16.796875 7.671875 16.796875 16.3125 
L 16.796875 41.890625 
L 3.078125 41.890625 
L 3.078125 49.03125 
L 16.796875 49.03125 
L 16.796875 62.5 
L 25.296875 64.703125 
L 25.296875 49.03125 
L 47.3125 49.03125 
L 47.3125 41.890625 
L 25.296875 41.890625 
L 25.296875 17 
Q 25.296875 11.71875 28.09375 9.109375 
Q 30.90625 6.5 36.375 6.5 
Q 38.71875 6.5 41.5 6.859375 
Q 44.28125 7.234375 47.3125 8.015625 
z
" id="Consolas-with-Yahei-116"/>
     <path d="M 51.421875 49.03125 
L 34.71875 5.171875 
Q 32.125 -1.515625 29.359375 -6.34375 
Q 26.609375 -11.1875 23.328125 -14.28125 
Q 20.0625 -17.390625 16.15625 -18.84375 
Q 12.25 -20.3125 7.421875 -20.3125 
Q 6.15625 -20.3125 5.125 -20.265625 
Q 4.109375 -20.21875 2.875 -20.125 
L 2.875 -12.40625 
Q 3.953125 -12.546875 5.21875 -12.671875 
Q 6.5 -12.796875 7.90625 -12.796875 
Q 10.25 -12.796875 12.28125 -12.109375 
Q 14.3125 -11.421875 16.109375 -9.875 
Q 17.921875 -8.34375 19.578125 -5.90625 
Q 21.234375 -3.46875 22.796875 0 
L 3.21875 49.03125 
L 12.890625 49.03125 
L 25.296875 16.609375 
L 27.78125 8.984375 
L 30.609375 16.796875 
L 42.09375 49.03125 
z
" id="Consolas-with-Yahei-121"/>
     <path d="M 49.21875 27.09375 
Q 49.21875 25.296875 49.171875 24.078125 
Q 49.125 22.859375 49.03125 21.78125 
L 14.59375 21.78125 
Q 14.59375 14.265625 18.796875 10.234375 
Q 23 6.203125 30.90625 6.203125 
Q 33.0625 6.203125 35.203125 6.375 
Q 37.359375 6.546875 39.359375 6.828125 
Q 41.359375 7.125 43.1875 7.484375 
Q 45.015625 7.859375 46.578125 8.296875 
L 46.578125 1.3125 
Q 43.109375 0.34375 38.734375 -0.265625 
Q 34.375 -0.875 29.6875 -0.875 
Q 23.390625 -0.875 18.84375 0.828125 
Q 14.3125 2.546875 11.40625 5.78125 
Q 8.5 9.03125 7.109375 13.734375 
Q 5.71875 18.453125 5.71875 24.421875 
Q 5.71875 29.59375 7.203125 34.203125 
Q 8.6875 38.8125 11.546875 42.296875 
Q 14.40625 45.796875 18.546875 47.84375 
Q 22.703125 49.90625 27.984375 49.90625 
Q 33.109375 49.90625 37.0625 48.296875 
Q 41.015625 46.6875 43.71875 43.71875 
Q 46.4375 40.765625 47.828125 36.546875 
Q 49.21875 32.328125 49.21875 27.09375 
z
M 40.375 28.328125 
Q 40.53125 31.59375 39.75 34.296875 
Q 38.96875 37.015625 37.328125 38.96875 
Q 35.6875 40.921875 33.25 42.015625 
Q 30.8125 43.109375 27.59375 43.109375 
Q 24.8125 43.109375 22.515625 42.03125 
Q 20.21875 40.96875 18.546875 39.015625 
Q 16.890625 37.0625 15.859375 34.328125 
Q 14.84375 31.59375 14.59375 28.328125 
z
" id="Consolas-with-Yahei-101"/>
     <path d="M 48.484375 31.546875 
L 6.5 31.546875 
L 6.5 38.71875 
L 48.484375 38.71875 
z
M 48.484375 14.546875 
L 6.5 14.546875 
L 6.5 21.734375 
L 48.484375 21.734375 
z
" id="Consolas-with-Yahei-61"/>
     <path d="M 3.21875 49.03125 
L 12.890625 49.03125 
L 24.90625 16.609375 
L 27.484375 8.6875 
L 30.171875 16.796875 
L 42.09375 49.03125 
L 51.421875 49.03125 
L 32.171875 0 
L 22.40625 0 
z
" id="Consolas-with-Yahei-118"/>
     <path d="M 5.328125 23.484375 
Q 5.328125 29.734375 7.03125 34.59375 
Q 8.734375 39.453125 11.890625 42.796875 
Q 15.046875 46.140625 19.453125 47.875 
Q 23.875 49.609375 29.296875 49.609375 
Q 31.640625 49.609375 33.90625 49.3125 
Q 36.1875 49.03125 38.375 48.390625 
L 38.375 69 
L 46.921875 69 
L 46.921875 0 
L 39.3125 0 
L 39.015625 9.28125 
Q 35.453125 4.109375 31.296875 1.609375 
Q 27.15625 -0.875 22.3125 -0.875 
Q 18.109375 -0.875 14.90625 0.875 
Q 11.71875 2.640625 9.59375 5.828125 
Q 7.46875 9.03125 6.390625 13.515625 
Q 5.328125 18.015625 5.328125 23.484375 
z
M 14.015625 24.03125 
Q 14.015625 15.140625 16.625 10.765625 
Q 19.234375 6.390625 24.03125 6.390625 
Q 27.25 6.390625 30.828125 9.265625 
Q 34.421875 12.15625 38.375 17.828125 
L 38.375 40.578125 
Q 36.28125 41.546875 33.734375 42.0625 
Q 31.203125 42.578125 28.71875 42.578125 
Q 21.78125 42.578125 17.890625 38.078125 
Q 14.015625 33.59375 14.015625 24.03125 
z
" id="Consolas-with-Yahei-100"/>
    </defs>
    <g transform="translate(105.940174 21.159)scale(0.192 -0.192)">
     <use xlink:href="#Consolas-with-Yahei-67"/>
     <use x="54.980469" xlink:href="#Consolas-with-Yahei-32"/>
     <use x="109.960938" xlink:href="#Consolas-with-Yahei-68"/>
     <use x="164.941406" xlink:href="#Consolas-with-Yahei-111"/>
     <use x="219.921875" xlink:href="#Consolas-with-Yahei-114"/>
     <use x="274.902344" xlink:href="#Consolas-with-Yahei-105"/>
     <use x="329.882812" xlink:href="#Consolas-with-Yahei-97"/>
     <use x="384.863281" xlink:href="#Consolas-with-Yahei-110"/>
     <use x="439.84375" xlink:href="#Consolas-with-Yahei-40"/>
     <use x="494.824219" xlink:href="#Consolas-with-Yahei-98"/>
     <use x="549.804688" xlink:href="#Consolas-with-Yahei-52"/>
     <use x="604.785156" xlink:href="#Consolas-with-Yahei-41"/>
     <use x="659.765625" xlink:href="#Consolas-with-Yahei-32"/>
     <use x="714.746094" xlink:href="#Consolas-with-Yahei-40"/>
     <use x="769.726562" xlink:href="#Consolas-with-Yahei-99"/>
     <use x="824.707031" xlink:href="#Consolas-with-Yahei-111"/>
     <use x="879.6875" xlink:href="#Consolas-with-Yahei-108"/>
     <use x="934.667969" xlink:href="#Consolas-with-Yahei-111"/>
     <use x="989.648438" xlink:href="#Consolas-with-Yahei-114"/>
     <use x="1044.628906" xlink:href="#Consolas-with-Yahei-95"/>
     <use x="1099.609375" xlink:href="#Consolas-with-Yahei-115"/>
     <use x="1154.589844" xlink:href="#Consolas-with-Yahei-116"/>
     <use x="1209.570312" xlink:href="#Consolas-with-Yahei-121"/>
     <use x="1264.550781" xlink:href="#Consolas-with-Yahei-108"/>
     <use x="1319.53125" xlink:href="#Consolas-with-Yahei-101"/>
     <use x="1374.511719" xlink:href="#Consolas-with-Yahei-61"/>
     <use x="1429.492188" xlink:href="#Consolas-with-Yahei-97"/>
     <use x="1484.472656" xlink:href="#Consolas-with-Yahei-118"/>
     <use x="1539.453125" xlink:href="#Consolas-with-Yahei-111"/>
     <use x="1594.433594" xlink:href="#Consolas-with-Yahei-105"/>
     <use x="1649.414062" xlink:href="#Consolas-with-Yahei-100"/>
     <use x="1704.394531" xlink:href="#Consolas-with-Yahei-41"/>
    </g>
   </g>
  </g>
 </g>
 <defs>
  <clipPath id="p90d1c0a27a">
   <rect height="210.298137" width="535.304348" x="7.2" y="16.644093"/>
  </clipPath>
 </defs>
</svg>
