<?xml version="1.0" encoding="utf-8" standalone="no"?>
<!DOCTYPE svg PUBLIC "-//W3C//DTD SVG 1.1//EN"
  "http://www.w3.org/Graphics/SVG/1.1/DTD/svg11.dtd">
<!-- Created with matplotlib (https://matplotlib.org/) -->
<svg height="762.645949pt" version="1.1" viewBox="0 0 1202.4 762.645949" width="1202.4pt" xmlns="http://www.w3.org/2000/svg" xmlns:xlink="http://www.w3.org/1999/xlink">
 <defs>
  <style type="text/css">
*{stroke-linecap:butt;stroke-linejoin:round;}
  </style>
 </defs>
 <g id="figure_1">
  <g id="patch_1">
   <path d="M 0 762.645949 
L 1202.4 762.645949 
L 1202.4 0 
L 0 0 
z
" style="fill:#ffffff;"/>
  </g>
  <g id="axes_1">
   <g id="patch_2">
    <path clip-path="url(#pb827c25fd3)" d="M 115.2 697.915205 
C 124.747312 697.915205 133.904875 694.122018 140.655844 687.371049 
C 147.406813 680.620081 151.2 671.462517 151.2 661.915205 
C 151.2 652.367894 147.406813 643.21033 140.655844 636.459361 
C 133.904875 629.708392 124.747312 625.915205 115.2 625.915205 
C 105.652688 625.915205 96.495125 629.708392 89.744156 636.459361 
C 82.993187 643.21033 79.2 652.367894 79.2 661.915205 
C 79.2 671.462517 82.993187 680.620081 89.744156 687.371049 
C 96.495125 694.122018 105.652688 697.915205 115.2 697.915205 
z
" style="fill:#d5e8d4;stroke:#000000;stroke-linejoin:miter;"/>
   </g>
   <g id="patch_3">
    <path clip-path="url(#pb827c25fd3)" d="M 115.2 688.915205 
C 122.360484 688.915205 129.228657 686.070315 134.291883 681.007088 
C 139.35511 675.943862 142.2 669.075689 142.2 661.915205 
C 142.2 654.754722 139.35511 647.886549 134.291883 642.823322 
C 129.228657 637.760096 122.360484 634.915205 115.2 634.915205 
C 108.039516 634.915205 101.171343 637.760096 96.108117 642.823322 
C 91.04489 647.886549 88.2 654.754722 88.2 661.915205 
C 88.2 669.075689 91.04489 675.943862 96.108117 681.007088 
C 101.171343 686.070315 108.039516 688.915205 115.2 688.915205 
z
" style="fill:#444444;stroke:#222222;stroke-linejoin:miter;"/>
   </g>
   <g id="patch_4">
    <path clip-path="url(#pb827c25fd3)" d="M 223.2 697.915205 
C 232.747312 697.915205 241.904875 694.122018 248.655844 687.371049 
C 255.406813 680.620081 259.2 671.462517 259.2 661.915205 
C 259.2 652.367894 255.406813 643.21033 248.655844 636.459361 
C 241.904875 629.708392 232.747312 625.915205 223.2 625.915205 
C 213.652688 625.915205 204.495125 629.708392 197.744156 636.459361 
C 190.993187 643.21033 187.2 652.367894 187.2 661.915205 
C 187.2 671.462517 190.993187 680.620081 197.744156 687.371049 
C 204.495125 694.122018 213.652688 697.915205 223.2 697.915205 
z
" style="fill:#f8cecc;stroke:#000000;stroke-linejoin:miter;"/>
   </g>
   <g id="patch_5">
    <path clip-path="url(#pb827c25fd3)" d="M 223.2 688.915205 
C 230.360484 688.915205 237.228657 686.070315 242.291883 681.007088 
C 247.35511 675.943862 250.2 669.075689 250.2 661.915205 
C 250.2 654.754722 247.35511 647.886549 242.291883 642.823322 
C 237.228657 637.760096 230.360484 634.915205 223.2 634.915205 
C 216.039516 634.915205 209.171343 637.760096 204.108117 642.823322 
C 199.04489 647.886549 196.2 654.754722 196.2 661.915205 
C 196.2 669.075689 199.04489 675.943862 204.108117 681.007088 
C 209.171343 686.070315 216.039516 688.915205 223.2 688.915205 
z
" style="fill:#444444;stroke:#222222;stroke-linejoin:miter;"/>
   </g>
   <g id="patch_6">
    <path clip-path="url(#pb827c25fd3)" d="M 331.2 697.915205 
C 340.747312 697.915205 349.904875 694.122018 356.655844 687.371049 
C 363.406813 680.620081 367.2 671.462517 367.2 661.915205 
C 367.2 652.367894 363.406813 643.21033 356.655844 636.459361 
C 349.904875 629.708392 340.747312 625.915205 331.2 625.915205 
C 321.652688 625.915205 312.495125 629.708392 305.744156 636.459361 
C 298.993187 643.21033 295.2 652.367894 295.2 661.915205 
C 295.2 671.462517 298.993187 680.620081 305.744156 687.371049 
C 312.495125 694.122018 321.652688 697.915205 331.2 697.915205 
z
" style="fill:#fff2cc;stroke:#000000;stroke-linejoin:miter;"/>
   </g>
   <g id="patch_7">
    <path clip-path="url(#pb827c25fd3)" d="M 439.2 697.915205 
C 448.747312 697.915205 457.904875 694.122018 464.655844 687.371049 
C 471.406813 680.620081 475.2 671.462517 475.2 661.915205 
C 475.2 652.367894 471.406813 643.21033 464.655844 636.459361 
C 457.904875 629.708392 448.747312 625.915205 439.2 625.915205 
C 429.652688 625.915205 420.495125 629.708392 413.744156 636.459361 
C 406.993187 643.21033 403.2 652.367894 403.2 661.915205 
C 403.2 671.462517 406.993187 680.620081 413.744156 687.371049 
C 420.495125 694.122018 429.652688 697.915205 439.2 697.915205 
z
" style="fill:#d5e8d4;stroke:#000000;stroke-linejoin:miter;"/>
   </g>
   <g id="patch_8">
    <path clip-path="url(#pb827c25fd3)" d="M 439.2 688.915205 
C 446.360484 688.915205 453.228657 686.070315 458.291883 681.007088 
C 463.35511 675.943862 466.2 669.075689 466.2 661.915205 
C 466.2 654.754722 463.35511 647.886549 458.291883 642.823322 
C 453.228657 637.760096 446.360484 634.915205 439.2 634.915205 
C 432.039516 634.915205 425.171343 637.760096 420.108117 642.823322 
C 415.04489 647.886549 412.2 654.754722 412.2 661.915205 
C 412.2 669.075689 415.04489 675.943862 420.108117 681.007088 
C 425.171343 686.070315 432.039516 688.915205 439.2 688.915205 
z
" style="fill:#ff0000;stroke:#222222;stroke-linejoin:miter;"/>
   </g>
   <g id="patch_9">
    <path clip-path="url(#pb827c25fd3)" d="M 547.2 697.915205 
C 556.747312 697.915205 565.904875 694.122018 572.655844 687.371049 
C 579.406813 680.620081 583.2 671.462517 583.2 661.915205 
C 583.2 652.367894 579.406813 643.21033 572.655844 636.459361 
C 565.904875 629.708392 556.747312 625.915205 547.2 625.915205 
C 537.652688 625.915205 528.495125 629.708392 521.744156 636.459361 
C 514.993187 643.21033 511.2 652.367894 511.2 661.915205 
C 511.2 671.462517 514.993187 680.620081 521.744156 687.371049 
C 528.495125 694.122018 537.652688 697.915205 547.2 697.915205 
z
" style="fill:#f8cecc;stroke:#000000;stroke-linejoin:miter;"/>
   </g>
   <g id="patch_10">
    <path clip-path="url(#pb827c25fd3)" d="M 547.2 688.915205 
C 554.360484 688.915205 561.228657 686.070315 566.291883 681.007088 
C 571.35511 675.943862 574.2 669.075689 574.2 661.915205 
C 574.2 654.754722 571.35511 647.886549 566.291883 642.823322 
C 561.228657 637.760096 554.360484 634.915205 547.2 634.915205 
C 540.039516 634.915205 533.171343 637.760096 528.108117 642.823322 
C 523.04489 647.886549 520.2 654.754722 520.2 661.915205 
C 520.2 669.075689 523.04489 675.943862 528.108117 681.007088 
C 533.171343 686.070315 540.039516 688.915205 547.2 688.915205 
z
" style="fill:#444444;stroke:#222222;stroke-linejoin:miter;"/>
   </g>
   <g id="patch_11">
    <path clip-path="url(#pb827c25fd3)" d="M 655.2 697.915205 
C 664.747312 697.915205 673.904875 694.122018 680.655844 687.371049 
C 687.406813 680.620081 691.2 671.462517 691.2 661.915205 
C 691.2 652.367894 687.406813 643.21033 680.655844 636.459361 
C 673.904875 629.708392 664.747312 625.915205 655.2 625.915205 
C 645.652688 625.915205 636.495125 629.708392 629.744156 636.459361 
C 622.993187 643.21033 619.2 652.367894 619.2 661.915205 
C 619.2 671.462517 622.993187 680.620081 629.744156 687.371049 
C 636.495125 694.122018 645.652688 697.915205 655.2 697.915205 
z
" style="fill:#fff2cc;stroke:#000000;stroke-linejoin:miter;"/>
   </g>
   <g id="patch_12">
    <path clip-path="url(#pb827c25fd3)" d="M 763.2 697.915205 
C 772.747312 697.915205 781.904875 694.122018 788.655844 687.371049 
C 795.406813 680.620081 799.2 671.462517 799.2 661.915205 
C 799.2 652.367894 795.406813 643.21033 788.655844 636.459361 
C 781.904875 629.708392 772.747312 625.915205 763.2 625.915205 
C 753.652688 625.915205 744.495125 629.708392 737.744156 636.459361 
C 730.993187 643.21033 727.2 652.367894 727.2 661.915205 
C 727.2 671.462517 730.993187 680.620081 737.744156 687.371049 
C 744.495125 694.122018 753.652688 697.915205 763.2 697.915205 
z
" style="fill:#d5e8d4;stroke:#000000;stroke-linejoin:miter;"/>
   </g>
   <g id="patch_13">
    <path clip-path="url(#pb827c25fd3)" d="M 169.2 604.384462 
C 178.747312 604.384462 187.904875 600.591275 194.655844 593.840306 
C 201.406813 587.089337 205.2 577.931773 205.2 568.384462 
C 205.2 558.83715 201.406813 549.679586 194.655844 542.928618 
C 187.904875 536.177649 178.747312 532.384462 169.2 532.384462 
C 159.652688 532.384462 150.495125 536.177649 143.744156 542.928618 
C 136.993187 549.679586 133.2 558.83715 133.2 568.384462 
C 133.2 577.931773 136.993187 587.089337 143.744156 593.840306 
C 150.495125 600.591275 159.652688 604.384462 169.2 604.384462 
z
" style="fill:#f8cecc;stroke:#000000;stroke-linejoin:miter;"/>
   </g>
   <g id="patch_14">
    <path clip-path="url(#pb827c25fd3)" d="M 169.2 595.384462 
C 176.360484 595.384462 183.228657 592.539571 188.291883 587.476345 
C 193.35511 582.413118 196.2 575.544945 196.2 568.384462 
C 196.2 561.223978 193.35511 554.355805 188.291883 549.292579 
C 183.228657 544.229352 176.360484 541.384462 169.2 541.384462 
C 162.039516 541.384462 155.171343 544.229352 150.108117 549.292579 
C 145.04489 554.355805 142.2 561.223978 142.2 568.384462 
C 142.2 575.544945 145.04489 582.413118 150.108117 587.476345 
C 155.171343 592.539571 162.039516 595.384462 169.2 595.384462 
z
" style="fill:#444444;stroke:#222222;stroke-linejoin:miter;"/>
   </g>
   <g id="patch_15">
    <path clip-path="url(#pb827c25fd3)" d="M 277.2 604.384462 
C 286.747312 604.384462 295.904875 600.591275 302.655844 593.840306 
C 309.406813 587.089337 313.2 577.931773 313.2 568.384462 
C 313.2 558.83715 309.406813 549.679586 302.655844 542.928618 
C 295.904875 536.177649 286.747312 532.384462 277.2 532.384462 
C 267.652688 532.384462 258.495125 536.177649 251.744156 542.928618 
C 244.993187 549.679586 241.2 558.83715 241.2 568.384462 
C 241.2 577.931773 244.993187 587.089337 251.744156 593.840306 
C 258.495125 600.591275 267.652688 604.384462 277.2 604.384462 
z
" style="fill:#fff2cc;stroke:#000000;stroke-linejoin:miter;"/>
   </g>
   <g id="patch_16">
    <path clip-path="url(#pb827c25fd3)" d="M 385.2 604.384462 
C 394.747312 604.384462 403.904875 600.591275 410.655844 593.840306 
C 417.406813 587.089337 421.2 577.931773 421.2 568.384462 
C 421.2 558.83715 417.406813 549.679586 410.655844 542.928618 
C 403.904875 536.177649 394.747312 532.384462 385.2 532.384462 
C 375.652688 532.384462 366.495125 536.177649 359.744156 542.928618 
C 352.993187 549.679586 349.2 558.83715 349.2 568.384462 
C 349.2 577.931773 352.993187 587.089337 359.744156 593.840306 
C 366.495125 600.591275 375.652688 604.384462 385.2 604.384462 
z
" style="fill:#d5e8d4;stroke:#000000;stroke-linejoin:miter;"/>
   </g>
   <g id="patch_17">
    <path clip-path="url(#pb827c25fd3)" d="M 493.2 604.384462 
C 502.747312 604.384462 511.904875 600.591275 518.655844 593.840306 
C 525.406813 587.089337 529.2 577.931773 529.2 568.384462 
C 529.2 558.83715 525.406813 549.679586 518.655844 542.928618 
C 511.904875 536.177649 502.747312 532.384462 493.2 532.384462 
C 483.652688 532.384462 474.495125 536.177649 467.744156 542.928618 
C 460.993187 549.679586 457.2 558.83715 457.2 568.384462 
C 457.2 577.931773 460.993187 587.089337 467.744156 593.840306 
C 474.495125 600.591275 483.652688 604.384462 493.2 604.384462 
z
" style="fill:#f8cecc;stroke:#000000;stroke-linejoin:miter;"/>
   </g>
   <g id="patch_18">
    <path clip-path="url(#pb827c25fd3)" d="M 601.2 604.384462 
C 610.747312 604.384462 619.904875 600.591275 626.655844 593.840306 
C 633.406813 587.089337 637.2 577.931773 637.2 568.384462 
C 637.2 558.83715 633.406813 549.679586 626.655844 542.928618 
C 619.904875 536.177649 610.747312 532.384462 601.2 532.384462 
C 591.652688 532.384462 582.495125 536.177649 575.744156 542.928618 
C 568.993187 549.679586 565.2 558.83715 565.2 568.384462 
C 565.2 577.931773 568.993187 587.089337 575.744156 593.840306 
C 582.495125 600.591275 591.652688 604.384462 601.2 604.384462 
z
" style="fill:#fff2cc;stroke:#000000;stroke-linejoin:miter;"/>
   </g>
   <g id="patch_19">
    <path clip-path="url(#pb827c25fd3)" d="M 709.2 604.384462 
C 718.747312 604.384462 727.904875 600.591275 734.655844 593.840306 
C 741.406813 587.089337 745.2 577.931773 745.2 568.384462 
C 745.2 558.83715 741.406813 549.679586 734.655844 542.928618 
C 727.904875 536.177649 718.747312 532.384462 709.2 532.384462 
C 699.652688 532.384462 690.495125 536.177649 683.744156 542.928618 
C 676.993187 549.679586 673.2 558.83715 673.2 568.384462 
C 673.2 577.931773 676.993187 587.089337 683.744156 593.840306 
C 690.495125 600.591275 699.652688 604.384462 709.2 604.384462 
z
" style="fill:#d5e8d4;stroke:#000000;stroke-linejoin:miter;"/>
   </g>
   <g id="patch_20">
    <path clip-path="url(#pb827c25fd3)" d="M 817.2 604.384462 
C 826.747312 604.384462 835.904875 600.591275 842.655844 593.840306 
C 849.406813 587.089337 853.2 577.931773 853.2 568.384462 
C 853.2 558.83715 849.406813 549.679586 842.655844 542.928618 
C 835.904875 536.177649 826.747312 532.384462 817.2 532.384462 
C 807.652688 532.384462 798.495125 536.177649 791.744156 542.928618 
C 784.993187 549.679586 781.2 558.83715 781.2 568.384462 
C 781.2 577.931773 784.993187 587.089337 791.744156 593.840306 
C 798.495125 600.591275 807.652688 604.384462 817.2 604.384462 
z
" style="fill:#f8cecc;stroke:#000000;stroke-linejoin:miter;"/>
   </g>
   <g id="patch_21">
    <path clip-path="url(#pb827c25fd3)" d="M 223.2 510.853718 
C 232.747312 510.853718 241.904875 507.060531 248.655844 500.309562 
C 255.406813 493.558593 259.2 484.40103 259.2 474.853718 
C 259.2 465.306406 255.406813 456.148843 248.655844 449.397874 
C 241.904875 442.646905 232.747312 438.853718 223.2 438.853718 
C 213.652688 438.853718 204.495125 442.646905 197.744156 449.397874 
C 190.993187 456.148843 187.2 465.306406 187.2 474.853718 
C 187.2 484.40103 190.993187 493.558593 197.744156 500.309562 
C 204.495125 507.060531 213.652688 510.853718 223.2 510.853718 
z
" style="fill:#fff2cc;stroke:#000000;stroke-linejoin:miter;"/>
   </g>
   <g id="patch_22">
    <path clip-path="url(#pb827c25fd3)" d="M 331.2 510.853718 
C 340.747312 510.853718 349.904875 507.060531 356.655844 500.309562 
C 363.406813 493.558593 367.2 484.40103 367.2 474.853718 
C 367.2 465.306406 363.406813 456.148843 356.655844 449.397874 
C 349.904875 442.646905 340.747312 438.853718 331.2 438.853718 
C 321.652688 438.853718 312.495125 442.646905 305.744156 449.397874 
C 298.993187 456.148843 295.2 465.306406 295.2 474.853718 
C 295.2 484.40103 298.993187 493.558593 305.744156 500.309562 
C 312.495125 507.060531 321.652688 510.853718 331.2 510.853718 
z
" style="fill:#d5e8d4;stroke:#000000;stroke-linejoin:miter;"/>
   </g>
   <g id="patch_23">
    <path clip-path="url(#pb827c25fd3)" d="M 439.2 510.853718 
C 448.747312 510.853718 457.904875 507.060531 464.655844 500.309562 
C 471.406813 493.558593 475.2 484.40103 475.2 474.853718 
C 475.2 465.306406 471.406813 456.148843 464.655844 449.397874 
C 457.904875 442.646905 448.747312 438.853718 439.2 438.853718 
C 429.652688 438.853718 420.495125 442.646905 413.744156 449.397874 
C 406.993187 456.148843 403.2 465.306406 403.2 474.853718 
C 403.2 484.40103 406.993187 493.558593 413.744156 500.309562 
C 420.495125 507.060531 429.652688 510.853718 439.2 510.853718 
z
" style="fill:#f8cecc;stroke:#000000;stroke-linejoin:miter;"/>
   </g>
   <g id="patch_24">
    <path clip-path="url(#pb827c25fd3)" d="M 547.2 510.853718 
C 556.747312 510.853718 565.904875 507.060531 572.655844 500.309562 
C 579.406813 493.558593 583.2 484.40103 583.2 474.853718 
C 583.2 465.306406 579.406813 456.148843 572.655844 449.397874 
C 565.904875 442.646905 556.747312 438.853718 547.2 438.853718 
C 537.652688 438.853718 528.495125 442.646905 521.744156 449.397874 
C 514.993187 456.148843 511.2 465.306406 511.2 474.853718 
C 511.2 484.40103 514.993187 493.558593 521.744156 500.309562 
C 528.495125 507.060531 537.652688 510.853718 547.2 510.853718 
z
" style="fill:#fff2cc;stroke:#000000;stroke-linejoin:miter;"/>
   </g>
   <g id="patch_25">
    <path clip-path="url(#pb827c25fd3)" d="M 655.2 510.853718 
C 664.747312 510.853718 673.904875 507.060531 680.655844 500.309562 
C 687.406813 493.558593 691.2 484.40103 691.2 474.853718 
C 691.2 465.306406 687.406813 456.148843 680.655844 449.397874 
C 673.904875 442.646905 664.747312 438.853718 655.2 438.853718 
C 645.652688 438.853718 636.495125 442.646905 629.744156 449.397874 
C 622.993187 456.148843 619.2 465.306406 619.2 474.853718 
C 619.2 484.40103 622.993187 493.558593 629.744156 500.309562 
C 636.495125 507.060531 645.652688 510.853718 655.2 510.853718 
z
" style="fill:#d5e8d4;stroke:#000000;stroke-linejoin:miter;"/>
   </g>
   <g id="patch_26">
    <path clip-path="url(#pb827c25fd3)" d="M 655.2 501.853718 
C 662.360484 501.853718 669.228657 499.008828 674.291883 493.945601 
C 679.35511 488.882375 682.2 482.014202 682.2 474.853718 
C 682.2 467.693234 679.35511 460.825062 674.291883 455.761835 
C 669.228657 450.698608 662.360484 447.853718 655.2 447.853718 
C 648.039516 447.853718 641.171343 450.698608 636.108117 455.761835 
C 631.04489 460.825062 628.2 467.693234 628.2 474.853718 
C 628.2 482.014202 631.04489 488.882375 636.108117 493.945601 
C 641.171343 499.008828 648.039516 501.853718 655.2 501.853718 
z
" style="fill:#444444;stroke:#222222;stroke-linejoin:miter;"/>
   </g>
   <g id="patch_27">
    <path clip-path="url(#pb827c25fd3)" d="M 763.2 510.853718 
C 772.747312 510.853718 781.904875 507.060531 788.655844 500.309562 
C 795.406813 493.558593 799.2 484.40103 799.2 474.853718 
C 799.2 465.306406 795.406813 456.148843 788.655844 449.397874 
C 781.904875 442.646905 772.747312 438.853718 763.2 438.853718 
C 753.652688 438.853718 744.495125 442.646905 737.744156 449.397874 
C 730.993187 456.148843 727.2 465.306406 727.2 474.853718 
C 727.2 484.40103 730.993187 493.558593 737.744156 500.309562 
C 744.495125 507.060531 753.652688 510.853718 763.2 510.853718 
z
" style="fill:#f8cecc;stroke:#000000;stroke-linejoin:miter;"/>
   </g>
   <g id="patch_28">
    <path clip-path="url(#pb827c25fd3)" d="M 763.2 501.853718 
C 770.360484 501.853718 777.228657 499.008828 782.291883 493.945601 
C 787.35511 488.882375 790.2 482.014202 790.2 474.853718 
C 790.2 467.693234 787.35511 460.825062 782.291883 455.761835 
C 777.228657 450.698608 770.360484 447.853718 763.2 447.853718 
C 756.039516 447.853718 749.171343 450.698608 744.108117 455.761835 
C 739.04489 460.825062 736.2 467.693234 736.2 474.853718 
C 736.2 482.014202 739.04489 488.882375 744.108117 493.945601 
C 749.171343 499.008828 756.039516 501.853718 763.2 501.853718 
z
" style="fill:#444444;stroke:#222222;stroke-linejoin:miter;"/>
   </g>
   <g id="patch_29">
    <path clip-path="url(#pb827c25fd3)" d="M 871.2 510.853718 
C 880.747312 510.853718 889.904875 507.060531 896.655844 500.309562 
C 903.406813 493.558593 907.2 484.40103 907.2 474.853718 
C 907.2 465.306406 903.406813 456.148843 896.655844 449.397874 
C 889.904875 442.646905 880.747312 438.853718 871.2 438.853718 
C 861.652688 438.853718 852.495125 442.646905 845.744156 449.397874 
C 838.993187 456.148843 835.2 465.306406 835.2 474.853718 
C 835.2 484.40103 838.993187 493.558593 845.744156 500.309562 
C 852.495125 507.060531 861.652688 510.853718 871.2 510.853718 
z
" style="fill:#fff2cc;stroke:#000000;stroke-linejoin:miter;"/>
   </g>
   <g id="patch_30">
    <path clip-path="url(#pb827c25fd3)" d="M 277.2 417.322974 
C 286.747312 417.322974 295.904875 413.529787 302.655844 406.778819 
C 309.406813 400.02785 313.2 390.870286 313.2 381.322974 
C 313.2 371.775663 309.406813 362.618099 302.655844 355.86713 
C 295.904875 349.116162 286.747312 345.322974 277.2 345.322974 
C 267.652688 345.322974 258.495125 349.116162 251.744156 355.86713 
C 244.993187 362.618099 241.2 371.775663 241.2 381.322974 
C 241.2 390.870286 244.993187 400.02785 251.744156 406.778819 
C 258.495125 413.529787 267.652688 417.322974 277.2 417.322974 
z
" style="fill:#d5e8d4;stroke:#000000;stroke-linejoin:miter;"/>
   </g>
   <g id="patch_31">
    <path clip-path="url(#pb827c25fd3)" d="M 277.2 408.322974 
C 284.360484 408.322974 291.228657 405.478084 296.291883 400.414858 
C 301.35511 395.351631 304.2 388.483458 304.2 381.322974 
C 304.2 374.162491 301.35511 367.294318 296.291883 362.231091 
C 291.228657 357.167865 284.360484 354.322974 277.2 354.322974 
C 270.039516 354.322974 263.171343 357.167865 258.108117 362.231091 
C 253.04489 367.294318 250.2 374.162491 250.2 381.322974 
C 250.2 388.483458 253.04489 395.351631 258.108117 400.414858 
C 263.171343 405.478084 270.039516 408.322974 277.2 408.322974 
z
" style="fill:#444444;stroke:#222222;stroke-linejoin:miter;"/>
   </g>
   <g id="patch_32">
    <path clip-path="url(#pb827c25fd3)" d="M 385.2 417.322974 
C 394.747312 417.322974 403.904875 413.529787 410.655844 406.778819 
C 417.406813 400.02785 421.2 390.870286 421.2 381.322974 
C 421.2 371.775663 417.406813 362.618099 410.655844 355.86713 
C 403.904875 349.116162 394.747312 345.322974 385.2 345.322974 
C 375.652688 345.322974 366.495125 349.116162 359.744156 355.86713 
C 352.993187 362.618099 349.2 371.775663 349.2 381.322974 
C 349.2 390.870286 352.993187 400.02785 359.744156 406.778819 
C 366.495125 413.529787 375.652688 417.322974 385.2 417.322974 
z
" style="fill:#f8cecc;stroke:#000000;stroke-linejoin:miter;"/>
   </g>
   <g id="patch_33">
    <path clip-path="url(#pb827c25fd3)" d="M 385.2 408.322974 
C 392.360484 408.322974 399.228657 405.478084 404.291883 400.414858 
C 409.35511 395.351631 412.2 388.483458 412.2 381.322974 
C 412.2 374.162491 409.35511 367.294318 404.291883 362.231091 
C 399.228657 357.167865 392.360484 354.322974 385.2 354.322974 
C 378.039516 354.322974 371.171343 357.167865 366.108117 362.231091 
C 361.04489 367.294318 358.2 374.162491 358.2 381.322974 
C 358.2 388.483458 361.04489 395.351631 366.108117 400.414858 
C 371.171343 405.478084 378.039516 408.322974 385.2 408.322974 
z
" style="fill:#444444;stroke:#222222;stroke-linejoin:miter;"/>
   </g>
   <g id="patch_34">
    <path clip-path="url(#pb827c25fd3)" d="M 493.2 417.322974 
C 502.747312 417.322974 511.904875 413.529787 518.655844 406.778819 
C 525.406813 400.02785 529.2 390.870286 529.2 381.322974 
C 529.2 371.775663 525.406813 362.618099 518.655844 355.86713 
C 511.904875 349.116162 502.747312 345.322974 493.2 345.322974 
C 483.652688 345.322974 474.495125 349.116162 467.744156 355.86713 
C 460.993187 362.618099 457.2 371.775663 457.2 381.322974 
C 457.2 390.870286 460.993187 400.02785 467.744156 406.778819 
C 474.495125 413.529787 483.652688 417.322974 493.2 417.322974 
z
" style="fill:#fff2cc;stroke:#000000;stroke-linejoin:miter;"/>
   </g>
   <g id="patch_35">
    <path clip-path="url(#pb827c25fd3)" d="M 601.2 417.322974 
C 610.747312 417.322974 619.904875 413.529787 626.655844 406.778819 
C 633.406813 400.02785 637.2 390.870286 637.2 381.322974 
C 637.2 371.775663 633.406813 362.618099 626.655844 355.86713 
C 619.904875 349.116162 610.747312 345.322974 601.2 345.322974 
C 591.652688 345.322974 582.495125 349.116162 575.744156 355.86713 
C 568.993187 362.618099 565.2 371.775663 565.2 381.322974 
C 565.2 390.870286 568.993187 400.02785 575.744156 406.778819 
C 582.495125 413.529787 591.652688 417.322974 601.2 417.322974 
z
" style="fill:#d5e8d4;stroke:#000000;stroke-linejoin:miter;"/>
   </g>
   <g id="patch_36">
    <path clip-path="url(#pb827c25fd3)" d="M 601.2 408.322974 
C 608.360484 408.322974 615.228657 405.478084 620.291883 400.414858 
C 625.35511 395.351631 628.2 388.483458 628.2 381.322974 
C 628.2 374.162491 625.35511 367.294318 620.291883 362.231091 
C 615.228657 357.167865 608.360484 354.322974 601.2 354.322974 
C 594.039516 354.322974 587.171343 357.167865 582.108117 362.231091 
C 577.04489 367.294318 574.2 374.162491 574.2 381.322974 
C 574.2 388.483458 577.04489 395.351631 582.108117 400.414858 
C 587.171343 405.478084 594.039516 408.322974 601.2 408.322974 
z
" style="fill:#ff0000;stroke:#222222;stroke-linejoin:miter;"/>
   </g>
   <g id="patch_37">
    <path clip-path="url(#pb827c25fd3)" d="M 709.2 417.322974 
C 718.747312 417.322974 727.904875 413.529787 734.655844 406.778819 
C 741.406813 400.02785 745.2 390.870286 745.2 381.322974 
C 745.2 371.775663 741.406813 362.618099 734.655844 355.86713 
C 727.904875 349.116162 718.747312 345.322974 709.2 345.322974 
C 699.652688 345.322974 690.495125 349.116162 683.744156 355.86713 
C 676.993187 362.618099 673.2 371.775663 673.2 381.322974 
C 673.2 390.870286 676.993187 400.02785 683.744156 406.778819 
C 690.495125 413.529787 699.652688 417.322974 709.2 417.322974 
z
" style="fill:#f8cecc;stroke:#000000;stroke-linejoin:miter;"/>
   </g>
   <g id="patch_38">
    <path clip-path="url(#pb827c25fd3)" d="M 709.2 408.322974 
C 716.360484 408.322974 723.228657 405.478084 728.291883 400.414858 
C 733.35511 395.351631 736.2 388.483458 736.2 381.322974 
C 736.2 374.162491 733.35511 367.294318 728.291883 362.231091 
C 723.228657 357.167865 716.360484 354.322974 709.2 354.322974 
C 702.039516 354.322974 695.171343 357.167865 690.108117 362.231091 
C 685.04489 367.294318 682.2 374.162491 682.2 381.322974 
C 682.2 388.483458 685.04489 395.351631 690.108117 400.414858 
C 695.171343 405.478084 702.039516 408.322974 709.2 408.322974 
z
" style="fill:#444444;stroke:#222222;stroke-linejoin:miter;"/>
   </g>
   <g id="patch_39">
    <path clip-path="url(#pb827c25fd3)" d="M 817.2 417.322974 
C 826.747312 417.322974 835.904875 413.529787 842.655844 406.778819 
C 849.406813 400.02785 853.2 390.870286 853.2 381.322974 
C 853.2 371.775663 849.406813 362.618099 842.655844 355.86713 
C 835.904875 349.116162 826.747312 345.322974 817.2 345.322974 
C 807.652688 345.322974 798.495125 349.116162 791.744156 355.86713 
C 784.993187 362.618099 781.2 371.775663 781.2 381.322974 
C 781.2 390.870286 784.993187 400.02785 791.744156 406.778819 
C 798.495125 413.529787 807.652688 417.322974 817.2 417.322974 
z
" style="fill:#fff2cc;stroke:#000000;stroke-linejoin:miter;"/>
   </g>
   <g id="patch_40">
    <path clip-path="url(#pb827c25fd3)" d="M 925.2 417.322974 
C 934.747312 417.322974 943.904875 413.529787 950.655844 406.778819 
C 957.406813 400.02785 961.2 390.870286 961.2 381.322974 
C 961.2 371.775663 957.406813 362.618099 950.655844 355.86713 
C 943.904875 349.116162 934.747312 345.322974 925.2 345.322974 
C 915.652688 345.322974 906.495125 349.116162 899.744156 355.86713 
C 892.993187 362.618099 889.2 371.775663 889.2 381.322974 
C 889.2 390.870286 892.993187 400.02785 899.744156 406.778819 
C 906.495125 413.529787 915.652688 417.322974 925.2 417.322974 
z
" style="fill:#d5e8d4;stroke:#000000;stroke-linejoin:miter;"/>
   </g>
   <g id="patch_41">
    <path clip-path="url(#pb827c25fd3)" d="M 331.2 323.792231 
C 340.747312 323.792231 349.904875 319.999044 356.655844 313.248075 
C 363.406813 306.497106 367.2 297.339542 367.2 287.792231 
C 367.2 278.244919 363.406813 269.087355 356.655844 262.336387 
C 349.904875 255.585418 340.747312 251.792231 331.2 251.792231 
C 321.652688 251.792231 312.495125 255.585418 305.744156 262.336387 
C 298.993187 269.087355 295.2 278.244919 295.2 287.792231 
C 295.2 297.339542 298.993187 306.497106 305.744156 313.248075 
C 312.495125 319.999044 321.652688 323.792231 331.2 323.792231 
z
" style="fill:#f8cecc;stroke:#000000;stroke-linejoin:miter;"/>
   </g>
   <g id="patch_42">
    <path clip-path="url(#pb827c25fd3)" d="M 331.2 314.792231 
C 338.360484 314.792231 345.228657 311.94734 350.291883 306.884114 
C 355.35511 301.820887 358.2 294.952715 358.2 287.792231 
C 358.2 280.631747 355.35511 273.763574 350.291883 268.700348 
C 345.228657 263.637121 338.360484 260.792231 331.2 260.792231 
C 324.039516 260.792231 317.171343 263.637121 312.108117 268.700348 
C 307.04489 273.763574 304.2 280.631747 304.2 287.792231 
C 304.2 294.952715 307.04489 301.820887 312.108117 306.884114 
C 317.171343 311.94734 324.039516 314.792231 331.2 314.792231 
z
" style="fill:#444444;stroke:#222222;stroke-linejoin:miter;"/>
   </g>
   <g id="patch_43">
    <path clip-path="url(#pb827c25fd3)" d="M 439.2 323.792231 
C 448.747312 323.792231 457.904875 319.999044 464.655844 313.248075 
C 471.406813 306.497106 475.2 297.339542 475.2 287.792231 
C 475.2 278.244919 471.406813 269.087355 464.655844 262.336387 
C 457.904875 255.585418 448.747312 251.792231 439.2 251.792231 
C 429.652688 251.792231 420.495125 255.585418 413.744156 262.336387 
C 406.993187 269.087355 403.2 278.244919 403.2 287.792231 
C 403.2 297.339542 406.993187 306.497106 413.744156 313.248075 
C 420.495125 319.999044 429.652688 323.792231 439.2 323.792231 
z
" style="fill:#fff2cc;stroke:#000000;stroke-linejoin:miter;"/>
   </g>
   <g id="patch_44">
    <path clip-path="url(#pb827c25fd3)" d="M 547.2 323.792231 
C 556.747312 323.792231 565.904875 319.999044 572.655844 313.248075 
C 579.406813 306.497106 583.2 297.339542 583.2 287.792231 
C 583.2 278.244919 579.406813 269.087355 572.655844 262.336387 
C 565.904875 255.585418 556.747312 251.792231 547.2 251.792231 
C 537.652688 251.792231 528.495125 255.585418 521.744156 262.336387 
C 514.993187 269.087355 511.2 278.244919 511.2 287.792231 
C 511.2 297.339542 514.993187 306.497106 521.744156 313.248075 
C 528.495125 319.999044 537.652688 323.792231 547.2 323.792231 
z
" style="fill:#d5e8d4;stroke:#000000;stroke-linejoin:miter;"/>
   </g>
   <g id="patch_45">
    <path clip-path="url(#pb827c25fd3)" d="M 655.2 323.792231 
C 664.747312 323.792231 673.904875 319.999044 680.655844 313.248075 
C 687.406813 306.497106 691.2 297.339542 691.2 287.792231 
C 691.2 278.244919 687.406813 269.087355 680.655844 262.336387 
C 673.904875 255.585418 664.747312 251.792231 655.2 251.792231 
C 645.652688 251.792231 636.495125 255.585418 629.744156 262.336387 
C 622.993187 269.087355 619.2 278.244919 619.2 287.792231 
C 619.2 297.339542 622.993187 306.497106 629.744156 313.248075 
C 636.495125 319.999044 645.652688 323.792231 655.2 323.792231 
z
" style="fill:#f8cecc;stroke:#000000;stroke-linejoin:miter;"/>
   </g>
   <g id="patch_46">
    <path clip-path="url(#pb827c25fd3)" d="M 763.2 323.792231 
C 772.747312 323.792231 781.904875 319.999044 788.655844 313.248075 
C 795.406813 306.497106 799.2 297.339542 799.2 287.792231 
C 799.2 278.244919 795.406813 269.087355 788.655844 262.336387 
C 781.904875 255.585418 772.747312 251.792231 763.2 251.792231 
C 753.652688 251.792231 744.495125 255.585418 737.744156 262.336387 
C 730.993187 269.087355 727.2 278.244919 727.2 287.792231 
C 727.2 297.339542 730.993187 306.497106 737.744156 313.248075 
C 744.495125 319.999044 753.652688 323.792231 763.2 323.792231 
z
" style="fill:#fff2cc;stroke:#000000;stroke-linejoin:miter;"/>
   </g>
   <g id="patch_47">
    <path clip-path="url(#pb827c25fd3)" d="M 871.2 323.792231 
C 880.747312 323.792231 889.904875 319.999044 896.655844 313.248075 
C 903.406813 306.497106 907.2 297.339542 907.2 287.792231 
C 907.2 278.244919 903.406813 269.087355 896.655844 262.336387 
C 889.904875 255.585418 880.747312 251.792231 871.2 251.792231 
C 861.652688 251.792231 852.495125 255.585418 845.744156 262.336387 
C 838.993187 269.087355 835.2 278.244919 835.2 287.792231 
C 835.2 297.339542 838.993187 306.497106 845.744156 313.248075 
C 852.495125 319.999044 861.652688 323.792231 871.2 323.792231 
z
" style="fill:#d5e8d4;stroke:#000000;stroke-linejoin:miter;"/>
   </g>
   <g id="patch_48">
    <path clip-path="url(#pb827c25fd3)" d="M 979.2 323.792231 
C 988.747312 323.792231 997.904875 319.999044 1004.655844 313.248075 
C 1011.406813 306.497106 1015.2 297.339542 1015.2 287.792231 
C 1015.2 278.244919 1011.406813 269.087355 1004.655844 262.336387 
C 997.904875 255.585418 988.747312 251.792231 979.2 251.792231 
C 969.652688 251.792231 960.495125 255.585418 953.744156 262.336387 
C 946.993187 269.087355 943.2 278.244919 943.2 287.792231 
C 943.2 297.339542 946.993187 306.497106 953.744156 313.248075 
C 960.495125 319.999044 969.652688 323.792231 979.2 323.792231 
z
" style="fill:#f8cecc;stroke:#000000;stroke-linejoin:miter;"/>
   </g>
   <g id="patch_49">
    <path clip-path="url(#pb827c25fd3)" d="M 385.2 230.261487 
C 394.747312 230.261487 403.904875 226.4683 410.655844 219.717331 
C 417.406813 212.966363 421.2 203.808799 421.2 194.261487 
C 421.2 184.714176 417.406813 175.556612 410.655844 168.805643 
C 403.904875 162.054674 394.747312 158.261487 385.2 158.261487 
C 375.652688 158.261487 366.495125 162.054674 359.744156 168.805643 
C 352.993187 175.556612 349.2 184.714176 349.2 194.261487 
C 349.2 203.808799 352.993187 212.966363 359.744156 219.717331 
C 366.495125 226.4683 375.652688 230.261487 385.2 230.261487 
z
" style="fill:#fff2cc;stroke:#000000;stroke-linejoin:miter;"/>
   </g>
   <g id="patch_50">
    <path clip-path="url(#pb827c25fd3)" d="M 493.2 230.261487 
C 502.747312 230.261487 511.904875 226.4683 518.655844 219.717331 
C 525.406813 212.966363 529.2 203.808799 529.2 194.261487 
C 529.2 184.714176 525.406813 175.556612 518.655844 168.805643 
C 511.904875 162.054674 502.747312 158.261487 493.2 158.261487 
C 483.652688 158.261487 474.495125 162.054674 467.744156 168.805643 
C 460.993187 175.556612 457.2 184.714176 457.2 194.261487 
C 457.2 203.808799 460.993187 212.966363 467.744156 219.717331 
C 474.495125 226.4683 483.652688 230.261487 493.2 230.261487 
z
" style="fill:#d5e8d4;stroke:#000000;stroke-linejoin:miter;"/>
   </g>
   <g id="patch_51">
    <path clip-path="url(#pb827c25fd3)" d="M 601.2 230.261487 
C 610.747312 230.261487 619.904875 226.4683 626.655844 219.717331 
C 633.406813 212.966363 637.2 203.808799 637.2 194.261487 
C 637.2 184.714176 633.406813 175.556612 626.655844 168.805643 
C 619.904875 162.054674 610.747312 158.261487 601.2 158.261487 
C 591.652688 158.261487 582.495125 162.054674 575.744156 168.805643 
C 568.993187 175.556612 565.2 184.714176 565.2 194.261487 
C 565.2 203.808799 568.993187 212.966363 575.744156 219.717331 
C 582.495125 226.4683 591.652688 230.261487 601.2 230.261487 
z
" style="fill:#f8cecc;stroke:#000000;stroke-linejoin:miter;"/>
   </g>
   <g id="patch_52">
    <path clip-path="url(#pb827c25fd3)" d="M 709.2 230.261487 
C 718.747312 230.261487 727.904875 226.4683 734.655844 219.717331 
C 741.406813 212.966363 745.2 203.808799 745.2 194.261487 
C 745.2 184.714176 741.406813 175.556612 734.655844 168.805643 
C 727.904875 162.054674 718.747312 158.261487 709.2 158.261487 
C 699.652688 158.261487 690.495125 162.054674 683.744156 168.805643 
C 676.993187 175.556612 673.2 184.714176 673.2 194.261487 
C 673.2 203.808799 676.993187 212.966363 683.744156 219.717331 
C 690.495125 226.4683 699.652688 230.261487 709.2 230.261487 
z
" style="fill:#fff2cc;stroke:#000000;stroke-linejoin:miter;"/>
   </g>
   <g id="patch_53">
    <path clip-path="url(#pb827c25fd3)" d="M 817.2 230.261487 
C 826.747312 230.261487 835.904875 226.4683 842.655844 219.717331 
C 849.406813 212.966363 853.2 203.808799 853.2 194.261487 
C 853.2 184.714176 849.406813 175.556612 842.655844 168.805643 
C 835.904875 162.054674 826.747312 158.261487 817.2 158.261487 
C 807.652688 158.261487 798.495125 162.054674 791.744156 168.805643 
C 784.993187 175.556612 781.2 184.714176 781.2 194.261487 
C 781.2 203.808799 784.993187 212.966363 791.744156 219.717331 
C 798.495125 226.4683 807.652688 230.261487 817.2 230.261487 
z
" style="fill:#d5e8d4;stroke:#000000;stroke-linejoin:miter;"/>
   </g>
   <g id="patch_54">
    <path clip-path="url(#pb827c25fd3)" d="M 817.2 221.261487 
C 824.360484 221.261487 831.228657 218.416597 836.291883 213.35337 
C 841.35511 208.290144 844.2 201.421971 844.2 194.261487 
C 844.2 187.101004 841.35511 180.232831 836.291883 175.169604 
C 831.228657 170.106378 824.360484 167.261487 817.2 167.261487 
C 810.039516 167.261487 803.171343 170.106378 798.108117 175.169604 
C 793.04489 180.232831 790.2 187.101004 790.2 194.261487 
C 790.2 201.421971 793.04489 208.290144 798.108117 213.35337 
C 803.171343 218.416597 810.039516 221.261487 817.2 221.261487 
z
" style="fill:#444444;stroke:#222222;stroke-linejoin:miter;"/>
   </g>
   <g id="patch_55">
    <path clip-path="url(#pb827c25fd3)" d="M 925.2 230.261487 
C 934.747312 230.261487 943.904875 226.4683 950.655844 219.717331 
C 957.406813 212.966363 961.2 203.808799 961.2 194.261487 
C 961.2 184.714176 957.406813 175.556612 950.655844 168.805643 
C 943.904875 162.054674 934.747312 158.261487 925.2 158.261487 
C 915.652688 158.261487 906.495125 162.054674 899.744156 168.805643 
C 892.993187 175.556612 889.2 184.714176 889.2 194.261487 
C 889.2 203.808799 892.993187 212.966363 899.744156 219.717331 
C 906.495125 226.4683 915.652688 230.261487 925.2 230.261487 
z
" style="fill:#f8cecc;stroke:#000000;stroke-linejoin:miter;"/>
   </g>
   <g id="patch_56">
    <path clip-path="url(#pb827c25fd3)" d="M 925.2 221.261487 
C 932.360484 221.261487 939.228657 218.416597 944.291883 213.35337 
C 949.35511 208.290144 952.2 201.421971 952.2 194.261487 
C 952.2 187.101004 949.35511 180.232831 944.291883 175.169604 
C 939.228657 170.106378 932.360484 167.261487 925.2 167.261487 
C 918.039516 167.261487 911.171343 170.106378 906.108117 175.169604 
C 901.04489 180.232831 898.2 187.101004 898.2 194.261487 
C 898.2 201.421971 901.04489 208.290144 906.108117 213.35337 
C 911.171343 218.416597 918.039516 221.261487 925.2 221.261487 
z
" style="fill:#444444;stroke:#222222;stroke-linejoin:miter;"/>
   </g>
   <g id="patch_57">
    <path clip-path="url(#pb827c25fd3)" d="M 1033.2 230.261487 
C 1042.747312 230.261487 1051.904875 226.4683 1058.655844 219.717331 
C 1065.406813 212.966363 1069.2 203.808799 1069.2 194.261487 
C 1069.2 184.714176 1065.406813 175.556612 1058.655844 168.805643 
C 1051.904875 162.054674 1042.747312 158.261487 1033.2 158.261487 
C 1023.652688 158.261487 1014.495125 162.054674 1007.744156 168.805643 
C 1000.993187 175.556612 997.2 184.714176 997.2 194.261487 
C 997.2 203.808799 1000.993187 212.966363 1007.744156 219.717331 
C 1014.495125 226.4683 1023.652688 230.261487 1033.2 230.261487 
z
" style="fill:#fff2cc;stroke:#000000;stroke-linejoin:miter;"/>
   </g>
   <g id="patch_58">
    <path clip-path="url(#pb827c25fd3)" d="M 439.2 136.730744 
C 448.747312 136.730744 457.904875 132.937557 464.655844 126.186588 
C 471.406813 119.435619 475.2 110.278055 475.2 100.730744 
C 475.2 91.183432 471.406813 82.025868 464.655844 75.274899 
C 457.904875 68.523931 448.747312 64.730744 439.2 64.730744 
C 429.652688 64.730744 420.495125 68.523931 413.744156 75.274899 
C 406.993187 82.025868 403.2 91.183432 403.2 100.730744 
C 403.2 110.278055 406.993187 119.435619 413.744156 126.186588 
C 420.495125 132.937557 429.652688 136.730744 439.2 136.730744 
z
" style="fill:#d5e8d4;stroke:#000000;stroke-linejoin:miter;"/>
   </g>
   <g id="patch_59">
    <path clip-path="url(#pb827c25fd3)" d="M 439.2 127.730744 
C 446.360484 127.730744 453.228657 124.885853 458.291883 119.822627 
C 463.35511 114.7594 466.2 107.891227 466.2 100.730744 
C 466.2 93.57026 463.35511 86.702087 458.291883 81.638861 
C 453.228657 76.575634 446.360484 73.730744 439.2 73.730744 
C 432.039516 73.730744 425.171343 76.575634 420.108117 81.638861 
C 415.04489 86.702087 412.2 93.57026 412.2 100.730744 
C 412.2 107.891227 415.04489 114.7594 420.108117 119.822627 
C 425.171343 124.885853 432.039516 127.730744 439.2 127.730744 
z
" style="fill:#444444;stroke:#222222;stroke-linejoin:miter;"/>
   </g>
   <g id="patch_60">
    <path clip-path="url(#pb827c25fd3)" d="M 547.2 136.730744 
C 556.747312 136.730744 565.904875 132.937557 572.655844 126.186588 
C 579.406813 119.435619 583.2 110.278055 583.2 100.730744 
C 583.2 91.183432 579.406813 82.025868 572.655844 75.274899 
C 565.904875 68.523931 556.747312 64.730744 547.2 64.730744 
C 537.652688 64.730744 528.495125 68.523931 521.744156 75.274899 
C 514.993187 82.025868 511.2 91.183432 511.2 100.730744 
C 511.2 110.278055 514.993187 119.435619 521.744156 126.186588 
C 528.495125 132.937557 537.652688 136.730744 547.2 136.730744 
z
" style="fill:#f8cecc;stroke:#000000;stroke-linejoin:miter;"/>
   </g>
   <g id="patch_61">
    <path clip-path="url(#pb827c25fd3)" d="M 547.2 127.730744 
C 554.360484 127.730744 561.228657 124.885853 566.291883 119.822627 
C 571.35511 114.7594 574.2 107.891227 574.2 100.730744 
C 574.2 93.57026 571.35511 86.702087 566.291883 81.638861 
C 561.228657 76.575634 554.360484 73.730744 547.2 73.730744 
C 540.039516 73.730744 533.171343 76.575634 528.108117 81.638861 
C 523.04489 86.702087 520.2 93.57026 520.2 100.730744 
C 520.2 107.891227 523.04489 114.7594 528.108117 119.822627 
C 533.171343 124.885853 540.039516 127.730744 547.2 127.730744 
z
" style="fill:#444444;stroke:#222222;stroke-linejoin:miter;"/>
   </g>
   <g id="patch_62">
    <path clip-path="url(#pb827c25fd3)" d="M 655.2 136.730744 
C 664.747312 136.730744 673.904875 132.937557 680.655844 126.186588 
C 687.406813 119.435619 691.2 110.278055 691.2 100.730744 
C 691.2 91.183432 687.406813 82.025868 680.655844 75.274899 
C 673.904875 68.523931 664.747312 64.730744 655.2 64.730744 
C 645.652688 64.730744 636.495125 68.523931 629.744156 75.274899 
C 622.993187 82.025868 619.2 91.183432 619.2 100.730744 
C 619.2 110.278055 622.993187 119.435619 629.744156 126.186588 
C 636.495125 132.937557 645.652688 136.730744 655.2 136.730744 
z
" style="fill:#fff2cc;stroke:#000000;stroke-linejoin:miter;"/>
   </g>
   <g id="patch_63">
    <path clip-path="url(#pb827c25fd3)" d="M 763.2 136.730744 
C 772.747312 136.730744 781.904875 132.937557 788.655844 126.186588 
C 795.406813 119.435619 799.2 110.278055 799.2 100.730744 
C 799.2 91.183432 795.406813 82.025868 788.655844 75.274899 
C 781.904875 68.523931 772.747312 64.730744 763.2 64.730744 
C 753.652688 64.730744 744.495125 68.523931 737.744156 75.274899 
C 730.993187 82.025868 727.2 91.183432 727.2 100.730744 
C 727.2 110.278055 730.993187 119.435619 737.744156 126.186588 
C 744.495125 132.937557 753.652688 136.730744 763.2 136.730744 
z
" style="fill:#d5e8d4;stroke:#000000;stroke-linejoin:miter;"/>
   </g>
   <g id="patch_64">
    <path clip-path="url(#pb827c25fd3)" d="M 763.2 127.730744 
C 770.360484 127.730744 777.228657 124.885853 782.291883 119.822627 
C 787.35511 114.7594 790.2 107.891227 790.2 100.730744 
C 790.2 93.57026 787.35511 86.702087 782.291883 81.638861 
C 777.228657 76.575634 770.360484 73.730744 763.2 73.730744 
C 756.039516 73.730744 749.171343 76.575634 744.108117 81.638861 
C 739.04489 86.702087 736.2 93.57026 736.2 100.730744 
C 736.2 107.891227 739.04489 114.7594 744.108117 119.822627 
C 749.171343 124.885853 756.039516 127.730744 763.2 127.730744 
z
" style="fill:#ff0000;stroke:#222222;stroke-linejoin:miter;"/>
   </g>
   <g id="patch_65">
    <path clip-path="url(#pb827c25fd3)" d="M 871.2 136.730744 
C 880.747312 136.730744 889.904875 132.937557 896.655844 126.186588 
C 903.406813 119.435619 907.2 110.278055 907.2 100.730744 
C 907.2 91.183432 903.406813 82.025868 896.655844 75.274899 
C 889.904875 68.523931 880.747312 64.730744 871.2 64.730744 
C 861.652688 64.730744 852.495125 68.523931 845.744156 75.274899 
C 838.993187 82.025868 835.2 91.183432 835.2 100.730744 
C 835.2 110.278055 838.993187 119.435619 845.744156 126.186588 
C 852.495125 132.937557 861.652688 136.730744 871.2 136.730744 
z
" style="fill:#f8cecc;stroke:#000000;stroke-linejoin:miter;"/>
   </g>
   <g id="patch_66">
    <path clip-path="url(#pb827c25fd3)" d="M 871.2 127.730744 
C 878.360484 127.730744 885.228657 124.885853 890.291883 119.822627 
C 895.35511 114.7594 898.2 107.891227 898.2 100.730744 
C 898.2 93.57026 895.35511 86.702087 890.291883 81.638861 
C 885.228657 76.575634 878.360484 73.730744 871.2 73.730744 
C 864.039516 73.730744 857.171343 76.575634 852.108117 81.638861 
C 847.04489 86.702087 844.2 93.57026 844.2 100.730744 
C 844.2 107.891227 847.04489 114.7594 852.108117 119.822627 
C 857.171343 124.885853 864.039516 127.730744 871.2 127.730744 
z
" style="fill:#444444;stroke:#222222;stroke-linejoin:miter;"/>
   </g>
   <g id="patch_67">
    <path clip-path="url(#pb827c25fd3)" d="M 979.2 136.730744 
C 988.747312 136.730744 997.904875 132.937557 1004.655844 126.186588 
C 1011.406813 119.435619 1015.2 110.278055 1015.2 100.730744 
C 1015.2 91.183432 1011.406813 82.025868 1004.655844 75.274899 
C 997.904875 68.523931 988.747312 64.730744 979.2 64.730744 
C 969.652688 64.730744 960.495125 68.523931 953.744156 75.274899 
C 946.993187 82.025868 943.2 91.183432 943.2 100.730744 
C 943.2 110.278055 946.993187 119.435619 953.744156 126.186588 
C 960.495125 132.937557 969.652688 136.730744 979.2 136.730744 
z
" style="fill:#fff2cc;stroke:#000000;stroke-linejoin:miter;"/>
   </g>
   <g id="patch_68">
    <path clip-path="url(#pb827c25fd3)" d="M 1087.2 136.730744 
C 1096.747312 136.730744 1105.904875 132.937557 1112.655844 126.186588 
C 1119.406813 119.435619 1123.2 110.278055 1123.2 100.730744 
C 1123.2 91.183432 1119.406813 82.025868 1112.655844 75.274899 
C 1105.904875 68.523931 1096.747312 64.730744 1087.2 64.730744 
C 1077.652688 64.730744 1068.495125 68.523931 1061.744156 75.274899 
C 1054.993187 82.025868 1051.2 91.183432 1051.2 100.730744 
C 1051.2 110.278055 1054.993187 119.435619 1061.744156 126.186588 
C 1068.495125 132.937557 1077.652688 136.730744 1087.2 136.730744 
z
" style="fill:#d5e8d4;stroke:#000000;stroke-linejoin:miter;"/>
   </g>
   <g id="text_1">
    <!-- Fbb -->
    <defs>
     <path d="M 46 56.390625 
L 18.890625 56.390625 
L 18.890625 35.6875 
L 44.578125 35.6875 
L 44.578125 28.421875 
L 18.890625 28.421875 
L 18.890625 0 
L 10.015625 0 
L 10.015625 63.8125 
L 46 63.8125 
z
" id="Consolas-with-Yahei-70"/>
     <path d="M 49.703125 25.390625 
Q 49.703125 19.28125 48.015625 14.46875 
Q 46.34375 9.671875 43.234375 6.328125 
Q 40.140625 2.984375 35.6875 1.1875 
Q 31.25 -0.59375 25.6875 -0.59375 
Q 21.34375 -0.59375 16.796875 0.234375 
Q 12.25 1.078125 7.8125 2.875 
L 7.8125 69 
L 16.3125 69 
L 16.3125 50 
L 15.921875 40.921875 
Q 19.578125 45.84375 23.75 47.875 
Q 27.9375 49.90625 32.71875 49.90625 
Q 36.921875 49.90625 40.09375 48.140625 
Q 43.265625 46.390625 45.40625 43.1875 
Q 47.5625 39.984375 48.625 35.46875 
Q 49.703125 30.953125 49.703125 25.390625 
z
M 41.015625 25 
Q 41.015625 28.859375 40.453125 32.078125 
Q 39.890625 35.296875 38.671875 37.59375 
Q 37.453125 39.890625 35.546875 41.1875 
Q 33.640625 42.484375 31 42.484375 
Q 29.390625 42.484375 27.734375 41.96875 
Q 26.078125 41.453125 24.296875 40.25 
Q 22.515625 39.0625 20.53125 37.078125 
Q 18.5625 35.109375 16.3125 32.171875 
L 16.3125 8.40625 
Q 18.796875 7.421875 21.375 6.859375 
Q 23.96875 6.296875 26.3125 6.296875 
Q 29.25 6.296875 31.90625 7.21875 
Q 34.578125 8.15625 36.59375 10.328125 
Q 38.625 12.5 39.8125 16.078125 
Q 41.015625 19.671875 41.015625 25 
z
" id="Consolas-with-Yahei-98"/>
    </defs>
    <g style="fill:#ffffff;" transform="translate(102.00375 657.608705)scale(0.16 -0.16)">
     <use xlink:href="#Consolas-with-Yahei-70"/>
     <use x="54.980469" xlink:href="#Consolas-with-Yahei-98"/>
     <use x="109.960938" xlink:href="#Consolas-with-Yahei-98"/>
    </g>
    <!-- b3 -->
    <defs>
     <path d="M 48 19.390625 
Q 48 15.1875 46.28125 11.5 
Q 44.578125 7.8125 41.15625 5.046875 
Q 37.75 2.296875 32.5625 0.703125 
Q 27.390625 -0.875 20.515625 -0.875 
Q 16.703125 -0.875 13.671875 -0.625 
Q 10.640625 -0.390625 8.015625 0 
L 8.015625 7.625 
Q 11.03125 7.078125 14.40625 6.78125 
Q 17.78125 6.5 21.296875 6.5 
Q 26.078125 6.5 29.46875 7.34375 
Q 32.859375 8.203125 35 9.8125 
Q 37.15625 11.421875 38.125 13.71875 
Q 39.109375 16.015625 39.109375 18.890625 
Q 39.109375 21.53125 37.9375 23.484375 
Q 36.765625 25.4375 34.640625 26.75 
Q 32.515625 28.078125 29.5625 28.734375 
Q 26.609375 29.390625 23.09375 29.390625 
L 15.828125 29.390625 
L 15.828125 36.375 
L 23.1875 36.375 
Q 26.078125 36.375 28.4375 37.125 
Q 30.8125 37.890625 32.5 39.296875 
Q 34.1875 40.71875 35.078125 42.796875 
Q 35.984375 44.875 35.984375 47.515625 
Q 35.984375 52.640625 32.859375 54.984375 
Q 29.734375 57.328125 23.6875 57.328125 
Q 20.453125 57.328125 17.03125 56.6875 
Q 13.625 56.0625 9.71875 54.78125 
L 9.71875 62.203125 
Q 11.375 62.796875 13.25 63.25 
Q 15.140625 63.71875 17.015625 64.03125 
Q 18.890625 64.359375 20.75 64.53125 
Q 22.609375 64.703125 24.3125 64.703125 
Q 29.390625 64.703125 33.25 63.59375 
Q 37.109375 62.5 39.6875 60.453125 
Q 42.28125 58.40625 43.59375 55.46875 
Q 44.921875 52.546875 44.921875 48.875 
Q 44.921875 43.40625 42.109375 39.6875 
Q 39.3125 35.984375 34.421875 33.796875 
Q 36.921875 33.40625 39.328125 32.234375 
Q 41.75 31.0625 43.671875 29.21875 
Q 45.609375 27.390625 46.796875 24.890625 
Q 48 22.40625 48 19.390625 
z
" id="Consolas-with-Yahei-51"/>
    </defs>
    <g style="fill:#ffffff;" transform="translate(106.4025 674.059205)scale(0.16 -0.16)">
     <use xlink:href="#Consolas-with-Yahei-98"/>
     <use x="54.980469" xlink:href="#Consolas-with-Yahei-51"/>
    </g>
   </g>
   <g id="text_2">
    <!-- Cbb -->
    <defs>
     <path d="M 48.578125 2.390625 
Q 40.921875 -0.78125 32.515625 -0.78125 
Q 19 -0.78125 11.75 7.296875 
Q 4.5 15.375 4.5 31.203125 
Q 4.5 38.875 6.5 45.0625 
Q 8.5 51.265625 12.203125 55.578125 
Q 15.921875 59.90625 21.1875 62.25 
Q 26.46875 64.59375 33.015625 64.59375 
Q 37.453125 64.59375 41.25 63.84375 
Q 45.0625 63.09375 48.578125 61.53125 
L 48.578125 52.984375 
Q 45.125 54.890625 41.40625 55.890625 
Q 37.703125 56.890625 33.296875 56.890625 
Q 28.8125 56.890625 25.171875 55.203125 
Q 21.53125 53.515625 18.984375 50.3125 
Q 16.453125 47.125 15.078125 42.5 
Q 13.71875 37.890625 13.71875 31.984375 
Q 13.71875 19.578125 18.75 13.28125 
Q 23.78125 6.984375 33.5 6.984375 
Q 37.59375 6.984375 41.359375 7.9375 
Q 45.125 8.890625 48.578125 10.59375 
z
" id="Consolas-with-Yahei-67"/>
    </defs>
    <g style="fill:#ffffff;" transform="translate(210.00375 657.608705)scale(0.16 -0.16)">
     <use xlink:href="#Consolas-with-Yahei-67"/>
     <use x="54.980469" xlink:href="#Consolas-with-Yahei-98"/>
     <use x="109.960938" xlink:href="#Consolas-with-Yahei-98"/>
    </g>
    <!-- b7 -->
    <defs>
     <path d="M 48.875 55.90625 
L 22.125 0 
L 12.40625 0 
L 40.1875 55.90625 
L 5.71875 55.90625 
L 5.71875 63.8125 
L 48.875 63.8125 
z
" id="Consolas-with-Yahei-55"/>
    </defs>
    <g style="fill:#ffffff;" transform="translate(214.4025 674.059205)scale(0.16 -0.16)">
     <use xlink:href="#Consolas-with-Yahei-98"/>
     <use x="54.980469" xlink:href="#Consolas-with-Yahei-55"/>
    </g>
   </g>
   <g id="text_3">
    <!-- Gbb -->
    <defs>
     <path d="M 49.125 52.875 
Q 45.5625 54.78125 41.796875 55.828125 
Q 38.03125 56.890625 33.59375 56.890625 
Q 28.515625 56.890625 24.5625 55.078125 
Q 20.609375 53.265625 17.890625 49.96875 
Q 15.1875 46.6875 13.75 42.046875 
Q 12.3125 37.40625 12.3125 31.78125 
Q 12.3125 25.921875 13.484375 21.28125 
Q 14.65625 16.65625 17.140625 13.421875 
Q 19.625 10.203125 23.5 8.484375 
Q 27.390625 6.78125 32.8125 6.78125 
Q 33.734375 6.78125 34.8125 6.875 
Q 35.890625 6.984375 36.953125 7.15625 
Q 38.03125 7.328125 39.03125 7.5625 
Q 40.046875 7.8125 40.828125 8.109375 
L 40.828125 28.421875 
L 27.78125 28.421875 
L 27.78125 35.59375 
L 49.421875 35.59375 
L 49.421875 2.984375 
Q 47.40625 2.046875 45.1875 1.3125 
Q 42.96875 0.59375 40.640625 0.09375 
Q 38.328125 -0.390625 36.03125 -0.625 
Q 33.734375 -0.875 31.59375 -0.875 
Q 25.046875 -0.875 19.796875 1.171875 
Q 14.546875 3.21875 10.859375 7.25 
Q 7.171875 11.28125 5.1875 17.28125 
Q 3.21875 23.296875 3.21875 31.203125 
Q 3.21875 39.0625 5.421875 45.28125 
Q 7.625 51.515625 11.59375 55.828125 
Q 15.578125 60.15625 21.171875 62.421875 
Q 26.765625 64.703125 33.5 64.703125 
Q 37.796875 64.703125 41.671875 63.9375 
Q 45.5625 63.1875 49.125 61.53125 
z
" id="Consolas-with-Yahei-71"/>
    </defs>
    <g transform="translate(318.00375 665.833955)scale(0.16 -0.16)">
     <use xlink:href="#Consolas-with-Yahei-71"/>
     <use x="54.980469" xlink:href="#Consolas-with-Yahei-98"/>
     <use x="109.960938" xlink:href="#Consolas-with-Yahei-98"/>
    </g>
   </g>
   <g id="text_4">
    <!-- Dbb -->
    <defs>
     <path d="M 51.421875 32.625 
Q 51.421875 28.03125 50.703125 23.828125 
Q 50 19.625 48.4375 16.015625 
Q 46.875 12.40625 44.375 9.453125 
Q 41.890625 6.5 38.28125 4.390625 
Q 34.671875 2.296875 29.875 1.140625 
Q 25.09375 0 19 0 
L 5.328125 0 
L 5.328125 63.8125 
L 21.78125 63.8125 
Q 36.71875 63.8125 44.0625 56.125 
Q 51.421875 48.4375 51.421875 32.625 
z
M 42.28125 31.984375 
Q 42.28125 38.765625 41.015625 43.453125 
Q 39.75 48.140625 37.15625 51.015625 
Q 34.578125 53.90625 30.671875 55.203125 
Q 26.765625 56.5 21.484375 56.5 
L 14.015625 56.5 
L 14.015625 7.515625 
L 20.515625 7.515625 
Q 42.28125 7.515625 42.28125 31.984375 
z
" id="Consolas-with-Yahei-68"/>
    </defs>
    <g style="fill:#ffffff;" transform="translate(426.00375 657.608705)scale(0.16 -0.16)">
     <use xlink:href="#Consolas-with-Yahei-68"/>
     <use x="54.980469" xlink:href="#Consolas-with-Yahei-98"/>
     <use x="109.960938" xlink:href="#Consolas-with-Yahei-98"/>
    </g>
    <!-- R -->
    <defs>
     <path d="M 51.3125 0 
L 41.5 0 
L 31.984375 20.40625 
Q 30.90625 22.75 29.78125 24.28125 
Q 28.65625 25.828125 27.359375 26.734375 
Q 26.078125 27.640625 24.53125 28.03125 
Q 23 28.421875 21.09375 28.421875 
L 17 28.421875 
L 17 0 
L 8.296875 0 
L 8.296875 63.8125 
L 25.390625 63.8125 
Q 30.953125 63.8125 34.953125 62.59375 
Q 38.96875 61.375 41.53125 59.171875 
Q 44.09375 56.984375 45.28125 53.875 
Q 46.484375 50.78125 46.484375 47.015625 
Q 46.484375 44.046875 45.609375 41.375 
Q 44.734375 38.71875 43 36.546875 
Q 41.265625 34.375 38.703125 32.78125 
Q 36.140625 31.203125 32.8125 30.421875 
Q 35.5 29.5 37.375 27.171875 
Q 39.265625 24.859375 41.21875 21 
z
M 37.40625 46.296875 
Q 37.40625 51.421875 34.203125 53.953125 
Q 31 56.5 25.203125 56.5 
L 17 56.5 
L 17 35.40625 
L 24.03125 35.40625 
Q 27.09375 35.40625 29.5625 36.109375 
Q 32.03125 36.8125 33.765625 38.203125 
Q 35.5 39.59375 36.453125 41.625 
Q 37.40625 43.65625 37.40625 46.296875 
z
" id="Consolas-with-Yahei-82"/>
    </defs>
    <g style="fill:#ffffff;" transform="translate(434.80125 674.059205)scale(0.16 -0.16)">
     <use xlink:href="#Consolas-with-Yahei-82"/>
    </g>
   </g>
   <g id="text_5">
    <!-- Abb -->
    <defs>
     <path d="M 54.5 0 
L 45.015625 0 
L 40.578125 13.921875 
L 14.015625 13.921875 
L 9.515625 0 
L 0.484375 0 
L 21.6875 63.8125 
L 33.59375 63.8125 
z
M 38.09375 21.6875 
L 27.296875 55.8125 
L 16.5 21.6875 
z
" id="Consolas-with-Yahei-65"/>
    </defs>
    <g style="fill:#ffffff;" transform="translate(534.00375 657.608705)scale(0.16 -0.16)">
     <use xlink:href="#Consolas-with-Yahei-65"/>
     <use x="54.980469" xlink:href="#Consolas-with-Yahei-98"/>
     <use x="109.960938" xlink:href="#Consolas-with-Yahei-98"/>
    </g>
    <!-- 5 -->
    <defs>
     <path d="M 47.609375 20.40625 
Q 47.609375 15.671875 45.546875 11.765625 
Q 43.5 7.859375 39.90625 5.046875 
Q 36.328125 2.25 31.4375 0.6875 
Q 26.5625 -0.875 20.90625 -0.875 
Q 19.484375 -0.875 17.84375 -0.796875 
Q 16.21875 -0.734375 14.59375 -0.609375 
Q 12.984375 -0.484375 11.4375 -0.34375 
Q 9.90625 -0.203125 8.6875 0 
L 8.6875 7.71875 
Q 11.328125 7.078125 14.71875 6.78125 
Q 18.109375 6.5 21.578125 6.5 
Q 25.484375 6.5 28.609375 7.421875 
Q 31.734375 8.34375 33.9375 10.078125 
Q 36.140625 11.8125 37.3125 14.28125 
Q 38.484375 16.75 38.484375 19.828125 
Q 38.484375 25.78125 34.203125 28.484375 
Q 29.9375 31.203125 21.921875 31.203125 
L 9.8125 31.203125 
L 9.8125 63.8125 
L 44.1875 63.8125 
L 44.1875 56.390625 
L 17.828125 56.390625 
L 17.828125 38.484375 
L 23.390625 38.484375 
Q 27.984375 38.484375 32.328125 37.640625 
Q 36.671875 36.8125 40.0625 34.734375 
Q 43.453125 32.671875 45.53125 29.171875 
Q 47.609375 25.6875 47.609375 20.40625 
z
" id="Consolas-with-Yahei-53"/>
    </defs>
    <g style="fill:#ffffff;" transform="translate(542.80125 674.059205)scale(0.16 -0.16)">
     <use xlink:href="#Consolas-with-Yahei-53"/>
    </g>
   </g>
   <g id="text_6">
    <!-- Ebb -->
    <defs>
     <path d="M 46.09375 0 
L 9.8125 0 
L 9.8125 63.8125 
L 46.09375 63.8125 
L 46.09375 56.5 
L 18.5 56.5 
L 18.5 36.71875 
L 45.015625 36.71875 
L 45.015625 29.390625 
L 18.5 29.390625 
L 18.5 7.421875 
L 46.09375 7.421875 
z
" id="Consolas-with-Yahei-69"/>
    </defs>
    <g transform="translate(642.00375 665.833955)scale(0.16 -0.16)">
     <use xlink:href="#Consolas-with-Yahei-69"/>
     <use x="54.980469" xlink:href="#Consolas-with-Yahei-98"/>
     <use x="109.960938" xlink:href="#Consolas-with-Yahei-98"/>
    </g>
   </g>
   <g id="text_7">
    <!-- Bbb -->
    <defs>
     <path d="M 49.609375 19.09375 
Q 49.609375 14.5 47.828125 10.953125 
Q 46.046875 7.421875 42.75 4.984375 
Q 39.453125 2.546875 34.78125 1.265625 
Q 30.125 0 24.421875 0 
L 7.71875 0 
L 7.71875 63.8125 
L 25.984375 63.8125 
Q 47.3125 63.8125 47.3125 48.296875 
Q 47.3125 43.109375 44.84375 39.390625 
Q 42.390625 35.6875 36.8125 33.890625 
Q 39.40625 33.40625 41.71875 32.234375 
Q 44.046875 31.0625 45.796875 29.203125 
Q 47.5625 27.34375 48.578125 24.796875 
Q 49.609375 22.265625 49.609375 19.09375 
z
M 38.28125 47.125 
Q 38.28125 49.078125 37.6875 50.8125 
Q 37.109375 52.546875 35.640625 53.78125 
Q 34.1875 55.03125 31.6875 55.765625 
Q 29.203125 56.5 25.390625 56.5 
L 16.40625 56.5 
L 16.40625 36.53125 
L 25.09375 36.53125 
Q 28.078125 36.53125 30.484375 37.15625 
Q 32.90625 37.796875 34.640625 39.109375 
Q 36.375 40.4375 37.328125 42.40625 
Q 38.28125 44.390625 38.28125 47.125 
z
M 40.375 18.796875 
Q 40.375 21.234375 39.34375 23.1875 
Q 38.328125 25.140625 36.375 26.484375 
Q 34.421875 27.828125 31.609375 28.5625 
Q 28.8125 29.296875 25.296875 29.296875 
L 16.40625 29.296875 
L 16.40625 7.328125 
L 25.59375 7.328125 
Q 33.0625 7.328125 36.71875 10.109375 
Q 40.375 12.890625 40.375 18.796875 
z
" id="Consolas-with-Yahei-66"/>
    </defs>
    <g transform="translate(750.00375 665.833955)scale(0.16 -0.16)">
     <use xlink:href="#Consolas-with-Yahei-66"/>
     <use x="54.980469" xlink:href="#Consolas-with-Yahei-98"/>
     <use x="109.960938" xlink:href="#Consolas-with-Yahei-98"/>
    </g>
   </g>
   <g id="text_8">
    <!-- Abb -->
    <g style="fill:#ffffff;" transform="translate(156.00375 564.077962)scale(0.16 -0.16)">
     <use xlink:href="#Consolas-with-Yahei-65"/>
     <use x="54.980469" xlink:href="#Consolas-with-Yahei-98"/>
     <use x="109.960938" xlink:href="#Consolas-with-Yahei-98"/>
    </g>
    <!-- 5 -->
    <g style="fill:#ffffff;" transform="translate(164.80125 580.528462)scale(0.16 -0.16)">
     <use xlink:href="#Consolas-with-Yahei-53"/>
    </g>
   </g>
   <g id="text_9">
    <!-- Ebb -->
    <g transform="translate(264.00375 572.303212)scale(0.16 -0.16)">
     <use xlink:href="#Consolas-with-Yahei-69"/>
     <use x="54.980469" xlink:href="#Consolas-with-Yahei-98"/>
     <use x="109.960938" xlink:href="#Consolas-with-Yahei-98"/>
    </g>
   </g>
   <g id="text_10">
    <!-- Bbb -->
    <g transform="translate(372.00375 572.303212)scale(0.16 -0.16)">
     <use xlink:href="#Consolas-with-Yahei-66"/>
     <use x="54.980469" xlink:href="#Consolas-with-Yahei-98"/>
     <use x="109.960938" xlink:href="#Consolas-with-Yahei-98"/>
    </g>
   </g>
   <g id="text_11">
    <!-- Fb -->
    <g transform="translate(484.4025 572.303212)scale(0.16 -0.16)">
     <use xlink:href="#Consolas-with-Yahei-70"/>
     <use x="54.980469" xlink:href="#Consolas-with-Yahei-98"/>
    </g>
   </g>
   <g id="text_12">
    <!-- Cb -->
    <g transform="translate(592.4025 572.303212)scale(0.16 -0.16)">
     <use xlink:href="#Consolas-with-Yahei-67"/>
     <use x="54.980469" xlink:href="#Consolas-with-Yahei-98"/>
    </g>
   </g>
   <g id="text_13">
    <!-- Gb -->
    <g transform="translate(700.4025 572.303212)scale(0.16 -0.16)">
     <use xlink:href="#Consolas-with-Yahei-71"/>
     <use x="54.980469" xlink:href="#Consolas-with-Yahei-98"/>
    </g>
   </g>
   <g id="text_14">
    <!-- Db -->
    <g transform="translate(808.4025 572.303212)scale(0.16 -0.16)">
     <use xlink:href="#Consolas-with-Yahei-68"/>
     <use x="54.980469" xlink:href="#Consolas-with-Yahei-98"/>
    </g>
   </g>
   <g id="text_15">
    <!-- Cb -->
    <g transform="translate(214.4025 478.772468)scale(0.16 -0.16)">
     <use xlink:href="#Consolas-with-Yahei-67"/>
     <use x="54.980469" xlink:href="#Consolas-with-Yahei-98"/>
    </g>
   </g>
   <g id="text_16">
    <!-- Gb -->
    <g transform="translate(322.4025 478.772468)scale(0.16 -0.16)">
     <use xlink:href="#Consolas-with-Yahei-71"/>
     <use x="54.980469" xlink:href="#Consolas-with-Yahei-98"/>
    </g>
   </g>
   <g id="text_17">
    <!-- Db -->
    <g transform="translate(430.4025 478.772468)scale(0.16 -0.16)">
     <use xlink:href="#Consolas-with-Yahei-68"/>
     <use x="54.980469" xlink:href="#Consolas-with-Yahei-98"/>
    </g>
   </g>
   <g id="text_18">
    <!-- Ab -->
    <g transform="translate(538.4025 478.772468)scale(0.16 -0.16)">
     <use xlink:href="#Consolas-with-Yahei-65"/>
     <use x="54.980469" xlink:href="#Consolas-with-Yahei-98"/>
    </g>
   </g>
   <g id="text_19">
    <!-- Eb -->
    <g style="fill:#ffffff;" transform="translate(646.4025 470.547218)scale(0.16 -0.16)">
     <use xlink:href="#Consolas-with-Yahei-69"/>
     <use x="54.980469" xlink:href="#Consolas-with-Yahei-98"/>
    </g>
    <!-- b3 -->
    <g style="fill:#ffffff;" transform="translate(646.4025 486.997718)scale(0.16 -0.16)">
     <use xlink:href="#Consolas-with-Yahei-98"/>
     <use x="54.980469" xlink:href="#Consolas-with-Yahei-51"/>
    </g>
   </g>
   <g id="text_20">
    <!-- Bb -->
    <g style="fill:#ffffff;" transform="translate(754.4025 470.547218)scale(0.16 -0.16)">
     <use xlink:href="#Consolas-with-Yahei-66"/>
     <use x="54.980469" xlink:href="#Consolas-with-Yahei-98"/>
    </g>
    <!-- b7 -->
    <g style="fill:#ffffff;" transform="translate(754.4025 486.997718)scale(0.16 -0.16)">
     <use xlink:href="#Consolas-with-Yahei-98"/>
     <use x="54.980469" xlink:href="#Consolas-with-Yahei-55"/>
    </g>
   </g>
   <g id="text_21">
    <!-- F -->
    <g transform="translate(866.80125 478.772468)scale(0.16 -0.16)">
     <use xlink:href="#Consolas-with-Yahei-70"/>
    </g>
   </g>
   <g id="text_22">
    <!-- Eb -->
    <g style="fill:#ffffff;" transform="translate(268.4025 377.016474)scale(0.16 -0.16)">
     <use xlink:href="#Consolas-with-Yahei-69"/>
     <use x="54.980469" xlink:href="#Consolas-with-Yahei-98"/>
    </g>
    <!-- b3 -->
    <g style="fill:#ffffff;" transform="translate(268.4025 393.466974)scale(0.16 -0.16)">
     <use xlink:href="#Consolas-with-Yahei-98"/>
     <use x="54.980469" xlink:href="#Consolas-with-Yahei-51"/>
    </g>
   </g>
   <g id="text_23">
    <!-- Bb -->
    <g style="fill:#ffffff;" transform="translate(376.4025 377.016474)scale(0.16 -0.16)">
     <use xlink:href="#Consolas-with-Yahei-66"/>
     <use x="54.980469" xlink:href="#Consolas-with-Yahei-98"/>
    </g>
    <!-- b7 -->
    <g style="fill:#ffffff;" transform="translate(376.4025 393.466974)scale(0.16 -0.16)">
     <use xlink:href="#Consolas-with-Yahei-98"/>
     <use x="54.980469" xlink:href="#Consolas-with-Yahei-55"/>
    </g>
   </g>
   <g id="text_24">
    <!-- F -->
    <g transform="translate(488.80125 385.241724)scale(0.16 -0.16)">
     <use xlink:href="#Consolas-with-Yahei-70"/>
    </g>
   </g>
   <g id="text_25">
    <!-- C -->
    <g style="fill:#ffffff;" transform="translate(596.80125 377.016474)scale(0.16 -0.16)">
     <use xlink:href="#Consolas-with-Yahei-67"/>
    </g>
    <!-- R -->
    <g style="fill:#ffffff;" transform="translate(596.80125 393.466974)scale(0.16 -0.16)">
     <use xlink:href="#Consolas-with-Yahei-82"/>
    </g>
   </g>
   <g id="text_26">
    <!-- G -->
    <g style="fill:#ffffff;" transform="translate(704.80125 377.016474)scale(0.16 -0.16)">
     <use xlink:href="#Consolas-with-Yahei-71"/>
    </g>
    <!-- 5 -->
    <g style="fill:#ffffff;" transform="translate(704.80125 393.466974)scale(0.16 -0.16)">
     <use xlink:href="#Consolas-with-Yahei-53"/>
    </g>
   </g>
   <g id="text_27">
    <!-- D -->
    <g transform="translate(812.80125 385.241724)scale(0.16 -0.16)">
     <use xlink:href="#Consolas-with-Yahei-68"/>
    </g>
   </g>
   <g id="text_28">
    <!-- A -->
    <g transform="translate(920.80125 385.241724)scale(0.16 -0.16)">
     <use xlink:href="#Consolas-with-Yahei-65"/>
    </g>
   </g>
   <g id="text_29">
    <!-- G -->
    <g style="fill:#ffffff;" transform="translate(326.80125 283.485731)scale(0.16 -0.16)">
     <use xlink:href="#Consolas-with-Yahei-71"/>
    </g>
    <!-- 5 -->
    <g style="fill:#ffffff;" transform="translate(326.80125 299.936231)scale(0.16 -0.16)">
     <use xlink:href="#Consolas-with-Yahei-53"/>
    </g>
   </g>
   <g id="text_30">
    <!-- D -->
    <g transform="translate(434.80125 291.710981)scale(0.16 -0.16)">
     <use xlink:href="#Consolas-with-Yahei-68"/>
    </g>
   </g>
   <g id="text_31">
    <!-- A -->
    <g transform="translate(542.80125 291.710981)scale(0.16 -0.16)">
     <use xlink:href="#Consolas-with-Yahei-65"/>
    </g>
   </g>
   <g id="text_32">
    <!-- E -->
    <g transform="translate(650.80125 291.710981)scale(0.16 -0.16)">
     <use xlink:href="#Consolas-with-Yahei-69"/>
    </g>
   </g>
   <g id="text_33">
    <!-- B -->
    <g transform="translate(758.80125 291.710981)scale(0.16 -0.16)">
     <use xlink:href="#Consolas-with-Yahei-66"/>
    </g>
   </g>
   <g id="text_34">
    <!-- F# -->
    <defs>
     <path d="M 50.296875 17.921875 
L 39.40625 17.921875 
L 37.59375 0 
L 30.375 0 
L 32.171875 17.921875 
L 19.734375 17.921875 
L 17.921875 0 
L 10.6875 0 
L 12.5 17.921875 
L 2.09375 17.921875 
L 2.09375 24.265625 
L 13.140625 24.265625 
L 14.890625 41.359375 
L 4.59375 41.359375 
L 4.59375 47.703125 
L 15.53125 47.703125 
L 17.1875 63.8125 
L 24.3125 63.8125 
L 22.703125 47.703125 
L 35.203125 47.703125 
L 36.859375 63.8125 
L 44.09375 63.8125 
L 42.390625 47.703125 
L 52.875 47.703125 
L 52.875 41.359375 
L 41.75 41.359375 
L 40.046875 24.265625 
L 50.296875 24.265625 
z
M 32.859375 24.265625 
L 34.578125 41.359375 
L 22.078125 41.359375 
L 20.359375 24.265625 
z
" id="Consolas-with-Yahei-35"/>
    </defs>
    <g transform="translate(862.4025 291.710981)scale(0.16 -0.16)">
     <use xlink:href="#Consolas-with-Yahei-70"/>
     <use x="54.980469" xlink:href="#Consolas-with-Yahei-35"/>
    </g>
   </g>
   <g id="text_35">
    <!-- C# -->
    <g transform="translate(970.4025 291.710981)scale(0.16 -0.16)">
     <use xlink:href="#Consolas-with-Yahei-67"/>
     <use x="54.980469" xlink:href="#Consolas-with-Yahei-35"/>
    </g>
   </g>
   <g id="text_36">
    <!-- B -->
    <g transform="translate(380.80125 198.180237)scale(0.16 -0.16)">
     <use xlink:href="#Consolas-with-Yahei-66"/>
    </g>
   </g>
   <g id="text_37">
    <!-- F# -->
    <g transform="translate(484.4025 198.180237)scale(0.16 -0.16)">
     <use xlink:href="#Consolas-with-Yahei-70"/>
     <use x="54.980469" xlink:href="#Consolas-with-Yahei-35"/>
    </g>
   </g>
   <g id="text_38">
    <!-- C# -->
    <g transform="translate(592.4025 198.180237)scale(0.16 -0.16)">
     <use xlink:href="#Consolas-with-Yahei-67"/>
     <use x="54.980469" xlink:href="#Consolas-with-Yahei-35"/>
    </g>
   </g>
   <g id="text_39">
    <!-- G# -->
    <g transform="translate(700.4025 198.180237)scale(0.16 -0.16)">
     <use xlink:href="#Consolas-with-Yahei-71"/>
     <use x="54.980469" xlink:href="#Consolas-with-Yahei-35"/>
    </g>
   </g>
   <g id="text_40">
    <!-- D# -->
    <g style="fill:#ffffff;" transform="translate(808.4025 189.954987)scale(0.16 -0.16)">
     <use xlink:href="#Consolas-with-Yahei-68"/>
     <use x="54.980469" xlink:href="#Consolas-with-Yahei-35"/>
    </g>
    <!-- b3 -->
    <g style="fill:#ffffff;" transform="translate(808.4025 206.405487)scale(0.16 -0.16)">
     <use xlink:href="#Consolas-with-Yahei-98"/>
     <use x="54.980469" xlink:href="#Consolas-with-Yahei-51"/>
    </g>
   </g>
   <g id="text_41">
    <!-- A# -->
    <g style="fill:#ffffff;" transform="translate(916.4025 189.954987)scale(0.16 -0.16)">
     <use xlink:href="#Consolas-with-Yahei-65"/>
     <use x="54.980469" xlink:href="#Consolas-with-Yahei-35"/>
    </g>
    <!-- b7 -->
    <g style="fill:#ffffff;" transform="translate(916.4025 206.405487)scale(0.16 -0.16)">
     <use xlink:href="#Consolas-with-Yahei-98"/>
     <use x="54.980469" xlink:href="#Consolas-with-Yahei-55"/>
    </g>
   </g>
   <g id="text_42">
    <!-- E# -->
    <g transform="translate(1024.4025 198.180237)scale(0.16 -0.16)">
     <use xlink:href="#Consolas-with-Yahei-69"/>
     <use x="54.980469" xlink:href="#Consolas-with-Yahei-35"/>
    </g>
   </g>
   <g id="text_43">
    <!-- D# -->
    <g style="fill:#ffffff;" transform="translate(430.4025 96.424244)scale(0.16 -0.16)">
     <use xlink:href="#Consolas-with-Yahei-68"/>
     <use x="54.980469" xlink:href="#Consolas-with-Yahei-35"/>
    </g>
    <!-- b3 -->
    <g style="fill:#ffffff;" transform="translate(430.4025 112.874744)scale(0.16 -0.16)">
     <use xlink:href="#Consolas-with-Yahei-98"/>
     <use x="54.980469" xlink:href="#Consolas-with-Yahei-51"/>
    </g>
   </g>
   <g id="text_44">
    <!-- A# -->
    <g style="fill:#ffffff;" transform="translate(538.4025 96.424244)scale(0.16 -0.16)">
     <use xlink:href="#Consolas-with-Yahei-65"/>
     <use x="54.980469" xlink:href="#Consolas-with-Yahei-35"/>
    </g>
    <!-- b7 -->
    <g style="fill:#ffffff;" transform="translate(538.4025 112.874744)scale(0.16 -0.16)">
     <use xlink:href="#Consolas-with-Yahei-98"/>
     <use x="54.980469" xlink:href="#Consolas-with-Yahei-55"/>
    </g>
   </g>
   <g id="text_45">
    <!-- E# -->
    <g transform="translate(646.4025 104.649494)scale(0.16 -0.16)">
     <use xlink:href="#Consolas-with-Yahei-69"/>
     <use x="54.980469" xlink:href="#Consolas-with-Yahei-35"/>
    </g>
   </g>
   <g id="text_46">
    <!-- B# -->
    <g style="fill:#ffffff;" transform="translate(754.4025 96.424244)scale(0.16 -0.16)">
     <use xlink:href="#Consolas-with-Yahei-66"/>
     <use x="54.980469" xlink:href="#Consolas-with-Yahei-35"/>
    </g>
    <!-- R -->
    <g style="fill:#ffffff;" transform="translate(758.80125 112.874744)scale(0.16 -0.16)">
     <use xlink:href="#Consolas-with-Yahei-82"/>
    </g>
   </g>
   <g id="text_47">
    <!-- F## -->
    <g style="fill:#ffffff;" transform="translate(858.00375 96.424244)scale(0.16 -0.16)">
     <use xlink:href="#Consolas-with-Yahei-70"/>
     <use x="54.980469" xlink:href="#Consolas-with-Yahei-35"/>
     <use x="109.960938" xlink:href="#Consolas-with-Yahei-35"/>
    </g>
    <!-- 5 -->
    <g style="fill:#ffffff;" transform="translate(866.80125 112.874744)scale(0.16 -0.16)">
     <use xlink:href="#Consolas-with-Yahei-53"/>
    </g>
   </g>
   <g id="text_48">
    <!-- C## -->
    <g transform="translate(966.00375 104.649494)scale(0.16 -0.16)">
     <use xlink:href="#Consolas-with-Yahei-67"/>
     <use x="54.980469" xlink:href="#Consolas-with-Yahei-35"/>
     <use x="109.960938" xlink:href="#Consolas-with-Yahei-35"/>
    </g>
   </g>
   <g id="text_49">
    <!-- G## -->
    <g transform="translate(1074.00375 104.649494)scale(0.16 -0.16)">
     <use xlink:href="#Consolas-with-Yahei-71"/>
     <use x="54.980469" xlink:href="#Consolas-with-Yahei-35"/>
     <use x="109.960938" xlink:href="#Consolas-with-Yahei-35"/>
    </g>
   </g>
   <g id="text_50">
    <!-- Cm7 (color_style=br357t) -->
    <defs>
     <path d="M 42.78125 0 
L 42.78125 35.203125 
Q 42.78125 37.5 42.609375 38.96875 
Q 42.4375 40.4375 42.0625 41.28125 
Q 41.703125 42.140625 41.140625 42.484375 
Q 40.578125 42.828125 39.75 42.828125 
Q 38.765625 42.828125 37.9375 42.234375 
Q 37.109375 41.65625 36.15625 40.328125 
Q 35.203125 39.015625 34.046875 36.84375 
Q 32.90625 34.671875 31.34375 31.5 
L 31.34375 0 
L 23.578125 0 
L 23.578125 34.28125 
Q 23.578125 36.96875 23.40625 38.625 
Q 23.25 40.28125 22.875 41.203125 
Q 22.515625 42.140625 21.921875 42.484375 
Q 21.34375 42.828125 20.515625 42.828125 
Q 19.625 42.828125 18.84375 42.328125 
Q 18.0625 41.84375 17.109375 40.578125 
Q 16.15625 39.3125 14.984375 37.109375 
Q 13.8125 34.90625 12.203125 31.5 
L 12.203125 0 
L 4.390625 0 
L 4.390625 49.03125 
L 10.890625 49.03125 
L 11.28125 39.703125 
Q 12.546875 42.484375 13.734375 44.4375 
Q 14.9375 46.390625 16.203125 47.578125 
Q 17.484375 48.78125 18.921875 49.34375 
Q 20.359375 49.90625 22.125 49.90625 
Q 26.078125 49.90625 28.125 47.3125 
Q 30.171875 44.734375 30.171875 39.3125 
Q 31.34375 41.84375 32.46875 43.8125 
Q 33.59375 45.796875 34.890625 47.140625 
Q 36.1875 48.484375 37.75 49.1875 
Q 39.3125 49.90625 41.359375 49.90625 
Q 50.59375 49.90625 50.59375 35.6875 
L 50.59375 0 
z
" id="Consolas-with-Yahei-109"/>
     <path id="Consolas-with-Yahei-32"/>
     <path d="M 37.15625 -20.515625 
Q 14.65625 0.34375 14.65625 25.59375 
Q 14.65625 31.5 15.84375 37.375 
Q 17.046875 43.265625 19.703125 49.171875 
Q 22.359375 55.078125 26.734375 60.984375 
Q 31.109375 66.890625 37.359375 72.703125 
L 42.28125 67.671875 
Q 23.34375 48.96875 23.34375 26.21875 
Q 23.34375 14.890625 28.125 4.4375 
Q 32.90625 -6 42.28125 -15.28125 
z
" id="Consolas-with-Yahei-40"/>
     <path d="M 45.90625 1.8125 
Q 42.578125 0.53125 39.078125 -0.078125 
Q 35.59375 -0.6875 31.890625 -0.6875 
Q 20.265625 -0.6875 13.984375 5.609375 
Q 7.71875 11.921875 7.71875 24.03125 
Q 7.71875 29.828125 9.515625 34.5625 
Q 11.328125 39.3125 14.59375 42.671875 
Q 17.875 46.046875 22.40625 47.875 
Q 26.953125 49.703125 32.421875 49.703125 
Q 36.234375 49.703125 39.546875 49.171875 
Q 42.875 48.640625 45.90625 47.40625 
L 45.90625 39.3125 
Q 42.71875 40.96875 39.421875 41.71875 
Q 36.140625 42.484375 32.625 42.484375 
Q 29.34375 42.484375 26.4375 41.234375 
Q 23.53125 39.984375 21.328125 37.640625 
Q 19.140625 35.296875 17.875 31.921875 
Q 16.609375 28.5625 16.609375 24.3125 
Q 16.609375 15.4375 20.921875 11.015625 
Q 25.25 6.59375 32.90625 6.59375 
Q 36.375 6.59375 39.625 7.375 
Q 42.875 8.15625 45.90625 9.71875 
z
" id="Consolas-with-Yahei-99"/>
     <path d="M 50.484375 24.90625 
Q 50.484375 19.1875 48.875 14.421875 
Q 47.265625 9.671875 44.234375 6.265625 
Q 41.21875 2.875 36.859375 1 
Q 32.515625 -0.875 27 -0.875 
Q 21.734375 -0.875 17.546875 0.75 
Q 13.375 2.390625 10.46875 5.5625 
Q 7.5625 8.734375 6.03125 13.421875 
Q 4.5 18.109375 4.5 24.21875 
Q 4.5 29.9375 6.109375 34.640625 
Q 7.71875 39.359375 10.734375 42.75 
Q 13.765625 46.140625 18.109375 48.015625 
Q 22.46875 49.90625 27.984375 49.90625 
Q 33.25 49.90625 37.421875 48.265625 
Q 41.609375 46.625 44.5 43.46875 
Q 47.40625 40.328125 48.9375 35.640625 
Q 50.484375 30.953125 50.484375 24.90625 
z
M 41.796875 24.515625 
Q 41.796875 29.046875 40.796875 32.4375 
Q 39.796875 35.84375 37.9375 38.109375 
Q 36.078125 40.375 33.421875 41.515625 
Q 30.765625 42.671875 27.484375 42.671875 
Q 23.6875 42.671875 20.96875 41.1875 
Q 18.265625 39.703125 16.53125 37.203125 
Q 14.796875 34.71875 13.984375 31.421875 
Q 13.1875 28.125 13.1875 24.515625 
Q 13.1875 19.96875 14.1875 16.546875 
Q 15.1875 13.140625 17.03125 10.859375 
Q 18.890625 8.59375 21.53125 7.4375 
Q 24.171875 6.296875 27.484375 6.296875 
Q 31.296875 6.296875 34 7.78125 
Q 36.71875 9.28125 38.453125 11.765625 
Q 40.1875 14.265625 40.984375 17.546875 
Q 41.796875 20.84375 41.796875 24.515625 
z
" id="Consolas-with-Yahei-111"/>
     <path d="M 24.515625 62.015625 
L 10.015625 62.015625 
L 10.015625 69 
L 33.109375 69 
L 33.109375 7.078125 
L 47.703125 7.078125 
L 47.703125 0 
L 8.40625 0 
L 8.40625 7.078125 
L 24.515625 7.078125 
z
" id="Consolas-with-Yahei-108"/>
     <path d="M 9.8125 49.03125 
L 17.578125 49.03125 
L 17.828125 39.984375 
Q 22.171875 45.21875 26.390625 47.5625 
Q 30.609375 49.90625 34.90625 49.90625 
Q 42.53125 49.90625 46.453125 44.96875 
Q 50.390625 40.046875 50.09375 30.328125 
L 41.5 30.328125 
Q 41.65625 36.765625 39.625 39.671875 
Q 37.59375 42.578125 33.6875 42.578125 
Q 31.984375 42.578125 30.25 41.96875 
Q 28.515625 41.359375 26.6875 40.015625 
Q 24.859375 38.671875 22.796875 36.5625 
Q 20.75 34.46875 18.40625 31.5 
L 18.40625 0 
L 9.8125 0 
z
" id="Consolas-with-Yahei-114"/>
     <path d="M 54.984375 -20.015625 
L 0 -20.015625 
L 0 -12.984375 
L 54.984375 -12.984375 
z
" id="Consolas-with-Yahei-95"/>
     <path d="M 46.625 13.375 
Q 46.625 10.796875 45.75 8.734375 
Q 44.875 6.6875 43.359375 5.09375 
Q 41.84375 3.515625 39.84375 2.390625 
Q 37.84375 1.265625 35.5625 0.53125 
Q 33.296875 -0.203125 30.90625 -0.53125 
Q 28.515625 -0.875 26.21875 -0.875 
Q 21.234375 -0.875 17.0625 -0.4375 
Q 12.890625 0 8.890625 0.984375 
L 8.890625 8.796875 
Q 13.1875 7.5625 17.4375 6.921875 
Q 21.6875 6.296875 25.875 6.296875 
Q 31.984375 6.296875 34.90625 7.953125 
Q 37.84375 9.625 37.84375 12.703125 
Q 37.84375 14.015625 37.375 15.0625 
Q 36.921875 16.109375 35.6875 17.0625 
Q 34.46875 18.015625 31.90625 19.03125 
Q 29.34375 20.0625 24.90625 21.390625 
Q 21.578125 22.359375 18.765625 23.609375 
Q 15.96875 24.859375 13.90625 26.5625 
Q 11.859375 28.265625 10.6875 30.5625 
Q 9.515625 32.859375 9.515625 35.984375 
Q 9.515625 38.03125 10.46875 40.46875 
Q 11.421875 42.921875 13.71875 45.015625 
Q 16.015625 47.125 19.921875 48.515625 
Q 23.828125 49.90625 29.6875 49.90625 
Q 32.5625 49.90625 36.078125 49.578125 
Q 39.59375 49.265625 43.40625 48.484375 
L 43.40625 40.921875 
Q 39.40625 41.890625 35.8125 42.359375 
Q 32.234375 42.828125 29.59375 42.828125 
Q 26.421875 42.828125 24.25 42.328125 
Q 22.078125 41.84375 20.734375 40.984375 
Q 19.390625 40.140625 18.796875 38.984375 
Q 18.21875 37.84375 18.21875 36.53125 
Q 18.21875 35.203125 18.71875 34.125 
Q 19.234375 33.0625 20.625 32.0625 
Q 22.015625 31.0625 24.5 30.046875 
Q 27 29.046875 31 27.875 
Q 35.359375 26.609375 38.328125 25.21875 
Q 41.3125 23.828125 43.15625 22.109375 
Q 45.015625 20.40625 45.8125 18.25 
Q 46.625 16.109375 46.625 13.375 
z
" id="Consolas-with-Yahei-115"/>
     <path d="M 47.3125 0.6875 
Q 44.4375 -0.046875 41.359375 -0.359375 
Q 38.28125 -0.6875 35.109375 -0.6875 
Q 25.875 -0.6875 21.328125 3.484375 
Q 16.796875 7.671875 16.796875 16.3125 
L 16.796875 41.890625 
L 3.078125 41.890625 
L 3.078125 49.03125 
L 16.796875 49.03125 
L 16.796875 62.5 
L 25.296875 64.703125 
L 25.296875 49.03125 
L 47.3125 49.03125 
L 47.3125 41.890625 
L 25.296875 41.890625 
L 25.296875 17 
Q 25.296875 11.71875 28.09375 9.109375 
Q 30.90625 6.5 36.375 6.5 
Q 38.71875 6.5 41.5 6.859375 
Q 44.28125 7.234375 47.3125 8.015625 
z
" id="Consolas-with-Yahei-116"/>
     <path d="M 51.421875 49.03125 
L 34.71875 5.171875 
Q 32.125 -1.515625 29.359375 -6.34375 
Q 26.609375 -11.1875 23.328125 -14.28125 
Q 20.0625 -17.390625 16.15625 -18.84375 
Q 12.25 -20.3125 7.421875 -20.3125 
Q 6.15625 -20.3125 5.125 -20.265625 
Q 4.109375 -20.21875 2.875 -20.125 
L 2.875 -12.40625 
Q 3.953125 -12.546875 5.21875 -12.671875 
Q 6.5 -12.796875 7.90625 -12.796875 
Q 10.25 -12.796875 12.28125 -12.109375 
Q 14.3125 -11.421875 16.109375 -9.875 
Q 17.921875 -8.34375 19.578125 -5.90625 
Q 21.234375 -3.46875 22.796875 0 
L 3.21875 49.03125 
L 12.890625 49.03125 
L 25.296875 16.609375 
L 27.78125 8.984375 
L 30.609375 16.796875 
L 42.09375 49.03125 
z
" id="Consolas-with-Yahei-121"/>
     <path d="M 49.21875 27.09375 
Q 49.21875 25.296875 49.171875 24.078125 
Q 49.125 22.859375 49.03125 21.78125 
L 14.59375 21.78125 
Q 14.59375 14.265625 18.796875 10.234375 
Q 23 6.203125 30.90625 6.203125 
Q 33.0625 6.203125 35.203125 6.375 
Q 37.359375 6.546875 39.359375 6.828125 
Q 41.359375 7.125 43.1875 7.484375 
Q 45.015625 7.859375 46.578125 8.296875 
L 46.578125 1.3125 
Q 43.109375 0.34375 38.734375 -0.265625 
Q 34.375 -0.875 29.6875 -0.875 
Q 23.390625 -0.875 18.84375 0.828125 
Q 14.3125 2.546875 11.40625 5.78125 
Q 8.5 9.03125 7.109375 13.734375 
Q 5.71875 18.453125 5.71875 24.421875 
Q 5.71875 29.59375 7.203125 34.203125 
Q 8.6875 38.8125 11.546875 42.296875 
Q 14.40625 45.796875 18.546875 47.84375 
Q 22.703125 49.90625 27.984375 49.90625 
Q 33.109375 49.90625 37.0625 48.296875 
Q 41.015625 46.6875 43.71875 43.71875 
Q 46.4375 40.765625 47.828125 36.546875 
Q 49.21875 32.328125 49.21875 27.09375 
z
M 40.375 28.328125 
Q 40.53125 31.59375 39.75 34.296875 
Q 38.96875 37.015625 37.328125 38.96875 
Q 35.6875 40.921875 33.25 42.015625 
Q 30.8125 43.109375 27.59375 43.109375 
Q 24.8125 43.109375 22.515625 42.03125 
Q 20.21875 40.96875 18.546875 39.015625 
Q 16.890625 37.0625 15.859375 34.328125 
Q 14.84375 31.59375 14.59375 28.328125 
z
" id="Consolas-with-Yahei-101"/>
     <path d="M 48.484375 31.546875 
L 6.5 31.546875 
L 6.5 38.71875 
L 48.484375 38.71875 
z
M 48.484375 14.546875 
L 6.5 14.546875 
L 6.5 21.734375 
L 48.484375 21.734375 
z
" id="Consolas-with-Yahei-61"/>
     <path d="M 17.828125 72.703125 
Q 40.328125 51.859375 40.328125 26.3125 
Q 40.328125 21.046875 39.25 15.375 
Q 38.1875 9.71875 35.59375 3.78125 
Q 33.015625 -2.15625 28.640625 -8.25 
Q 24.265625 -14.359375 17.625 -20.515625 
L 12.703125 -15.484375 
Q 22.21875 -6.0625 26.90625 4.1875 
Q 31.59375 14.453125 31.59375 25.6875 
Q 31.59375 48.921875 12.703125 67.484375 
z
" id="Consolas-with-Yahei-41"/>
    </defs>
    <g transform="translate(474.516 38.612297)scale(0.192 -0.192)">
     <use xlink:href="#Consolas-with-Yahei-67"/>
     <use x="54.980469" xlink:href="#Consolas-with-Yahei-109"/>
     <use x="109.960938" xlink:href="#Consolas-with-Yahei-55"/>
     <use x="164.941406" xlink:href="#Consolas-with-Yahei-32"/>
     <use x="219.921875" xlink:href="#Consolas-with-Yahei-40"/>
     <use x="274.902344" xlink:href="#Consolas-with-Yahei-99"/>
     <use x="329.882812" xlink:href="#Consolas-with-Yahei-111"/>
     <use x="384.863281" xlink:href="#Consolas-with-Yahei-108"/>
     <use x="439.84375" xlink:href="#Consolas-with-Yahei-111"/>
     <use x="494.824219" xlink:href="#Consolas-with-Yahei-114"/>
     <use x="549.804688" xlink:href="#Consolas-with-Yahei-95"/>
     <use x="604.785156" xlink:href="#Consolas-with-Yahei-115"/>
     <use x="659.765625" xlink:href="#Consolas-with-Yahei-116"/>
     <use x="714.746094" xlink:href="#Consolas-with-Yahei-121"/>
     <use x="769.726562" xlink:href="#Consolas-with-Yahei-108"/>
     <use x="824.707031" xlink:href="#Consolas-with-Yahei-101"/>
     <use x="879.6875" xlink:href="#Consolas-with-Yahei-61"/>
     <use x="934.667969" xlink:href="#Consolas-with-Yahei-98"/>
     <use x="989.648438" xlink:href="#Consolas-with-Yahei-114"/>
     <use x="1044.628906" xlink:href="#Consolas-with-Yahei-51"/>
     <use x="1099.609375" xlink:href="#Consolas-with-Yahei-53"/>
     <use x="1154.589844" xlink:href="#Consolas-with-Yahei-55"/>
     <use x="1209.570312" xlink:href="#Consolas-with-Yahei-116"/>
     <use x="1264.550781" xlink:href="#Consolas-with-Yahei-41"/>
    </g>
   </g>
  </g>
 </g>
 <defs>
  <clipPath id="pb827c25fd3">
   <rect height="748.245949" width="1188" x="7.2" y="7.2"/>
  </clipPath>
 </defs>
</svg>
