<?xml version="1.0" encoding="utf-8" standalone="no"?>
<!DOCTYPE svg PUBLIC "-//W3C//DTD SVG 1.1//EN"
  "http://www.w3.org/Graphics/SVG/1.1/DTD/svg11.dtd">
<!-- Created with matplotlib (https://matplotlib.org/) -->
<svg height="446.4pt" version="1.1" viewBox="0 0 2581.854545 446.4" width="2581.854545pt" xmlns="http://www.w3.org/2000/svg" xmlns:xlink="http://www.w3.org/1999/xlink">
 <defs>
  <style type="text/css">
*{stroke-linecap:butt;stroke-linejoin:round;}
  </style>
 </defs>
 <g id="figure_1">
  <g id="patch_1">
   <path d="M 0 446.4 
L 2581.854545 446.4 
L 2581.854545 0 
L 0 0 
z
" style="fill:#ffffff;"/>
  </g>
  <g id="axes_1">
   <g id="patch_2">
    <path clip-path="url(#p673e462843)" d="M 905.526106 225.432 
L 1001.605531 225.432 
L 1001.605531 86.832 
L 905.526106 86.832 
z
" style="fill:#cccccc;stroke:#cccccc;stroke-linejoin:miter;"/>
   </g>
   <g id="patch_3">
    <path clip-path="url(#p673e462843)" d="M 1268.57637 225.432 
L 1354.173406 225.432 
L 1354.173406 86.832 
L 1268.57637 86.832 
z
" style="fill:#cccccc;stroke:#cccccc;stroke-linejoin:miter;"/>
   </g>
   <g id="patch_4">
    <path clip-path="url(#p673e462843)" d="M 1592.017385 225.432 
L 1668.275675 225.432 
L 1668.275675 86.832 
L 1592.017385 86.832 
z
" style="fill:#cccccc;stroke:#cccccc;stroke-linejoin:miter;"/>
   </g>
   <g id="patch_5">
    <path clip-path="url(#p673e462843)" d="M 1880.17057 225.432 
L 1948.108983 225.432 
L 1948.108983 86.832 
L 1880.17057 86.832 
z
" style="fill:#cccccc;stroke:#cccccc;stroke-linejoin:miter;"/>
   </g>
   <g id="patch_6">
    <path clip-path="url(#p673e462843)" d="M 2254.541287 364.032 
L 2311.670455 364.032 
L 2311.670455 86.832 
L 2254.541287 86.832 
z
" style="fill:#cccccc;stroke:#cccccc;stroke-linejoin:miter;"/>
   </g>
   <g id="patch_7">
    <path clip-path="url(#p673e462843)" d="M 2569.34828 225.432 
L 2617.387993 225.432 
L 2617.387993 86.832 
L 2569.34828 86.832 
z
" style="fill:#cccccc;stroke:#cccccc;stroke-linejoin:miter;"/>
   </g>
   <g id="patch_8">
    <path clip-path="url(#p673e462843)" d="M 2750.873412 225.432 
L 2793.67193 225.432 
L 2793.67193 86.832 
L 2750.873412 86.832 
z
" style="fill:#cccccc;stroke:#cccccc;stroke-linejoin:miter;"/>
   </g>
   <g id="patch_9">
    <path clip-path="url(#p673e462843)" d="M 2912.59392 225.432 
L 2950.723065 225.432 
L 2950.723065 86.832 
L 2912.59392 86.832 
z
" style="fill:#cccccc;stroke:#cccccc;stroke-linejoin:miter;"/>
   </g>
   <g id="patch_10">
    <path clip-path="url(#p673e462843)" d="M 3056.670512 225.432 
L 3090.639719 225.432 
L 3090.639719 86.832 
L 3056.670512 86.832 
z
" style="fill:#cccccc;stroke:#cccccc;stroke-linejoin:miter;"/>
   </g>
   <g id="line2d_1">
    <path clip-path="url(#p673e462843)" d="M 334.730455 364.032 
L 334.730455 86.832 
" style="fill:none;stroke:#000000;stroke-linecap:square;stroke-width:3;"/>
   </g>
   <g id="line2d_2">
    <path clip-path="url(#p673e462843)" d="M 390.170455 364.032 
L 390.170455 86.832 
" style="fill:none;stroke:#000000;stroke-linecap:square;stroke-width:3;"/>
   </g>
   <g id="line2d_3">
    <path clip-path="url(#p673e462843)" d="M 605.861471 364.032 
L 605.861471 86.832 
" style="fill:none;stroke:#000000;stroke-linecap:square;stroke-width:3;"/>
   </g>
   <g id="line2d_4">
    <path clip-path="url(#p673e462843)" d="M 809.446681 364.032 
L 809.446681 86.832 
" style="fill:none;stroke:#000000;stroke-linecap:square;stroke-width:3;"/>
   </g>
   <g id="line2d_5">
    <path clip-path="url(#p673e462843)" d="M 1001.605531 364.032 
L 1001.605531 86.832 
" style="fill:none;stroke:#000000;stroke-linecap:square;stroke-width:3;"/>
   </g>
   <g id="line2d_6">
    <path clip-path="url(#p673e462843)" d="M 1182.979333 364.032 
L 1182.979333 86.832 
" style="fill:none;stroke:#000000;stroke-linecap:square;stroke-width:3;"/>
   </g>
   <g id="line2d_7">
    <path clip-path="url(#p673e462843)" d="M 1354.173406 364.032 
L 1354.173406 86.832 
" style="fill:none;stroke:#000000;stroke-linecap:square;stroke-width:3;"/>
   </g>
   <g id="line2d_8">
    <path clip-path="url(#p673e462843)" d="M 1515.759094 364.032 
L 1515.759094 86.832 
" style="fill:none;stroke:#000000;stroke-linecap:square;stroke-width:3;"/>
   </g>
   <g id="line2d_9">
    <path clip-path="url(#p673e462843)" d="M 1668.275675 364.032 
L 1668.275675 86.832 
" style="fill:none;stroke:#000000;stroke-linecap:square;stroke-width:3;"/>
   </g>
   <g id="line2d_10">
    <path clip-path="url(#p673e462843)" d="M 1812.232157 364.032 
L 1812.232157 86.832 
" style="fill:none;stroke:#000000;stroke-linecap:square;stroke-width:3;"/>
   </g>
   <g id="line2d_11">
    <path clip-path="url(#p673e462843)" d="M 1948.108983 364.032 
L 1948.108983 86.832 
" style="fill:none;stroke:#000000;stroke-linecap:square;stroke-width:3;"/>
   </g>
   <g id="line2d_12">
    <path clip-path="url(#p673e462843)" d="M 2076.359629 364.032 
L 2076.359629 86.832 
" style="fill:none;stroke:#000000;stroke-linecap:square;stroke-width:3;"/>
   </g>
   <g id="line2d_13">
    <path clip-path="url(#p673e462843)" d="M 2197.412119 364.032 
L 2197.412119 86.832 
" style="fill:none;stroke:#000000;stroke-linecap:square;stroke-width:3;"/>
   </g>
   <g id="line2d_14">
    <path clip-path="url(#p673e462843)" d="M 2311.670455 364.032 
L 2311.670455 86.832 
" style="fill:none;stroke:#000000;stroke-linecap:square;stroke-width:3;"/>
   </g>
   <g id="line2d_15">
    <path clip-path="url(#p673e462843)" d="M 334.730455 364.032 
L 2582.854545 364.032 
" style="fill:none;stroke:#808080;stroke-linecap:square;stroke-width:3;"/>
   </g>
   <g id="line2d_16">
    <path clip-path="url(#p673e462843)" d="M 334.730455 308.592 
L 2582.854545 308.592 
" style="fill:none;stroke:#808080;stroke-linecap:square;stroke-width:3;"/>
   </g>
   <g id="line2d_17">
    <path clip-path="url(#p673e462843)" d="M 334.730455 253.152 
L 2582.854545 253.152 
" style="fill:none;stroke:#808080;stroke-linecap:square;stroke-width:3;"/>
   </g>
   <g id="line2d_18">
    <path clip-path="url(#p673e462843)" d="M 334.730455 197.712 
L 2582.854545 197.712 
" style="fill:none;stroke:#808080;stroke-linecap:square;stroke-width:3;"/>
   </g>
   <g id="line2d_19">
    <path clip-path="url(#p673e462843)" d="M 334.730455 142.272 
L 2582.854545 142.272 
" style="fill:none;stroke:#808080;stroke-linecap:square;stroke-width:3;"/>
   </g>
   <g id="line2d_20">
    <path clip-path="url(#p673e462843)" d="M 334.730455 86.832 
L 2582.854545 86.832 
" style="fill:none;stroke:#808080;stroke-linecap:square;stroke-width:3;"/>
   </g>
   <g id="line2d_21">
    <path clip-path="url(#p673e462843)" d="M 334.730455 364.032 
L 334.730455 86.832 
" style="fill:none;stroke:#000000;stroke-linecap:square;stroke-width:10;"/>
   </g>
   <g id="line2d_22">
    <path clip-path="url(#p673e462843)" style="fill:none;stroke:#000000;stroke-linecap:square;stroke-width:5;"/>
   </g>
   <g id="patch_11">
    <path clip-path="url(#p673e462843)" d="M 351.362455 386.208 
C 357.243598 386.208 362.884658 383.871397 367.043255 379.7128 
C 371.201851 375.554203 373.538455 369.913144 373.538455 364.032 
C 373.538455 358.150856 371.201851 352.509797 367.043255 348.3512 
C 362.884658 344.192603 357.243598 341.856 351.362455 341.856 
C 345.481311 341.856 339.840251 344.192603 335.681655 348.3512 
C 331.523058 352.509797 329.186455 358.150856 329.186455 364.032 
C 329.186455 369.913144 331.523058 375.554203 335.681655 379.7128 
C 339.840251 383.871397 345.481311 386.208 351.362455 386.208 
z
" style="fill:#cc2929;stroke:#cc2929;stroke-linejoin:miter;"/>
   </g>
   <g id="patch_12">
    <path clip-path="url(#p673e462843)" d="M 351.362455 219.888 
C 357.243598 219.888 362.884658 217.551397 367.043255 213.3928 
C 371.201851 209.234203 373.538455 203.593144 373.538455 197.712 
C 373.538455 191.830856 371.201851 186.189797 367.043255 182.0312 
C 362.884658 177.872603 357.243598 175.536 351.362455 175.536 
C 345.481311 175.536 339.840251 177.872603 335.681655 182.0312 
C 331.523058 186.189797 329.186455 191.830856 329.186455 197.712 
C 329.186455 203.593144 331.523058 209.234203 335.681655 213.3928 
C 339.840251 217.551397 345.481311 219.888 351.362455 219.888 
z
" style="fill:#cc2929;stroke:#cc2929;stroke-linejoin:miter;"/>
   </g>
   <g id="patch_13">
    <path clip-path="url(#p673e462843)" d="M 351.362455 109.008 
C 357.243598 109.008 362.884658 106.671397 367.043255 102.5128 
C 371.201851 98.354203 373.538455 92.713144 373.538455 86.832 
C 373.538455 80.950856 371.201851 75.309797 367.043255 71.1512 
C 362.884658 66.992603 357.243598 64.656 351.362455 64.656 
C 345.481311 64.656 339.840251 66.992603 335.681655 71.1512 
C 331.523058 75.309797 329.186455 80.950856 329.186455 86.832 
C 329.186455 92.713144 331.523058 98.354203 335.681655 102.5128 
C 339.840251 106.671397 345.481311 109.008 351.362455 109.008 
z
" style="fill:#cc2929;stroke:#cc2929;stroke-linejoin:miter;"/>
   </g>
   <g id="patch_14">
    <path clip-path="url(#p673e462843)" d="M 486.927963 164.448 
C 492.809107 164.448 498.450166 162.111397 502.608763 157.9528 
C 506.767359 153.794203 509.103963 148.153144 509.103963 142.272 
C 509.103963 136.390856 506.767359 130.749797 502.608763 126.5912 
C 498.450166 122.432603 492.809107 120.096 486.927963 120.096 
C 481.046819 120.096 475.40576 122.432603 471.247163 126.5912 
C 467.088566 130.749797 464.751963 136.390856 464.751963 142.272 
C 464.751963 148.153144 467.088566 153.794203 471.247163 157.9528 
C 475.40576 162.111397 481.046819 164.448 486.927963 164.448 
z
" style="fill:#cc2929;stroke:#cc2929;stroke-linejoin:miter;"/>
   </g>
   <g id="patch_15">
    <path clip-path="url(#p673e462843)" d="M 696.566076 275.328 
C 702.44722 275.328 708.088279 272.991397 712.246876 268.8328 
C 716.405473 264.674203 718.742076 259.033144 718.742076 253.152 
C 718.742076 247.270856 716.405473 241.629797 712.246876 237.4712 
C 708.088279 233.312603 702.44722 230.976 696.566076 230.976 
C 690.684932 230.976 685.043873 233.312603 680.885276 237.4712 
C 676.726679 241.629797 674.390076 247.270856 674.390076 253.152 
C 674.390076 259.033144 676.726679 264.674203 680.885276 268.8328 
C 685.043873 272.991397 690.684932 275.328 696.566076 275.328 
z
" style="fill:#cc2929;stroke:#cc2929;stroke-linejoin:miter;"/>
   </g>
   <g id="patch_16">
    <path clip-path="url(#p673e462843)" d="M 894.438106 386.208 
C 900.31925 386.208 905.960309 383.871397 910.118906 379.7128 
C 914.277502 375.554203 916.614106 369.913144 916.614106 364.032 
C 916.614106 358.150856 914.277502 352.509797 910.118906 348.3512 
C 905.960309 344.192603 900.31925 341.856 894.438106 341.856 
C 888.556962 341.856 882.915903 344.192603 878.757306 348.3512 
C 874.598709 352.509797 872.262106 358.150856 872.262106 364.032 
C 872.262106 369.913144 874.598709 375.554203 878.757306 379.7128 
C 882.915903 383.871397 888.556962 386.208 894.438106 386.208 
z
" style="fill:#cc2929;stroke:#cc2929;stroke-linejoin:miter;"/>
   </g>
   <g id="patch_17">
    <path clip-path="url(#p673e462843)" d="M 894.438106 330.768 
C 900.31925 330.768 905.960309 328.431397 910.118906 324.2728 
C 914.277502 320.114203 916.614106 314.473144 916.614106 308.592 
C 916.614106 302.710856 914.277502 297.069797 910.118906 292.9112 
C 905.960309 288.752603 900.31925 286.416 894.438106 286.416 
C 888.556962 286.416 882.915903 288.752603 878.757306 292.9112 
C 874.598709 297.069797 872.262106 302.710856 872.262106 308.592 
C 872.262106 314.473144 874.598709 320.114203 878.757306 324.2728 
C 882.915903 328.431397 888.556962 330.768 894.438106 330.768 
z
" style="fill:#cc2929;stroke:#cc2929;stroke-linejoin:miter;"/>
   </g>
   <g id="patch_18">
    <path clip-path="url(#p673e462843)" d="M 894.438106 109.008 
C 900.31925 109.008 905.960309 106.671397 910.118906 102.5128 
C 914.277502 98.354203 916.614106 92.713144 916.614106 86.832 
C 916.614106 80.950856 914.277502 75.309797 910.118906 71.1512 
C 905.960309 66.992603 900.31925 64.656 894.438106 64.656 
C 888.556962 64.656 882.915903 66.992603 878.757306 71.1512 
C 874.598709 75.309797 872.262106 80.950856 872.262106 86.832 
C 872.262106 92.713144 874.598709 98.354203 878.757306 102.5128 
C 882.915903 106.671397 888.556962 109.008 894.438106 109.008 
z
" style="fill:#cc2929;stroke:#cc2929;stroke-linejoin:miter;"/>
   </g>
   <g id="patch_19">
    <path clip-path="url(#p673e462843)" d="M 1257.48837 275.328 
C 1263.369514 275.328 1269.010573 272.991397 1273.16917 268.8328 
C 1277.327767 264.674203 1279.66437 259.033144 1279.66437 253.152 
C 1279.66437 247.270856 1277.327767 241.629797 1273.16917 237.4712 
C 1269.010573 233.312603 1263.369514 230.976 1257.48837 230.976 
C 1251.607226 230.976 1245.966167 233.312603 1241.80757 237.4712 
C 1237.648973 241.629797 1235.31237 247.270856 1235.31237 253.152 
C 1235.31237 259.033144 1237.648973 264.674203 1241.80757 268.8328 
C 1245.966167 272.991397 1251.607226 275.328 1257.48837 275.328 
z
" style="fill:#cc2929;stroke:#cc2929;stroke-linejoin:miter;"/>
   </g>
   <g id="patch_20">
    <path clip-path="url(#p673e462843)" d="M 1257.48837 219.888 
C 1263.369514 219.888 1269.010573 217.551397 1273.16917 213.3928 
C 1277.327767 209.234203 1279.66437 203.593144 1279.66437 197.712 
C 1279.66437 191.830856 1277.327767 186.189797 1273.16917 182.0312 
C 1269.010573 177.872603 1263.369514 175.536 1257.48837 175.536 
C 1251.607226 175.536 1245.966167 177.872603 1241.80757 182.0312 
C 1237.648973 186.189797 1235.31237 191.830856 1235.31237 197.712 
C 1235.31237 203.593144 1237.648973 209.234203 1241.80757 213.3928 
C 1245.966167 217.551397 1251.607226 219.888 1257.48837 219.888 
z
" style="fill:#cc2929;stroke:#cc2929;stroke-linejoin:miter;"/>
   </g>
   <g id="patch_21">
    <path clip-path="url(#p673e462843)" d="M 1257.48837 164.448 
C 1263.369514 164.448 1269.010573 162.111397 1273.16917 157.9528 
C 1277.327767 153.794203 1279.66437 148.153144 1279.66437 142.272 
C 1279.66437 136.390856 1277.327767 130.749797 1273.16917 126.5912 
C 1269.010573 122.432603 1263.369514 120.096 1257.48837 120.096 
C 1251.607226 120.096 1245.966167 122.432603 1241.80757 126.5912 
C 1237.648973 130.749797 1235.31237 136.390856 1235.31237 142.272 
C 1235.31237 148.153144 1237.648973 153.794203 1241.80757 157.9528 
C 1245.966167 162.111397 1251.607226 164.448 1257.48837 164.448 
z
" style="fill:#cc2929;stroke:#cc2929;stroke-linejoin:miter;"/>
   </g>
   <g id="patch_22">
    <path clip-path="url(#p673e462843)" d="M 1580.929385 330.768 
C 1586.810529 330.768 1592.451588 328.431397 1596.610185 324.2728 
C 1600.768781 320.114203 1603.105385 314.473144 1603.105385 308.592 
C 1603.105385 302.710856 1600.768781 297.069797 1596.610185 292.9112 
C 1592.451588 288.752603 1586.810529 286.416 1580.929385 286.416 
C 1575.048241 286.416 1569.407181 288.752603 1565.248585 292.9112 
C 1561.089988 297.069797 1558.753385 302.710856 1558.753385 308.592 
C 1558.753385 314.473144 1561.089988 320.114203 1565.248585 324.2728 
C 1569.407181 328.431397 1575.048241 330.768 1580.929385 330.768 
z
" style="fill:#cc2929;stroke:#cc2929;stroke-linejoin:miter;"/>
   </g>
   <g id="patch_23">
    <path clip-path="url(#p673e462843)" d="M 1729.165916 386.208 
C 1735.04706 386.208 1740.688119 383.871397 1744.846716 379.7128 
C 1749.005313 375.554203 1751.341916 369.913144 1751.341916 364.032 
C 1751.341916 358.150856 1749.005313 352.509797 1744.846716 348.3512 
C 1740.688119 344.192603 1735.04706 341.856 1729.165916 341.856 
C 1723.284772 341.856 1717.643713 344.192603 1713.485116 348.3512 
C 1709.326519 352.509797 1706.989916 358.150856 1706.989916 364.032 
C 1706.989916 369.913144 1709.326519 375.554203 1713.485116 379.7128 
C 1717.643713 383.871397 1723.284772 386.208 1729.165916 386.208 
z
" style="fill:#cc2929;stroke:#cc2929;stroke-linejoin:miter;"/>
   </g>
   <g id="patch_24">
    <path clip-path="url(#p673e462843)" d="M 1729.165916 164.448 
C 1735.04706 164.448 1740.688119 162.111397 1744.846716 157.9528 
C 1749.005313 153.794203 1751.341916 148.153144 1751.341916 142.272 
C 1751.341916 136.390856 1749.005313 130.749797 1744.846716 126.5912 
C 1740.688119 122.432603 1735.04706 120.096 1729.165916 120.096 
C 1723.284772 120.096 1717.643713 122.432603 1713.485116 126.5912 
C 1709.326519 130.749797 1706.989916 136.390856 1706.989916 142.272 
C 1706.989916 148.153144 1709.326519 153.794203 1713.485116 157.9528 
C 1717.643713 162.111397 1723.284772 164.448 1729.165916 164.448 
z
" style="fill:#cc2929;stroke:#cc2929;stroke-linejoin:miter;"/>
   </g>
   <g id="patch_25">
    <path clip-path="url(#p673e462843)" d="M 1729.165916 109.008 
C 1735.04706 109.008 1740.688119 106.671397 1744.846716 102.5128 
C 1749.005313 98.354203 1751.341916 92.713144 1751.341916 86.832 
C 1751.341916 80.950856 1749.005313 75.309797 1744.846716 71.1512 
C 1740.688119 66.992603 1735.04706 64.656 1729.165916 64.656 
C 1723.284772 64.656 1717.643713 66.992603 1713.485116 71.1512 
C 1709.326519 75.309797 1706.989916 80.950856 1706.989916 86.832 
C 1706.989916 92.713144 1709.326519 98.354203 1713.485116 102.5128 
C 1717.643713 106.671397 1723.284772 109.008 1729.165916 109.008 
z
" style="fill:#cc2929;stroke:#cc2929;stroke-linejoin:miter;"/>
   </g>
   <g id="patch_26">
    <path clip-path="url(#p673e462843)" d="M 1869.08257 219.888 
C 1874.963714 219.888 1880.604773 217.551397 1884.76337 213.3928 
C 1888.921967 209.234203 1891.25857 203.593144 1891.25857 197.712 
C 1891.25857 191.830856 1888.921967 186.189797 1884.76337 182.0312 
C 1880.604773 177.872603 1874.963714 175.536 1869.08257 175.536 
C 1863.201426 175.536 1857.560367 177.872603 1853.40177 182.0312 
C 1849.243173 186.189797 1846.90657 191.830856 1846.90657 197.712 
C 1846.90657 203.593144 1849.243173 209.234203 1853.40177 213.3928 
C 1857.560367 217.551397 1863.201426 219.888 1869.08257 219.888 
z
" style="fill:#cc2929;stroke:#cc2929;stroke-linejoin:miter;"/>
   </g>
   <g id="patch_27">
    <path clip-path="url(#p673e462843)" d="M 2001.146306 330.768 
C 2007.02745 330.768 2012.668509 328.431397 2016.827106 324.2728 
C 2020.985703 320.114203 2023.322306 314.473144 2023.322306 308.592 
C 2023.322306 302.710856 2020.985703 297.069797 2016.827106 292.9112 
C 2012.668509 288.752603 2007.02745 286.416 2001.146306 286.416 
C 1995.265162 286.416 1989.624103 288.752603 1985.465506 292.9112 
C 1981.306909 297.069797 1978.970306 302.710856 1978.970306 308.592 
C 1978.970306 314.473144 1981.306909 320.114203 1985.465506 324.2728 
C 1989.624103 328.431397 1995.265162 330.768 2001.146306 330.768 
z
" style="fill:#cc2929;stroke:#cc2929;stroke-linejoin:miter;"/>
   </g>
   <g id="patch_28">
    <path clip-path="url(#p673e462843)" d="M 2001.146306 275.328 
C 2007.02745 275.328 2012.668509 272.991397 2016.827106 268.8328 
C 2020.985703 264.674203 2023.322306 259.033144 2023.322306 253.152 
C 2023.322306 247.270856 2020.985703 241.629797 2016.827106 237.4712 
C 2012.668509 233.312603 2007.02745 230.976 2001.146306 230.976 
C 1995.265162 230.976 1989.624103 233.312603 1985.465506 237.4712 
C 1981.306909 241.629797 1978.970306 247.270856 1978.970306 253.152 
C 1978.970306 259.033144 1981.306909 264.674203 1985.465506 268.8328 
C 1989.624103 272.991397 1995.265162 275.328 2001.146306 275.328 
z
" style="fill:#cc2929;stroke:#cc2929;stroke-linejoin:miter;"/>
   </g>
   <g id="patch_29">
    <path clip-path="url(#p673e462843)" d="M 2243.453287 386.208 
C 2249.334431 386.208 2254.97549 383.871397 2259.134087 379.7128 
C 2263.292683 375.554203 2265.629287 369.913144 2265.629287 364.032 
C 2265.629287 358.150856 2263.292683 352.509797 2259.134087 348.3512 
C 2254.97549 344.192603 2249.334431 341.856 2243.453287 341.856 
C 2237.572143 341.856 2231.931083 344.192603 2227.772487 348.3512 
C 2223.61389 352.509797 2221.277287 358.150856 2221.277287 364.032 
C 2221.277287 369.913144 2223.61389 375.554203 2227.772487 379.7128 
C 2231.931083 383.871397 2237.572143 386.208 2243.453287 386.208 
z
" style="fill:#cc2929;stroke:#cc2929;stroke-linejoin:miter;"/>
   </g>
   <g id="patch_30">
    <path clip-path="url(#p673e462843)" d="M 2243.453287 219.888 
C 2249.334431 219.888 2254.97549 217.551397 2259.134087 213.3928 
C 2263.292683 209.234203 2265.629287 203.593144 2265.629287 197.712 
C 2265.629287 191.830856 2263.292683 186.189797 2259.134087 182.0312 
C 2254.97549 177.872603 2249.334431 175.536 2243.453287 175.536 
C 2237.572143 175.536 2231.931083 177.872603 2227.772487 182.0312 
C 2223.61389 186.189797 2221.277287 191.830856 2221.277287 197.712 
C 2221.277287 203.593144 2223.61389 209.234203 2227.772487 213.3928 
C 2231.931083 217.551397 2237.572143 219.888 2243.453287 219.888 
z
" style="fill:#cc2929;stroke:#cc2929;stroke-linejoin:miter;"/>
   </g>
   <g id="patch_31">
    <path clip-path="url(#p673e462843)" d="M 2243.453287 109.008 
C 2249.334431 109.008 2254.97549 106.671397 2259.134087 102.5128 
C 2263.292683 98.354203 2265.629287 92.713144 2265.629287 86.832 
C 2265.629287 80.950856 2263.292683 75.309797 2259.134087 71.1512 
C 2254.97549 66.992603 2249.334431 64.656 2243.453287 64.656 
C 2237.572143 64.656 2231.931083 66.992603 2227.772487 71.1512 
C 2223.61389 75.309797 2221.277287 80.950856 2221.277287 86.832 
C 2221.277287 92.713144 2223.61389 98.354203 2227.772487 102.5128 
C 2231.931083 106.671397 2237.572143 109.008 2243.453287 109.008 
z
" style="fill:#cc2929;stroke:#cc2929;stroke-linejoin:miter;"/>
   </g>
   <g id="text_1">
    <!-- E1 -->
    <defs>
     <path d="M 9.8125 72.90625 
L 55.90625 72.90625 
L 55.90625 64.59375 
L 19.671875 64.59375 
L 19.671875 43.015625 
L 54.390625 43.015625 
L 54.390625 34.71875 
L 19.671875 34.71875 
L 19.671875 8.296875 
L 56.78125 8.296875 
L 56.78125 0 
L 9.8125 0 
z
" id="DejaVuSans-69"/>
     <path d="M 12.40625 8.296875 
L 28.515625 8.296875 
L 28.515625 63.921875 
L 10.984375 60.40625 
L 10.984375 69.390625 
L 28.421875 72.90625 
L 38.28125 72.90625 
L 38.28125 8.296875 
L 54.390625 8.296875 
L 54.390625 0 
L 12.40625 0 
z
" id="DejaVuSans-49"/>
    </defs>
    <g style="fill:#ffffff;" transform="translate(341.217455 368.447)scale(0.16 -0.16)">
     <use xlink:href="#DejaVuSans-69"/>
     <use x="63.183594" xlink:href="#DejaVuSans-49"/>
    </g>
   </g>
   <g id="text_2">
    <!-- G2 -->
    <defs>
     <path d="M 59.515625 10.40625 
L 59.515625 29.984375 
L 43.40625 29.984375 
L 43.40625 38.09375 
L 69.28125 38.09375 
L 69.28125 6.78125 
Q 63.578125 2.734375 56.6875 0.65625 
Q 49.8125 -1.421875 42 -1.421875 
Q 24.90625 -1.421875 15.25 8.5625 
Q 5.609375 18.5625 5.609375 36.375 
Q 5.609375 54.25 15.25 64.234375 
Q 24.90625 74.21875 42 74.21875 
Q 49.125 74.21875 55.546875 72.453125 
Q 61.96875 70.703125 67.390625 67.28125 
L 67.390625 56.78125 
Q 61.921875 61.421875 55.765625 63.765625 
Q 49.609375 66.109375 42.828125 66.109375 
Q 29.4375 66.109375 22.71875 58.640625 
Q 16.015625 51.171875 16.015625 36.375 
Q 16.015625 21.625 22.71875 14.15625 
Q 29.4375 6.6875 42.828125 6.6875 
Q 48.046875 6.6875 52.140625 7.59375 
Q 56.25 8.5 59.515625 10.40625 
z
" id="DejaVuSans-71"/>
     <path d="M 19.1875 8.296875 
L 53.609375 8.296875 
L 53.609375 0 
L 7.328125 0 
L 7.328125 8.296875 
Q 12.9375 14.109375 22.625 23.890625 
Q 32.328125 33.6875 34.8125 36.53125 
Q 39.546875 41.84375 41.421875 45.53125 
Q 43.3125 49.21875 43.3125 52.78125 
Q 43.3125 58.59375 39.234375 62.25 
Q 35.15625 65.921875 28.609375 65.921875 
Q 23.96875 65.921875 18.8125 64.3125 
Q 13.671875 62.703125 7.8125 59.421875 
L 7.8125 69.390625 
Q 13.765625 71.78125 18.9375 73 
Q 24.125 74.21875 28.421875 74.21875 
Q 39.75 74.21875 46.484375 68.546875 
Q 53.21875 62.890625 53.21875 53.421875 
Q 53.21875 48.921875 51.53125 44.890625 
Q 49.859375 40.875 45.40625 35.40625 
Q 44.1875 33.984375 37.640625 27.21875 
Q 31.109375 20.453125 19.1875 8.296875 
z
" id="DejaVuSans-50"/>
    </defs>
    <g style="fill:#ffffff;" transform="translate(340.073705 202.127)scale(0.16 -0.16)">
     <use xlink:href="#DejaVuSans-71"/>
     <use x="77.490234" xlink:href="#DejaVuSans-50"/>
    </g>
   </g>
   <g id="text_3">
    <!-- E3 -->
    <defs>
     <path d="M 40.578125 39.3125 
Q 47.65625 37.796875 51.625 33 
Q 55.609375 28.21875 55.609375 21.1875 
Q 55.609375 10.40625 48.1875 4.484375 
Q 40.765625 -1.421875 27.09375 -1.421875 
Q 22.515625 -1.421875 17.65625 -0.515625 
Q 12.796875 0.390625 7.625 2.203125 
L 7.625 11.71875 
Q 11.71875 9.328125 16.59375 8.109375 
Q 21.484375 6.890625 26.8125 6.890625 
Q 36.078125 6.890625 40.9375 10.546875 
Q 45.796875 14.203125 45.796875 21.1875 
Q 45.796875 27.640625 41.28125 31.265625 
Q 36.765625 34.90625 28.71875 34.90625 
L 20.21875 34.90625 
L 20.21875 43.015625 
L 29.109375 43.015625 
Q 36.375 43.015625 40.234375 45.921875 
Q 44.09375 48.828125 44.09375 54.296875 
Q 44.09375 59.90625 40.109375 62.90625 
Q 36.140625 65.921875 28.71875 65.921875 
Q 24.65625 65.921875 20.015625 65.03125 
Q 15.375 64.15625 9.8125 62.3125 
L 9.8125 71.09375 
Q 15.4375 72.65625 20.34375 73.4375 
Q 25.25 74.21875 29.59375 74.21875 
Q 40.828125 74.21875 47.359375 69.109375 
Q 53.90625 64.015625 53.90625 55.328125 
Q 53.90625 49.265625 50.4375 45.09375 
Q 46.96875 40.921875 40.578125 39.3125 
z
" id="DejaVuSans-51"/>
    </defs>
    <g style="fill:#ffffff;" transform="translate(341.217455 91.247)scale(0.16 -0.16)">
     <use xlink:href="#DejaVuSans-69"/>
     <use x="63.183594" xlink:href="#DejaVuSans-51"/>
    </g>
   </g>
   <g id="text_4">
    <!-- C3 -->
    <defs>
     <path d="M 64.40625 67.28125 
L 64.40625 56.890625 
Q 59.421875 61.53125 53.78125 63.8125 
Q 48.140625 66.109375 41.796875 66.109375 
Q 29.296875 66.109375 22.65625 58.46875 
Q 16.015625 50.828125 16.015625 36.375 
Q 16.015625 21.96875 22.65625 14.328125 
Q 29.296875 6.6875 41.796875 6.6875 
Q 48.140625 6.6875 53.78125 8.984375 
Q 59.421875 11.28125 64.40625 15.921875 
L 64.40625 5.609375 
Q 59.234375 2.09375 53.4375 0.328125 
Q 47.65625 -1.421875 41.21875 -1.421875 
Q 24.65625 -1.421875 15.125 8.703125 
Q 5.609375 18.84375 5.609375 36.375 
Q 5.609375 53.953125 15.125 64.078125 
Q 24.65625 74.21875 41.21875 74.21875 
Q 47.75 74.21875 53.53125 72.484375 
Q 59.328125 70.75 64.40625 67.28125 
z
" id="DejaVuSans-67"/>
    </defs>
    <g style="fill:#ffffff;" transform="translate(476.251713 146.687)scale(0.16 -0.16)">
     <use xlink:href="#DejaVuSans-67"/>
     <use x="69.824219" xlink:href="#DejaVuSans-51"/>
    </g>
   </g>
   <g id="text_5">
    <!-- E2 -->
    <g style="fill:#ffffff;" transform="translate(686.421076 257.567)scale(0.16 -0.16)">
     <use xlink:href="#DejaVuSans-69"/>
     <use x="63.183594" xlink:href="#DejaVuSans-50"/>
    </g>
   </g>
   <g id="text_6">
    <!-- G1 -->
    <g style="fill:#ffffff;" transform="translate(883.149356 368.447)scale(0.16 -0.16)">
     <use xlink:href="#DejaVuSans-71"/>
     <use x="77.490234" xlink:href="#DejaVuSans-49"/>
    </g>
   </g>
   <g id="text_7">
    <!-- C2 -->
    <g style="fill:#ffffff;" transform="translate(883.761856 313.007)scale(0.16 -0.16)">
     <use xlink:href="#DejaVuSans-67"/>
     <use x="69.824219" xlink:href="#DejaVuSans-50"/>
    </g>
   </g>
   <g id="text_8">
    <!-- G3 -->
    <g style="fill:#ffffff;" transform="translate(883.149356 91.247)scale(0.16 -0.16)">
     <use xlink:href="#DejaVuSans-71"/>
     <use x="77.490234" xlink:href="#DejaVuSans-51"/>
    </g>
   </g>
   <g id="text_9">
    <!-- G2 -->
    <g style="fill:#ffffff;" transform="translate(1246.19962 257.567)scale(0.16 -0.16)">
     <use xlink:href="#DejaVuSans-71"/>
     <use x="77.490234" xlink:href="#DejaVuSans-50"/>
    </g>
   </g>
   <g id="text_10">
    <!-- C3 -->
    <g style="fill:#ffffff;" transform="translate(1246.81212 202.127)scale(0.16 -0.16)">
     <use xlink:href="#DejaVuSans-67"/>
     <use x="69.824219" xlink:href="#DejaVuSans-51"/>
    </g>
   </g>
   <g id="text_11">
    <!-- E3 -->
    <g style="fill:#ffffff;" transform="translate(1247.34337 146.687)scale(0.16 -0.16)">
     <use xlink:href="#DejaVuSans-69"/>
     <use x="63.183594" xlink:href="#DejaVuSans-51"/>
    </g>
   </g>
   <g id="text_12">
    <!-- E2 -->
    <g style="fill:#ffffff;" transform="translate(1570.784385 313.007)scale(0.16 -0.16)">
     <use xlink:href="#DejaVuSans-69"/>
     <use x="63.183594" xlink:href="#DejaVuSans-50"/>
    </g>
   </g>
   <g id="text_13">
    <!-- C2 -->
    <g style="fill:#ffffff;" transform="translate(1718.489666 368.447)scale(0.16 -0.16)">
     <use xlink:href="#DejaVuSans-67"/>
     <use x="69.824219" xlink:href="#DejaVuSans-50"/>
    </g>
   </g>
   <g id="text_14">
    <!-- G3 -->
    <g style="fill:#ffffff;" transform="translate(1717.877166 146.687)scale(0.16 -0.16)">
     <use xlink:href="#DejaVuSans-71"/>
     <use x="77.490234" xlink:href="#DejaVuSans-51"/>
    </g>
   </g>
   <g id="text_15">
    <!-- C4 -->
    <defs>
     <path d="M 37.796875 64.3125 
L 12.890625 25.390625 
L 37.796875 25.390625 
z
M 35.203125 72.90625 
L 47.609375 72.90625 
L 47.609375 25.390625 
L 58.015625 25.390625 
L 58.015625 17.1875 
L 47.609375 17.1875 
L 47.609375 0 
L 37.796875 0 
L 37.796875 17.1875 
L 4.890625 17.1875 
L 4.890625 26.703125 
z
" id="DejaVuSans-52"/>
    </defs>
    <g style="fill:#ffffff;" transform="translate(1718.489666 91.247)scale(0.16 -0.16)">
     <use xlink:href="#DejaVuSans-67"/>
     <use x="69.824219" xlink:href="#DejaVuSans-52"/>
    </g>
   </g>
   <g id="text_16">
    <!-- E3 -->
    <g style="fill:#ffffff;" transform="translate(1858.93757 202.127)scale(0.16 -0.16)">
     <use xlink:href="#DejaVuSans-69"/>
     <use x="63.183594" xlink:href="#DejaVuSans-51"/>
    </g>
   </g>
   <g id="text_17">
    <!-- G2 -->
    <g style="fill:#ffffff;" transform="translate(1989.857556 313.007)scale(0.16 -0.16)">
     <use xlink:href="#DejaVuSans-71"/>
     <use x="77.490234" xlink:href="#DejaVuSans-50"/>
    </g>
   </g>
   <g id="text_18">
    <!-- C3 -->
    <g style="fill:#ffffff;" transform="translate(1990.470056 257.567)scale(0.16 -0.16)">
     <use xlink:href="#DejaVuSans-67"/>
     <use x="69.824219" xlink:href="#DejaVuSans-51"/>
    </g>
   </g>
   <g id="text_19">
    <!-- E2 -->
    <g style="fill:#ffffff;" transform="translate(2233.308287 368.447)scale(0.16 -0.16)">
     <use xlink:href="#DejaVuSans-69"/>
     <use x="63.183594" xlink:href="#DejaVuSans-50"/>
    </g>
   </g>
   <g id="text_20">
    <!-- G3 -->
    <g style="fill:#ffffff;" transform="translate(2232.164537 202.127)scale(0.16 -0.16)">
     <use xlink:href="#DejaVuSans-71"/>
     <use x="77.490234" xlink:href="#DejaVuSans-51"/>
    </g>
   </g>
   <g id="text_21">
    <!-- E4 -->
    <g style="fill:#ffffff;" transform="translate(2233.308287 91.247)scale(0.16 -0.16)">
     <use xlink:href="#DejaVuSans-69"/>
     <use x="63.183594" xlink:href="#DejaVuSans-52"/>
    </g>
   </g>
   <g id="patch_32">
    <path clip-path="url(#p673e462843)" d="M 373.538455 330.768 
C 379.419598 330.768 385.060658 328.431397 389.219255 324.2728 
C 393.377851 320.114203 395.714455 314.473144 395.714455 308.592 
C 395.714455 302.710856 393.377851 297.069797 389.219255 292.9112 
C 385.060658 288.752603 379.419598 286.416 373.538455 286.416 
C 367.657311 286.416 362.016251 288.752603 357.857655 292.9112 
C 353.699058 297.069797 351.362455 302.710856 351.362455 308.592 
C 351.362455 314.473144 353.699058 320.114203 357.857655 324.2728 
C 362.016251 328.431397 367.657311 330.768 373.538455 330.768 
z
" style="fill:#29cccc;stroke:#29cccc;stroke-linejoin:miter;"/>
   </g>
   <g id="patch_33">
    <path clip-path="url(#p673e462843)" d="M 373.538455 275.328 
C 379.419598 275.328 385.060658 272.991397 389.219255 268.8328 
C 393.377851 264.674203 395.714455 259.033144 395.714455 253.152 
C 395.714455 247.270856 393.377851 241.629797 389.219255 237.4712 
C 385.060658 233.312603 379.419598 230.976 373.538455 230.976 
C 367.657311 230.976 362.016251 233.312603 357.857655 237.4712 
C 353.699058 241.629797 351.362455 247.270856 351.362455 253.152 
C 351.362455 259.033144 353.699058 264.674203 357.857655 268.8328 
C 362.016251 272.991397 367.657311 275.328 373.538455 275.328 
z
" style="fill:#29cccc;stroke:#29cccc;stroke-linejoin:miter;"/>
   </g>
   <g id="patch_34">
    <path clip-path="url(#p673e462843)" d="M 718.742076 386.208 
C 724.62322 386.208 730.264279 383.871397 734.422876 379.7128 
C 738.581473 375.554203 740.918076 369.913144 740.918076 364.032 
C 740.918076 358.150856 738.581473 352.509797 734.422876 348.3512 
C 730.264279 344.192603 724.62322 341.856 718.742076 341.856 
C 712.860932 341.856 707.219873 344.192603 703.061276 348.3512 
C 698.902679 352.509797 696.566076 358.150856 696.566076 364.032 
C 696.566076 369.913144 698.902679 375.554203 703.061276 379.7128 
C 707.219873 383.871397 712.860932 386.208 718.742076 386.208 
z
" style="fill:#29cccc;stroke:#29cccc;stroke-linejoin:miter;"/>
   </g>
   <g id="patch_35">
    <path clip-path="url(#p673e462843)" d="M 718.742076 219.888 
C 724.62322 219.888 730.264279 217.551397 734.422876 213.3928 
C 738.581473 209.234203 740.918076 203.593144 740.918076 197.712 
C 740.918076 191.830856 738.581473 186.189797 734.422876 182.0312 
C 730.264279 177.872603 724.62322 175.536 718.742076 175.536 
C 712.860932 175.536 707.219873 177.872603 703.061276 182.0312 
C 698.902679 186.189797 696.566076 191.830856 696.566076 197.712 
C 696.566076 203.593144 698.902679 209.234203 703.061276 213.3928 
C 707.219873 217.551397 712.860932 219.888 718.742076 219.888 
z
" style="fill:#29cccc;stroke:#29cccc;stroke-linejoin:miter;"/>
   </g>
   <g id="patch_36">
    <path clip-path="url(#p673e462843)" d="M 718.742076 109.008 
C 724.62322 109.008 730.264279 106.671397 734.422876 102.5128 
C 738.581473 98.354203 740.918076 92.713144 740.918076 86.832 
C 740.918076 80.950856 738.581473 75.309797 734.422876 71.1512 
C 730.264279 66.992603 724.62322 64.656 718.742076 64.656 
C 712.860932 64.656 707.219873 66.992603 703.061276 71.1512 
C 698.902679 75.309797 696.566076 80.950856 696.566076 86.832 
C 696.566076 92.713144 698.902679 98.354203 703.061276 102.5128 
C 707.219873 106.671397 712.860932 109.008 718.742076 109.008 
z
" style="fill:#29cccc;stroke:#29cccc;stroke-linejoin:miter;"/>
   </g>
   <g id="patch_37">
    <path clip-path="url(#p673e462843)" d="M 916.614106 164.448 
C 922.49525 164.448 928.136309 162.111397 932.294906 157.9528 
C 936.453502 153.794203 938.790106 148.153144 938.790106 142.272 
C 938.790106 136.390856 936.453502 130.749797 932.294906 126.5912 
C 928.136309 122.432603 922.49525 120.096 916.614106 120.096 
C 910.732962 120.096 905.091903 122.432603 900.933306 126.5912 
C 896.774709 130.749797 894.438106 136.390856 894.438106 142.272 
C 894.438106 148.153144 896.774709 153.794203 900.933306 157.9528 
C 905.091903 162.111397 910.732962 164.448 916.614106 164.448 
z
" style="fill:#29cccc;stroke:#29cccc;stroke-linejoin:miter;"/>
   </g>
   <g id="patch_38">
    <path clip-path="url(#p673e462843)" d="M 1103.380432 275.328 
C 1109.261576 275.328 1114.902635 272.991397 1119.061232 268.8328 
C 1123.219829 264.674203 1125.556432 259.033144 1125.556432 253.152 
C 1125.556432 247.270856 1123.219829 241.629797 1119.061232 237.4712 
C 1114.902635 233.312603 1109.261576 230.976 1103.380432 230.976 
C 1097.499288 230.976 1091.858229 233.312603 1087.699632 237.4712 
C 1083.541035 241.629797 1081.204432 247.270856 1081.204432 253.152 
C 1081.204432 259.033144 1083.541035 264.674203 1087.699632 268.8328 
C 1091.858229 272.991397 1097.499288 275.328 1103.380432 275.328 
z
" style="fill:#29cccc;stroke:#29cccc;stroke-linejoin:miter;"/>
   </g>
   <g id="patch_39">
    <path clip-path="url(#p673e462843)" d="M 1279.66437 386.208 
C 1285.545514 386.208 1291.186573 383.871397 1295.34517 379.7128 
C 1299.503767 375.554203 1301.84037 369.913144 1301.84037 364.032 
C 1301.84037 358.150856 1299.503767 352.509797 1295.34517 348.3512 
C 1291.186573 344.192603 1285.545514 341.856 1279.66437 341.856 
C 1273.783226 341.856 1268.142167 344.192603 1263.98357 348.3512 
C 1259.824973 352.509797 1257.48837 358.150856 1257.48837 364.032 
C 1257.48837 369.913144 1259.824973 375.554203 1263.98357 379.7128 
C 1268.142167 383.871397 1273.783226 386.208 1279.66437 386.208 
z
" style="fill:#29cccc;stroke:#29cccc;stroke-linejoin:miter;"/>
   </g>
   <g id="patch_40">
    <path clip-path="url(#p673e462843)" d="M 1279.66437 330.768 
C 1285.545514 330.768 1291.186573 328.431397 1295.34517 324.2728 
C 1299.503767 320.114203 1301.84037 314.473144 1301.84037 308.592 
C 1301.84037 302.710856 1299.503767 297.069797 1295.34517 292.9112 
C 1291.186573 288.752603 1285.545514 286.416 1279.66437 286.416 
C 1273.783226 286.416 1268.142167 288.752603 1263.98357 292.9112 
C 1259.824973 297.069797 1257.48837 302.710856 1257.48837 308.592 
C 1257.48837 314.473144 1259.824973 320.114203 1263.98357 324.2728 
C 1268.142167 328.431397 1273.783226 330.768 1279.66437 330.768 
z
" style="fill:#29cccc;stroke:#29cccc;stroke-linejoin:miter;"/>
   </g>
   <g id="patch_41">
    <path clip-path="url(#p673e462843)" d="M 1279.66437 109.008 
C 1285.545514 109.008 1291.186573 106.671397 1295.34517 102.5128 
C 1299.503767 98.354203 1301.84037 92.713144 1301.84037 86.832 
C 1301.84037 80.950856 1299.503767 75.309797 1295.34517 71.1512 
C 1291.186573 66.992603 1285.545514 64.656 1279.66437 64.656 
C 1273.783226 64.656 1268.142167 66.992603 1263.98357 71.1512 
C 1259.824973 75.309797 1257.48837 80.950856 1257.48837 86.832 
C 1257.48837 92.713144 1259.824973 98.354203 1263.98357 102.5128 
C 1268.142167 106.671397 1273.783226 109.008 1279.66437 109.008 
z
" style="fill:#29cccc;stroke:#29cccc;stroke-linejoin:miter;"/>
   </g>
   <g id="patch_42">
    <path clip-path="url(#p673e462843)" d="M 1603.105385 275.328 
C 1608.986529 275.328 1614.627588 272.991397 1618.786185 268.8328 
C 1622.944781 264.674203 1625.281385 259.033144 1625.281385 253.152 
C 1625.281385 247.270856 1622.944781 241.629797 1618.786185 237.4712 
C 1614.627588 233.312603 1608.986529 230.976 1603.105385 230.976 
C 1597.224241 230.976 1591.583181 233.312603 1587.424585 237.4712 
C 1583.265988 241.629797 1580.929385 247.270856 1580.929385 253.152 
C 1580.929385 259.033144 1583.265988 264.674203 1587.424585 268.8328 
C 1591.583181 272.991397 1597.224241 275.328 1603.105385 275.328 
z
" style="fill:#29cccc;stroke:#29cccc;stroke-linejoin:miter;"/>
   </g>
   <g id="patch_43">
    <path clip-path="url(#p673e462843)" d="M 1603.105385 219.888 
C 1608.986529 219.888 1614.627588 217.551397 1618.786185 213.3928 
C 1622.944781 209.234203 1625.281385 203.593144 1625.281385 197.712 
C 1625.281385 191.830856 1622.944781 186.189797 1618.786185 182.0312 
C 1614.627588 177.872603 1608.986529 175.536 1603.105385 175.536 
C 1597.224241 175.536 1591.583181 177.872603 1587.424585 182.0312 
C 1583.265988 186.189797 1580.929385 191.830856 1580.929385 197.712 
C 1580.929385 203.593144 1583.265988 209.234203 1587.424585 213.3928 
C 1591.583181 217.551397 1597.224241 219.888 1603.105385 219.888 
z
" style="fill:#29cccc;stroke:#29cccc;stroke-linejoin:miter;"/>
   </g>
   <g id="patch_44">
    <path clip-path="url(#p673e462843)" d="M 1603.105385 164.448 
C 1608.986529 164.448 1614.627588 162.111397 1618.786185 157.9528 
C 1622.944781 153.794203 1625.281385 148.153144 1625.281385 142.272 
C 1625.281385 136.390856 1622.944781 130.749797 1618.786185 126.5912 
C 1614.627588 122.432603 1608.986529 120.096 1603.105385 120.096 
C 1597.224241 120.096 1591.583181 122.432603 1587.424585 126.5912 
C 1583.265988 130.749797 1580.929385 136.390856 1580.929385 142.272 
C 1580.929385 148.153144 1583.265988 153.794203 1587.424585 157.9528 
C 1591.583181 162.111397 1597.224241 164.448 1603.105385 164.448 
z
" style="fill:#29cccc;stroke:#29cccc;stroke-linejoin:miter;"/>
   </g>
   <g id="patch_45">
    <path clip-path="url(#p673e462843)" d="M 1891.25857 330.768 
C 1897.139714 330.768 1902.780773 328.431397 1906.93937 324.2728 
C 1911.097967 320.114203 1913.43457 314.473144 1913.43457 308.592 
C 1913.43457 302.710856 1911.097967 297.069797 1906.93937 292.9112 
C 1902.780773 288.752603 1897.139714 286.416 1891.25857 286.416 
C 1885.377426 286.416 1879.736367 288.752603 1875.57777 292.9112 
C 1871.419173 297.069797 1869.08257 302.710856 1869.08257 308.592 
C 1869.08257 314.473144 1871.419173 320.114203 1875.57777 324.2728 
C 1879.736367 328.431397 1885.377426 330.768 1891.25857 330.768 
z
" style="fill:#29cccc;stroke:#29cccc;stroke-linejoin:miter;"/>
   </g>
   <g id="patch_46">
    <path clip-path="url(#p673e462843)" d="M 2023.322306 386.208 
C 2029.20345 386.208 2034.844509 383.871397 2039.003106 379.7128 
C 2043.161703 375.554203 2045.498306 369.913144 2045.498306 364.032 
C 2045.498306 358.150856 2043.161703 352.509797 2039.003106 348.3512 
C 2034.844509 344.192603 2029.20345 341.856 2023.322306 341.856 
C 2017.441162 341.856 2011.800103 344.192603 2007.641506 348.3512 
C 2003.482909 352.509797 2001.146306 358.150856 2001.146306 364.032 
C 2001.146306 369.913144 2003.482909 375.554203 2007.641506 379.7128 
C 2011.800103 383.871397 2017.441162 386.208 2023.322306 386.208 
z
" style="fill:#29cccc;stroke:#29cccc;stroke-linejoin:miter;"/>
   </g>
   <g id="patch_47">
    <path clip-path="url(#p673e462843)" d="M 2023.322306 164.448 
C 2029.20345 164.448 2034.844509 162.111397 2039.003106 157.9528 
C 2043.161703 153.794203 2045.498306 148.153144 2045.498306 142.272 
C 2045.498306 136.390856 2043.161703 130.749797 2039.003106 126.5912 
C 2034.844509 122.432603 2029.20345 120.096 2023.322306 120.096 
C 2017.441162 120.096 2011.800103 122.432603 2007.641506 126.5912 
C 2003.482909 130.749797 2001.146306 136.390856 2001.146306 142.272 
C 2001.146306 148.153144 2003.482909 153.794203 2007.641506 157.9528 
C 2011.800103 162.111397 2017.441162 164.448 2023.322306 164.448 
z
" style="fill:#29cccc;stroke:#29cccc;stroke-linejoin:miter;"/>
   </g>
   <g id="patch_48">
    <path clip-path="url(#p673e462843)" d="M 2023.322306 109.008 
C 2029.20345 109.008 2034.844509 106.671397 2039.003106 102.5128 
C 2043.161703 98.354203 2045.498306 92.713144 2045.498306 86.832 
C 2045.498306 80.950856 2043.161703 75.309797 2039.003106 71.1512 
C 2034.844509 66.992603 2029.20345 64.656 2023.322306 64.656 
C 2017.441162 64.656 2011.800103 66.992603 2007.641506 71.1512 
C 2003.482909 75.309797 2001.146306 80.950856 2001.146306 86.832 
C 2001.146306 92.713144 2003.482909 98.354203 2007.641506 102.5128 
C 2011.800103 106.671397 2017.441162 109.008 2023.322306 109.008 
z
" style="fill:#29cccc;stroke:#29cccc;stroke-linejoin:miter;"/>
   </g>
   <g id="patch_49">
    <path clip-path="url(#p673e462843)" d="M 2147.973874 219.888 
C 2153.855018 219.888 2159.496077 217.551397 2163.654674 213.3928 
C 2167.81327 209.234203 2170.149874 203.593144 2170.149874 197.712 
C 2170.149874 191.830856 2167.81327 186.189797 2163.654674 182.0312 
C 2159.496077 177.872603 2153.855018 175.536 2147.973874 175.536 
C 2142.09273 175.536 2136.451671 177.872603 2132.293074 182.0312 
C 2128.134477 186.189797 2125.797874 191.830856 2125.797874 197.712 
C 2125.797874 203.593144 2128.134477 209.234203 2132.293074 213.3928 
C 2136.451671 217.551397 2142.09273 219.888 2147.973874 219.888 
z
" style="fill:#29cccc;stroke:#29cccc;stroke-linejoin:miter;"/>
   </g>
   <g id="patch_50">
    <path clip-path="url(#p673e462843)" d="M 2265.629287 330.768 
C 2271.510431 330.768 2277.15149 328.431397 2281.310087 324.2728 
C 2285.468683 320.114203 2287.805287 314.473144 2287.805287 308.592 
C 2287.805287 302.710856 2285.468683 297.069797 2281.310087 292.9112 
C 2277.15149 288.752603 2271.510431 286.416 2265.629287 286.416 
C 2259.748143 286.416 2254.107083 288.752603 2249.948487 292.9112 
C 2245.78989 297.069797 2243.453287 302.710856 2243.453287 308.592 
C 2243.453287 314.473144 2245.78989 320.114203 2249.948487 324.2728 
C 2254.107083 328.431397 2259.748143 330.768 2265.629287 330.768 
z
" style="fill:#29cccc;stroke:#29cccc;stroke-linejoin:miter;"/>
   </g>
   <g id="patch_51">
    <path clip-path="url(#p673e462843)" d="M 2265.629287 275.328 
C 2271.510431 275.328 2277.15149 272.991397 2281.310087 268.8328 
C 2285.468683 264.674203 2287.805287 259.033144 2287.805287 253.152 
C 2287.805287 247.270856 2285.468683 241.629797 2281.310087 237.4712 
C 2277.15149 233.312603 2271.510431 230.976 2265.629287 230.976 
C 2259.748143 230.976 2254.107083 233.312603 2249.948487 237.4712 
C 2245.78989 241.629797 2243.453287 247.270856 2243.453287 253.152 
C 2243.453287 259.033144 2245.78989 264.674203 2249.948487 268.8328 
C 2254.107083 272.991397 2259.748143 275.328 2265.629287 275.328 
z
" style="fill:#29cccc;stroke:#29cccc;stroke-linejoin:miter;"/>
   </g>
   <g id="text_22">
    <!-- A1 -->
    <defs>
     <path d="M 34.1875 63.1875 
L 20.796875 26.90625 
L 47.609375 26.90625 
z
M 28.609375 72.90625 
L 39.796875 72.90625 
L 67.578125 0 
L 57.328125 0 
L 50.6875 18.703125 
L 17.828125 18.703125 
L 11.1875 0 
L 0.78125 0 
z
" id="DejaVuSans-65"/>
    </defs>
    <g style="fill:#ffffff;" transform="translate(362.975955 313.007)scale(0.16 -0.16)">
     <use xlink:href="#DejaVuSans-65"/>
     <use x="68.408203" xlink:href="#DejaVuSans-49"/>
    </g>
   </g>
   <g id="text_23">
    <!-- D2 -->
    <defs>
     <path d="M 19.671875 64.796875 
L 19.671875 8.109375 
L 31.59375 8.109375 
Q 46.6875 8.109375 53.6875 14.9375 
Q 60.6875 21.78125 60.6875 36.53125 
Q 60.6875 51.171875 53.6875 57.984375 
Q 46.6875 64.796875 31.59375 64.796875 
z
M 9.8125 72.90625 
L 30.078125 72.90625 
Q 51.265625 72.90625 61.171875 64.09375 
Q 71.09375 55.28125 71.09375 36.53125 
Q 71.09375 17.671875 61.125 8.828125 
Q 51.171875 0 30.078125 0 
L 9.8125 0 
z
" id="DejaVuSans-68"/>
    </defs>
    <g style="fill:#ffffff;" transform="translate(362.288455 257.567)scale(0.16 -0.16)">
     <use xlink:href="#DejaVuSans-68"/>
     <use x="77.001953" xlink:href="#DejaVuSans-50"/>
    </g>
   </g>
   <g id="text_24">
    <!-- F#1 -->
    <defs>
     <path d="M 9.8125 72.90625 
L 51.703125 72.90625 
L 51.703125 64.59375 
L 19.671875 64.59375 
L 19.671875 43.109375 
L 48.578125 43.109375 
L 48.578125 34.8125 
L 19.671875 34.8125 
L 19.671875 0 
L 9.8125 0 
z
" id="DejaVuSans-70"/>
     <path d="M 51.125 44 
L 36.921875 44 
L 32.8125 27.6875 
L 47.125 27.6875 
z
M 43.796875 71.78125 
L 38.71875 51.515625 
L 52.984375 51.515625 
L 58.109375 71.78125 
L 65.921875 71.78125 
L 60.890625 51.515625 
L 76.125 51.515625 
L 76.125 44 
L 58.984375 44 
L 54.984375 27.6875 
L 70.515625 27.6875 
L 70.515625 20.21875 
L 53.078125 20.21875 
L 48 0 
L 40.1875 0 
L 45.21875 20.21875 
L 30.90625 20.21875 
L 25.875 0 
L 18.015625 0 
L 23.09375 20.21875 
L 7.71875 20.21875 
L 7.71875 27.6875 
L 24.90625 27.6875 
L 29 44 
L 13.28125 44 
L 13.28125 51.515625 
L 30.90625 51.515625 
L 35.890625 71.78125 
z
" id="DejaVuSans-35"/>
    </defs>
    <g style="fill:#ffffff;" transform="translate(702.347076 368.447)scale(0.16 -0.16)">
     <use xlink:href="#DejaVuSans-70"/>
     <use x="57.519531" xlink:href="#DejaVuSans-35"/>
     <use x="141.308594" xlink:href="#DejaVuSans-49"/>
    </g>
   </g>
   <g id="text_25">
    <!-- A2 -->
    <g style="fill:#ffffff;" transform="translate(708.179576 202.127)scale(0.16 -0.16)">
     <use xlink:href="#DejaVuSans-65"/>
     <use x="68.408203" xlink:href="#DejaVuSans-50"/>
    </g>
   </g>
   <g id="text_26">
    <!-- F#3 -->
    <g style="fill:#ffffff;" transform="translate(702.347076 91.247)scale(0.16 -0.16)">
     <use xlink:href="#DejaVuSans-70"/>
     <use x="57.519531" xlink:href="#DejaVuSans-35"/>
     <use x="141.308594" xlink:href="#DejaVuSans-51"/>
    </g>
   </g>
   <g id="text_27">
    <!-- D3 -->
    <g style="fill:#ffffff;" transform="translate(905.364106 146.687)scale(0.16 -0.16)">
     <use xlink:href="#DejaVuSans-68"/>
     <use x="77.001953" xlink:href="#DejaVuSans-51"/>
    </g>
   </g>
   <g id="text_28">
    <!-- F#2 -->
    <g style="fill:#ffffff;" transform="translate(1086.985432 257.567)scale(0.16 -0.16)">
     <use xlink:href="#DejaVuSans-70"/>
     <use x="57.519531" xlink:href="#DejaVuSans-35"/>
     <use x="141.308594" xlink:href="#DejaVuSans-50"/>
    </g>
   </g>
   <g id="text_29">
    <!-- A1 -->
    <g style="fill:#ffffff;" transform="translate(1269.10187 368.447)scale(0.16 -0.16)">
     <use xlink:href="#DejaVuSans-65"/>
     <use x="68.408203" xlink:href="#DejaVuSans-49"/>
    </g>
   </g>
   <g id="text_30">
    <!-- D2 -->
    <g style="fill:#ffffff;" transform="translate(1268.41437 313.007)scale(0.16 -0.16)">
     <use xlink:href="#DejaVuSans-68"/>
     <use x="77.001953" xlink:href="#DejaVuSans-50"/>
    </g>
   </g>
   <g id="text_31">
    <!-- A3 -->
    <g style="fill:#ffffff;" transform="translate(1269.10187 91.247)scale(0.16 -0.16)">
     <use xlink:href="#DejaVuSans-65"/>
     <use x="68.408203" xlink:href="#DejaVuSans-51"/>
    </g>
   </g>
   <g id="text_32">
    <!-- A2 -->
    <g style="fill:#ffffff;" transform="translate(1592.542885 257.567)scale(0.16 -0.16)">
     <use xlink:href="#DejaVuSans-65"/>
     <use x="68.408203" xlink:href="#DejaVuSans-50"/>
    </g>
   </g>
   <g id="text_33">
    <!-- D3 -->
    <g style="fill:#ffffff;" transform="translate(1591.855385 202.127)scale(0.16 -0.16)">
     <use xlink:href="#DejaVuSans-68"/>
     <use x="77.001953" xlink:href="#DejaVuSans-51"/>
    </g>
   </g>
   <g id="text_34">
    <!-- F#3 -->
    <g style="fill:#ffffff;" transform="translate(1586.710385 146.687)scale(0.16 -0.16)">
     <use xlink:href="#DejaVuSans-70"/>
     <use x="57.519531" xlink:href="#DejaVuSans-35"/>
     <use x="141.308594" xlink:href="#DejaVuSans-51"/>
    </g>
   </g>
   <g id="text_35">
    <!-- F#2 -->
    <g style="fill:#ffffff;" transform="translate(1874.86357 313.007)scale(0.16 -0.16)">
     <use xlink:href="#DejaVuSans-70"/>
     <use x="57.519531" xlink:href="#DejaVuSans-35"/>
     <use x="141.308594" xlink:href="#DejaVuSans-50"/>
    </g>
   </g>
   <g id="text_36">
    <!-- D2 -->
    <g style="fill:#ffffff;" transform="translate(2012.072306 368.447)scale(0.16 -0.16)">
     <use xlink:href="#DejaVuSans-68"/>
     <use x="77.001953" xlink:href="#DejaVuSans-50"/>
    </g>
   </g>
   <g id="text_37">
    <!-- A3 -->
    <g style="fill:#ffffff;" transform="translate(2012.759806 146.687)scale(0.16 -0.16)">
     <use xlink:href="#DejaVuSans-65"/>
     <use x="68.408203" xlink:href="#DejaVuSans-51"/>
    </g>
   </g>
   <g id="text_38">
    <!-- D4 -->
    <g style="fill:#ffffff;" transform="translate(2012.072306 91.247)scale(0.16 -0.16)">
     <use xlink:href="#DejaVuSans-68"/>
     <use x="77.001953" xlink:href="#DejaVuSans-52"/>
    </g>
   </g>
   <g id="text_39">
    <!-- F#3 -->
    <g style="fill:#ffffff;" transform="translate(2131.578874 202.127)scale(0.16 -0.16)">
     <use xlink:href="#DejaVuSans-70"/>
     <use x="57.519531" xlink:href="#DejaVuSans-35"/>
     <use x="141.308594" xlink:href="#DejaVuSans-51"/>
    </g>
   </g>
   <g id="text_40">
    <!-- A2 -->
    <g style="fill:#ffffff;" transform="translate(2255.066787 313.007)scale(0.16 -0.16)">
     <use xlink:href="#DejaVuSans-65"/>
     <use x="68.408203" xlink:href="#DejaVuSans-50"/>
    </g>
   </g>
   <g id="text_41">
    <!-- D3 -->
    <g style="fill:#ffffff;" transform="translate(2254.379287 257.567)scale(0.16 -0.16)">
     <use xlink:href="#DejaVuSans-68"/>
     <use x="77.001953" xlink:href="#DejaVuSans-51"/>
    </g>
   </g>
   <g id="matplotlib.axis_1"/>
   <g id="matplotlib.axis_2"/>
   <g id="text_42">
    <!-- -1 -->
    <defs>
     <path d="M 4.890625 31.390625 
L 31.203125 31.390625 
L 31.203125 23.390625 
L 4.890625 23.390625 
z
" id="DejaVuSans-45"/>
    </defs>
    <g style="fill:#0000ff;" transform="translate(324.760142 397.27075)scale(0.2 -0.2)">
     <use xlink:href="#DejaVuSans-45"/>
     <use x="36.083984" xlink:href="#DejaVuSans-49"/>
    </g>
   </g>
   <g id="text_43">
    <!-- 0 -->
    <defs>
     <path d="M 31.78125 66.40625 
Q 24.171875 66.40625 20.328125 58.90625 
Q 16.5 51.421875 16.5 36.375 
Q 16.5 21.390625 20.328125 13.890625 
Q 24.171875 6.390625 31.78125 6.390625 
Q 39.453125 6.390625 43.28125 13.890625 
Q 47.125 21.390625 47.125 36.375 
Q 47.125 51.421875 43.28125 58.90625 
Q 39.453125 66.40625 31.78125 66.40625 
z
M 31.78125 74.21875 
Q 44.046875 74.21875 50.515625 64.515625 
Q 56.984375 54.828125 56.984375 36.375 
Q 56.984375 17.96875 50.515625 8.265625 
Q 44.046875 -1.421875 31.78125 -1.421875 
Q 19.53125 -1.421875 13.0625 8.265625 
Q 6.59375 17.96875 6.59375 36.375 
Q 6.59375 54.828125 13.0625 64.515625 
Q 19.53125 74.21875 31.78125 74.21875 
z
" id="DejaVuSans-48"/>
    </defs>
    <g style="fill:#0000ff;" transform="translate(383.807955 397.27075)scale(0.2 -0.2)">
     <use xlink:href="#DejaVuSans-48"/>
    </g>
   </g>
   <g id="text_44">
    <!-- 1 -->
    <g style="fill:#0000ff;" transform="translate(599.498971 397.27075)scale(0.2 -0.2)">
     <use xlink:href="#DejaVuSans-49"/>
    </g>
   </g>
   <g id="text_45">
    <!-- 2 -->
    <g style="fill:#0000ff;" transform="translate(803.084181 397.27075)scale(0.2 -0.2)">
     <use xlink:href="#DejaVuSans-50"/>
    </g>
   </g>
   <g id="text_46">
    <!-- 3 -->
    <g style="fill:#0000ff;" transform="translate(995.243031 397.27075)scale(0.2 -0.2)">
     <use xlink:href="#DejaVuSans-51"/>
    </g>
   </g>
   <g id="text_47">
    <!-- 4 -->
    <g style="fill:#0000ff;" transform="translate(1176.616833 397.27075)scale(0.2 -0.2)">
     <use xlink:href="#DejaVuSans-52"/>
    </g>
   </g>
   <g id="text_48">
    <!-- 5 -->
    <defs>
     <path d="M 10.796875 72.90625 
L 49.515625 72.90625 
L 49.515625 64.59375 
L 19.828125 64.59375 
L 19.828125 46.734375 
Q 21.96875 47.46875 24.109375 47.828125 
Q 26.265625 48.1875 28.421875 48.1875 
Q 40.625 48.1875 47.75 41.5 
Q 54.890625 34.8125 54.890625 23.390625 
Q 54.890625 11.625 47.5625 5.09375 
Q 40.234375 -1.421875 26.90625 -1.421875 
Q 22.3125 -1.421875 17.546875 -0.640625 
Q 12.796875 0.140625 7.71875 1.703125 
L 7.71875 11.625 
Q 12.109375 9.234375 16.796875 8.0625 
Q 21.484375 6.890625 26.703125 6.890625 
Q 35.15625 6.890625 40.078125 11.328125 
Q 45.015625 15.765625 45.015625 23.390625 
Q 45.015625 31 40.078125 35.4375 
Q 35.15625 39.890625 26.703125 39.890625 
Q 22.75 39.890625 18.8125 39.015625 
Q 14.890625 38.140625 10.796875 36.28125 
z
" id="DejaVuSans-53"/>
    </defs>
    <g style="fill:#0000ff;" transform="translate(1347.810906 397.27075)scale(0.2 -0.2)">
     <use xlink:href="#DejaVuSans-53"/>
    </g>
   </g>
   <g id="text_49">
    <!-- 6 -->
    <defs>
     <path d="M 33.015625 40.375 
Q 26.375 40.375 22.484375 35.828125 
Q 18.609375 31.296875 18.609375 23.390625 
Q 18.609375 15.53125 22.484375 10.953125 
Q 26.375 6.390625 33.015625 6.390625 
Q 39.65625 6.390625 43.53125 10.953125 
Q 47.40625 15.53125 47.40625 23.390625 
Q 47.40625 31.296875 43.53125 35.828125 
Q 39.65625 40.375 33.015625 40.375 
z
M 52.59375 71.296875 
L 52.59375 62.3125 
Q 48.875 64.0625 45.09375 64.984375 
Q 41.3125 65.921875 37.59375 65.921875 
Q 27.828125 65.921875 22.671875 59.328125 
Q 17.53125 52.734375 16.796875 39.40625 
Q 19.671875 43.65625 24.015625 45.921875 
Q 28.375 48.1875 33.59375 48.1875 
Q 44.578125 48.1875 50.953125 41.515625 
Q 57.328125 34.859375 57.328125 23.390625 
Q 57.328125 12.15625 50.6875 5.359375 
Q 44.046875 -1.421875 33.015625 -1.421875 
Q 20.359375 -1.421875 13.671875 8.265625 
Q 6.984375 17.96875 6.984375 36.375 
Q 6.984375 53.65625 15.1875 63.9375 
Q 23.390625 74.21875 37.203125 74.21875 
Q 40.921875 74.21875 44.703125 73.484375 
Q 48.484375 72.75 52.59375 71.296875 
z
" id="DejaVuSans-54"/>
    </defs>
    <g style="fill:#0000ff;" transform="translate(1509.396594 397.27075)scale(0.2 -0.2)">
     <use xlink:href="#DejaVuSans-54"/>
    </g>
   </g>
   <g id="text_50">
    <!-- 7 -->
    <defs>
     <path d="M 8.203125 72.90625 
L 55.078125 72.90625 
L 55.078125 68.703125 
L 28.609375 0 
L 18.3125 0 
L 43.21875 64.59375 
L 8.203125 64.59375 
z
" id="DejaVuSans-55"/>
    </defs>
    <g style="fill:#0000ff;" transform="translate(1661.913175 397.27075)scale(0.2 -0.2)">
     <use xlink:href="#DejaVuSans-55"/>
    </g>
   </g>
   <g id="text_51">
    <!-- 8 -->
    <defs>
     <path d="M 31.78125 34.625 
Q 24.75 34.625 20.71875 30.859375 
Q 16.703125 27.09375 16.703125 20.515625 
Q 16.703125 13.921875 20.71875 10.15625 
Q 24.75 6.390625 31.78125 6.390625 
Q 38.8125 6.390625 42.859375 10.171875 
Q 46.921875 13.96875 46.921875 20.515625 
Q 46.921875 27.09375 42.890625 30.859375 
Q 38.875 34.625 31.78125 34.625 
z
M 21.921875 38.8125 
Q 15.578125 40.375 12.03125 44.71875 
Q 8.5 49.078125 8.5 55.328125 
Q 8.5 64.0625 14.71875 69.140625 
Q 20.953125 74.21875 31.78125 74.21875 
Q 42.671875 74.21875 48.875 69.140625 
Q 55.078125 64.0625 55.078125 55.328125 
Q 55.078125 49.078125 51.53125 44.71875 
Q 48 40.375 41.703125 38.8125 
Q 48.828125 37.15625 52.796875 32.3125 
Q 56.78125 27.484375 56.78125 20.515625 
Q 56.78125 9.90625 50.3125 4.234375 
Q 43.84375 -1.421875 31.78125 -1.421875 
Q 19.734375 -1.421875 13.25 4.234375 
Q 6.78125 9.90625 6.78125 20.515625 
Q 6.78125 27.484375 10.78125 32.3125 
Q 14.796875 37.15625 21.921875 38.8125 
z
M 18.3125 54.390625 
Q 18.3125 48.734375 21.84375 45.5625 
Q 25.390625 42.390625 31.78125 42.390625 
Q 38.140625 42.390625 41.71875 45.5625 
Q 45.3125 48.734375 45.3125 54.390625 
Q 45.3125 60.0625 41.71875 63.234375 
Q 38.140625 66.40625 31.78125 66.40625 
Q 25.390625 66.40625 21.84375 63.234375 
Q 18.3125 60.0625 18.3125 54.390625 
z
" id="DejaVuSans-56"/>
    </defs>
    <g style="fill:#0000ff;" transform="translate(1805.869657 397.27075)scale(0.2 -0.2)">
     <use xlink:href="#DejaVuSans-56"/>
    </g>
   </g>
   <g id="text_52">
    <!-- 9 -->
    <defs>
     <path d="M 10.984375 1.515625 
L 10.984375 10.5 
Q 14.703125 8.734375 18.5 7.8125 
Q 22.3125 6.890625 25.984375 6.890625 
Q 35.75 6.890625 40.890625 13.453125 
Q 46.046875 20.015625 46.78125 33.40625 
Q 43.953125 29.203125 39.59375 26.953125 
Q 35.25 24.703125 29.984375 24.703125 
Q 19.046875 24.703125 12.671875 31.3125 
Q 6.296875 37.9375 6.296875 49.421875 
Q 6.296875 60.640625 12.9375 67.421875 
Q 19.578125 74.21875 30.609375 74.21875 
Q 43.265625 74.21875 49.921875 64.515625 
Q 56.59375 54.828125 56.59375 36.375 
Q 56.59375 19.140625 48.40625 8.859375 
Q 40.234375 -1.421875 26.421875 -1.421875 
Q 22.703125 -1.421875 18.890625 -0.6875 
Q 15.09375 0.046875 10.984375 1.515625 
z
M 30.609375 32.421875 
Q 37.25 32.421875 41.125 36.953125 
Q 45.015625 41.5 45.015625 49.421875 
Q 45.015625 57.28125 41.125 61.84375 
Q 37.25 66.40625 30.609375 66.40625 
Q 23.96875 66.40625 20.09375 61.84375 
Q 16.21875 57.28125 16.21875 49.421875 
Q 16.21875 41.5 20.09375 36.953125 
Q 23.96875 32.421875 30.609375 32.421875 
z
" id="DejaVuSans-57"/>
    </defs>
    <g style="fill:#0000ff;" transform="translate(1941.746483 397.27075)scale(0.2 -0.2)">
     <use xlink:href="#DejaVuSans-57"/>
    </g>
   </g>
   <g id="text_53">
    <!-- 10 -->
    <g style="fill:#0000ff;" transform="translate(2063.634629 397.27075)scale(0.2 -0.2)">
     <use xlink:href="#DejaVuSans-49"/>
     <use x="63.623047" xlink:href="#DejaVuSans-48"/>
    </g>
   </g>
   <g id="text_54">
    <!-- 11 -->
    <g style="fill:#0000ff;" transform="translate(2184.687119 397.27075)scale(0.2 -0.2)">
     <use xlink:href="#DejaVuSans-49"/>
     <use x="63.623047" xlink:href="#DejaVuSans-49"/>
    </g>
   </g>
   <g id="text_55">
    <!-- 12 -->
    <g style="fill:#0000ff;" transform="translate(2298.945455 397.27075)scale(0.2 -0.2)">
     <use xlink:href="#DejaVuSans-49"/>
     <use x="63.623047" xlink:href="#DejaVuSans-50"/>
    </g>
   </g>
   <g id="text_56">
    <!-- 6 -->
    <g style="fill:#0000ff;" transform="translate(300.647955 369.55075)scale(0.2 -0.2)">
     <use xlink:href="#DejaVuSans-54"/>
    </g>
   </g>
   <g id="text_57">
    <!-- 5 -->
    <g style="fill:#0000ff;" transform="translate(300.647955 314.11075)scale(0.2 -0.2)">
     <use xlink:href="#DejaVuSans-53"/>
    </g>
   </g>
   <g id="text_58">
    <!-- 4 -->
    <g style="fill:#0000ff;" transform="translate(300.647955 258.67075)scale(0.2 -0.2)">
     <use xlink:href="#DejaVuSans-52"/>
    </g>
   </g>
   <g id="text_59">
    <!-- 3 -->
    <g style="fill:#0000ff;" transform="translate(300.647955 203.23075)scale(0.2 -0.2)">
     <use xlink:href="#DejaVuSans-51"/>
    </g>
   </g>
   <g id="text_60">
    <!-- 2 -->
    <g style="fill:#0000ff;" transform="translate(300.647955 147.79075)scale(0.2 -0.2)">
     <use xlink:href="#DejaVuSans-50"/>
    </g>
   </g>
   <g id="text_61">
    <!-- 1 -->
    <g style="fill:#0000ff;" transform="translate(300.647955 92.35075)scale(0.2 -0.2)">
     <use xlink:href="#DejaVuSans-49"/>
    </g>
   </g>
  </g>
 </g>
 <defs>
  <clipPath id="p673e462843">
   <rect height="343.728" width="1988.028" x="329.186455" y="53.568"/>
  </clipPath>
 </defs>
</svg>
