<?xml version="1.0" encoding="utf-8" standalone="no"?>
<!DOCTYPE svg PUBLIC "-//W3C//DTD SVG 1.1//EN"
  "http://www.w3.org/Graphics/SVG/1.1/DTD/svg11.dtd">
<!-- Created with matplotlib (https://matplotlib.org/) -->
<svg height="446.4pt" version="1.1" viewBox="0 0 1067.161853 446.4" width="1067.161853pt" xmlns="http://www.w3.org/2000/svg" xmlns:xlink="http://www.w3.org/1999/xlink">
 <defs>
  <style type="text/css">
*{stroke-linecap:butt;stroke-linejoin:round;}
  </style>
 </defs>
 <g id="figure_1">
  <g id="patch_1">
   <path d="M 0 446.4 
L 1067.161853 446.4 
L 1067.161853 0 
L 0 0 
z
" style="fill:#ffffff;"/>
  </g>
  <g id="axes_1">
   <g id="patch_2">
    <path clip-path="url(#p4bf997433c)" d="M 45.527711 225.432 
L 141.607136 225.432 
L 141.607136 86.832 
L 45.527711 86.832 
z
" style="fill:#cccccc;stroke:#cccccc;stroke-linejoin:miter;"/>
   </g>
   <g id="patch_3">
    <path clip-path="url(#p4bf997433c)" d="M 408.577975 225.432 
L 494.175012 225.432 
L 494.175012 86.832 
L 408.577975 86.832 
z
" style="fill:#cccccc;stroke:#cccccc;stroke-linejoin:miter;"/>
   </g>
   <g id="patch_4">
    <path clip-path="url(#p4bf997433c)" d="M 732.01899 225.432 
L 808.27728 225.432 
L 808.27728 86.832 
L 732.01899 86.832 
z
" style="fill:#cccccc;stroke:#cccccc;stroke-linejoin:miter;"/>
   </g>
   <g id="patch_5">
    <path clip-path="url(#p4bf997433c)" d="M 1020.172176 225.432 
L 1088.110589 225.432 
L 1088.110589 86.832 
L 1020.172176 86.832 
z
" style="fill:#cccccc;stroke:#cccccc;stroke-linejoin:miter;"/>
   </g>
   <g id="patch_6">
    <path clip-path="url(#p4bf997433c)" d="M 1394.542892 364.032 
L 1451.67206 364.032 
L 1451.67206 86.832 
L 1394.542892 86.832 
z
" style="fill:#cccccc;stroke:#cccccc;stroke-linejoin:miter;"/>
   </g>
   <g id="patch_7">
    <path clip-path="url(#p4bf997433c)" d="M 1709.349886 225.432 
L 1757.389598 225.432 
L 1757.389598 86.832 
L 1709.349886 86.832 
z
" style="fill:#cccccc;stroke:#cccccc;stroke-linejoin:miter;"/>
   </g>
   <g id="patch_8">
    <path clip-path="url(#p4bf997433c)" d="M 1890.875018 225.432 
L 1933.673536 225.432 
L 1933.673536 86.832 
L 1890.875018 86.832 
z
" style="fill:#cccccc;stroke:#cccccc;stroke-linejoin:miter;"/>
   </g>
   <g id="patch_9">
    <path clip-path="url(#p4bf997433c)" d="M 2052.595525 225.432 
L 2090.72467 225.432 
L 2090.72467 86.832 
L 2052.595525 86.832 
z
" style="fill:#cccccc;stroke:#cccccc;stroke-linejoin:miter;"/>
   </g>
   <g id="patch_10">
    <path clip-path="url(#p4bf997433c)" d="M 2196.672118 225.432 
L 2230.641324 225.432 
L 2230.641324 86.832 
L 2196.672118 86.832 
z
" style="fill:#cccccc;stroke:#cccccc;stroke-linejoin:miter;"/>
   </g>
   <g id="line2d_1">
    <path clip-path="url(#p4bf997433c)" d="M 141.607136 364.032 
L 141.607136 86.832 
" style="fill:none;stroke:#000000;stroke-linecap:square;stroke-width:3;"/>
   </g>
   <g id="line2d_2">
    <path clip-path="url(#p4bf997433c)" d="M 322.980939 364.032 
L 322.980939 86.832 
" style="fill:none;stroke:#000000;stroke-linecap:square;stroke-width:3;"/>
   </g>
   <g id="line2d_3">
    <path clip-path="url(#p4bf997433c)" d="M 494.175012 364.032 
L 494.175012 86.832 
" style="fill:none;stroke:#000000;stroke-linecap:square;stroke-width:3;"/>
   </g>
   <g id="line2d_4">
    <path clip-path="url(#p4bf997433c)" d="M 655.7607 364.032 
L 655.7607 86.832 
" style="fill:none;stroke:#000000;stroke-linecap:square;stroke-width:3;"/>
   </g>
   <g id="line2d_5">
    <path clip-path="url(#p4bf997433c)" d="M 808.27728 364.032 
L 808.27728 86.832 
" style="fill:none;stroke:#000000;stroke-linecap:square;stroke-width:3;"/>
   </g>
   <g id="line2d_6">
    <path clip-path="url(#p4bf997433c)" d="M 952.233763 364.032 
L 952.233763 86.832 
" style="fill:none;stroke:#000000;stroke-linecap:square;stroke-width:3;"/>
   </g>
   <g id="line2d_7">
    <path clip-path="url(#p4bf997433c)" d="M -1 364.032 
L 1068.161853 364.032 
" style="fill:none;stroke:#808080;stroke-linecap:square;stroke-width:3;"/>
   </g>
   <g id="line2d_8">
    <path clip-path="url(#p4bf997433c)" d="M -1 308.592 
L 1068.161853 308.592 
" style="fill:none;stroke:#808080;stroke-linecap:square;stroke-width:3;"/>
   </g>
   <g id="line2d_9">
    <path clip-path="url(#p4bf997433c)" d="M -1 253.152 
L 1068.161853 253.152 
" style="fill:none;stroke:#808080;stroke-linecap:square;stroke-width:3;"/>
   </g>
   <g id="line2d_10">
    <path clip-path="url(#p4bf997433c)" d="M -1 197.712 
L 1068.161853 197.712 
" style="fill:none;stroke:#808080;stroke-linecap:square;stroke-width:3;"/>
   </g>
   <g id="line2d_11">
    <path clip-path="url(#p4bf997433c)" d="M -1 142.272 
L 1068.161853 142.272 
" style="fill:none;stroke:#808080;stroke-linecap:square;stroke-width:3;"/>
   </g>
   <g id="line2d_12">
    <path clip-path="url(#p4bf997433c)" d="M -1 86.832 
L 1068.161853 86.832 
" style="fill:none;stroke:#808080;stroke-linecap:square;stroke-width:3;"/>
   </g>
   <g id="line2d_13">
    <path clip-path="url(#p4bf997433c)" style="fill:none;stroke:#000000;stroke-linecap:square;stroke-width:10;"/>
   </g>
   <g id="line2d_14">
    <path clip-path="url(#p4bf997433c)" style="fill:none;stroke:#000000;stroke-linecap:square;stroke-width:5;"/>
   </g>
   <g id="matplotlib.axis_1"/>
   <g id="matplotlib.axis_2"/>
   <g id="patch_11">
    <path clip-path="url(#p4bf997433c)" d="M 408.577975 386.208 
C 414.459119 386.208 420.100178 383.871397 424.258775 379.7128 
C 428.417372 375.554203 430.753975 369.913144 430.753975 364.032 
C 430.753975 358.150856 428.417372 352.509797 424.258775 348.3512 
C 420.100178 344.192603 414.459119 341.856 408.577975 341.856 
C 402.696831 341.856 397.055772 344.192603 392.897175 348.3512 
C 388.738578 352.509797 386.401975 358.150856 386.401975 364.032 
C 386.401975 369.913144 388.738578 375.554203 392.897175 379.7128 
C 397.055772 383.871397 402.696831 386.208 408.577975 386.208 
z
" style="fill:#cc2929;stroke:#cc2929;stroke-linejoin:miter;"/>
   </g>
   <g id="patch_12">
    <path clip-path="url(#p4bf997433c)" d="M 408.577975 219.888 
C 414.459119 219.888 420.100178 217.551397 424.258775 213.3928 
C 428.417372 209.234203 430.753975 203.593144 430.753975 197.712 
C 430.753975 191.830856 428.417372 186.189797 424.258775 182.0312 
C 420.100178 177.872603 414.459119 175.536 408.577975 175.536 
C 402.696831 175.536 397.055772 177.872603 392.897175 182.0312 
C 388.738578 186.189797 386.401975 191.830856 386.401975 197.712 
C 386.401975 203.593144 388.738578 209.234203 392.897175 213.3928 
C 397.055772 217.551397 402.696831 219.888 408.577975 219.888 
z
" style="fill:#cc2929;stroke:#cc2929;stroke-linejoin:miter;"/>
   </g>
   <g id="patch_13">
    <path clip-path="url(#p4bf997433c)" d="M 408.577975 164.448 
C 414.459119 164.448 420.100178 162.111397 424.258775 157.9528 
C 428.417372 153.794203 430.753975 148.153144 430.753975 142.272 
C 430.753975 136.390856 428.417372 130.749797 424.258775 126.5912 
C 420.100178 122.432603 414.459119 120.096 408.577975 120.096 
C 402.696831 120.096 397.055772 122.432603 392.897175 126.5912 
C 388.738578 130.749797 386.401975 136.390856 386.401975 142.272 
C 386.401975 148.153144 388.738578 153.794203 392.897175 157.9528 
C 397.055772 162.111397 402.696831 164.448 408.577975 164.448 
z
" style="fill:#cc2929;stroke:#cc2929;stroke-linejoin:miter;"/>
   </g>
   <g id="patch_14">
    <path clip-path="url(#p4bf997433c)" d="M 408.577975 109.008 
C 414.459119 109.008 420.100178 106.671397 424.258775 102.5128 
C 428.417372 98.354203 430.753975 92.713144 430.753975 86.832 
C 430.753975 80.950856 428.417372 75.309797 424.258775 71.1512 
C 420.100178 66.992603 414.459119 64.656 408.577975 64.656 
C 402.696831 64.656 397.055772 66.992603 392.897175 71.1512 
C 388.738578 75.309797 386.401975 80.950856 386.401975 86.832 
C 386.401975 92.713144 388.738578 98.354203 392.897175 102.5128 
C 397.055772 106.671397 402.696831 109.008 408.577975 109.008 
z
" style="fill:#cc2929;stroke:#cc2929;stroke-linejoin:miter;"/>
   </g>
   <g id="patch_15">
    <path clip-path="url(#p4bf997433c)" d="M 574.967856 164.448 
C 580.849 164.448 586.490059 162.111397 590.648656 157.9528 
C 594.807253 153.794203 597.143856 148.153144 597.143856 142.272 
C 597.143856 136.390856 594.807253 130.749797 590.648656 126.5912 
C 586.490059 122.432603 580.849 120.096 574.967856 120.096 
C 569.086712 120.096 563.445653 122.432603 559.287056 126.5912 
C 555.128459 130.749797 552.791856 136.390856 552.791856 142.272 
C 552.791856 148.153144 555.128459 153.794203 559.287056 157.9528 
C 563.445653 162.111397 569.086712 164.448 574.967856 164.448 
z
" style="fill:#cc2929;stroke:#cc2929;stroke-linejoin:miter;"/>
   </g>
   <g id="patch_16">
    <path clip-path="url(#p4bf997433c)" d="M 732.01899 330.768 
C 737.900134 330.768 743.541193 328.431397 747.69979 324.2728 
C 751.858387 320.114203 754.19499 314.473144 754.19499 308.592 
C 754.19499 302.710856 751.858387 297.069797 747.69979 292.9112 
C 743.541193 288.752603 737.900134 286.416 732.01899 286.416 
C 726.137846 286.416 720.496787 288.752603 716.33819 292.9112 
C 712.179593 297.069797 709.84299 302.710856 709.84299 308.592 
C 709.84299 314.473144 712.179593 320.114203 716.33819 324.2728 
C 720.496787 328.431397 726.137846 330.768 732.01899 330.768 
z
" style="fill:#cc2929;stroke:#cc2929;stroke-linejoin:miter;"/>
   </g>
   <g id="patch_17">
    <path clip-path="url(#p4bf997433c)" d="M 732.01899 275.328 
C 737.900134 275.328 743.541193 272.991397 747.69979 268.8328 
C 751.858387 264.674203 754.19499 259.033144 754.19499 253.152 
C 754.19499 247.270856 751.858387 241.629797 747.69979 237.4712 
C 743.541193 233.312603 737.900134 230.976 732.01899 230.976 
C 726.137846 230.976 720.496787 233.312603 716.33819 237.4712 
C 712.179593 241.629797 709.84299 247.270856 709.84299 253.152 
C 709.84299 259.033144 712.179593 264.674203 716.33819 268.8328 
C 720.496787 272.991397 726.137846 275.328 732.01899 275.328 
z
" style="fill:#cc2929;stroke:#cc2929;stroke-linejoin:miter;"/>
   </g>
   <g id="patch_18">
    <path clip-path="url(#p4bf997433c)" d="M 880.255521 386.208 
C 886.136665 386.208 891.777725 383.871397 895.936321 379.7128 
C 900.094918 375.554203 902.431521 369.913144 902.431521 364.032 
C 902.431521 358.150856 900.094918 352.509797 895.936321 348.3512 
C 891.777725 344.192603 886.136665 341.856 880.255521 341.856 
C 874.374377 341.856 868.733318 344.192603 864.574721 348.3512 
C 860.416125 352.509797 858.079521 358.150856 858.079521 364.032 
C 858.079521 369.913144 860.416125 375.554203 864.574721 379.7128 
C 868.733318 383.871397 874.374377 386.208 880.255521 386.208 
z
" style="fill:#cc2929;stroke:#cc2929;stroke-linejoin:miter;"/>
   </g>
   <g id="patch_19">
    <path clip-path="url(#p4bf997433c)" d="M 880.255521 330.768 
C 886.136665 330.768 891.777725 328.431397 895.936321 324.2728 
C 900.094918 320.114203 902.431521 314.473144 902.431521 308.592 
C 902.431521 302.710856 900.094918 297.069797 895.936321 292.9112 
C 891.777725 288.752603 886.136665 286.416 880.255521 286.416 
C 874.374377 286.416 868.733318 288.752603 864.574721 292.9112 
C 860.416125 297.069797 858.079521 302.710856 858.079521 308.592 
C 858.079521 314.473144 860.416125 320.114203 864.574721 324.2728 
C 868.733318 328.431397 874.374377 330.768 880.255521 330.768 
z
" style="fill:#cc2929;stroke:#cc2929;stroke-linejoin:miter;"/>
   </g>
   <g id="patch_20">
    <path clip-path="url(#p4bf997433c)" d="M 880.255521 109.008 
C 886.136665 109.008 891.777725 106.671397 895.936321 102.5128 
C 900.094918 98.354203 902.431521 92.713144 902.431521 86.832 
C 902.431521 80.950856 900.094918 75.309797 895.936321 71.1512 
C 891.777725 66.992603 886.136665 64.656 880.255521 64.656 
C 874.374377 64.656 868.733318 66.992603 864.574721 71.1512 
C 860.416125 75.309797 858.079521 80.950856 858.079521 86.832 
C 858.079521 92.713144 860.416125 98.354203 864.574721 102.5128 
C 868.733318 106.671397 874.374377 109.008 880.255521 109.008 
z
" style="fill:#cc2929;stroke:#cc2929;stroke-linejoin:miter;"/>
   </g>
   <g id="text_1">
    <!-- A1 -->
    <defs>
     <path d="M 34.1875 63.1875 
L 20.796875 26.90625 
L 47.609375 26.90625 
z
M 28.609375 72.90625 
L 39.796875 72.90625 
L 67.578125 0 
L 57.328125 0 
L 50.6875 18.703125 
L 17.828125 18.703125 
L 11.1875 0 
L 0.78125 0 
z
" id="DejaVuSans-65"/>
     <path d="M 12.40625 8.296875 
L 28.515625 8.296875 
L 28.515625 63.921875 
L 10.984375 60.40625 
L 10.984375 69.390625 
L 28.421875 72.90625 
L 38.28125 72.90625 
L 38.28125 8.296875 
L 54.390625 8.296875 
L 54.390625 0 
L 12.40625 0 
z
" id="DejaVuSans-49"/>
    </defs>
    <g style="fill:#ffffff;" transform="translate(398.015475 368.447)scale(0.16 -0.16)">
     <use xlink:href="#DejaVuSans-65"/>
     <use x="68.408203" xlink:href="#DejaVuSans-49"/>
    </g>
   </g>
   <g id="text_2">
    <!-- C3 -->
    <defs>
     <path d="M 64.40625 67.28125 
L 64.40625 56.890625 
Q 59.421875 61.53125 53.78125 63.8125 
Q 48.140625 66.109375 41.796875 66.109375 
Q 29.296875 66.109375 22.65625 58.46875 
Q 16.015625 50.828125 16.015625 36.375 
Q 16.015625 21.96875 22.65625 14.328125 
Q 29.296875 6.6875 41.796875 6.6875 
Q 48.140625 6.6875 53.78125 8.984375 
Q 59.421875 11.28125 64.40625 15.921875 
L 64.40625 5.609375 
Q 59.234375 2.09375 53.4375 0.328125 
Q 47.65625 -1.421875 41.21875 -1.421875 
Q 24.65625 -1.421875 15.125 8.703125 
Q 5.609375 18.84375 5.609375 36.375 
Q 5.609375 53.953125 15.125 64.078125 
Q 24.65625 74.21875 41.21875 74.21875 
Q 47.75 74.21875 53.53125 72.484375 
Q 59.328125 70.75 64.40625 67.28125 
z
" id="DejaVuSans-67"/>
     <path d="M 40.578125 39.3125 
Q 47.65625 37.796875 51.625 33 
Q 55.609375 28.21875 55.609375 21.1875 
Q 55.609375 10.40625 48.1875 4.484375 
Q 40.765625 -1.421875 27.09375 -1.421875 
Q 22.515625 -1.421875 17.65625 -0.515625 
Q 12.796875 0.390625 7.625 2.203125 
L 7.625 11.71875 
Q 11.71875 9.328125 16.59375 8.109375 
Q 21.484375 6.890625 26.8125 6.890625 
Q 36.078125 6.890625 40.9375 10.546875 
Q 45.796875 14.203125 45.796875 21.1875 
Q 45.796875 27.640625 41.28125 31.265625 
Q 36.765625 34.90625 28.71875 34.90625 
L 20.21875 34.90625 
L 20.21875 43.015625 
L 29.109375 43.015625 
Q 36.375 43.015625 40.234375 45.921875 
Q 44.09375 48.828125 44.09375 54.296875 
Q 44.09375 59.90625 40.109375 62.90625 
Q 36.140625 65.921875 28.71875 65.921875 
Q 24.65625 65.921875 20.015625 65.03125 
Q 15.375 64.15625 9.8125 62.3125 
L 9.8125 71.09375 
Q 15.4375 72.65625 20.34375 73.4375 
Q 25.25 74.21875 29.59375 74.21875 
Q 40.828125 74.21875 47.359375 69.109375 
Q 53.90625 64.015625 53.90625 55.328125 
Q 53.90625 49.265625 50.4375 45.09375 
Q 46.96875 40.921875 40.578125 39.3125 
z
" id="DejaVuSans-51"/>
    </defs>
    <g style="fill:#ffffff;" transform="translate(397.901725 202.127)scale(0.16 -0.16)">
     <use xlink:href="#DejaVuSans-67"/>
     <use x="69.824219" xlink:href="#DejaVuSans-51"/>
    </g>
   </g>
   <g id="text_3">
    <!-- E3 -->
    <defs>
     <path d="M 9.8125 72.90625 
L 55.90625 72.90625 
L 55.90625 64.59375 
L 19.671875 64.59375 
L 19.671875 43.015625 
L 54.390625 43.015625 
L 54.390625 34.71875 
L 19.671875 34.71875 
L 19.671875 8.296875 
L 56.78125 8.296875 
L 56.78125 0 
L 9.8125 0 
z
" id="DejaVuSans-69"/>
    </defs>
    <g style="fill:#ffffff;" transform="translate(398.432975 146.687)scale(0.16 -0.16)">
     <use xlink:href="#DejaVuSans-69"/>
     <use x="63.183594" xlink:href="#DejaVuSans-51"/>
    </g>
   </g>
   <g id="text_4">
    <!-- A3 -->
    <g style="fill:#ffffff;" transform="translate(398.015475 91.247)scale(0.16 -0.16)">
     <use xlink:href="#DejaVuSans-65"/>
     <use x="68.408203" xlink:href="#DejaVuSans-51"/>
    </g>
   </g>
   <g id="text_5">
    <!-- F3 -->
    <defs>
     <path d="M 9.8125 72.90625 
L 51.703125 72.90625 
L 51.703125 64.59375 
L 19.671875 64.59375 
L 19.671875 43.109375 
L 48.578125 43.109375 
L 48.578125 34.8125 
L 19.671875 34.8125 
L 19.671875 0 
L 9.8125 0 
z
" id="DejaVuSans-70"/>
    </defs>
    <g style="fill:#ffffff;" transform="translate(565.276606 146.687)scale(0.16 -0.16)">
     <use xlink:href="#DejaVuSans-70"/>
     <use x="57.519531" xlink:href="#DejaVuSans-51"/>
    </g>
   </g>
   <g id="text_6">
    <!-- E2 -->
    <defs>
     <path d="M 19.1875 8.296875 
L 53.609375 8.296875 
L 53.609375 0 
L 7.328125 0 
L 7.328125 8.296875 
Q 12.9375 14.109375 22.625 23.890625 
Q 32.328125 33.6875 34.8125 36.53125 
Q 39.546875 41.84375 41.421875 45.53125 
Q 43.3125 49.21875 43.3125 52.78125 
Q 43.3125 58.59375 39.234375 62.25 
Q 35.15625 65.921875 28.609375 65.921875 
Q 23.96875 65.921875 18.8125 64.3125 
Q 13.671875 62.703125 7.8125 59.421875 
L 7.8125 69.390625 
Q 13.765625 71.78125 18.9375 73 
Q 24.125 74.21875 28.421875 74.21875 
Q 39.75 74.21875 46.484375 68.546875 
Q 53.21875 62.890625 53.21875 53.421875 
Q 53.21875 48.921875 51.53125 44.890625 
Q 49.859375 40.875 45.40625 35.40625 
Q 44.1875 33.984375 37.640625 27.21875 
Q 31.109375 20.453125 19.1875 8.296875 
z
" id="DejaVuSans-50"/>
    </defs>
    <g style="fill:#ffffff;" transform="translate(721.87399 313.007)scale(0.16 -0.16)">
     <use xlink:href="#DejaVuSans-69"/>
     <use x="63.183594" xlink:href="#DejaVuSans-50"/>
    </g>
   </g>
   <g id="text_7">
    <!-- A2 -->
    <g style="fill:#ffffff;" transform="translate(721.45649 257.567)scale(0.16 -0.16)">
     <use xlink:href="#DejaVuSans-65"/>
     <use x="68.408203" xlink:href="#DejaVuSans-50"/>
    </g>
   </g>
   <g id="text_8">
    <!-- C2 -->
    <g style="fill:#ffffff;" transform="translate(869.579271 368.447)scale(0.16 -0.16)">
     <use xlink:href="#DejaVuSans-67"/>
     <use x="69.824219" xlink:href="#DejaVuSans-50"/>
    </g>
   </g>
   <g id="text_9">
    <!-- F2 -->
    <g style="fill:#ffffff;" transform="translate(870.564271 313.007)scale(0.16 -0.16)">
     <use xlink:href="#DejaVuSans-70"/>
     <use x="57.519531" xlink:href="#DejaVuSans-50"/>
    </g>
   </g>
   <g id="text_10">
    <!-- C4 -->
    <defs>
     <path d="M 37.796875 64.3125 
L 12.890625 25.390625 
L 37.796875 25.390625 
z
M 35.203125 72.90625 
L 47.609375 72.90625 
L 47.609375 25.390625 
L 58.015625 25.390625 
L 58.015625 17.1875 
L 47.609375 17.1875 
L 47.609375 0 
L 37.796875 0 
L 37.796875 17.1875 
L 4.890625 17.1875 
L 4.890625 26.703125 
z
" id="DejaVuSans-52"/>
    </defs>
    <g style="fill:#ffffff;" transform="translate(869.579271 91.247)scale(0.16 -0.16)">
     <use xlink:href="#DejaVuSans-67"/>
     <use x="69.824219" xlink:href="#DejaVuSans-52"/>
    </g>
   </g>
   <g id="patch_21">
    <path clip-path="url(#p4bf997433c)" d="M 260.014037 219.888 
C 265.895181 219.888 271.536241 217.551397 275.694837 213.3928 
C 279.853434 209.234203 282.190037 203.593144 282.190037 197.712 
C 282.190037 191.830856 279.853434 186.189797 275.694837 182.0312 
C 271.536241 177.872603 265.895181 175.536 260.014037 175.536 
C 254.132893 175.536 248.491834 177.872603 244.333237 182.0312 
C 240.174641 186.189797 237.838037 191.830856 237.838037 197.712 
C 237.838037 203.593144 240.174641 209.234203 244.333237 213.3928 
C 248.491834 217.551397 254.132893 219.888 260.014037 219.888 
z
" style="fill:#29cccc;stroke:#29cccc;stroke-linejoin:miter;"/>
   </g>
   <g id="patch_22">
    <path clip-path="url(#p4bf997433c)" d="M 436.297975 330.768 
C 442.179119 330.768 447.820178 328.431397 451.978775 324.2728 
C 456.137372 320.114203 458.473975 314.473144 458.473975 308.592 
C 458.473975 302.710856 456.137372 297.069797 451.978775 292.9112 
C 447.820178 288.752603 442.179119 286.416 436.297975 286.416 
C 430.416831 286.416 424.775772 288.752603 420.617175 292.9112 
C 416.458578 297.069797 414.121975 302.710856 414.121975 308.592 
C 414.121975 314.473144 416.458578 320.114203 420.617175 324.2728 
C 424.775772 328.431397 430.416831 330.768 436.297975 330.768 
z
" style="fill:#29cccc;stroke:#29cccc;stroke-linejoin:miter;"/>
   </g>
   <g id="patch_23">
    <path clip-path="url(#p4bf997433c)" d="M 436.297975 275.328 
C 442.179119 275.328 447.820178 272.991397 451.978775 268.8328 
C 456.137372 264.674203 458.473975 259.033144 458.473975 253.152 
C 458.473975 247.270856 456.137372 241.629797 451.978775 237.4712 
C 447.820178 233.312603 442.179119 230.976 436.297975 230.976 
C 430.416831 230.976 424.775772 233.312603 420.617175 237.4712 
C 416.458578 241.629797 414.121975 247.270856 414.121975 253.152 
C 414.121975 259.033144 416.458578 264.674203 420.617175 268.8328 
C 424.775772 272.991397 430.416831 275.328 436.297975 275.328 
z
" style="fill:#29cccc;stroke:#29cccc;stroke-linejoin:miter;"/>
   </g>
   <g id="patch_24">
    <path clip-path="url(#p4bf997433c)" d="M 436.297975 164.448 
C 442.179119 164.448 447.820178 162.111397 451.978775 157.9528 
C 456.137372 153.794203 458.473975 148.153144 458.473975 142.272 
C 458.473975 136.390856 456.137372 130.749797 451.978775 126.5912 
C 447.820178 122.432603 442.179119 120.096 436.297975 120.096 
C 430.416831 120.096 424.775772 122.432603 420.617175 126.5912 
C 416.458578 130.749797 414.121975 136.390856 414.121975 142.272 
C 414.121975 148.153144 416.458578 153.794203 420.617175 157.9528 
C 424.775772 162.111397 430.416831 164.448 436.297975 164.448 
z
" style="fill:#29cccc;stroke:#29cccc;stroke-linejoin:miter;"/>
   </g>
   <g id="patch_25">
    <path clip-path="url(#p4bf997433c)" d="M 759.73899 386.208 
C 765.620134 386.208 771.261193 383.871397 775.41979 379.7128 
C 779.578387 375.554203 781.91499 369.913144 781.91499 364.032 
C 781.91499 358.150856 779.578387 352.509797 775.41979 348.3512 
C 771.261193 344.192603 765.620134 341.856 759.73899 341.856 
C 753.857846 341.856 748.216787 344.192603 744.05819 348.3512 
C 739.899593 352.509797 737.56299 358.150856 737.56299 364.032 
C 737.56299 369.913144 739.899593 375.554203 744.05819 379.7128 
C 748.216787 383.871397 753.857846 386.208 759.73899 386.208 
z
" style="fill:#29cccc;stroke:#29cccc;stroke-linejoin:miter;"/>
   </g>
   <g id="patch_26">
    <path clip-path="url(#p4bf997433c)" d="M 759.73899 330.768 
C 765.620134 330.768 771.261193 328.431397 775.41979 324.2728 
C 779.578387 320.114203 781.91499 314.473144 781.91499 308.592 
C 781.91499 302.710856 779.578387 297.069797 775.41979 292.9112 
C 771.261193 288.752603 765.620134 286.416 759.73899 286.416 
C 753.857846 286.416 748.216787 288.752603 744.05819 292.9112 
C 739.899593 297.069797 737.56299 302.710856 737.56299 308.592 
C 737.56299 314.473144 739.899593 320.114203 744.05819 324.2728 
C 748.216787 328.431397 753.857846 330.768 759.73899 330.768 
z
" style="fill:#29cccc;stroke:#29cccc;stroke-linejoin:miter;"/>
   </g>
   <g id="patch_27">
    <path clip-path="url(#p4bf997433c)" d="M 759.73899 219.888 
C 765.620134 219.888 771.261193 217.551397 775.41979 213.3928 
C 779.578387 209.234203 781.91499 203.593144 781.91499 197.712 
C 781.91499 191.830856 779.578387 186.189797 775.41979 182.0312 
C 771.261193 177.872603 765.620134 175.536 759.73899 175.536 
C 753.857846 175.536 748.216787 177.872603 744.05819 182.0312 
C 739.899593 186.189797 737.56299 191.830856 737.56299 197.712 
C 737.56299 203.593144 739.899593 209.234203 744.05819 213.3928 
C 748.216787 217.551397 753.857846 219.888 759.73899 219.888 
z
" style="fill:#29cccc;stroke:#29cccc;stroke-linejoin:miter;"/>
   </g>
   <g id="patch_28">
    <path clip-path="url(#p4bf997433c)" d="M 759.73899 109.008 
C 765.620134 109.008 771.261193 106.671397 775.41979 102.5128 
C 779.578387 98.354203 781.91499 92.713144 781.91499 86.832 
C 781.91499 80.950856 779.578387 75.309797 775.41979 71.1512 
C 771.261193 66.992603 765.620134 64.656 759.73899 64.656 
C 753.857846 64.656 748.216787 66.992603 744.05819 71.1512 
C 739.899593 75.309797 737.56299 80.950856 737.56299 86.832 
C 737.56299 92.713144 739.899593 98.354203 744.05819 102.5128 
C 748.216787 106.671397 753.857846 109.008 759.73899 109.008 
z
" style="fill:#29cccc;stroke:#29cccc;stroke-linejoin:miter;"/>
   </g>
   <g id="patch_29">
    <path clip-path="url(#p4bf997433c)" d="M 907.975521 164.448 
C 913.856665 164.448 919.497725 162.111397 923.656321 157.9528 
C 927.814918 153.794203 930.151521 148.153144 930.151521 142.272 
C 930.151521 136.390856 927.814918 130.749797 923.656321 126.5912 
C 919.497725 122.432603 913.856665 120.096 907.975521 120.096 
C 902.094377 120.096 896.453318 122.432603 892.294721 126.5912 
C 888.136125 130.749797 885.799521 136.390856 885.799521 142.272 
C 885.799521 148.153144 888.136125 153.794203 892.294721 157.9528 
C 896.453318 162.111397 902.094377 164.448 907.975521 164.448 
z
" style="fill:#29cccc;stroke:#29cccc;stroke-linejoin:miter;"/>
   </g>
   <g id="text_11">
    <!-- B2 -->
    <defs>
     <path d="M 19.671875 34.8125 
L 19.671875 8.109375 
L 35.5 8.109375 
Q 43.453125 8.109375 47.28125 11.40625 
Q 51.125 14.703125 51.125 21.484375 
Q 51.125 28.328125 47.28125 31.5625 
Q 43.453125 34.8125 35.5 34.8125 
z
M 19.671875 64.796875 
L 19.671875 42.828125 
L 34.28125 42.828125 
Q 41.5 42.828125 45.03125 45.53125 
Q 48.578125 48.25 48.578125 53.8125 
Q 48.578125 59.328125 45.03125 62.0625 
Q 41.5 64.796875 34.28125 64.796875 
z
M 9.8125 72.90625 
L 35.015625 72.90625 
Q 46.296875 72.90625 52.390625 68.21875 
Q 58.5 63.53125 58.5 54.890625 
Q 58.5 48.1875 55.375 44.234375 
Q 52.25 40.28125 46.1875 39.3125 
Q 53.46875 37.75 57.5 32.78125 
Q 61.53125 27.828125 61.53125 20.40625 
Q 61.53125 10.640625 54.890625 5.3125 
Q 48.25 0 35.984375 0 
L 9.8125 0 
z
" id="DejaVuSans-66"/>
    </defs>
    <g style="fill:#ffffff;" transform="translate(249.435287 202.127)scale(0.16 -0.16)">
     <use xlink:href="#DejaVuSans-66"/>
     <use x="68.603516" xlink:href="#DejaVuSans-50"/>
    </g>
   </g>
   <g id="text_12">
    <!-- D2 -->
    <defs>
     <path d="M 19.671875 64.796875 
L 19.671875 8.109375 
L 31.59375 8.109375 
Q 46.6875 8.109375 53.6875 14.9375 
Q 60.6875 21.78125 60.6875 36.53125 
Q 60.6875 51.171875 53.6875 57.984375 
Q 46.6875 64.796875 31.59375 64.796875 
z
M 9.8125 72.90625 
L 30.078125 72.90625 
Q 51.265625 72.90625 61.171875 64.09375 
Q 71.09375 55.28125 71.09375 36.53125 
Q 71.09375 17.671875 61.125 8.828125 
Q 51.171875 0 30.078125 0 
L 9.8125 0 
z
" id="DejaVuSans-68"/>
    </defs>
    <g style="fill:#ffffff;" transform="translate(425.047975 313.007)scale(0.16 -0.16)">
     <use xlink:href="#DejaVuSans-68"/>
     <use x="77.001953" xlink:href="#DejaVuSans-50"/>
    </g>
   </g>
   <g id="text_13">
    <!-- G2 -->
    <defs>
     <path d="M 59.515625 10.40625 
L 59.515625 29.984375 
L 43.40625 29.984375 
L 43.40625 38.09375 
L 69.28125 38.09375 
L 69.28125 6.78125 
Q 63.578125 2.734375 56.6875 0.65625 
Q 49.8125 -1.421875 42 -1.421875 
Q 24.90625 -1.421875 15.25 8.5625 
Q 5.609375 18.5625 5.609375 36.375 
Q 5.609375 54.25 15.25 64.234375 
Q 24.90625 74.21875 42 74.21875 
Q 49.125 74.21875 55.546875 72.453125 
Q 61.96875 70.703125 67.390625 67.28125 
L 67.390625 56.78125 
Q 61.921875 61.421875 55.765625 63.765625 
Q 49.609375 66.109375 42.828125 66.109375 
Q 29.4375 66.109375 22.71875 58.640625 
Q 16.015625 51.171875 16.015625 36.375 
Q 16.015625 21.625 22.71875 14.15625 
Q 29.4375 6.6875 42.828125 6.6875 
Q 48.046875 6.6875 52.140625 7.59375 
Q 56.25 8.5 59.515625 10.40625 
z
" id="DejaVuSans-71"/>
    </defs>
    <g style="fill:#ffffff;" transform="translate(425.009225 257.567)scale(0.16 -0.16)">
     <use xlink:href="#DejaVuSans-71"/>
     <use x="77.490234" xlink:href="#DejaVuSans-50"/>
    </g>
   </g>
   <g id="text_14">
    <!-- E3 -->
    <g style="fill:#ffffff;" transform="translate(426.152975 146.687)scale(0.16 -0.16)">
     <use xlink:href="#DejaVuSans-69"/>
     <use x="63.183594" xlink:href="#DejaVuSans-51"/>
    </g>
   </g>
   <g id="text_15">
    <!-- B1 -->
    <g style="fill:#ffffff;" transform="translate(749.16024 368.447)scale(0.16 -0.16)">
     <use xlink:href="#DejaVuSans-66"/>
     <use x="68.603516" xlink:href="#DejaVuSans-49"/>
    </g>
   </g>
   <g id="text_16">
    <!-- E2 -->
    <g style="fill:#ffffff;" transform="translate(749.59399 313.007)scale(0.16 -0.16)">
     <use xlink:href="#DejaVuSans-69"/>
     <use x="63.183594" xlink:href="#DejaVuSans-50"/>
    </g>
   </g>
   <g id="text_17">
    <!-- D3 -->
    <g style="fill:#ffffff;" transform="translate(748.48899 202.127)scale(0.16 -0.16)">
     <use xlink:href="#DejaVuSans-68"/>
     <use x="77.001953" xlink:href="#DejaVuSans-51"/>
    </g>
   </g>
   <g id="text_18">
    <!-- B3 -->
    <g style="fill:#ffffff;" transform="translate(749.16024 91.247)scale(0.16 -0.16)">
     <use xlink:href="#DejaVuSans-66"/>
     <use x="68.603516" xlink:href="#DejaVuSans-51"/>
    </g>
   </g>
   <g id="text_19">
    <!-- G3 -->
    <g style="fill:#ffffff;" transform="translate(896.686771 146.687)scale(0.16 -0.16)">
     <use xlink:href="#DejaVuSans-71"/>
     <use x="77.490234" xlink:href="#DejaVuSans-51"/>
    </g>
   </g>
   <g id="text_20">
    <!-- 3 -->
    <g style="fill:#0000ff;" transform="translate(135.244636 397.27075)scale(0.2 -0.2)">
     <use xlink:href="#DejaVuSans-51"/>
    </g>
   </g>
   <g id="text_21">
    <!-- 4 -->
    <g style="fill:#0000ff;" transform="translate(316.618439 397.27075)scale(0.2 -0.2)">
     <use xlink:href="#DejaVuSans-52"/>
    </g>
   </g>
   <g id="text_22">
    <!-- 5 -->
    <defs>
     <path d="M 10.796875 72.90625 
L 49.515625 72.90625 
L 49.515625 64.59375 
L 19.828125 64.59375 
L 19.828125 46.734375 
Q 21.96875 47.46875 24.109375 47.828125 
Q 26.265625 48.1875 28.421875 48.1875 
Q 40.625 48.1875 47.75 41.5 
Q 54.890625 34.8125 54.890625 23.390625 
Q 54.890625 11.625 47.5625 5.09375 
Q 40.234375 -1.421875 26.90625 -1.421875 
Q 22.3125 -1.421875 17.546875 -0.640625 
Q 12.796875 0.140625 7.71875 1.703125 
L 7.71875 11.625 
Q 12.109375 9.234375 16.796875 8.0625 
Q 21.484375 6.890625 26.703125 6.890625 
Q 35.15625 6.890625 40.078125 11.328125 
Q 45.015625 15.765625 45.015625 23.390625 
Q 45.015625 31 40.078125 35.4375 
Q 35.15625 39.890625 26.703125 39.890625 
Q 22.75 39.890625 18.8125 39.015625 
Q 14.890625 38.140625 10.796875 36.28125 
z
" id="DejaVuSans-53"/>
    </defs>
    <g style="fill:#0000ff;" transform="translate(487.812512 397.27075)scale(0.2 -0.2)">
     <use xlink:href="#DejaVuSans-53"/>
    </g>
   </g>
   <g id="text_23">
    <!-- 6 -->
    <defs>
     <path d="M 33.015625 40.375 
Q 26.375 40.375 22.484375 35.828125 
Q 18.609375 31.296875 18.609375 23.390625 
Q 18.609375 15.53125 22.484375 10.953125 
Q 26.375 6.390625 33.015625 6.390625 
Q 39.65625 6.390625 43.53125 10.953125 
Q 47.40625 15.53125 47.40625 23.390625 
Q 47.40625 31.296875 43.53125 35.828125 
Q 39.65625 40.375 33.015625 40.375 
z
M 52.59375 71.296875 
L 52.59375 62.3125 
Q 48.875 64.0625 45.09375 64.984375 
Q 41.3125 65.921875 37.59375 65.921875 
Q 27.828125 65.921875 22.671875 59.328125 
Q 17.53125 52.734375 16.796875 39.40625 
Q 19.671875 43.65625 24.015625 45.921875 
Q 28.375 48.1875 33.59375 48.1875 
Q 44.578125 48.1875 50.953125 41.515625 
Q 57.328125 34.859375 57.328125 23.390625 
Q 57.328125 12.15625 50.6875 5.359375 
Q 44.046875 -1.421875 33.015625 -1.421875 
Q 20.359375 -1.421875 13.671875 8.265625 
Q 6.984375 17.96875 6.984375 36.375 
Q 6.984375 53.65625 15.1875 63.9375 
Q 23.390625 74.21875 37.203125 74.21875 
Q 40.921875 74.21875 44.703125 73.484375 
Q 48.484375 72.75 52.59375 71.296875 
z
" id="DejaVuSans-54"/>
    </defs>
    <g style="fill:#0000ff;" transform="translate(649.3982 397.27075)scale(0.2 -0.2)">
     <use xlink:href="#DejaVuSans-54"/>
    </g>
   </g>
   <g id="text_24">
    <!-- 7 -->
    <defs>
     <path d="M 8.203125 72.90625 
L 55.078125 72.90625 
L 55.078125 68.703125 
L 28.609375 0 
L 18.3125 0 
L 43.21875 64.59375 
L 8.203125 64.59375 
z
" id="DejaVuSans-55"/>
    </defs>
    <g style="fill:#0000ff;" transform="translate(801.91478 397.27075)scale(0.2 -0.2)">
     <use xlink:href="#DejaVuSans-55"/>
    </g>
   </g>
   <g id="text_25">
    <!-- 8 -->
    <defs>
     <path d="M 31.78125 34.625 
Q 24.75 34.625 20.71875 30.859375 
Q 16.703125 27.09375 16.703125 20.515625 
Q 16.703125 13.921875 20.71875 10.15625 
Q 24.75 6.390625 31.78125 6.390625 
Q 38.8125 6.390625 42.859375 10.171875 
Q 46.921875 13.96875 46.921875 20.515625 
Q 46.921875 27.09375 42.890625 30.859375 
Q 38.875 34.625 31.78125 34.625 
z
M 21.921875 38.8125 
Q 15.578125 40.375 12.03125 44.71875 
Q 8.5 49.078125 8.5 55.328125 
Q 8.5 64.0625 14.71875 69.140625 
Q 20.953125 74.21875 31.78125 74.21875 
Q 42.671875 74.21875 48.875 69.140625 
Q 55.078125 64.0625 55.078125 55.328125 
Q 55.078125 49.078125 51.53125 44.71875 
Q 48 40.375 41.703125 38.8125 
Q 48.828125 37.15625 52.796875 32.3125 
Q 56.78125 27.484375 56.78125 20.515625 
Q 56.78125 9.90625 50.3125 4.234375 
Q 43.84375 -1.421875 31.78125 -1.421875 
Q 19.734375 -1.421875 13.25 4.234375 
Q 6.78125 9.90625 6.78125 20.515625 
Q 6.78125 27.484375 10.78125 32.3125 
Q 14.796875 37.15625 21.921875 38.8125 
z
M 18.3125 54.390625 
Q 18.3125 48.734375 21.84375 45.5625 
Q 25.390625 42.390625 31.78125 42.390625 
Q 38.140625 42.390625 41.71875 45.5625 
Q 45.3125 48.734375 45.3125 54.390625 
Q 45.3125 60.0625 41.71875 63.234375 
Q 38.140625 66.40625 31.78125 66.40625 
Q 25.390625 66.40625 21.84375 63.234375 
Q 18.3125 60.0625 18.3125 54.390625 
z
" id="DejaVuSans-56"/>
    </defs>
    <g style="fill:#0000ff;" transform="translate(945.871263 397.27075)scale(0.2 -0.2)">
     <use xlink:href="#DejaVuSans-56"/>
    </g>
   </g>
   <g id="text_26">
    <!-- 6 -->
    <g style="fill:#0000ff;" transform="translate(107.524636 369.55075)scale(0.2 -0.2)">
     <use xlink:href="#DejaVuSans-54"/>
    </g>
   </g>
   <g id="text_27">
    <!-- 5 -->
    <g style="fill:#0000ff;" transform="translate(107.524636 314.11075)scale(0.2 -0.2)">
     <use xlink:href="#DejaVuSans-53"/>
    </g>
   </g>
   <g id="text_28">
    <!-- 4 -->
    <g style="fill:#0000ff;" transform="translate(107.524636 258.67075)scale(0.2 -0.2)">
     <use xlink:href="#DejaVuSans-52"/>
    </g>
   </g>
   <g id="text_29">
    <!-- 3 -->
    <g style="fill:#0000ff;" transform="translate(107.524636 203.23075)scale(0.2 -0.2)">
     <use xlink:href="#DejaVuSans-51"/>
    </g>
   </g>
   <g id="text_30">
    <!-- 2 -->
    <g style="fill:#0000ff;" transform="translate(107.524636 147.79075)scale(0.2 -0.2)">
     <use xlink:href="#DejaVuSans-50"/>
    </g>
   </g>
   <g id="text_31">
    <!-- 1 -->
    <g style="fill:#0000ff;" transform="translate(107.524636 92.35075)scale(0.2 -0.2)">
     <use xlink:href="#DejaVuSans-49"/>
    </g>
   </g>
  </g>
 </g>
 <defs>
  <clipPath id="p4bf997433c">
   <rect height="343.728" width="821.714626" x="136.063136" y="53.568"/>
  </clipPath>
 </defs>
</svg>
