<?xml version="1.0" encoding="utf-8" standalone="no"?>
<!DOCTYPE svg PUBLIC "-//W3C//DTD SVG 1.1//EN"
  "http://www.w3.org/Graphics/SVG/1.1/DTD/svg11.dtd">
<!-- Created with matplotlib (https://matplotlib.org/) -->
<svg height="446.4pt" version="1.1" viewBox="0 0 2581.854545 446.4" width="2581.854545pt" xmlns="http://www.w3.org/2000/svg" xmlns:xlink="http://www.w3.org/1999/xlink">
 <defs>
  <style type="text/css">
*{stroke-linecap:butt;stroke-linejoin:round;}
  </style>
 </defs>
 <g id="figure_1">
  <g id="patch_1">
   <path d="M 0 446.4 
L 2581.854545 446.4 
L 2581.854545 0 
L 0 0 
z
" style="fill:#ffffff;"/>
  </g>
  <g id="axes_1">
   <g id="patch_2">
    <path clip-path="url(#p39b5f73254)" d="M 905.526106 225.432 
L 1001.605531 225.432 
L 1001.605531 86.832 
L 905.526106 86.832 
z
" style="fill:#cccccc;stroke:#cccccc;stroke-linejoin:miter;"/>
   </g>
   <g id="patch_3">
    <path clip-path="url(#p39b5f73254)" d="M 1268.57637 225.432 
L 1354.173406 225.432 
L 1354.173406 86.832 
L 1268.57637 86.832 
z
" style="fill:#cccccc;stroke:#cccccc;stroke-linejoin:miter;"/>
   </g>
   <g id="patch_4">
    <path clip-path="url(#p39b5f73254)" d="M 1592.017385 225.432 
L 1668.275675 225.432 
L 1668.275675 86.832 
L 1592.017385 86.832 
z
" style="fill:#cccccc;stroke:#cccccc;stroke-linejoin:miter;"/>
   </g>
   <g id="patch_5">
    <path clip-path="url(#p39b5f73254)" d="M 1880.17057 225.432 
L 1948.108983 225.432 
L 1948.108983 86.832 
L 1880.17057 86.832 
z
" style="fill:#cccccc;stroke:#cccccc;stroke-linejoin:miter;"/>
   </g>
   <g id="patch_6">
    <path clip-path="url(#p39b5f73254)" d="M 2254.541287 364.032 
L 2311.670455 364.032 
L 2311.670455 86.832 
L 2254.541287 86.832 
z
" style="fill:#cccccc;stroke:#cccccc;stroke-linejoin:miter;"/>
   </g>
   <g id="patch_7">
    <path clip-path="url(#p39b5f73254)" d="M 2569.34828 225.432 
L 2617.387993 225.432 
L 2617.387993 86.832 
L 2569.34828 86.832 
z
" style="fill:#cccccc;stroke:#cccccc;stroke-linejoin:miter;"/>
   </g>
   <g id="patch_8">
    <path clip-path="url(#p39b5f73254)" d="M 2750.873412 225.432 
L 2793.67193 225.432 
L 2793.67193 86.832 
L 2750.873412 86.832 
z
" style="fill:#cccccc;stroke:#cccccc;stroke-linejoin:miter;"/>
   </g>
   <g id="patch_9">
    <path clip-path="url(#p39b5f73254)" d="M 2912.59392 225.432 
L 2950.723065 225.432 
L 2950.723065 86.832 
L 2912.59392 86.832 
z
" style="fill:#cccccc;stroke:#cccccc;stroke-linejoin:miter;"/>
   </g>
   <g id="patch_10">
    <path clip-path="url(#p39b5f73254)" d="M 3056.670512 225.432 
L 3090.639719 225.432 
L 3090.639719 86.832 
L 3056.670512 86.832 
z
" style="fill:#cccccc;stroke:#cccccc;stroke-linejoin:miter;"/>
   </g>
   <g id="line2d_1">
    <path clip-path="url(#p39b5f73254)" d="M 334.730455 364.032 
L 334.730455 86.832 
" style="fill:none;stroke:#000000;stroke-linecap:square;stroke-width:3;"/>
   </g>
   <g id="line2d_2">
    <path clip-path="url(#p39b5f73254)" d="M 390.170455 364.032 
L 390.170455 86.832 
" style="fill:none;stroke:#000000;stroke-linecap:square;stroke-width:3;"/>
   </g>
   <g id="line2d_3">
    <path clip-path="url(#p39b5f73254)" d="M 605.861471 364.032 
L 605.861471 86.832 
" style="fill:none;stroke:#000000;stroke-linecap:square;stroke-width:3;"/>
   </g>
   <g id="line2d_4">
    <path clip-path="url(#p39b5f73254)" d="M 809.446681 364.032 
L 809.446681 86.832 
" style="fill:none;stroke:#000000;stroke-linecap:square;stroke-width:3;"/>
   </g>
   <g id="line2d_5">
    <path clip-path="url(#p39b5f73254)" d="M 1001.605531 364.032 
L 1001.605531 86.832 
" style="fill:none;stroke:#000000;stroke-linecap:square;stroke-width:3;"/>
   </g>
   <g id="line2d_6">
    <path clip-path="url(#p39b5f73254)" d="M 1182.979333 364.032 
L 1182.979333 86.832 
" style="fill:none;stroke:#000000;stroke-linecap:square;stroke-width:3;"/>
   </g>
   <g id="line2d_7">
    <path clip-path="url(#p39b5f73254)" d="M 1354.173406 364.032 
L 1354.173406 86.832 
" style="fill:none;stroke:#000000;stroke-linecap:square;stroke-width:3;"/>
   </g>
   <g id="line2d_8">
    <path clip-path="url(#p39b5f73254)" d="M 1515.759094 364.032 
L 1515.759094 86.832 
" style="fill:none;stroke:#000000;stroke-linecap:square;stroke-width:3;"/>
   </g>
   <g id="line2d_9">
    <path clip-path="url(#p39b5f73254)" d="M 1668.275675 364.032 
L 1668.275675 86.832 
" style="fill:none;stroke:#000000;stroke-linecap:square;stroke-width:3;"/>
   </g>
   <g id="line2d_10">
    <path clip-path="url(#p39b5f73254)" d="M 1812.232157 364.032 
L 1812.232157 86.832 
" style="fill:none;stroke:#000000;stroke-linecap:square;stroke-width:3;"/>
   </g>
   <g id="line2d_11">
    <path clip-path="url(#p39b5f73254)" d="M 1948.108983 364.032 
L 1948.108983 86.832 
" style="fill:none;stroke:#000000;stroke-linecap:square;stroke-width:3;"/>
   </g>
   <g id="line2d_12">
    <path clip-path="url(#p39b5f73254)" d="M 2076.359629 364.032 
L 2076.359629 86.832 
" style="fill:none;stroke:#000000;stroke-linecap:square;stroke-width:3;"/>
   </g>
   <g id="line2d_13">
    <path clip-path="url(#p39b5f73254)" d="M 2197.412119 364.032 
L 2197.412119 86.832 
" style="fill:none;stroke:#000000;stroke-linecap:square;stroke-width:3;"/>
   </g>
   <g id="line2d_14">
    <path clip-path="url(#p39b5f73254)" d="M 2311.670455 364.032 
L 2311.670455 86.832 
" style="fill:none;stroke:#000000;stroke-linecap:square;stroke-width:3;"/>
   </g>
   <g id="line2d_15">
    <path clip-path="url(#p39b5f73254)" d="M 334.730455 364.032 
L 2582.854545 364.032 
" style="fill:none;stroke:#808080;stroke-linecap:square;stroke-width:3;"/>
   </g>
   <g id="line2d_16">
    <path clip-path="url(#p39b5f73254)" d="M 334.730455 308.592 
L 2582.854545 308.592 
" style="fill:none;stroke:#808080;stroke-linecap:square;stroke-width:3;"/>
   </g>
   <g id="line2d_17">
    <path clip-path="url(#p39b5f73254)" d="M 334.730455 253.152 
L 2582.854545 253.152 
" style="fill:none;stroke:#808080;stroke-linecap:square;stroke-width:3;"/>
   </g>
   <g id="line2d_18">
    <path clip-path="url(#p39b5f73254)" d="M 334.730455 197.712 
L 2582.854545 197.712 
" style="fill:none;stroke:#808080;stroke-linecap:square;stroke-width:3;"/>
   </g>
   <g id="line2d_19">
    <path clip-path="url(#p39b5f73254)" d="M 334.730455 142.272 
L 2582.854545 142.272 
" style="fill:none;stroke:#808080;stroke-linecap:square;stroke-width:3;"/>
   </g>
   <g id="line2d_20">
    <path clip-path="url(#p39b5f73254)" d="M 334.730455 86.832 
L 2582.854545 86.832 
" style="fill:none;stroke:#808080;stroke-linecap:square;stroke-width:3;"/>
   </g>
   <g id="line2d_21">
    <path clip-path="url(#p39b5f73254)" d="M 334.730455 364.032 
L 334.730455 86.832 
" style="fill:none;stroke:#000000;stroke-linecap:square;stroke-width:10;"/>
   </g>
   <g id="line2d_22">
    <path clip-path="url(#p39b5f73254)" style="fill:none;stroke:#000000;stroke-linecap:square;stroke-width:5;"/>
   </g>
   <g id="matplotlib.axis_1"/>
   <g id="matplotlib.axis_2"/>
   <g id="patch_11">
    <path clip-path="url(#p39b5f73254)" d="M 340.274455 386.208 
C 346.155598 386.208 351.796658 383.871397 355.955255 379.7128 
C 360.113851 375.554203 362.450455 369.913144 362.450455 364.032 
C 362.450455 358.150856 360.113851 352.509797 355.955255 348.3512 
C 351.796658 344.192603 346.155598 341.856 340.274455 341.856 
C 334.393311 341.856 328.752251 344.192603 324.593655 348.3512 
C 320.435058 352.509797 318.098455 358.150856 318.098455 364.032 
C 318.098455 369.913144 320.435058 375.554203 324.593655 379.7128 
C 328.752251 383.871397 334.393311 386.208 340.274455 386.208 
z
" style="fill:#cc2929;stroke:#cc2929;stroke-linejoin:miter;"/>
   </g>
   <g id="patch_12">
    <path clip-path="url(#p39b5f73254)" d="M 340.274455 219.888 
C 346.155598 219.888 351.796658 217.551397 355.955255 213.3928 
C 360.113851 209.234203 362.450455 203.593144 362.450455 197.712 
C 362.450455 191.830856 360.113851 186.189797 355.955255 182.0312 
C 351.796658 177.872603 346.155598 175.536 340.274455 175.536 
C 334.393311 175.536 328.752251 177.872603 324.593655 182.0312 
C 320.435058 186.189797 318.098455 191.830856 318.098455 197.712 
C 318.098455 203.593144 320.435058 209.234203 324.593655 213.3928 
C 328.752251 217.551397 334.393311 219.888 340.274455 219.888 
z
" style="fill:#cc2929;stroke:#cc2929;stroke-linejoin:miter;"/>
   </g>
   <g id="patch_13">
    <path clip-path="url(#p39b5f73254)" d="M 340.274455 109.008 
C 346.155598 109.008 351.796658 106.671397 355.955255 102.5128 
C 360.113851 98.354203 362.450455 92.713144 362.450455 86.832 
C 362.450455 80.950856 360.113851 75.309797 355.955255 71.1512 
C 351.796658 66.992603 346.155598 64.656 340.274455 64.656 
C 334.393311 64.656 328.752251 66.992603 324.593655 71.1512 
C 320.435058 75.309797 318.098455 80.950856 318.098455 86.832 
C 318.098455 92.713144 320.435058 98.354203 324.593655 102.5128 
C 328.752251 106.671397 334.393311 109.008 340.274455 109.008 
z
" style="fill:#cc2929;stroke:#cc2929;stroke-linejoin:miter;"/>
   </g>
   <g id="patch_14">
    <path clip-path="url(#p39b5f73254)" d="M 475.839963 164.448 
C 481.721107 164.448 487.362166 162.111397 491.520763 157.9528 
C 495.679359 153.794203 498.015963 148.153144 498.015963 142.272 
C 498.015963 136.390856 495.679359 130.749797 491.520763 126.5912 
C 487.362166 122.432603 481.721107 120.096 475.839963 120.096 
C 469.958819 120.096 464.31776 122.432603 460.159163 126.5912 
C 456.000566 130.749797 453.663963 136.390856 453.663963 142.272 
C 453.663963 148.153144 456.000566 153.794203 460.159163 157.9528 
C 464.31776 162.111397 469.958819 164.448 475.839963 164.448 
z
" style="fill:#cc2929;stroke:#cc2929;stroke-linejoin:miter;"/>
   </g>
   <g id="patch_15">
    <path clip-path="url(#p39b5f73254)" d="M 685.478076 275.328 
C 691.35922 275.328 697.000279 272.991397 701.158876 268.8328 
C 705.317473 264.674203 707.654076 259.033144 707.654076 253.152 
C 707.654076 247.270856 705.317473 241.629797 701.158876 237.4712 
C 697.000279 233.312603 691.35922 230.976 685.478076 230.976 
C 679.596932 230.976 673.955873 233.312603 669.797276 237.4712 
C 665.638679 241.629797 663.302076 247.270856 663.302076 253.152 
C 663.302076 259.033144 665.638679 264.674203 669.797276 268.8328 
C 673.955873 272.991397 679.596932 275.328 685.478076 275.328 
z
" style="fill:#cc2929;stroke:#cc2929;stroke-linejoin:miter;"/>
   </g>
   <g id="patch_16">
    <path clip-path="url(#p39b5f73254)" d="M 883.350106 386.208 
C 889.23125 386.208 894.872309 383.871397 899.030906 379.7128 
C 903.189502 375.554203 905.526106 369.913144 905.526106 364.032 
C 905.526106 358.150856 903.189502 352.509797 899.030906 348.3512 
C 894.872309 344.192603 889.23125 341.856 883.350106 341.856 
C 877.468962 341.856 871.827903 344.192603 867.669306 348.3512 
C 863.510709 352.509797 861.174106 358.150856 861.174106 364.032 
C 861.174106 369.913144 863.510709 375.554203 867.669306 379.7128 
C 871.827903 383.871397 877.468962 386.208 883.350106 386.208 
z
" style="fill:#cc2929;stroke:#cc2929;stroke-linejoin:miter;"/>
   </g>
   <g id="patch_17">
    <path clip-path="url(#p39b5f73254)" d="M 883.350106 330.768 
C 889.23125 330.768 894.872309 328.431397 899.030906 324.2728 
C 903.189502 320.114203 905.526106 314.473144 905.526106 308.592 
C 905.526106 302.710856 903.189502 297.069797 899.030906 292.9112 
C 894.872309 288.752603 889.23125 286.416 883.350106 286.416 
C 877.468962 286.416 871.827903 288.752603 867.669306 292.9112 
C 863.510709 297.069797 861.174106 302.710856 861.174106 308.592 
C 861.174106 314.473144 863.510709 320.114203 867.669306 324.2728 
C 871.827903 328.431397 877.468962 330.768 883.350106 330.768 
z
" style="fill:#cc2929;stroke:#cc2929;stroke-linejoin:miter;"/>
   </g>
   <g id="patch_18">
    <path clip-path="url(#p39b5f73254)" d="M 883.350106 109.008 
C 889.23125 109.008 894.872309 106.671397 899.030906 102.5128 
C 903.189502 98.354203 905.526106 92.713144 905.526106 86.832 
C 905.526106 80.950856 903.189502 75.309797 899.030906 71.1512 
C 894.872309 66.992603 889.23125 64.656 883.350106 64.656 
C 877.468962 64.656 871.827903 66.992603 867.669306 71.1512 
C 863.510709 75.309797 861.174106 80.950856 861.174106 86.832 
C 861.174106 92.713144 863.510709 98.354203 867.669306 102.5128 
C 871.827903 106.671397 877.468962 109.008 883.350106 109.008 
z
" style="fill:#cc2929;stroke:#cc2929;stroke-linejoin:miter;"/>
   </g>
   <g id="patch_19">
    <path clip-path="url(#p39b5f73254)" d="M 1246.40037 275.328 
C 1252.281514 275.328 1257.922573 272.991397 1262.08117 268.8328 
C 1266.239767 264.674203 1268.57637 259.033144 1268.57637 253.152 
C 1268.57637 247.270856 1266.239767 241.629797 1262.08117 237.4712 
C 1257.922573 233.312603 1252.281514 230.976 1246.40037 230.976 
C 1240.519226 230.976 1234.878167 233.312603 1230.71957 237.4712 
C 1226.560973 241.629797 1224.22437 247.270856 1224.22437 253.152 
C 1224.22437 259.033144 1226.560973 264.674203 1230.71957 268.8328 
C 1234.878167 272.991397 1240.519226 275.328 1246.40037 275.328 
z
" style="fill:#cc2929;stroke:#cc2929;stroke-linejoin:miter;"/>
   </g>
   <g id="patch_20">
    <path clip-path="url(#p39b5f73254)" d="M 1246.40037 219.888 
C 1252.281514 219.888 1257.922573 217.551397 1262.08117 213.3928 
C 1266.239767 209.234203 1268.57637 203.593144 1268.57637 197.712 
C 1268.57637 191.830856 1266.239767 186.189797 1262.08117 182.0312 
C 1257.922573 177.872603 1252.281514 175.536 1246.40037 175.536 
C 1240.519226 175.536 1234.878167 177.872603 1230.71957 182.0312 
C 1226.560973 186.189797 1224.22437 191.830856 1224.22437 197.712 
C 1224.22437 203.593144 1226.560973 209.234203 1230.71957 213.3928 
C 1234.878167 217.551397 1240.519226 219.888 1246.40037 219.888 
z
" style="fill:#cc2929;stroke:#cc2929;stroke-linejoin:miter;"/>
   </g>
   <g id="patch_21">
    <path clip-path="url(#p39b5f73254)" d="M 1246.40037 164.448 
C 1252.281514 164.448 1257.922573 162.111397 1262.08117 157.9528 
C 1266.239767 153.794203 1268.57637 148.153144 1268.57637 142.272 
C 1268.57637 136.390856 1266.239767 130.749797 1262.08117 126.5912 
C 1257.922573 122.432603 1252.281514 120.096 1246.40037 120.096 
C 1240.519226 120.096 1234.878167 122.432603 1230.71957 126.5912 
C 1226.560973 130.749797 1224.22437 136.390856 1224.22437 142.272 
C 1224.22437 148.153144 1226.560973 153.794203 1230.71957 157.9528 
C 1234.878167 162.111397 1240.519226 164.448 1246.40037 164.448 
z
" style="fill:#cc2929;stroke:#cc2929;stroke-linejoin:miter;"/>
   </g>
   <g id="patch_22">
    <path clip-path="url(#p39b5f73254)" d="M 1569.841385 330.768 
C 1575.722529 330.768 1581.363588 328.431397 1585.522185 324.2728 
C 1589.680781 320.114203 1592.017385 314.473144 1592.017385 308.592 
C 1592.017385 302.710856 1589.680781 297.069797 1585.522185 292.9112 
C 1581.363588 288.752603 1575.722529 286.416 1569.841385 286.416 
C 1563.960241 286.416 1558.319181 288.752603 1554.160585 292.9112 
C 1550.001988 297.069797 1547.665385 302.710856 1547.665385 308.592 
C 1547.665385 314.473144 1550.001988 320.114203 1554.160585 324.2728 
C 1558.319181 328.431397 1563.960241 330.768 1569.841385 330.768 
z
" style="fill:#cc2929;stroke:#cc2929;stroke-linejoin:miter;"/>
   </g>
   <g id="patch_23">
    <path clip-path="url(#p39b5f73254)" d="M 1718.077916 386.208 
C 1723.95906 386.208 1729.600119 383.871397 1733.758716 379.7128 
C 1737.917313 375.554203 1740.253916 369.913144 1740.253916 364.032 
C 1740.253916 358.150856 1737.917313 352.509797 1733.758716 348.3512 
C 1729.600119 344.192603 1723.95906 341.856 1718.077916 341.856 
C 1712.196772 341.856 1706.555713 344.192603 1702.397116 348.3512 
C 1698.238519 352.509797 1695.901916 358.150856 1695.901916 364.032 
C 1695.901916 369.913144 1698.238519 375.554203 1702.397116 379.7128 
C 1706.555713 383.871397 1712.196772 386.208 1718.077916 386.208 
z
" style="fill:#cc2929;stroke:#cc2929;stroke-linejoin:miter;"/>
   </g>
   <g id="patch_24">
    <path clip-path="url(#p39b5f73254)" d="M 1718.077916 164.448 
C 1723.95906 164.448 1729.600119 162.111397 1733.758716 157.9528 
C 1737.917313 153.794203 1740.253916 148.153144 1740.253916 142.272 
C 1740.253916 136.390856 1737.917313 130.749797 1733.758716 126.5912 
C 1729.600119 122.432603 1723.95906 120.096 1718.077916 120.096 
C 1712.196772 120.096 1706.555713 122.432603 1702.397116 126.5912 
C 1698.238519 130.749797 1695.901916 136.390856 1695.901916 142.272 
C 1695.901916 148.153144 1698.238519 153.794203 1702.397116 157.9528 
C 1706.555713 162.111397 1712.196772 164.448 1718.077916 164.448 
z
" style="fill:#cc2929;stroke:#cc2929;stroke-linejoin:miter;"/>
   </g>
   <g id="patch_25">
    <path clip-path="url(#p39b5f73254)" d="M 1718.077916 109.008 
C 1723.95906 109.008 1729.600119 106.671397 1733.758716 102.5128 
C 1737.917313 98.354203 1740.253916 92.713144 1740.253916 86.832 
C 1740.253916 80.950856 1737.917313 75.309797 1733.758716 71.1512 
C 1729.600119 66.992603 1723.95906 64.656 1718.077916 64.656 
C 1712.196772 64.656 1706.555713 66.992603 1702.397116 71.1512 
C 1698.238519 75.309797 1695.901916 80.950856 1695.901916 86.832 
C 1695.901916 92.713144 1698.238519 98.354203 1702.397116 102.5128 
C 1706.555713 106.671397 1712.196772 109.008 1718.077916 109.008 
z
" style="fill:#cc2929;stroke:#cc2929;stroke-linejoin:miter;"/>
   </g>
   <g id="patch_26">
    <path clip-path="url(#p39b5f73254)" d="M 1857.99457 219.888 
C 1863.875714 219.888 1869.516773 217.551397 1873.67537 213.3928 
C 1877.833967 209.234203 1880.17057 203.593144 1880.17057 197.712 
C 1880.17057 191.830856 1877.833967 186.189797 1873.67537 182.0312 
C 1869.516773 177.872603 1863.875714 175.536 1857.99457 175.536 
C 1852.113426 175.536 1846.472367 177.872603 1842.31377 182.0312 
C 1838.155173 186.189797 1835.81857 191.830856 1835.81857 197.712 
C 1835.81857 203.593144 1838.155173 209.234203 1842.31377 213.3928 
C 1846.472367 217.551397 1852.113426 219.888 1857.99457 219.888 
z
" style="fill:#cc2929;stroke:#cc2929;stroke-linejoin:miter;"/>
   </g>
   <g id="patch_27">
    <path clip-path="url(#p39b5f73254)" d="M 1990.058306 330.768 
C 1995.93945 330.768 2001.580509 328.431397 2005.739106 324.2728 
C 2009.897703 320.114203 2012.234306 314.473144 2012.234306 308.592 
C 2012.234306 302.710856 2009.897703 297.069797 2005.739106 292.9112 
C 2001.580509 288.752603 1995.93945 286.416 1990.058306 286.416 
C 1984.177162 286.416 1978.536103 288.752603 1974.377506 292.9112 
C 1970.218909 297.069797 1967.882306 302.710856 1967.882306 308.592 
C 1967.882306 314.473144 1970.218909 320.114203 1974.377506 324.2728 
C 1978.536103 328.431397 1984.177162 330.768 1990.058306 330.768 
z
" style="fill:#cc2929;stroke:#cc2929;stroke-linejoin:miter;"/>
   </g>
   <g id="patch_28">
    <path clip-path="url(#p39b5f73254)" d="M 1990.058306 275.328 
C 1995.93945 275.328 2001.580509 272.991397 2005.739106 268.8328 
C 2009.897703 264.674203 2012.234306 259.033144 2012.234306 253.152 
C 2012.234306 247.270856 2009.897703 241.629797 2005.739106 237.4712 
C 2001.580509 233.312603 1995.93945 230.976 1990.058306 230.976 
C 1984.177162 230.976 1978.536103 233.312603 1974.377506 237.4712 
C 1970.218909 241.629797 1967.882306 247.270856 1967.882306 253.152 
C 1967.882306 259.033144 1970.218909 264.674203 1974.377506 268.8328 
C 1978.536103 272.991397 1984.177162 275.328 1990.058306 275.328 
z
" style="fill:#cc2929;stroke:#cc2929;stroke-linejoin:miter;"/>
   </g>
   <g id="patch_29">
    <path clip-path="url(#p39b5f73254)" d="M 2232.365287 386.208 
C 2238.246431 386.208 2243.88749 383.871397 2248.046087 379.7128 
C 2252.204683 375.554203 2254.541287 369.913144 2254.541287 364.032 
C 2254.541287 358.150856 2252.204683 352.509797 2248.046087 348.3512 
C 2243.88749 344.192603 2238.246431 341.856 2232.365287 341.856 
C 2226.484143 341.856 2220.843083 344.192603 2216.684487 348.3512 
C 2212.52589 352.509797 2210.189287 358.150856 2210.189287 364.032 
C 2210.189287 369.913144 2212.52589 375.554203 2216.684487 379.7128 
C 2220.843083 383.871397 2226.484143 386.208 2232.365287 386.208 
z
" style="fill:#cc2929;stroke:#cc2929;stroke-linejoin:miter;"/>
   </g>
   <g id="patch_30">
    <path clip-path="url(#p39b5f73254)" d="M 2232.365287 219.888 
C 2238.246431 219.888 2243.88749 217.551397 2248.046087 213.3928 
C 2252.204683 209.234203 2254.541287 203.593144 2254.541287 197.712 
C 2254.541287 191.830856 2252.204683 186.189797 2248.046087 182.0312 
C 2243.88749 177.872603 2238.246431 175.536 2232.365287 175.536 
C 2226.484143 175.536 2220.843083 177.872603 2216.684487 182.0312 
C 2212.52589 186.189797 2210.189287 191.830856 2210.189287 197.712 
C 2210.189287 203.593144 2212.52589 209.234203 2216.684487 213.3928 
C 2220.843083 217.551397 2226.484143 219.888 2232.365287 219.888 
z
" style="fill:#cc2929;stroke:#cc2929;stroke-linejoin:miter;"/>
   </g>
   <g id="patch_31">
    <path clip-path="url(#p39b5f73254)" d="M 2232.365287 109.008 
C 2238.246431 109.008 2243.88749 106.671397 2248.046087 102.5128 
C 2252.204683 98.354203 2254.541287 92.713144 2254.541287 86.832 
C 2254.541287 80.950856 2252.204683 75.309797 2248.046087 71.1512 
C 2243.88749 66.992603 2238.246431 64.656 2232.365287 64.656 
C 2226.484143 64.656 2220.843083 66.992603 2216.684487 71.1512 
C 2212.52589 75.309797 2210.189287 80.950856 2210.189287 86.832 
C 2210.189287 92.713144 2212.52589 98.354203 2216.684487 102.5128 
C 2220.843083 106.671397 2226.484143 109.008 2232.365287 109.008 
z
" style="fill:#cc2929;stroke:#cc2929;stroke-linejoin:miter;"/>
   </g>
   <g id="text_1">
    <!-- E1 -->
    <defs>
     <path d="M 9.8125 72.90625 
L 55.90625 72.90625 
L 55.90625 64.59375 
L 19.671875 64.59375 
L 19.671875 43.015625 
L 54.390625 43.015625 
L 54.390625 34.71875 
L 19.671875 34.71875 
L 19.671875 8.296875 
L 56.78125 8.296875 
L 56.78125 0 
L 9.8125 0 
z
" id="DejaVuSans-69"/>
     <path d="M 12.40625 8.296875 
L 28.515625 8.296875 
L 28.515625 63.921875 
L 10.984375 60.40625 
L 10.984375 69.390625 
L 28.421875 72.90625 
L 38.28125 72.90625 
L 38.28125 8.296875 
L 54.390625 8.296875 
L 54.390625 0 
L 12.40625 0 
z
" id="DejaVuSans-49"/>
    </defs>
    <g style="fill:#ffffff;" transform="translate(330.129455 368.447)scale(0.16 -0.16)">
     <use xlink:href="#DejaVuSans-69"/>
     <use x="63.183594" xlink:href="#DejaVuSans-49"/>
    </g>
   </g>
   <g id="text_2">
    <!-- G2 -->
    <defs>
     <path d="M 59.515625 10.40625 
L 59.515625 29.984375 
L 43.40625 29.984375 
L 43.40625 38.09375 
L 69.28125 38.09375 
L 69.28125 6.78125 
Q 63.578125 2.734375 56.6875 0.65625 
Q 49.8125 -1.421875 42 -1.421875 
Q 24.90625 -1.421875 15.25 8.5625 
Q 5.609375 18.5625 5.609375 36.375 
Q 5.609375 54.25 15.25 64.234375 
Q 24.90625 74.21875 42 74.21875 
Q 49.125 74.21875 55.546875 72.453125 
Q 61.96875 70.703125 67.390625 67.28125 
L 67.390625 56.78125 
Q 61.921875 61.421875 55.765625 63.765625 
Q 49.609375 66.109375 42.828125 66.109375 
Q 29.4375 66.109375 22.71875 58.640625 
Q 16.015625 51.171875 16.015625 36.375 
Q 16.015625 21.625 22.71875 14.15625 
Q 29.4375 6.6875 42.828125 6.6875 
Q 48.046875 6.6875 52.140625 7.59375 
Q 56.25 8.5 59.515625 10.40625 
z
" id="DejaVuSans-71"/>
     <path d="M 19.1875 8.296875 
L 53.609375 8.296875 
L 53.609375 0 
L 7.328125 0 
L 7.328125 8.296875 
Q 12.9375 14.109375 22.625 23.890625 
Q 32.328125 33.6875 34.8125 36.53125 
Q 39.546875 41.84375 41.421875 45.53125 
Q 43.3125 49.21875 43.3125 52.78125 
Q 43.3125 58.59375 39.234375 62.25 
Q 35.15625 65.921875 28.609375 65.921875 
Q 23.96875 65.921875 18.8125 64.3125 
Q 13.671875 62.703125 7.8125 59.421875 
L 7.8125 69.390625 
Q 13.765625 71.78125 18.9375 73 
Q 24.125 74.21875 28.421875 74.21875 
Q 39.75 74.21875 46.484375 68.546875 
Q 53.21875 62.890625 53.21875 53.421875 
Q 53.21875 48.921875 51.53125 44.890625 
Q 49.859375 40.875 45.40625 35.40625 
Q 44.1875 33.984375 37.640625 27.21875 
Q 31.109375 20.453125 19.1875 8.296875 
z
" id="DejaVuSans-50"/>
    </defs>
    <g style="fill:#ffffff;" transform="translate(328.985705 202.127)scale(0.16 -0.16)">
     <use xlink:href="#DejaVuSans-71"/>
     <use x="77.490234" xlink:href="#DejaVuSans-50"/>
    </g>
   </g>
   <g id="text_3">
    <!-- E3 -->
    <defs>
     <path d="M 40.578125 39.3125 
Q 47.65625 37.796875 51.625 33 
Q 55.609375 28.21875 55.609375 21.1875 
Q 55.609375 10.40625 48.1875 4.484375 
Q 40.765625 -1.421875 27.09375 -1.421875 
Q 22.515625 -1.421875 17.65625 -0.515625 
Q 12.796875 0.390625 7.625 2.203125 
L 7.625 11.71875 
Q 11.71875 9.328125 16.59375 8.109375 
Q 21.484375 6.890625 26.8125 6.890625 
Q 36.078125 6.890625 40.9375 10.546875 
Q 45.796875 14.203125 45.796875 21.1875 
Q 45.796875 27.640625 41.28125 31.265625 
Q 36.765625 34.90625 28.71875 34.90625 
L 20.21875 34.90625 
L 20.21875 43.015625 
L 29.109375 43.015625 
Q 36.375 43.015625 40.234375 45.921875 
Q 44.09375 48.828125 44.09375 54.296875 
Q 44.09375 59.90625 40.109375 62.90625 
Q 36.140625 65.921875 28.71875 65.921875 
Q 24.65625 65.921875 20.015625 65.03125 
Q 15.375 64.15625 9.8125 62.3125 
L 9.8125 71.09375 
Q 15.4375 72.65625 20.34375 73.4375 
Q 25.25 74.21875 29.59375 74.21875 
Q 40.828125 74.21875 47.359375 69.109375 
Q 53.90625 64.015625 53.90625 55.328125 
Q 53.90625 49.265625 50.4375 45.09375 
Q 46.96875 40.921875 40.578125 39.3125 
z
" id="DejaVuSans-51"/>
    </defs>
    <g style="fill:#ffffff;" transform="translate(330.129455 91.247)scale(0.16 -0.16)">
     <use xlink:href="#DejaVuSans-69"/>
     <use x="63.183594" xlink:href="#DejaVuSans-51"/>
    </g>
   </g>
   <g id="text_4">
    <!-- C3 -->
    <defs>
     <path d="M 64.40625 67.28125 
L 64.40625 56.890625 
Q 59.421875 61.53125 53.78125 63.8125 
Q 48.140625 66.109375 41.796875 66.109375 
Q 29.296875 66.109375 22.65625 58.46875 
Q 16.015625 50.828125 16.015625 36.375 
Q 16.015625 21.96875 22.65625 14.328125 
Q 29.296875 6.6875 41.796875 6.6875 
Q 48.140625 6.6875 53.78125 8.984375 
Q 59.421875 11.28125 64.40625 15.921875 
L 64.40625 5.609375 
Q 59.234375 2.09375 53.4375 0.328125 
Q 47.65625 -1.421875 41.21875 -1.421875 
Q 24.65625 -1.421875 15.125 8.703125 
Q 5.609375 18.84375 5.609375 36.375 
Q 5.609375 53.953125 15.125 64.078125 
Q 24.65625 74.21875 41.21875 74.21875 
Q 47.75 74.21875 53.53125 72.484375 
Q 59.328125 70.75 64.40625 67.28125 
z
" id="DejaVuSans-67"/>
    </defs>
    <g style="fill:#ffffff;" transform="translate(465.163713 146.687)scale(0.16 -0.16)">
     <use xlink:href="#DejaVuSans-67"/>
     <use x="69.824219" xlink:href="#DejaVuSans-51"/>
    </g>
   </g>
   <g id="text_5">
    <!-- E2 -->
    <g style="fill:#ffffff;" transform="translate(675.333076 257.567)scale(0.16 -0.16)">
     <use xlink:href="#DejaVuSans-69"/>
     <use x="63.183594" xlink:href="#DejaVuSans-50"/>
    </g>
   </g>
   <g id="text_6">
    <!-- G1 -->
    <g style="fill:#ffffff;" transform="translate(872.061356 368.447)scale(0.16 -0.16)">
     <use xlink:href="#DejaVuSans-71"/>
     <use x="77.490234" xlink:href="#DejaVuSans-49"/>
    </g>
   </g>
   <g id="text_7">
    <!-- C2 -->
    <g style="fill:#ffffff;" transform="translate(872.673856 313.007)scale(0.16 -0.16)">
     <use xlink:href="#DejaVuSans-67"/>
     <use x="69.824219" xlink:href="#DejaVuSans-50"/>
    </g>
   </g>
   <g id="text_8">
    <!-- G3 -->
    <g style="fill:#ffffff;" transform="translate(872.061356 91.247)scale(0.16 -0.16)">
     <use xlink:href="#DejaVuSans-71"/>
     <use x="77.490234" xlink:href="#DejaVuSans-51"/>
    </g>
   </g>
   <g id="text_9">
    <!-- G2 -->
    <g style="fill:#ffffff;" transform="translate(1235.11162 257.567)scale(0.16 -0.16)">
     <use xlink:href="#DejaVuSans-71"/>
     <use x="77.490234" xlink:href="#DejaVuSans-50"/>
    </g>
   </g>
   <g id="text_10">
    <!-- C3 -->
    <g style="fill:#ffffff;" transform="translate(1235.72412 202.127)scale(0.16 -0.16)">
     <use xlink:href="#DejaVuSans-67"/>
     <use x="69.824219" xlink:href="#DejaVuSans-51"/>
    </g>
   </g>
   <g id="text_11">
    <!-- E3 -->
    <g style="fill:#ffffff;" transform="translate(1236.25537 146.687)scale(0.16 -0.16)">
     <use xlink:href="#DejaVuSans-69"/>
     <use x="63.183594" xlink:href="#DejaVuSans-51"/>
    </g>
   </g>
   <g id="text_12">
    <!-- E2 -->
    <g style="fill:#ffffff;" transform="translate(1559.696385 313.007)scale(0.16 -0.16)">
     <use xlink:href="#DejaVuSans-69"/>
     <use x="63.183594" xlink:href="#DejaVuSans-50"/>
    </g>
   </g>
   <g id="text_13">
    <!-- C2 -->
    <g style="fill:#ffffff;" transform="translate(1707.401666 368.447)scale(0.16 -0.16)">
     <use xlink:href="#DejaVuSans-67"/>
     <use x="69.824219" xlink:href="#DejaVuSans-50"/>
    </g>
   </g>
   <g id="text_14">
    <!-- G3 -->
    <g style="fill:#ffffff;" transform="translate(1706.789166 146.687)scale(0.16 -0.16)">
     <use xlink:href="#DejaVuSans-71"/>
     <use x="77.490234" xlink:href="#DejaVuSans-51"/>
    </g>
   </g>
   <g id="text_15">
    <!-- C4 -->
    <defs>
     <path d="M 37.796875 64.3125 
L 12.890625 25.390625 
L 37.796875 25.390625 
z
M 35.203125 72.90625 
L 47.609375 72.90625 
L 47.609375 25.390625 
L 58.015625 25.390625 
L 58.015625 17.1875 
L 47.609375 17.1875 
L 47.609375 0 
L 37.796875 0 
L 37.796875 17.1875 
L 4.890625 17.1875 
L 4.890625 26.703125 
z
" id="DejaVuSans-52"/>
    </defs>
    <g style="fill:#ffffff;" transform="translate(1707.401666 91.247)scale(0.16 -0.16)">
     <use xlink:href="#DejaVuSans-67"/>
     <use x="69.824219" xlink:href="#DejaVuSans-52"/>
    </g>
   </g>
   <g id="text_16">
    <!-- E3 -->
    <g style="fill:#ffffff;" transform="translate(1847.84957 202.127)scale(0.16 -0.16)">
     <use xlink:href="#DejaVuSans-69"/>
     <use x="63.183594" xlink:href="#DejaVuSans-51"/>
    </g>
   </g>
   <g id="text_17">
    <!-- G2 -->
    <g style="fill:#ffffff;" transform="translate(1978.769556 313.007)scale(0.16 -0.16)">
     <use xlink:href="#DejaVuSans-71"/>
     <use x="77.490234" xlink:href="#DejaVuSans-50"/>
    </g>
   </g>
   <g id="text_18">
    <!-- C3 -->
    <g style="fill:#ffffff;" transform="translate(1979.382056 257.567)scale(0.16 -0.16)">
     <use xlink:href="#DejaVuSans-67"/>
     <use x="69.824219" xlink:href="#DejaVuSans-51"/>
    </g>
   </g>
   <g id="text_19">
    <!-- E2 -->
    <g style="fill:#ffffff;" transform="translate(2222.220287 368.447)scale(0.16 -0.16)">
     <use xlink:href="#DejaVuSans-69"/>
     <use x="63.183594" xlink:href="#DejaVuSans-50"/>
    </g>
   </g>
   <g id="text_20">
    <!-- G3 -->
    <g style="fill:#ffffff;" transform="translate(2221.076537 202.127)scale(0.16 -0.16)">
     <use xlink:href="#DejaVuSans-71"/>
     <use x="77.490234" xlink:href="#DejaVuSans-51"/>
    </g>
   </g>
   <g id="text_21">
    <!-- E4 -->
    <g style="fill:#ffffff;" transform="translate(2222.220287 91.247)scale(0.16 -0.16)">
     <use xlink:href="#DejaVuSans-69"/>
     <use x="63.183594" xlink:href="#DejaVuSans-52"/>
    </g>
   </g>
   <g id="patch_32">
    <path clip-path="url(#p39b5f73254)" d="M 362.450455 386.208 
C 368.331598 386.208 373.972658 383.871397 378.131255 379.7128 
C 382.289851 375.554203 384.626455 369.913144 384.626455 364.032 
C 384.626455 358.150856 382.289851 352.509797 378.131255 348.3512 
C 373.972658 344.192603 368.331598 341.856 362.450455 341.856 
C 356.569311 341.856 350.928251 344.192603 346.769655 348.3512 
C 342.611058 352.509797 340.274455 358.150856 340.274455 364.032 
C 340.274455 369.913144 342.611058 375.554203 346.769655 379.7128 
C 350.928251 383.871397 356.569311 386.208 362.450455 386.208 
z
" style="fill:#29cc29;stroke:#29cc29;stroke-linejoin:miter;"/>
   </g>
   <g id="patch_33">
    <path clip-path="url(#p39b5f73254)" d="M 362.450455 164.448 
C 368.331598 164.448 373.972658 162.111397 378.131255 157.9528 
C 382.289851 153.794203 384.626455 148.153144 384.626455 142.272 
C 384.626455 136.390856 382.289851 130.749797 378.131255 126.5912 
C 373.972658 122.432603 368.331598 120.096 362.450455 120.096 
C 356.569311 120.096 350.928251 122.432603 346.769655 126.5912 
C 342.611058 130.749797 340.274455 136.390856 340.274455 142.272 
C 340.274455 148.153144 342.611058 153.794203 346.769655 157.9528 
C 350.928251 162.111397 356.569311 164.448 362.450455 164.448 
z
" style="fill:#29cc29;stroke:#29cc29;stroke-linejoin:miter;"/>
   </g>
   <g id="patch_34">
    <path clip-path="url(#p39b5f73254)" d="M 362.450455 109.008 
C 368.331598 109.008 373.972658 106.671397 378.131255 102.5128 
C 382.289851 98.354203 384.626455 92.713144 384.626455 86.832 
C 384.626455 80.950856 382.289851 75.309797 378.131255 71.1512 
C 373.972658 66.992603 368.331598 64.656 362.450455 64.656 
C 356.569311 64.656 350.928251 66.992603 346.769655 71.1512 
C 342.611058 75.309797 340.274455 80.950856 340.274455 86.832 
C 340.274455 92.713144 342.611058 98.354203 346.769655 102.5128 
C 350.928251 106.671397 356.569311 109.008 362.450455 109.008 
z
" style="fill:#29cc29;stroke:#29cc29;stroke-linejoin:miter;"/>
   </g>
   <g id="patch_35">
    <path clip-path="url(#p39b5f73254)" d="M 498.015963 219.888 
C 503.897107 219.888 509.538166 217.551397 513.696763 213.3928 
C 517.855359 209.234203 520.191963 203.593144 520.191963 197.712 
C 520.191963 191.830856 517.855359 186.189797 513.696763 182.0312 
C 509.538166 177.872603 503.897107 175.536 498.015963 175.536 
C 492.134819 175.536 486.49376 177.872603 482.335163 182.0312 
C 478.176566 186.189797 475.839963 191.830856 475.839963 197.712 
C 475.839963 203.593144 478.176566 209.234203 482.335163 213.3928 
C 486.49376 217.551397 492.134819 219.888 498.015963 219.888 
z
" style="fill:#29cc29;stroke:#29cc29;stroke-linejoin:miter;"/>
   </g>
   <g id="patch_36">
    <path clip-path="url(#p39b5f73254)" d="M 707.654076 330.768 
C 713.53522 330.768 719.176279 328.431397 723.334876 324.2728 
C 727.493473 320.114203 729.830076 314.473144 729.830076 308.592 
C 729.830076 302.710856 727.493473 297.069797 723.334876 292.9112 
C 719.176279 288.752603 713.53522 286.416 707.654076 286.416 
C 701.772932 286.416 696.131873 288.752603 691.973276 292.9112 
C 687.814679 297.069797 685.478076 302.710856 685.478076 308.592 
C 685.478076 314.473144 687.814679 320.114203 691.973276 324.2728 
C 696.131873 328.431397 701.772932 330.768 707.654076 330.768 
z
" style="fill:#29cc29;stroke:#29cc29;stroke-linejoin:miter;"/>
   </g>
   <g id="patch_37">
    <path clip-path="url(#p39b5f73254)" d="M 707.654076 275.328 
C 713.53522 275.328 719.176279 272.991397 723.334876 268.8328 
C 727.493473 264.674203 729.830076 259.033144 729.830076 253.152 
C 729.830076 247.270856 727.493473 241.629797 723.334876 237.4712 
C 719.176279 233.312603 713.53522 230.976 707.654076 230.976 
C 701.772932 230.976 696.131873 233.312603 691.973276 237.4712 
C 687.814679 241.629797 685.478076 247.270856 685.478076 253.152 
C 685.478076 259.033144 687.814679 264.674203 691.973276 268.8328 
C 696.131873 272.991397 701.772932 275.328 707.654076 275.328 
z
" style="fill:#29cc29;stroke:#29cc29;stroke-linejoin:miter;"/>
   </g>
   <g id="patch_38">
    <path clip-path="url(#p39b5f73254)" d="M 1092.292432 386.208 
C 1098.173576 386.208 1103.814635 383.871397 1107.973232 379.7128 
C 1112.131829 375.554203 1114.468432 369.913144 1114.468432 364.032 
C 1114.468432 358.150856 1112.131829 352.509797 1107.973232 348.3512 
C 1103.814635 344.192603 1098.173576 341.856 1092.292432 341.856 
C 1086.411288 341.856 1080.770229 344.192603 1076.611632 348.3512 
C 1072.453035 352.509797 1070.116432 358.150856 1070.116432 364.032 
C 1070.116432 369.913144 1072.453035 375.554203 1076.611632 379.7128 
C 1080.770229 383.871397 1086.411288 386.208 1092.292432 386.208 
z
" style="fill:#29cc29;stroke:#29cc29;stroke-linejoin:miter;"/>
   </g>
   <g id="patch_39">
    <path clip-path="url(#p39b5f73254)" d="M 1092.292432 219.888 
C 1098.173576 219.888 1103.814635 217.551397 1107.973232 213.3928 
C 1112.131829 209.234203 1114.468432 203.593144 1114.468432 197.712 
C 1114.468432 191.830856 1112.131829 186.189797 1107.973232 182.0312 
C 1103.814635 177.872603 1098.173576 175.536 1092.292432 175.536 
C 1086.411288 175.536 1080.770229 177.872603 1076.611632 182.0312 
C 1072.453035 186.189797 1070.116432 191.830856 1070.116432 197.712 
C 1070.116432 203.593144 1072.453035 209.234203 1076.611632 213.3928 
C 1080.770229 217.551397 1086.411288 219.888 1092.292432 219.888 
z
" style="fill:#29cc29;stroke:#29cc29;stroke-linejoin:miter;"/>
   </g>
   <g id="patch_40">
    <path clip-path="url(#p39b5f73254)" d="M 1092.292432 109.008 
C 1098.173576 109.008 1103.814635 106.671397 1107.973232 102.5128 
C 1112.131829 98.354203 1114.468432 92.713144 1114.468432 86.832 
C 1114.468432 80.950856 1112.131829 75.309797 1107.973232 71.1512 
C 1103.814635 66.992603 1098.173576 64.656 1092.292432 64.656 
C 1086.411288 64.656 1080.770229 66.992603 1076.611632 71.1512 
C 1072.453035 75.309797 1070.116432 80.950856 1070.116432 86.832 
C 1070.116432 92.713144 1072.453035 98.354203 1076.611632 102.5128 
C 1080.770229 106.671397 1086.411288 109.008 1092.292432 109.008 
z
" style="fill:#29cc29;stroke:#29cc29;stroke-linejoin:miter;"/>
   </g>
   <g id="patch_41">
    <path clip-path="url(#p39b5f73254)" d="M 1268.57637 164.448 
C 1274.457514 164.448 1280.098573 162.111397 1284.25717 157.9528 
C 1288.415767 153.794203 1290.75237 148.153144 1290.75237 142.272 
C 1290.75237 136.390856 1288.415767 130.749797 1284.25717 126.5912 
C 1280.098573 122.432603 1274.457514 120.096 1268.57637 120.096 
C 1262.695226 120.096 1257.054167 122.432603 1252.89557 126.5912 
C 1248.736973 130.749797 1246.40037 136.390856 1246.40037 142.272 
C 1246.40037 148.153144 1248.736973 153.794203 1252.89557 157.9528 
C 1257.054167 162.111397 1262.695226 164.448 1268.57637 164.448 
z
" style="fill:#29cc29;stroke:#29cc29;stroke-linejoin:miter;"/>
   </g>
   <g id="patch_42">
    <path clip-path="url(#p39b5f73254)" d="M 1434.96625 275.328 
C 1440.847394 275.328 1446.488454 272.991397 1450.64705 268.8328 
C 1454.805647 264.674203 1457.14225 259.033144 1457.14225 253.152 
C 1457.14225 247.270856 1454.805647 241.629797 1450.64705 237.4712 
C 1446.488454 233.312603 1440.847394 230.976 1434.96625 230.976 
C 1429.085106 230.976 1423.444047 233.312603 1419.28545 237.4712 
C 1415.126854 241.629797 1412.79025 247.270856 1412.79025 253.152 
C 1412.79025 259.033144 1415.126854 264.674203 1419.28545 268.8328 
C 1423.444047 272.991397 1429.085106 275.328 1434.96625 275.328 
z
" style="fill:#29cc29;stroke:#29cc29;stroke-linejoin:miter;"/>
   </g>
   <g id="patch_43">
    <path clip-path="url(#p39b5f73254)" d="M 1592.017385 386.208 
C 1597.898529 386.208 1603.539588 383.871397 1607.698185 379.7128 
C 1611.856781 375.554203 1614.193385 369.913144 1614.193385 364.032 
C 1614.193385 358.150856 1611.856781 352.509797 1607.698185 348.3512 
C 1603.539588 344.192603 1597.898529 341.856 1592.017385 341.856 
C 1586.136241 341.856 1580.495181 344.192603 1576.336585 348.3512 
C 1572.177988 352.509797 1569.841385 358.150856 1569.841385 364.032 
C 1569.841385 369.913144 1572.177988 375.554203 1576.336585 379.7128 
C 1580.495181 383.871397 1586.136241 386.208 1592.017385 386.208 
z
" style="fill:#29cc29;stroke:#29cc29;stroke-linejoin:miter;"/>
   </g>
   <g id="patch_44">
    <path clip-path="url(#p39b5f73254)" d="M 1592.017385 330.768 
C 1597.898529 330.768 1603.539588 328.431397 1607.698185 324.2728 
C 1611.856781 320.114203 1614.193385 314.473144 1614.193385 308.592 
C 1614.193385 302.710856 1611.856781 297.069797 1607.698185 292.9112 
C 1603.539588 288.752603 1597.898529 286.416 1592.017385 286.416 
C 1586.136241 286.416 1580.495181 288.752603 1576.336585 292.9112 
C 1572.177988 297.069797 1569.841385 302.710856 1569.841385 308.592 
C 1569.841385 314.473144 1572.177988 320.114203 1576.336585 324.2728 
C 1580.495181 328.431397 1586.136241 330.768 1592.017385 330.768 
z
" style="fill:#29cc29;stroke:#29cc29;stroke-linejoin:miter;"/>
   </g>
   <g id="patch_45">
    <path clip-path="url(#p39b5f73254)" d="M 1592.017385 109.008 
C 1597.898529 109.008 1603.539588 106.671397 1607.698185 102.5128 
C 1611.856781 98.354203 1614.193385 92.713144 1614.193385 86.832 
C 1614.193385 80.950856 1611.856781 75.309797 1607.698185 71.1512 
C 1603.539588 66.992603 1597.898529 64.656 1592.017385 64.656 
C 1586.136241 64.656 1580.495181 66.992603 1576.336585 71.1512 
C 1572.177988 75.309797 1569.841385 80.950856 1569.841385 86.832 
C 1569.841385 92.713144 1572.177988 98.354203 1576.336585 102.5128 
C 1580.495181 106.671397 1586.136241 109.008 1592.017385 109.008 
z
" style="fill:#29cc29;stroke:#29cc29;stroke-linejoin:miter;"/>
   </g>
   <g id="patch_46">
    <path clip-path="url(#p39b5f73254)" d="M 1880.17057 275.328 
C 1886.051714 275.328 1891.692773 272.991397 1895.85137 268.8328 
C 1900.009967 264.674203 1902.34657 259.033144 1902.34657 253.152 
C 1902.34657 247.270856 1900.009967 241.629797 1895.85137 237.4712 
C 1891.692773 233.312603 1886.051714 230.976 1880.17057 230.976 
C 1874.289426 230.976 1868.648367 233.312603 1864.48977 237.4712 
C 1860.331173 241.629797 1857.99457 247.270856 1857.99457 253.152 
C 1857.99457 259.033144 1860.331173 264.674203 1864.48977 268.8328 
C 1868.648367 272.991397 1874.289426 275.328 1880.17057 275.328 
z
" style="fill:#29cc29;stroke:#29cc29;stroke-linejoin:miter;"/>
   </g>
   <g id="patch_47">
    <path clip-path="url(#p39b5f73254)" d="M 1880.17057 219.888 
C 1886.051714 219.888 1891.692773 217.551397 1895.85137 213.3928 
C 1900.009967 209.234203 1902.34657 203.593144 1902.34657 197.712 
C 1902.34657 191.830856 1900.009967 186.189797 1895.85137 182.0312 
C 1891.692773 177.872603 1886.051714 175.536 1880.17057 175.536 
C 1874.289426 175.536 1868.648367 177.872603 1864.48977 182.0312 
C 1860.331173 186.189797 1857.99457 191.830856 1857.99457 197.712 
C 1857.99457 203.593144 1860.331173 209.234203 1864.48977 213.3928 
C 1868.648367 217.551397 1874.289426 219.888 1880.17057 219.888 
z
" style="fill:#29cc29;stroke:#29cc29;stroke-linejoin:miter;"/>
   </g>
   <g id="patch_48">
    <path clip-path="url(#p39b5f73254)" d="M 1880.17057 164.448 
C 1886.051714 164.448 1891.692773 162.111397 1895.85137 157.9528 
C 1900.009967 153.794203 1902.34657 148.153144 1902.34657 142.272 
C 1902.34657 136.390856 1900.009967 130.749797 1895.85137 126.5912 
C 1891.692773 122.432603 1886.051714 120.096 1880.17057 120.096 
C 1874.289426 120.096 1868.648367 122.432603 1864.48977 126.5912 
C 1860.331173 130.749797 1857.99457 136.390856 1857.99457 142.272 
C 1857.99457 148.153144 1860.331173 153.794203 1864.48977 157.9528 
C 1868.648367 162.111397 1874.289426 164.448 1880.17057 164.448 
z
" style="fill:#29cc29;stroke:#29cc29;stroke-linejoin:miter;"/>
   </g>
   <g id="patch_49">
    <path clip-path="url(#p39b5f73254)" d="M 2136.885874 330.768 
C 2142.767018 330.768 2148.408077 328.431397 2152.566674 324.2728 
C 2156.72527 320.114203 2159.061874 314.473144 2159.061874 308.592 
C 2159.061874 302.710856 2156.72527 297.069797 2152.566674 292.9112 
C 2148.408077 288.752603 2142.767018 286.416 2136.885874 286.416 
C 2131.00473 286.416 2125.363671 288.752603 2121.205074 292.9112 
C 2117.046477 297.069797 2114.709874 302.710856 2114.709874 308.592 
C 2114.709874 314.473144 2117.046477 320.114203 2121.205074 324.2728 
C 2125.363671 328.431397 2131.00473 330.768 2136.885874 330.768 
z
" style="fill:#29cc29;stroke:#29cc29;stroke-linejoin:miter;"/>
   </g>
   <g id="patch_50">
    <path clip-path="url(#p39b5f73254)" d="M 2254.541287 386.208 
C 2260.422431 386.208 2266.06349 383.871397 2270.222087 379.7128 
C 2274.380683 375.554203 2276.717287 369.913144 2276.717287 364.032 
C 2276.717287 358.150856 2274.380683 352.509797 2270.222087 348.3512 
C 2266.06349 344.192603 2260.422431 341.856 2254.541287 341.856 
C 2248.660143 341.856 2243.019083 344.192603 2238.860487 348.3512 
C 2234.70189 352.509797 2232.365287 358.150856 2232.365287 364.032 
C 2232.365287 369.913144 2234.70189 375.554203 2238.860487 379.7128 
C 2243.019083 383.871397 2248.660143 386.208 2254.541287 386.208 
z
" style="fill:#29cc29;stroke:#29cc29;stroke-linejoin:miter;"/>
   </g>
   <g id="patch_51">
    <path clip-path="url(#p39b5f73254)" d="M 2254.541287 164.448 
C 2260.422431 164.448 2266.06349 162.111397 2270.222087 157.9528 
C 2274.380683 153.794203 2276.717287 148.153144 2276.717287 142.272 
C 2276.717287 136.390856 2274.380683 130.749797 2270.222087 126.5912 
C 2266.06349 122.432603 2260.422431 120.096 2254.541287 120.096 
C 2248.660143 120.096 2243.019083 122.432603 2238.860487 126.5912 
C 2234.70189 130.749797 2232.365287 136.390856 2232.365287 142.272 
C 2232.365287 148.153144 2234.70189 153.794203 2238.860487 157.9528 
C 2243.019083 162.111397 2248.660143 164.448 2254.541287 164.448 
z
" style="fill:#29cc29;stroke:#29cc29;stroke-linejoin:miter;"/>
   </g>
   <g id="patch_52">
    <path clip-path="url(#p39b5f73254)" d="M 2254.541287 109.008 
C 2260.422431 109.008 2266.06349 106.671397 2270.222087 102.5128 
C 2274.380683 98.354203 2276.717287 92.713144 2276.717287 86.832 
C 2276.717287 80.950856 2274.380683 75.309797 2270.222087 71.1512 
C 2266.06349 66.992603 2260.422431 64.656 2254.541287 64.656 
C 2248.660143 64.656 2243.019083 66.992603 2238.860487 71.1512 
C 2234.70189 75.309797 2232.365287 80.950856 2232.365287 86.832 
C 2232.365287 92.713144 2234.70189 98.354203 2238.860487 102.5128 
C 2243.019083 106.671397 2248.660143 109.008 2254.541287 109.008 
z
" style="fill:#29cc29;stroke:#29cc29;stroke-linejoin:miter;"/>
   </g>
   <g id="text_22">
    <!-- E1 -->
    <g style="fill:#ffffff;" transform="translate(352.305455 368.447)scale(0.16 -0.16)">
     <use xlink:href="#DejaVuSans-69"/>
     <use x="63.183594" xlink:href="#DejaVuSans-49"/>
    </g>
   </g>
   <g id="text_23">
    <!-- B2 -->
    <defs>
     <path d="M 19.671875 34.8125 
L 19.671875 8.109375 
L 35.5 8.109375 
Q 43.453125 8.109375 47.28125 11.40625 
Q 51.125 14.703125 51.125 21.484375 
Q 51.125 28.328125 47.28125 31.5625 
Q 43.453125 34.8125 35.5 34.8125 
z
M 19.671875 64.796875 
L 19.671875 42.828125 
L 34.28125 42.828125 
Q 41.5 42.828125 45.03125 45.53125 
Q 48.578125 48.25 48.578125 53.8125 
Q 48.578125 59.328125 45.03125 62.0625 
Q 41.5 64.796875 34.28125 64.796875 
z
M 9.8125 72.90625 
L 35.015625 72.90625 
Q 46.296875 72.90625 52.390625 68.21875 
Q 58.5 63.53125 58.5 54.890625 
Q 58.5 48.1875 55.375 44.234375 
Q 52.25 40.28125 46.1875 39.3125 
Q 53.46875 37.75 57.5 32.78125 
Q 61.53125 27.828125 61.53125 20.40625 
Q 61.53125 10.640625 54.890625 5.3125 
Q 48.25 0 35.984375 0 
L 9.8125 0 
z
" id="DejaVuSans-66"/>
    </defs>
    <g style="fill:#ffffff;" transform="translate(351.871705 146.687)scale(0.16 -0.16)">
     <use xlink:href="#DejaVuSans-66"/>
     <use x="68.603516" xlink:href="#DejaVuSans-50"/>
    </g>
   </g>
   <g id="text_24">
    <!-- E3 -->
    <g style="fill:#ffffff;" transform="translate(352.305455 91.247)scale(0.16 -0.16)">
     <use xlink:href="#DejaVuSans-69"/>
     <use x="63.183594" xlink:href="#DejaVuSans-51"/>
    </g>
   </g>
   <g id="text_25">
    <!-- G#2 -->
    <defs>
     <path d="M 51.125 44 
L 36.921875 44 
L 32.8125 27.6875 
L 47.125 27.6875 
z
M 43.796875 71.78125 
L 38.71875 51.515625 
L 52.984375 51.515625 
L 58.109375 71.78125 
L 65.921875 71.78125 
L 60.890625 51.515625 
L 76.125 51.515625 
L 76.125 44 
L 58.984375 44 
L 54.984375 27.6875 
L 70.515625 27.6875 
L 70.515625 20.21875 
L 53.078125 20.21875 
L 48 0 
L 40.1875 0 
L 45.21875 20.21875 
L 30.90625 20.21875 
L 25.875 0 
L 18.015625 0 
L 23.09375 20.21875 
L 7.71875 20.21875 
L 7.71875 27.6875 
L 24.90625 27.6875 
L 29 44 
L 13.28125 44 
L 13.28125 51.515625 
L 30.90625 51.515625 
L 35.890625 71.78125 
z
" id="DejaVuSans-35"/>
    </defs>
    <g style="fill:#ffffff;" transform="translate(480.023463 202.127)scale(0.16 -0.16)">
     <use xlink:href="#DejaVuSans-71"/>
     <use x="77.490234" xlink:href="#DejaVuSans-35"/>
     <use x="161.279297" xlink:href="#DejaVuSans-50"/>
    </g>
   </g>
   <g id="text_26">
    <!-- B1 -->
    <g style="fill:#ffffff;" transform="translate(697.075326 313.007)scale(0.16 -0.16)">
     <use xlink:href="#DejaVuSans-66"/>
     <use x="68.603516" xlink:href="#DejaVuSans-49"/>
    </g>
   </g>
   <g id="text_27">
    <!-- E2 -->
    <g style="fill:#ffffff;" transform="translate(697.509076 257.567)scale(0.16 -0.16)">
     <use xlink:href="#DejaVuSans-69"/>
     <use x="63.183594" xlink:href="#DejaVuSans-50"/>
    </g>
   </g>
   <g id="text_28">
    <!-- G#1 -->
    <g style="fill:#ffffff;" transform="translate(1074.299932 368.447)scale(0.16 -0.16)">
     <use xlink:href="#DejaVuSans-71"/>
     <use x="77.490234" xlink:href="#DejaVuSans-35"/>
     <use x="161.279297" xlink:href="#DejaVuSans-49"/>
    </g>
   </g>
   <g id="text_29">
    <!-- B2 -->
    <g style="fill:#ffffff;" transform="translate(1081.713682 202.127)scale(0.16 -0.16)">
     <use xlink:href="#DejaVuSans-66"/>
     <use x="68.603516" xlink:href="#DejaVuSans-50"/>
    </g>
   </g>
   <g id="text_30">
    <!-- G#3 -->
    <g style="fill:#ffffff;" transform="translate(1074.299932 91.247)scale(0.16 -0.16)">
     <use xlink:href="#DejaVuSans-71"/>
     <use x="77.490234" xlink:href="#DejaVuSans-35"/>
     <use x="161.279297" xlink:href="#DejaVuSans-51"/>
    </g>
   </g>
   <g id="text_31">
    <!-- E3 -->
    <g style="fill:#ffffff;" transform="translate(1258.43137 146.687)scale(0.16 -0.16)">
     <use xlink:href="#DejaVuSans-69"/>
     <use x="63.183594" xlink:href="#DejaVuSans-51"/>
    </g>
   </g>
   <g id="text_32">
    <!-- G#2 -->
    <g style="fill:#ffffff;" transform="translate(1416.97375 257.567)scale(0.16 -0.16)">
     <use xlink:href="#DejaVuSans-71"/>
     <use x="77.490234" xlink:href="#DejaVuSans-35"/>
     <use x="161.279297" xlink:href="#DejaVuSans-50"/>
    </g>
   </g>
   <g id="text_33">
    <!-- B1 -->
    <g style="fill:#ffffff;" transform="translate(1581.438635 368.447)scale(0.16 -0.16)">
     <use xlink:href="#DejaVuSans-66"/>
     <use x="68.603516" xlink:href="#DejaVuSans-49"/>
    </g>
   </g>
   <g id="text_34">
    <!-- E2 -->
    <g style="fill:#ffffff;" transform="translate(1581.872385 313.007)scale(0.16 -0.16)">
     <use xlink:href="#DejaVuSans-69"/>
     <use x="63.183594" xlink:href="#DejaVuSans-50"/>
    </g>
   </g>
   <g id="text_35">
    <!-- B3 -->
    <g style="fill:#ffffff;" transform="translate(1581.438635 91.247)scale(0.16 -0.16)">
     <use xlink:href="#DejaVuSans-66"/>
     <use x="68.603516" xlink:href="#DejaVuSans-51"/>
    </g>
   </g>
   <g id="text_36">
    <!-- B2 -->
    <g style="fill:#ffffff;" transform="translate(1869.59182 257.567)scale(0.16 -0.16)">
     <use xlink:href="#DejaVuSans-66"/>
     <use x="68.603516" xlink:href="#DejaVuSans-50"/>
    </g>
   </g>
   <g id="text_37">
    <!-- E3 -->
    <g style="fill:#ffffff;" transform="translate(1870.02557 202.127)scale(0.16 -0.16)">
     <use xlink:href="#DejaVuSans-69"/>
     <use x="63.183594" xlink:href="#DejaVuSans-51"/>
    </g>
   </g>
   <g id="text_38">
    <!-- G#3 -->
    <g style="fill:#ffffff;" transform="translate(1862.17807 146.687)scale(0.16 -0.16)">
     <use xlink:href="#DejaVuSans-71"/>
     <use x="77.490234" xlink:href="#DejaVuSans-35"/>
     <use x="161.279297" xlink:href="#DejaVuSans-51"/>
    </g>
   </g>
   <g id="text_39">
    <!-- G#2 -->
    <g style="fill:#ffffff;" transform="translate(2118.893374 313.007)scale(0.16 -0.16)">
     <use xlink:href="#DejaVuSans-71"/>
     <use x="77.490234" xlink:href="#DejaVuSans-35"/>
     <use x="161.279297" xlink:href="#DejaVuSans-50"/>
    </g>
   </g>
   <g id="text_40">
    <!-- E2 -->
    <g style="fill:#ffffff;" transform="translate(2244.396287 368.447)scale(0.16 -0.16)">
     <use xlink:href="#DejaVuSans-69"/>
     <use x="63.183594" xlink:href="#DejaVuSans-50"/>
    </g>
   </g>
   <g id="text_41">
    <!-- B3 -->
    <g style="fill:#ffffff;" transform="translate(2243.962537 146.687)scale(0.16 -0.16)">
     <use xlink:href="#DejaVuSans-66"/>
     <use x="68.603516" xlink:href="#DejaVuSans-51"/>
    </g>
   </g>
   <g id="text_42">
    <!-- E4 -->
    <g style="fill:#ffffff;" transform="translate(2244.396287 91.247)scale(0.16 -0.16)">
     <use xlink:href="#DejaVuSans-69"/>
     <use x="63.183594" xlink:href="#DejaVuSans-52"/>
    </g>
   </g>
   <g id="patch_53">
    <path clip-path="url(#p39b5f73254)" d="M 384.626455 330.768 
C 390.507598 330.768 396.148658 328.431397 400.307255 324.2728 
C 404.465851 320.114203 406.802455 314.473144 406.802455 308.592 
C 406.802455 302.710856 404.465851 297.069797 400.307255 292.9112 
C 396.148658 288.752603 390.507598 286.416 384.626455 286.416 
C 378.745311 286.416 373.104251 288.752603 368.945655 292.9112 
C 364.787058 297.069797 362.450455 302.710856 362.450455 308.592 
C 362.450455 314.473144 364.787058 320.114203 368.945655 324.2728 
C 373.104251 328.431397 378.745311 330.768 384.626455 330.768 
z
" style="fill:#2929cc;stroke:#2929cc;stroke-linejoin:miter;"/>
   </g>
   <g id="patch_54">
    <path clip-path="url(#p39b5f73254)" d="M 520.191963 386.208 
C 526.073107 386.208 531.714166 383.871397 535.872763 379.7128 
C 540.031359 375.554203 542.367963 369.913144 542.367963 364.032 
C 542.367963 358.150856 540.031359 352.509797 535.872763 348.3512 
C 531.714166 344.192603 526.073107 341.856 520.191963 341.856 
C 514.310819 341.856 508.66976 344.192603 504.511163 348.3512 
C 500.352566 352.509797 498.015963 358.150856 498.015963 364.032 
C 498.015963 369.913144 500.352566 375.554203 504.511163 379.7128 
C 508.66976 383.871397 514.310819 386.208 520.191963 386.208 
z
" style="fill:#2929cc;stroke:#2929cc;stroke-linejoin:miter;"/>
   </g>
   <g id="patch_55">
    <path clip-path="url(#p39b5f73254)" d="M 520.191963 164.448 
C 526.073107 164.448 531.714166 162.111397 535.872763 157.9528 
C 540.031359 153.794203 542.367963 148.153144 542.367963 142.272 
C 542.367963 136.390856 540.031359 130.749797 535.872763 126.5912 
C 531.714166 122.432603 526.073107 120.096 520.191963 120.096 
C 514.310819 120.096 508.66976 122.432603 504.511163 126.5912 
C 500.352566 130.749797 498.015963 136.390856 498.015963 142.272 
C 498.015963 148.153144 500.352566 153.794203 504.511163 157.9528 
C 508.66976 162.111397 514.310819 164.448 520.191963 164.448 
z
" style="fill:#2929cc;stroke:#2929cc;stroke-linejoin:miter;"/>
   </g>
   <g id="patch_56">
    <path clip-path="url(#p39b5f73254)" d="M 520.191963 109.008 
C 526.073107 109.008 531.714166 106.671397 535.872763 102.5128 
C 540.031359 98.354203 542.367963 92.713144 542.367963 86.832 
C 542.367963 80.950856 540.031359 75.309797 535.872763 71.1512 
C 531.714166 66.992603 526.073107 64.656 520.191963 64.656 
C 514.310819 64.656 508.66976 66.992603 504.511163 71.1512 
C 500.352566 75.309797 498.015963 80.950856 498.015963 86.832 
C 498.015963 92.713144 500.352566 98.354203 504.511163 102.5128 
C 508.66976 106.671397 514.310819 109.008 520.191963 109.008 
z
" style="fill:#2929cc;stroke:#2929cc;stroke-linejoin:miter;"/>
   </g>
   <g id="patch_57">
    <path clip-path="url(#p39b5f73254)" d="M 729.830076 219.888 
C 735.71122 219.888 741.352279 217.551397 745.510876 213.3928 
C 749.669473 209.234203 752.006076 203.593144 752.006076 197.712 
C 752.006076 191.830856 749.669473 186.189797 745.510876 182.0312 
C 741.352279 177.872603 735.71122 175.536 729.830076 175.536 
C 723.948932 175.536 718.307873 177.872603 714.149276 182.0312 
C 709.990679 186.189797 707.654076 191.830856 707.654076 197.712 
C 707.654076 203.593144 709.990679 209.234203 714.149276 213.3928 
C 718.307873 217.551397 723.948932 219.888 729.830076 219.888 
z
" style="fill:#2929cc;stroke:#2929cc;stroke-linejoin:miter;"/>
   </g>
   <g id="patch_58">
    <path clip-path="url(#p39b5f73254)" d="M 927.702106 330.768 
C 933.58325 330.768 939.224309 328.431397 943.382906 324.2728 
C 947.541502 320.114203 949.878106 314.473144 949.878106 308.592 
C 949.878106 302.710856 947.541502 297.069797 943.382906 292.9112 
C 939.224309 288.752603 933.58325 286.416 927.702106 286.416 
C 921.820962 286.416 916.179903 288.752603 912.021306 292.9112 
C 907.862709 297.069797 905.526106 302.710856 905.526106 308.592 
C 905.526106 314.473144 907.862709 320.114203 912.021306 324.2728 
C 916.179903 328.431397 921.820962 330.768 927.702106 330.768 
z
" style="fill:#2929cc;stroke:#2929cc;stroke-linejoin:miter;"/>
   </g>
   <g id="patch_59">
    <path clip-path="url(#p39b5f73254)" d="M 927.702106 275.328 
C 933.58325 275.328 939.224309 272.991397 943.382906 268.8328 
C 947.541502 264.674203 949.878106 259.033144 949.878106 253.152 
C 949.878106 247.270856 947.541502 241.629797 943.382906 237.4712 
C 939.224309 233.312603 933.58325 230.976 927.702106 230.976 
C 921.820962 230.976 916.179903 233.312603 912.021306 237.4712 
C 907.862709 241.629797 905.526106 247.270856 905.526106 253.152 
C 905.526106 259.033144 907.862709 264.674203 912.021306 268.8328 
C 916.179903 272.991397 921.820962 275.328 927.702106 275.328 
z
" style="fill:#2929cc;stroke:#2929cc;stroke-linejoin:miter;"/>
   </g>
   <g id="patch_60">
    <path clip-path="url(#p39b5f73254)" d="M 1290.75237 386.208 
C 1296.633514 386.208 1302.274573 383.871397 1306.43317 379.7128 
C 1310.591767 375.554203 1312.92837 369.913144 1312.92837 364.032 
C 1312.92837 358.150856 1310.591767 352.509797 1306.43317 348.3512 
C 1302.274573 344.192603 1296.633514 341.856 1290.75237 341.856 
C 1284.871226 341.856 1279.230167 344.192603 1275.07157 348.3512 
C 1270.912973 352.509797 1268.57637 358.150856 1268.57637 364.032 
C 1268.57637 369.913144 1270.912973 375.554203 1275.07157 379.7128 
C 1279.230167 383.871397 1284.871226 386.208 1290.75237 386.208 
z
" style="fill:#2929cc;stroke:#2929cc;stroke-linejoin:miter;"/>
   </g>
   <g id="patch_61">
    <path clip-path="url(#p39b5f73254)" d="M 1290.75237 219.888 
C 1296.633514 219.888 1302.274573 217.551397 1306.43317 213.3928 
C 1310.591767 209.234203 1312.92837 203.593144 1312.92837 197.712 
C 1312.92837 191.830856 1310.591767 186.189797 1306.43317 182.0312 
C 1302.274573 177.872603 1296.633514 175.536 1290.75237 175.536 
C 1284.871226 175.536 1279.230167 177.872603 1275.07157 182.0312 
C 1270.912973 186.189797 1268.57637 191.830856 1268.57637 197.712 
C 1268.57637 203.593144 1270.912973 209.234203 1275.07157 213.3928 
C 1279.230167 217.551397 1284.871226 219.888 1290.75237 219.888 
z
" style="fill:#2929cc;stroke:#2929cc;stroke-linejoin:miter;"/>
   </g>
   <g id="patch_62">
    <path clip-path="url(#p39b5f73254)" d="M 1290.75237 109.008 
C 1296.633514 109.008 1302.274573 106.671397 1306.43317 102.5128 
C 1310.591767 98.354203 1312.92837 92.713144 1312.92837 86.832 
C 1312.92837 80.950856 1310.591767 75.309797 1306.43317 71.1512 
C 1302.274573 66.992603 1296.633514 64.656 1290.75237 64.656 
C 1284.871226 64.656 1279.230167 66.992603 1275.07157 71.1512 
C 1270.912973 75.309797 1268.57637 80.950856 1268.57637 86.832 
C 1268.57637 92.713144 1270.912973 98.354203 1275.07157 102.5128 
C 1279.230167 106.671397 1284.871226 109.008 1290.75237 109.008 
z
" style="fill:#2929cc;stroke:#2929cc;stroke-linejoin:miter;"/>
   </g>
   <g id="patch_63">
    <path clip-path="url(#p39b5f73254)" d="M 1457.14225 164.448 
C 1463.023394 164.448 1468.664454 162.111397 1472.82305 157.9528 
C 1476.981647 153.794203 1479.31825 148.153144 1479.31825 142.272 
C 1479.31825 136.390856 1476.981647 130.749797 1472.82305 126.5912 
C 1468.664454 122.432603 1463.023394 120.096 1457.14225 120.096 
C 1451.261106 120.096 1445.620047 122.432603 1441.46145 126.5912 
C 1437.302854 130.749797 1434.96625 136.390856 1434.96625 142.272 
C 1434.96625 148.153144 1437.302854 153.794203 1441.46145 157.9528 
C 1445.620047 162.111397 1451.261106 164.448 1457.14225 164.448 
z
" style="fill:#2929cc;stroke:#2929cc;stroke-linejoin:miter;"/>
   </g>
   <g id="patch_64">
    <path clip-path="url(#p39b5f73254)" d="M 1614.193385 275.328 
C 1620.074529 275.328 1625.715588 272.991397 1629.874185 268.8328 
C 1634.032781 264.674203 1636.369385 259.033144 1636.369385 253.152 
C 1636.369385 247.270856 1634.032781 241.629797 1629.874185 237.4712 
C 1625.715588 233.312603 1620.074529 230.976 1614.193385 230.976 
C 1608.312241 230.976 1602.671181 233.312603 1598.512585 237.4712 
C 1594.353988 241.629797 1592.017385 247.270856 1592.017385 253.152 
C 1592.017385 259.033144 1594.353988 264.674203 1598.512585 268.8328 
C 1602.671181 272.991397 1608.312241 275.328 1614.193385 275.328 
z
" style="fill:#2929cc;stroke:#2929cc;stroke-linejoin:miter;"/>
   </g>
   <g id="patch_65">
    <path clip-path="url(#p39b5f73254)" d="M 1762.429916 386.208 
C 1768.31106 386.208 1773.952119 383.871397 1778.110716 379.7128 
C 1782.269313 375.554203 1784.605916 369.913144 1784.605916 364.032 
C 1784.605916 358.150856 1782.269313 352.509797 1778.110716 348.3512 
C 1773.952119 344.192603 1768.31106 341.856 1762.429916 341.856 
C 1756.548772 341.856 1750.907713 344.192603 1746.749116 348.3512 
C 1742.590519 352.509797 1740.253916 358.150856 1740.253916 364.032 
C 1740.253916 369.913144 1742.590519 375.554203 1746.749116 379.7128 
C 1750.907713 383.871397 1756.548772 386.208 1762.429916 386.208 
z
" style="fill:#2929cc;stroke:#2929cc;stroke-linejoin:miter;"/>
   </g>
   <g id="patch_66">
    <path clip-path="url(#p39b5f73254)" d="M 1762.429916 330.768 
C 1768.31106 330.768 1773.952119 328.431397 1778.110716 324.2728 
C 1782.269313 320.114203 1784.605916 314.473144 1784.605916 308.592 
C 1784.605916 302.710856 1782.269313 297.069797 1778.110716 292.9112 
C 1773.952119 288.752603 1768.31106 286.416 1762.429916 286.416 
C 1756.548772 286.416 1750.907713 288.752603 1746.749116 292.9112 
C 1742.590519 297.069797 1740.253916 302.710856 1740.253916 308.592 
C 1740.253916 314.473144 1742.590519 320.114203 1746.749116 324.2728 
C 1750.907713 328.431397 1756.548772 330.768 1762.429916 330.768 
z
" style="fill:#2929cc;stroke:#2929cc;stroke-linejoin:miter;"/>
   </g>
   <g id="patch_67">
    <path clip-path="url(#p39b5f73254)" d="M 1762.429916 109.008 
C 1768.31106 109.008 1773.952119 106.671397 1778.110716 102.5128 
C 1782.269313 98.354203 1784.605916 92.713144 1784.605916 86.832 
C 1784.605916 80.950856 1782.269313 75.309797 1778.110716 71.1512 
C 1773.952119 66.992603 1768.31106 64.656 1762.429916 64.656 
C 1756.548772 64.656 1750.907713 66.992603 1746.749116 71.1512 
C 1742.590519 75.309797 1740.253916 80.950856 1740.253916 86.832 
C 1740.253916 92.713144 1742.590519 98.354203 1746.749116 102.5128 
C 1750.907713 106.671397 1756.548772 109.008 1762.429916 109.008 
z
" style="fill:#2929cc;stroke:#2929cc;stroke-linejoin:miter;"/>
   </g>
   <g id="patch_68">
    <path clip-path="url(#p39b5f73254)" d="M 2034.410306 275.328 
C 2040.29145 275.328 2045.932509 272.991397 2050.091106 268.8328 
C 2054.249703 264.674203 2056.586306 259.033144 2056.586306 253.152 
C 2056.586306 247.270856 2054.249703 241.629797 2050.091106 237.4712 
C 2045.932509 233.312603 2040.29145 230.976 2034.410306 230.976 
C 2028.529162 230.976 2022.888103 233.312603 2018.729506 237.4712 
C 2014.570909 241.629797 2012.234306 247.270856 2012.234306 253.152 
C 2012.234306 259.033144 2014.570909 264.674203 2018.729506 268.8328 
C 2022.888103 272.991397 2028.529162 275.328 2034.410306 275.328 
z
" style="fill:#2929cc;stroke:#2929cc;stroke-linejoin:miter;"/>
   </g>
   <g id="patch_69">
    <path clip-path="url(#p39b5f73254)" d="M 2034.410306 219.888 
C 2040.29145 219.888 2045.932509 217.551397 2050.091106 213.3928 
C 2054.249703 209.234203 2056.586306 203.593144 2056.586306 197.712 
C 2056.586306 191.830856 2054.249703 186.189797 2050.091106 182.0312 
C 2045.932509 177.872603 2040.29145 175.536 2034.410306 175.536 
C 2028.529162 175.536 2022.888103 177.872603 2018.729506 182.0312 
C 2014.570909 186.189797 2012.234306 191.830856 2012.234306 197.712 
C 2012.234306 203.593144 2014.570909 209.234203 2018.729506 213.3928 
C 2022.888103 217.551397 2028.529162 219.888 2034.410306 219.888 
z
" style="fill:#2929cc;stroke:#2929cc;stroke-linejoin:miter;"/>
   </g>
   <g id="patch_70">
    <path clip-path="url(#p39b5f73254)" d="M 2034.410306 164.448 
C 2040.29145 164.448 2045.932509 162.111397 2050.091106 157.9528 
C 2054.249703 153.794203 2056.586306 148.153144 2056.586306 142.272 
C 2056.586306 136.390856 2054.249703 130.749797 2050.091106 126.5912 
C 2045.932509 122.432603 2040.29145 120.096 2034.410306 120.096 
C 2028.529162 120.096 2022.888103 122.432603 2018.729506 126.5912 
C 2014.570909 130.749797 2012.234306 136.390856 2012.234306 142.272 
C 2012.234306 148.153144 2014.570909 153.794203 2018.729506 157.9528 
C 2022.888103 162.111397 2028.529162 164.448 2034.410306 164.448 
z
" style="fill:#2929cc;stroke:#2929cc;stroke-linejoin:miter;"/>
   </g>
   <g id="patch_71">
    <path clip-path="url(#p39b5f73254)" d="M 2276.717287 330.768 
C 2282.598431 330.768 2288.23949 328.431397 2292.398087 324.2728 
C 2296.556683 320.114203 2298.893287 314.473144 2298.893287 308.592 
C 2298.893287 302.710856 2296.556683 297.069797 2292.398087 292.9112 
C 2288.23949 288.752603 2282.598431 286.416 2276.717287 286.416 
C 2270.836143 286.416 2265.195083 288.752603 2261.036487 292.9112 
C 2256.87789 297.069797 2254.541287 302.710856 2254.541287 308.592 
C 2254.541287 314.473144 2256.87789 320.114203 2261.036487 324.2728 
C 2265.195083 328.431397 2270.836143 330.768 2276.717287 330.768 
z
" style="fill:#2929cc;stroke:#2929cc;stroke-linejoin:miter;"/>
   </g>
   <g id="text_43">
    <!-- A1 -->
    <defs>
     <path d="M 34.1875 63.1875 
L 20.796875 26.90625 
L 47.609375 26.90625 
z
M 28.609375 72.90625 
L 39.796875 72.90625 
L 67.578125 0 
L 57.328125 0 
L 50.6875 18.703125 
L 17.828125 18.703125 
L 11.1875 0 
L 0.78125 0 
z
" id="DejaVuSans-65"/>
    </defs>
    <g style="fill:#ffffff;" transform="translate(374.063955 313.007)scale(0.16 -0.16)">
     <use xlink:href="#DejaVuSans-65"/>
     <use x="68.408203" xlink:href="#DejaVuSans-49"/>
    </g>
   </g>
   <g id="text_44">
    <!-- F1 -->
    <defs>
     <path d="M 9.8125 72.90625 
L 51.703125 72.90625 
L 51.703125 64.59375 
L 19.671875 64.59375 
L 19.671875 43.109375 
L 48.578125 43.109375 
L 48.578125 34.8125 
L 19.671875 34.8125 
L 19.671875 0 
L 9.8125 0 
z
" id="DejaVuSans-70"/>
    </defs>
    <g style="fill:#ffffff;" transform="translate(510.500713 368.447)scale(0.16 -0.16)">
     <use xlink:href="#DejaVuSans-70"/>
     <use x="57.519531" xlink:href="#DejaVuSans-49"/>
    </g>
   </g>
   <g id="text_45">
    <!-- C3 -->
    <g style="fill:#ffffff;" transform="translate(509.515713 146.687)scale(0.16 -0.16)">
     <use xlink:href="#DejaVuSans-67"/>
     <use x="69.824219" xlink:href="#DejaVuSans-51"/>
    </g>
   </g>
   <g id="text_46">
    <!-- F3 -->
    <g style="fill:#ffffff;" transform="translate(510.500713 91.247)scale(0.16 -0.16)">
     <use xlink:href="#DejaVuSans-70"/>
     <use x="57.519531" xlink:href="#DejaVuSans-51"/>
    </g>
   </g>
   <g id="text_47">
    <!-- A2 -->
    <g style="fill:#ffffff;" transform="translate(719.267576 202.127)scale(0.16 -0.16)">
     <use xlink:href="#DejaVuSans-65"/>
     <use x="68.408203" xlink:href="#DejaVuSans-50"/>
    </g>
   </g>
   <g id="text_48">
    <!-- C2 -->
    <g style="fill:#ffffff;" transform="translate(917.025856 313.007)scale(0.16 -0.16)">
     <use xlink:href="#DejaVuSans-67"/>
     <use x="69.824219" xlink:href="#DejaVuSans-50"/>
    </g>
   </g>
   <g id="text_49">
    <!-- F2 -->
    <g style="fill:#ffffff;" transform="translate(918.010856 257.567)scale(0.16 -0.16)">
     <use xlink:href="#DejaVuSans-70"/>
     <use x="57.519531" xlink:href="#DejaVuSans-50"/>
    </g>
   </g>
   <g id="text_50">
    <!-- A1 -->
    <g style="fill:#ffffff;" transform="translate(1280.18987 368.447)scale(0.16 -0.16)">
     <use xlink:href="#DejaVuSans-65"/>
     <use x="68.408203" xlink:href="#DejaVuSans-49"/>
    </g>
   </g>
   <g id="text_51">
    <!-- C3 -->
    <g style="fill:#ffffff;" transform="translate(1280.07612 202.127)scale(0.16 -0.16)">
     <use xlink:href="#DejaVuSans-67"/>
     <use x="69.824219" xlink:href="#DejaVuSans-51"/>
    </g>
   </g>
   <g id="text_52">
    <!-- A3 -->
    <g style="fill:#ffffff;" transform="translate(1280.18987 91.247)scale(0.16 -0.16)">
     <use xlink:href="#DejaVuSans-65"/>
     <use x="68.408203" xlink:href="#DejaVuSans-51"/>
    </g>
   </g>
   <g id="text_53">
    <!-- F3 -->
    <g style="fill:#ffffff;" transform="translate(1447.451 146.687)scale(0.16 -0.16)">
     <use xlink:href="#DejaVuSans-70"/>
     <use x="57.519531" xlink:href="#DejaVuSans-51"/>
    </g>
   </g>
   <g id="text_54">
    <!-- A2 -->
    <g style="fill:#ffffff;" transform="translate(1603.630885 257.567)scale(0.16 -0.16)">
     <use xlink:href="#DejaVuSans-65"/>
     <use x="68.408203" xlink:href="#DejaVuSans-50"/>
    </g>
   </g>
   <g id="text_55">
    <!-- C2 -->
    <g style="fill:#ffffff;" transform="translate(1751.753666 368.447)scale(0.16 -0.16)">
     <use xlink:href="#DejaVuSans-67"/>
     <use x="69.824219" xlink:href="#DejaVuSans-50"/>
    </g>
   </g>
   <g id="text_56">
    <!-- F2 -->
    <g style="fill:#ffffff;" transform="translate(1752.738666 313.007)scale(0.16 -0.16)">
     <use xlink:href="#DejaVuSans-70"/>
     <use x="57.519531" xlink:href="#DejaVuSans-50"/>
    </g>
   </g>
   <g id="text_57">
    <!-- C4 -->
    <g style="fill:#ffffff;" transform="translate(1751.753666 91.247)scale(0.16 -0.16)">
     <use xlink:href="#DejaVuSans-67"/>
     <use x="69.824219" xlink:href="#DejaVuSans-52"/>
    </g>
   </g>
   <g id="text_58">
    <!-- C3 -->
    <g style="fill:#ffffff;" transform="translate(2023.734056 257.567)scale(0.16 -0.16)">
     <use xlink:href="#DejaVuSans-67"/>
     <use x="69.824219" xlink:href="#DejaVuSans-51"/>
    </g>
   </g>
   <g id="text_59">
    <!-- F3 -->
    <g style="fill:#ffffff;" transform="translate(2024.719056 202.127)scale(0.16 -0.16)">
     <use xlink:href="#DejaVuSans-70"/>
     <use x="57.519531" xlink:href="#DejaVuSans-51"/>
    </g>
   </g>
   <g id="text_60">
    <!-- A3 -->
    <g style="fill:#ffffff;" transform="translate(2023.847806 146.687)scale(0.16 -0.16)">
     <use xlink:href="#DejaVuSans-65"/>
     <use x="68.408203" xlink:href="#DejaVuSans-51"/>
    </g>
   </g>
   <g id="text_61">
    <!-- A2 -->
    <g style="fill:#ffffff;" transform="translate(2266.154787 313.007)scale(0.16 -0.16)">
     <use xlink:href="#DejaVuSans-65"/>
     <use x="68.408203" xlink:href="#DejaVuSans-50"/>
    </g>
   </g>
   <g id="text_62">
    <!-- -1 -->
    <defs>
     <path d="M 4.890625 31.390625 
L 31.203125 31.390625 
L 31.203125 23.390625 
L 4.890625 23.390625 
z
" id="DejaVuSans-45"/>
    </defs>
    <g style="fill:#0000ff;" transform="translate(324.760142 397.27075)scale(0.2 -0.2)">
     <use xlink:href="#DejaVuSans-45"/>
     <use x="36.083984" xlink:href="#DejaVuSans-49"/>
    </g>
   </g>
   <g id="text_63">
    <!-- 0 -->
    <defs>
     <path d="M 31.78125 66.40625 
Q 24.171875 66.40625 20.328125 58.90625 
Q 16.5 51.421875 16.5 36.375 
Q 16.5 21.390625 20.328125 13.890625 
Q 24.171875 6.390625 31.78125 6.390625 
Q 39.453125 6.390625 43.28125 13.890625 
Q 47.125 21.390625 47.125 36.375 
Q 47.125 51.421875 43.28125 58.90625 
Q 39.453125 66.40625 31.78125 66.40625 
z
M 31.78125 74.21875 
Q 44.046875 74.21875 50.515625 64.515625 
Q 56.984375 54.828125 56.984375 36.375 
Q 56.984375 17.96875 50.515625 8.265625 
Q 44.046875 -1.421875 31.78125 -1.421875 
Q 19.53125 -1.421875 13.0625 8.265625 
Q 6.59375 17.96875 6.59375 36.375 
Q 6.59375 54.828125 13.0625 64.515625 
Q 19.53125 74.21875 31.78125 74.21875 
z
" id="DejaVuSans-48"/>
    </defs>
    <g style="fill:#0000ff;" transform="translate(383.807955 397.27075)scale(0.2 -0.2)">
     <use xlink:href="#DejaVuSans-48"/>
    </g>
   </g>
   <g id="text_64">
    <!-- 1 -->
    <g style="fill:#0000ff;" transform="translate(599.498971 397.27075)scale(0.2 -0.2)">
     <use xlink:href="#DejaVuSans-49"/>
    </g>
   </g>
   <g id="text_65">
    <!-- 2 -->
    <g style="fill:#0000ff;" transform="translate(803.084181 397.27075)scale(0.2 -0.2)">
     <use xlink:href="#DejaVuSans-50"/>
    </g>
   </g>
   <g id="text_66">
    <!-- 3 -->
    <g style="fill:#0000ff;" transform="translate(995.243031 397.27075)scale(0.2 -0.2)">
     <use xlink:href="#DejaVuSans-51"/>
    </g>
   </g>
   <g id="text_67">
    <!-- 4 -->
    <g style="fill:#0000ff;" transform="translate(1176.616833 397.27075)scale(0.2 -0.2)">
     <use xlink:href="#DejaVuSans-52"/>
    </g>
   </g>
   <g id="text_68">
    <!-- 5 -->
    <defs>
     <path d="M 10.796875 72.90625 
L 49.515625 72.90625 
L 49.515625 64.59375 
L 19.828125 64.59375 
L 19.828125 46.734375 
Q 21.96875 47.46875 24.109375 47.828125 
Q 26.265625 48.1875 28.421875 48.1875 
Q 40.625 48.1875 47.75 41.5 
Q 54.890625 34.8125 54.890625 23.390625 
Q 54.890625 11.625 47.5625 5.09375 
Q 40.234375 -1.421875 26.90625 -1.421875 
Q 22.3125 -1.421875 17.546875 -0.640625 
Q 12.796875 0.140625 7.71875 1.703125 
L 7.71875 11.625 
Q 12.109375 9.234375 16.796875 8.0625 
Q 21.484375 6.890625 26.703125 6.890625 
Q 35.15625 6.890625 40.078125 11.328125 
Q 45.015625 15.765625 45.015625 23.390625 
Q 45.015625 31 40.078125 35.4375 
Q 35.15625 39.890625 26.703125 39.890625 
Q 22.75 39.890625 18.8125 39.015625 
Q 14.890625 38.140625 10.796875 36.28125 
z
" id="DejaVuSans-53"/>
    </defs>
    <g style="fill:#0000ff;" transform="translate(1347.810906 397.27075)scale(0.2 -0.2)">
     <use xlink:href="#DejaVuSans-53"/>
    </g>
   </g>
   <g id="text_69">
    <!-- 6 -->
    <defs>
     <path d="M 33.015625 40.375 
Q 26.375 40.375 22.484375 35.828125 
Q 18.609375 31.296875 18.609375 23.390625 
Q 18.609375 15.53125 22.484375 10.953125 
Q 26.375 6.390625 33.015625 6.390625 
Q 39.65625 6.390625 43.53125 10.953125 
Q 47.40625 15.53125 47.40625 23.390625 
Q 47.40625 31.296875 43.53125 35.828125 
Q 39.65625 40.375 33.015625 40.375 
z
M 52.59375 71.296875 
L 52.59375 62.3125 
Q 48.875 64.0625 45.09375 64.984375 
Q 41.3125 65.921875 37.59375 65.921875 
Q 27.828125 65.921875 22.671875 59.328125 
Q 17.53125 52.734375 16.796875 39.40625 
Q 19.671875 43.65625 24.015625 45.921875 
Q 28.375 48.1875 33.59375 48.1875 
Q 44.578125 48.1875 50.953125 41.515625 
Q 57.328125 34.859375 57.328125 23.390625 
Q 57.328125 12.15625 50.6875 5.359375 
Q 44.046875 -1.421875 33.015625 -1.421875 
Q 20.359375 -1.421875 13.671875 8.265625 
Q 6.984375 17.96875 6.984375 36.375 
Q 6.984375 53.65625 15.1875 63.9375 
Q 23.390625 74.21875 37.203125 74.21875 
Q 40.921875 74.21875 44.703125 73.484375 
Q 48.484375 72.75 52.59375 71.296875 
z
" id="DejaVuSans-54"/>
    </defs>
    <g style="fill:#0000ff;" transform="translate(1509.396594 397.27075)scale(0.2 -0.2)">
     <use xlink:href="#DejaVuSans-54"/>
    </g>
   </g>
   <g id="text_70">
    <!-- 7 -->
    <defs>
     <path d="M 8.203125 72.90625 
L 55.078125 72.90625 
L 55.078125 68.703125 
L 28.609375 0 
L 18.3125 0 
L 43.21875 64.59375 
L 8.203125 64.59375 
z
" id="DejaVuSans-55"/>
    </defs>
    <g style="fill:#0000ff;" transform="translate(1661.913175 397.27075)scale(0.2 -0.2)">
     <use xlink:href="#DejaVuSans-55"/>
    </g>
   </g>
   <g id="text_71">
    <!-- 8 -->
    <defs>
     <path d="M 31.78125 34.625 
Q 24.75 34.625 20.71875 30.859375 
Q 16.703125 27.09375 16.703125 20.515625 
Q 16.703125 13.921875 20.71875 10.15625 
Q 24.75 6.390625 31.78125 6.390625 
Q 38.8125 6.390625 42.859375 10.171875 
Q 46.921875 13.96875 46.921875 20.515625 
Q 46.921875 27.09375 42.890625 30.859375 
Q 38.875 34.625 31.78125 34.625 
z
M 21.921875 38.8125 
Q 15.578125 40.375 12.03125 44.71875 
Q 8.5 49.078125 8.5 55.328125 
Q 8.5 64.0625 14.71875 69.140625 
Q 20.953125 74.21875 31.78125 74.21875 
Q 42.671875 74.21875 48.875 69.140625 
Q 55.078125 64.0625 55.078125 55.328125 
Q 55.078125 49.078125 51.53125 44.71875 
Q 48 40.375 41.703125 38.8125 
Q 48.828125 37.15625 52.796875 32.3125 
Q 56.78125 27.484375 56.78125 20.515625 
Q 56.78125 9.90625 50.3125 4.234375 
Q 43.84375 -1.421875 31.78125 -1.421875 
Q 19.734375 -1.421875 13.25 4.234375 
Q 6.78125 9.90625 6.78125 20.515625 
Q 6.78125 27.484375 10.78125 32.3125 
Q 14.796875 37.15625 21.921875 38.8125 
z
M 18.3125 54.390625 
Q 18.3125 48.734375 21.84375 45.5625 
Q 25.390625 42.390625 31.78125 42.390625 
Q 38.140625 42.390625 41.71875 45.5625 
Q 45.3125 48.734375 45.3125 54.390625 
Q 45.3125 60.0625 41.71875 63.234375 
Q 38.140625 66.40625 31.78125 66.40625 
Q 25.390625 66.40625 21.84375 63.234375 
Q 18.3125 60.0625 18.3125 54.390625 
z
" id="DejaVuSans-56"/>
    </defs>
    <g style="fill:#0000ff;" transform="translate(1805.869657 397.27075)scale(0.2 -0.2)">
     <use xlink:href="#DejaVuSans-56"/>
    </g>
   </g>
   <g id="text_72">
    <!-- 9 -->
    <defs>
     <path d="M 10.984375 1.515625 
L 10.984375 10.5 
Q 14.703125 8.734375 18.5 7.8125 
Q 22.3125 6.890625 25.984375 6.890625 
Q 35.75 6.890625 40.890625 13.453125 
Q 46.046875 20.015625 46.78125 33.40625 
Q 43.953125 29.203125 39.59375 26.953125 
Q 35.25 24.703125 29.984375 24.703125 
Q 19.046875 24.703125 12.671875 31.3125 
Q 6.296875 37.9375 6.296875 49.421875 
Q 6.296875 60.640625 12.9375 67.421875 
Q 19.578125 74.21875 30.609375 74.21875 
Q 43.265625 74.21875 49.921875 64.515625 
Q 56.59375 54.828125 56.59375 36.375 
Q 56.59375 19.140625 48.40625 8.859375 
Q 40.234375 -1.421875 26.421875 -1.421875 
Q 22.703125 -1.421875 18.890625 -0.6875 
Q 15.09375 0.046875 10.984375 1.515625 
z
M 30.609375 32.421875 
Q 37.25 32.421875 41.125 36.953125 
Q 45.015625 41.5 45.015625 49.421875 
Q 45.015625 57.28125 41.125 61.84375 
Q 37.25 66.40625 30.609375 66.40625 
Q 23.96875 66.40625 20.09375 61.84375 
Q 16.21875 57.28125 16.21875 49.421875 
Q 16.21875 41.5 20.09375 36.953125 
Q 23.96875 32.421875 30.609375 32.421875 
z
" id="DejaVuSans-57"/>
    </defs>
    <g style="fill:#0000ff;" transform="translate(1941.746483 397.27075)scale(0.2 -0.2)">
     <use xlink:href="#DejaVuSans-57"/>
    </g>
   </g>
   <g id="text_73">
    <!-- 10 -->
    <g style="fill:#0000ff;" transform="translate(2063.634629 397.27075)scale(0.2 -0.2)">
     <use xlink:href="#DejaVuSans-49"/>
     <use x="63.623047" xlink:href="#DejaVuSans-48"/>
    </g>
   </g>
   <g id="text_74">
    <!-- 11 -->
    <g style="fill:#0000ff;" transform="translate(2184.687119 397.27075)scale(0.2 -0.2)">
     <use xlink:href="#DejaVuSans-49"/>
     <use x="63.623047" xlink:href="#DejaVuSans-49"/>
    </g>
   </g>
   <g id="text_75">
    <!-- 12 -->
    <g style="fill:#0000ff;" transform="translate(2298.945455 397.27075)scale(0.2 -0.2)">
     <use xlink:href="#DejaVuSans-49"/>
     <use x="63.623047" xlink:href="#DejaVuSans-50"/>
    </g>
   </g>
   <g id="text_76">
    <!-- 6 -->
    <g style="fill:#0000ff;" transform="translate(300.647955 369.55075)scale(0.2 -0.2)">
     <use xlink:href="#DejaVuSans-54"/>
    </g>
   </g>
   <g id="text_77">
    <!-- 5 -->
    <g style="fill:#0000ff;" transform="translate(300.647955 314.11075)scale(0.2 -0.2)">
     <use xlink:href="#DejaVuSans-53"/>
    </g>
   </g>
   <g id="text_78">
    <!-- 4 -->
    <g style="fill:#0000ff;" transform="translate(300.647955 258.67075)scale(0.2 -0.2)">
     <use xlink:href="#DejaVuSans-52"/>
    </g>
   </g>
   <g id="text_79">
    <!-- 3 -->
    <g style="fill:#0000ff;" transform="translate(300.647955 203.23075)scale(0.2 -0.2)">
     <use xlink:href="#DejaVuSans-51"/>
    </g>
   </g>
   <g id="text_80">
    <!-- 2 -->
    <g style="fill:#0000ff;" transform="translate(300.647955 147.79075)scale(0.2 -0.2)">
     <use xlink:href="#DejaVuSans-50"/>
    </g>
   </g>
   <g id="text_81">
    <!-- 1 -->
    <g style="fill:#0000ff;" transform="translate(300.647955 92.35075)scale(0.2 -0.2)">
     <use xlink:href="#DejaVuSans-49"/>
    </g>
   </g>
  </g>
 </g>
 <defs>
  <clipPath id="p39b5f73254">
   <rect height="343.728" width="1988.028" x="329.186455" y="53.568"/>
  </clipPath>
 </defs>
</svg>
