<?xml version="1.0" encoding="utf-8" standalone="no"?>
<!DOCTYPE svg PUBLIC "-//W3C//DTD SVG 1.1//EN"
  "http://www.w3.org/Graphics/SVG/1.1/DTD/svg11.dtd">
<!-- Created with matplotlib (https://matplotlib.org/) -->
<svg height="446.4pt" version="1.1" viewBox="0 0 1715.783018 446.4" width="1715.783018pt" xmlns="http://www.w3.org/2000/svg" xmlns:xlink="http://www.w3.org/1999/xlink">
 <defs>
  <style type="text/css">
*{stroke-linecap:butt;stroke-linejoin:round;}
  </style>
 </defs>
 <g id="figure_1">
  <g id="patch_1">
   <path d="M 0 446.4 
L 1715.783018 446.4 
L 1715.783018 0 
L 0 0 
z
" style="fill:#ffffff;"/>
  </g>
  <g id="axes_1">
   <g id="patch_2">
    <path clip-path="url(#p726784f7b5)" d="M 128.22691 225.432 
L 224.306335 225.432 
L 224.306335 86.832 
L 128.22691 86.832 
z
" style="fill:#cccccc;stroke:#cccccc;stroke-linejoin:miter;"/>
   </g>
   <g id="patch_3">
    <path clip-path="url(#p726784f7b5)" d="M 491.277174 225.432 
L 576.87421 225.432 
L 576.87421 86.832 
L 491.277174 86.832 
z
" style="fill:#cccccc;stroke:#cccccc;stroke-linejoin:miter;"/>
   </g>
   <g id="patch_4">
    <path clip-path="url(#p726784f7b5)" d="M 814.718189 225.432 
L 890.976479 225.432 
L 890.976479 86.832 
L 814.718189 86.832 
z
" style="fill:#cccccc;stroke:#cccccc;stroke-linejoin:miter;"/>
   </g>
   <g id="patch_5">
    <path clip-path="url(#p726784f7b5)" d="M 1102.871374 225.432 
L 1170.809787 225.432 
L 1170.809787 86.832 
L 1102.871374 86.832 
z
" style="fill:#cccccc;stroke:#cccccc;stroke-linejoin:miter;"/>
   </g>
   <g id="patch_6">
    <path clip-path="url(#p726784f7b5)" d="M 1477.242091 364.032 
L 1534.371259 364.032 
L 1534.371259 86.832 
L 1477.242091 86.832 
z
" style="fill:#cccccc;stroke:#cccccc;stroke-linejoin:miter;"/>
   </g>
   <g id="patch_7">
    <path clip-path="url(#p726784f7b5)" d="M 1792.049084 225.432 
L 1840.088797 225.432 
L 1840.088797 86.832 
L 1792.049084 86.832 
z
" style="fill:#cccccc;stroke:#cccccc;stroke-linejoin:miter;"/>
   </g>
   <g id="patch_8">
    <path clip-path="url(#p726784f7b5)" d="M 1973.574216 225.432 
L 2016.372734 225.432 
L 2016.372734 86.832 
L 1973.574216 86.832 
z
" style="fill:#cccccc;stroke:#cccccc;stroke-linejoin:miter;"/>
   </g>
   <g id="patch_9">
    <path clip-path="url(#p726784f7b5)" d="M 2135.294724 225.432 
L 2173.423869 225.432 
L 2173.423869 86.832 
L 2135.294724 86.832 
z
" style="fill:#cccccc;stroke:#cccccc;stroke-linejoin:miter;"/>
   </g>
   <g id="patch_10">
    <path clip-path="url(#p726784f7b5)" d="M 2279.371316 225.432 
L 2313.340523 225.432 
L 2313.340523 86.832 
L 2279.371316 86.832 
z
" style="fill:#cccccc;stroke:#cccccc;stroke-linejoin:miter;"/>
   </g>
   <g id="line2d_1">
    <path clip-path="url(#p726784f7b5)" d="M 224.306335 364.032 
L 224.306335 86.832 
" style="fill:none;stroke:#000000;stroke-linecap:square;stroke-width:3;"/>
   </g>
   <g id="line2d_2">
    <path clip-path="url(#p726784f7b5)" d="M 405.680137 364.032 
L 405.680137 86.832 
" style="fill:none;stroke:#000000;stroke-linecap:square;stroke-width:3;"/>
   </g>
   <g id="line2d_3">
    <path clip-path="url(#p726784f7b5)" d="M 576.87421 364.032 
L 576.87421 86.832 
" style="fill:none;stroke:#000000;stroke-linecap:square;stroke-width:3;"/>
   </g>
   <g id="line2d_4">
    <path clip-path="url(#p726784f7b5)" d="M 738.459899 364.032 
L 738.459899 86.832 
" style="fill:none;stroke:#000000;stroke-linecap:square;stroke-width:3;"/>
   </g>
   <g id="line2d_5">
    <path clip-path="url(#p726784f7b5)" d="M 890.976479 364.032 
L 890.976479 86.832 
" style="fill:none;stroke:#000000;stroke-linecap:square;stroke-width:3;"/>
   </g>
   <g id="line2d_6">
    <path clip-path="url(#p726784f7b5)" d="M 1034.932961 364.032 
L 1034.932961 86.832 
" style="fill:none;stroke:#000000;stroke-linecap:square;stroke-width:3;"/>
   </g>
   <g id="line2d_7">
    <path clip-path="url(#p726784f7b5)" d="M 1170.809787 364.032 
L 1170.809787 86.832 
" style="fill:none;stroke:#000000;stroke-linecap:square;stroke-width:3;"/>
   </g>
   <g id="line2d_8">
    <path clip-path="url(#p726784f7b5)" d="M 1299.060433 364.032 
L 1299.060433 86.832 
" style="fill:none;stroke:#000000;stroke-linecap:square;stroke-width:3;"/>
   </g>
   <g id="line2d_9">
    <path clip-path="url(#p726784f7b5)" d="M 1420.112923 364.032 
L 1420.112923 86.832 
" style="fill:none;stroke:#000000;stroke-linecap:square;stroke-width:3;"/>
   </g>
   <g id="line2d_10">
    <path clip-path="url(#p726784f7b5)" d="M 1534.371259 364.032 
L 1534.371259 86.832 
" style="fill:none;stroke:#000000;stroke-linecap:square;stroke-width:3;"/>
   </g>
   <g id="line2d_11">
    <path clip-path="url(#p726784f7b5)" d="M -1 364.032 
L 1716.783018 364.032 
" style="fill:none;stroke:#808080;stroke-linecap:square;stroke-width:3;"/>
   </g>
   <g id="line2d_12">
    <path clip-path="url(#p726784f7b5)" d="M -1 308.592 
L 1716.783018 308.592 
" style="fill:none;stroke:#808080;stroke-linecap:square;stroke-width:3;"/>
   </g>
   <g id="line2d_13">
    <path clip-path="url(#p726784f7b5)" d="M -1 253.152 
L 1716.783018 253.152 
" style="fill:none;stroke:#808080;stroke-linecap:square;stroke-width:3;"/>
   </g>
   <g id="line2d_14">
    <path clip-path="url(#p726784f7b5)" d="M -1 197.712 
L 1716.783018 197.712 
" style="fill:none;stroke:#808080;stroke-linecap:square;stroke-width:3;"/>
   </g>
   <g id="line2d_15">
    <path clip-path="url(#p726784f7b5)" d="M -1 142.272 
L 1716.783018 142.272 
" style="fill:none;stroke:#808080;stroke-linecap:square;stroke-width:3;"/>
   </g>
   <g id="line2d_16">
    <path clip-path="url(#p726784f7b5)" d="M -1 86.832 
L 1716.783018 86.832 
" style="fill:none;stroke:#808080;stroke-linecap:square;stroke-width:3;"/>
   </g>
   <g id="line2d_17">
    <path clip-path="url(#p726784f7b5)" style="fill:none;stroke:#000000;stroke-linecap:square;stroke-width:10;"/>
   </g>
   <g id="line2d_18">
    <path clip-path="url(#p726784f7b5)" style="fill:none;stroke:#000000;stroke-linecap:square;stroke-width:5;"/>
   </g>
   <g id="patch_11">
    <path clip-path="url(#p726784f7b5)" d="M 458.013174 386.208 
C 463.894318 386.208 469.535377 383.871397 473.693974 379.7128 
C 477.852571 375.554203 480.189174 369.913144 480.189174 364.032 
C 480.189174 358.150856 477.852571 352.509797 473.693974 348.3512 
C 469.535377 344.192603 463.894318 341.856 458.013174 341.856 
C 452.13203 341.856 446.490971 344.192603 442.332374 348.3512 
C 438.173777 352.509797 435.837174 358.150856 435.837174 364.032 
C 435.837174 369.913144 438.173777 375.554203 442.332374 379.7128 
C 446.490971 383.871397 452.13203 386.208 458.013174 386.208 
z
" style="fill:#cc2929;stroke:#cc2929;stroke-linejoin:miter;"/>
   </g>
   <g id="patch_12">
    <path clip-path="url(#p726784f7b5)" d="M 458.013174 219.888 
C 463.894318 219.888 469.535377 217.551397 473.693974 213.3928 
C 477.852571 209.234203 480.189174 203.593144 480.189174 197.712 
C 480.189174 191.830856 477.852571 186.189797 473.693974 182.0312 
C 469.535377 177.872603 463.894318 175.536 458.013174 175.536 
C 452.13203 175.536 446.490971 177.872603 442.332374 182.0312 
C 438.173777 186.189797 435.837174 191.830856 435.837174 197.712 
C 435.837174 203.593144 438.173777 209.234203 442.332374 213.3928 
C 446.490971 217.551397 452.13203 219.888 458.013174 219.888 
z
" style="fill:#cc2929;stroke:#cc2929;stroke-linejoin:miter;"/>
   </g>
   <g id="patch_13">
    <path clip-path="url(#p726784f7b5)" d="M 458.013174 164.448 
C 463.894318 164.448 469.535377 162.111397 473.693974 157.9528 
C 477.852571 153.794203 480.189174 148.153144 480.189174 142.272 
C 480.189174 136.390856 477.852571 130.749797 473.693974 126.5912 
C 469.535377 122.432603 463.894318 120.096 458.013174 120.096 
C 452.13203 120.096 446.490971 122.432603 442.332374 126.5912 
C 438.173777 130.749797 435.837174 136.390856 435.837174 142.272 
C 435.837174 148.153144 438.173777 153.794203 442.332374 157.9528 
C 446.490971 162.111397 452.13203 164.448 458.013174 164.448 
z
" style="fill:#cc2929;stroke:#cc2929;stroke-linejoin:miter;"/>
   </g>
   <g id="patch_14">
    <path clip-path="url(#p726784f7b5)" d="M 458.013174 109.008 
C 463.894318 109.008 469.535377 106.671397 473.693974 102.5128 
C 477.852571 98.354203 480.189174 92.713144 480.189174 86.832 
C 480.189174 80.950856 477.852571 75.309797 473.693974 71.1512 
C 469.535377 66.992603 463.894318 64.656 458.013174 64.656 
C 452.13203 64.656 446.490971 66.992603 442.332374 71.1512 
C 438.173777 75.309797 435.837174 80.950856 435.837174 86.832 
C 435.837174 92.713144 438.173777 98.354203 442.332374 102.5128 
C 446.490971 106.671397 452.13203 109.008 458.013174 109.008 
z
" style="fill:#cc2929;stroke:#cc2929;stroke-linejoin:miter;"/>
   </g>
   <g id="patch_15">
    <path clip-path="url(#p726784f7b5)" d="M 624.403054 164.448 
C 630.284198 164.448 635.925258 162.111397 640.083854 157.9528 
C 644.242451 153.794203 646.579054 148.153144 646.579054 142.272 
C 646.579054 136.390856 644.242451 130.749797 640.083854 126.5912 
C 635.925258 122.432603 630.284198 120.096 624.403054 120.096 
C 618.521911 120.096 612.880851 122.432603 608.722254 126.5912 
C 604.563658 130.749797 602.227054 136.390856 602.227054 142.272 
C 602.227054 148.153144 604.563658 153.794203 608.722254 157.9528 
C 612.880851 162.111397 618.521911 164.448 624.403054 164.448 
z
" style="fill:#cc2929;stroke:#cc2929;stroke-linejoin:miter;"/>
   </g>
   <g id="patch_16">
    <path clip-path="url(#p726784f7b5)" d="M 781.454189 330.768 
C 787.335333 330.768 792.976392 328.431397 797.134989 324.2728 
C 801.293585 320.114203 803.630189 314.473144 803.630189 308.592 
C 803.630189 302.710856 801.293585 297.069797 797.134989 292.9112 
C 792.976392 288.752603 787.335333 286.416 781.454189 286.416 
C 775.573045 286.416 769.931985 288.752603 765.773389 292.9112 
C 761.614792 297.069797 759.278189 302.710856 759.278189 308.592 
C 759.278189 314.473144 761.614792 320.114203 765.773389 324.2728 
C 769.931985 328.431397 775.573045 330.768 781.454189 330.768 
z
" style="fill:#cc2929;stroke:#cc2929;stroke-linejoin:miter;"/>
   </g>
   <g id="patch_17">
    <path clip-path="url(#p726784f7b5)" d="M 781.454189 275.328 
C 787.335333 275.328 792.976392 272.991397 797.134989 268.8328 
C 801.293585 264.674203 803.630189 259.033144 803.630189 253.152 
C 803.630189 247.270856 801.293585 241.629797 797.134989 237.4712 
C 792.976392 233.312603 787.335333 230.976 781.454189 230.976 
C 775.573045 230.976 769.931985 233.312603 765.773389 237.4712 
C 761.614792 241.629797 759.278189 247.270856 759.278189 253.152 
C 759.278189 259.033144 761.614792 264.674203 765.773389 268.8328 
C 769.931985 272.991397 775.573045 275.328 781.454189 275.328 
z
" style="fill:#cc2929;stroke:#cc2929;stroke-linejoin:miter;"/>
   </g>
   <g id="patch_18">
    <path clip-path="url(#p726784f7b5)" d="M 929.69072 386.208 
C 935.571864 386.208 941.212923 383.871397 945.37152 379.7128 
C 949.530117 375.554203 951.86672 369.913144 951.86672 364.032 
C 951.86672 358.150856 949.530117 352.509797 945.37152 348.3512 
C 941.212923 344.192603 935.571864 341.856 929.69072 341.856 
C 923.809576 341.856 918.168517 344.192603 914.00992 348.3512 
C 909.851323 352.509797 907.51472 358.150856 907.51472 364.032 
C 907.51472 369.913144 909.851323 375.554203 914.00992 379.7128 
C 918.168517 383.871397 923.809576 386.208 929.69072 386.208 
z
" style="fill:#cc2929;stroke:#cc2929;stroke-linejoin:miter;"/>
   </g>
   <g id="patch_19">
    <path clip-path="url(#p726784f7b5)" d="M 929.69072 330.768 
C 935.571864 330.768 941.212923 328.431397 945.37152 324.2728 
C 949.530117 320.114203 951.86672 314.473144 951.86672 308.592 
C 951.86672 302.710856 949.530117 297.069797 945.37152 292.9112 
C 941.212923 288.752603 935.571864 286.416 929.69072 286.416 
C 923.809576 286.416 918.168517 288.752603 914.00992 292.9112 
C 909.851323 297.069797 907.51472 302.710856 907.51472 308.592 
C 907.51472 314.473144 909.851323 320.114203 914.00992 324.2728 
C 918.168517 328.431397 923.809576 330.768 929.69072 330.768 
z
" style="fill:#cc2929;stroke:#cc2929;stroke-linejoin:miter;"/>
   </g>
   <g id="patch_20">
    <path clip-path="url(#p726784f7b5)" d="M 929.69072 109.008 
C 935.571864 109.008 941.212923 106.671397 945.37152 102.5128 
C 949.530117 98.354203 951.86672 92.713144 951.86672 86.832 
C 951.86672 80.950856 949.530117 75.309797 945.37152 71.1512 
C 941.212923 66.992603 935.571864 64.656 929.69072 64.656 
C 923.809576 64.656 918.168517 66.992603 914.00992 71.1512 
C 909.851323 75.309797 907.51472 80.950856 907.51472 86.832 
C 907.51472 92.713144 909.851323 98.354203 914.00992 102.5128 
C 918.168517 106.671397 923.809576 109.008 929.69072 109.008 
z
" style="fill:#cc2929;stroke:#cc2929;stroke-linejoin:miter;"/>
   </g>
   <g id="patch_21">
    <path clip-path="url(#p726784f7b5)" d="M 1069.607374 219.888 
C 1075.488518 219.888 1081.129577 217.551397 1085.288174 213.3928 
C 1089.446771 209.234203 1091.783374 203.593144 1091.783374 197.712 
C 1091.783374 191.830856 1089.446771 186.189797 1085.288174 182.0312 
C 1081.129577 177.872603 1075.488518 175.536 1069.607374 175.536 
C 1063.72623 175.536 1058.085171 177.872603 1053.926574 182.0312 
C 1049.767977 186.189797 1047.431374 191.830856 1047.431374 197.712 
C 1047.431374 203.593144 1049.767977 209.234203 1053.926574 213.3928 
C 1058.085171 217.551397 1063.72623 219.888 1069.607374 219.888 
z
" style="fill:#cc2929;stroke:#cc2929;stroke-linejoin:miter;"/>
   </g>
   <g id="patch_22">
    <path clip-path="url(#p726784f7b5)" d="M 1201.67111 275.328 
C 1207.552254 275.328 1213.193313 272.991397 1217.35191 268.8328 
C 1221.510507 264.674203 1223.84711 259.033144 1223.84711 253.152 
C 1223.84711 247.270856 1221.510507 241.629797 1217.35191 237.4712 
C 1213.193313 233.312603 1207.552254 230.976 1201.67111 230.976 
C 1195.789966 230.976 1190.148907 233.312603 1185.99031 237.4712 
C 1181.831713 241.629797 1179.49511 247.270856 1179.49511 253.152 
C 1179.49511 259.033144 1181.831713 264.674203 1185.99031 268.8328 
C 1190.148907 272.991397 1195.789966 275.328 1201.67111 275.328 
z
" style="fill:#cc2929;stroke:#cc2929;stroke-linejoin:miter;"/>
   </g>
   <g id="patch_23">
    <path clip-path="url(#p726784f7b5)" d="M 1201.67111 219.888 
C 1207.552254 219.888 1213.193313 217.551397 1217.35191 213.3928 
C 1221.510507 209.234203 1223.84711 203.593144 1223.84711 197.712 
C 1223.84711 191.830856 1221.510507 186.189797 1217.35191 182.0312 
C 1213.193313 177.872603 1207.552254 175.536 1201.67111 175.536 
C 1195.789966 175.536 1190.148907 177.872603 1185.99031 182.0312 
C 1181.831713 186.189797 1179.49511 191.830856 1179.49511 197.712 
C 1179.49511 203.593144 1181.831713 209.234203 1185.99031 213.3928 
C 1190.148907 217.551397 1195.789966 219.888 1201.67111 219.888 
z
" style="fill:#cc2929;stroke:#cc2929;stroke-linejoin:miter;"/>
   </g>
   <g id="patch_24">
    <path clip-path="url(#p726784f7b5)" d="M 1201.67111 164.448 
C 1207.552254 164.448 1213.193313 162.111397 1217.35191 157.9528 
C 1221.510507 153.794203 1223.84711 148.153144 1223.84711 142.272 
C 1223.84711 136.390856 1221.510507 130.749797 1217.35191 126.5912 
C 1213.193313 122.432603 1207.552254 120.096 1201.67111 120.096 
C 1195.789966 120.096 1190.148907 122.432603 1185.99031 126.5912 
C 1181.831713 130.749797 1179.49511 136.390856 1179.49511 142.272 
C 1179.49511 148.153144 1181.831713 153.794203 1185.99031 157.9528 
C 1190.148907 162.111397 1195.789966 164.448 1201.67111 164.448 
z
" style="fill:#cc2929;stroke:#cc2929;stroke-linejoin:miter;"/>
   </g>
   <g id="patch_25">
    <path clip-path="url(#p726784f7b5)" d="M 1443.978091 386.208 
C 1449.859235 386.208 1455.500294 383.871397 1459.658891 379.7128 
C 1463.817487 375.554203 1466.154091 369.913144 1466.154091 364.032 
C 1466.154091 358.150856 1463.817487 352.509797 1459.658891 348.3512 
C 1455.500294 344.192603 1449.859235 341.856 1443.978091 341.856 
C 1438.096947 341.856 1432.455887 344.192603 1428.297291 348.3512 
C 1424.138694 352.509797 1421.802091 358.150856 1421.802091 364.032 
C 1421.802091 369.913144 1424.138694 375.554203 1428.297291 379.7128 
C 1432.455887 383.871397 1438.096947 386.208 1443.978091 386.208 
z
" style="fill:#cc2929;stroke:#cc2929;stroke-linejoin:miter;"/>
   </g>
   <g id="patch_26">
    <path clip-path="url(#p726784f7b5)" d="M 1443.978091 330.768 
C 1449.859235 330.768 1455.500294 328.431397 1459.658891 324.2728 
C 1463.817487 320.114203 1466.154091 314.473144 1466.154091 308.592 
C 1466.154091 302.710856 1463.817487 297.069797 1459.658891 292.9112 
C 1455.500294 288.752603 1449.859235 286.416 1443.978091 286.416 
C 1438.096947 286.416 1432.455887 288.752603 1428.297291 292.9112 
C 1424.138694 297.069797 1421.802091 302.710856 1421.802091 308.592 
C 1421.802091 314.473144 1424.138694 320.114203 1428.297291 324.2728 
C 1432.455887 328.431397 1438.096947 330.768 1443.978091 330.768 
z
" style="fill:#cc2929;stroke:#cc2929;stroke-linejoin:miter;"/>
   </g>
   <g id="patch_27">
    <path clip-path="url(#p726784f7b5)" d="M 1443.978091 109.008 
C 1449.859235 109.008 1455.500294 106.671397 1459.658891 102.5128 
C 1463.817487 98.354203 1466.154091 92.713144 1466.154091 86.832 
C 1466.154091 80.950856 1463.817487 75.309797 1459.658891 71.1512 
C 1455.500294 66.992603 1449.859235 64.656 1443.978091 64.656 
C 1438.096947 64.656 1432.455887 66.992603 1428.297291 71.1512 
C 1424.138694 75.309797 1421.802091 80.950856 1421.802091 86.832 
C 1421.802091 92.713144 1424.138694 98.354203 1428.297291 102.5128 
C 1432.455887 106.671397 1438.096947 109.008 1443.978091 109.008 
z
" style="fill:#cc2929;stroke:#cc2929;stroke-linejoin:miter;"/>
   </g>
   <g id="matplotlib.axis_1"/>
   <g id="matplotlib.axis_2"/>
   <g id="text_1">
    <!-- A1 -->
    <defs>
     <path d="M 34.1875 63.1875 
L 20.796875 26.90625 
L 47.609375 26.90625 
z
M 28.609375 72.90625 
L 39.796875 72.90625 
L 67.578125 0 
L 57.328125 0 
L 50.6875 18.703125 
L 17.828125 18.703125 
L 11.1875 0 
L 0.78125 0 
z
" id="DejaVuSans-65"/>
     <path d="M 12.40625 8.296875 
L 28.515625 8.296875 
L 28.515625 63.921875 
L 10.984375 60.40625 
L 10.984375 69.390625 
L 28.421875 72.90625 
L 38.28125 72.90625 
L 38.28125 8.296875 
L 54.390625 8.296875 
L 54.390625 0 
L 12.40625 0 
z
" id="DejaVuSans-49"/>
    </defs>
    <g style="fill:#ffffff;" transform="translate(447.450674 368.447)scale(0.16 -0.16)">
     <use xlink:href="#DejaVuSans-65"/>
     <use x="68.408203" xlink:href="#DejaVuSans-49"/>
    </g>
   </g>
   <g id="text_2">
    <!-- C3 -->
    <defs>
     <path d="M 64.40625 67.28125 
L 64.40625 56.890625 
Q 59.421875 61.53125 53.78125 63.8125 
Q 48.140625 66.109375 41.796875 66.109375 
Q 29.296875 66.109375 22.65625 58.46875 
Q 16.015625 50.828125 16.015625 36.375 
Q 16.015625 21.96875 22.65625 14.328125 
Q 29.296875 6.6875 41.796875 6.6875 
Q 48.140625 6.6875 53.78125 8.984375 
Q 59.421875 11.28125 64.40625 15.921875 
L 64.40625 5.609375 
Q 59.234375 2.09375 53.4375 0.328125 
Q 47.65625 -1.421875 41.21875 -1.421875 
Q 24.65625 -1.421875 15.125 8.703125 
Q 5.609375 18.84375 5.609375 36.375 
Q 5.609375 53.953125 15.125 64.078125 
Q 24.65625 74.21875 41.21875 74.21875 
Q 47.75 74.21875 53.53125 72.484375 
Q 59.328125 70.75 64.40625 67.28125 
z
" id="DejaVuSans-67"/>
     <path d="M 40.578125 39.3125 
Q 47.65625 37.796875 51.625 33 
Q 55.609375 28.21875 55.609375 21.1875 
Q 55.609375 10.40625 48.1875 4.484375 
Q 40.765625 -1.421875 27.09375 -1.421875 
Q 22.515625 -1.421875 17.65625 -0.515625 
Q 12.796875 0.390625 7.625 2.203125 
L 7.625 11.71875 
Q 11.71875 9.328125 16.59375 8.109375 
Q 21.484375 6.890625 26.8125 6.890625 
Q 36.078125 6.890625 40.9375 10.546875 
Q 45.796875 14.203125 45.796875 21.1875 
Q 45.796875 27.640625 41.28125 31.265625 
Q 36.765625 34.90625 28.71875 34.90625 
L 20.21875 34.90625 
L 20.21875 43.015625 
L 29.109375 43.015625 
Q 36.375 43.015625 40.234375 45.921875 
Q 44.09375 48.828125 44.09375 54.296875 
Q 44.09375 59.90625 40.109375 62.90625 
Q 36.140625 65.921875 28.71875 65.921875 
Q 24.65625 65.921875 20.015625 65.03125 
Q 15.375 64.15625 9.8125 62.3125 
L 9.8125 71.09375 
Q 15.4375 72.65625 20.34375 73.4375 
Q 25.25 74.21875 29.59375 74.21875 
Q 40.828125 74.21875 47.359375 69.109375 
Q 53.90625 64.015625 53.90625 55.328125 
Q 53.90625 49.265625 50.4375 45.09375 
Q 46.96875 40.921875 40.578125 39.3125 
z
" id="DejaVuSans-51"/>
    </defs>
    <g style="fill:#ffffff;" transform="translate(447.336924 202.127)scale(0.16 -0.16)">
     <use xlink:href="#DejaVuSans-67"/>
     <use x="69.824219" xlink:href="#DejaVuSans-51"/>
    </g>
   </g>
   <g id="text_3">
    <!-- E3 -->
    <defs>
     <path d="M 9.8125 72.90625 
L 55.90625 72.90625 
L 55.90625 64.59375 
L 19.671875 64.59375 
L 19.671875 43.015625 
L 54.390625 43.015625 
L 54.390625 34.71875 
L 19.671875 34.71875 
L 19.671875 8.296875 
L 56.78125 8.296875 
L 56.78125 0 
L 9.8125 0 
z
" id="DejaVuSans-69"/>
    </defs>
    <g style="fill:#ffffff;" transform="translate(447.868174 146.687)scale(0.16 -0.16)">
     <use xlink:href="#DejaVuSans-69"/>
     <use x="63.183594" xlink:href="#DejaVuSans-51"/>
    </g>
   </g>
   <g id="text_4">
    <!-- A3 -->
    <g style="fill:#ffffff;" transform="translate(447.450674 91.247)scale(0.16 -0.16)">
     <use xlink:href="#DejaVuSans-65"/>
     <use x="68.408203" xlink:href="#DejaVuSans-51"/>
    </g>
   </g>
   <g id="text_5">
    <!-- F3 -->
    <defs>
     <path d="M 9.8125 72.90625 
L 51.703125 72.90625 
L 51.703125 64.59375 
L 19.671875 64.59375 
L 19.671875 43.109375 
L 48.578125 43.109375 
L 48.578125 34.8125 
L 19.671875 34.8125 
L 19.671875 0 
L 9.8125 0 
z
" id="DejaVuSans-70"/>
    </defs>
    <g style="fill:#ffffff;" transform="translate(614.711804 146.687)scale(0.16 -0.16)">
     <use xlink:href="#DejaVuSans-70"/>
     <use x="57.519531" xlink:href="#DejaVuSans-51"/>
    </g>
   </g>
   <g id="text_6">
    <!-- E2 -->
    <defs>
     <path d="M 19.1875 8.296875 
L 53.609375 8.296875 
L 53.609375 0 
L 7.328125 0 
L 7.328125 8.296875 
Q 12.9375 14.109375 22.625 23.890625 
Q 32.328125 33.6875 34.8125 36.53125 
Q 39.546875 41.84375 41.421875 45.53125 
Q 43.3125 49.21875 43.3125 52.78125 
Q 43.3125 58.59375 39.234375 62.25 
Q 35.15625 65.921875 28.609375 65.921875 
Q 23.96875 65.921875 18.8125 64.3125 
Q 13.671875 62.703125 7.8125 59.421875 
L 7.8125 69.390625 
Q 13.765625 71.78125 18.9375 73 
Q 24.125 74.21875 28.421875 74.21875 
Q 39.75 74.21875 46.484375 68.546875 
Q 53.21875 62.890625 53.21875 53.421875 
Q 53.21875 48.921875 51.53125 44.890625 
Q 49.859375 40.875 45.40625 35.40625 
Q 44.1875 33.984375 37.640625 27.21875 
Q 31.109375 20.453125 19.1875 8.296875 
z
" id="DejaVuSans-50"/>
    </defs>
    <g style="fill:#ffffff;" transform="translate(771.309189 313.007)scale(0.16 -0.16)">
     <use xlink:href="#DejaVuSans-69"/>
     <use x="63.183594" xlink:href="#DejaVuSans-50"/>
    </g>
   </g>
   <g id="text_7">
    <!-- A2 -->
    <g style="fill:#ffffff;" transform="translate(770.891689 257.567)scale(0.16 -0.16)">
     <use xlink:href="#DejaVuSans-65"/>
     <use x="68.408203" xlink:href="#DejaVuSans-50"/>
    </g>
   </g>
   <g id="text_8">
    <!-- C2 -->
    <g style="fill:#ffffff;" transform="translate(919.01447 368.447)scale(0.16 -0.16)">
     <use xlink:href="#DejaVuSans-67"/>
     <use x="69.824219" xlink:href="#DejaVuSans-50"/>
    </g>
   </g>
   <g id="text_9">
    <!-- F2 -->
    <g style="fill:#ffffff;" transform="translate(919.99947 313.007)scale(0.16 -0.16)">
     <use xlink:href="#DejaVuSans-70"/>
     <use x="57.519531" xlink:href="#DejaVuSans-50"/>
    </g>
   </g>
   <g id="text_10">
    <!-- C4 -->
    <defs>
     <path d="M 37.796875 64.3125 
L 12.890625 25.390625 
L 37.796875 25.390625 
z
M 35.203125 72.90625 
L 47.609375 72.90625 
L 47.609375 25.390625 
L 58.015625 25.390625 
L 58.015625 17.1875 
L 47.609375 17.1875 
L 47.609375 0 
L 37.796875 0 
L 37.796875 17.1875 
L 4.890625 17.1875 
L 4.890625 26.703125 
z
" id="DejaVuSans-52"/>
    </defs>
    <g style="fill:#ffffff;" transform="translate(919.01447 91.247)scale(0.16 -0.16)">
     <use xlink:href="#DejaVuSans-67"/>
     <use x="69.824219" xlink:href="#DejaVuSans-52"/>
    </g>
   </g>
   <g id="text_11">
    <!-- E3 -->
    <g style="fill:#ffffff;" transform="translate(1059.462374 202.127)scale(0.16 -0.16)">
     <use xlink:href="#DejaVuSans-69"/>
     <use x="63.183594" xlink:href="#DejaVuSans-51"/>
    </g>
   </g>
   <g id="text_12">
    <!-- C3 -->
    <g style="fill:#ffffff;" transform="translate(1190.99486 257.567)scale(0.16 -0.16)">
     <use xlink:href="#DejaVuSans-67"/>
     <use x="69.824219" xlink:href="#DejaVuSans-51"/>
    </g>
   </g>
   <g id="text_13">
    <!-- F3 -->
    <g style="fill:#ffffff;" transform="translate(1191.97986 202.127)scale(0.16 -0.16)">
     <use xlink:href="#DejaVuSans-70"/>
     <use x="57.519531" xlink:href="#DejaVuSans-51"/>
    </g>
   </g>
   <g id="text_14">
    <!-- A3 -->
    <g style="fill:#ffffff;" transform="translate(1191.10861 146.687)scale(0.16 -0.16)">
     <use xlink:href="#DejaVuSans-65"/>
     <use x="68.408203" xlink:href="#DejaVuSans-51"/>
    </g>
   </g>
   <g id="text_15">
    <!-- E2 -->
    <g style="fill:#ffffff;" transform="translate(1433.833091 368.447)scale(0.16 -0.16)">
     <use xlink:href="#DejaVuSans-69"/>
     <use x="63.183594" xlink:href="#DejaVuSans-50"/>
    </g>
   </g>
   <g id="text_16">
    <!-- A2 -->
    <g style="fill:#ffffff;" transform="translate(1433.415591 313.007)scale(0.16 -0.16)">
     <use xlink:href="#DejaVuSans-65"/>
     <use x="68.408203" xlink:href="#DejaVuSans-50"/>
    </g>
   </g>
   <g id="text_17">
    <!-- E4 -->
    <g style="fill:#ffffff;" transform="translate(1433.833091 91.247)scale(0.16 -0.16)">
     <use xlink:href="#DejaVuSans-69"/>
     <use x="63.183594" xlink:href="#DejaVuSans-52"/>
    </g>
   </g>
   <g id="patch_28">
    <path clip-path="url(#p726784f7b5)" d="M 303.905236 219.888 
C 309.78638 219.888 315.427439 217.551397 319.586036 213.3928 
C 323.744633 209.234203 326.081236 203.593144 326.081236 197.712 
C 326.081236 191.830856 323.744633 186.189797 319.586036 182.0312 
C 315.427439 177.872603 309.78638 175.536 303.905236 175.536 
C 298.024092 175.536 292.383033 177.872603 288.224436 182.0312 
C 284.065839 186.189797 281.729236 191.830856 281.729236 197.712 
C 281.729236 203.593144 284.065839 209.234203 288.224436 213.3928 
C 292.383033 217.551397 298.024092 219.888 303.905236 219.888 
z
" style="fill:#7acc29;stroke:#7acc29;stroke-linejoin:miter;"/>
   </g>
   <g id="patch_29">
    <path clip-path="url(#p726784f7b5)" d="M 480.189174 330.768 
C 486.070318 330.768 491.711377 328.431397 495.869974 324.2728 
C 500.028571 320.114203 502.365174 314.473144 502.365174 308.592 
C 502.365174 302.710856 500.028571 297.069797 495.869974 292.9112 
C 491.711377 288.752603 486.070318 286.416 480.189174 286.416 
C 474.30803 286.416 468.666971 288.752603 464.508374 292.9112 
C 460.349777 297.069797 458.013174 302.710856 458.013174 308.592 
C 458.013174 314.473144 460.349777 320.114203 464.508374 324.2728 
C 468.666971 328.431397 474.30803 330.768 480.189174 330.768 
z
" style="fill:#7acc29;stroke:#7acc29;stroke-linejoin:miter;"/>
   </g>
   <g id="patch_30">
    <path clip-path="url(#p726784f7b5)" d="M 480.189174 275.328 
C 486.070318 275.328 491.711377 272.991397 495.869974 268.8328 
C 500.028571 264.674203 502.365174 259.033144 502.365174 253.152 
C 502.365174 247.270856 500.028571 241.629797 495.869974 237.4712 
C 491.711377 233.312603 486.070318 230.976 480.189174 230.976 
C 474.30803 230.976 468.666971 233.312603 464.508374 237.4712 
C 460.349777 241.629797 458.013174 247.270856 458.013174 253.152 
C 458.013174 259.033144 460.349777 264.674203 464.508374 268.8328 
C 468.666971 272.991397 474.30803 275.328 480.189174 275.328 
z
" style="fill:#7acc29;stroke:#7acc29;stroke-linejoin:miter;"/>
   </g>
   <g id="patch_31">
    <path clip-path="url(#p726784f7b5)" d="M 480.189174 164.448 
C 486.070318 164.448 491.711377 162.111397 495.869974 157.9528 
C 500.028571 153.794203 502.365174 148.153144 502.365174 142.272 
C 502.365174 136.390856 500.028571 130.749797 495.869974 126.5912 
C 491.711377 122.432603 486.070318 120.096 480.189174 120.096 
C 474.30803 120.096 468.666971 122.432603 464.508374 126.5912 
C 460.349777 130.749797 458.013174 136.390856 458.013174 142.272 
C 458.013174 148.153144 460.349777 153.794203 464.508374 157.9528 
C 468.666971 162.111397 474.30803 164.448 480.189174 164.448 
z
" style="fill:#7acc29;stroke:#7acc29;stroke-linejoin:miter;"/>
   </g>
   <g id="patch_32">
    <path clip-path="url(#p726784f7b5)" d="M 803.630189 386.208 
C 809.511333 386.208 815.152392 383.871397 819.310989 379.7128 
C 823.469585 375.554203 825.806189 369.913144 825.806189 364.032 
C 825.806189 358.150856 823.469585 352.509797 819.310989 348.3512 
C 815.152392 344.192603 809.511333 341.856 803.630189 341.856 
C 797.749045 341.856 792.107985 344.192603 787.949389 348.3512 
C 783.790792 352.509797 781.454189 358.150856 781.454189 364.032 
C 781.454189 369.913144 783.790792 375.554203 787.949389 379.7128 
C 792.107985 383.871397 797.749045 386.208 803.630189 386.208 
z
" style="fill:#7acc29;stroke:#7acc29;stroke-linejoin:miter;"/>
   </g>
   <g id="patch_33">
    <path clip-path="url(#p726784f7b5)" d="M 803.630189 330.768 
C 809.511333 330.768 815.152392 328.431397 819.310989 324.2728 
C 823.469585 320.114203 825.806189 314.473144 825.806189 308.592 
C 825.806189 302.710856 823.469585 297.069797 819.310989 292.9112 
C 815.152392 288.752603 809.511333 286.416 803.630189 286.416 
C 797.749045 286.416 792.107985 288.752603 787.949389 292.9112 
C 783.790792 297.069797 781.454189 302.710856 781.454189 308.592 
C 781.454189 314.473144 783.790792 320.114203 787.949389 324.2728 
C 792.107985 328.431397 797.749045 330.768 803.630189 330.768 
z
" style="fill:#7acc29;stroke:#7acc29;stroke-linejoin:miter;"/>
   </g>
   <g id="patch_34">
    <path clip-path="url(#p726784f7b5)" d="M 803.630189 219.888 
C 809.511333 219.888 815.152392 217.551397 819.310989 213.3928 
C 823.469585 209.234203 825.806189 203.593144 825.806189 197.712 
C 825.806189 191.830856 823.469585 186.189797 819.310989 182.0312 
C 815.152392 177.872603 809.511333 175.536 803.630189 175.536 
C 797.749045 175.536 792.107985 177.872603 787.949389 182.0312 
C 783.790792 186.189797 781.454189 191.830856 781.454189 197.712 
C 781.454189 203.593144 783.790792 209.234203 787.949389 213.3928 
C 792.107985 217.551397 797.749045 219.888 803.630189 219.888 
z
" style="fill:#7acc29;stroke:#7acc29;stroke-linejoin:miter;"/>
   </g>
   <g id="patch_35">
    <path clip-path="url(#p726784f7b5)" d="M 803.630189 109.008 
C 809.511333 109.008 815.152392 106.671397 819.310989 102.5128 
C 823.469585 98.354203 825.806189 92.713144 825.806189 86.832 
C 825.806189 80.950856 823.469585 75.309797 819.310989 71.1512 
C 815.152392 66.992603 809.511333 64.656 803.630189 64.656 
C 797.749045 64.656 792.107985 66.992603 787.949389 71.1512 
C 783.790792 75.309797 781.454189 80.950856 781.454189 86.832 
C 781.454189 92.713144 783.790792 98.354203 787.949389 102.5128 
C 792.107985 106.671397 797.749045 109.008 803.630189 109.008 
z
" style="fill:#7acc29;stroke:#7acc29;stroke-linejoin:miter;"/>
   </g>
   <g id="patch_36">
    <path clip-path="url(#p726784f7b5)" d="M 951.86672 164.448 
C 957.747864 164.448 963.388923 162.111397 967.54752 157.9528 
C 971.706117 153.794203 974.04272 148.153144 974.04272 142.272 
C 974.04272 136.390856 971.706117 130.749797 967.54752 126.5912 
C 963.388923 122.432603 957.747864 120.096 951.86672 120.096 
C 945.985576 120.096 940.344517 122.432603 936.18592 126.5912 
C 932.027323 130.749797 929.69072 136.390856 929.69072 142.272 
C 929.69072 148.153144 932.027323 153.794203 936.18592 157.9528 
C 940.344517 162.111397 945.985576 164.448 951.86672 164.448 
z
" style="fill:#7acc29;stroke:#7acc29;stroke-linejoin:miter;"/>
   </g>
   <g id="patch_37">
    <path clip-path="url(#p726784f7b5)" d="M 1091.783374 275.328 
C 1097.664518 275.328 1103.305577 272.991397 1107.464174 268.8328 
C 1111.622771 264.674203 1113.959374 259.033144 1113.959374 253.152 
C 1113.959374 247.270856 1111.622771 241.629797 1107.464174 237.4712 
C 1103.305577 233.312603 1097.664518 230.976 1091.783374 230.976 
C 1085.90223 230.976 1080.261171 233.312603 1076.102574 237.4712 
C 1071.943977 241.629797 1069.607374 247.270856 1069.607374 253.152 
C 1069.607374 259.033144 1071.943977 264.674203 1076.102574 268.8328 
C 1080.261171 272.991397 1085.90223 275.328 1091.783374 275.328 
z
" style="fill:#7acc29;stroke:#7acc29;stroke-linejoin:miter;"/>
   </g>
   <g id="patch_38">
    <path clip-path="url(#p726784f7b5)" d="M 1091.783374 219.888 
C 1097.664518 219.888 1103.305577 217.551397 1107.464174 213.3928 
C 1111.622771 209.234203 1113.959374 203.593144 1113.959374 197.712 
C 1113.959374 191.830856 1111.622771 186.189797 1107.464174 182.0312 
C 1103.305577 177.872603 1097.664518 175.536 1091.783374 175.536 
C 1085.90223 175.536 1080.261171 177.872603 1076.102574 182.0312 
C 1071.943977 186.189797 1069.607374 191.830856 1069.607374 197.712 
C 1069.607374 203.593144 1071.943977 209.234203 1076.102574 213.3928 
C 1080.261171 217.551397 1085.90223 219.888 1091.783374 219.888 
z
" style="fill:#7acc29;stroke:#7acc29;stroke-linejoin:miter;"/>
   </g>
   <g id="patch_39">
    <path clip-path="url(#p726784f7b5)" d="M 1223.84711 386.208 
C 1229.728254 386.208 1235.369313 383.871397 1239.52791 379.7128 
C 1243.686507 375.554203 1246.02311 369.913144 1246.02311 364.032 
C 1246.02311 358.150856 1243.686507 352.509797 1239.52791 348.3512 
C 1235.369313 344.192603 1229.728254 341.856 1223.84711 341.856 
C 1217.965966 341.856 1212.324907 344.192603 1208.16631 348.3512 
C 1204.007713 352.509797 1201.67111 358.150856 1201.67111 364.032 
C 1201.67111 369.913144 1204.007713 375.554203 1208.16631 379.7128 
C 1212.324907 383.871397 1217.965966 386.208 1223.84711 386.208 
z
" style="fill:#7acc29;stroke:#7acc29;stroke-linejoin:miter;"/>
   </g>
   <g id="patch_40">
    <path clip-path="url(#p726784f7b5)" d="M 1223.84711 330.768 
C 1229.728254 330.768 1235.369313 328.431397 1239.52791 324.2728 
C 1243.686507 320.114203 1246.02311 314.473144 1246.02311 308.592 
C 1246.02311 302.710856 1243.686507 297.069797 1239.52791 292.9112 
C 1235.369313 288.752603 1229.728254 286.416 1223.84711 286.416 
C 1217.965966 286.416 1212.324907 288.752603 1208.16631 292.9112 
C 1204.007713 297.069797 1201.67111 302.710856 1201.67111 308.592 
C 1201.67111 314.473144 1204.007713 320.114203 1208.16631 324.2728 
C 1212.324907 328.431397 1217.965966 330.768 1223.84711 330.768 
z
" style="fill:#7acc29;stroke:#7acc29;stroke-linejoin:miter;"/>
   </g>
   <g id="patch_41">
    <path clip-path="url(#p726784f7b5)" d="M 1223.84711 109.008 
C 1229.728254 109.008 1235.369313 106.671397 1239.52791 102.5128 
C 1243.686507 98.354203 1246.02311 92.713144 1246.02311 86.832 
C 1246.02311 80.950856 1243.686507 75.309797 1239.52791 71.1512 
C 1235.369313 66.992603 1229.728254 64.656 1223.84711 64.656 
C 1217.965966 64.656 1212.324907 66.992603 1208.16631 71.1512 
C 1204.007713 75.309797 1201.67111 80.950856 1201.67111 86.832 
C 1201.67111 92.713144 1204.007713 98.354203 1208.16631 102.5128 
C 1212.324907 106.671397 1217.965966 109.008 1223.84711 109.008 
z
" style="fill:#7acc29;stroke:#7acc29;stroke-linejoin:miter;"/>
   </g>
   <g id="patch_42">
    <path clip-path="url(#p726784f7b5)" d="M 1466.154091 386.208 
C 1472.035235 386.208 1477.676294 383.871397 1481.834891 379.7128 
C 1485.993487 375.554203 1488.330091 369.913144 1488.330091 364.032 
C 1488.330091 358.150856 1485.993487 352.509797 1481.834891 348.3512 
C 1477.676294 344.192603 1472.035235 341.856 1466.154091 341.856 
C 1460.272947 341.856 1454.631887 344.192603 1450.473291 348.3512 
C 1446.314694 352.509797 1443.978091 358.150856 1443.978091 364.032 
C 1443.978091 369.913144 1446.314694 375.554203 1450.473291 379.7128 
C 1454.631887 383.871397 1460.272947 386.208 1466.154091 386.208 
z
" style="fill:#7acc29;stroke:#7acc29;stroke-linejoin:miter;"/>
   </g>
   <g id="patch_43">
    <path clip-path="url(#p726784f7b5)" d="M 1466.154091 275.328 
C 1472.035235 275.328 1477.676294 272.991397 1481.834891 268.8328 
C 1485.993487 264.674203 1488.330091 259.033144 1488.330091 253.152 
C 1488.330091 247.270856 1485.993487 241.629797 1481.834891 237.4712 
C 1477.676294 233.312603 1472.035235 230.976 1466.154091 230.976 
C 1460.272947 230.976 1454.631887 233.312603 1450.473291 237.4712 
C 1446.314694 241.629797 1443.978091 247.270856 1443.978091 253.152 
C 1443.978091 259.033144 1446.314694 264.674203 1450.473291 268.8328 
C 1454.631887 272.991397 1460.272947 275.328 1466.154091 275.328 
z
" style="fill:#7acc29;stroke:#7acc29;stroke-linejoin:miter;"/>
   </g>
   <g id="patch_44">
    <path clip-path="url(#p726784f7b5)" d="M 1466.154091 219.888 
C 1472.035235 219.888 1477.676294 217.551397 1481.834891 213.3928 
C 1485.993487 209.234203 1488.330091 203.593144 1488.330091 197.712 
C 1488.330091 191.830856 1485.993487 186.189797 1481.834891 182.0312 
C 1477.676294 177.872603 1472.035235 175.536 1466.154091 175.536 
C 1460.272947 175.536 1454.631887 177.872603 1450.473291 182.0312 
C 1446.314694 186.189797 1443.978091 191.830856 1443.978091 197.712 
C 1443.978091 203.593144 1446.314694 209.234203 1450.473291 213.3928 
C 1454.631887 217.551397 1460.272947 219.888 1466.154091 219.888 
z
" style="fill:#7acc29;stroke:#7acc29;stroke-linejoin:miter;"/>
   </g>
   <g id="patch_45">
    <path clip-path="url(#p726784f7b5)" d="M 1466.154091 164.448 
C 1472.035235 164.448 1477.676294 162.111397 1481.834891 157.9528 
C 1485.993487 153.794203 1488.330091 148.153144 1488.330091 142.272 
C 1488.330091 136.390856 1485.993487 130.749797 1481.834891 126.5912 
C 1477.676294 122.432603 1472.035235 120.096 1466.154091 120.096 
C 1460.272947 120.096 1454.631887 122.432603 1450.473291 126.5912 
C 1446.314694 130.749797 1443.978091 136.390856 1443.978091 142.272 
C 1443.978091 148.153144 1446.314694 153.794203 1450.473291 157.9528 
C 1454.631887 162.111397 1460.272947 164.448 1466.154091 164.448 
z
" style="fill:#7acc29;stroke:#7acc29;stroke-linejoin:miter;"/>
   </g>
   <g id="patch_46">
    <path clip-path="url(#p726784f7b5)" d="M 1466.154091 109.008 
C 1472.035235 109.008 1477.676294 106.671397 1481.834891 102.5128 
C 1485.993487 98.354203 1488.330091 92.713144 1488.330091 86.832 
C 1488.330091 80.950856 1485.993487 75.309797 1481.834891 71.1512 
C 1477.676294 66.992603 1472.035235 64.656 1466.154091 64.656 
C 1460.272947 64.656 1454.631887 66.992603 1450.473291 71.1512 
C 1446.314694 75.309797 1443.978091 80.950856 1443.978091 86.832 
C 1443.978091 92.713144 1446.314694 98.354203 1450.473291 102.5128 
C 1454.631887 106.671397 1460.272947 109.008 1466.154091 109.008 
z
" style="fill:#7acc29;stroke:#7acc29;stroke-linejoin:miter;"/>
   </g>
   <g id="text_18">
    <!-- B2 -->
    <defs>
     <path d="M 19.671875 34.8125 
L 19.671875 8.109375 
L 35.5 8.109375 
Q 43.453125 8.109375 47.28125 11.40625 
Q 51.125 14.703125 51.125 21.484375 
Q 51.125 28.328125 47.28125 31.5625 
Q 43.453125 34.8125 35.5 34.8125 
z
M 19.671875 64.796875 
L 19.671875 42.828125 
L 34.28125 42.828125 
Q 41.5 42.828125 45.03125 45.53125 
Q 48.578125 48.25 48.578125 53.8125 
Q 48.578125 59.328125 45.03125 62.0625 
Q 41.5 64.796875 34.28125 64.796875 
z
M 9.8125 72.90625 
L 35.015625 72.90625 
Q 46.296875 72.90625 52.390625 68.21875 
Q 58.5 63.53125 58.5 54.890625 
Q 58.5 48.1875 55.375 44.234375 
Q 52.25 40.28125 46.1875 39.3125 
Q 53.46875 37.75 57.5 32.78125 
Q 61.53125 27.828125 61.53125 20.40625 
Q 61.53125 10.640625 54.890625 5.3125 
Q 48.25 0 35.984375 0 
L 9.8125 0 
z
" id="DejaVuSans-66"/>
    </defs>
    <g style="fill:#ffffff;" transform="translate(293.326486 202.127)scale(0.16 -0.16)">
     <use xlink:href="#DejaVuSans-66"/>
     <use x="68.603516" xlink:href="#DejaVuSans-50"/>
    </g>
   </g>
   <g id="text_19">
    <!-- D2 -->
    <defs>
     <path d="M 19.671875 64.796875 
L 19.671875 8.109375 
L 31.59375 8.109375 
Q 46.6875 8.109375 53.6875 14.9375 
Q 60.6875 21.78125 60.6875 36.53125 
Q 60.6875 51.171875 53.6875 57.984375 
Q 46.6875 64.796875 31.59375 64.796875 
z
M 9.8125 72.90625 
L 30.078125 72.90625 
Q 51.265625 72.90625 61.171875 64.09375 
Q 71.09375 55.28125 71.09375 36.53125 
Q 71.09375 17.671875 61.125 8.828125 
Q 51.171875 0 30.078125 0 
L 9.8125 0 
z
" id="DejaVuSans-68"/>
    </defs>
    <g style="fill:#ffffff;" transform="translate(468.939174 313.007)scale(0.16 -0.16)">
     <use xlink:href="#DejaVuSans-68"/>
     <use x="77.001953" xlink:href="#DejaVuSans-50"/>
    </g>
   </g>
   <g id="text_20">
    <!-- G2 -->
    <defs>
     <path d="M 59.515625 10.40625 
L 59.515625 29.984375 
L 43.40625 29.984375 
L 43.40625 38.09375 
L 69.28125 38.09375 
L 69.28125 6.78125 
Q 63.578125 2.734375 56.6875 0.65625 
Q 49.8125 -1.421875 42 -1.421875 
Q 24.90625 -1.421875 15.25 8.5625 
Q 5.609375 18.5625 5.609375 36.375 
Q 5.609375 54.25 15.25 64.234375 
Q 24.90625 74.21875 42 74.21875 
Q 49.125 74.21875 55.546875 72.453125 
Q 61.96875 70.703125 67.390625 67.28125 
L 67.390625 56.78125 
Q 61.921875 61.421875 55.765625 63.765625 
Q 49.609375 66.109375 42.828125 66.109375 
Q 29.4375 66.109375 22.71875 58.640625 
Q 16.015625 51.171875 16.015625 36.375 
Q 16.015625 21.625 22.71875 14.15625 
Q 29.4375 6.6875 42.828125 6.6875 
Q 48.046875 6.6875 52.140625 7.59375 
Q 56.25 8.5 59.515625 10.40625 
z
" id="DejaVuSans-71"/>
    </defs>
    <g style="fill:#ffffff;" transform="translate(468.900424 257.567)scale(0.16 -0.16)">
     <use xlink:href="#DejaVuSans-71"/>
     <use x="77.490234" xlink:href="#DejaVuSans-50"/>
    </g>
   </g>
   <g id="text_21">
    <!-- E3 -->
    <g style="fill:#ffffff;" transform="translate(470.044174 146.687)scale(0.16 -0.16)">
     <use xlink:href="#DejaVuSans-69"/>
     <use x="63.183594" xlink:href="#DejaVuSans-51"/>
    </g>
   </g>
   <g id="text_22">
    <!-- B1 -->
    <g style="fill:#ffffff;" transform="translate(793.051439 368.447)scale(0.16 -0.16)">
     <use xlink:href="#DejaVuSans-66"/>
     <use x="68.603516" xlink:href="#DejaVuSans-49"/>
    </g>
   </g>
   <g id="text_23">
    <!-- E2 -->
    <g style="fill:#ffffff;" transform="translate(793.485189 313.007)scale(0.16 -0.16)">
     <use xlink:href="#DejaVuSans-69"/>
     <use x="63.183594" xlink:href="#DejaVuSans-50"/>
    </g>
   </g>
   <g id="text_24">
    <!-- D3 -->
    <g style="fill:#ffffff;" transform="translate(792.380189 202.127)scale(0.16 -0.16)">
     <use xlink:href="#DejaVuSans-68"/>
     <use x="77.001953" xlink:href="#DejaVuSans-51"/>
    </g>
   </g>
   <g id="text_25">
    <!-- B3 -->
    <g style="fill:#ffffff;" transform="translate(793.051439 91.247)scale(0.16 -0.16)">
     <use xlink:href="#DejaVuSans-66"/>
     <use x="68.603516" xlink:href="#DejaVuSans-51"/>
    </g>
   </g>
   <g id="text_26">
    <!-- G3 -->
    <g style="fill:#ffffff;" transform="translate(940.57797 146.687)scale(0.16 -0.16)">
     <use xlink:href="#DejaVuSans-71"/>
     <use x="77.490234" xlink:href="#DejaVuSans-51"/>
    </g>
   </g>
   <g id="text_27">
    <!-- B2 -->
    <g style="fill:#ffffff;" transform="translate(1081.204624 257.567)scale(0.16 -0.16)">
     <use xlink:href="#DejaVuSans-66"/>
     <use x="68.603516" xlink:href="#DejaVuSans-50"/>
    </g>
   </g>
   <g id="text_28">
    <!-- E3 -->
    <g style="fill:#ffffff;" transform="translate(1081.638374 202.127)scale(0.16 -0.16)">
     <use xlink:href="#DejaVuSans-69"/>
     <use x="63.183594" xlink:href="#DejaVuSans-51"/>
    </g>
   </g>
   <g id="text_29">
    <!-- D2 -->
    <g style="fill:#ffffff;" transform="translate(1212.59711 368.447)scale(0.16 -0.16)">
     <use xlink:href="#DejaVuSans-68"/>
     <use x="77.001953" xlink:href="#DejaVuSans-50"/>
    </g>
   </g>
   <g id="text_30">
    <!-- G2 -->
    <g style="fill:#ffffff;" transform="translate(1212.55836 313.007)scale(0.16 -0.16)">
     <use xlink:href="#DejaVuSans-71"/>
     <use x="77.490234" xlink:href="#DejaVuSans-50"/>
    </g>
   </g>
   <g id="text_31">
    <!-- D4 -->
    <g style="fill:#ffffff;" transform="translate(1212.59711 91.247)scale(0.16 -0.16)">
     <use xlink:href="#DejaVuSans-68"/>
     <use x="77.001953" xlink:href="#DejaVuSans-52"/>
    </g>
   </g>
   <g id="text_32">
    <!-- E2 -->
    <g style="fill:#ffffff;" transform="translate(1456.009091 368.447)scale(0.16 -0.16)">
     <use xlink:href="#DejaVuSans-69"/>
     <use x="63.183594" xlink:href="#DejaVuSans-50"/>
    </g>
   </g>
   <g id="text_33">
    <!-- D3 -->
    <g style="fill:#ffffff;" transform="translate(1454.904091 257.567)scale(0.16 -0.16)">
     <use xlink:href="#DejaVuSans-68"/>
     <use x="77.001953" xlink:href="#DejaVuSans-51"/>
    </g>
   </g>
   <g id="text_34">
    <!-- G3 -->
    <g style="fill:#ffffff;" transform="translate(1454.865341 202.127)scale(0.16 -0.16)">
     <use xlink:href="#DejaVuSans-71"/>
     <use x="77.490234" xlink:href="#DejaVuSans-51"/>
    </g>
   </g>
   <g id="text_35">
    <!-- B3 -->
    <g style="fill:#ffffff;" transform="translate(1455.575341 146.687)scale(0.16 -0.16)">
     <use xlink:href="#DejaVuSans-66"/>
     <use x="68.603516" xlink:href="#DejaVuSans-51"/>
    </g>
   </g>
   <g id="text_36">
    <!-- E4 -->
    <g style="fill:#ffffff;" transform="translate(1456.009091 91.247)scale(0.16 -0.16)">
     <use xlink:href="#DejaVuSans-69"/>
     <use x="63.183594" xlink:href="#DejaVuSans-52"/>
    </g>
   </g>
   <g id="patch_47">
    <path clip-path="url(#p726784f7b5)" d="M 326.081236 219.888 
C 331.96238 219.888 337.603439 217.551397 341.762036 213.3928 
C 345.920633 209.234203 348.257236 203.593144 348.257236 197.712 
C 348.257236 191.830856 345.920633 186.189797 341.762036 182.0312 
C 337.603439 177.872603 331.96238 175.536 326.081236 175.536 
C 320.200092 175.536 314.559033 177.872603 310.400436 182.0312 
C 306.241839 186.189797 303.905236 191.830856 303.905236 197.712 
C 303.905236 203.593144 306.241839 209.234203 310.400436 213.3928 
C 314.559033 217.551397 320.200092 219.888 326.081236 219.888 
z
" style="fill:#29cccc;stroke:#29cccc;stroke-linejoin:miter;"/>
   </g>
   <g id="patch_48">
    <path clip-path="url(#p726784f7b5)" d="M 502.365174 330.768 
C 508.246318 330.768 513.887377 328.431397 518.045974 324.2728 
C 522.204571 320.114203 524.541174 314.473144 524.541174 308.592 
C 524.541174 302.710856 522.204571 297.069797 518.045974 292.9112 
C 513.887377 288.752603 508.246318 286.416 502.365174 286.416 
C 496.48403 286.416 490.842971 288.752603 486.684374 292.9112 
C 482.525777 297.069797 480.189174 302.710856 480.189174 308.592 
C 480.189174 314.473144 482.525777 320.114203 486.684374 324.2728 
C 490.842971 328.431397 496.48403 330.768 502.365174 330.768 
z
" style="fill:#29cccc;stroke:#29cccc;stroke-linejoin:miter;"/>
   </g>
   <g id="patch_49">
    <path clip-path="url(#p726784f7b5)" d="M 502.365174 275.328 
C 508.246318 275.328 513.887377 272.991397 518.045974 268.8328 
C 522.204571 264.674203 524.541174 259.033144 524.541174 253.152 
C 524.541174 247.270856 522.204571 241.629797 518.045974 237.4712 
C 513.887377 233.312603 508.246318 230.976 502.365174 230.976 
C 496.48403 230.976 490.842971 233.312603 486.684374 237.4712 
C 482.525777 241.629797 480.189174 247.270856 480.189174 253.152 
C 480.189174 259.033144 482.525777 264.674203 486.684374 268.8328 
C 490.842971 272.991397 496.48403 275.328 502.365174 275.328 
z
" style="fill:#29cccc;stroke:#29cccc;stroke-linejoin:miter;"/>
   </g>
   <g id="patch_50">
    <path clip-path="url(#p726784f7b5)" d="M 502.365174 164.448 
C 508.246318 164.448 513.887377 162.111397 518.045974 157.9528 
C 522.204571 153.794203 524.541174 148.153144 524.541174 142.272 
C 524.541174 136.390856 522.204571 130.749797 518.045974 126.5912 
C 513.887377 122.432603 508.246318 120.096 502.365174 120.096 
C 496.48403 120.096 490.842971 122.432603 486.684374 126.5912 
C 482.525777 130.749797 480.189174 136.390856 480.189174 142.272 
C 480.189174 148.153144 482.525777 153.794203 486.684374 157.9528 
C 490.842971 162.111397 496.48403 164.448 502.365174 164.448 
z
" style="fill:#29cccc;stroke:#29cccc;stroke-linejoin:miter;"/>
   </g>
   <g id="patch_51">
    <path clip-path="url(#p726784f7b5)" d="M 825.806189 386.208 
C 831.687333 386.208 837.328392 383.871397 841.486989 379.7128 
C 845.645585 375.554203 847.982189 369.913144 847.982189 364.032 
C 847.982189 358.150856 845.645585 352.509797 841.486989 348.3512 
C 837.328392 344.192603 831.687333 341.856 825.806189 341.856 
C 819.925045 341.856 814.283985 344.192603 810.125389 348.3512 
C 805.966792 352.509797 803.630189 358.150856 803.630189 364.032 
C 803.630189 369.913144 805.966792 375.554203 810.125389 379.7128 
C 814.283985 383.871397 819.925045 386.208 825.806189 386.208 
z
" style="fill:#29cccc;stroke:#29cccc;stroke-linejoin:miter;"/>
   </g>
   <g id="patch_52">
    <path clip-path="url(#p726784f7b5)" d="M 825.806189 330.768 
C 831.687333 330.768 837.328392 328.431397 841.486989 324.2728 
C 845.645585 320.114203 847.982189 314.473144 847.982189 308.592 
C 847.982189 302.710856 845.645585 297.069797 841.486989 292.9112 
C 837.328392 288.752603 831.687333 286.416 825.806189 286.416 
C 819.925045 286.416 814.283985 288.752603 810.125389 292.9112 
C 805.966792 297.069797 803.630189 302.710856 803.630189 308.592 
C 803.630189 314.473144 805.966792 320.114203 810.125389 324.2728 
C 814.283985 328.431397 819.925045 330.768 825.806189 330.768 
z
" style="fill:#29cccc;stroke:#29cccc;stroke-linejoin:miter;"/>
   </g>
   <g id="patch_53">
    <path clip-path="url(#p726784f7b5)" d="M 825.806189 219.888 
C 831.687333 219.888 837.328392 217.551397 841.486989 213.3928 
C 845.645585 209.234203 847.982189 203.593144 847.982189 197.712 
C 847.982189 191.830856 845.645585 186.189797 841.486989 182.0312 
C 837.328392 177.872603 831.687333 175.536 825.806189 175.536 
C 819.925045 175.536 814.283985 177.872603 810.125389 182.0312 
C 805.966792 186.189797 803.630189 191.830856 803.630189 197.712 
C 803.630189 203.593144 805.966792 209.234203 810.125389 213.3928 
C 814.283985 217.551397 819.925045 219.888 825.806189 219.888 
z
" style="fill:#29cccc;stroke:#29cccc;stroke-linejoin:miter;"/>
   </g>
   <g id="patch_54">
    <path clip-path="url(#p726784f7b5)" d="M 825.806189 109.008 
C 831.687333 109.008 837.328392 106.671397 841.486989 102.5128 
C 845.645585 98.354203 847.982189 92.713144 847.982189 86.832 
C 847.982189 80.950856 845.645585 75.309797 841.486989 71.1512 
C 837.328392 66.992603 831.687333 64.656 825.806189 64.656 
C 819.925045 64.656 814.283985 66.992603 810.125389 71.1512 
C 805.966792 75.309797 803.630189 80.950856 803.630189 86.832 
C 803.630189 92.713144 805.966792 98.354203 810.125389 102.5128 
C 814.283985 106.671397 819.925045 109.008 825.806189 109.008 
z
" style="fill:#29cccc;stroke:#29cccc;stroke-linejoin:miter;"/>
   </g>
   <g id="patch_55">
    <path clip-path="url(#p726784f7b5)" d="M 974.04272 164.448 
C 979.923864 164.448 985.564923 162.111397 989.72352 157.9528 
C 993.882117 153.794203 996.21872 148.153144 996.21872 142.272 
C 996.21872 136.390856 993.882117 130.749797 989.72352 126.5912 
C 985.564923 122.432603 979.923864 120.096 974.04272 120.096 
C 968.161576 120.096 962.520517 122.432603 958.36192 126.5912 
C 954.203323 130.749797 951.86672 136.390856 951.86672 142.272 
C 951.86672 148.153144 954.203323 153.794203 958.36192 157.9528 
C 962.520517 162.111397 968.161576 164.448 974.04272 164.448 
z
" style="fill:#29cccc;stroke:#29cccc;stroke-linejoin:miter;"/>
   </g>
   <g id="patch_56">
    <path clip-path="url(#p726784f7b5)" d="M 1113.959374 275.328 
C 1119.840518 275.328 1125.481577 272.991397 1129.640174 268.8328 
C 1133.798771 264.674203 1136.135374 259.033144 1136.135374 253.152 
C 1136.135374 247.270856 1133.798771 241.629797 1129.640174 237.4712 
C 1125.481577 233.312603 1119.840518 230.976 1113.959374 230.976 
C 1108.07823 230.976 1102.437171 233.312603 1098.278574 237.4712 
C 1094.119977 241.629797 1091.783374 247.270856 1091.783374 253.152 
C 1091.783374 259.033144 1094.119977 264.674203 1098.278574 268.8328 
C 1102.437171 272.991397 1108.07823 275.328 1113.959374 275.328 
z
" style="fill:#29cccc;stroke:#29cccc;stroke-linejoin:miter;"/>
   </g>
   <g id="patch_57">
    <path clip-path="url(#p726784f7b5)" d="M 1113.959374 219.888 
C 1119.840518 219.888 1125.481577 217.551397 1129.640174 213.3928 
C 1133.798771 209.234203 1136.135374 203.593144 1136.135374 197.712 
C 1136.135374 191.830856 1133.798771 186.189797 1129.640174 182.0312 
C 1125.481577 177.872603 1119.840518 175.536 1113.959374 175.536 
C 1108.07823 175.536 1102.437171 177.872603 1098.278574 182.0312 
C 1094.119977 186.189797 1091.783374 191.830856 1091.783374 197.712 
C 1091.783374 203.593144 1094.119977 209.234203 1098.278574 213.3928 
C 1102.437171 217.551397 1108.07823 219.888 1113.959374 219.888 
z
" style="fill:#29cccc;stroke:#29cccc;stroke-linejoin:miter;"/>
   </g>
   <g id="patch_58">
    <path clip-path="url(#p726784f7b5)" d="M 1246.02311 386.208 
C 1251.904254 386.208 1257.545313 383.871397 1261.70391 379.7128 
C 1265.862507 375.554203 1268.19911 369.913144 1268.19911 364.032 
C 1268.19911 358.150856 1265.862507 352.509797 1261.70391 348.3512 
C 1257.545313 344.192603 1251.904254 341.856 1246.02311 341.856 
C 1240.141966 341.856 1234.500907 344.192603 1230.34231 348.3512 
C 1226.183713 352.509797 1223.84711 358.150856 1223.84711 364.032 
C 1223.84711 369.913144 1226.183713 375.554203 1230.34231 379.7128 
C 1234.500907 383.871397 1240.141966 386.208 1246.02311 386.208 
z
" style="fill:#29cccc;stroke:#29cccc;stroke-linejoin:miter;"/>
   </g>
   <g id="patch_59">
    <path clip-path="url(#p726784f7b5)" d="M 1246.02311 330.768 
C 1251.904254 330.768 1257.545313 328.431397 1261.70391 324.2728 
C 1265.862507 320.114203 1268.19911 314.473144 1268.19911 308.592 
C 1268.19911 302.710856 1265.862507 297.069797 1261.70391 292.9112 
C 1257.545313 288.752603 1251.904254 286.416 1246.02311 286.416 
C 1240.141966 286.416 1234.500907 288.752603 1230.34231 292.9112 
C 1226.183713 297.069797 1223.84711 302.710856 1223.84711 308.592 
C 1223.84711 314.473144 1226.183713 320.114203 1230.34231 324.2728 
C 1234.500907 328.431397 1240.141966 330.768 1246.02311 330.768 
z
" style="fill:#29cccc;stroke:#29cccc;stroke-linejoin:miter;"/>
   </g>
   <g id="patch_60">
    <path clip-path="url(#p726784f7b5)" d="M 1246.02311 109.008 
C 1251.904254 109.008 1257.545313 106.671397 1261.70391 102.5128 
C 1265.862507 98.354203 1268.19911 92.713144 1268.19911 86.832 
C 1268.19911 80.950856 1265.862507 75.309797 1261.70391 71.1512 
C 1257.545313 66.992603 1251.904254 64.656 1246.02311 64.656 
C 1240.141966 64.656 1234.500907 66.992603 1230.34231 71.1512 
C 1226.183713 75.309797 1223.84711 80.950856 1223.84711 86.832 
C 1223.84711 92.713144 1226.183713 98.354203 1230.34231 102.5128 
C 1234.500907 106.671397 1240.141966 109.008 1246.02311 109.008 
z
" style="fill:#29cccc;stroke:#29cccc;stroke-linejoin:miter;"/>
   </g>
   <g id="patch_61">
    <path clip-path="url(#p726784f7b5)" d="M 1488.330091 386.208 
C 1494.211235 386.208 1499.852294 383.871397 1504.010891 379.7128 
C 1508.169487 375.554203 1510.506091 369.913144 1510.506091 364.032 
C 1510.506091 358.150856 1508.169487 352.509797 1504.010891 348.3512 
C 1499.852294 344.192603 1494.211235 341.856 1488.330091 341.856 
C 1482.448947 341.856 1476.807887 344.192603 1472.649291 348.3512 
C 1468.490694 352.509797 1466.154091 358.150856 1466.154091 364.032 
C 1466.154091 369.913144 1468.490694 375.554203 1472.649291 379.7128 
C 1476.807887 383.871397 1482.448947 386.208 1488.330091 386.208 
z
" style="fill:#29cccc;stroke:#29cccc;stroke-linejoin:miter;"/>
   </g>
   <g id="patch_62">
    <path clip-path="url(#p726784f7b5)" d="M 1488.330091 275.328 
C 1494.211235 275.328 1499.852294 272.991397 1504.010891 268.8328 
C 1508.169487 264.674203 1510.506091 259.033144 1510.506091 253.152 
C 1510.506091 247.270856 1508.169487 241.629797 1504.010891 237.4712 
C 1499.852294 233.312603 1494.211235 230.976 1488.330091 230.976 
C 1482.448947 230.976 1476.807887 233.312603 1472.649291 237.4712 
C 1468.490694 241.629797 1466.154091 247.270856 1466.154091 253.152 
C 1466.154091 259.033144 1468.490694 264.674203 1472.649291 268.8328 
C 1476.807887 272.991397 1482.448947 275.328 1488.330091 275.328 
z
" style="fill:#29cccc;stroke:#29cccc;stroke-linejoin:miter;"/>
   </g>
   <g id="patch_63">
    <path clip-path="url(#p726784f7b5)" d="M 1488.330091 219.888 
C 1494.211235 219.888 1499.852294 217.551397 1504.010891 213.3928 
C 1508.169487 209.234203 1510.506091 203.593144 1510.506091 197.712 
C 1510.506091 191.830856 1508.169487 186.189797 1504.010891 182.0312 
C 1499.852294 177.872603 1494.211235 175.536 1488.330091 175.536 
C 1482.448947 175.536 1476.807887 177.872603 1472.649291 182.0312 
C 1468.490694 186.189797 1466.154091 191.830856 1466.154091 197.712 
C 1466.154091 203.593144 1468.490694 209.234203 1472.649291 213.3928 
C 1476.807887 217.551397 1482.448947 219.888 1488.330091 219.888 
z
" style="fill:#29cccc;stroke:#29cccc;stroke-linejoin:miter;"/>
   </g>
   <g id="patch_64">
    <path clip-path="url(#p726784f7b5)" d="M 1488.330091 164.448 
C 1494.211235 164.448 1499.852294 162.111397 1504.010891 157.9528 
C 1508.169487 153.794203 1510.506091 148.153144 1510.506091 142.272 
C 1510.506091 136.390856 1508.169487 130.749797 1504.010891 126.5912 
C 1499.852294 122.432603 1494.211235 120.096 1488.330091 120.096 
C 1482.448947 120.096 1476.807887 122.432603 1472.649291 126.5912 
C 1468.490694 130.749797 1466.154091 136.390856 1466.154091 142.272 
C 1466.154091 148.153144 1468.490694 153.794203 1472.649291 157.9528 
C 1476.807887 162.111397 1482.448947 164.448 1488.330091 164.448 
z
" style="fill:#29cccc;stroke:#29cccc;stroke-linejoin:miter;"/>
   </g>
   <g id="patch_65">
    <path clip-path="url(#p726784f7b5)" d="M 1488.330091 109.008 
C 1494.211235 109.008 1499.852294 106.671397 1504.010891 102.5128 
C 1508.169487 98.354203 1510.506091 92.713144 1510.506091 86.832 
C 1510.506091 80.950856 1508.169487 75.309797 1504.010891 71.1512 
C 1499.852294 66.992603 1494.211235 64.656 1488.330091 64.656 
C 1482.448947 64.656 1476.807887 66.992603 1472.649291 71.1512 
C 1468.490694 75.309797 1466.154091 80.950856 1466.154091 86.832 
C 1466.154091 92.713144 1468.490694 98.354203 1472.649291 102.5128 
C 1476.807887 106.671397 1482.448947 109.008 1488.330091 109.008 
z
" style="fill:#29cccc;stroke:#29cccc;stroke-linejoin:miter;"/>
   </g>
   <g id="text_37">
    <!-- B2 -->
    <g style="fill:#ffffff;" transform="translate(315.502486 202.127)scale(0.16 -0.16)">
     <use xlink:href="#DejaVuSans-66"/>
     <use x="68.603516" xlink:href="#DejaVuSans-50"/>
    </g>
   </g>
   <g id="text_38">
    <!-- D2 -->
    <g style="fill:#ffffff;" transform="translate(491.115174 313.007)scale(0.16 -0.16)">
     <use xlink:href="#DejaVuSans-68"/>
     <use x="77.001953" xlink:href="#DejaVuSans-50"/>
    </g>
   </g>
   <g id="text_39">
    <!-- G2 -->
    <g style="fill:#ffffff;" transform="translate(491.076424 257.567)scale(0.16 -0.16)">
     <use xlink:href="#DejaVuSans-71"/>
     <use x="77.490234" xlink:href="#DejaVuSans-50"/>
    </g>
   </g>
   <g id="text_40">
    <!-- E3 -->
    <g style="fill:#ffffff;" transform="translate(492.220174 146.687)scale(0.16 -0.16)">
     <use xlink:href="#DejaVuSans-69"/>
     <use x="63.183594" xlink:href="#DejaVuSans-51"/>
    </g>
   </g>
   <g id="text_41">
    <!-- B1 -->
    <g style="fill:#ffffff;" transform="translate(815.227439 368.447)scale(0.16 -0.16)">
     <use xlink:href="#DejaVuSans-66"/>
     <use x="68.603516" xlink:href="#DejaVuSans-49"/>
    </g>
   </g>
   <g id="text_42">
    <!-- E2 -->
    <g style="fill:#ffffff;" transform="translate(815.661189 313.007)scale(0.16 -0.16)">
     <use xlink:href="#DejaVuSans-69"/>
     <use x="63.183594" xlink:href="#DejaVuSans-50"/>
    </g>
   </g>
   <g id="text_43">
    <!-- D3 -->
    <g style="fill:#ffffff;" transform="translate(814.556189 202.127)scale(0.16 -0.16)">
     <use xlink:href="#DejaVuSans-68"/>
     <use x="77.001953" xlink:href="#DejaVuSans-51"/>
    </g>
   </g>
   <g id="text_44">
    <!-- B3 -->
    <g style="fill:#ffffff;" transform="translate(815.227439 91.247)scale(0.16 -0.16)">
     <use xlink:href="#DejaVuSans-66"/>
     <use x="68.603516" xlink:href="#DejaVuSans-51"/>
    </g>
   </g>
   <g id="text_45">
    <!-- G3 -->
    <g style="fill:#ffffff;" transform="translate(962.75397 146.687)scale(0.16 -0.16)">
     <use xlink:href="#DejaVuSans-71"/>
     <use x="77.490234" xlink:href="#DejaVuSans-51"/>
    </g>
   </g>
   <g id="text_46">
    <!-- B2 -->
    <g style="fill:#ffffff;" transform="translate(1103.380624 257.567)scale(0.16 -0.16)">
     <use xlink:href="#DejaVuSans-66"/>
     <use x="68.603516" xlink:href="#DejaVuSans-50"/>
    </g>
   </g>
   <g id="text_47">
    <!-- E3 -->
    <g style="fill:#ffffff;" transform="translate(1103.814374 202.127)scale(0.16 -0.16)">
     <use xlink:href="#DejaVuSans-69"/>
     <use x="63.183594" xlink:href="#DejaVuSans-51"/>
    </g>
   </g>
   <g id="text_48">
    <!-- D2 -->
    <g style="fill:#ffffff;" transform="translate(1234.77311 368.447)scale(0.16 -0.16)">
     <use xlink:href="#DejaVuSans-68"/>
     <use x="77.001953" xlink:href="#DejaVuSans-50"/>
    </g>
   </g>
   <g id="text_49">
    <!-- G2 -->
    <g style="fill:#ffffff;" transform="translate(1234.73436 313.007)scale(0.16 -0.16)">
     <use xlink:href="#DejaVuSans-71"/>
     <use x="77.490234" xlink:href="#DejaVuSans-50"/>
    </g>
   </g>
   <g id="text_50">
    <!-- D4 -->
    <g style="fill:#ffffff;" transform="translate(1234.77311 91.247)scale(0.16 -0.16)">
     <use xlink:href="#DejaVuSans-68"/>
     <use x="77.001953" xlink:href="#DejaVuSans-52"/>
    </g>
   </g>
   <g id="text_51">
    <!-- E2 -->
    <g style="fill:#ffffff;" transform="translate(1478.185091 368.447)scale(0.16 -0.16)">
     <use xlink:href="#DejaVuSans-69"/>
     <use x="63.183594" xlink:href="#DejaVuSans-50"/>
    </g>
   </g>
   <g id="text_52">
    <!-- D3 -->
    <g style="fill:#ffffff;" transform="translate(1477.080091 257.567)scale(0.16 -0.16)">
     <use xlink:href="#DejaVuSans-68"/>
     <use x="77.001953" xlink:href="#DejaVuSans-51"/>
    </g>
   </g>
   <g id="text_53">
    <!-- G3 -->
    <g style="fill:#ffffff;" transform="translate(1477.041341 202.127)scale(0.16 -0.16)">
     <use xlink:href="#DejaVuSans-71"/>
     <use x="77.490234" xlink:href="#DejaVuSans-51"/>
    </g>
   </g>
   <g id="text_54">
    <!-- B3 -->
    <g style="fill:#ffffff;" transform="translate(1477.751341 146.687)scale(0.16 -0.16)">
     <use xlink:href="#DejaVuSans-66"/>
     <use x="68.603516" xlink:href="#DejaVuSans-51"/>
    </g>
   </g>
   <g id="text_55">
    <!-- E4 -->
    <g style="fill:#ffffff;" transform="translate(1478.185091 91.247)scale(0.16 -0.16)">
     <use xlink:href="#DejaVuSans-69"/>
     <use x="63.183594" xlink:href="#DejaVuSans-52"/>
    </g>
   </g>
   <g id="patch_66">
    <path clip-path="url(#p726784f7b5)" d="M 524.541174 386.208 
C 530.422318 386.208 536.063377 383.871397 540.221974 379.7128 
C 544.380571 375.554203 546.717174 369.913144 546.717174 364.032 
C 546.717174 358.150856 544.380571 352.509797 540.221974 348.3512 
C 536.063377 344.192603 530.422318 341.856 524.541174 341.856 
C 518.66003 341.856 513.018971 344.192603 508.860374 348.3512 
C 504.701777 352.509797 502.365174 358.150856 502.365174 364.032 
C 502.365174 369.913144 504.701777 375.554203 508.860374 379.7128 
C 513.018971 383.871397 518.66003 386.208 524.541174 386.208 
z
" style="fill:#7a29cc;stroke:#7a29cc;stroke-linejoin:miter;"/>
   </g>
   <g id="patch_67">
    <path clip-path="url(#p726784f7b5)" d="M 524.541174 219.888 
C 530.422318 219.888 536.063377 217.551397 540.221974 213.3928 
C 544.380571 209.234203 546.717174 203.593144 546.717174 197.712 
C 546.717174 191.830856 544.380571 186.189797 540.221974 182.0312 
C 536.063377 177.872603 530.422318 175.536 524.541174 175.536 
C 518.66003 175.536 513.018971 177.872603 508.860374 182.0312 
C 504.701777 186.189797 502.365174 191.830856 502.365174 197.712 
C 502.365174 203.593144 504.701777 209.234203 508.860374 213.3928 
C 513.018971 217.551397 518.66003 219.888 524.541174 219.888 
z
" style="fill:#7a29cc;stroke:#7a29cc;stroke-linejoin:miter;"/>
   </g>
   <g id="patch_68">
    <path clip-path="url(#p726784f7b5)" d="M 524.541174 164.448 
C 530.422318 164.448 536.063377 162.111397 540.221974 157.9528 
C 544.380571 153.794203 546.717174 148.153144 546.717174 142.272 
C 546.717174 136.390856 544.380571 130.749797 540.221974 126.5912 
C 536.063377 122.432603 530.422318 120.096 524.541174 120.096 
C 518.66003 120.096 513.018971 122.432603 508.860374 126.5912 
C 504.701777 130.749797 502.365174 136.390856 502.365174 142.272 
C 502.365174 148.153144 504.701777 153.794203 508.860374 157.9528 
C 513.018971 162.111397 518.66003 164.448 524.541174 164.448 
z
" style="fill:#7a29cc;stroke:#7a29cc;stroke-linejoin:miter;"/>
   </g>
   <g id="patch_69">
    <path clip-path="url(#p726784f7b5)" d="M 524.541174 109.008 
C 530.422318 109.008 536.063377 106.671397 540.221974 102.5128 
C 544.380571 98.354203 546.717174 92.713144 546.717174 86.832 
C 546.717174 80.950856 544.380571 75.309797 540.221974 71.1512 
C 536.063377 66.992603 530.422318 64.656 524.541174 64.656 
C 518.66003 64.656 513.018971 66.992603 508.860374 71.1512 
C 504.701777 75.309797 502.365174 80.950856 502.365174 86.832 
C 502.365174 92.713144 504.701777 98.354203 508.860374 102.5128 
C 513.018971 106.671397 518.66003 109.008 524.541174 109.008 
z
" style="fill:#7a29cc;stroke:#7a29cc;stroke-linejoin:miter;"/>
   </g>
   <g id="patch_70">
    <path clip-path="url(#p726784f7b5)" d="M 847.982189 330.768 
C 853.863333 330.768 859.504392 328.431397 863.662989 324.2728 
C 867.821585 320.114203 870.158189 314.473144 870.158189 308.592 
C 870.158189 302.710856 867.821585 297.069797 863.662989 292.9112 
C 859.504392 288.752603 853.863333 286.416 847.982189 286.416 
C 842.101045 286.416 836.459985 288.752603 832.301389 292.9112 
C 828.142792 297.069797 825.806189 302.710856 825.806189 308.592 
C 825.806189 314.473144 828.142792 320.114203 832.301389 324.2728 
C 836.459985 328.431397 842.101045 330.768 847.982189 330.768 
z
" style="fill:#7a29cc;stroke:#7a29cc;stroke-linejoin:miter;"/>
   </g>
   <g id="patch_71">
    <path clip-path="url(#p726784f7b5)" d="M 847.982189 275.328 
C 853.863333 275.328 859.504392 272.991397 863.662989 268.8328 
C 867.821585 264.674203 870.158189 259.033144 870.158189 253.152 
C 870.158189 247.270856 867.821585 241.629797 863.662989 237.4712 
C 859.504392 233.312603 853.863333 230.976 847.982189 230.976 
C 842.101045 230.976 836.459985 233.312603 832.301389 237.4712 
C 828.142792 241.629797 825.806189 247.270856 825.806189 253.152 
C 825.806189 259.033144 828.142792 264.674203 832.301389 268.8328 
C 836.459985 272.991397 842.101045 275.328 847.982189 275.328 
z
" style="fill:#7a29cc;stroke:#7a29cc;stroke-linejoin:miter;"/>
   </g>
   <g id="patch_72">
    <path clip-path="url(#p726784f7b5)" d="M 996.21872 386.208 
C 1002.099864 386.208 1007.740923 383.871397 1011.89952 379.7128 
C 1016.058117 375.554203 1018.39472 369.913144 1018.39472 364.032 
C 1018.39472 358.150856 1016.058117 352.509797 1011.89952 348.3512 
C 1007.740923 344.192603 1002.099864 341.856 996.21872 341.856 
C 990.337576 341.856 984.696517 344.192603 980.53792 348.3512 
C 976.379323 352.509797 974.04272 358.150856 974.04272 364.032 
C 974.04272 369.913144 976.379323 375.554203 980.53792 379.7128 
C 984.696517 383.871397 990.337576 386.208 996.21872 386.208 
z
" style="fill:#7a29cc;stroke:#7a29cc;stroke-linejoin:miter;"/>
   </g>
   <g id="patch_73">
    <path clip-path="url(#p726784f7b5)" d="M 996.21872 109.008 
C 1002.099864 109.008 1007.740923 106.671397 1011.89952 102.5128 
C 1016.058117 98.354203 1018.39472 92.713144 1018.39472 86.832 
C 1018.39472 80.950856 1016.058117 75.309797 1011.89952 71.1512 
C 1007.740923 66.992603 1002.099864 64.656 996.21872 64.656 
C 990.337576 64.656 984.696517 66.992603 980.53792 71.1512 
C 976.379323 75.309797 974.04272 80.950856 974.04272 86.832 
C 974.04272 92.713144 976.379323 98.354203 980.53792 102.5128 
C 984.696517 106.671397 990.337576 109.008 996.21872 109.008 
z
" style="fill:#7a29cc;stroke:#7a29cc;stroke-linejoin:miter;"/>
   </g>
   <g id="patch_74">
    <path clip-path="url(#p726784f7b5)" d="M 1136.135374 219.888 
C 1142.016518 219.888 1147.657577 217.551397 1151.816174 213.3928 
C 1155.974771 209.234203 1158.311374 203.593144 1158.311374 197.712 
C 1158.311374 191.830856 1155.974771 186.189797 1151.816174 182.0312 
C 1147.657577 177.872603 1142.016518 175.536 1136.135374 175.536 
C 1130.25423 175.536 1124.613171 177.872603 1120.454574 182.0312 
C 1116.295977 186.189797 1113.959374 191.830856 1113.959374 197.712 
C 1113.959374 203.593144 1116.295977 209.234203 1120.454574 213.3928 
C 1124.613171 217.551397 1130.25423 219.888 1136.135374 219.888 
z
" style="fill:#7a29cc;stroke:#7a29cc;stroke-linejoin:miter;"/>
   </g>
   <g id="patch_75">
    <path clip-path="url(#p726784f7b5)" d="M 1268.19911 275.328 
C 1274.080254 275.328 1279.721313 272.991397 1283.87991 268.8328 
C 1288.038507 264.674203 1290.37511 259.033144 1290.37511 253.152 
C 1290.37511 247.270856 1288.038507 241.629797 1283.87991 237.4712 
C 1279.721313 233.312603 1274.080254 230.976 1268.19911 230.976 
C 1262.317966 230.976 1256.676907 233.312603 1252.51831 237.4712 
C 1248.359713 241.629797 1246.02311 247.270856 1246.02311 253.152 
C 1246.02311 259.033144 1248.359713 264.674203 1252.51831 268.8328 
C 1256.676907 272.991397 1262.317966 275.328 1268.19911 275.328 
z
" style="fill:#7a29cc;stroke:#7a29cc;stroke-linejoin:miter;"/>
   </g>
   <g id="patch_76">
    <path clip-path="url(#p726784f7b5)" d="M 1268.19911 164.448 
C 1274.080254 164.448 1279.721313 162.111397 1283.87991 157.9528 
C 1288.038507 153.794203 1290.37511 148.153144 1290.37511 142.272 
C 1290.37511 136.390856 1288.038507 130.749797 1283.87991 126.5912 
C 1279.721313 122.432603 1274.080254 120.096 1268.19911 120.096 
C 1262.317966 120.096 1256.676907 122.432603 1252.51831 126.5912 
C 1248.359713 130.749797 1246.02311 136.390856 1246.02311 142.272 
C 1246.02311 148.153144 1248.359713 153.794203 1252.51831 157.9528 
C 1256.676907 162.111397 1262.317966 164.448 1268.19911 164.448 
z
" style="fill:#7a29cc;stroke:#7a29cc;stroke-linejoin:miter;"/>
   </g>
   <g id="patch_77">
    <path clip-path="url(#p726784f7b5)" d="M 1510.506091 386.208 
C 1516.387235 386.208 1522.028294 383.871397 1526.186891 379.7128 
C 1530.345487 375.554203 1532.682091 369.913144 1532.682091 364.032 
C 1532.682091 358.150856 1530.345487 352.509797 1526.186891 348.3512 
C 1522.028294 344.192603 1516.387235 341.856 1510.506091 341.856 
C 1504.624947 341.856 1498.983887 344.192603 1494.825291 348.3512 
C 1490.666694 352.509797 1488.330091 358.150856 1488.330091 364.032 
C 1488.330091 369.913144 1490.666694 375.554203 1494.825291 379.7128 
C 1498.983887 383.871397 1504.624947 386.208 1510.506091 386.208 
z
" style="fill:#7a29cc;stroke:#7a29cc;stroke-linejoin:miter;"/>
   </g>
   <g id="patch_78">
    <path clip-path="url(#p726784f7b5)" d="M 1510.506091 330.768 
C 1516.387235 330.768 1522.028294 328.431397 1526.186891 324.2728 
C 1530.345487 320.114203 1532.682091 314.473144 1532.682091 308.592 
C 1532.682091 302.710856 1530.345487 297.069797 1526.186891 292.9112 
C 1522.028294 288.752603 1516.387235 286.416 1510.506091 286.416 
C 1504.624947 286.416 1498.983887 288.752603 1494.825291 292.9112 
C 1490.666694 297.069797 1488.330091 302.710856 1488.330091 308.592 
C 1488.330091 314.473144 1490.666694 320.114203 1494.825291 324.2728 
C 1498.983887 328.431397 1504.624947 330.768 1510.506091 330.768 
z
" style="fill:#7a29cc;stroke:#7a29cc;stroke-linejoin:miter;"/>
   </g>
   <g id="patch_79">
    <path clip-path="url(#p726784f7b5)" d="M 1510.506091 109.008 
C 1516.387235 109.008 1522.028294 106.671397 1526.186891 102.5128 
C 1530.345487 98.354203 1532.682091 92.713144 1532.682091 86.832 
C 1532.682091 80.950856 1530.345487 75.309797 1526.186891 71.1512 
C 1522.028294 66.992603 1516.387235 64.656 1510.506091 64.656 
C 1504.624947 64.656 1498.983887 66.992603 1494.825291 71.1512 
C 1490.666694 75.309797 1488.330091 80.950856 1488.330091 86.832 
C 1488.330091 92.713144 1490.666694 98.354203 1494.825291 102.5128 
C 1498.983887 106.671397 1504.624947 109.008 1510.506091 109.008 
z
" style="fill:#7a29cc;stroke:#7a29cc;stroke-linejoin:miter;"/>
   </g>
   <g id="text_56">
    <!-- A1 -->
    <g style="fill:#ffffff;" transform="translate(513.978674 368.447)scale(0.16 -0.16)">
     <use xlink:href="#DejaVuSans-65"/>
     <use x="68.408203" xlink:href="#DejaVuSans-49"/>
    </g>
   </g>
   <g id="text_57">
    <!-- C3 -->
    <g style="fill:#ffffff;" transform="translate(513.864924 202.127)scale(0.16 -0.16)">
     <use xlink:href="#DejaVuSans-67"/>
     <use x="69.824219" xlink:href="#DejaVuSans-51"/>
    </g>
   </g>
   <g id="text_58">
    <!-- E3 -->
    <g style="fill:#ffffff;" transform="translate(514.396174 146.687)scale(0.16 -0.16)">
     <use xlink:href="#DejaVuSans-69"/>
     <use x="63.183594" xlink:href="#DejaVuSans-51"/>
    </g>
   </g>
   <g id="text_59">
    <!-- A3 -->
    <g style="fill:#ffffff;" transform="translate(513.978674 91.247)scale(0.16 -0.16)">
     <use xlink:href="#DejaVuSans-65"/>
     <use x="68.408203" xlink:href="#DejaVuSans-51"/>
    </g>
   </g>
   <g id="text_60">
    <!-- E2 -->
    <g style="fill:#ffffff;" transform="translate(837.837189 313.007)scale(0.16 -0.16)">
     <use xlink:href="#DejaVuSans-69"/>
     <use x="63.183594" xlink:href="#DejaVuSans-50"/>
    </g>
   </g>
   <g id="text_61">
    <!-- A2 -->
    <g style="fill:#ffffff;" transform="translate(837.419689 257.567)scale(0.16 -0.16)">
     <use xlink:href="#DejaVuSans-65"/>
     <use x="68.408203" xlink:href="#DejaVuSans-50"/>
    </g>
   </g>
   <g id="text_62">
    <!-- C2 -->
    <g style="fill:#ffffff;" transform="translate(985.54247 368.447)scale(0.16 -0.16)">
     <use xlink:href="#DejaVuSans-67"/>
     <use x="69.824219" xlink:href="#DejaVuSans-50"/>
    </g>
   </g>
   <g id="text_63">
    <!-- C4 -->
    <g style="fill:#ffffff;" transform="translate(985.54247 91.247)scale(0.16 -0.16)">
     <use xlink:href="#DejaVuSans-67"/>
     <use x="69.824219" xlink:href="#DejaVuSans-52"/>
    </g>
   </g>
   <g id="text_64">
    <!-- E3 -->
    <g style="fill:#ffffff;" transform="translate(1125.990374 202.127)scale(0.16 -0.16)">
     <use xlink:href="#DejaVuSans-69"/>
     <use x="63.183594" xlink:href="#DejaVuSans-51"/>
    </g>
   </g>
   <g id="text_65">
    <!-- C3 -->
    <g style="fill:#ffffff;" transform="translate(1257.52286 257.567)scale(0.16 -0.16)">
     <use xlink:href="#DejaVuSans-67"/>
     <use x="69.824219" xlink:href="#DejaVuSans-51"/>
    </g>
   </g>
   <g id="text_66">
    <!-- A3 -->
    <g style="fill:#ffffff;" transform="translate(1257.63661 146.687)scale(0.16 -0.16)">
     <use xlink:href="#DejaVuSans-65"/>
     <use x="68.408203" xlink:href="#DejaVuSans-51"/>
    </g>
   </g>
   <g id="text_67">
    <!-- E2 -->
    <g style="fill:#ffffff;" transform="translate(1500.361091 368.447)scale(0.16 -0.16)">
     <use xlink:href="#DejaVuSans-69"/>
     <use x="63.183594" xlink:href="#DejaVuSans-50"/>
    </g>
   </g>
   <g id="text_68">
    <!-- A2 -->
    <g style="fill:#ffffff;" transform="translate(1499.943591 313.007)scale(0.16 -0.16)">
     <use xlink:href="#DejaVuSans-65"/>
     <use x="68.408203" xlink:href="#DejaVuSans-50"/>
    </g>
   </g>
   <g id="text_69">
    <!-- E4 -->
    <g style="fill:#ffffff;" transform="translate(1500.361091 91.247)scale(0.16 -0.16)">
     <use xlink:href="#DejaVuSans-69"/>
     <use x="63.183594" xlink:href="#DejaVuSans-52"/>
    </g>
   </g>
   <g id="text_70">
    <!-- 3 -->
    <g style="fill:#0000ff;" transform="translate(217.943835 397.27075)scale(0.2 -0.2)">
     <use xlink:href="#DejaVuSans-51"/>
    </g>
   </g>
   <g id="text_71">
    <!-- 4 -->
    <g style="fill:#0000ff;" transform="translate(399.317637 397.27075)scale(0.2 -0.2)">
     <use xlink:href="#DejaVuSans-52"/>
    </g>
   </g>
   <g id="text_72">
    <!-- 5 -->
    <defs>
     <path d="M 10.796875 72.90625 
L 49.515625 72.90625 
L 49.515625 64.59375 
L 19.828125 64.59375 
L 19.828125 46.734375 
Q 21.96875 47.46875 24.109375 47.828125 
Q 26.265625 48.1875 28.421875 48.1875 
Q 40.625 48.1875 47.75 41.5 
Q 54.890625 34.8125 54.890625 23.390625 
Q 54.890625 11.625 47.5625 5.09375 
Q 40.234375 -1.421875 26.90625 -1.421875 
Q 22.3125 -1.421875 17.546875 -0.640625 
Q 12.796875 0.140625 7.71875 1.703125 
L 7.71875 11.625 
Q 12.109375 9.234375 16.796875 8.0625 
Q 21.484375 6.890625 26.703125 6.890625 
Q 35.15625 6.890625 40.078125 11.328125 
Q 45.015625 15.765625 45.015625 23.390625 
Q 45.015625 31 40.078125 35.4375 
Q 35.15625 39.890625 26.703125 39.890625 
Q 22.75 39.890625 18.8125 39.015625 
Q 14.890625 38.140625 10.796875 36.28125 
z
" id="DejaVuSans-53"/>
    </defs>
    <g style="fill:#0000ff;" transform="translate(570.51171 397.27075)scale(0.2 -0.2)">
     <use xlink:href="#DejaVuSans-53"/>
    </g>
   </g>
   <g id="text_73">
    <!-- 6 -->
    <defs>
     <path d="M 33.015625 40.375 
Q 26.375 40.375 22.484375 35.828125 
Q 18.609375 31.296875 18.609375 23.390625 
Q 18.609375 15.53125 22.484375 10.953125 
Q 26.375 6.390625 33.015625 6.390625 
Q 39.65625 6.390625 43.53125 10.953125 
Q 47.40625 15.53125 47.40625 23.390625 
Q 47.40625 31.296875 43.53125 35.828125 
Q 39.65625 40.375 33.015625 40.375 
z
M 52.59375 71.296875 
L 52.59375 62.3125 
Q 48.875 64.0625 45.09375 64.984375 
Q 41.3125 65.921875 37.59375 65.921875 
Q 27.828125 65.921875 22.671875 59.328125 
Q 17.53125 52.734375 16.796875 39.40625 
Q 19.671875 43.65625 24.015625 45.921875 
Q 28.375 48.1875 33.59375 48.1875 
Q 44.578125 48.1875 50.953125 41.515625 
Q 57.328125 34.859375 57.328125 23.390625 
Q 57.328125 12.15625 50.6875 5.359375 
Q 44.046875 -1.421875 33.015625 -1.421875 
Q 20.359375 -1.421875 13.671875 8.265625 
Q 6.984375 17.96875 6.984375 36.375 
Q 6.984375 53.65625 15.1875 63.9375 
Q 23.390625 74.21875 37.203125 74.21875 
Q 40.921875 74.21875 44.703125 73.484375 
Q 48.484375 72.75 52.59375 71.296875 
z
" id="DejaVuSans-54"/>
    </defs>
    <g style="fill:#0000ff;" transform="translate(732.097399 397.27075)scale(0.2 -0.2)">
     <use xlink:href="#DejaVuSans-54"/>
    </g>
   </g>
   <g id="text_74">
    <!-- 7 -->
    <defs>
     <path d="M 8.203125 72.90625 
L 55.078125 72.90625 
L 55.078125 68.703125 
L 28.609375 0 
L 18.3125 0 
L 43.21875 64.59375 
L 8.203125 64.59375 
z
" id="DejaVuSans-55"/>
    </defs>
    <g style="fill:#0000ff;" transform="translate(884.613979 397.27075)scale(0.2 -0.2)">
     <use xlink:href="#DejaVuSans-55"/>
    </g>
   </g>
   <g id="text_75">
    <!-- 8 -->
    <defs>
     <path d="M 31.78125 34.625 
Q 24.75 34.625 20.71875 30.859375 
Q 16.703125 27.09375 16.703125 20.515625 
Q 16.703125 13.921875 20.71875 10.15625 
Q 24.75 6.390625 31.78125 6.390625 
Q 38.8125 6.390625 42.859375 10.171875 
Q 46.921875 13.96875 46.921875 20.515625 
Q 46.921875 27.09375 42.890625 30.859375 
Q 38.875 34.625 31.78125 34.625 
z
M 21.921875 38.8125 
Q 15.578125 40.375 12.03125 44.71875 
Q 8.5 49.078125 8.5 55.328125 
Q 8.5 64.0625 14.71875 69.140625 
Q 20.953125 74.21875 31.78125 74.21875 
Q 42.671875 74.21875 48.875 69.140625 
Q 55.078125 64.0625 55.078125 55.328125 
Q 55.078125 49.078125 51.53125 44.71875 
Q 48 40.375 41.703125 38.8125 
Q 48.828125 37.15625 52.796875 32.3125 
Q 56.78125 27.484375 56.78125 20.515625 
Q 56.78125 9.90625 50.3125 4.234375 
Q 43.84375 -1.421875 31.78125 -1.421875 
Q 19.734375 -1.421875 13.25 4.234375 
Q 6.78125 9.90625 6.78125 20.515625 
Q 6.78125 27.484375 10.78125 32.3125 
Q 14.796875 37.15625 21.921875 38.8125 
z
M 18.3125 54.390625 
Q 18.3125 48.734375 21.84375 45.5625 
Q 25.390625 42.390625 31.78125 42.390625 
Q 38.140625 42.390625 41.71875 45.5625 
Q 45.3125 48.734375 45.3125 54.390625 
Q 45.3125 60.0625 41.71875 63.234375 
Q 38.140625 66.40625 31.78125 66.40625 
Q 25.390625 66.40625 21.84375 63.234375 
Q 18.3125 60.0625 18.3125 54.390625 
z
" id="DejaVuSans-56"/>
    </defs>
    <g style="fill:#0000ff;" transform="translate(1028.570461 397.27075)scale(0.2 -0.2)">
     <use xlink:href="#DejaVuSans-56"/>
    </g>
   </g>
   <g id="text_76">
    <!-- 9 -->
    <defs>
     <path d="M 10.984375 1.515625 
L 10.984375 10.5 
Q 14.703125 8.734375 18.5 7.8125 
Q 22.3125 6.890625 25.984375 6.890625 
Q 35.75 6.890625 40.890625 13.453125 
Q 46.046875 20.015625 46.78125 33.40625 
Q 43.953125 29.203125 39.59375 26.953125 
Q 35.25 24.703125 29.984375 24.703125 
Q 19.046875 24.703125 12.671875 31.3125 
Q 6.296875 37.9375 6.296875 49.421875 
Q 6.296875 60.640625 12.9375 67.421875 
Q 19.578125 74.21875 30.609375 74.21875 
Q 43.265625 74.21875 49.921875 64.515625 
Q 56.59375 54.828125 56.59375 36.375 
Q 56.59375 19.140625 48.40625 8.859375 
Q 40.234375 -1.421875 26.421875 -1.421875 
Q 22.703125 -1.421875 18.890625 -0.6875 
Q 15.09375 0.046875 10.984375 1.515625 
z
M 30.609375 32.421875 
Q 37.25 32.421875 41.125 36.953125 
Q 45.015625 41.5 45.015625 49.421875 
Q 45.015625 57.28125 41.125 61.84375 
Q 37.25 66.40625 30.609375 66.40625 
Q 23.96875 66.40625 20.09375 61.84375 
Q 16.21875 57.28125 16.21875 49.421875 
Q 16.21875 41.5 20.09375 36.953125 
Q 23.96875 32.421875 30.609375 32.421875 
z
" id="DejaVuSans-57"/>
    </defs>
    <g style="fill:#0000ff;" transform="translate(1164.447287 397.27075)scale(0.2 -0.2)">
     <use xlink:href="#DejaVuSans-57"/>
    </g>
   </g>
   <g id="text_77">
    <!-- 10 -->
    <defs>
     <path d="M 31.78125 66.40625 
Q 24.171875 66.40625 20.328125 58.90625 
Q 16.5 51.421875 16.5 36.375 
Q 16.5 21.390625 20.328125 13.890625 
Q 24.171875 6.390625 31.78125 6.390625 
Q 39.453125 6.390625 43.28125 13.890625 
Q 47.125 21.390625 47.125 36.375 
Q 47.125 51.421875 43.28125 58.90625 
Q 39.453125 66.40625 31.78125 66.40625 
z
M 31.78125 74.21875 
Q 44.046875 74.21875 50.515625 64.515625 
Q 56.984375 54.828125 56.984375 36.375 
Q 56.984375 17.96875 50.515625 8.265625 
Q 44.046875 -1.421875 31.78125 -1.421875 
Q 19.53125 -1.421875 13.0625 8.265625 
Q 6.59375 17.96875 6.59375 36.375 
Q 6.59375 54.828125 13.0625 64.515625 
Q 19.53125 74.21875 31.78125 74.21875 
z
" id="DejaVuSans-48"/>
    </defs>
    <g style="fill:#0000ff;" transform="translate(1286.335433 397.27075)scale(0.2 -0.2)">
     <use xlink:href="#DejaVuSans-49"/>
     <use x="63.623047" xlink:href="#DejaVuSans-48"/>
    </g>
   </g>
   <g id="text_78">
    <!-- 11 -->
    <g style="fill:#0000ff;" transform="translate(1407.387923 397.27075)scale(0.2 -0.2)">
     <use xlink:href="#DejaVuSans-49"/>
     <use x="63.623047" xlink:href="#DejaVuSans-49"/>
    </g>
   </g>
   <g id="text_79">
    <!-- 12 -->
    <g style="fill:#0000ff;" transform="translate(1521.646259 397.27075)scale(0.2 -0.2)">
     <use xlink:href="#DejaVuSans-49"/>
     <use x="63.623047" xlink:href="#DejaVuSans-50"/>
    </g>
   </g>
   <g id="text_80">
    <!-- 6 -->
    <g style="fill:#0000ff;" transform="translate(190.223835 369.55075)scale(0.2 -0.2)">
     <use xlink:href="#DejaVuSans-54"/>
    </g>
   </g>
   <g id="text_81">
    <!-- 5 -->
    <g style="fill:#0000ff;" transform="translate(190.223835 314.11075)scale(0.2 -0.2)">
     <use xlink:href="#DejaVuSans-53"/>
    </g>
   </g>
   <g id="text_82">
    <!-- 4 -->
    <g style="fill:#0000ff;" transform="translate(190.223835 258.67075)scale(0.2 -0.2)">
     <use xlink:href="#DejaVuSans-52"/>
    </g>
   </g>
   <g id="text_83">
    <!-- 3 -->
    <g style="fill:#0000ff;" transform="translate(190.223835 203.23075)scale(0.2 -0.2)">
     <use xlink:href="#DejaVuSans-51"/>
    </g>
   </g>
   <g id="text_84">
    <!-- 2 -->
    <g style="fill:#0000ff;" transform="translate(190.223835 147.79075)scale(0.2 -0.2)">
     <use xlink:href="#DejaVuSans-50"/>
    </g>
   </g>
   <g id="text_85">
    <!-- 1 -->
    <g style="fill:#0000ff;" transform="translate(190.223835 92.35075)scale(0.2 -0.2)">
     <use xlink:href="#DejaVuSans-49"/>
    </g>
   </g>
  </g>
 </g>
 <defs>
  <clipPath id="p726784f7b5">
   <rect height="343.728" width="1321.152924" x="218.762335" y="53.568"/>
  </clipPath>
 </defs>
</svg>
