<?xml version="1.0" encoding="utf-8" standalone="no"?>
<!DOCTYPE svg PUBLIC "-//W3C//DTD SVG 1.1//EN"
  "http://www.w3.org/Graphics/SVG/1.1/DTD/svg11.dtd">
<!-- Created with matplotlib (https://matplotlib.org/) -->
<svg height="446.4pt" version="1.1" viewBox="0 0 609.281495 446.4" width="609.281495pt" xmlns="http://www.w3.org/2000/svg" xmlns:xlink="http://www.w3.org/1999/xlink">
 <defs>
  <style type="text/css">
*{stroke-linecap:butt;stroke-linejoin:round;}
  </style>
 </defs>
 <g id="figure_1">
  <g id="patch_1">
   <path d="M 0 446.4 
L 609.281495 446.4 
L 609.281495 0 
L 0 0 
z
" style="fill:#ffffff;"/>
  </g>
  <g id="axes_1">
   <g id="patch_2">
    <path clip-path="url(#pd14e7d8949)" d="M -365.41991 225.432 
L -269.340485 225.432 
L -269.340485 86.832 
L -365.41991 86.832 
z
" style="fill:#cccccc;stroke:#cccccc;stroke-linejoin:miter;"/>
   </g>
   <g id="patch_3">
    <path clip-path="url(#pd14e7d8949)" d="M -2.369646 225.432 
L 83.227391 225.432 
L 83.227391 86.832 
L -2.369646 86.832 
z
" style="fill:#cccccc;stroke:#cccccc;stroke-linejoin:miter;"/>
   </g>
   <g id="patch_4">
    <path clip-path="url(#pd14e7d8949)" d="M 321.071369 225.432 
L 397.329659 225.432 
L 397.329659 86.832 
L 321.071369 86.832 
z
" style="fill:#cccccc;stroke:#cccccc;stroke-linejoin:miter;"/>
   </g>
   <g id="patch_5">
    <path clip-path="url(#pd14e7d8949)" d="M 609.224554 225.432 
L 677.162967 225.432 
L 677.162967 86.832 
L 609.224554 86.832 
z
" style="fill:#cccccc;stroke:#cccccc;stroke-linejoin:miter;"/>
   </g>
   <g id="patch_6">
    <path clip-path="url(#pd14e7d8949)" d="M 983.595271 364.032 
L 1040.724439 364.032 
L 1040.724439 86.832 
L 983.595271 86.832 
z
" style="fill:#cccccc;stroke:#cccccc;stroke-linejoin:miter;"/>
   </g>
   <g id="patch_7">
    <path clip-path="url(#pd14e7d8949)" d="M 1298.402264 225.432 
L 1346.441977 225.432 
L 1346.441977 86.832 
L 1298.402264 86.832 
z
" style="fill:#cccccc;stroke:#cccccc;stroke-linejoin:miter;"/>
   </g>
   <g id="patch_8">
    <path clip-path="url(#pd14e7d8949)" d="M 1479.927396 225.432 
L 1522.725915 225.432 
L 1522.725915 86.832 
L 1479.927396 86.832 
z
" style="fill:#cccccc;stroke:#cccccc;stroke-linejoin:miter;"/>
   </g>
   <g id="patch_9">
    <path clip-path="url(#pd14e7d8949)" d="M 1641.647904 225.432 
L 1679.777049 225.432 
L 1679.777049 86.832 
L 1641.647904 86.832 
z
" style="fill:#cccccc;stroke:#cccccc;stroke-linejoin:miter;"/>
   </g>
   <g id="patch_10">
    <path clip-path="url(#pd14e7d8949)" d="M 1785.724497 225.432 
L 1819.693703 225.432 
L 1819.693703 86.832 
L 1785.724497 86.832 
z
" style="fill:#cccccc;stroke:#cccccc;stroke-linejoin:miter;"/>
   </g>
   <g id="line2d_1">
    <path clip-path="url(#pd14e7d8949)" d="M 83.227391 364.032 
L 83.227391 86.832 
" style="fill:none;stroke:#000000;stroke-linecap:square;stroke-width:3;"/>
   </g>
   <g id="line2d_2">
    <path clip-path="url(#pd14e7d8949)" d="M 244.813079 364.032 
L 244.813079 86.832 
" style="fill:none;stroke:#000000;stroke-linecap:square;stroke-width:3;"/>
   </g>
   <g id="line2d_3">
    <path clip-path="url(#pd14e7d8949)" d="M 397.329659 364.032 
L 397.329659 86.832 
" style="fill:none;stroke:#000000;stroke-linecap:square;stroke-width:3;"/>
   </g>
   <g id="line2d_4">
    <path clip-path="url(#pd14e7d8949)" d="M 541.286141 364.032 
L 541.286141 86.832 
" style="fill:none;stroke:#000000;stroke-linecap:square;stroke-width:3;"/>
   </g>
   <g id="line2d_5">
    <path clip-path="url(#pd14e7d8949)" d="M -1 364.032 
L 610.281495 364.032 
" style="fill:none;stroke:#808080;stroke-linecap:square;stroke-width:3;"/>
   </g>
   <g id="line2d_6">
    <path clip-path="url(#pd14e7d8949)" d="M -1 308.592 
L 610.281495 308.592 
" style="fill:none;stroke:#808080;stroke-linecap:square;stroke-width:3;"/>
   </g>
   <g id="line2d_7">
    <path clip-path="url(#pd14e7d8949)" d="M -1 253.152 
L 610.281495 253.152 
" style="fill:none;stroke:#808080;stroke-linecap:square;stroke-width:3;"/>
   </g>
   <g id="line2d_8">
    <path clip-path="url(#pd14e7d8949)" d="M -1 197.712 
L 610.281495 197.712 
" style="fill:none;stroke:#808080;stroke-linecap:square;stroke-width:3;"/>
   </g>
   <g id="line2d_9">
    <path clip-path="url(#pd14e7d8949)" d="M -1 142.272 
L 610.281495 142.272 
" style="fill:none;stroke:#808080;stroke-linecap:square;stroke-width:3;"/>
   </g>
   <g id="line2d_10">
    <path clip-path="url(#pd14e7d8949)" d="M -1 86.832 
L 610.281495 86.832 
" style="fill:none;stroke:#808080;stroke-linecap:square;stroke-width:3;"/>
   </g>
   <g id="line2d_11">
    <path clip-path="url(#pd14e7d8949)" style="fill:none;stroke:#000000;stroke-linecap:square;stroke-width:10;"/>
   </g>
   <g id="line2d_12">
    <path clip-path="url(#pd14e7d8949)" style="fill:none;stroke:#000000;stroke-linecap:square;stroke-width:5;"/>
   </g>
   <g id="matplotlib.axis_1"/>
   <g id="matplotlib.axis_2"/>
   <g id="patch_11">
    <path clip-path="url(#pd14e7d8949)" d="M 321.071369 275.328 
C 326.952513 275.328 332.593572 272.991397 336.752169 268.8328 
C 340.910766 264.674203 343.247369 259.033144 343.247369 253.152 
C 343.247369 247.270856 340.910766 241.629797 336.752169 237.4712 
C 332.593572 233.312603 326.952513 230.976 321.071369 230.976 
C 315.190225 230.976 309.549166 233.312603 305.390569 237.4712 
C 301.231972 241.629797 298.895369 247.270856 298.895369 253.152 
C 298.895369 259.033144 301.231972 264.674203 305.390569 268.8328 
C 309.549166 272.991397 315.190225 275.328 321.071369 275.328 
z
" style="fill:#cc2929;stroke:#cc2929;stroke-linejoin:miter;"/>
   </g>
   <g id="patch_12">
    <path clip-path="url(#pd14e7d8949)" d="M 321.071369 219.888 
C 326.952513 219.888 332.593572 217.551397 336.752169 213.3928 
C 340.910766 209.234203 343.247369 203.593144 343.247369 197.712 
C 343.247369 191.830856 340.910766 186.189797 336.752169 182.0312 
C 332.593572 177.872603 326.952513 175.536 321.071369 175.536 
C 315.190225 175.536 309.549166 177.872603 305.390569 182.0312 
C 301.231972 186.189797 298.895369 191.830856 298.895369 197.712 
C 298.895369 203.593144 301.231972 209.234203 305.390569 213.3928 
C 309.549166 217.551397 315.190225 219.888 321.071369 219.888 
z
" style="fill:#cc2929;stroke:#cc2929;stroke-linejoin:miter;"/>
   </g>
   <g id="patch_13">
    <path clip-path="url(#pd14e7d8949)" d="M 321.071369 164.448 
C 326.952513 164.448 332.593572 162.111397 336.752169 157.9528 
C 340.910766 153.794203 343.247369 148.153144 343.247369 142.272 
C 343.247369 136.390856 340.910766 130.749797 336.752169 126.5912 
C 332.593572 122.432603 326.952513 120.096 321.071369 120.096 
C 315.190225 120.096 309.549166 122.432603 305.390569 126.5912 
C 301.231972 130.749797 298.895369 136.390856 298.895369 142.272 
C 298.895369 148.153144 301.231972 153.794203 305.390569 157.9528 
C 309.549166 162.111397 315.190225 164.448 321.071369 164.448 
z
" style="fill:#cc2929;stroke:#cc2929;stroke-linejoin:miter;"/>
   </g>
   <g id="patch_14">
    <path clip-path="url(#pd14e7d8949)" d="M 469.3079 386.208 
C 475.189044 386.208 480.830103 383.871397 484.9887 379.7128 
C 489.147297 375.554203 491.4839 369.913144 491.4839 364.032 
C 491.4839 358.150856 489.147297 352.509797 484.9887 348.3512 
C 480.830103 344.192603 475.189044 341.856 469.3079 341.856 
C 463.426756 341.856 457.785697 344.192603 453.6271 348.3512 
C 449.468503 352.509797 447.1319 358.150856 447.1319 364.032 
C 447.1319 369.913144 449.468503 375.554203 453.6271 379.7128 
C 457.785697 383.871397 463.426756 386.208 469.3079 386.208 
z
" style="fill:#cc2929;stroke:#cc2929;stroke-linejoin:miter;"/>
   </g>
   <g id="patch_15">
    <path clip-path="url(#pd14e7d8949)" d="M 469.3079 109.008 
C 475.189044 109.008 480.830103 106.671397 484.9887 102.5128 
C 489.147297 98.354203 491.4839 92.713144 491.4839 86.832 
C 491.4839 80.950856 489.147297 75.309797 484.9887 71.1512 
C 480.830103 66.992603 475.189044 64.656 469.3079 64.656 
C 463.426756 64.656 457.785697 66.992603 453.6271 71.1512 
C 449.468503 75.309797 447.1319 80.950856 447.1319 86.832 
C 447.1319 92.713144 449.468503 98.354203 453.6271 102.5128 
C 457.785697 106.671397 463.426756 109.008 469.3079 109.008 
z
" style="fill:#cc2929;stroke:#cc2929;stroke-linejoin:miter;"/>
   </g>
   <g id="text_1">
    <!-- A2 -->
    <defs>
     <path d="M 34.1875 63.1875 
L 20.796875 26.90625 
L 47.609375 26.90625 
z
M 28.609375 72.90625 
L 39.796875 72.90625 
L 67.578125 0 
L 57.328125 0 
L 50.6875 18.703125 
L 17.828125 18.703125 
L 11.1875 0 
L 0.78125 0 
z
" id="DejaVuSans-65"/>
     <path d="M 19.1875 8.296875 
L 53.609375 8.296875 
L 53.609375 0 
L 7.328125 0 
L 7.328125 8.296875 
Q 12.9375 14.109375 22.625 23.890625 
Q 32.328125 33.6875 34.8125 36.53125 
Q 39.546875 41.84375 41.421875 45.53125 
Q 43.3125 49.21875 43.3125 52.78125 
Q 43.3125 58.59375 39.234375 62.25 
Q 35.15625 65.921875 28.609375 65.921875 
Q 23.96875 65.921875 18.8125 64.3125 
Q 13.671875 62.703125 7.8125 59.421875 
L 7.8125 69.390625 
Q 13.765625 71.78125 18.9375 73 
Q 24.125 74.21875 28.421875 74.21875 
Q 39.75 74.21875 46.484375 68.546875 
Q 53.21875 62.890625 53.21875 53.421875 
Q 53.21875 48.921875 51.53125 44.890625 
Q 49.859375 40.875 45.40625 35.40625 
Q 44.1875 33.984375 37.640625 27.21875 
Q 31.109375 20.453125 19.1875 8.296875 
z
" id="DejaVuSans-50"/>
    </defs>
    <g style="fill:#ffffff;" transform="translate(310.508869 257.567)scale(0.16 -0.16)">
     <use xlink:href="#DejaVuSans-65"/>
     <use x="68.408203" xlink:href="#DejaVuSans-50"/>
    </g>
   </g>
   <g id="text_2">
    <!-- D3 -->
    <defs>
     <path d="M 19.671875 64.796875 
L 19.671875 8.109375 
L 31.59375 8.109375 
Q 46.6875 8.109375 53.6875 14.9375 
Q 60.6875 21.78125 60.6875 36.53125 
Q 60.6875 51.171875 53.6875 57.984375 
Q 46.6875 64.796875 31.59375 64.796875 
z
M 9.8125 72.90625 
L 30.078125 72.90625 
Q 51.265625 72.90625 61.171875 64.09375 
Q 71.09375 55.28125 71.09375 36.53125 
Q 71.09375 17.671875 61.125 8.828125 
Q 51.171875 0 30.078125 0 
L 9.8125 0 
z
" id="DejaVuSans-68"/>
     <path d="M 40.578125 39.3125 
Q 47.65625 37.796875 51.625 33 
Q 55.609375 28.21875 55.609375 21.1875 
Q 55.609375 10.40625 48.1875 4.484375 
Q 40.765625 -1.421875 27.09375 -1.421875 
Q 22.515625 -1.421875 17.65625 -0.515625 
Q 12.796875 0.390625 7.625 2.203125 
L 7.625 11.71875 
Q 11.71875 9.328125 16.59375 8.109375 
Q 21.484375 6.890625 26.8125 6.890625 
Q 36.078125 6.890625 40.9375 10.546875 
Q 45.796875 14.203125 45.796875 21.1875 
Q 45.796875 27.640625 41.28125 31.265625 
Q 36.765625 34.90625 28.71875 34.90625 
L 20.21875 34.90625 
L 20.21875 43.015625 
L 29.109375 43.015625 
Q 36.375 43.015625 40.234375 45.921875 
Q 44.09375 48.828125 44.09375 54.296875 
Q 44.09375 59.90625 40.109375 62.90625 
Q 36.140625 65.921875 28.71875 65.921875 
Q 24.65625 65.921875 20.015625 65.03125 
Q 15.375 64.15625 9.8125 62.3125 
L 9.8125 71.09375 
Q 15.4375 72.65625 20.34375 73.4375 
Q 25.25 74.21875 29.59375 74.21875 
Q 40.828125 74.21875 47.359375 69.109375 
Q 53.90625 64.015625 53.90625 55.328125 
Q 53.90625 49.265625 50.4375 45.09375 
Q 46.96875 40.921875 40.578125 39.3125 
z
" id="DejaVuSans-51"/>
    </defs>
    <g style="fill:#ffffff;" transform="translate(309.821369 202.127)scale(0.16 -0.16)">
     <use xlink:href="#DejaVuSans-68"/>
     <use x="77.001953" xlink:href="#DejaVuSans-51"/>
    </g>
   </g>
   <g id="text_3">
    <!-- F#3 -->
    <defs>
     <path d="M 9.8125 72.90625 
L 51.703125 72.90625 
L 51.703125 64.59375 
L 19.671875 64.59375 
L 19.671875 43.109375 
L 48.578125 43.109375 
L 48.578125 34.8125 
L 19.671875 34.8125 
L 19.671875 0 
L 9.8125 0 
z
" id="DejaVuSans-70"/>
     <path d="M 51.125 44 
L 36.921875 44 
L 32.8125 27.6875 
L 47.125 27.6875 
z
M 43.796875 71.78125 
L 38.71875 51.515625 
L 52.984375 51.515625 
L 58.109375 71.78125 
L 65.921875 71.78125 
L 60.890625 51.515625 
L 76.125 51.515625 
L 76.125 44 
L 58.984375 44 
L 54.984375 27.6875 
L 70.515625 27.6875 
L 70.515625 20.21875 
L 53.078125 20.21875 
L 48 0 
L 40.1875 0 
L 45.21875 20.21875 
L 30.90625 20.21875 
L 25.875 0 
L 18.015625 0 
L 23.09375 20.21875 
L 7.71875 20.21875 
L 7.71875 27.6875 
L 24.90625 27.6875 
L 29 44 
L 13.28125 44 
L 13.28125 51.515625 
L 30.90625 51.515625 
L 35.890625 71.78125 
z
" id="DejaVuSans-35"/>
    </defs>
    <g style="fill:#ffffff;" transform="translate(304.676369 146.687)scale(0.16 -0.16)">
     <use xlink:href="#DejaVuSans-70"/>
     <use x="57.519531" xlink:href="#DejaVuSans-35"/>
     <use x="141.308594" xlink:href="#DejaVuSans-51"/>
    </g>
   </g>
   <g id="text_4">
    <!-- C2 -->
    <defs>
     <path d="M 64.40625 67.28125 
L 64.40625 56.890625 
Q 59.421875 61.53125 53.78125 63.8125 
Q 48.140625 66.109375 41.796875 66.109375 
Q 29.296875 66.109375 22.65625 58.46875 
Q 16.015625 50.828125 16.015625 36.375 
Q 16.015625 21.96875 22.65625 14.328125 
Q 29.296875 6.6875 41.796875 6.6875 
Q 48.140625 6.6875 53.78125 8.984375 
Q 59.421875 11.28125 64.40625 15.921875 
L 64.40625 5.609375 
Q 59.234375 2.09375 53.4375 0.328125 
Q 47.65625 -1.421875 41.21875 -1.421875 
Q 24.65625 -1.421875 15.125 8.703125 
Q 5.609375 18.84375 5.609375 36.375 
Q 5.609375 53.953125 15.125 64.078125 
Q 24.65625 74.21875 41.21875 74.21875 
Q 47.75 74.21875 53.53125 72.484375 
Q 59.328125 70.75 64.40625 67.28125 
z
" id="DejaVuSans-67"/>
    </defs>
    <g style="fill:#ffffff;" transform="translate(458.63165 368.447)scale(0.16 -0.16)">
     <use xlink:href="#DejaVuSans-67"/>
     <use x="69.824219" xlink:href="#DejaVuSans-50"/>
    </g>
   </g>
   <g id="text_5">
    <!-- C4 -->
    <defs>
     <path d="M 37.796875 64.3125 
L 12.890625 25.390625 
L 37.796875 25.390625 
z
M 35.203125 72.90625 
L 47.609375 72.90625 
L 47.609375 25.390625 
L 58.015625 25.390625 
L 58.015625 17.1875 
L 47.609375 17.1875 
L 47.609375 0 
L 37.796875 0 
L 37.796875 17.1875 
L 4.890625 17.1875 
L 4.890625 26.703125 
z
" id="DejaVuSans-52"/>
    </defs>
    <g style="fill:#ffffff;" transform="translate(458.63165 91.247)scale(0.16 -0.16)">
     <use xlink:href="#DejaVuSans-67"/>
     <use x="69.824219" xlink:href="#DejaVuSans-52"/>
    </g>
   </g>
   <g id="patch_16">
    <path clip-path="url(#pd14e7d8949)" d="M 191.740235 386.208 
C 197.621379 386.208 203.262438 383.871397 207.421035 379.7128 
C 211.579631 375.554203 213.916235 369.913144 213.916235 364.032 
C 213.916235 358.150856 211.579631 352.509797 207.421035 348.3512 
C 203.262438 344.192603 197.621379 341.856 191.740235 341.856 
C 185.859091 341.856 180.218031 344.192603 176.059435 348.3512 
C 171.900838 352.509797 169.564235 358.150856 169.564235 364.032 
C 169.564235 369.913144 171.900838 375.554203 176.059435 379.7128 
C 180.218031 383.871397 185.859091 386.208 191.740235 386.208 
z
" style="fill:#29cccc;stroke:#29cccc;stroke-linejoin:miter;"/>
   </g>
   <g id="patch_17">
    <path clip-path="url(#pd14e7d8949)" d="M 191.740235 109.008 
C 197.621379 109.008 203.262438 106.671397 207.421035 102.5128 
C 211.579631 98.354203 213.916235 92.713144 213.916235 86.832 
C 213.916235 80.950856 211.579631 75.309797 207.421035 71.1512 
C 203.262438 66.992603 197.621379 64.656 191.740235 64.656 
C 185.859091 64.656 180.218031 66.992603 176.059435 71.1512 
C 171.900838 75.309797 169.564235 80.950856 169.564235 86.832 
C 169.564235 92.713144 171.900838 98.354203 176.059435 102.5128 
C 180.218031 106.671397 185.859091 109.008 191.740235 109.008 
z
" style="fill:#29cccc;stroke:#29cccc;stroke-linejoin:miter;"/>
   </g>
   <g id="patch_18">
    <path clip-path="url(#pd14e7d8949)" d="M 348.791369 330.768 
C 354.672513 330.768 360.313572 328.431397 364.472169 324.2728 
C 368.630766 320.114203 370.967369 314.473144 370.967369 308.592 
C 370.967369 302.710856 368.630766 297.069797 364.472169 292.9112 
C 360.313572 288.752603 354.672513 286.416 348.791369 286.416 
C 342.910225 286.416 337.269166 288.752603 333.110569 292.9112 
C 328.951972 297.069797 326.615369 302.710856 326.615369 308.592 
C 326.615369 314.473144 328.951972 320.114203 333.110569 324.2728 
C 337.269166 328.431397 342.910225 330.768 348.791369 330.768 
z
" style="fill:#29cccc;stroke:#29cccc;stroke-linejoin:miter;"/>
   </g>
   <g id="patch_19">
    <path clip-path="url(#pd14e7d8949)" d="M 497.0279 386.208 
C 502.909044 386.208 508.550103 383.871397 512.7087 379.7128 
C 516.867297 375.554203 519.2039 369.913144 519.2039 364.032 
C 519.2039 358.150856 516.867297 352.509797 512.7087 348.3512 
C 508.550103 344.192603 502.909044 341.856 497.0279 341.856 
C 491.146756 341.856 485.505697 344.192603 481.3471 348.3512 
C 477.188503 352.509797 474.8519 358.150856 474.8519 364.032 
C 474.8519 369.913144 477.188503 375.554203 481.3471 379.7128 
C 485.505697 383.871397 491.146756 386.208 497.0279 386.208 
z
" style="fill:#29cccc;stroke:#29cccc;stroke-linejoin:miter;"/>
   </g>
   <g id="patch_20">
    <path clip-path="url(#pd14e7d8949)" d="M 497.0279 275.328 
C 502.909044 275.328 508.550103 272.991397 512.7087 268.8328 
C 516.867297 264.674203 519.2039 259.033144 519.2039 253.152 
C 519.2039 247.270856 516.867297 241.629797 512.7087 237.4712 
C 508.550103 233.312603 502.909044 230.976 497.0279 230.976 
C 491.146756 230.976 485.505697 233.312603 481.3471 237.4712 
C 477.188503 241.629797 474.8519 247.270856 474.8519 253.152 
C 474.8519 259.033144 477.188503 264.674203 481.3471 268.8328 
C 485.505697 272.991397 491.146756 275.328 497.0279 275.328 
z
" style="fill:#29cccc;stroke:#29cccc;stroke-linejoin:miter;"/>
   </g>
   <g id="patch_21">
    <path clip-path="url(#pd14e7d8949)" d="M 497.0279 164.448 
C 502.909044 164.448 508.550103 162.111397 512.7087 157.9528 
C 516.867297 153.794203 519.2039 148.153144 519.2039 142.272 
C 519.2039 136.390856 516.867297 130.749797 512.7087 126.5912 
C 508.550103 122.432603 502.909044 120.096 497.0279 120.096 
C 491.146756 120.096 485.505697 122.432603 481.3471 126.5912 
C 477.188503 130.749797 474.8519 136.390856 474.8519 142.272 
C 474.8519 148.153144 477.188503 153.794203 481.3471 157.9528 
C 485.505697 162.111397 491.146756 164.448 497.0279 164.448 
z
" style="fill:#29cccc;stroke:#29cccc;stroke-linejoin:miter;"/>
   </g>
   <g id="patch_22">
    <path clip-path="url(#pd14e7d8949)" d="M 497.0279 109.008 
C 502.909044 109.008 508.550103 106.671397 512.7087 102.5128 
C 516.867297 98.354203 519.2039 92.713144 519.2039 86.832 
C 519.2039 80.950856 516.867297 75.309797 512.7087 71.1512 
C 508.550103 66.992603 502.909044 64.656 497.0279 64.656 
C 491.146756 64.656 485.505697 66.992603 481.3471 71.1512 
C 477.188503 75.309797 474.8519 80.950856 474.8519 86.832 
C 474.8519 92.713144 477.188503 98.354203 481.3471 102.5128 
C 485.505697 106.671397 491.146756 109.008 497.0279 109.008 
z
" style="fill:#29cccc;stroke:#29cccc;stroke-linejoin:miter;"/>
   </g>
   <g id="text_6">
    <!-- Bb1 -->
    <defs>
     <path d="M 19.671875 34.8125 
L 19.671875 8.109375 
L 35.5 8.109375 
Q 43.453125 8.109375 47.28125 11.40625 
Q 51.125 14.703125 51.125 21.484375 
Q 51.125 28.328125 47.28125 31.5625 
Q 43.453125 34.8125 35.5 34.8125 
z
M 19.671875 64.796875 
L 19.671875 42.828125 
L 34.28125 42.828125 
Q 41.5 42.828125 45.03125 45.53125 
Q 48.578125 48.25 48.578125 53.8125 
Q 48.578125 59.328125 45.03125 62.0625 
Q 41.5 64.796875 34.28125 64.796875 
z
M 9.8125 72.90625 
L 35.015625 72.90625 
Q 46.296875 72.90625 52.390625 68.21875 
Q 58.5 63.53125 58.5 54.890625 
Q 58.5 48.1875 55.375 44.234375 
Q 52.25 40.28125 46.1875 39.3125 
Q 53.46875 37.75 57.5 32.78125 
Q 61.53125 27.828125 61.53125 20.40625 
Q 61.53125 10.640625 54.890625 5.3125 
Q 48.25 0 35.984375 0 
L 9.8125 0 
z
" id="DejaVuSans-66"/>
     <path d="M 48.6875 27.296875 
Q 48.6875 37.203125 44.609375 42.84375 
Q 40.53125 48.484375 33.40625 48.484375 
Q 26.265625 48.484375 22.1875 42.84375 
Q 18.109375 37.203125 18.109375 27.296875 
Q 18.109375 17.390625 22.1875 11.75 
Q 26.265625 6.109375 33.40625 6.109375 
Q 40.53125 6.109375 44.609375 11.75 
Q 48.6875 17.390625 48.6875 27.296875 
z
M 18.109375 46.390625 
Q 20.953125 51.265625 25.265625 53.625 
Q 29.59375 56 35.59375 56 
Q 45.5625 56 51.78125 48.09375 
Q 58.015625 40.1875 58.015625 27.296875 
Q 58.015625 14.40625 51.78125 6.484375 
Q 45.5625 -1.421875 35.59375 -1.421875 
Q 29.59375 -1.421875 25.265625 0.953125 
Q 20.953125 3.328125 18.109375 8.203125 
L 18.109375 0 
L 9.078125 0 
L 9.078125 75.984375 
L 18.109375 75.984375 
z
" id="DejaVuSans-98"/>
     <path d="M 12.40625 8.296875 
L 28.515625 8.296875 
L 28.515625 63.921875 
L 10.984375 60.40625 
L 10.984375 69.390625 
L 28.421875 72.90625 
L 38.28125 72.90625 
L 38.28125 8.296875 
L 54.390625 8.296875 
L 54.390625 0 
L 12.40625 0 
z
" id="DejaVuSans-49"/>
    </defs>
    <g style="fill:#ffffff;" transform="translate(176.082735 368.447)scale(0.16 -0.16)">
     <use xlink:href="#DejaVuSans-66"/>
     <use x="68.603516" xlink:href="#DejaVuSans-98"/>
     <use x="132.080078" xlink:href="#DejaVuSans-49"/>
    </g>
   </g>
   <g id="text_7">
    <!-- Bb3 -->
    <g style="fill:#ffffff;" transform="translate(176.082735 91.247)scale(0.16 -0.16)">
     <use xlink:href="#DejaVuSans-66"/>
     <use x="68.603516" xlink:href="#DejaVuSans-98"/>
     <use x="132.080078" xlink:href="#DejaVuSans-51"/>
    </g>
   </g>
   <g id="text_8">
    <!-- E2 -->
    <defs>
     <path d="M 9.8125 72.90625 
L 55.90625 72.90625 
L 55.90625 64.59375 
L 19.671875 64.59375 
L 19.671875 43.015625 
L 54.390625 43.015625 
L 54.390625 34.71875 
L 19.671875 34.71875 
L 19.671875 8.296875 
L 56.78125 8.296875 
L 56.78125 0 
L 9.8125 0 
z
" id="DejaVuSans-69"/>
    </defs>
    <g style="fill:#ffffff;" transform="translate(338.646369 313.007)scale(0.16 -0.16)">
     <use xlink:href="#DejaVuSans-69"/>
     <use x="63.183594" xlink:href="#DejaVuSans-50"/>
    </g>
   </g>
   <g id="text_9">
    <!-- C2 -->
    <g style="fill:#ffffff;" transform="translate(486.35165 368.447)scale(0.16 -0.16)">
     <use xlink:href="#DejaVuSans-67"/>
     <use x="69.824219" xlink:href="#DejaVuSans-50"/>
    </g>
   </g>
   <g id="text_10">
    <!-- Bb2 -->
    <g style="fill:#ffffff;" transform="translate(481.3704 257.567)scale(0.16 -0.16)">
     <use xlink:href="#DejaVuSans-66"/>
     <use x="68.603516" xlink:href="#DejaVuSans-98"/>
     <use x="132.080078" xlink:href="#DejaVuSans-50"/>
    </g>
   </g>
   <g id="text_11">
    <!-- G3 -->
    <defs>
     <path d="M 59.515625 10.40625 
L 59.515625 29.984375 
L 43.40625 29.984375 
L 43.40625 38.09375 
L 69.28125 38.09375 
L 69.28125 6.78125 
Q 63.578125 2.734375 56.6875 0.65625 
Q 49.8125 -1.421875 42 -1.421875 
Q 24.90625 -1.421875 15.25 8.5625 
Q 5.609375 18.5625 5.609375 36.375 
Q 5.609375 54.25 15.25 64.234375 
Q 24.90625 74.21875 42 74.21875 
Q 49.125 74.21875 55.546875 72.453125 
Q 61.96875 70.703125 67.390625 67.28125 
L 67.390625 56.78125 
Q 61.921875 61.421875 55.765625 63.765625 
Q 49.609375 66.109375 42.828125 66.109375 
Q 29.4375 66.109375 22.71875 58.640625 
Q 16.015625 51.171875 16.015625 36.375 
Q 16.015625 21.625 22.71875 14.15625 
Q 29.4375 6.6875 42.828125 6.6875 
Q 48.046875 6.6875 52.140625 7.59375 
Q 56.25 8.5 59.515625 10.40625 
z
" id="DejaVuSans-71"/>
    </defs>
    <g style="fill:#ffffff;" transform="translate(485.73915 146.687)scale(0.16 -0.16)">
     <use xlink:href="#DejaVuSans-71"/>
     <use x="77.490234" xlink:href="#DejaVuSans-51"/>
    </g>
   </g>
   <g id="text_12">
    <!-- C4 -->
    <g style="fill:#ffffff;" transform="translate(486.35165 91.247)scale(0.16 -0.16)">
     <use xlink:href="#DejaVuSans-67"/>
     <use x="69.824219" xlink:href="#DejaVuSans-52"/>
    </g>
   </g>
   <g id="text_13">
    <!-- 5 -->
    <defs>
     <path d="M 10.796875 72.90625 
L 49.515625 72.90625 
L 49.515625 64.59375 
L 19.828125 64.59375 
L 19.828125 46.734375 
Q 21.96875 47.46875 24.109375 47.828125 
Q 26.265625 48.1875 28.421875 48.1875 
Q 40.625 48.1875 47.75 41.5 
Q 54.890625 34.8125 54.890625 23.390625 
Q 54.890625 11.625 47.5625 5.09375 
Q 40.234375 -1.421875 26.90625 -1.421875 
Q 22.3125 -1.421875 17.546875 -0.640625 
Q 12.796875 0.140625 7.71875 1.703125 
L 7.71875 11.625 
Q 12.109375 9.234375 16.796875 8.0625 
Q 21.484375 6.890625 26.703125 6.890625 
Q 35.15625 6.890625 40.078125 11.328125 
Q 45.015625 15.765625 45.015625 23.390625 
Q 45.015625 31 40.078125 35.4375 
Q 35.15625 39.890625 26.703125 39.890625 
Q 22.75 39.890625 18.8125 39.015625 
Q 14.890625 38.140625 10.796875 36.28125 
z
" id="DejaVuSans-53"/>
    </defs>
    <g style="fill:#0000ff;" transform="translate(76.864891 397.27075)scale(0.2 -0.2)">
     <use xlink:href="#DejaVuSans-53"/>
    </g>
   </g>
   <g id="text_14">
    <!-- 6 -->
    <defs>
     <path d="M 33.015625 40.375 
Q 26.375 40.375 22.484375 35.828125 
Q 18.609375 31.296875 18.609375 23.390625 
Q 18.609375 15.53125 22.484375 10.953125 
Q 26.375 6.390625 33.015625 6.390625 
Q 39.65625 6.390625 43.53125 10.953125 
Q 47.40625 15.53125 47.40625 23.390625 
Q 47.40625 31.296875 43.53125 35.828125 
Q 39.65625 40.375 33.015625 40.375 
z
M 52.59375 71.296875 
L 52.59375 62.3125 
Q 48.875 64.0625 45.09375 64.984375 
Q 41.3125 65.921875 37.59375 65.921875 
Q 27.828125 65.921875 22.671875 59.328125 
Q 17.53125 52.734375 16.796875 39.40625 
Q 19.671875 43.65625 24.015625 45.921875 
Q 28.375 48.1875 33.59375 48.1875 
Q 44.578125 48.1875 50.953125 41.515625 
Q 57.328125 34.859375 57.328125 23.390625 
Q 57.328125 12.15625 50.6875 5.359375 
Q 44.046875 -1.421875 33.015625 -1.421875 
Q 20.359375 -1.421875 13.671875 8.265625 
Q 6.984375 17.96875 6.984375 36.375 
Q 6.984375 53.65625 15.1875 63.9375 
Q 23.390625 74.21875 37.203125 74.21875 
Q 40.921875 74.21875 44.703125 73.484375 
Q 48.484375 72.75 52.59375 71.296875 
z
" id="DejaVuSans-54"/>
    </defs>
    <g style="fill:#0000ff;" transform="translate(238.450579 397.27075)scale(0.2 -0.2)">
     <use xlink:href="#DejaVuSans-54"/>
    </g>
   </g>
   <g id="text_15">
    <!-- 7 -->
    <defs>
     <path d="M 8.203125 72.90625 
L 55.078125 72.90625 
L 55.078125 68.703125 
L 28.609375 0 
L 18.3125 0 
L 43.21875 64.59375 
L 8.203125 64.59375 
z
" id="DejaVuSans-55"/>
    </defs>
    <g style="fill:#0000ff;" transform="translate(390.967159 397.27075)scale(0.2 -0.2)">
     <use xlink:href="#DejaVuSans-55"/>
    </g>
   </g>
   <g id="text_16">
    <!-- 8 -->
    <defs>
     <path d="M 31.78125 34.625 
Q 24.75 34.625 20.71875 30.859375 
Q 16.703125 27.09375 16.703125 20.515625 
Q 16.703125 13.921875 20.71875 10.15625 
Q 24.75 6.390625 31.78125 6.390625 
Q 38.8125 6.390625 42.859375 10.171875 
Q 46.921875 13.96875 46.921875 20.515625 
Q 46.921875 27.09375 42.890625 30.859375 
Q 38.875 34.625 31.78125 34.625 
z
M 21.921875 38.8125 
Q 15.578125 40.375 12.03125 44.71875 
Q 8.5 49.078125 8.5 55.328125 
Q 8.5 64.0625 14.71875 69.140625 
Q 20.953125 74.21875 31.78125 74.21875 
Q 42.671875 74.21875 48.875 69.140625 
Q 55.078125 64.0625 55.078125 55.328125 
Q 55.078125 49.078125 51.53125 44.71875 
Q 48 40.375 41.703125 38.8125 
Q 48.828125 37.15625 52.796875 32.3125 
Q 56.78125 27.484375 56.78125 20.515625 
Q 56.78125 9.90625 50.3125 4.234375 
Q 43.84375 -1.421875 31.78125 -1.421875 
Q 19.734375 -1.421875 13.25 4.234375 
Q 6.78125 9.90625 6.78125 20.515625 
Q 6.78125 27.484375 10.78125 32.3125 
Q 14.796875 37.15625 21.921875 38.8125 
z
M 18.3125 54.390625 
Q 18.3125 48.734375 21.84375 45.5625 
Q 25.390625 42.390625 31.78125 42.390625 
Q 38.140625 42.390625 41.71875 45.5625 
Q 45.3125 48.734375 45.3125 54.390625 
Q 45.3125 60.0625 41.71875 63.234375 
Q 38.140625 66.40625 31.78125 66.40625 
Q 25.390625 66.40625 21.84375 63.234375 
Q 18.3125 60.0625 18.3125 54.390625 
z
" id="DejaVuSans-56"/>
    </defs>
    <g style="fill:#0000ff;" transform="translate(534.923641 397.27075)scale(0.2 -0.2)">
     <use xlink:href="#DejaVuSans-56"/>
    </g>
   </g>
   <g id="text_17">
    <!-- 6 -->
    <g style="fill:#0000ff;" transform="translate(49.144891 369.55075)scale(0.2 -0.2)">
     <use xlink:href="#DejaVuSans-54"/>
    </g>
   </g>
   <g id="text_18">
    <!-- 5 -->
    <g style="fill:#0000ff;" transform="translate(49.144891 314.11075)scale(0.2 -0.2)">
     <use xlink:href="#DejaVuSans-53"/>
    </g>
   </g>
   <g id="text_19">
    <!-- 4 -->
    <g style="fill:#0000ff;" transform="translate(49.144891 258.67075)scale(0.2 -0.2)">
     <use xlink:href="#DejaVuSans-52"/>
    </g>
   </g>
   <g id="text_20">
    <!-- 3 -->
    <g style="fill:#0000ff;" transform="translate(49.144891 203.23075)scale(0.2 -0.2)">
     <use xlink:href="#DejaVuSans-51"/>
    </g>
   </g>
   <g id="text_21">
    <!-- 2 -->
    <g style="fill:#0000ff;" transform="translate(49.144891 147.79075)scale(0.2 -0.2)">
     <use xlink:href="#DejaVuSans-50"/>
    </g>
   </g>
   <g id="text_22">
    <!-- 1 -->
    <g style="fill:#0000ff;" transform="translate(49.144891 92.35075)scale(0.2 -0.2)">
     <use xlink:href="#DejaVuSans-49"/>
    </g>
   </g>
  </g>
 </g>
 <defs>
  <clipPath id="pd14e7d8949">
   <rect height="343.728" width="469.146751" x="77.683391" y="53.568"/>
  </clipPath>
 </defs>
</svg>
