<?xml version="1.0" encoding="utf-8" standalone="no"?>
<!DOCTYPE svg PUBLIC "-//W3C//DTD SVG 1.1//EN"
  "http://www.w3.org/Graphics/SVG/1.1/DTD/svg11.dtd">
<!-- Created with matplotlib (https://matplotlib.org/) -->
<svg height="446.4pt" version="1.1" viewBox="0 0 529.21096 446.4" width="529.21096pt" xmlns="http://www.w3.org/2000/svg" xmlns:xlink="http://www.w3.org/1999/xlink">
 <defs>
  <style type="text/css">
*{stroke-linecap:butt;stroke-linejoin:round;}
  </style>
 </defs>
 <g id="figure_1">
  <g id="patch_1">
   <path d="M 0 446.4 
L 529.21096 446.4 
L 529.21096 0 
L 0 0 
z
" style="fill:#ffffff;"/>
  </g>
  <g id="axes_1">
   <g id="patch_2">
    <path clip-path="url(#p411d4e8190)" d="M -1333.125951 225.432 
L -1237.046526 225.432 
L -1237.046526 86.832 
L -1333.125951 86.832 
z
" style="fill:#cccccc;stroke:#cccccc;stroke-linejoin:miter;"/>
   </g>
   <g id="patch_3">
    <path clip-path="url(#p411d4e8190)" d="M -970.075687 225.432 
L -884.478651 225.432 
L -884.478651 86.832 
L -970.075687 86.832 
z
" style="fill:#cccccc;stroke:#cccccc;stroke-linejoin:miter;"/>
   </g>
   <g id="patch_4">
    <path clip-path="url(#p411d4e8190)" d="M -646.634673 225.432 
L -570.376382 225.432 
L -570.376382 86.832 
L -646.634673 86.832 
z
" style="fill:#cccccc;stroke:#cccccc;stroke-linejoin:miter;"/>
   </g>
   <g id="patch_5">
    <path clip-path="url(#p411d4e8190)" d="M -358.481487 225.432 
L -290.543074 225.432 
L -290.543074 86.832 
L -358.481487 86.832 
z
" style="fill:#cccccc;stroke:#cccccc;stroke-linejoin:miter;"/>
   </g>
   <g id="patch_6">
    <path clip-path="url(#p411d4e8190)" d="M 15.88923 364.032 
L 73.018397 364.032 
L 73.018397 86.832 
L 15.88923 86.832 
z
" style="fill:#cccccc;stroke:#cccccc;stroke-linejoin:miter;"/>
   </g>
   <g id="patch_7">
    <path clip-path="url(#p411d4e8190)" d="M 330.696223 225.432 
L 378.735936 225.432 
L 378.735936 86.832 
L 330.696223 86.832 
z
" style="fill:#cccccc;stroke:#cccccc;stroke-linejoin:miter;"/>
   </g>
   <g id="patch_8">
    <path clip-path="url(#p411d4e8190)" d="M 512.221355 225.432 
L 555.019873 225.432 
L 555.019873 86.832 
L 512.221355 86.832 
z
" style="fill:#cccccc;stroke:#cccccc;stroke-linejoin:miter;"/>
   </g>
   <g id="patch_9">
    <path clip-path="url(#p411d4e8190)" d="M 673.941862 225.432 
L 712.071008 225.432 
L 712.071008 86.832 
L 673.941862 86.832 
z
" style="fill:#cccccc;stroke:#cccccc;stroke-linejoin:miter;"/>
   </g>
   <g id="patch_10">
    <path clip-path="url(#p411d4e8190)" d="M 818.018455 225.432 
L 851.987662 225.432 
L 851.987662 86.832 
L 818.018455 86.832 
z
" style="fill:#cccccc;stroke:#cccccc;stroke-linejoin:miter;"/>
   </g>
   <g id="line2d_1">
    <path clip-path="url(#p411d4e8190)" d="M 73.018397 364.032 
L 73.018397 86.832 
" style="fill:none;stroke:#000000;stroke-linecap:square;stroke-width:3;"/>
   </g>
   <g id="line2d_2">
    <path clip-path="url(#p411d4e8190)" d="M 180.863906 364.032 
L 180.863906 86.832 
" style="fill:none;stroke:#000000;stroke-linecap:square;stroke-width:3;"/>
   </g>
   <g id="line2d_3">
    <path clip-path="url(#p411d4e8190)" d="M 282.656511 364.032 
L 282.656511 86.832 
" style="fill:none;stroke:#000000;stroke-linecap:square;stroke-width:3;"/>
   </g>
   <g id="line2d_4">
    <path clip-path="url(#p411d4e8190)" d="M 378.735936 364.032 
L 378.735936 86.832 
" style="fill:none;stroke:#000000;stroke-linecap:square;stroke-width:3;"/>
   </g>
   <g id="line2d_5">
    <path clip-path="url(#p411d4e8190)" d="M 469.422837 364.032 
L 469.422837 86.832 
" style="fill:none;stroke:#000000;stroke-linecap:square;stroke-width:3;"/>
   </g>
   <g id="line2d_6">
    <path clip-path="url(#p411d4e8190)" d="M -1 364.032 
L 530.21096 364.032 
" style="fill:none;stroke:#808080;stroke-linecap:square;stroke-width:3;"/>
   </g>
   <g id="line2d_7">
    <path clip-path="url(#p411d4e8190)" d="M -1 308.592 
L 530.21096 308.592 
" style="fill:none;stroke:#808080;stroke-linecap:square;stroke-width:3;"/>
   </g>
   <g id="line2d_8">
    <path clip-path="url(#p411d4e8190)" d="M -1 253.152 
L 530.21096 253.152 
" style="fill:none;stroke:#808080;stroke-linecap:square;stroke-width:3;"/>
   </g>
   <g id="line2d_9">
    <path clip-path="url(#p411d4e8190)" d="M -1 197.712 
L 530.21096 197.712 
" style="fill:none;stroke:#808080;stroke-linecap:square;stroke-width:3;"/>
   </g>
   <g id="line2d_10">
    <path clip-path="url(#p411d4e8190)" d="M -1 142.272 
L 530.21096 142.272 
" style="fill:none;stroke:#808080;stroke-linecap:square;stroke-width:3;"/>
   </g>
   <g id="line2d_11">
    <path clip-path="url(#p411d4e8190)" d="M -1 86.832 
L 530.21096 86.832 
" style="fill:none;stroke:#808080;stroke-linecap:square;stroke-width:3;"/>
   </g>
   <g id="line2d_12">
    <path clip-path="url(#p411d4e8190)" style="fill:none;stroke:#000000;stroke-linecap:square;stroke-width:10;"/>
   </g>
   <g id="line2d_13">
    <path clip-path="url(#p411d4e8190)" style="fill:none;stroke:#000000;stroke-linecap:square;stroke-width:5;"/>
   </g>
   <g id="matplotlib.axis_1"/>
   <g id="matplotlib.axis_2"/>
   <g id="patch_11">
    <path clip-path="url(#p411d4e8190)" d="M 126.941152 330.768 
C 132.822295 330.768 138.463355 328.431397 142.621951 324.2728 
C 146.780548 320.114203 149.117152 314.473144 149.117152 308.592 
C 149.117152 302.710856 146.780548 297.069797 142.621951 292.9112 
C 138.463355 288.752603 132.822295 286.416 126.941152 286.416 
C 121.060008 286.416 115.418948 288.752603 111.260352 292.9112 
C 107.101755 297.069797 104.765152 302.710856 104.765152 308.592 
C 104.765152 314.473144 107.101755 320.114203 111.260352 324.2728 
C 115.418948 328.431397 121.060008 330.768 126.941152 330.768 
z
" style="fill:#cc2929;stroke:#cc2929;stroke-linejoin:miter;"/>
   </g>
   <g id="patch_12">
    <path clip-path="url(#p411d4e8190)" d="M 231.760208 386.208 
C 237.641352 386.208 243.282411 383.871397 247.441008 379.7128 
C 251.599605 375.554203 253.936208 369.913144 253.936208 364.032 
C 253.936208 358.150856 251.599605 352.509797 247.441008 348.3512 
C 243.282411 344.192603 237.641352 341.856 231.760208 341.856 
C 225.879064 341.856 220.238005 344.192603 216.079408 348.3512 
C 211.920811 352.509797 209.584208 358.150856 209.584208 364.032 
C 209.584208 369.913144 211.920811 375.554203 216.079408 379.7128 
C 220.238005 383.871397 225.879064 386.208 231.760208 386.208 
z
" style="fill:#cc2929;stroke:#cc2929;stroke-linejoin:miter;"/>
   </g>
   <g id="patch_13">
    <path clip-path="url(#p411d4e8190)" d="M 231.760208 164.448 
C 237.641352 164.448 243.282411 162.111397 247.441008 157.9528 
C 251.599605 153.794203 253.936208 148.153144 253.936208 142.272 
C 253.936208 136.390856 251.599605 130.749797 247.441008 126.5912 
C 243.282411 122.432603 237.641352 120.096 231.760208 120.096 
C 225.879064 120.096 220.238005 122.432603 216.079408 126.5912 
C 211.920811 130.749797 209.584208 136.390856 209.584208 142.272 
C 209.584208 148.153144 211.920811 153.794203 216.079408 157.9528 
C 220.238005 162.111397 225.879064 164.448 231.760208 164.448 
z
" style="fill:#cc2929;stroke:#cc2929;stroke-linejoin:miter;"/>
   </g>
   <g id="patch_14">
    <path clip-path="url(#p411d4e8190)" d="M 231.760208 109.008 
C 237.641352 109.008 243.282411 106.671397 247.441008 102.5128 
C 251.599605 98.354203 253.936208 92.713144 253.936208 86.832 
C 253.936208 80.950856 251.599605 75.309797 247.441008 71.1512 
C 243.282411 66.992603 237.641352 64.656 231.760208 64.656 
C 225.879064 64.656 220.238005 66.992603 216.079408 71.1512 
C 211.920811 75.309797 209.584208 80.950856 209.584208 86.832 
C 209.584208 92.713144 211.920811 98.354203 216.079408 102.5128 
C 220.238005 106.671397 225.879064 109.008 231.760208 109.008 
z
" style="fill:#cc2929;stroke:#cc2929;stroke-linejoin:miter;"/>
   </g>
   <g id="patch_15">
    <path clip-path="url(#p411d4e8190)" d="M 330.696223 219.888 
C 336.577367 219.888 342.218426 217.551397 346.377023 213.3928 
C 350.53562 209.234203 352.872223 203.593144 352.872223 197.712 
C 352.872223 191.830856 350.53562 186.189797 346.377023 182.0312 
C 342.218426 177.872603 336.577367 175.536 330.696223 175.536 
C 324.815079 175.536 319.17402 177.872603 315.015423 182.0312 
C 310.856826 186.189797 308.520223 191.830856 308.520223 197.712 
C 308.520223 203.593144 310.856826 209.234203 315.015423 213.3928 
C 319.17402 217.551397 324.815079 219.888 330.696223 219.888 
z
" style="fill:#cc2929;stroke:#cc2929;stroke-linejoin:miter;"/>
   </g>
   <g id="patch_16">
    <path clip-path="url(#p411d4e8190)" d="M 424.079386 330.768 
C 429.96053 330.768 435.601589 328.431397 439.760186 324.2728 
C 443.918783 320.114203 446.255386 314.473144 446.255386 308.592 
C 446.255386 302.710856 443.918783 297.069797 439.760186 292.9112 
C 435.601589 288.752603 429.96053 286.416 424.079386 286.416 
C 418.198242 286.416 412.557183 288.752603 408.398586 292.9112 
C 404.239989 297.069797 401.903386 302.710856 401.903386 308.592 
C 401.903386 314.473144 404.239989 320.114203 408.398586 324.2728 
C 412.557183 328.431397 418.198242 330.768 424.079386 330.768 
z
" style="fill:#cc2929;stroke:#cc2929;stroke-linejoin:miter;"/>
   </g>
   <g id="patch_17">
    <path clip-path="url(#p411d4e8190)" d="M 424.079386 275.328 
C 429.96053 275.328 435.601589 272.991397 439.760186 268.8328 
C 443.918783 264.674203 446.255386 259.033144 446.255386 253.152 
C 446.255386 247.270856 443.918783 241.629797 439.760186 237.4712 
C 435.601589 233.312603 429.96053 230.976 424.079386 230.976 
C 418.198242 230.976 412.557183 233.312603 408.398586 237.4712 
C 404.239989 241.629797 401.903386 247.270856 401.903386 253.152 
C 401.903386 259.033144 404.239989 264.674203 408.398586 268.8328 
C 412.557183 272.991397 418.198242 275.328 424.079386 275.328 
z
" style="fill:#cc2929;stroke:#cc2929;stroke-linejoin:miter;"/>
   </g>
   <g id="text_1">
    <!-- A#2 -->
    <defs>
     <path d="M 34.1875 63.1875 
L 20.796875 26.90625 
L 47.609375 26.90625 
z
M 28.609375 72.90625 
L 39.796875 72.90625 
L 67.578125 0 
L 57.328125 0 
L 50.6875 18.703125 
L 17.828125 18.703125 
L 11.1875 0 
L 0.78125 0 
z
" id="DejaVuSans-65"/>
     <path d="M 51.125 44 
L 36.921875 44 
L 32.8125 27.6875 
L 47.125 27.6875 
z
M 43.796875 71.78125 
L 38.71875 51.515625 
L 52.984375 51.515625 
L 58.109375 71.78125 
L 65.921875 71.78125 
L 60.890625 51.515625 
L 76.125 51.515625 
L 76.125 44 
L 58.984375 44 
L 54.984375 27.6875 
L 70.515625 27.6875 
L 70.515625 20.21875 
L 53.078125 20.21875 
L 48 0 
L 40.1875 0 
L 45.21875 20.21875 
L 30.90625 20.21875 
L 25.875 0 
L 18.015625 0 
L 23.09375 20.21875 
L 7.71875 20.21875 
L 7.71875 27.6875 
L 24.90625 27.6875 
L 29 44 
L 13.28125 44 
L 13.28125 51.515625 
L 30.90625 51.515625 
L 35.890625 71.78125 
z
" id="DejaVuSans-35"/>
     <path d="M 19.1875 8.296875 
L 53.609375 8.296875 
L 53.609375 0 
L 7.328125 0 
L 7.328125 8.296875 
Q 12.9375 14.109375 22.625 23.890625 
Q 32.328125 33.6875 34.8125 36.53125 
Q 39.546875 41.84375 41.421875 45.53125 
Q 43.3125 49.21875 43.3125 52.78125 
Q 43.3125 58.59375 39.234375 62.25 
Q 35.15625 65.921875 28.609375 65.921875 
Q 23.96875 65.921875 18.8125 64.3125 
Q 13.671875 62.703125 7.8125 59.421875 
L 7.8125 69.390625 
Q 13.765625 71.78125 18.9375 73 
Q 24.125 74.21875 28.421875 74.21875 
Q 39.75 74.21875 46.484375 68.546875 
Q 53.21875 62.890625 53.21875 53.421875 
Q 53.21875 48.921875 51.53125 44.890625 
Q 49.859375 40.875 45.40625 35.40625 
Q 44.1875 33.984375 37.640625 27.21875 
Q 31.109375 20.453125 19.1875 8.296875 
z
" id="DejaVuSans-50"/>
    </defs>
    <g style="fill:#ffffff;" transform="translate(109.674902 313.007)scale(0.16 -0.16)">
     <use xlink:href="#DejaVuSans-65"/>
     <use x="68.408203" xlink:href="#DejaVuSans-35"/>
     <use x="152.197266" xlink:href="#DejaVuSans-50"/>
    </g>
   </g>
   <g id="text_2">
    <!-- F#2 -->
    <defs>
     <path d="M 9.8125 72.90625 
L 51.703125 72.90625 
L 51.703125 64.59375 
L 19.671875 64.59375 
L 19.671875 43.109375 
L 48.578125 43.109375 
L 48.578125 34.8125 
L 19.671875 34.8125 
L 19.671875 0 
L 9.8125 0 
z
" id="DejaVuSans-70"/>
    </defs>
    <g style="fill:#ffffff;" transform="translate(215.365208 368.447)scale(0.16 -0.16)">
     <use xlink:href="#DejaVuSans-70"/>
     <use x="57.519531" xlink:href="#DejaVuSans-35"/>
     <use x="141.308594" xlink:href="#DejaVuSans-50"/>
    </g>
   </g>
   <g id="text_3">
    <!-- C#4 -->
    <defs>
     <path d="M 64.40625 67.28125 
L 64.40625 56.890625 
Q 59.421875 61.53125 53.78125 63.8125 
Q 48.140625 66.109375 41.796875 66.109375 
Q 29.296875 66.109375 22.65625 58.46875 
Q 16.015625 50.828125 16.015625 36.375 
Q 16.015625 21.96875 22.65625 14.328125 
Q 29.296875 6.6875 41.796875 6.6875 
Q 48.140625 6.6875 53.78125 8.984375 
Q 59.421875 11.28125 64.40625 15.921875 
L 64.40625 5.609375 
Q 59.234375 2.09375 53.4375 0.328125 
Q 47.65625 -1.421875 41.21875 -1.421875 
Q 24.65625 -1.421875 15.125 8.703125 
Q 5.609375 18.84375 5.609375 36.375 
Q 5.609375 53.953125 15.125 64.078125 
Q 24.65625 74.21875 41.21875 74.21875 
Q 47.75 74.21875 53.53125 72.484375 
Q 59.328125 70.75 64.40625 67.28125 
z
" id="DejaVuSans-67"/>
     <path d="M 37.796875 64.3125 
L 12.890625 25.390625 
L 37.796875 25.390625 
z
M 35.203125 72.90625 
L 47.609375 72.90625 
L 47.609375 25.390625 
L 58.015625 25.390625 
L 58.015625 17.1875 
L 47.609375 17.1875 
L 47.609375 0 
L 37.796875 0 
L 37.796875 17.1875 
L 4.890625 17.1875 
L 4.890625 26.703125 
z
" id="DejaVuSans-52"/>
    </defs>
    <g style="fill:#ffffff;" transform="translate(214.380208 146.687)scale(0.16 -0.16)">
     <use xlink:href="#DejaVuSans-67"/>
     <use x="69.824219" xlink:href="#DejaVuSans-35"/>
     <use x="153.613281" xlink:href="#DejaVuSans-52"/>
    </g>
   </g>
   <g id="text_4">
    <!-- F#4 -->
    <g style="fill:#ffffff;" transform="translate(215.365208 91.247)scale(0.16 -0.16)">
     <use xlink:href="#DejaVuSans-70"/>
     <use x="57.519531" xlink:href="#DejaVuSans-35"/>
     <use x="141.308594" xlink:href="#DejaVuSans-52"/>
    </g>
   </g>
   <g id="text_5">
    <!-- A#3 -->
    <defs>
     <path d="M 40.578125 39.3125 
Q 47.65625 37.796875 51.625 33 
Q 55.609375 28.21875 55.609375 21.1875 
Q 55.609375 10.40625 48.1875 4.484375 
Q 40.765625 -1.421875 27.09375 -1.421875 
Q 22.515625 -1.421875 17.65625 -0.515625 
Q 12.796875 0.390625 7.625 2.203125 
L 7.625 11.71875 
Q 11.71875 9.328125 16.59375 8.109375 
Q 21.484375 6.890625 26.8125 6.890625 
Q 36.078125 6.890625 40.9375 10.546875 
Q 45.796875 14.203125 45.796875 21.1875 
Q 45.796875 27.640625 41.28125 31.265625 
Q 36.765625 34.90625 28.71875 34.90625 
L 20.21875 34.90625 
L 20.21875 43.015625 
L 29.109375 43.015625 
Q 36.375 43.015625 40.234375 45.921875 
Q 44.09375 48.828125 44.09375 54.296875 
Q 44.09375 59.90625 40.109375 62.90625 
Q 36.140625 65.921875 28.71875 65.921875 
Q 24.65625 65.921875 20.015625 65.03125 
Q 15.375 64.15625 9.8125 62.3125 
L 9.8125 71.09375 
Q 15.4375 72.65625 20.34375 73.4375 
Q 25.25 74.21875 29.59375 74.21875 
Q 40.828125 74.21875 47.359375 69.109375 
Q 53.90625 64.015625 53.90625 55.328125 
Q 53.90625 49.265625 50.4375 45.09375 
Q 46.96875 40.921875 40.578125 39.3125 
z
" id="DejaVuSans-51"/>
    </defs>
    <g style="fill:#ffffff;" transform="translate(313.429973 202.127)scale(0.16 -0.16)">
     <use xlink:href="#DejaVuSans-65"/>
     <use x="68.408203" xlink:href="#DejaVuSans-35"/>
     <use x="152.197266" xlink:href="#DejaVuSans-51"/>
    </g>
   </g>
   <g id="text_6">
    <!-- C#3 -->
    <g style="fill:#ffffff;" transform="translate(406.699386 313.007)scale(0.16 -0.16)">
     <use xlink:href="#DejaVuSans-67"/>
     <use x="69.824219" xlink:href="#DejaVuSans-35"/>
     <use x="153.613281" xlink:href="#DejaVuSans-51"/>
    </g>
   </g>
   <g id="text_7">
    <!-- F#3 -->
    <g style="fill:#ffffff;" transform="translate(407.684386 257.567)scale(0.16 -0.16)">
     <use xlink:href="#DejaVuSans-70"/>
     <use x="57.519531" xlink:href="#DejaVuSans-35"/>
     <use x="141.308594" xlink:href="#DejaVuSans-51"/>
    </g>
   </g>
   <g id="patch_18">
    <path clip-path="url(#p411d4e8190)" d="M 165.749152 330.768 
C 171.630295 330.768 177.271355 328.431397 181.429951 324.2728 
C 185.588548 320.114203 187.925152 314.473144 187.925152 308.592 
C 187.925152 302.710856 185.588548 297.069797 181.429951 292.9112 
C 177.271355 288.752603 171.630295 286.416 165.749152 286.416 
C 159.868008 286.416 154.226948 288.752603 150.068352 292.9112 
C 145.909755 297.069797 143.573152 302.710856 143.573152 308.592 
C 143.573152 314.473144 145.909755 320.114203 150.068352 324.2728 
C 154.226948 328.431397 159.868008 330.768 165.749152 330.768 
z
" style="fill:#29cccc;stroke:#29cccc;stroke-linejoin:miter;"/>
   </g>
   <g id="patch_19">
    <path clip-path="url(#p411d4e8190)" d="M 270.568208 386.208 
C 276.449352 386.208 282.090411 383.871397 286.249008 379.7128 
C 290.407605 375.554203 292.744208 369.913144 292.744208 364.032 
C 292.744208 358.150856 290.407605 352.509797 286.249008 348.3512 
C 282.090411 344.192603 276.449352 341.856 270.568208 341.856 
C 264.687064 341.856 259.046005 344.192603 254.887408 348.3512 
C 250.728811 352.509797 248.392208 358.150856 248.392208 364.032 
C 248.392208 369.913144 250.728811 375.554203 254.887408 379.7128 
C 259.046005 383.871397 264.687064 386.208 270.568208 386.208 
z
" style="fill:#29cccc;stroke:#29cccc;stroke-linejoin:miter;"/>
   </g>
   <g id="patch_20">
    <path clip-path="url(#p411d4e8190)" d="M 270.568208 164.448 
C 276.449352 164.448 282.090411 162.111397 286.249008 157.9528 
C 290.407605 153.794203 292.744208 148.153144 292.744208 142.272 
C 292.744208 136.390856 290.407605 130.749797 286.249008 126.5912 
C 282.090411 122.432603 276.449352 120.096 270.568208 120.096 
C 264.687064 120.096 259.046005 122.432603 254.887408 126.5912 
C 250.728811 130.749797 248.392208 136.390856 248.392208 142.272 
C 248.392208 148.153144 250.728811 153.794203 254.887408 157.9528 
C 259.046005 162.111397 264.687064 164.448 270.568208 164.448 
z
" style="fill:#29cccc;stroke:#29cccc;stroke-linejoin:miter;"/>
   </g>
   <g id="patch_21">
    <path clip-path="url(#p411d4e8190)" d="M 270.568208 109.008 
C 276.449352 109.008 282.090411 106.671397 286.249008 102.5128 
C 290.407605 98.354203 292.744208 92.713144 292.744208 86.832 
C 292.744208 80.950856 290.407605 75.309797 286.249008 71.1512 
C 282.090411 66.992603 276.449352 64.656 270.568208 64.656 
C 264.687064 64.656 259.046005 66.992603 254.887408 71.1512 
C 250.728811 75.309797 248.392208 80.950856 248.392208 86.832 
C 248.392208 92.713144 250.728811 98.354203 254.887408 102.5128 
C 259.046005 106.671397 264.687064 109.008 270.568208 109.008 
z
" style="fill:#29cccc;stroke:#29cccc;stroke-linejoin:miter;"/>
   </g>
   <g id="patch_22">
    <path clip-path="url(#p411d4e8190)" d="M 369.504223 219.888 
C 375.385367 219.888 381.026426 217.551397 385.185023 213.3928 
C 389.34362 209.234203 391.680223 203.593144 391.680223 197.712 
C 391.680223 191.830856 389.34362 186.189797 385.185023 182.0312 
C 381.026426 177.872603 375.385367 175.536 369.504223 175.536 
C 363.623079 175.536 357.98202 177.872603 353.823423 182.0312 
C 349.664826 186.189797 347.328223 191.830856 347.328223 197.712 
C 347.328223 203.593144 349.664826 209.234203 353.823423 213.3928 
C 357.98202 217.551397 363.623079 219.888 369.504223 219.888 
z
" style="fill:#29cccc;stroke:#29cccc;stroke-linejoin:miter;"/>
   </g>
   <g id="patch_23">
    <path clip-path="url(#p411d4e8190)" d="M 462.887386 330.768 
C 468.76853 330.768 474.409589 328.431397 478.568186 324.2728 
C 482.726783 320.114203 485.063386 314.473144 485.063386 308.592 
C 485.063386 302.710856 482.726783 297.069797 478.568186 292.9112 
C 474.409589 288.752603 468.76853 286.416 462.887386 286.416 
C 457.006242 286.416 451.365183 288.752603 447.206586 292.9112 
C 443.047989 297.069797 440.711386 302.710856 440.711386 308.592 
C 440.711386 314.473144 443.047989 320.114203 447.206586 324.2728 
C 451.365183 328.431397 457.006242 330.768 462.887386 330.768 
z
" style="fill:#29cccc;stroke:#29cccc;stroke-linejoin:miter;"/>
   </g>
   <g id="patch_24">
    <path clip-path="url(#p411d4e8190)" d="M 462.887386 275.328 
C 468.76853 275.328 474.409589 272.991397 478.568186 268.8328 
C 482.726783 264.674203 485.063386 259.033144 485.063386 253.152 
C 485.063386 247.270856 482.726783 241.629797 478.568186 237.4712 
C 474.409589 233.312603 468.76853 230.976 462.887386 230.976 
C 457.006242 230.976 451.365183 233.312603 447.206586 237.4712 
C 443.047989 241.629797 440.711386 247.270856 440.711386 253.152 
C 440.711386 259.033144 443.047989 264.674203 447.206586 268.8328 
C 451.365183 272.991397 457.006242 275.328 462.887386 275.328 
z
" style="fill:#29cccc;stroke:#29cccc;stroke-linejoin:miter;"/>
   </g>
   <g id="text_8">
    <!-- Bb2 -->
    <defs>
     <path d="M 19.671875 34.8125 
L 19.671875 8.109375 
L 35.5 8.109375 
Q 43.453125 8.109375 47.28125 11.40625 
Q 51.125 14.703125 51.125 21.484375 
Q 51.125 28.328125 47.28125 31.5625 
Q 43.453125 34.8125 35.5 34.8125 
z
M 19.671875 64.796875 
L 19.671875 42.828125 
L 34.28125 42.828125 
Q 41.5 42.828125 45.03125 45.53125 
Q 48.578125 48.25 48.578125 53.8125 
Q 48.578125 59.328125 45.03125 62.0625 
Q 41.5 64.796875 34.28125 64.796875 
z
M 9.8125 72.90625 
L 35.015625 72.90625 
Q 46.296875 72.90625 52.390625 68.21875 
Q 58.5 63.53125 58.5 54.890625 
Q 58.5 48.1875 55.375 44.234375 
Q 52.25 40.28125 46.1875 39.3125 
Q 53.46875 37.75 57.5 32.78125 
Q 61.53125 27.828125 61.53125 20.40625 
Q 61.53125 10.640625 54.890625 5.3125 
Q 48.25 0 35.984375 0 
L 9.8125 0 
z
" id="DejaVuSans-66"/>
     <path d="M 48.6875 27.296875 
Q 48.6875 37.203125 44.609375 42.84375 
Q 40.53125 48.484375 33.40625 48.484375 
Q 26.265625 48.484375 22.1875 42.84375 
Q 18.109375 37.203125 18.109375 27.296875 
Q 18.109375 17.390625 22.1875 11.75 
Q 26.265625 6.109375 33.40625 6.109375 
Q 40.53125 6.109375 44.609375 11.75 
Q 48.6875 17.390625 48.6875 27.296875 
z
M 18.109375 46.390625 
Q 20.953125 51.265625 25.265625 53.625 
Q 29.59375 56 35.59375 56 
Q 45.5625 56 51.78125 48.09375 
Q 58.015625 40.1875 58.015625 27.296875 
Q 58.015625 14.40625 51.78125 6.484375 
Q 45.5625 -1.421875 35.59375 -1.421875 
Q 29.59375 -1.421875 25.265625 0.953125 
Q 20.953125 3.328125 18.109375 8.203125 
L 18.109375 0 
L 9.078125 0 
L 9.078125 75.984375 
L 18.109375 75.984375 
z
" id="DejaVuSans-98"/>
    </defs>
    <g style="fill:#ffffff;" transform="translate(150.091652 313.007)scale(0.16 -0.16)">
     <use xlink:href="#DejaVuSans-66"/>
     <use x="68.603516" xlink:href="#DejaVuSans-98"/>
     <use x="132.080078" xlink:href="#DejaVuSans-50"/>
    </g>
   </g>
   <g id="text_9">
    <!-- Gb2 -->
    <defs>
     <path d="M 59.515625 10.40625 
L 59.515625 29.984375 
L 43.40625 29.984375 
L 43.40625 38.09375 
L 69.28125 38.09375 
L 69.28125 6.78125 
Q 63.578125 2.734375 56.6875 0.65625 
Q 49.8125 -1.421875 42 -1.421875 
Q 24.90625 -1.421875 15.25 8.5625 
Q 5.609375 18.5625 5.609375 36.375 
Q 5.609375 54.25 15.25 64.234375 
Q 24.90625 74.21875 42 74.21875 
Q 49.125 74.21875 55.546875 72.453125 
Q 61.96875 70.703125 67.390625 67.28125 
L 67.390625 56.78125 
Q 61.921875 61.421875 55.765625 63.765625 
Q 49.609375 66.109375 42.828125 66.109375 
Q 29.4375 66.109375 22.71875 58.640625 
Q 16.015625 51.171875 16.015625 36.375 
Q 16.015625 21.625 22.71875 14.15625 
Q 29.4375 6.6875 42.828125 6.6875 
Q 48.046875 6.6875 52.140625 7.59375 
Q 56.25 8.5 59.515625 10.40625 
z
" id="DejaVuSans-71"/>
    </defs>
    <g style="fill:#ffffff;" transform="translate(254.200708 368.447)scale(0.16 -0.16)">
     <use xlink:href="#DejaVuSans-71"/>
     <use x="77.490234" xlink:href="#DejaVuSans-98"/>
     <use x="140.966797" xlink:href="#DejaVuSans-50"/>
    </g>
   </g>
   <g id="text_10">
    <!-- Db4 -->
    <defs>
     <path d="M 19.671875 64.796875 
L 19.671875 8.109375 
L 31.59375 8.109375 
Q 46.6875 8.109375 53.6875 14.9375 
Q 60.6875 21.78125 60.6875 36.53125 
Q 60.6875 51.171875 53.6875 57.984375 
Q 46.6875 64.796875 31.59375 64.796875 
z
M 9.8125 72.90625 
L 30.078125 72.90625 
Q 51.265625 72.90625 61.171875 64.09375 
Q 71.09375 55.28125 71.09375 36.53125 
Q 71.09375 17.671875 61.125 8.828125 
Q 51.171875 0 30.078125 0 
L 9.8125 0 
z
" id="DejaVuSans-68"/>
    </defs>
    <g style="fill:#ffffff;" transform="translate(254.239458 146.687)scale(0.16 -0.16)">
     <use xlink:href="#DejaVuSans-68"/>
     <use x="77.001953" xlink:href="#DejaVuSans-98"/>
     <use x="140.478516" xlink:href="#DejaVuSans-52"/>
    </g>
   </g>
   <g id="text_11">
    <!-- Gb4 -->
    <g style="fill:#ffffff;" transform="translate(254.200708 91.247)scale(0.16 -0.16)">
     <use xlink:href="#DejaVuSans-71"/>
     <use x="77.490234" xlink:href="#DejaVuSans-98"/>
     <use x="140.966797" xlink:href="#DejaVuSans-52"/>
    </g>
   </g>
   <g id="text_12">
    <!-- Bb3 -->
    <g style="fill:#ffffff;" transform="translate(353.846723 202.127)scale(0.16 -0.16)">
     <use xlink:href="#DejaVuSans-66"/>
     <use x="68.603516" xlink:href="#DejaVuSans-98"/>
     <use x="132.080078" xlink:href="#DejaVuSans-51"/>
    </g>
   </g>
   <g id="text_13">
    <!-- Db3 -->
    <g style="fill:#ffffff;" transform="translate(446.558636 313.007)scale(0.16 -0.16)">
     <use xlink:href="#DejaVuSans-68"/>
     <use x="77.001953" xlink:href="#DejaVuSans-98"/>
     <use x="140.478516" xlink:href="#DejaVuSans-51"/>
    </g>
   </g>
   <g id="text_14">
    <!-- Gb3 -->
    <g style="fill:#ffffff;" transform="translate(446.519886 257.567)scale(0.16 -0.16)">
     <use xlink:href="#DejaVuSans-71"/>
     <use x="77.490234" xlink:href="#DejaVuSans-98"/>
     <use x="140.966797" xlink:href="#DejaVuSans-51"/>
    </g>
   </g>
   <g id="text_15">
    <!-- 12 -->
    <defs>
     <path d="M 12.40625 8.296875 
L 28.515625 8.296875 
L 28.515625 63.921875 
L 10.984375 60.40625 
L 10.984375 69.390625 
L 28.421875 72.90625 
L 38.28125 72.90625 
L 38.28125 8.296875 
L 54.390625 8.296875 
L 54.390625 0 
L 12.40625 0 
z
" id="DejaVuSans-49"/>
    </defs>
    <g style="fill:#0000ff;" transform="translate(60.293397 397.27075)scale(0.2 -0.2)">
     <use xlink:href="#DejaVuSans-49"/>
     <use x="63.623047" xlink:href="#DejaVuSans-50"/>
    </g>
   </g>
   <g id="text_16">
    <!-- 13 -->
    <g style="fill:#0000ff;" transform="translate(168.138906 397.27075)scale(0.2 -0.2)">
     <use xlink:href="#DejaVuSans-49"/>
     <use x="63.623047" xlink:href="#DejaVuSans-51"/>
    </g>
   </g>
   <g id="text_17">
    <!-- 14 -->
    <g style="fill:#0000ff;" transform="translate(269.931511 397.27075)scale(0.2 -0.2)">
     <use xlink:href="#DejaVuSans-49"/>
     <use x="63.623047" xlink:href="#DejaVuSans-52"/>
    </g>
   </g>
   <g id="text_18">
    <!-- 15 -->
    <defs>
     <path d="M 10.796875 72.90625 
L 49.515625 72.90625 
L 49.515625 64.59375 
L 19.828125 64.59375 
L 19.828125 46.734375 
Q 21.96875 47.46875 24.109375 47.828125 
Q 26.265625 48.1875 28.421875 48.1875 
Q 40.625 48.1875 47.75 41.5 
Q 54.890625 34.8125 54.890625 23.390625 
Q 54.890625 11.625 47.5625 5.09375 
Q 40.234375 -1.421875 26.90625 -1.421875 
Q 22.3125 -1.421875 17.546875 -0.640625 
Q 12.796875 0.140625 7.71875 1.703125 
L 7.71875 11.625 
Q 12.109375 9.234375 16.796875 8.0625 
Q 21.484375 6.890625 26.703125 6.890625 
Q 35.15625 6.890625 40.078125 11.328125 
Q 45.015625 15.765625 45.015625 23.390625 
Q 45.015625 31 40.078125 35.4375 
Q 35.15625 39.890625 26.703125 39.890625 
Q 22.75 39.890625 18.8125 39.015625 
Q 14.890625 38.140625 10.796875 36.28125 
z
" id="DejaVuSans-53"/>
    </defs>
    <g style="fill:#0000ff;" transform="translate(366.010936 397.27075)scale(0.2 -0.2)">
     <use xlink:href="#DejaVuSans-49"/>
     <use x="63.623047" xlink:href="#DejaVuSans-53"/>
    </g>
   </g>
   <g id="text_19">
    <!-- 16 -->
    <defs>
     <path d="M 33.015625 40.375 
Q 26.375 40.375 22.484375 35.828125 
Q 18.609375 31.296875 18.609375 23.390625 
Q 18.609375 15.53125 22.484375 10.953125 
Q 26.375 6.390625 33.015625 6.390625 
Q 39.65625 6.390625 43.53125 10.953125 
Q 47.40625 15.53125 47.40625 23.390625 
Q 47.40625 31.296875 43.53125 35.828125 
Q 39.65625 40.375 33.015625 40.375 
z
M 52.59375 71.296875 
L 52.59375 62.3125 
Q 48.875 64.0625 45.09375 64.984375 
Q 41.3125 65.921875 37.59375 65.921875 
Q 27.828125 65.921875 22.671875 59.328125 
Q 17.53125 52.734375 16.796875 39.40625 
Q 19.671875 43.65625 24.015625 45.921875 
Q 28.375 48.1875 33.59375 48.1875 
Q 44.578125 48.1875 50.953125 41.515625 
Q 57.328125 34.859375 57.328125 23.390625 
Q 57.328125 12.15625 50.6875 5.359375 
Q 44.046875 -1.421875 33.015625 -1.421875 
Q 20.359375 -1.421875 13.671875 8.265625 
Q 6.984375 17.96875 6.984375 36.375 
Q 6.984375 53.65625 15.1875 63.9375 
Q 23.390625 74.21875 37.203125 74.21875 
Q 40.921875 74.21875 44.703125 73.484375 
Q 48.484375 72.75 52.59375 71.296875 
z
" id="DejaVuSans-54"/>
    </defs>
    <g style="fill:#0000ff;" transform="translate(456.697837 397.27075)scale(0.2 -0.2)">
     <use xlink:href="#DejaVuSans-49"/>
     <use x="63.623047" xlink:href="#DejaVuSans-54"/>
    </g>
   </g>
   <g id="text_20">
    <!-- 6 -->
    <g style="fill:#0000ff;" transform="translate(38.935897 369.55075)scale(0.2 -0.2)">
     <use xlink:href="#DejaVuSans-54"/>
    </g>
   </g>
   <g id="text_21">
    <!-- 5 -->
    <g style="fill:#0000ff;" transform="translate(38.935897 314.11075)scale(0.2 -0.2)">
     <use xlink:href="#DejaVuSans-53"/>
    </g>
   </g>
   <g id="text_22">
    <!-- 4 -->
    <g style="fill:#0000ff;" transform="translate(38.935897 258.67075)scale(0.2 -0.2)">
     <use xlink:href="#DejaVuSans-52"/>
    </g>
   </g>
   <g id="text_23">
    <!-- 3 -->
    <g style="fill:#0000ff;" transform="translate(38.935897 203.23075)scale(0.2 -0.2)">
     <use xlink:href="#DejaVuSans-51"/>
    </g>
   </g>
   <g id="text_24">
    <!-- 2 -->
    <g style="fill:#0000ff;" transform="translate(38.935897 147.79075)scale(0.2 -0.2)">
     <use xlink:href="#DejaVuSans-50"/>
    </g>
   </g>
   <g id="text_25">
    <!-- 1 -->
    <g style="fill:#0000ff;" transform="translate(38.935897 92.35075)scale(0.2 -0.2)">
     <use xlink:href="#DejaVuSans-49"/>
    </g>
   </g>
  </g>
 </g>
 <defs>
  <clipPath id="p411d4e8190">
   <rect height="343.728" width="407.492439" x="67.474397" y="53.568"/>
  </clipPath>
 </defs>
</svg>
