<?xml version="1.0" encoding="utf-8" standalone="no"?>
<!DOCTYPE svg PUBLIC "-//W3C//DTD SVG 1.1//EN"
  "http://www.w3.org/Graphics/SVG/1.1/DTD/svg11.dtd">
<!-- Created with matplotlib (https://matplotlib.org/) -->
<svg height="446.4pt" version="1.1" viewBox="0 0 880.471528 446.4" width="880.471528pt" xmlns="http://www.w3.org/2000/svg" xmlns:xlink="http://www.w3.org/1999/xlink">
 <defs>
  <style type="text/css">
*{stroke-linecap:butt;stroke-linejoin:round;}
  </style>
 </defs>
 <g id="figure_1">
  <g id="patch_1">
   <path d="M 0 446.4 
L 880.471528 446.4 
L 880.471528 0 
L 0 0 
z
" style="fill:#ffffff;"/>
  </g>
  <g id="axes_1">
   <g id="patch_2">
    <path clip-path="url(#pae54ed76e0)" d="M 688.599771 225.432 
L 784.679196 225.432 
L 784.679196 86.832 
L 688.599771 86.832 
z
" style="fill:#cccccc;stroke:#cccccc;stroke-linejoin:miter;"/>
   </g>
   <g id="patch_3">
    <path clip-path="url(#pae54ed76e0)" d="M 1051.650035 225.432 
L 1137.247072 225.432 
L 1137.247072 86.832 
L 1051.650035 86.832 
z
" style="fill:#cccccc;stroke:#cccccc;stroke-linejoin:miter;"/>
   </g>
   <g id="patch_4">
    <path clip-path="url(#pae54ed76e0)" d="M 1375.09105 225.432 
L 1451.34934 225.432 
L 1451.34934 86.832 
L 1375.09105 86.832 
z
" style="fill:#cccccc;stroke:#cccccc;stroke-linejoin:miter;"/>
   </g>
   <g id="patch_5">
    <path clip-path="url(#pae54ed76e0)" d="M 1663.244235 225.432 
L 1731.182648 225.432 
L 1731.182648 86.832 
L 1663.244235 86.832 
z
" style="fill:#cccccc;stroke:#cccccc;stroke-linejoin:miter;"/>
   </g>
   <g id="patch_6">
    <path clip-path="url(#pae54ed76e0)" d="M 2037.614952 364.032 
L 2094.74412 364.032 
L 2094.74412 86.832 
L 2037.614952 86.832 
z
" style="fill:#cccccc;stroke:#cccccc;stroke-linejoin:miter;"/>
   </g>
   <g id="patch_7">
    <path clip-path="url(#pae54ed76e0)" d="M 2352.421945 225.432 
L 2400.461658 225.432 
L 2400.461658 86.832 
L 2352.421945 86.832 
z
" style="fill:#cccccc;stroke:#cccccc;stroke-linejoin:miter;"/>
   </g>
   <g id="patch_8">
    <path clip-path="url(#pae54ed76e0)" d="M 2533.947077 225.432 
L 2576.745596 225.432 
L 2576.745596 86.832 
L 2533.947077 86.832 
z
" style="fill:#cccccc;stroke:#cccccc;stroke-linejoin:miter;"/>
   </g>
   <g id="patch_9">
    <path clip-path="url(#pae54ed76e0)" d="M 2695.667585 225.432 
L 2733.79673 225.432 
L 2733.79673 86.832 
L 2695.667585 86.832 
z
" style="fill:#cccccc;stroke:#cccccc;stroke-linejoin:miter;"/>
   </g>
   <g id="patch_10">
    <path clip-path="url(#pae54ed76e0)" d="M 2839.744178 225.432 
L 2873.713384 225.432 
L 2873.713384 86.832 
L 2839.744178 86.832 
z
" style="fill:#cccccc;stroke:#cccccc;stroke-linejoin:miter;"/>
   </g>
   <g id="matplotlib.axis_1"/>
   <g id="matplotlib.axis_2"/>
   <g id="line2d_1">
    <path clip-path="url(#pae54ed76e0)" d="M 117.80412 364.032 
L 117.80412 86.832 
" style="fill:none;stroke:#000000;stroke-linecap:square;stroke-width:3;"/>
   </g>
   <g id="line2d_2">
    <path clip-path="url(#pae54ed76e0)" d="M 173.24412 364.032 
L 173.24412 86.832 
" style="fill:none;stroke:#000000;stroke-linecap:square;stroke-width:3;"/>
   </g>
   <g id="line2d_3">
    <path clip-path="url(#pae54ed76e0)" d="M 388.935136 364.032 
L 388.935136 86.832 
" style="fill:none;stroke:#000000;stroke-linecap:square;stroke-width:3;"/>
   </g>
   <g id="line2d_4">
    <path clip-path="url(#pae54ed76e0)" d="M 592.520346 364.032 
L 592.520346 86.832 
" style="fill:none;stroke:#000000;stroke-linecap:square;stroke-width:3;"/>
   </g>
   <g id="line2d_5">
    <path clip-path="url(#pae54ed76e0)" d="M 784.679196 364.032 
L 784.679196 86.832 
" style="fill:none;stroke:#000000;stroke-linecap:square;stroke-width:3;"/>
   </g>
   <g id="line2d_6">
    <path clip-path="url(#pae54ed76e0)" d="M 117.80412 364.032 
L 881.471528 364.032 
" style="fill:none;stroke:#808080;stroke-linecap:square;stroke-width:3;"/>
   </g>
   <g id="line2d_7">
    <path clip-path="url(#pae54ed76e0)" d="M 117.80412 308.592 
L 881.471528 308.592 
" style="fill:none;stroke:#808080;stroke-linecap:square;stroke-width:3;"/>
   </g>
   <g id="line2d_8">
    <path clip-path="url(#pae54ed76e0)" d="M 117.80412 253.152 
L 881.471528 253.152 
" style="fill:none;stroke:#808080;stroke-linecap:square;stroke-width:3;"/>
   </g>
   <g id="line2d_9">
    <path clip-path="url(#pae54ed76e0)" d="M 117.80412 197.712 
L 881.471528 197.712 
" style="fill:none;stroke:#808080;stroke-linecap:square;stroke-width:3;"/>
   </g>
   <g id="line2d_10">
    <path clip-path="url(#pae54ed76e0)" d="M 117.80412 142.272 
L 881.471528 142.272 
" style="fill:none;stroke:#808080;stroke-linecap:square;stroke-width:3;"/>
   </g>
   <g id="line2d_11">
    <path clip-path="url(#pae54ed76e0)" d="M 117.80412 86.832 
L 881.471528 86.832 
" style="fill:none;stroke:#808080;stroke-linecap:square;stroke-width:3;"/>
   </g>
   <g id="text_1">
    <!-- -1 -->
    <defs>
     <path d="M 4.890625 31.390625 
L 31.203125 31.390625 
L 31.203125 23.390625 
L 4.890625 23.390625 
z
" id="DejaVuSans-45"/>
     <path d="M 12.40625 8.296875 
L 28.515625 8.296875 
L 28.515625 63.921875 
L 10.984375 60.40625 
L 10.984375 69.390625 
L 28.421875 72.90625 
L 38.28125 72.90625 
L 38.28125 8.296875 
L 54.390625 8.296875 
L 54.390625 0 
L 12.40625 0 
z
" id="DejaVuSans-49"/>
    </defs>
    <g style="fill:#0000ff;" transform="translate(107.833807 397.27075)scale(0.2 -0.2)">
     <use xlink:href="#DejaVuSans-45"/>
     <use x="36.083984" xlink:href="#DejaVuSans-49"/>
    </g>
   </g>
   <g id="text_2">
    <!-- 0 -->
    <defs>
     <path d="M 31.78125 66.40625 
Q 24.171875 66.40625 20.328125 58.90625 
Q 16.5 51.421875 16.5 36.375 
Q 16.5 21.390625 20.328125 13.890625 
Q 24.171875 6.390625 31.78125 6.390625 
Q 39.453125 6.390625 43.28125 13.890625 
Q 47.125 21.390625 47.125 36.375 
Q 47.125 51.421875 43.28125 58.90625 
Q 39.453125 66.40625 31.78125 66.40625 
z
M 31.78125 74.21875 
Q 44.046875 74.21875 50.515625 64.515625 
Q 56.984375 54.828125 56.984375 36.375 
Q 56.984375 17.96875 50.515625 8.265625 
Q 44.046875 -1.421875 31.78125 -1.421875 
Q 19.53125 -1.421875 13.0625 8.265625 
Q 6.59375 17.96875 6.59375 36.375 
Q 6.59375 54.828125 13.0625 64.515625 
Q 19.53125 74.21875 31.78125 74.21875 
z
" id="DejaVuSans-48"/>
    </defs>
    <g style="fill:#0000ff;" transform="translate(166.88162 397.27075)scale(0.2 -0.2)">
     <use xlink:href="#DejaVuSans-48"/>
    </g>
   </g>
   <g id="text_3">
    <!-- 1 -->
    <g style="fill:#0000ff;" transform="translate(382.572636 397.27075)scale(0.2 -0.2)">
     <use xlink:href="#DejaVuSans-49"/>
    </g>
   </g>
   <g id="text_4">
    <!-- 2 -->
    <defs>
     <path d="M 19.1875 8.296875 
L 53.609375 8.296875 
L 53.609375 0 
L 7.328125 0 
L 7.328125 8.296875 
Q 12.9375 14.109375 22.625 23.890625 
Q 32.328125 33.6875 34.8125 36.53125 
Q 39.546875 41.84375 41.421875 45.53125 
Q 43.3125 49.21875 43.3125 52.78125 
Q 43.3125 58.59375 39.234375 62.25 
Q 35.15625 65.921875 28.609375 65.921875 
Q 23.96875 65.921875 18.8125 64.3125 
Q 13.671875 62.703125 7.8125 59.421875 
L 7.8125 69.390625 
Q 13.765625 71.78125 18.9375 73 
Q 24.125 74.21875 28.421875 74.21875 
Q 39.75 74.21875 46.484375 68.546875 
Q 53.21875 62.890625 53.21875 53.421875 
Q 53.21875 48.921875 51.53125 44.890625 
Q 49.859375 40.875 45.40625 35.40625 
Q 44.1875 33.984375 37.640625 27.21875 
Q 31.109375 20.453125 19.1875 8.296875 
z
" id="DejaVuSans-50"/>
    </defs>
    <g style="fill:#0000ff;" transform="translate(586.157846 397.27075)scale(0.2 -0.2)">
     <use xlink:href="#DejaVuSans-50"/>
    </g>
   </g>
   <g id="text_5">
    <!-- 3 -->
    <defs>
     <path d="M 40.578125 39.3125 
Q 47.65625 37.796875 51.625 33 
Q 55.609375 28.21875 55.609375 21.1875 
Q 55.609375 10.40625 48.1875 4.484375 
Q 40.765625 -1.421875 27.09375 -1.421875 
Q 22.515625 -1.421875 17.65625 -0.515625 
Q 12.796875 0.390625 7.625 2.203125 
L 7.625 11.71875 
Q 11.71875 9.328125 16.59375 8.109375 
Q 21.484375 6.890625 26.8125 6.890625 
Q 36.078125 6.890625 40.9375 10.546875 
Q 45.796875 14.203125 45.796875 21.1875 
Q 45.796875 27.640625 41.28125 31.265625 
Q 36.765625 34.90625 28.71875 34.90625 
L 20.21875 34.90625 
L 20.21875 43.015625 
L 29.109375 43.015625 
Q 36.375 43.015625 40.234375 45.921875 
Q 44.09375 48.828125 44.09375 54.296875 
Q 44.09375 59.90625 40.109375 62.90625 
Q 36.140625 65.921875 28.71875 65.921875 
Q 24.65625 65.921875 20.015625 65.03125 
Q 15.375 64.15625 9.8125 62.3125 
L 9.8125 71.09375 
Q 15.4375 72.65625 20.34375 73.4375 
Q 25.25 74.21875 29.59375 74.21875 
Q 40.828125 74.21875 47.359375 69.109375 
Q 53.90625 64.015625 53.90625 55.328125 
Q 53.90625 49.265625 50.4375 45.09375 
Q 46.96875 40.921875 40.578125 39.3125 
z
" id="DejaVuSans-51"/>
    </defs>
    <g style="fill:#0000ff;" transform="translate(778.316696 397.27075)scale(0.2 -0.2)">
     <use xlink:href="#DejaVuSans-51"/>
    </g>
   </g>
   <g id="text_6">
    <!-- 6 -->
    <defs>
     <path d="M 33.015625 40.375 
Q 26.375 40.375 22.484375 35.828125 
Q 18.609375 31.296875 18.609375 23.390625 
Q 18.609375 15.53125 22.484375 10.953125 
Q 26.375 6.390625 33.015625 6.390625 
Q 39.65625 6.390625 43.53125 10.953125 
Q 47.40625 15.53125 47.40625 23.390625 
Q 47.40625 31.296875 43.53125 35.828125 
Q 39.65625 40.375 33.015625 40.375 
z
M 52.59375 71.296875 
L 52.59375 62.3125 
Q 48.875 64.0625 45.09375 64.984375 
Q 41.3125 65.921875 37.59375 65.921875 
Q 27.828125 65.921875 22.671875 59.328125 
Q 17.53125 52.734375 16.796875 39.40625 
Q 19.671875 43.65625 24.015625 45.921875 
Q 28.375 48.1875 33.59375 48.1875 
Q 44.578125 48.1875 50.953125 41.515625 
Q 57.328125 34.859375 57.328125 23.390625 
Q 57.328125 12.15625 50.6875 5.359375 
Q 44.046875 -1.421875 33.015625 -1.421875 
Q 20.359375 -1.421875 13.671875 8.265625 
Q 6.984375 17.96875 6.984375 36.375 
Q 6.984375 53.65625 15.1875 63.9375 
Q 23.390625 74.21875 37.203125 74.21875 
Q 40.921875 74.21875 44.703125 73.484375 
Q 48.484375 72.75 52.59375 71.296875 
z
" id="DejaVuSans-54"/>
    </defs>
    <g style="fill:#0000ff;" transform="translate(83.72162 369.55075)scale(0.2 -0.2)">
     <use xlink:href="#DejaVuSans-54"/>
    </g>
   </g>
   <g id="text_7">
    <!-- 5 -->
    <defs>
     <path d="M 10.796875 72.90625 
L 49.515625 72.90625 
L 49.515625 64.59375 
L 19.828125 64.59375 
L 19.828125 46.734375 
Q 21.96875 47.46875 24.109375 47.828125 
Q 26.265625 48.1875 28.421875 48.1875 
Q 40.625 48.1875 47.75 41.5 
Q 54.890625 34.8125 54.890625 23.390625 
Q 54.890625 11.625 47.5625 5.09375 
Q 40.234375 -1.421875 26.90625 -1.421875 
Q 22.3125 -1.421875 17.546875 -0.640625 
Q 12.796875 0.140625 7.71875 1.703125 
L 7.71875 11.625 
Q 12.109375 9.234375 16.796875 8.0625 
Q 21.484375 6.890625 26.703125 6.890625 
Q 35.15625 6.890625 40.078125 11.328125 
Q 45.015625 15.765625 45.015625 23.390625 
Q 45.015625 31 40.078125 35.4375 
Q 35.15625 39.890625 26.703125 39.890625 
Q 22.75 39.890625 18.8125 39.015625 
Q 14.890625 38.140625 10.796875 36.28125 
z
" id="DejaVuSans-53"/>
    </defs>
    <g style="fill:#0000ff;" transform="translate(83.72162 314.11075)scale(0.2 -0.2)">
     <use xlink:href="#DejaVuSans-53"/>
    </g>
   </g>
   <g id="text_8">
    <!-- 4 -->
    <defs>
     <path d="M 37.796875 64.3125 
L 12.890625 25.390625 
L 37.796875 25.390625 
z
M 35.203125 72.90625 
L 47.609375 72.90625 
L 47.609375 25.390625 
L 58.015625 25.390625 
L 58.015625 17.1875 
L 47.609375 17.1875 
L 47.609375 0 
L 37.796875 0 
L 37.796875 17.1875 
L 4.890625 17.1875 
L 4.890625 26.703125 
z
" id="DejaVuSans-52"/>
    </defs>
    <g style="fill:#0000ff;" transform="translate(83.72162 258.67075)scale(0.2 -0.2)">
     <use xlink:href="#DejaVuSans-52"/>
    </g>
   </g>
   <g id="text_9">
    <!-- 3 -->
    <g style="fill:#0000ff;" transform="translate(83.72162 203.23075)scale(0.2 -0.2)">
     <use xlink:href="#DejaVuSans-51"/>
    </g>
   </g>
   <g id="text_10">
    <!-- 2 -->
    <g style="fill:#0000ff;" transform="translate(83.72162 147.79075)scale(0.2 -0.2)">
     <use xlink:href="#DejaVuSans-50"/>
    </g>
   </g>
   <g id="text_11">
    <!-- 1 -->
    <g style="fill:#0000ff;" transform="translate(83.72162 92.35075)scale(0.2 -0.2)">
     <use xlink:href="#DejaVuSans-49"/>
    </g>
   </g>
   <g id="line2d_12">
    <path clip-path="url(#pae54ed76e0)" d="M 117.80412 364.032 
L 117.80412 86.832 
" style="fill:none;stroke:#000000;stroke-linecap:square;stroke-width:10;"/>
   </g>
   <g id="line2d_13">
    <path clip-path="url(#pae54ed76e0)" style="fill:none;stroke:#000000;stroke-linecap:square;stroke-width:5;"/>
   </g>
   <g id="patch_11">
    <path clip-path="url(#pae54ed76e0)" d="M 145.52412 330.768 
C 151.405264 330.768 157.046323 328.431397 161.20492 324.2728 
C 165.363517 320.114203 167.70012 314.473144 167.70012 308.592 
C 167.70012 302.710856 165.363517 297.069797 161.20492 292.9112 
C 157.046323 288.752603 151.405264 286.416 145.52412 286.416 
C 139.642976 286.416 134.001917 288.752603 129.84332 292.9112 
C 125.684723 297.069797 123.34812 302.710856 123.34812 308.592 
C 123.34812 314.473144 125.684723 320.114203 129.84332 324.2728 
C 134.001917 328.431397 139.642976 330.768 145.52412 330.768 
z
" style="fill:#ff0000;stroke:#ff0000;stroke-linejoin:miter;"/>
   </g>
   <g id="patch_12">
    <path clip-path="url(#pae54ed76e0)" d="M 145.52412 275.328 
C 151.405264 275.328 157.046323 272.991397 161.20492 268.8328 
C 165.363517 264.674203 167.70012 259.033144 167.70012 253.152 
C 167.70012 247.270856 165.363517 241.629797 161.20492 237.4712 
C 157.046323 233.312603 151.405264 230.976 145.52412 230.976 
C 139.642976 230.976 134.001917 233.312603 129.84332 237.4712 
C 125.684723 241.629797 123.34812 247.270856 123.34812 253.152 
C 123.34812 259.033144 125.684723 264.674203 129.84332 268.8328 
C 134.001917 272.991397 139.642976 275.328 145.52412 275.328 
z
" style="fill:#ff0000;stroke:#ff0000;stroke-linejoin:miter;"/>
   </g>
   <g id="patch_13">
    <path clip-path="url(#pae54ed76e0)" d="M 145.52412 219.888 
C 151.405264 219.888 157.046323 217.551397 161.20492 213.3928 
C 165.363517 209.234203 167.70012 203.593144 167.70012 197.712 
C 167.70012 191.830856 165.363517 186.189797 161.20492 182.0312 
C 157.046323 177.872603 151.405264 175.536 145.52412 175.536 
C 139.642976 175.536 134.001917 177.872603 129.84332 182.0312 
C 125.684723 186.189797 123.34812 191.830856 123.34812 197.712 
C 123.34812 203.593144 125.684723 209.234203 129.84332 213.3928 
C 134.001917 217.551397 139.642976 219.888 145.52412 219.888 
z
" style="fill:#ff0000;stroke:#ff0000;stroke-linejoin:miter;"/>
   </g>
   <g id="patch_14">
    <path clip-path="url(#pae54ed76e0)" d="M 281.089628 386.208 
C 286.970772 386.208 292.611831 383.871397 296.770428 379.7128 
C 300.929025 375.554203 303.265628 369.913144 303.265628 364.032 
C 303.265628 358.150856 300.929025 352.509797 296.770428 348.3512 
C 292.611831 344.192603 286.970772 341.856 281.089628 341.856 
C 275.208484 341.856 269.567425 344.192603 265.408828 348.3512 
C 261.250231 352.509797 258.913628 358.150856 258.913628 364.032 
C 258.913628 369.913144 261.250231 375.554203 265.408828 379.7128 
C 269.567425 383.871397 275.208484 386.208 281.089628 386.208 
z
" style="fill:#ff0000;stroke:#ff0000;stroke-linejoin:miter;"/>
   </g>
   <g id="patch_15">
    <path clip-path="url(#pae54ed76e0)" d="M 281.089628 330.768 
C 286.970772 330.768 292.611831 328.431397 296.770428 324.2728 
C 300.929025 320.114203 303.265628 314.473144 303.265628 308.592 
C 303.265628 302.710856 300.929025 297.069797 296.770428 292.9112 
C 292.611831 288.752603 286.970772 286.416 281.089628 286.416 
C 275.208484 286.416 269.567425 288.752603 265.408828 292.9112 
C 261.250231 297.069797 258.913628 302.710856 258.913628 308.592 
C 258.913628 314.473144 261.250231 320.114203 265.408828 324.2728 
C 269.567425 328.431397 275.208484 330.768 281.089628 330.768 
z
" style="fill:#ff0000;stroke:#ff0000;stroke-linejoin:miter;"/>
   </g>
   <g id="patch_16">
    <path clip-path="url(#pae54ed76e0)" d="M 281.089628 275.328 
C 286.970772 275.328 292.611831 272.991397 296.770428 268.8328 
C 300.929025 264.674203 303.265628 259.033144 303.265628 253.152 
C 303.265628 247.270856 300.929025 241.629797 296.770428 237.4712 
C 292.611831 233.312603 286.970772 230.976 281.089628 230.976 
C 275.208484 230.976 269.567425 233.312603 265.408828 237.4712 
C 261.250231 241.629797 258.913628 247.270856 258.913628 253.152 
C 258.913628 259.033144 261.250231 264.674203 265.408828 268.8328 
C 269.567425 272.991397 275.208484 275.328 281.089628 275.328 
z
" style="fill:#ff0000;stroke:#ff0000;stroke-linejoin:miter;"/>
   </g>
   <g id="patch_17">
    <path clip-path="url(#pae54ed76e0)" d="M 281.089628 164.448 
C 286.970772 164.448 292.611831 162.111397 296.770428 157.9528 
C 300.929025 153.794203 303.265628 148.153144 303.265628 142.272 
C 303.265628 136.390856 300.929025 130.749797 296.770428 126.5912 
C 292.611831 122.432603 286.970772 120.096 281.089628 120.096 
C 275.208484 120.096 269.567425 122.432603 265.408828 126.5912 
C 261.250231 130.749797 258.913628 136.390856 258.913628 142.272 
C 258.913628 148.153144 261.250231 153.794203 265.408828 157.9528 
C 269.567425 162.111397 275.208484 164.448 281.089628 164.448 
z
" style="fill:#ff0000;stroke:#ff0000;stroke-linejoin:miter;"/>
   </g>
   <g id="patch_18">
    <path clip-path="url(#pae54ed76e0)" d="M 281.089628 109.008 
C 286.970772 109.008 292.611831 106.671397 296.770428 102.5128 
C 300.929025 98.354203 303.265628 92.713144 303.265628 86.832 
C 303.265628 80.950856 300.929025 75.309797 296.770428 71.1512 
C 292.611831 66.992603 286.970772 64.656 281.089628 64.656 
C 275.208484 64.656 269.567425 66.992603 265.408828 71.1512 
C 261.250231 75.309797 258.913628 80.950856 258.913628 86.832 
C 258.913628 92.713144 261.250231 98.354203 265.408828 102.5128 
C 269.567425 106.671397 275.208484 109.008 281.089628 109.008 
z
" style="fill:#ff0000;stroke:#ff0000;stroke-linejoin:miter;"/>
   </g>
   <g id="patch_19">
    <path clip-path="url(#pae54ed76e0)" d="M 490.727741 219.888 
C 496.608885 219.888 502.249944 217.551397 506.408541 213.3928 
C 510.567138 209.234203 512.903741 203.593144 512.903741 197.712 
C 512.903741 191.830856 510.567138 186.189797 506.408541 182.0312 
C 502.249944 177.872603 496.608885 175.536 490.727741 175.536 
C 484.846597 175.536 479.205538 177.872603 475.046941 182.0312 
C 470.888344 186.189797 468.551741 191.830856 468.551741 197.712 
C 468.551741 203.593144 470.888344 209.234203 475.046941 213.3928 
C 479.205538 217.551397 484.846597 219.888 490.727741 219.888 
z
" style="fill:#ff0000;stroke:#ff0000;stroke-linejoin:miter;"/>
   </g>
   <g id="patch_20">
    <path clip-path="url(#pae54ed76e0)" d="M 688.599771 386.208 
C 694.480915 386.208 700.121974 383.871397 704.280571 379.7128 
C 708.439168 375.554203 710.775771 369.913144 710.775771 364.032 
C 710.775771 358.150856 708.439168 352.509797 704.280571 348.3512 
C 700.121974 344.192603 694.480915 341.856 688.599771 341.856 
C 682.718627 341.856 677.077568 344.192603 672.918971 348.3512 
C 668.760374 352.509797 666.423771 358.150856 666.423771 364.032 
C 666.423771 369.913144 668.760374 375.554203 672.918971 379.7128 
C 677.077568 383.871397 682.718627 386.208 688.599771 386.208 
z
" style="fill:#ff0000;stroke:#ff0000;stroke-linejoin:miter;"/>
   </g>
   <g id="patch_21">
    <path clip-path="url(#pae54ed76e0)" d="M 688.599771 330.768 
C 694.480915 330.768 700.121974 328.431397 704.280571 324.2728 
C 708.439168 320.114203 710.775771 314.473144 710.775771 308.592 
C 710.775771 302.710856 708.439168 297.069797 704.280571 292.9112 
C 700.121974 288.752603 694.480915 286.416 688.599771 286.416 
C 682.718627 286.416 677.077568 288.752603 672.918971 292.9112 
C 668.760374 297.069797 666.423771 302.710856 666.423771 308.592 
C 666.423771 314.473144 668.760374 320.114203 672.918971 324.2728 
C 677.077568 328.431397 682.718627 330.768 688.599771 330.768 
z
" style="fill:#ff0000;stroke:#ff0000;stroke-linejoin:miter;"/>
   </g>
   <g id="patch_22">
    <path clip-path="url(#pae54ed76e0)" d="M 688.599771 275.328 
C 694.480915 275.328 700.121974 272.991397 704.280571 268.8328 
C 708.439168 264.674203 710.775771 259.033144 710.775771 253.152 
C 710.775771 247.270856 708.439168 241.629797 704.280571 237.4712 
C 700.121974 233.312603 694.480915 230.976 688.599771 230.976 
C 682.718627 230.976 677.077568 233.312603 672.918971 237.4712 
C 668.760374 241.629797 666.423771 247.270856 666.423771 253.152 
C 666.423771 259.033144 668.760374 264.674203 672.918971 268.8328 
C 677.077568 272.991397 682.718627 275.328 688.599771 275.328 
z
" style="fill:#ff0000;stroke:#ff0000;stroke-linejoin:miter;"/>
   </g>
   <g id="patch_23">
    <path clip-path="url(#pae54ed76e0)" d="M 688.599771 219.888 
C 694.480915 219.888 700.121974 217.551397 704.280571 213.3928 
C 708.439168 209.234203 710.775771 203.593144 710.775771 197.712 
C 710.775771 191.830856 708.439168 186.189797 704.280571 182.0312 
C 700.121974 177.872603 694.480915 175.536 688.599771 175.536 
C 682.718627 175.536 677.077568 177.872603 672.918971 182.0312 
C 668.760374 186.189797 666.423771 191.830856 666.423771 197.712 
C 666.423771 203.593144 668.760374 209.234203 672.918971 213.3928 
C 677.077568 217.551397 682.718627 219.888 688.599771 219.888 
z
" style="fill:#ff0000;stroke:#ff0000;stroke-linejoin:miter;"/>
   </g>
   <g id="patch_24">
    <path clip-path="url(#pae54ed76e0)" d="M 688.599771 164.448 
C 694.480915 164.448 700.121974 162.111397 704.280571 157.9528 
C 708.439168 153.794203 710.775771 148.153144 710.775771 142.272 
C 710.775771 136.390856 708.439168 130.749797 704.280571 126.5912 
C 700.121974 122.432603 694.480915 120.096 688.599771 120.096 
C 682.718627 120.096 677.077568 122.432603 672.918971 126.5912 
C 668.760374 130.749797 666.423771 136.390856 666.423771 142.272 
C 666.423771 148.153144 668.760374 153.794203 672.918971 157.9528 
C 677.077568 162.111397 682.718627 164.448 688.599771 164.448 
z
" style="fill:#ff0000;stroke:#ff0000;stroke-linejoin:miter;"/>
   </g>
   <g id="patch_25">
    <path clip-path="url(#pae54ed76e0)" d="M 688.599771 109.008 
C 694.480915 109.008 700.121974 106.671397 704.280571 102.5128 
C 708.439168 98.354203 710.775771 92.713144 710.775771 86.832 
C 710.775771 80.950856 708.439168 75.309797 704.280571 71.1512 
C 700.121974 66.992603 694.480915 64.656 688.599771 64.656 
C 682.718627 64.656 677.077568 66.992603 672.918971 71.1512 
C 668.760374 75.309797 666.423771 80.950856 666.423771 86.832 
C 666.423771 92.713144 668.760374 98.354203 672.918971 102.5128 
C 677.077568 106.671397 682.718627 109.008 688.599771 109.008 
z
" style="fill:#ff0000;stroke:#ff0000;stroke-linejoin:miter;"/>
   </g>
   <g id="text_12">
    <!-- A1 -->
    <defs>
     <path d="M 34.1875 63.1875 
L 20.796875 26.90625 
L 47.609375 26.90625 
z
M 28.609375 72.90625 
L 39.796875 72.90625 
L 67.578125 0 
L 57.328125 0 
L 50.6875 18.703125 
L 17.828125 18.703125 
L 11.1875 0 
L 0.78125 0 
z
" id="DejaVuSans-65"/>
    </defs>
    <g style="fill:#ffffff;" transform="translate(134.96162 313.007)scale(0.16 -0.16)">
     <use xlink:href="#DejaVuSans-65"/>
     <use x="68.408203" xlink:href="#DejaVuSans-49"/>
    </g>
   </g>
   <g id="text_13">
    <!-- D2 -->
    <defs>
     <path d="M 19.671875 64.796875 
L 19.671875 8.109375 
L 31.59375 8.109375 
Q 46.6875 8.109375 53.6875 14.9375 
Q 60.6875 21.78125 60.6875 36.53125 
Q 60.6875 51.171875 53.6875 57.984375 
Q 46.6875 64.796875 31.59375 64.796875 
z
M 9.8125 72.90625 
L 30.078125 72.90625 
Q 51.265625 72.90625 61.171875 64.09375 
Q 71.09375 55.28125 71.09375 36.53125 
Q 71.09375 17.671875 61.125 8.828125 
Q 51.171875 0 30.078125 0 
L 9.8125 0 
z
" id="DejaVuSans-68"/>
    </defs>
    <g style="fill:#ffffff;" transform="translate(134.27412 257.567)scale(0.16 -0.16)">
     <use xlink:href="#DejaVuSans-68"/>
     <use x="77.001953" xlink:href="#DejaVuSans-50"/>
    </g>
   </g>
   <g id="text_14">
    <!-- G2 -->
    <defs>
     <path d="M 59.515625 10.40625 
L 59.515625 29.984375 
L 43.40625 29.984375 
L 43.40625 38.09375 
L 69.28125 38.09375 
L 69.28125 6.78125 
Q 63.578125 2.734375 56.6875 0.65625 
Q 49.8125 -1.421875 42 -1.421875 
Q 24.90625 -1.421875 15.25 8.5625 
Q 5.609375 18.5625 5.609375 36.375 
Q 5.609375 54.25 15.25 64.234375 
Q 24.90625 74.21875 42 74.21875 
Q 49.125 74.21875 55.546875 72.453125 
Q 61.96875 70.703125 67.390625 67.28125 
L 67.390625 56.78125 
Q 61.921875 61.421875 55.765625 63.765625 
Q 49.609375 66.109375 42.828125 66.109375 
Q 29.4375 66.109375 22.71875 58.640625 
Q 16.015625 51.171875 16.015625 36.375 
Q 16.015625 21.625 22.71875 14.15625 
Q 29.4375 6.6875 42.828125 6.6875 
Q 48.046875 6.6875 52.140625 7.59375 
Q 56.25 8.5 59.515625 10.40625 
z
" id="DejaVuSans-71"/>
    </defs>
    <g style="fill:#ffffff;" transform="translate(134.23537 202.127)scale(0.16 -0.16)">
     <use xlink:href="#DejaVuSans-71"/>
     <use x="77.490234" xlink:href="#DejaVuSans-50"/>
    </g>
   </g>
   <g id="text_15">
    <!-- F1 -->
    <defs>
     <path d="M 9.8125 72.90625 
L 51.703125 72.90625 
L 51.703125 64.59375 
L 19.671875 64.59375 
L 19.671875 43.109375 
L 48.578125 43.109375 
L 48.578125 34.8125 
L 19.671875 34.8125 
L 19.671875 0 
L 9.8125 0 
z
" id="DejaVuSans-70"/>
    </defs>
    <g style="fill:#ffffff;" transform="translate(271.398378 368.447)scale(0.16 -0.16)">
     <use xlink:href="#DejaVuSans-70"/>
     <use x="57.519531" xlink:href="#DejaVuSans-49"/>
    </g>
   </g>
   <g id="text_16">
    <!-- Bb1 -->
    <defs>
     <path d="M 19.671875 34.8125 
L 19.671875 8.109375 
L 35.5 8.109375 
Q 43.453125 8.109375 47.28125 11.40625 
Q 51.125 14.703125 51.125 21.484375 
Q 51.125 28.328125 47.28125 31.5625 
Q 43.453125 34.8125 35.5 34.8125 
z
M 19.671875 64.796875 
L 19.671875 42.828125 
L 34.28125 42.828125 
Q 41.5 42.828125 45.03125 45.53125 
Q 48.578125 48.25 48.578125 53.8125 
Q 48.578125 59.328125 45.03125 62.0625 
Q 41.5 64.796875 34.28125 64.796875 
z
M 9.8125 72.90625 
L 35.015625 72.90625 
Q 46.296875 72.90625 52.390625 68.21875 
Q 58.5 63.53125 58.5 54.890625 
Q 58.5 48.1875 55.375 44.234375 
Q 52.25 40.28125 46.1875 39.3125 
Q 53.46875 37.75 57.5 32.78125 
Q 61.53125 27.828125 61.53125 20.40625 
Q 61.53125 10.640625 54.890625 5.3125 
Q 48.25 0 35.984375 0 
L 9.8125 0 
z
" id="DejaVuSans-66"/>
     <path d="M 48.6875 27.296875 
Q 48.6875 37.203125 44.609375 42.84375 
Q 40.53125 48.484375 33.40625 48.484375 
Q 26.265625 48.484375 22.1875 42.84375 
Q 18.109375 37.203125 18.109375 27.296875 
Q 18.109375 17.390625 22.1875 11.75 
Q 26.265625 6.109375 33.40625 6.109375 
Q 40.53125 6.109375 44.609375 11.75 
Q 48.6875 17.390625 48.6875 27.296875 
z
M 18.109375 46.390625 
Q 20.953125 51.265625 25.265625 53.625 
Q 29.59375 56 35.59375 56 
Q 45.5625 56 51.78125 48.09375 
Q 58.015625 40.1875 58.015625 27.296875 
Q 58.015625 14.40625 51.78125 6.484375 
Q 45.5625 -1.421875 35.59375 -1.421875 
Q 29.59375 -1.421875 25.265625 0.953125 
Q 20.953125 3.328125 18.109375 8.203125 
L 18.109375 0 
L 9.078125 0 
L 9.078125 75.984375 
L 18.109375 75.984375 
z
" id="DejaVuSans-98"/>
    </defs>
    <g style="fill:#ffffff;" transform="translate(265.432128 313.007)scale(0.16 -0.16)">
     <use xlink:href="#DejaVuSans-66"/>
     <use x="68.603516" xlink:href="#DejaVuSans-98"/>
     <use x="132.080078" xlink:href="#DejaVuSans-49"/>
    </g>
   </g>
   <g id="text_17">
    <!-- Eb2 -->
    <defs>
     <path d="M 9.8125 72.90625 
L 55.90625 72.90625 
L 55.90625 64.59375 
L 19.671875 64.59375 
L 19.671875 43.015625 
L 54.390625 43.015625 
L 54.390625 34.71875 
L 19.671875 34.71875 
L 19.671875 8.296875 
L 56.78125 8.296875 
L 56.78125 0 
L 9.8125 0 
z
" id="DejaVuSans-69"/>
    </defs>
    <g style="fill:#ffffff;" transform="translate(265.865878 257.567)scale(0.16 -0.16)">
     <use xlink:href="#DejaVuSans-69"/>
     <use x="63.183594" xlink:href="#DejaVuSans-98"/>
     <use x="126.660156" xlink:href="#DejaVuSans-50"/>
    </g>
   </g>
   <g id="text_18">
    <!-- C3 -->
    <defs>
     <path d="M 64.40625 67.28125 
L 64.40625 56.890625 
Q 59.421875 61.53125 53.78125 63.8125 
Q 48.140625 66.109375 41.796875 66.109375 
Q 29.296875 66.109375 22.65625 58.46875 
Q 16.015625 50.828125 16.015625 36.375 
Q 16.015625 21.96875 22.65625 14.328125 
Q 29.296875 6.6875 41.796875 6.6875 
Q 48.140625 6.6875 53.78125 8.984375 
Q 59.421875 11.28125 64.40625 15.921875 
L 64.40625 5.609375 
Q 59.234375 2.09375 53.4375 0.328125 
Q 47.65625 -1.421875 41.21875 -1.421875 
Q 24.65625 -1.421875 15.125 8.703125 
Q 5.609375 18.84375 5.609375 36.375 
Q 5.609375 53.953125 15.125 64.078125 
Q 24.65625 74.21875 41.21875 74.21875 
Q 47.75 74.21875 53.53125 72.484375 
Q 59.328125 70.75 64.40625 67.28125 
z
" id="DejaVuSans-67"/>
    </defs>
    <g style="fill:#ffffff;" transform="translate(270.413378 146.687)scale(0.16 -0.16)">
     <use xlink:href="#DejaVuSans-67"/>
     <use x="69.824219" xlink:href="#DejaVuSans-51"/>
    </g>
   </g>
   <g id="text_19">
    <!-- F3 -->
    <g style="fill:#ffffff;" transform="translate(271.398378 91.247)scale(0.16 -0.16)">
     <use xlink:href="#DejaVuSans-70"/>
     <use x="57.519531" xlink:href="#DejaVuSans-51"/>
    </g>
   </g>
   <g id="text_20">
    <!-- A2 -->
    <g style="fill:#ffffff;" transform="translate(480.165241 202.127)scale(0.16 -0.16)">
     <use xlink:href="#DejaVuSans-65"/>
     <use x="68.408203" xlink:href="#DejaVuSans-50"/>
    </g>
   </g>
   <g id="text_21">
    <!-- G1 -->
    <g style="fill:#ffffff;" transform="translate(677.311021 368.447)scale(0.16 -0.16)">
     <use xlink:href="#DejaVuSans-71"/>
     <use x="77.490234" xlink:href="#DejaVuSans-49"/>
    </g>
   </g>
   <g id="text_22">
    <!-- C2 -->
    <g style="fill:#ffffff;" transform="translate(677.923521 313.007)scale(0.16 -0.16)">
     <use xlink:href="#DejaVuSans-67"/>
     <use x="69.824219" xlink:href="#DejaVuSans-50"/>
    </g>
   </g>
   <g id="text_23">
    <!-- F2 -->
    <g style="fill:#ffffff;" transform="translate(678.908521 257.567)scale(0.16 -0.16)">
     <use xlink:href="#DejaVuSans-70"/>
     <use x="57.519531" xlink:href="#DejaVuSans-50"/>
    </g>
   </g>
   <g id="text_24">
    <!-- Bb2 -->
    <g style="fill:#ffffff;" transform="translate(672.942271 202.127)scale(0.16 -0.16)">
     <use xlink:href="#DejaVuSans-66"/>
     <use x="68.603516" xlink:href="#DejaVuSans-98"/>
     <use x="132.080078" xlink:href="#DejaVuSans-50"/>
    </g>
   </g>
   <g id="text_25">
    <!-- D3 -->
    <g style="fill:#ffffff;" transform="translate(677.349771 146.687)scale(0.16 -0.16)">
     <use xlink:href="#DejaVuSans-68"/>
     <use x="77.001953" xlink:href="#DejaVuSans-51"/>
    </g>
   </g>
   <g id="text_26">
    <!-- G3 -->
    <g style="fill:#ffffff;" transform="translate(677.311021 91.247)scale(0.16 -0.16)">
     <use xlink:href="#DejaVuSans-71"/>
     <use x="77.490234" xlink:href="#DejaVuSans-51"/>
    </g>
   </g>
  </g>
 </g>
 <defs>
  <clipPath id="pae54ed76e0">
   <rect height="343.728" width="677.963076" x="112.26012" y="53.568"/>
  </clipPath>
 </defs>
</svg>
