<?xml version="1.0" encoding="utf-8" standalone="no"?>
<!DOCTYPE svg PUBLIC "-//W3C//DTD SVG 1.1//EN"
  "http://www.w3.org/Graphics/SVG/1.1/DTD/svg11.dtd">
<!-- Created with matplotlib (https://matplotlib.org/) -->
<svg height="446.4pt" version="1.1" viewBox="0 0 831.61146 446.4" width="831.61146pt" xmlns="http://www.w3.org/2000/svg" xmlns:xlink="http://www.w3.org/1999/xlink">
 <defs>
  <style type="text/css">
*{stroke-linecap:butt;stroke-linejoin:round;}
  </style>
 </defs>
 <g id="figure_1">
  <g id="patch_1">
   <path d="M 0 446.4 
L 831.61146 446.4 
L 831.61146 0 
L 0 0 
z
" style="fill:#ffffff;"/>
  </g>
  <g id="axes_1">
   <g id="patch_2">
    <path clip-path="url(#p43af9a706a)" d="M -165.878766 225.432 
L -69.799341 225.432 
L -69.799341 86.832 
L -165.878766 86.832 
z
" style="fill:#cccccc;stroke:#cccccc;stroke-linejoin:miter;"/>
   </g>
   <g id="patch_3">
    <path clip-path="url(#p43af9a706a)" d="M 197.171498 225.432 
L 282.768534 225.432 
L 282.768534 86.832 
L 197.171498 86.832 
z
" style="fill:#cccccc;stroke:#cccccc;stroke-linejoin:miter;"/>
   </g>
   <g id="patch_4">
    <path clip-path="url(#p43af9a706a)" d="M 520.612513 225.432 
L 596.870803 225.432 
L 596.870803 86.832 
L 520.612513 86.832 
z
" style="fill:#cccccc;stroke:#cccccc;stroke-linejoin:miter;"/>
   </g>
   <g id="patch_5">
    <path clip-path="url(#p43af9a706a)" d="M 808.765698 225.432 
L 876.704111 225.432 
L 876.704111 86.832 
L 808.765698 86.832 
z
" style="fill:#cccccc;stroke:#cccccc;stroke-linejoin:miter;"/>
   </g>
   <g id="patch_6">
    <path clip-path="url(#p43af9a706a)" d="M 1183.136415 364.032 
L 1240.265582 364.032 
L 1240.265582 86.832 
L 1183.136415 86.832 
z
" style="fill:#cccccc;stroke:#cccccc;stroke-linejoin:miter;"/>
   </g>
   <g id="patch_7">
    <path clip-path="url(#p43af9a706a)" d="M 1497.943408 225.432 
L 1545.983121 225.432 
L 1545.983121 86.832 
L 1497.943408 86.832 
z
" style="fill:#cccccc;stroke:#cccccc;stroke-linejoin:miter;"/>
   </g>
   <g id="patch_8">
    <path clip-path="url(#p43af9a706a)" d="M 1679.46854 225.432 
L 1722.267058 225.432 
L 1722.267058 86.832 
L 1679.46854 86.832 
z
" style="fill:#cccccc;stroke:#cccccc;stroke-linejoin:miter;"/>
   </g>
   <g id="patch_9">
    <path clip-path="url(#p43af9a706a)" d="M 1841.189047 225.432 
L 1879.318193 225.432 
L 1879.318193 86.832 
L 1841.189047 86.832 
z
" style="fill:#cccccc;stroke:#cccccc;stroke-linejoin:miter;"/>
   </g>
   <g id="patch_10">
    <path clip-path="url(#p43af9a706a)" d="M 1985.26564 225.432 
L 2019.234847 225.432 
L 2019.234847 86.832 
L 1985.26564 86.832 
z
" style="fill:#cccccc;stroke:#cccccc;stroke-linejoin:miter;"/>
   </g>
   <g id="matplotlib.axis_1"/>
   <g id="matplotlib.axis_2"/>
   <g id="line2d_1">
    <path clip-path="url(#p43af9a706a)" d="M 111.574461 364.032 
L 111.574461 86.832 
" style="fill:none;stroke:#000000;stroke-linecap:square;stroke-width:3;"/>
   </g>
   <g id="line2d_2">
    <path clip-path="url(#p43af9a706a)" d="M 282.768534 364.032 
L 282.768534 86.832 
" style="fill:none;stroke:#000000;stroke-linecap:square;stroke-width:3;"/>
   </g>
   <g id="line2d_3">
    <path clip-path="url(#p43af9a706a)" d="M 444.354222 364.032 
L 444.354222 86.832 
" style="fill:none;stroke:#000000;stroke-linecap:square;stroke-width:3;"/>
   </g>
   <g id="line2d_4">
    <path clip-path="url(#p43af9a706a)" d="M 596.870803 364.032 
L 596.870803 86.832 
" style="fill:none;stroke:#000000;stroke-linecap:square;stroke-width:3;"/>
   </g>
   <g id="line2d_5">
    <path clip-path="url(#p43af9a706a)" d="M 740.827285 364.032 
L 740.827285 86.832 
" style="fill:none;stroke:#000000;stroke-linecap:square;stroke-width:3;"/>
   </g>
   <g id="line2d_6">
    <path clip-path="url(#p43af9a706a)" d="M -1 364.032 
L 832.61146 364.032 
" style="fill:none;stroke:#808080;stroke-linecap:square;stroke-width:3;"/>
   </g>
   <g id="line2d_7">
    <path clip-path="url(#p43af9a706a)" d="M -1 308.592 
L 832.61146 308.592 
" style="fill:none;stroke:#808080;stroke-linecap:square;stroke-width:3;"/>
   </g>
   <g id="line2d_8">
    <path clip-path="url(#p43af9a706a)" d="M -1 253.152 
L 832.61146 253.152 
" style="fill:none;stroke:#808080;stroke-linecap:square;stroke-width:3;"/>
   </g>
   <g id="line2d_9">
    <path clip-path="url(#p43af9a706a)" d="M -1 197.712 
L 832.61146 197.712 
" style="fill:none;stroke:#808080;stroke-linecap:square;stroke-width:3;"/>
   </g>
   <g id="line2d_10">
    <path clip-path="url(#p43af9a706a)" d="M -1 142.272 
L 832.61146 142.272 
" style="fill:none;stroke:#808080;stroke-linecap:square;stroke-width:3;"/>
   </g>
   <g id="line2d_11">
    <path clip-path="url(#p43af9a706a)" d="M -1 86.832 
L 832.61146 86.832 
" style="fill:none;stroke:#808080;stroke-linecap:square;stroke-width:3;"/>
   </g>
   <g id="text_1">
    <!-- 4 -->
    <defs>
     <path d="M 37.796875 64.3125 
L 12.890625 25.390625 
L 37.796875 25.390625 
z
M 35.203125 72.90625 
L 47.609375 72.90625 
L 47.609375 25.390625 
L 58.015625 25.390625 
L 58.015625 17.1875 
L 47.609375 17.1875 
L 47.609375 0 
L 37.796875 0 
L 37.796875 17.1875 
L 4.890625 17.1875 
L 4.890625 26.703125 
z
" id="DejaVuSans-52"/>
    </defs>
    <g style="fill:#0000ff;" transform="translate(105.211961 397.27075)scale(0.2 -0.2)">
     <use xlink:href="#DejaVuSans-52"/>
    </g>
   </g>
   <g id="text_2">
    <!-- 5 -->
    <defs>
     <path d="M 10.796875 72.90625 
L 49.515625 72.90625 
L 49.515625 64.59375 
L 19.828125 64.59375 
L 19.828125 46.734375 
Q 21.96875 47.46875 24.109375 47.828125 
Q 26.265625 48.1875 28.421875 48.1875 
Q 40.625 48.1875 47.75 41.5 
Q 54.890625 34.8125 54.890625 23.390625 
Q 54.890625 11.625 47.5625 5.09375 
Q 40.234375 -1.421875 26.90625 -1.421875 
Q 22.3125 -1.421875 17.546875 -0.640625 
Q 12.796875 0.140625 7.71875 1.703125 
L 7.71875 11.625 
Q 12.109375 9.234375 16.796875 8.0625 
Q 21.484375 6.890625 26.703125 6.890625 
Q 35.15625 6.890625 40.078125 11.328125 
Q 45.015625 15.765625 45.015625 23.390625 
Q 45.015625 31 40.078125 35.4375 
Q 35.15625 39.890625 26.703125 39.890625 
Q 22.75 39.890625 18.8125 39.015625 
Q 14.890625 38.140625 10.796875 36.28125 
z
" id="DejaVuSans-53"/>
    </defs>
    <g style="fill:#0000ff;" transform="translate(276.406034 397.27075)scale(0.2 -0.2)">
     <use xlink:href="#DejaVuSans-53"/>
    </g>
   </g>
   <g id="text_3">
    <!-- 6 -->
    <defs>
     <path d="M 33.015625 40.375 
Q 26.375 40.375 22.484375 35.828125 
Q 18.609375 31.296875 18.609375 23.390625 
Q 18.609375 15.53125 22.484375 10.953125 
Q 26.375 6.390625 33.015625 6.390625 
Q 39.65625 6.390625 43.53125 10.953125 
Q 47.40625 15.53125 47.40625 23.390625 
Q 47.40625 31.296875 43.53125 35.828125 
Q 39.65625 40.375 33.015625 40.375 
z
M 52.59375 71.296875 
L 52.59375 62.3125 
Q 48.875 64.0625 45.09375 64.984375 
Q 41.3125 65.921875 37.59375 65.921875 
Q 27.828125 65.921875 22.671875 59.328125 
Q 17.53125 52.734375 16.796875 39.40625 
Q 19.671875 43.65625 24.015625 45.921875 
Q 28.375 48.1875 33.59375 48.1875 
Q 44.578125 48.1875 50.953125 41.515625 
Q 57.328125 34.859375 57.328125 23.390625 
Q 57.328125 12.15625 50.6875 5.359375 
Q 44.046875 -1.421875 33.015625 -1.421875 
Q 20.359375 -1.421875 13.671875 8.265625 
Q 6.984375 17.96875 6.984375 36.375 
Q 6.984375 53.65625 15.1875 63.9375 
Q 23.390625 74.21875 37.203125 74.21875 
Q 40.921875 74.21875 44.703125 73.484375 
Q 48.484375 72.75 52.59375 71.296875 
z
" id="DejaVuSans-54"/>
    </defs>
    <g style="fill:#0000ff;" transform="translate(437.991722 397.27075)scale(0.2 -0.2)">
     <use xlink:href="#DejaVuSans-54"/>
    </g>
   </g>
   <g id="text_4">
    <!-- 7 -->
    <defs>
     <path d="M 8.203125 72.90625 
L 55.078125 72.90625 
L 55.078125 68.703125 
L 28.609375 0 
L 18.3125 0 
L 43.21875 64.59375 
L 8.203125 64.59375 
z
" id="DejaVuSans-55"/>
    </defs>
    <g style="fill:#0000ff;" transform="translate(590.508303 397.27075)scale(0.2 -0.2)">
     <use xlink:href="#DejaVuSans-55"/>
    </g>
   </g>
   <g id="text_5">
    <!-- 8 -->
    <defs>
     <path d="M 31.78125 34.625 
Q 24.75 34.625 20.71875 30.859375 
Q 16.703125 27.09375 16.703125 20.515625 
Q 16.703125 13.921875 20.71875 10.15625 
Q 24.75 6.390625 31.78125 6.390625 
Q 38.8125 6.390625 42.859375 10.171875 
Q 46.921875 13.96875 46.921875 20.515625 
Q 46.921875 27.09375 42.890625 30.859375 
Q 38.875 34.625 31.78125 34.625 
z
M 21.921875 38.8125 
Q 15.578125 40.375 12.03125 44.71875 
Q 8.5 49.078125 8.5 55.328125 
Q 8.5 64.0625 14.71875 69.140625 
Q 20.953125 74.21875 31.78125 74.21875 
Q 42.671875 74.21875 48.875 69.140625 
Q 55.078125 64.0625 55.078125 55.328125 
Q 55.078125 49.078125 51.53125 44.71875 
Q 48 40.375 41.703125 38.8125 
Q 48.828125 37.15625 52.796875 32.3125 
Q 56.78125 27.484375 56.78125 20.515625 
Q 56.78125 9.90625 50.3125 4.234375 
Q 43.84375 -1.421875 31.78125 -1.421875 
Q 19.734375 -1.421875 13.25 4.234375 
Q 6.78125 9.90625 6.78125 20.515625 
Q 6.78125 27.484375 10.78125 32.3125 
Q 14.796875 37.15625 21.921875 38.8125 
z
M 18.3125 54.390625 
Q 18.3125 48.734375 21.84375 45.5625 
Q 25.390625 42.390625 31.78125 42.390625 
Q 38.140625 42.390625 41.71875 45.5625 
Q 45.3125 48.734375 45.3125 54.390625 
Q 45.3125 60.0625 41.71875 63.234375 
Q 38.140625 66.40625 31.78125 66.40625 
Q 25.390625 66.40625 21.84375 63.234375 
Q 18.3125 60.0625 18.3125 54.390625 
z
" id="DejaVuSans-56"/>
    </defs>
    <g style="fill:#0000ff;" transform="translate(734.464785 397.27075)scale(0.2 -0.2)">
     <use xlink:href="#DejaVuSans-56"/>
    </g>
   </g>
   <g id="text_6">
    <!-- 6 -->
    <g style="fill:#0000ff;" transform="translate(77.491961 369.55075)scale(0.2 -0.2)">
     <use xlink:href="#DejaVuSans-54"/>
    </g>
   </g>
   <g id="text_7">
    <!-- 5 -->
    <g style="fill:#0000ff;" transform="translate(77.491961 314.11075)scale(0.2 -0.2)">
     <use xlink:href="#DejaVuSans-53"/>
    </g>
   </g>
   <g id="text_8">
    <!-- 4 -->
    <g style="fill:#0000ff;" transform="translate(77.491961 258.67075)scale(0.2 -0.2)">
     <use xlink:href="#DejaVuSans-52"/>
    </g>
   </g>
   <g id="text_9">
    <!-- 3 -->
    <defs>
     <path d="M 40.578125 39.3125 
Q 47.65625 37.796875 51.625 33 
Q 55.609375 28.21875 55.609375 21.1875 
Q 55.609375 10.40625 48.1875 4.484375 
Q 40.765625 -1.421875 27.09375 -1.421875 
Q 22.515625 -1.421875 17.65625 -0.515625 
Q 12.796875 0.390625 7.625 2.203125 
L 7.625 11.71875 
Q 11.71875 9.328125 16.59375 8.109375 
Q 21.484375 6.890625 26.8125 6.890625 
Q 36.078125 6.890625 40.9375 10.546875 
Q 45.796875 14.203125 45.796875 21.1875 
Q 45.796875 27.640625 41.28125 31.265625 
Q 36.765625 34.90625 28.71875 34.90625 
L 20.21875 34.90625 
L 20.21875 43.015625 
L 29.109375 43.015625 
Q 36.375 43.015625 40.234375 45.921875 
Q 44.09375 48.828125 44.09375 54.296875 
Q 44.09375 59.90625 40.109375 62.90625 
Q 36.140625 65.921875 28.71875 65.921875 
Q 24.65625 65.921875 20.015625 65.03125 
Q 15.375 64.15625 9.8125 62.3125 
L 9.8125 71.09375 
Q 15.4375 72.65625 20.34375 73.4375 
Q 25.25 74.21875 29.59375 74.21875 
Q 40.828125 74.21875 47.359375 69.109375 
Q 53.90625 64.015625 53.90625 55.328125 
Q 53.90625 49.265625 50.4375 45.09375 
Q 46.96875 40.921875 40.578125 39.3125 
z
" id="DejaVuSans-51"/>
    </defs>
    <g style="fill:#0000ff;" transform="translate(77.491961 203.23075)scale(0.2 -0.2)">
     <use xlink:href="#DejaVuSans-51"/>
    </g>
   </g>
   <g id="text_10">
    <!-- 2 -->
    <defs>
     <path d="M 19.1875 8.296875 
L 53.609375 8.296875 
L 53.609375 0 
L 7.328125 0 
L 7.328125 8.296875 
Q 12.9375 14.109375 22.625 23.890625 
Q 32.328125 33.6875 34.8125 36.53125 
Q 39.546875 41.84375 41.421875 45.53125 
Q 43.3125 49.21875 43.3125 52.78125 
Q 43.3125 58.59375 39.234375 62.25 
Q 35.15625 65.921875 28.609375 65.921875 
Q 23.96875 65.921875 18.8125 64.3125 
Q 13.671875 62.703125 7.8125 59.421875 
L 7.8125 69.390625 
Q 13.765625 71.78125 18.9375 73 
Q 24.125 74.21875 28.421875 74.21875 
Q 39.75 74.21875 46.484375 68.546875 
Q 53.21875 62.890625 53.21875 53.421875 
Q 53.21875 48.921875 51.53125 44.890625 
Q 49.859375 40.875 45.40625 35.40625 
Q 44.1875 33.984375 37.640625 27.21875 
Q 31.109375 20.453125 19.1875 8.296875 
z
" id="DejaVuSans-50"/>
    </defs>
    <g style="fill:#0000ff;" transform="translate(77.491961 147.79075)scale(0.2 -0.2)">
     <use xlink:href="#DejaVuSans-50"/>
    </g>
   </g>
   <g id="text_11">
    <!-- 1 -->
    <defs>
     <path d="M 12.40625 8.296875 
L 28.515625 8.296875 
L 28.515625 63.921875 
L 10.984375 60.40625 
L 10.984375 69.390625 
L 28.421875 72.90625 
L 38.28125 72.90625 
L 38.28125 8.296875 
L 54.390625 8.296875 
L 54.390625 0 
L 12.40625 0 
z
" id="DejaVuSans-49"/>
    </defs>
    <g style="fill:#0000ff;" transform="translate(77.491961 92.35075)scale(0.2 -0.2)">
     <use xlink:href="#DejaVuSans-49"/>
    </g>
   </g>
   <g id="line2d_12">
    <path clip-path="url(#p43af9a706a)" style="fill:none;stroke:#000000;stroke-linecap:square;stroke-width:10;"/>
   </g>
   <g id="line2d_13">
    <path clip-path="url(#p43af9a706a)" style="fill:none;stroke:#000000;stroke-linecap:square;stroke-width:5;"/>
   </g>
   <g id="patch_11">
    <path clip-path="url(#p43af9a706a)" d="M 363.561378 219.888 
C 369.442522 219.888 375.083582 217.551397 379.242178 213.3928 
C 383.400775 209.234203 385.737378 203.593144 385.737378 197.712 
C 385.737378 191.830856 383.400775 186.189797 379.242178 182.0312 
C 375.083582 177.872603 369.442522 175.536 363.561378 175.536 
C 357.680234 175.536 352.039175 177.872603 347.880578 182.0312 
C 343.721982 186.189797 341.385378 191.830856 341.385378 197.712 
C 341.385378 203.593144 343.721982 209.234203 347.880578 213.3928 
C 352.039175 217.551397 357.680234 219.888 363.561378 219.888 
z
" style="fill:#ff0000;stroke:#ff0000;stroke-linejoin:miter;"/>
   </g>
   <g id="patch_12">
    <path clip-path="url(#p43af9a706a)" d="M 197.171498 164.448 
C 203.052642 164.448 208.693701 162.111397 212.852298 157.9528 
C 217.010894 153.794203 219.347498 148.153144 219.347498 142.272 
C 219.347498 136.390856 217.010894 130.749797 212.852298 126.5912 
C 208.693701 122.432603 203.052642 120.096 197.171498 120.096 
C 191.290354 120.096 185.649294 122.432603 181.490698 126.5912 
C 177.332101 130.749797 174.995498 136.390856 174.995498 142.272 
C 174.995498 148.153144 177.332101 153.794203 181.490698 157.9528 
C 185.649294 162.111397 191.290354 164.448 197.171498 164.448 
z
" style="fill:#cc3333;stroke:#cc3333;stroke-linejoin:miter;"/>
   </g>
   <g id="patch_13">
    <path clip-path="url(#p43af9a706a)" d="M 520.612513 330.768 
C 526.493656 330.768 532.134716 328.431397 536.293313 324.2728 
C 540.451909 320.114203 542.788513 314.473144 542.788513 308.592 
C 542.788513 302.710856 540.451909 297.069797 536.293313 292.9112 
C 532.134716 288.752603 526.493656 286.416 520.612513 286.416 
C 514.731369 286.416 509.090309 288.752603 504.931713 292.9112 
C 500.773116 297.069797 498.436513 302.710856 498.436513 308.592 
C 498.436513 314.473144 500.773116 320.114203 504.931713 324.2728 
C 509.090309 328.431397 514.731369 330.768 520.612513 330.768 
z
" style="fill:#cc3333;stroke:#cc3333;stroke-linejoin:miter;"/>
   </g>
   <g id="patch_14">
    <path clip-path="url(#p43af9a706a)" d="M 363.561378 275.328 
C 369.442522 275.328 375.083582 272.991397 379.242178 268.8328 
C 383.400775 264.674203 385.737378 259.033144 385.737378 253.152 
C 385.737378 247.270856 383.400775 241.629797 379.242178 237.4712 
C 375.083582 233.312603 369.442522 230.976 363.561378 230.976 
C 357.680234 230.976 352.039175 233.312603 347.880578 237.4712 
C 343.721982 241.629797 341.385378 247.270856 341.385378 253.152 
C 341.385378 259.033144 343.721982 264.674203 347.880578 268.8328 
C 352.039175 272.991397 357.680234 275.328 363.561378 275.328 
z
" style="fill:#994c4c;stroke:#994c4c;stroke-linejoin:miter;"/>
   </g>
   <g id="patch_15">
    <path clip-path="url(#p43af9a706a)" d="M 197.171498 219.888 
C 203.052642 219.888 208.693701 217.551397 212.852298 213.3928 
C 217.010894 209.234203 219.347498 203.593144 219.347498 197.712 
C 219.347498 191.830856 217.010894 186.189797 212.852298 182.0312 
C 208.693701 177.872603 203.052642 175.536 197.171498 175.536 
C 191.290354 175.536 185.649294 177.872603 181.490698 182.0312 
C 177.332101 186.189797 174.995498 191.830856 174.995498 197.712 
C 174.995498 203.593144 177.332101 209.234203 181.490698 213.3928 
C 185.649294 217.551397 191.290354 219.888 197.171498 219.888 
z
" style="fill:#664c4c;stroke:#664c4c;stroke-linejoin:miter;"/>
   </g>
   <g id="patch_16">
    <path clip-path="url(#p43af9a706a)" d="M 668.849044 386.208 
C 674.730188 386.208 680.371247 383.871397 684.529844 379.7128 
C 688.688441 375.554203 691.025044 369.913144 691.025044 364.032 
C 691.025044 358.150856 688.688441 352.509797 684.529844 348.3512 
C 680.371247 344.192603 674.730188 341.856 668.849044 341.856 
C 662.9679 341.856 657.326841 344.192603 653.168244 348.3512 
C 649.009647 352.509797 646.673044 358.150856 646.673044 364.032 
C 646.673044 369.913144 649.009647 375.554203 653.168244 379.7128 
C 657.326841 383.871397 662.9679 386.208 668.849044 386.208 
z
" style="fill:#664c4c;stroke:#664c4c;stroke-linejoin:miter;"/>
   </g>
   <g id="patch_17">
    <path clip-path="url(#p43af9a706a)" d="M 668.849044 109.008 
C 674.730188 109.008 680.371247 106.671397 684.529844 102.5128 
C 688.688441 98.354203 691.025044 92.713144 691.025044 86.832 
C 691.025044 80.950856 688.688441 75.309797 684.529844 71.1512 
C 680.371247 66.992603 674.730188 64.656 668.849044 64.656 
C 662.9679 64.656 657.326841 66.992603 653.168244 71.1512 
C 649.009647 75.309797 646.673044 80.950856 646.673044 86.832 
C 646.673044 92.713144 649.009647 98.354203 653.168244 102.5128 
C 657.326841 106.671397 662.9679 109.008 668.849044 109.008 
z
" style="fill:#664c4c;stroke:#664c4c;stroke-linejoin:miter;"/>
   </g>
   <g id="text_12">
    <!-- C#3 -->
    <defs>
     <path d="M 64.40625 67.28125 
L 64.40625 56.890625 
Q 59.421875 61.53125 53.78125 63.8125 
Q 48.140625 66.109375 41.796875 66.109375 
Q 29.296875 66.109375 22.65625 58.46875 
Q 16.015625 50.828125 16.015625 36.375 
Q 16.015625 21.96875 22.65625 14.328125 
Q 29.296875 6.6875 41.796875 6.6875 
Q 48.140625 6.6875 53.78125 8.984375 
Q 59.421875 11.28125 64.40625 15.921875 
L 64.40625 5.609375 
Q 59.234375 2.09375 53.4375 0.328125 
Q 47.65625 -1.421875 41.21875 -1.421875 
Q 24.65625 -1.421875 15.125 8.703125 
Q 5.609375 18.84375 5.609375 36.375 
Q 5.609375 53.953125 15.125 64.078125 
Q 24.65625 74.21875 41.21875 74.21875 
Q 47.75 74.21875 53.53125 72.484375 
Q 59.328125 70.75 64.40625 67.28125 
z
" id="DejaVuSans-67"/>
     <path d="M 51.125 44 
L 36.921875 44 
L 32.8125 27.6875 
L 47.125 27.6875 
z
M 43.796875 71.78125 
L 38.71875 51.515625 
L 52.984375 51.515625 
L 58.109375 71.78125 
L 65.921875 71.78125 
L 60.890625 51.515625 
L 76.125 51.515625 
L 76.125 44 
L 58.984375 44 
L 54.984375 27.6875 
L 70.515625 27.6875 
L 70.515625 20.21875 
L 53.078125 20.21875 
L 48 0 
L 40.1875 0 
L 45.21875 20.21875 
L 30.90625 20.21875 
L 25.875 0 
L 18.015625 0 
L 23.09375 20.21875 
L 7.71875 20.21875 
L 7.71875 27.6875 
L 24.90625 27.6875 
L 29 44 
L 13.28125 44 
L 13.28125 51.515625 
L 30.90625 51.515625 
L 35.890625 71.78125 
z
" id="DejaVuSans-35"/>
    </defs>
    <g style="fill:#ffffff;" transform="translate(346.181378 202.127)scale(0.16 -0.16)">
     <use xlink:href="#DejaVuSans-67"/>
     <use x="69.824219" xlink:href="#DejaVuSans-35"/>
     <use x="153.613281" xlink:href="#DejaVuSans-51"/>
    </g>
   </g>
   <g id="text_13">
    <!-- E3 -->
    <defs>
     <path d="M 9.8125 72.90625 
L 55.90625 72.90625 
L 55.90625 64.59375 
L 19.671875 64.59375 
L 19.671875 43.015625 
L 54.390625 43.015625 
L 54.390625 34.71875 
L 19.671875 34.71875 
L 19.671875 8.296875 
L 56.78125 8.296875 
L 56.78125 0 
L 9.8125 0 
z
" id="DejaVuSans-69"/>
    </defs>
    <g style="fill:#ffffff;" transform="translate(187.026498 146.687)scale(0.16 -0.16)">
     <use xlink:href="#DejaVuSans-69"/>
     <use x="63.183594" xlink:href="#DejaVuSans-51"/>
    </g>
   </g>
   <g id="text_14">
    <!-- E2 -->
    <g style="fill:#ffffff;" transform="translate(510.467513 313.007)scale(0.16 -0.16)">
     <use xlink:href="#DejaVuSans-69"/>
     <use x="63.183594" xlink:href="#DejaVuSans-50"/>
    </g>
   </g>
   <g id="text_15">
    <!-- G#2 -->
    <defs>
     <path d="M 59.515625 10.40625 
L 59.515625 29.984375 
L 43.40625 29.984375 
L 43.40625 38.09375 
L 69.28125 38.09375 
L 69.28125 6.78125 
Q 63.578125 2.734375 56.6875 0.65625 
Q 49.8125 -1.421875 42 -1.421875 
Q 24.90625 -1.421875 15.25 8.5625 
Q 5.609375 18.5625 5.609375 36.375 
Q 5.609375 54.25 15.25 64.234375 
Q 24.90625 74.21875 42 74.21875 
Q 49.125 74.21875 55.546875 72.453125 
Q 61.96875 70.703125 67.390625 67.28125 
L 67.390625 56.78125 
Q 61.921875 61.421875 55.765625 63.765625 
Q 49.609375 66.109375 42.828125 66.109375 
Q 29.4375 66.109375 22.71875 58.640625 
Q 16.015625 51.171875 16.015625 36.375 
Q 16.015625 21.625 22.71875 14.15625 
Q 29.4375 6.6875 42.828125 6.6875 
Q 48.046875 6.6875 52.140625 7.59375 
Q 56.25 8.5 59.515625 10.40625 
z
" id="DejaVuSans-71"/>
    </defs>
    <g style="fill:#ffffff;" transform="translate(345.568878 257.567)scale(0.16 -0.16)">
     <use xlink:href="#DejaVuSans-71"/>
     <use x="77.490234" xlink:href="#DejaVuSans-35"/>
     <use x="161.279297" xlink:href="#DejaVuSans-50"/>
    </g>
   </g>
   <g id="text_16">
    <!-- B#3 -->
    <defs>
     <path d="M 19.671875 34.8125 
L 19.671875 8.109375 
L 35.5 8.109375 
Q 43.453125 8.109375 47.28125 11.40625 
Q 51.125 14.703125 51.125 21.484375 
Q 51.125 28.328125 47.28125 31.5625 
Q 43.453125 34.8125 35.5 34.8125 
z
M 19.671875 64.796875 
L 19.671875 42.828125 
L 34.28125 42.828125 
Q 41.5 42.828125 45.03125 45.53125 
Q 48.578125 48.25 48.578125 53.8125 
Q 48.578125 59.328125 45.03125 62.0625 
Q 41.5 64.796875 34.28125 64.796875 
z
M 9.8125 72.90625 
L 35.015625 72.90625 
Q 46.296875 72.90625 52.390625 68.21875 
Q 58.5 63.53125 58.5 54.890625 
Q 58.5 48.1875 55.375 44.234375 
Q 52.25 40.28125 46.1875 39.3125 
Q 53.46875 37.75 57.5 32.78125 
Q 61.53125 27.828125 61.53125 20.40625 
Q 61.53125 10.640625 54.890625 5.3125 
Q 48.25 0 35.984375 0 
L 9.8125 0 
z
" id="DejaVuSans-66"/>
    </defs>
    <g style="fill:#ffffff;" transform="translate(179.888998 202.127)scale(0.16 -0.16)">
     <use xlink:href="#DejaVuSans-66"/>
     <use x="68.603516" xlink:href="#DejaVuSans-35"/>
     <use x="152.392578" xlink:href="#DejaVuSans-51"/>
    </g>
   </g>
   <g id="text_17">
    <!-- B#2 -->
    <g style="fill:#ffffff;" transform="translate(651.566544 368.447)scale(0.16 -0.16)">
     <use xlink:href="#DejaVuSans-66"/>
     <use x="68.603516" xlink:href="#DejaVuSans-35"/>
     <use x="152.392578" xlink:href="#DejaVuSans-50"/>
    </g>
   </g>
   <g id="text_18">
    <!-- B#4 -->
    <g style="fill:#ffffff;" transform="translate(651.566544 91.247)scale(0.16 -0.16)">
     <use xlink:href="#DejaVuSans-66"/>
     <use x="68.603516" xlink:href="#DejaVuSans-35"/>
     <use x="152.392578" xlink:href="#DejaVuSans-52"/>
    </g>
   </g>
  </g>
 </g>
 <defs>
  <clipPath id="p43af9a706a">
   <rect height="343.728" width="640.340824" x="106.030461" y="53.568"/>
  </clipPath>
 </defs>
</svg>
