<?xml version="1.0" encoding="utf-8" standalone="no"?>
<!DOCTYPE svg PUBLIC "-//W3C//DTD SVG 1.1//EN"
  "http://www.w3.org/Graphics/SVG/1.1/DTD/svg11.dtd">
<!-- Created with matplotlib (https://matplotlib.org/) -->
<svg height="432pt" version="1.1" viewBox="0 0 1395.951885 432" width="1395.951885pt" xmlns="http://www.w3.org/2000/svg" xmlns:xlink="http://www.w3.org/1999/xlink">
 <defs>
  <style type="text/css">
*{stroke-linecap:butt;stroke-linejoin:round;}
  </style>
 </defs>
 <g id="figure_1">
  <g id="patch_1">
   <path d="M 0 432 
L 1395.951885 432 
L 1395.951885 0 
L 0 0 
z
" style="fill:#ffffff;"/>
  </g>
  <g id="axes_1">
   <g id="patch_2">
    <path clip-path="url(#p4aaaa12f7b)" d="M 777.293053 216 
L 902.071528 216 
L 902.071528 36 
L 777.293053 36 
z
" style="fill:#cccccc;"/>
   </g>
   <g id="patch_3">
    <path clip-path="url(#p4aaaa12f7b)" d="M 1248.786903 216 
L 1359.951885 216 
L 1359.951885 36 
L 1248.786903 36 
z
" style="fill:#cccccc;"/>
   </g>
   <g id="patch_4">
    <path clip-path="url(#p4aaaa12f7b)" d="M 1668.840169 216 
L 1767.876909 216 
L 1767.876909 36 
L 1668.840169 36 
z
" style="fill:#cccccc;"/>
   </g>
   <g id="patch_5">
    <path clip-path="url(#p4aaaa12f7b)" d="M 2043.065085 216 
L 2131.29679 216 
L 2131.29679 36 
L 2043.065085 36 
z
" style="fill:#cccccc;"/>
   </g>
   <g id="patch_6">
    <path clip-path="url(#p4aaaa12f7b)" d="M 2529.260821 396 
L 2603.454545 396 
L 2603.454545 36 
L 2529.260821 36 
z
" style="fill:#cccccc;"/>
   </g>
   <g id="patch_7">
    <path clip-path="url(#p4aaaa12f7b)" d="M 2938.101072 216 
L 3000.490309 216 
L 3000.490309 36 
L 2938.101072 36 
z
" style="fill:#cccccc;"/>
   </g>
   <g id="patch_8">
    <path clip-path="url(#p4aaaa12f7b)" d="M 3173.847997 216 
L 3229.430488 216 
L 3229.430488 36 
L 3173.847997 36 
z
" style="fill:#cccccc;"/>
   </g>
   <g id="patch_9">
    <path clip-path="url(#p4aaaa12f7b)" d="M 3383.87463 216 
L 3433.393 216 
L 3433.393 36 
L 3383.87463 36 
z
" style="fill:#cccccc;"/>
   </g>
   <g id="patch_10">
    <path clip-path="url(#p4aaaa12f7b)" d="M 3570.987088 216 
L 3615.102941 216 
L 3615.102941 36 
L 3570.987088 36 
z
" style="fill:#cccccc;"/>
   </g>
   <g id="line2d_1">
    <path clip-path="url(#p4aaaa12f7b)" d="M 108 396 
L 108 36 
" style="fill:none;stroke:#000000;stroke-width:10;"/>
   </g>
   <g id="line2d_2">
    <path clip-path="url(#p4aaaa12f7b)" style="fill:none;stroke:#000000;stroke-width:5;"/>
   </g>
   <g id="line2d_3">
    <path clip-path="url(#p4aaaa12f7b)" d="M 36 396 
L 36 36 
" style="fill:none;stroke:#000000;stroke-width:3;"/>
   </g>
   <g id="line2d_4">
    <path clip-path="url(#p4aaaa12f7b)" d="M 108 396 
L 108 36 
" style="fill:none;stroke:#000000;stroke-width:3;"/>
   </g>
   <g id="line2d_5">
    <path clip-path="url(#p4aaaa12f7b)" d="M 388.118203 396 
L 388.118203 36 
" style="fill:none;stroke:#000000;stroke-width:3;"/>
   </g>
   <g id="line2d_6">
    <path clip-path="url(#p4aaaa12f7b)" d="M 652.514579 396 
L 652.514579 36 
" style="fill:none;stroke:#000000;stroke-width:3;"/>
   </g>
   <g id="line2d_7">
    <path clip-path="url(#p4aaaa12f7b)" d="M 902.071528 396 
L 902.071528 36 
" style="fill:none;stroke:#000000;stroke-width:3;"/>
   </g>
   <g id="line2d_8">
    <path clip-path="url(#p4aaaa12f7b)" d="M 1137.62192 396 
L 1137.62192 36 
" style="fill:none;stroke:#000000;stroke-width:3;"/>
   </g>
   <g id="line2d_9">
    <path clip-path="url(#p4aaaa12f7b)" d="M 1359.951885 396 
L 1359.951885 36 
" style="fill:none;stroke:#000000;stroke-width:3;"/>
   </g>
   <g id="line2d_10">
    <path clip-path="url(#p4aaaa12f7b)" d="M 36 396 
L 1396.951885 396 
" style="fill:none;stroke:#808080;stroke-linecap:square;stroke-width:3;"/>
   </g>
   <g id="line2d_11">
    <path clip-path="url(#p4aaaa12f7b)" d="M 36 324 
L 1396.951885 324 
" style="fill:none;stroke:#808080;stroke-linecap:square;stroke-width:3;"/>
   </g>
   <g id="line2d_12">
    <path clip-path="url(#p4aaaa12f7b)" d="M 36 252 
L 1396.951885 252 
" style="fill:none;stroke:#808080;stroke-linecap:square;stroke-width:3;"/>
   </g>
   <g id="line2d_13">
    <path clip-path="url(#p4aaaa12f7b)" d="M 36 180 
L 1396.951885 180 
" style="fill:none;stroke:#808080;stroke-linecap:square;stroke-width:3;"/>
   </g>
   <g id="line2d_14">
    <path clip-path="url(#p4aaaa12f7b)" d="M 36 108 
L 1396.951885 108 
" style="fill:none;stroke:#808080;stroke-linecap:square;stroke-width:3;"/>
   </g>
   <g id="line2d_15">
    <path clip-path="url(#p4aaaa12f7b)" d="M 36 36 
L 1396.951885 36 
" style="fill:none;stroke:#808080;stroke-linecap:square;stroke-width:3;"/>
   </g>
   <g id="text_1">
    <!-- -1 -->
    <defs>
     <path d="M 4.890625 31.390625 
L 31.203125 31.390625 
L 31.203125 23.390625 
L 4.890625 23.390625 
z
" id="DejaVuSans-45"/>
     <path d="M 12.40625 8.296875 
L 28.515625 8.296875 
L 28.515625 63.921875 
L 10.984375 60.40625 
L 10.984375 69.390625 
L 28.421875 72.90625 
L 38.28125 72.90625 
L 38.28125 8.296875 
L 54.390625 8.296875 
L 54.390625 0 
L 12.40625 0 
z
" id="DejaVuSans-49"/>
    </defs>
    <g style="fill:#0000ff;" transform="translate(29.020781 427.555433)scale(0.14 -0.14)">
     <use xlink:href="#DejaVuSans-45"/>
     <use x="36.083984" xlink:href="#DejaVuSans-49"/>
    </g>
   </g>
   <g id="text_2">
    <!-- 0 -->
    <defs>
     <path d="M 31.78125 66.40625 
Q 24.171875 66.40625 20.328125 58.90625 
Q 16.5 51.421875 16.5 36.375 
Q 16.5 21.390625 20.328125 13.890625 
Q 24.171875 6.390625 31.78125 6.390625 
Q 39.453125 6.390625 43.28125 13.890625 
Q 47.125 21.390625 47.125 36.375 
Q 47.125 51.421875 43.28125 58.90625 
Q 39.453125 66.40625 31.78125 66.40625 
z
M 31.78125 74.21875 
Q 44.046875 74.21875 50.515625 64.515625 
Q 56.984375 54.828125 56.984375 36.375 
Q 56.984375 17.96875 50.515625 8.265625 
Q 44.046875 -1.421875 31.78125 -1.421875 
Q 19.53125 -1.421875 13.0625 8.265625 
Q 6.59375 17.96875 6.59375 36.375 
Q 6.59375 54.828125 13.0625 64.515625 
Q 19.53125 74.21875 31.78125 74.21875 
z
" id="DejaVuSans-48"/>
    </defs>
    <g style="fill:#0000ff;" transform="translate(103.54625 427.555433)scale(0.14 -0.14)">
     <use xlink:href="#DejaVuSans-48"/>
    </g>
   </g>
   <g id="text_3">
    <!-- 1 -->
    <g style="fill:#0000ff;" transform="translate(383.664453 427.555433)scale(0.14 -0.14)">
     <use xlink:href="#DejaVuSans-49"/>
    </g>
   </g>
   <g id="text_4">
    <!-- 2 -->
    <defs>
     <path d="M 19.1875 8.296875 
L 53.609375 8.296875 
L 53.609375 0 
L 7.328125 0 
L 7.328125 8.296875 
Q 12.9375 14.109375 22.625 23.890625 
Q 32.328125 33.6875 34.8125 36.53125 
Q 39.546875 41.84375 41.421875 45.53125 
Q 43.3125 49.21875 43.3125 52.78125 
Q 43.3125 58.59375 39.234375 62.25 
Q 35.15625 65.921875 28.609375 65.921875 
Q 23.96875 65.921875 18.8125 64.3125 
Q 13.671875 62.703125 7.8125 59.421875 
L 7.8125 69.390625 
Q 13.765625 71.78125 18.9375 73 
Q 24.125 74.21875 28.421875 74.21875 
Q 39.75 74.21875 46.484375 68.546875 
Q 53.21875 62.890625 53.21875 53.421875 
Q 53.21875 48.921875 51.53125 44.890625 
Q 49.859375 40.875 45.40625 35.40625 
Q 44.1875 33.984375 37.640625 27.21875 
Q 31.109375 20.453125 19.1875 8.296875 
z
" id="DejaVuSans-50"/>
    </defs>
    <g style="fill:#0000ff;" transform="translate(648.060829 427.555433)scale(0.14 -0.14)">
     <use xlink:href="#DejaVuSans-50"/>
    </g>
   </g>
   <g id="text_5">
    <!-- 3 -->
    <defs>
     <path d="M 40.578125 39.3125 
Q 47.65625 37.796875 51.625 33 
Q 55.609375 28.21875 55.609375 21.1875 
Q 55.609375 10.40625 48.1875 4.484375 
Q 40.765625 -1.421875 27.09375 -1.421875 
Q 22.515625 -1.421875 17.65625 -0.515625 
Q 12.796875 0.390625 7.625 2.203125 
L 7.625 11.71875 
Q 11.71875 9.328125 16.59375 8.109375 
Q 21.484375 6.890625 26.8125 6.890625 
Q 36.078125 6.890625 40.9375 10.546875 
Q 45.796875 14.203125 45.796875 21.1875 
Q 45.796875 27.640625 41.28125 31.265625 
Q 36.765625 34.90625 28.71875 34.90625 
L 20.21875 34.90625 
L 20.21875 43.015625 
L 29.109375 43.015625 
Q 36.375 43.015625 40.234375 45.921875 
Q 44.09375 48.828125 44.09375 54.296875 
Q 44.09375 59.90625 40.109375 62.90625 
Q 36.140625 65.921875 28.71875 65.921875 
Q 24.65625 65.921875 20.015625 65.03125 
Q 15.375 64.15625 9.8125 62.3125 
L 9.8125 71.09375 
Q 15.4375 72.65625 20.34375 73.4375 
Q 25.25 74.21875 29.59375 74.21875 
Q 40.828125 74.21875 47.359375 69.109375 
Q 53.90625 64.015625 53.90625 55.328125 
Q 53.90625 49.265625 50.4375 45.09375 
Q 46.96875 40.921875 40.578125 39.3125 
z
" id="DejaVuSans-51"/>
    </defs>
    <g style="fill:#0000ff;" transform="translate(897.617778 427.555433)scale(0.14 -0.14)">
     <use xlink:href="#DejaVuSans-51"/>
    </g>
   </g>
   <g id="text_6">
    <!-- 4 -->
    <defs>
     <path d="M 37.796875 64.3125 
L 12.890625 25.390625 
L 37.796875 25.390625 
z
M 35.203125 72.90625 
L 47.609375 72.90625 
L 47.609375 25.390625 
L 58.015625 25.390625 
L 58.015625 17.1875 
L 47.609375 17.1875 
L 47.609375 0 
L 37.796875 0 
L 37.796875 17.1875 
L 4.890625 17.1875 
L 4.890625 26.703125 
z
" id="DejaVuSans-52"/>
    </defs>
    <g style="fill:#0000ff;" transform="translate(1133.16817 427.555433)scale(0.14 -0.14)">
     <use xlink:href="#DejaVuSans-52"/>
    </g>
   </g>
   <g id="text_7">
    <!-- 5 -->
    <defs>
     <path d="M 10.796875 72.90625 
L 49.515625 72.90625 
L 49.515625 64.59375 
L 19.828125 64.59375 
L 19.828125 46.734375 
Q 21.96875 47.46875 24.109375 47.828125 
Q 26.265625 48.1875 28.421875 48.1875 
Q 40.625 48.1875 47.75 41.5 
Q 54.890625 34.8125 54.890625 23.390625 
Q 54.890625 11.625 47.5625 5.09375 
Q 40.234375 -1.421875 26.90625 -1.421875 
Q 22.3125 -1.421875 17.546875 -0.640625 
Q 12.796875 0.140625 7.71875 1.703125 
L 7.71875 11.625 
Q 12.109375 9.234375 16.796875 8.0625 
Q 21.484375 6.890625 26.703125 6.890625 
Q 35.15625 6.890625 40.078125 11.328125 
Q 45.015625 15.765625 45.015625 23.390625 
Q 45.015625 31 40.078125 35.4375 
Q 35.15625 39.890625 26.703125 39.890625 
Q 22.75 39.890625 18.8125 39.015625 
Q 14.890625 38.140625 10.796875 36.28125 
z
" id="DejaVuSans-53"/>
    </defs>
    <g style="fill:#0000ff;" transform="translate(1355.498135 427.555433)scale(0.14 -0.14)">
     <use xlink:href="#DejaVuSans-53"/>
    </g>
   </g>
   <g id="patch_11">
    <path d="M 50.4 420 
C 56.764874 420 62.869917 417.471209 67.370563 412.970563 
C 71.871209 408.469917 74.4 402.364874 74.4 396 
C 74.4 389.635126 71.871209 383.530083 67.370563 379.029437 
C 62.869917 374.528791 56.764874 372 50.4 372 
C 44.035126 372 37.930083 374.528791 33.429437 379.029437 
C 28.928791 383.530083 26.4 389.635126 26.4 396 
C 26.4 402.364874 28.928791 408.469917 33.429437 412.970563 
C 37.930083 417.471209 44.035126 420 50.4 420 
z
" style="fill:#d9544c;stroke:#d9544c;stroke-linejoin:miter;"/>
   </g>
   <g id="patch_12">
    <path d="M 50.4 276 
C 56.764874 276 62.869917 273.471209 67.370563 268.970563 
C 71.871209 264.469917 74.4 258.364874 74.4 252 
C 74.4 245.635126 71.871209 239.530083 67.370563 235.029437 
C 62.869917 230.528791 56.764874 228 50.4 228 
C 44.035126 228 37.930083 230.528791 33.429437 235.029437 
C 28.928791 239.530083 26.4 245.635126 26.4 252 
C 26.4 258.364874 28.928791 264.469917 33.429437 268.970563 
C 37.930083 273.471209 44.035126 276 50.4 276 
z
" style="fill:#d9544c;stroke:#d9544c;stroke-linejoin:miter;"/>
   </g>
   <g id="patch_13">
    <path d="M 50.4 204 
C 56.764874 204 62.869917 201.471209 67.370563 196.970563 
C 71.871209 192.469917 74.4 186.364874 74.4 180 
C 74.4 173.635126 71.871209 167.530083 67.370563 163.029437 
C 62.869917 158.528791 56.764874 156 50.4 156 
C 44.035126 156 37.930083 158.528791 33.429437 163.029437 
C 28.928791 167.530083 26.4 173.635126 26.4 180 
C 26.4 186.364874 28.928791 192.469917 33.429437 196.970563 
C 37.930083 201.471209 44.035126 204 50.4 204 
z
" style="fill:#d9544c;stroke:#d9544c;stroke-linejoin:miter;"/>
   </g>
   <g id="patch_14">
    <path d="M 50.4 60 
C 56.764874 60 62.869917 57.471209 67.370563 52.970563 
C 71.871209 48.469917 74.4 42.364874 74.4 36 
C 74.4 29.635126 71.871209 23.530083 67.370563 19.029437 
C 62.869917 14.528791 56.764874 12 50.4 12 
C 44.035126 12 37.930083 14.528791 33.429437 19.029437 
C 28.928791 23.530083 26.4 29.635126 26.4 36 
C 26.4 42.364874 28.928791 48.469917 33.429437 52.970563 
C 37.930083 57.471209 44.035126 60 50.4 60 
z
" style="fill:#d9544c;stroke:#d9544c;stroke-linejoin:miter;"/>
   </g>
   <g id="patch_15">
    <path d="M 164.023641 132 
C 170.388515 132 176.493558 129.471209 180.994203 124.970563 
C 185.494849 120.469917 188.023641 114.364874 188.023641 108 
C 188.023641 101.635126 185.494849 95.530083 180.994203 91.029437 
C 176.493558 86.528791 170.388515 84 164.023641 84 
C 157.658766 84 151.553724 86.528791 147.053078 91.029437 
C 142.552432 95.530083 140.023641 101.635126 140.023641 108 
C 140.023641 114.364874 142.552432 120.469917 147.053078 124.970563 
C 151.553724 129.471209 157.658766 132 164.023641 132 
z
" style="fill:#d9544c;stroke:#d9544c;stroke-linejoin:miter;"/>
   </g>
   <g id="patch_16">
    <path d="M 440.997478 276 
C 447.362353 276 453.467395 273.471209 457.968041 268.970563 
C 462.468687 264.469917 464.997478 258.364874 464.997478 252 
C 464.997478 245.635126 462.468687 239.530083 457.968041 235.029437 
C 453.467395 230.528791 447.362353 228 440.997478 228 
C 434.632604 228 428.527561 230.528791 424.026916 235.029437 
C 419.52627 239.530083 416.997478 245.635126 416.997478 252 
C 416.997478 258.364874 419.52627 264.469917 424.026916 268.970563 
C 428.527561 273.471209 434.632604 276 440.997478 276 
z
" style="fill:#d9544c;stroke:#d9544c;stroke-linejoin:miter;"/>
   </g>
   <g id="patch_17">
    <path d="M 702.425969 420 
C 708.790843 420 714.895886 417.471209 719.396532 412.970563 
C 723.897178 408.469917 726.425969 402.364874 726.425969 396 
C 726.425969 389.635126 723.897178 383.530083 719.396532 379.029437 
C 714.895886 374.528791 708.790843 372 702.425969 372 
C 696.061095 372 689.956052 374.528791 685.455406 379.029437 
C 680.95476 383.530083 678.425969 389.635126 678.425969 396 
C 678.425969 402.364874 680.95476 408.469917 685.455406 412.970563 
C 689.956052 417.471209 696.061095 420 702.425969 420 
z
" style="fill:#d9544c;stroke:#d9544c;stroke-linejoin:miter;"/>
   </g>
   <g id="patch_18">
    <path d="M 702.425969 348 
C 708.790843 348 714.895886 345.471209 719.396532 340.970563 
C 723.897178 336.469917 726.425969 330.364874 726.425969 324 
C 726.425969 317.635126 723.897178 311.530083 719.396532 307.029437 
C 714.895886 302.528791 708.790843 300 702.425969 300 
C 696.061095 300 689.956052 302.528791 685.455406 307.029437 
C 680.95476 311.530083 678.425969 317.635126 678.425969 324 
C 678.425969 330.364874 680.95476 336.469917 685.455406 340.970563 
C 689.956052 345.471209 696.061095 348 702.425969 348 
z
" style="fill:#d9544c;stroke:#d9544c;stroke-linejoin:miter;"/>
   </g>
   <g id="patch_19">
    <path d="M 702.425969 132 
C 708.790843 132 714.895886 129.471209 719.396532 124.970563 
C 723.897178 120.469917 726.425969 114.364874 726.425969 108 
C 726.425969 101.635126 723.897178 95.530083 719.396532 91.029437 
C 714.895886 86.528791 708.790843 84 702.425969 84 
C 696.061095 84 689.956052 86.528791 685.455406 91.029437 
C 680.95476 95.530083 678.425969 101.635126 678.425969 108 
C 678.425969 114.364874 680.95476 120.469917 685.455406 124.970563 
C 689.956052 129.471209 696.061095 132 702.425969 132 
z
" style="fill:#d9544c;stroke:#d9544c;stroke-linejoin:miter;"/>
   </g>
   <g id="patch_20">
    <path d="M 702.425969 60 
C 708.790843 60 714.895886 57.471209 719.396532 52.970563 
C 723.897178 48.469917 726.425969 42.364874 726.425969 36 
C 726.425969 29.635126 723.897178 23.530083 719.396532 19.029437 
C 714.895886 14.528791 708.790843 12 702.425969 12 
C 696.061095 12 689.956052 14.528791 685.455406 19.029437 
C 680.95476 23.530083 678.425969 29.635126 678.425969 36 
C 678.425969 42.364874 680.95476 48.469917 685.455406 52.970563 
C 689.956052 57.471209 696.061095 60 702.425969 60 
z
" style="fill:#d9544c;stroke:#d9544c;stroke-linejoin:miter;"/>
   </g>
   <g id="patch_21">
    <path d="M 1182.087913 348 
C 1188.452788 348 1194.55783 345.471209 1199.058476 340.970563 
C 1203.559122 336.469917 1206.087913 330.364874 1206.087913 324 
C 1206.087913 317.635126 1203.559122 311.530083 1199.058476 307.029437 
C 1194.55783 302.528791 1188.452788 300 1182.087913 300 
C 1175.723039 300 1169.617996 302.528791 1165.117351 307.029437 
C 1160.616705 311.530083 1158.087913 317.635126 1158.087913 324 
C 1158.087913 330.364874 1160.616705 336.469917 1165.117351 340.970563 
C 1169.617996 345.471209 1175.723039 348 1182.087913 348 
z
" style="fill:#d9544c;stroke:#d9544c;stroke-linejoin:miter;"/>
   </g>
   <g id="patch_22">
    <path d="M 1182.087913 276 
C 1188.452788 276 1194.55783 273.471209 1199.058476 268.970563 
C 1203.559122 264.469917 1206.087913 258.364874 1206.087913 252 
C 1206.087913 245.635126 1203.559122 239.530083 1199.058476 235.029437 
C 1194.55783 230.528791 1188.452788 228 1182.087913 228 
C 1175.723039 228 1169.617996 230.528791 1165.117351 235.029437 
C 1160.616705 239.530083 1158.087913 245.635126 1158.087913 252 
C 1158.087913 258.364874 1160.616705 264.469917 1165.117351 268.970563 
C 1169.617996 273.471209 1175.723039 276 1182.087913 276 
z
" style="fill:#d9544c;stroke:#d9544c;stroke-linejoin:miter;"/>
   </g>
   <g id="patch_23">
    <path d="M 1182.087913 204 
C 1188.452788 204 1194.55783 201.471209 1199.058476 196.970563 
C 1203.559122 192.469917 1206.087913 186.364874 1206.087913 180 
C 1206.087913 173.635126 1203.559122 167.530083 1199.058476 163.029437 
C 1194.55783 158.528791 1188.452788 156 1182.087913 156 
C 1175.723039 156 1169.617996 158.528791 1165.117351 163.029437 
C 1160.616705 167.530083 1158.087913 173.635126 1158.087913 180 
C 1158.087913 186.364874 1160.616705 192.469917 1165.117351 196.970563 
C 1169.617996 201.471209 1175.723039 204 1182.087913 204 
z
" style="fill:#d9544c;stroke:#d9544c;stroke-linejoin:miter;"/>
   </g>
   <g id="patch_24">
    <path d="M 1182.087913 132 
C 1188.452788 132 1194.55783 129.471209 1199.058476 124.970563 
C 1203.559122 120.469917 1206.087913 114.364874 1206.087913 108 
C 1206.087913 101.635126 1203.559122 95.530083 1199.058476 91.029437 
C 1194.55783 86.528791 1188.452788 84 1182.087913 84 
C 1175.723039 84 1169.617996 86.528791 1165.117351 91.029437 
C 1160.616705 95.530083 1158.087913 101.635126 1158.087913 108 
C 1158.087913 114.364874 1160.616705 120.469917 1165.117351 124.970563 
C 1169.617996 129.471209 1175.723039 132 1182.087913 132 
z
" style="fill:#d9544c;stroke:#d9544c;stroke-linejoin:miter;"/>
   </g>
   <g id="text_8">
    <!-- E1(3) -->
    <defs>
     <path d="M 9.8125 72.90625 
L 55.90625 72.90625 
L 55.90625 64.59375 
L 19.671875 64.59375 
L 19.671875 43.015625 
L 54.390625 43.015625 
L 54.390625 34.71875 
L 19.671875 34.71875 
L 19.671875 8.296875 
L 56.78125 8.296875 
L 56.78125 0 
L 9.8125 0 
z
" id="DejaVuSans-69"/>
     <path d="M 31 75.875 
Q 24.46875 64.65625 21.28125 53.65625 
Q 18.109375 42.671875 18.109375 31.390625 
Q 18.109375 20.125 21.3125 9.0625 
Q 24.515625 -2 31 -13.1875 
L 23.1875 -13.1875 
Q 15.875 -1.703125 12.234375 9.375 
Q 8.59375 20.453125 8.59375 31.390625 
Q 8.59375 42.28125 12.203125 53.3125 
Q 15.828125 64.359375 23.1875 75.875 
z
" id="DejaVuSans-40"/>
     <path d="M 8.015625 75.875 
L 15.828125 75.875 
Q 23.140625 64.359375 26.78125 53.3125 
Q 30.421875 42.28125 30.421875 31.390625 
Q 30.421875 20.453125 26.78125 9.375 
Q 23.140625 -1.703125 15.828125 -13.1875 
L 8.015625 -13.1875 
Q 14.5 -2 17.703125 9.0625 
Q 20.90625 20.125 20.90625 31.390625 
Q 20.90625 42.671875 17.703125 53.65625 
Q 14.5 64.65625 8.015625 75.875 
z
" id="DejaVuSans-41"/>
    </defs>
    <g style="fill:#ffffff;" transform="translate(36.081667 398.943333)scale(0.106667 -0.106667)">
     <use xlink:href="#DejaVuSans-69"/>
     <use x="63.183594" xlink:href="#DejaVuSans-49"/>
     <use x="126.806641" xlink:href="#DejaVuSans-40"/>
     <use x="165.820312" xlink:href="#DejaVuSans-51"/>
     <use x="229.443359" xlink:href="#DejaVuSans-41"/>
    </g>
   </g>
   <g id="text_9">
    <!-- D2(9) -->
    <defs>
     <path d="M 19.671875 64.796875 
L 19.671875 8.109375 
L 31.59375 8.109375 
Q 46.6875 8.109375 53.6875 14.9375 
Q 60.6875 21.78125 60.6875 36.53125 
Q 60.6875 51.171875 53.6875 57.984375 
Q 46.6875 64.796875 31.59375 64.796875 
z
M 9.8125 72.90625 
L 30.078125 72.90625 
Q 51.265625 72.90625 61.171875 64.09375 
Q 71.09375 55.28125 71.09375 36.53125 
Q 71.09375 17.671875 61.125 8.828125 
Q 51.171875 0 30.078125 0 
L 9.8125 0 
z
" id="DejaVuSans-68"/>
     <path d="M 10.984375 1.515625 
L 10.984375 10.5 
Q 14.703125 8.734375 18.5 7.8125 
Q 22.3125 6.890625 25.984375 6.890625 
Q 35.75 6.890625 40.890625 13.453125 
Q 46.046875 20.015625 46.78125 33.40625 
Q 43.953125 29.203125 39.59375 26.953125 
Q 35.25 24.703125 29.984375 24.703125 
Q 19.046875 24.703125 12.671875 31.3125 
Q 6.296875 37.9375 6.296875 49.421875 
Q 6.296875 60.640625 12.9375 67.421875 
Q 19.578125 74.21875 30.609375 74.21875 
Q 43.265625 74.21875 49.921875 64.515625 
Q 56.59375 54.828125 56.59375 36.375 
Q 56.59375 19.140625 48.40625 8.859375 
Q 40.234375 -1.421875 26.421875 -1.421875 
Q 22.703125 -1.421875 18.890625 -0.6875 
Q 15.09375 0.046875 10.984375 1.515625 
z
M 30.609375 32.421875 
Q 37.25 32.421875 41.125 36.953125 
Q 45.015625 41.5 45.015625 49.421875 
Q 45.015625 57.28125 41.125 61.84375 
Q 37.25 66.40625 30.609375 66.40625 
Q 23.96875 66.40625 20.09375 61.84375 
Q 16.21875 57.28125 16.21875 49.421875 
Q 16.21875 41.5 20.09375 36.953125 
Q 23.96875 32.421875 30.609375 32.421875 
z
" id="DejaVuSans-57"/>
    </defs>
    <g style="fill:#ffffff;" transform="translate(35.345 254.943333)scale(0.106667 -0.106667)">
     <use xlink:href="#DejaVuSans-68"/>
     <use x="77.001953" xlink:href="#DejaVuSans-50"/>
     <use x="140.625" xlink:href="#DejaVuSans-40"/>
     <use x="179.638672" xlink:href="#DejaVuSans-57"/>
     <use x="243.261719" xlink:href="#DejaVuSans-41"/>
    </g>
   </g>
   <g id="text_10">
    <!-- G2(5) -->
    <defs>
     <path d="M 59.515625 10.40625 
L 59.515625 29.984375 
L 43.40625 29.984375 
L 43.40625 38.09375 
L 69.28125 38.09375 
L 69.28125 6.78125 
Q 63.578125 2.734375 56.6875 0.65625 
Q 49.8125 -1.421875 42 -1.421875 
Q 24.90625 -1.421875 15.25 8.5625 
Q 5.609375 18.5625 5.609375 36.375 
Q 5.609375 54.25 15.25 64.234375 
Q 24.90625 74.21875 42 74.21875 
Q 49.125 74.21875 55.546875 72.453125 
Q 61.96875 70.703125 67.390625 67.28125 
L 67.390625 56.78125 
Q 61.921875 61.421875 55.765625 63.765625 
Q 49.609375 66.109375 42.828125 66.109375 
Q 29.4375 66.109375 22.71875 58.640625 
Q 16.015625 51.171875 16.015625 36.375 
Q 16.015625 21.625 22.71875 14.15625 
Q 29.4375 6.6875 42.828125 6.6875 
Q 48.046875 6.6875 52.140625 7.59375 
Q 56.25 8.5 59.515625 10.40625 
z
" id="DejaVuSans-71"/>
    </defs>
    <g style="fill:#ffffff;" transform="translate(35.319167 182.943333)scale(0.106667 -0.106667)">
     <use xlink:href="#DejaVuSans-71"/>
     <use x="77.490234" xlink:href="#DejaVuSans-50"/>
     <use x="141.113281" xlink:href="#DejaVuSans-40"/>
     <use x="180.126953" xlink:href="#DejaVuSans-53"/>
     <use x="243.75" xlink:href="#DejaVuSans-41"/>
    </g>
   </g>
   <g id="text_11">
    <!-- E3(3) -->
    <g style="fill:#ffffff;" transform="translate(36.081667 38.943333)scale(0.106667 -0.106667)">
     <use xlink:href="#DejaVuSans-69"/>
     <use x="63.183594" xlink:href="#DejaVuSans-51"/>
     <use x="126.806641" xlink:href="#DejaVuSans-40"/>
     <use x="165.820312" xlink:href="#DejaVuSans-51"/>
     <use x="229.443359" xlink:href="#DejaVuSans-41"/>
    </g>
   </g>
   <g id="text_12">
    <!-- C3(R) -->
    <defs>
     <path d="M 64.40625 67.28125 
L 64.40625 56.890625 
Q 59.421875 61.53125 53.78125 63.8125 
Q 48.140625 66.109375 41.796875 66.109375 
Q 29.296875 66.109375 22.65625 58.46875 
Q 16.015625 50.828125 16.015625 36.375 
Q 16.015625 21.96875 22.65625 14.328125 
Q 29.296875 6.6875 41.796875 6.6875 
Q 48.140625 6.6875 53.78125 8.984375 
Q 59.421875 11.28125 64.40625 15.921875 
L 64.40625 5.609375 
Q 59.234375 2.09375 53.4375 0.328125 
Q 47.65625 -1.421875 41.21875 -1.421875 
Q 24.65625 -1.421875 15.125 8.703125 
Q 5.609375 18.84375 5.609375 36.375 
Q 5.609375 53.953125 15.125 64.078125 
Q 24.65625 74.21875 41.21875 74.21875 
Q 47.75 74.21875 53.53125 72.484375 
Q 59.328125 70.75 64.40625 67.28125 
z
" id="DejaVuSans-67"/>
     <path d="M 44.390625 34.1875 
Q 47.5625 33.109375 50.5625 29.59375 
Q 53.5625 26.078125 56.59375 19.921875 
L 66.609375 0 
L 56 0 
L 46.6875 18.703125 
Q 43.0625 26.03125 39.671875 28.421875 
Q 36.28125 30.8125 30.421875 30.8125 
L 19.671875 30.8125 
L 19.671875 0 
L 9.8125 0 
L 9.8125 72.90625 
L 32.078125 72.90625 
Q 44.578125 72.90625 50.734375 67.671875 
Q 56.890625 62.453125 56.890625 51.90625 
Q 56.890625 45.015625 53.6875 40.46875 
Q 50.484375 35.9375 44.390625 34.1875 
z
M 19.671875 64.796875 
L 19.671875 38.921875 
L 32.078125 38.921875 
Q 39.203125 38.921875 42.84375 42.21875 
Q 46.484375 45.515625 46.484375 51.90625 
Q 46.484375 58.296875 42.84375 61.546875 
Q 39.203125 64.796875 32.078125 64.796875 
z
" id="DejaVuSans-82"/>
    </defs>
    <g style="fill:#ffffff;" transform="translate(149.038641 110.943333)scale(0.106667 -0.106667)">
     <use xlink:href="#DejaVuSans-67"/>
     <use x="69.824219" xlink:href="#DejaVuSans-51"/>
     <use x="133.447266" xlink:href="#DejaVuSans-40"/>
     <use x="172.460938" xlink:href="#DejaVuSans-82"/>
     <use x="241.943359" xlink:href="#DejaVuSans-41"/>
    </g>
   </g>
   <g id="text_13">
    <!-- E2(3) -->
    <g style="fill:#ffffff;" transform="translate(426.679145 254.943333)scale(0.106667 -0.106667)">
     <use xlink:href="#DejaVuSans-69"/>
     <use x="63.183594" xlink:href="#DejaVuSans-50"/>
     <use x="126.806641" xlink:href="#DejaVuSans-40"/>
     <use x="165.820312" xlink:href="#DejaVuSans-51"/>
     <use x="229.443359" xlink:href="#DejaVuSans-41"/>
    </g>
   </g>
   <g id="text_14">
    <!-- G1(5) -->
    <g style="fill:#ffffff;" transform="translate(687.345136 398.943333)scale(0.106667 -0.106667)">
     <use xlink:href="#DejaVuSans-71"/>
     <use x="77.490234" xlink:href="#DejaVuSans-49"/>
     <use x="141.113281" xlink:href="#DejaVuSans-40"/>
     <use x="180.126953" xlink:href="#DejaVuSans-53"/>
     <use x="243.75" xlink:href="#DejaVuSans-41"/>
    </g>
   </g>
   <g id="text_15">
    <!-- C2(R) -->
    <g style="fill:#ffffff;" transform="translate(687.440969 326.943333)scale(0.106667 -0.106667)">
     <use xlink:href="#DejaVuSans-67"/>
     <use x="69.824219" xlink:href="#DejaVuSans-50"/>
     <use x="133.447266" xlink:href="#DejaVuSans-40"/>
     <use x="172.460938" xlink:href="#DejaVuSans-82"/>
     <use x="241.943359" xlink:href="#DejaVuSans-41"/>
    </g>
   </g>
   <g id="text_16">
    <!-- D3(9) -->
    <g style="fill:#ffffff;" transform="translate(687.370969 110.943333)scale(0.106667 -0.106667)">
     <use xlink:href="#DejaVuSans-68"/>
     <use x="77.001953" xlink:href="#DejaVuSans-51"/>
     <use x="140.625" xlink:href="#DejaVuSans-40"/>
     <use x="179.638672" xlink:href="#DejaVuSans-57"/>
     <use x="243.261719" xlink:href="#DejaVuSans-41"/>
    </g>
   </g>
   <g id="text_17">
    <!-- G3(5) -->
    <g style="fill:#ffffff;" transform="translate(687.345136 38.943333)scale(0.106667 -0.106667)">
     <use xlink:href="#DejaVuSans-71"/>
     <use x="77.490234" xlink:href="#DejaVuSans-51"/>
     <use x="141.113281" xlink:href="#DejaVuSans-40"/>
     <use x="180.126953" xlink:href="#DejaVuSans-53"/>
     <use x="243.75" xlink:href="#DejaVuSans-41"/>
    </g>
   </g>
   <g id="text_18">
    <!-- D2(9) -->
    <g style="fill:#ffffff;" transform="translate(1167.032913 326.943333)scale(0.106667 -0.106667)">
     <use xlink:href="#DejaVuSans-68"/>
     <use x="77.001953" xlink:href="#DejaVuSans-50"/>
     <use x="140.625" xlink:href="#DejaVuSans-40"/>
     <use x="179.638672" xlink:href="#DejaVuSans-57"/>
     <use x="243.261719" xlink:href="#DejaVuSans-41"/>
    </g>
   </g>
   <g id="text_19">
    <!-- G2(5) -->
    <g style="fill:#ffffff;" transform="translate(1167.00708 254.943333)scale(0.106667 -0.106667)">
     <use xlink:href="#DejaVuSans-71"/>
     <use x="77.490234" xlink:href="#DejaVuSans-50"/>
     <use x="141.113281" xlink:href="#DejaVuSans-40"/>
     <use x="180.126953" xlink:href="#DejaVuSans-53"/>
     <use x="243.75" xlink:href="#DejaVuSans-41"/>
    </g>
   </g>
   <g id="text_20">
    <!-- C3(R) -->
    <g style="fill:#ffffff;" transform="translate(1167.102913 182.943333)scale(0.106667 -0.106667)">
     <use xlink:href="#DejaVuSans-67"/>
     <use x="69.824219" xlink:href="#DejaVuSans-51"/>
     <use x="133.447266" xlink:href="#DejaVuSans-40"/>
     <use x="172.460938" xlink:href="#DejaVuSans-82"/>
     <use x="241.943359" xlink:href="#DejaVuSans-41"/>
    </g>
   </g>
   <g id="text_21">
    <!-- E3(3) -->
    <g style="fill:#ffffff;" transform="translate(1167.76958 110.943333)scale(0.106667 -0.106667)">
     <use xlink:href="#DejaVuSans-69"/>
     <use x="63.183594" xlink:href="#DejaVuSans-51"/>
     <use x="126.806641" xlink:href="#DejaVuSans-40"/>
     <use x="165.820312" xlink:href="#DejaVuSans-51"/>
     <use x="229.443359" xlink:href="#DejaVuSans-41"/>
    </g>
   </g>
   <g id="patch_25">
    <path d="M 64.8 420 
C 71.164874 420 77.269917 417.471209 81.770563 412.970563 
C 86.271209 408.469917 88.8 402.364874 88.8 396 
C 88.8 389.635126 86.271209 383.530083 81.770563 379.029437 
C 77.269917 374.528791 71.164874 372 64.8 372 
C 58.435126 372 52.330083 374.528791 47.829437 379.029437 
C 43.328791 383.530083 40.8 389.635126 40.8 396 
C 40.8 402.364874 43.328791 408.469917 47.829437 412.970563 
C 52.330083 417.471209 58.435126 420 64.8 420 
z
" style="fill:#d9944c;stroke:#d9944c;stroke-linejoin:miter;"/>
   </g>
   <g id="patch_26">
    <path d="M 64.8 276 
C 71.164874 276 77.269917 273.471209 81.770563 268.970563 
C 86.271209 264.469917 88.8 258.364874 88.8 252 
C 88.8 245.635126 86.271209 239.530083 81.770563 235.029437 
C 77.269917 230.528791 71.164874 228 64.8 228 
C 58.435126 228 52.330083 230.528791 47.829437 235.029437 
C 43.328791 239.530083 40.8 245.635126 40.8 252 
C 40.8 258.364874 43.328791 264.469917 47.829437 268.970563 
C 52.330083 273.471209 58.435126 276 64.8 276 
z
" style="fill:#d9944c;stroke:#d9944c;stroke-linejoin:miter;"/>
   </g>
   <g id="patch_27">
    <path d="M 64.8 204 
C 71.164874 204 77.269917 201.471209 81.770563 196.970563 
C 86.271209 192.469917 88.8 186.364874 88.8 180 
C 88.8 173.635126 86.271209 167.530083 81.770563 163.029437 
C 77.269917 158.528791 71.164874 156 64.8 156 
C 58.435126 156 52.330083 158.528791 47.829437 163.029437 
C 43.328791 167.530083 40.8 173.635126 40.8 180 
C 40.8 186.364874 43.328791 192.469917 47.829437 196.970563 
C 52.330083 201.471209 58.435126 204 64.8 204 
z
" style="fill:#d9944c;stroke:#d9944c;stroke-linejoin:miter;"/>
   </g>
   <g id="patch_28">
    <path d="M 64.8 132 
C 71.164874 132 77.269917 129.471209 81.770563 124.970563 
C 86.271209 120.469917 88.8 114.364874 88.8 108 
C 88.8 101.635126 86.271209 95.530083 81.770563 91.029437 
C 77.269917 86.528791 71.164874 84 64.8 84 
C 58.435126 84 52.330083 86.528791 47.829437 91.029437 
C 43.328791 95.530083 40.8 101.635126 40.8 108 
C 40.8 114.364874 43.328791 120.469917 47.829437 124.970563 
C 52.330083 129.471209 58.435126 132 64.8 132 
z
" style="fill:#d9944c;stroke:#d9944c;stroke-linejoin:miter;"/>
   </g>
   <g id="patch_29">
    <path d="M 64.8 60 
C 71.164874 60 77.269917 57.471209 81.770563 52.970563 
C 86.271209 48.469917 88.8 42.364874 88.8 36 
C 88.8 29.635126 86.271209 23.530083 81.770563 19.029437 
C 77.269917 14.528791 71.164874 12 64.8 12 
C 58.435126 12 52.330083 14.528791 47.829437 19.029437 
C 43.328791 23.530083 40.8 29.635126 40.8 36 
C 40.8 42.364874 43.328791 48.469917 47.829437 52.970563 
C 52.330083 57.471209 58.435126 60 64.8 60 
z
" style="fill:#d9944c;stroke:#d9944c;stroke-linejoin:miter;"/>
   </g>
   <g id="patch_30">
    <path d="M 493.876754 348 
C 500.241628 348 506.346671 345.471209 510.847316 340.970563 
C 515.347962 336.469917 517.876754 330.364874 517.876754 324 
C 517.876754 317.635126 515.347962 311.530083 510.847316 307.029437 
C 506.346671 302.528791 500.241628 300 493.876754 300 
C 487.511879 300 481.406837 302.528791 476.906191 307.029437 
C 472.405545 311.530083 469.876754 317.635126 469.876754 324 
C 469.876754 330.364874 472.405545 336.469917 476.906191 340.970563 
C 481.406837 345.471209 487.511879 348 493.876754 348 
z
" style="fill:#d9944c;stroke:#d9944c;stroke-linejoin:miter;"/>
   </g>
   <g id="patch_31">
    <path d="M 493.876754 276 
C 500.241628 276 506.346671 273.471209 510.847316 268.970563 
C 515.347962 264.469917 517.876754 258.364874 517.876754 252 
C 517.876754 245.635126 515.347962 239.530083 510.847316 235.029437 
C 506.346671 230.528791 500.241628 228 493.876754 228 
C 487.511879 228 481.406837 230.528791 476.906191 235.029437 
C 472.405545 239.530083 469.876754 245.635126 469.876754 252 
C 469.876754 258.364874 472.405545 264.469917 476.906191 268.970563 
C 481.406837 273.471209 487.511879 276 493.876754 276 
z
" style="fill:#d9944c;stroke:#d9944c;stroke-linejoin:miter;"/>
   </g>
   <g id="patch_32">
    <path d="M 752.337359 420 
C 758.702233 420 764.807276 417.471209 769.307921 412.970563 
C 773.808567 408.469917 776.337359 402.364874 776.337359 396 
C 776.337359 389.635126 773.808567 383.530083 769.307921 379.029437 
C 764.807276 374.528791 758.702233 372 752.337359 372 
C 745.972484 372 739.867442 374.528791 735.366796 379.029437 
C 730.86615 383.530083 728.337359 389.635126 728.337359 396 
C 728.337359 402.364874 730.86615 408.469917 735.366796 412.970563 
C 739.867442 417.471209 745.972484 420 752.337359 420 
z
" style="fill:#d9944c;stroke:#d9944c;stroke-linejoin:miter;"/>
   </g>
   <g id="patch_33">
    <path d="M 752.337359 132 
C 758.702233 132 764.807276 129.471209 769.307921 124.970563 
C 773.808567 120.469917 776.337359 114.364874 776.337359 108 
C 776.337359 101.635126 773.808567 95.530083 769.307921 91.029437 
C 764.807276 86.528791 758.702233 84 752.337359 84 
C 745.972484 84 739.867442 86.528791 735.366796 91.029437 
C 730.86615 95.530083 728.337359 101.635126 728.337359 108 
C 728.337359 114.364874 730.86615 120.469917 735.366796 124.970563 
C 739.867442 129.471209 745.972484 132 752.337359 132 
z
" style="fill:#d9944c;stroke:#d9944c;stroke-linejoin:miter;"/>
   </g>
   <g id="patch_34">
    <path d="M 752.337359 60 
C 758.702233 60 764.807276 57.471209 769.307921 52.970563 
C 773.808567 48.469917 776.337359 42.364874 776.337359 36 
C 776.337359 29.635126 773.808567 23.530083 769.307921 19.029437 
C 764.807276 14.528791 758.702233 12 752.337359 12 
C 745.972484 12 739.867442 14.528791 735.366796 19.029437 
C 730.86615 23.530083 728.337359 29.635126 728.337359 36 
C 728.337359 42.364874 730.86615 48.469917 735.366796 52.970563 
C 739.867442 57.471209 745.972484 60 752.337359 60 
z
" style="fill:#d9944c;stroke:#d9944c;stroke-linejoin:miter;"/>
   </g>
   <g id="patch_35">
    <path d="M 996.291685 204 
C 1002.656559 204 1008.761602 201.471209 1013.262247 196.970563 
C 1017.762893 192.469917 1020.291685 186.364874 1020.291685 180 
C 1020.291685 173.635126 1017.762893 167.530083 1013.262247 163.029437 
C 1008.761602 158.528791 1002.656559 156 996.291685 156 
C 989.92681 156 983.821768 158.528791 979.321122 163.029437 
C 974.820476 167.530083 972.291685 173.635126 972.291685 180 
C 972.291685 186.364874 974.820476 192.469917 979.321122 196.970563 
C 983.821768 201.471209 989.92681 204 996.291685 204 
z
" style="fill:#d9944c;stroke:#d9944c;stroke-linejoin:miter;"/>
   </g>
   <g id="patch_36">
    <path d="M 1226.553906 348 
C 1232.918781 348 1239.023823 345.471209 1243.524469 340.970563 
C 1248.025115 336.469917 1250.553906 330.364874 1250.553906 324 
C 1250.553906 317.635126 1248.025115 311.530083 1243.524469 307.029437 
C 1239.023823 302.528791 1232.918781 300 1226.553906 300 
C 1220.189032 300 1214.083989 302.528791 1209.583344 307.029437 
C 1205.082698 311.530083 1202.553906 317.635126 1202.553906 324 
C 1202.553906 330.364874 1205.082698 336.469917 1209.583344 340.970563 
C 1214.083989 345.471209 1220.189032 348 1226.553906 348 
z
" style="fill:#d9944c;stroke:#d9944c;stroke-linejoin:miter;"/>
   </g>
   <g id="patch_37">
    <path d="M 1226.553906 276 
C 1232.918781 276 1239.023823 273.471209 1243.524469 268.970563 
C 1248.025115 264.469917 1250.553906 258.364874 1250.553906 252 
C 1250.553906 245.635126 1248.025115 239.530083 1243.524469 235.029437 
C 1239.023823 230.528791 1232.918781 228 1226.553906 228 
C 1220.189032 228 1214.083989 230.528791 1209.583344 235.029437 
C 1205.082698 239.530083 1202.553906 245.635126 1202.553906 252 
C 1202.553906 258.364874 1205.082698 264.469917 1209.583344 268.970563 
C 1214.083989 273.471209 1220.189032 276 1226.553906 276 
z
" style="fill:#d9944c;stroke:#d9944c;stroke-linejoin:miter;"/>
   </g>
   <g id="patch_38">
    <path d="M 1226.553906 132 
C 1232.918781 132 1239.023823 129.471209 1243.524469 124.970563 
C 1248.025115 120.469917 1250.553906 114.364874 1250.553906 108 
C 1250.553906 101.635126 1248.025115 95.530083 1243.524469 91.029437 
C 1239.023823 86.528791 1232.918781 84 1226.553906 84 
C 1220.189032 84 1214.083989 86.528791 1209.583344 91.029437 
C 1205.082698 95.530083 1202.553906 101.635126 1202.553906 108 
C 1202.553906 114.364874 1205.082698 120.469917 1209.583344 124.970563 
C 1214.083989 129.471209 1220.189032 132 1226.553906 132 
z
" style="fill:#d9944c;stroke:#d9944c;stroke-linejoin:miter;"/>
   </g>
   <g id="text_22">
    <!-- E1(6) -->
    <defs>
     <path d="M 33.015625 40.375 
Q 26.375 40.375 22.484375 35.828125 
Q 18.609375 31.296875 18.609375 23.390625 
Q 18.609375 15.53125 22.484375 10.953125 
Q 26.375 6.390625 33.015625 6.390625 
Q 39.65625 6.390625 43.53125 10.953125 
Q 47.40625 15.53125 47.40625 23.390625 
Q 47.40625 31.296875 43.53125 35.828125 
Q 39.65625 40.375 33.015625 40.375 
z
M 52.59375 71.296875 
L 52.59375 62.3125 
Q 48.875 64.0625 45.09375 64.984375 
Q 41.3125 65.921875 37.59375 65.921875 
Q 27.828125 65.921875 22.671875 59.328125 
Q 17.53125 52.734375 16.796875 39.40625 
Q 19.671875 43.65625 24.015625 45.921875 
Q 28.375 48.1875 33.59375 48.1875 
Q 44.578125 48.1875 50.953125 41.515625 
Q 57.328125 34.859375 57.328125 23.390625 
Q 57.328125 12.15625 50.6875 5.359375 
Q 44.046875 -1.421875 33.015625 -1.421875 
Q 20.359375 -1.421875 13.671875 8.265625 
Q 6.984375 17.96875 6.984375 36.375 
Q 6.984375 53.65625 15.1875 63.9375 
Q 23.390625 74.21875 37.203125 74.21875 
Q 40.921875 74.21875 44.703125 73.484375 
Q 48.484375 72.75 52.59375 71.296875 
z
" id="DejaVuSans-54"/>
    </defs>
    <g style="fill:#ffffff;" transform="translate(50.481667 398.943333)scale(0.106667 -0.106667)">
     <use xlink:href="#DejaVuSans-69"/>
     <use x="63.183594" xlink:href="#DejaVuSans-49"/>
     <use x="126.806641" xlink:href="#DejaVuSans-40"/>
     <use x="165.820312" xlink:href="#DejaVuSans-54"/>
     <use x="229.443359" xlink:href="#DejaVuSans-41"/>
    </g>
   </g>
   <g id="text_23">
    <!-- D2(5) -->
    <g style="fill:#ffffff;" transform="translate(49.745 254.943333)scale(0.106667 -0.106667)">
     <use xlink:href="#DejaVuSans-68"/>
     <use x="77.001953" xlink:href="#DejaVuSans-50"/>
     <use x="140.625" xlink:href="#DejaVuSans-40"/>
     <use x="179.638672" xlink:href="#DejaVuSans-53"/>
     <use x="243.261719" xlink:href="#DejaVuSans-41"/>
    </g>
   </g>
   <g id="text_24">
    <!-- G2(R) -->
    <g style="fill:#ffffff;" transform="translate(49.406667 182.943333)scale(0.106667 -0.106667)">
     <use xlink:href="#DejaVuSans-71"/>
     <use x="77.490234" xlink:href="#DejaVuSans-50"/>
     <use x="141.113281" xlink:href="#DejaVuSans-40"/>
     <use x="180.126953" xlink:href="#DejaVuSans-82"/>
     <use x="249.609375" xlink:href="#DejaVuSans-41"/>
    </g>
   </g>
   <g id="text_25">
    <!-- B2(3) -->
    <defs>
     <path d="M 19.671875 34.8125 
L 19.671875 8.109375 
L 35.5 8.109375 
Q 43.453125 8.109375 47.28125 11.40625 
Q 51.125 14.703125 51.125 21.484375 
Q 51.125 28.328125 47.28125 31.5625 
Q 43.453125 34.8125 35.5 34.8125 
z
M 19.671875 64.796875 
L 19.671875 42.828125 
L 34.28125 42.828125 
Q 41.5 42.828125 45.03125 45.53125 
Q 48.578125 48.25 48.578125 53.8125 
Q 48.578125 59.328125 45.03125 62.0625 
Q 41.5 64.796875 34.28125 64.796875 
z
M 9.8125 72.90625 
L 35.015625 72.90625 
Q 46.296875 72.90625 52.390625 68.21875 
Q 58.5 63.53125 58.5 54.890625 
Q 58.5 48.1875 55.375 44.234375 
Q 52.25 40.28125 46.1875 39.3125 
Q 53.46875 37.75 57.5 32.78125 
Q 61.53125 27.828125 61.53125 20.40625 
Q 61.53125 10.640625 54.890625 5.3125 
Q 48.25 0 35.984375 0 
L 9.8125 0 
z
" id="DejaVuSans-66"/>
    </defs>
    <g style="fill:#ffffff;" transform="translate(50.1925 110.943333)scale(0.106667 -0.106667)">
     <use xlink:href="#DejaVuSans-66"/>
     <use x="68.603516" xlink:href="#DejaVuSans-50"/>
     <use x="132.226562" xlink:href="#DejaVuSans-40"/>
     <use x="171.240234" xlink:href="#DejaVuSans-51"/>
     <use x="234.863281" xlink:href="#DejaVuSans-41"/>
    </g>
   </g>
   <g id="text_26">
    <!-- E3(6) -->
    <g style="fill:#ffffff;" transform="translate(50.481667 38.943333)scale(0.106667 -0.106667)">
     <use xlink:href="#DejaVuSans-69"/>
     <use x="63.183594" xlink:href="#DejaVuSans-51"/>
     <use x="126.806641" xlink:href="#DejaVuSans-40"/>
     <use x="165.820312" xlink:href="#DejaVuSans-54"/>
     <use x="229.443359" xlink:href="#DejaVuSans-41"/>
    </g>
   </g>
   <g id="text_27">
    <!-- B1(3) -->
    <g style="fill:#ffffff;" transform="translate(479.269254 326.943333)scale(0.106667 -0.106667)">
     <use xlink:href="#DejaVuSans-66"/>
     <use x="68.603516" xlink:href="#DejaVuSans-49"/>
     <use x="132.226562" xlink:href="#DejaVuSans-40"/>
     <use x="171.240234" xlink:href="#DejaVuSans-51"/>
     <use x="234.863281" xlink:href="#DejaVuSans-41"/>
    </g>
   </g>
   <g id="text_28">
    <!-- E2(6) -->
    <g style="fill:#ffffff;" transform="translate(479.55842 254.943333)scale(0.106667 -0.106667)">
     <use xlink:href="#DejaVuSans-69"/>
     <use x="63.183594" xlink:href="#DejaVuSans-50"/>
     <use x="126.806641" xlink:href="#DejaVuSans-40"/>
     <use x="165.820312" xlink:href="#DejaVuSans-54"/>
     <use x="229.443359" xlink:href="#DejaVuSans-41"/>
    </g>
   </g>
   <g id="text_29">
    <!-- G1(R) -->
    <g style="fill:#ffffff;" transform="translate(736.944025 398.943333)scale(0.106667 -0.106667)">
     <use xlink:href="#DejaVuSans-71"/>
     <use x="77.490234" xlink:href="#DejaVuSans-49"/>
     <use x="141.113281" xlink:href="#DejaVuSans-40"/>
     <use x="180.126953" xlink:href="#DejaVuSans-82"/>
     <use x="249.609375" xlink:href="#DejaVuSans-41"/>
    </g>
   </g>
   <g id="text_30">
    <!-- D3(5) -->
    <g style="fill:#ffffff;" transform="translate(737.282359 110.943333)scale(0.106667 -0.106667)">
     <use xlink:href="#DejaVuSans-68"/>
     <use x="77.001953" xlink:href="#DejaVuSans-51"/>
     <use x="140.625" xlink:href="#DejaVuSans-40"/>
     <use x="179.638672" xlink:href="#DejaVuSans-53"/>
     <use x="243.261719" xlink:href="#DejaVuSans-41"/>
    </g>
   </g>
   <g id="text_31">
    <!-- G3(R) -->
    <g style="fill:#ffffff;" transform="translate(736.944025 38.943333)scale(0.106667 -0.106667)">
     <use xlink:href="#DejaVuSans-71"/>
     <use x="77.490234" xlink:href="#DejaVuSans-51"/>
     <use x="141.113281" xlink:href="#DejaVuSans-40"/>
     <use x="180.126953" xlink:href="#DejaVuSans-82"/>
     <use x="249.609375" xlink:href="#DejaVuSans-41"/>
    </g>
   </g>
   <g id="text_32">
    <!-- B2(3) -->
    <g style="fill:#ffffff;" transform="translate(981.684185 182.943333)scale(0.106667 -0.106667)">
     <use xlink:href="#DejaVuSans-66"/>
     <use x="68.603516" xlink:href="#DejaVuSans-50"/>
     <use x="132.226562" xlink:href="#DejaVuSans-40"/>
     <use x="171.240234" xlink:href="#DejaVuSans-51"/>
     <use x="234.863281" xlink:href="#DejaVuSans-41"/>
    </g>
   </g>
   <g id="text_33">
    <!-- D2(5) -->
    <g style="fill:#ffffff;" transform="translate(1211.498906 326.943333)scale(0.106667 -0.106667)">
     <use xlink:href="#DejaVuSans-68"/>
     <use x="77.001953" xlink:href="#DejaVuSans-50"/>
     <use x="140.625" xlink:href="#DejaVuSans-40"/>
     <use x="179.638672" xlink:href="#DejaVuSans-53"/>
     <use x="243.261719" xlink:href="#DejaVuSans-41"/>
    </g>
   </g>
   <g id="text_34">
    <!-- G2(R) -->
    <g style="fill:#ffffff;" transform="translate(1211.160573 254.943333)scale(0.106667 -0.106667)">
     <use xlink:href="#DejaVuSans-71"/>
     <use x="77.490234" xlink:href="#DejaVuSans-50"/>
     <use x="141.113281" xlink:href="#DejaVuSans-40"/>
     <use x="180.126953" xlink:href="#DejaVuSans-82"/>
     <use x="249.609375" xlink:href="#DejaVuSans-41"/>
    </g>
   </g>
   <g id="text_35">
    <!-- E3(6) -->
    <g style="fill:#ffffff;" transform="translate(1212.235573 110.943333)scale(0.106667 -0.106667)">
     <use xlink:href="#DejaVuSans-69"/>
     <use x="63.183594" xlink:href="#DejaVuSans-51"/>
     <use x="126.806641" xlink:href="#DejaVuSans-40"/>
     <use x="165.820312" xlink:href="#DejaVuSans-54"/>
     <use x="229.443359" xlink:href="#DejaVuSans-41"/>
    </g>
   </g>
   <g id="patch_39">
    <path d="M 79.2 420 
C 85.564874 420 91.669917 417.471209 96.170563 412.970563 
C 100.671209 408.469917 103.2 402.364874 103.2 396 
C 103.2 389.635126 100.671209 383.530083 96.170563 379.029437 
C 91.669917 374.528791 85.564874 372 79.2 372 
C 72.835126 372 66.730083 374.528791 62.229437 379.029437 
C 57.728791 383.530083 55.2 389.635126 55.2 396 
C 55.2 402.364874 57.728791 408.469917 62.229437 412.970563 
C 66.730083 417.471209 72.835126 420 79.2 420 
z
" style="fill:#d9d34c;stroke:#d9d34c;stroke-linejoin:miter;"/>
   </g>
   <g id="patch_40">
    <path d="M 79.2 348 
C 85.564874 348 91.669917 345.471209 96.170563 340.970563 
C 100.671209 336.469917 103.2 330.364874 103.2 324 
C 103.2 317.635126 100.671209 311.530083 96.170563 307.029437 
C 91.669917 302.528791 85.564874 300 79.2 300 
C 72.835126 300 66.730083 302.528791 62.229437 307.029437 
C 57.728791 311.530083 55.2 317.635126 55.2 324 
C 55.2 330.364874 57.728791 336.469917 62.229437 340.970563 
C 66.730083 345.471209 72.835126 348 79.2 348 
z
" style="fill:#d9d34c;stroke:#d9d34c;stroke-linejoin:miter;"/>
   </g>
   <g id="patch_41">
    <path d="M 79.2 276 
C 85.564874 276 91.669917 273.471209 96.170563 268.970563 
C 100.671209 264.469917 103.2 258.364874 103.2 252 
C 103.2 245.635126 100.671209 239.530083 96.170563 235.029437 
C 91.669917 230.528791 85.564874 228 79.2 228 
C 72.835126 228 66.730083 230.528791 62.229437 235.029437 
C 57.728791 239.530083 55.2 245.635126 55.2 252 
C 55.2 258.364874 57.728791 264.469917 62.229437 268.970563 
C 66.730083 273.471209 72.835126 276 79.2 276 
z
" style="fill:#d9d34c;stroke:#d9d34c;stroke-linejoin:miter;"/>
   </g>
   <g id="patch_42">
    <path d="M 79.2 204 
C 85.564874 204 91.669917 201.471209 96.170563 196.970563 
C 100.671209 192.469917 103.2 186.364874 103.2 180 
C 103.2 173.635126 100.671209 167.530083 96.170563 163.029437 
C 91.669917 158.528791 85.564874 156 79.2 156 
C 72.835126 156 66.730083 158.528791 62.229437 163.029437 
C 57.728791 167.530083 55.2 173.635126 55.2 180 
C 55.2 186.364874 57.728791 192.469917 62.229437 196.970563 
C 66.730083 201.471209 72.835126 204 79.2 204 
z
" style="fill:#d9d34c;stroke:#d9d34c;stroke-linejoin:miter;"/>
   </g>
   <g id="patch_43">
    <path d="M 79.2 60 
C 85.564874 60 91.669917 57.471209 96.170563 52.970563 
C 100.671209 48.469917 103.2 42.364874 103.2 36 
C 103.2 29.635126 100.671209 23.530083 96.170563 19.029437 
C 91.669917 14.528791 85.564874 12 79.2 12 
C 72.835126 12 66.730083 14.528791 62.229437 19.029437 
C 57.728791 23.530083 55.2 29.635126 55.2 36 
C 55.2 42.364874 57.728791 48.469917 62.229437 52.970563 
C 66.730083 57.471209 72.835126 60 79.2 60 
z
" style="fill:#d9d34c;stroke:#d9d34c;stroke-linejoin:miter;"/>
   </g>
   <g id="patch_44">
    <path d="M 276.070922 132 
C 282.435796 132 288.540839 129.471209 293.041485 124.970563 
C 297.54213 120.469917 300.070922 114.364874 300.070922 108 
C 300.070922 101.635126 297.54213 95.530083 293.041485 91.029437 
C 288.540839 86.528791 282.435796 84 276.070922 84 
C 269.706047 84 263.601005 86.528791 259.100359 91.029437 
C 254.599713 95.530083 252.070922 101.635126 252.070922 108 
C 252.070922 114.364874 254.599713 120.469917 259.100359 124.970563 
C 263.601005 129.471209 269.706047 132 276.070922 132 
z
" style="fill:#d9d34c;stroke:#d9d34c;stroke-linejoin:miter;"/>
   </g>
   <g id="patch_45">
    <path d="M 546.756029 276 
C 553.120903 276 559.225946 273.471209 563.726592 268.970563 
C 568.227238 264.469917 570.756029 258.364874 570.756029 252 
C 570.756029 245.635126 568.227238 239.530083 563.726592 235.029437 
C 559.225946 230.528791 553.120903 228 546.756029 228 
C 540.391155 228 534.286112 230.528791 529.785466 235.029437 
C 525.28482 239.530083 522.756029 245.635126 522.756029 252 
C 522.756029 258.364874 525.28482 264.469917 529.785466 268.970563 
C 534.286112 273.471209 540.391155 276 546.756029 276 
z
" style="fill:#d9d34c;stroke:#d9d34c;stroke-linejoin:miter;"/>
   </g>
   <g id="patch_46">
    <path d="M 546.756029 204 
C 553.120903 204 559.225946 201.471209 563.726592 196.970563 
C 568.227238 192.469917 570.756029 186.364874 570.756029 180 
C 570.756029 173.635126 568.227238 167.530083 563.726592 163.029437 
C 559.225946 158.528791 553.120903 156 546.756029 156 
C 540.391155 156 534.286112 158.528791 529.785466 163.029437 
C 525.28482 167.530083 522.756029 173.635126 522.756029 180 
C 522.756029 186.364874 525.28482 192.469917 529.785466 196.970563 
C 534.286112 201.471209 540.391155 204 546.756029 204 
z
" style="fill:#d9d34c;stroke:#d9d34c;stroke-linejoin:miter;"/>
   </g>
   <g id="patch_47">
    <path d="M 802.248748 420 
C 808.613623 420 814.718665 417.471209 819.219311 412.970563 
C 823.719957 408.469917 826.248748 402.364874 826.248748 396 
C 826.248748 389.635126 823.719957 383.530083 819.219311 379.029437 
C 814.718665 374.528791 808.613623 372 802.248748 372 
C 795.883874 372 789.778831 374.528791 785.278186 379.029437 
C 780.77754 383.530083 778.248748 389.635126 778.248748 396 
C 778.248748 402.364874 780.77754 408.469917 785.278186 412.970563 
C 789.778831 417.471209 795.883874 420 802.248748 420 
z
" style="fill:#d9d34c;stroke:#d9d34c;stroke-linejoin:miter;"/>
   </g>
   <g id="patch_48">
    <path d="M 802.248748 348 
C 808.613623 348 814.718665 345.471209 819.219311 340.970563 
C 823.719957 336.469917 826.248748 330.364874 826.248748 324 
C 826.248748 317.635126 823.719957 311.530083 819.219311 307.029437 
C 814.718665 302.528791 808.613623 300 802.248748 300 
C 795.883874 300 789.778831 302.528791 785.278186 307.029437 
C 780.77754 311.530083 778.248748 317.635126 778.248748 324 
C 778.248748 330.364874 780.77754 336.469917 785.278186 340.970563 
C 789.778831 345.471209 795.883874 348 802.248748 348 
z
" style="fill:#d9d34c;stroke:#d9d34c;stroke-linejoin:miter;"/>
   </g>
   <g id="patch_49">
    <path d="M 802.248748 132 
C 808.613623 132 814.718665 129.471209 819.219311 124.970563 
C 823.719957 120.469917 826.248748 114.364874 826.248748 108 
C 826.248748 101.635126 823.719957 95.530083 819.219311 91.029437 
C 814.718665 86.528791 808.613623 84 802.248748 84 
C 795.883874 84 789.778831 86.528791 785.278186 91.029437 
C 780.77754 95.530083 778.248748 101.635126 778.248748 108 
C 778.248748 114.364874 780.77754 120.469917 785.278186 124.970563 
C 789.778831 129.471209 795.883874 132 802.248748 132 
z
" style="fill:#d9d34c;stroke:#d9d34c;stroke-linejoin:miter;"/>
   </g>
   <g id="patch_50">
    <path d="M 802.248748 60 
C 808.613623 60 814.718665 57.471209 819.219311 52.970563 
C 823.719957 48.469917 826.248748 42.364874 826.248748 36 
C 826.248748 29.635126 823.719957 23.530083 819.219311 19.029437 
C 814.718665 14.528791 808.613623 12 802.248748 12 
C 795.883874 12 789.778831 14.528791 785.278186 19.029437 
C 780.77754 23.530083 778.248748 29.635126 778.248748 36 
C 778.248748 42.364874 780.77754 48.469917 785.278186 52.970563 
C 789.778831 57.471209 795.883874 60 802.248748 60 
z
" style="fill:#d9d34c;stroke:#d9d34c;stroke-linejoin:miter;"/>
   </g>
   <g id="patch_51">
    <path d="M 1271.019899 420 
C 1277.384774 420 1283.489816 417.471209 1287.990462 412.970563 
C 1292.491108 408.469917 1295.019899 402.364874 1295.019899 396 
C 1295.019899 389.635126 1292.491108 383.530083 1287.990462 379.029437 
C 1283.489816 374.528791 1277.384774 372 1271.019899 372 
C 1264.655025 372 1258.549982 374.528791 1254.049337 379.029437 
C 1249.548691 383.530083 1247.019899 389.635126 1247.019899 396 
C 1247.019899 402.364874 1249.548691 408.469917 1254.049337 412.970563 
C 1258.549982 417.471209 1264.655025 420 1271.019899 420 
z
" style="fill:#d9d34c;stroke:#d9d34c;stroke-linejoin:miter;"/>
   </g>
   <g id="patch_52">
    <path d="M 1271.019899 348 
C 1277.384774 348 1283.489816 345.471209 1287.990462 340.970563 
C 1292.491108 336.469917 1295.019899 330.364874 1295.019899 324 
C 1295.019899 317.635126 1292.491108 311.530083 1287.990462 307.029437 
C 1283.489816 302.528791 1277.384774 300 1271.019899 300 
C 1264.655025 300 1258.549982 302.528791 1254.049337 307.029437 
C 1249.548691 311.530083 1247.019899 317.635126 1247.019899 324 
C 1247.019899 330.364874 1249.548691 336.469917 1254.049337 340.970563 
C 1258.549982 345.471209 1264.655025 348 1271.019899 348 
z
" style="fill:#d9d34c;stroke:#d9d34c;stroke-linejoin:miter;"/>
   </g>
   <g id="patch_53">
    <path d="M 1271.019899 276 
C 1277.384774 276 1283.489816 273.471209 1287.990462 268.970563 
C 1292.491108 264.469917 1295.019899 258.364874 1295.019899 252 
C 1295.019899 245.635126 1292.491108 239.530083 1287.990462 235.029437 
C 1283.489816 230.528791 1277.384774 228 1271.019899 228 
C 1264.655025 228 1258.549982 230.528791 1254.049337 235.029437 
C 1249.548691 239.530083 1247.019899 245.635126 1247.019899 252 
C 1247.019899 258.364874 1249.548691 264.469917 1254.049337 268.970563 
C 1258.549982 273.471209 1264.655025 276 1271.019899 276 
z
" style="fill:#d9d34c;stroke:#d9d34c;stroke-linejoin:miter;"/>
   </g>
   <g id="patch_54">
    <path d="M 1271.019899 204 
C 1277.384774 204 1283.489816 201.471209 1287.990462 196.970563 
C 1292.491108 192.469917 1295.019899 186.364874 1295.019899 180 
C 1295.019899 173.635126 1292.491108 167.530083 1287.990462 163.029437 
C 1283.489816 158.528791 1277.384774 156 1271.019899 156 
C 1264.655025 156 1258.549982 158.528791 1254.049337 163.029437 
C 1249.548691 167.530083 1247.019899 173.635126 1247.019899 180 
C 1247.019899 186.364874 1249.548691 192.469917 1254.049337 196.970563 
C 1258.549982 201.471209 1264.655025 204 1271.019899 204 
z
" style="fill:#d9d34c;stroke:#d9d34c;stroke-linejoin:miter;"/>
   </g>
   <g id="patch_55">
    <path d="M 1271.019899 132 
C 1277.384774 132 1283.489816 129.471209 1287.990462 124.970563 
C 1292.491108 120.469917 1295.019899 114.364874 1295.019899 108 
C 1295.019899 101.635126 1292.491108 95.530083 1287.990462 91.029437 
C 1283.489816 86.528791 1277.384774 84 1271.019899 84 
C 1264.655025 84 1258.549982 86.528791 1254.049337 91.029437 
C 1249.548691 95.530083 1247.019899 101.635126 1247.019899 108 
C 1247.019899 114.364874 1249.548691 120.469917 1254.049337 124.970563 
C 1258.549982 129.471209 1264.655025 132 1271.019899 132 
z
" style="fill:#d9d34c;stroke:#d9d34c;stroke-linejoin:miter;"/>
   </g>
   <g id="patch_56">
    <path d="M 1271.019899 60 
C 1277.384774 60 1283.489816 57.471209 1287.990462 52.970563 
C 1292.491108 48.469917 1295.019899 42.364874 1295.019899 36 
C 1295.019899 29.635126 1292.491108 23.530083 1287.990462 19.029437 
C 1283.489816 14.528791 1277.384774 12 1271.019899 12 
C 1264.655025 12 1258.549982 14.528791 1254.049337 19.029437 
C 1249.548691 23.530083 1247.019899 29.635126 1247.019899 36 
C 1247.019899 42.364874 1249.548691 48.469917 1254.049337 52.970563 
C 1258.549982 57.471209 1264.655025 60 1271.019899 60 
z
" style="fill:#d9d34c;stroke:#d9d34c;stroke-linejoin:miter;"/>
   </g>
   <g id="text_36">
    <!-- E1(5) -->
    <g style="fill:#ffffff;" transform="translate(64.881667 398.943333)scale(0.106667 -0.106667)">
     <use xlink:href="#DejaVuSans-69"/>
     <use x="63.183594" xlink:href="#DejaVuSans-49"/>
     <use x="126.806641" xlink:href="#DejaVuSans-40"/>
     <use x="165.820312" xlink:href="#DejaVuSans-53"/>
     <use x="229.443359" xlink:href="#DejaVuSans-41"/>
    </g>
   </g>
   <g id="text_37">
    <!-- A1(R) -->
    <defs>
     <path d="M 34.1875 63.1875 
L 20.796875 26.90625 
L 47.609375 26.90625 
z
M 28.609375 72.90625 
L 39.796875 72.90625 
L 67.578125 0 
L 57.328125 0 
L 50.6875 18.703125 
L 17.828125 18.703125 
L 11.1875 0 
L 0.78125 0 
z
" id="DejaVuSans-65"/>
    </defs>
    <g style="fill:#ffffff;" transform="translate(64.290833 326.943333)scale(0.106667 -0.106667)">
     <use xlink:href="#DejaVuSans-65"/>
     <use x="68.408203" xlink:href="#DejaVuSans-49"/>
     <use x="132.03125" xlink:href="#DejaVuSans-40"/>
     <use x="171.044922" xlink:href="#DejaVuSans-82"/>
     <use x="240.527344" xlink:href="#DejaVuSans-41"/>
    </g>
   </g>
   <g id="text_38">
    <!-- D2(11) -->
    <g style="fill:#ffffff;" transform="translate(60.751667 254.943333)scale(0.106667 -0.106667)">
     <use xlink:href="#DejaVuSans-68"/>
     <use x="77.001953" xlink:href="#DejaVuSans-50"/>
     <use x="140.625" xlink:href="#DejaVuSans-40"/>
     <use x="179.638672" xlink:href="#DejaVuSans-49"/>
     <use x="243.261719" xlink:href="#DejaVuSans-49"/>
     <use x="306.884766" xlink:href="#DejaVuSans-41"/>
    </g>
   </g>
   <g id="text_39">
    <!-- G2(7) -->
    <defs>
     <path d="M 8.203125 72.90625 
L 55.078125 72.90625 
L 55.078125 68.703125 
L 28.609375 0 
L 18.3125 0 
L 43.21875 64.59375 
L 8.203125 64.59375 
z
" id="DejaVuSans-55"/>
    </defs>
    <g style="fill:#ffffff;" transform="translate(64.119167 182.943333)scale(0.106667 -0.106667)">
     <use xlink:href="#DejaVuSans-71"/>
     <use x="77.490234" xlink:href="#DejaVuSans-50"/>
     <use x="141.113281" xlink:href="#DejaVuSans-40"/>
     <use x="180.126953" xlink:href="#DejaVuSans-55"/>
     <use x="243.75" xlink:href="#DejaVuSans-41"/>
    </g>
   </g>
   <g id="text_40">
    <!-- E3(5) -->
    <g style="fill:#ffffff;" transform="translate(64.881667 38.943333)scale(0.106667 -0.106667)">
     <use xlink:href="#DejaVuSans-69"/>
     <use x="63.183594" xlink:href="#DejaVuSans-51"/>
     <use x="126.806641" xlink:href="#DejaVuSans-40"/>
     <use x="165.820312" xlink:href="#DejaVuSans-53"/>
     <use x="229.443359" xlink:href="#DejaVuSans-41"/>
    </g>
   </g>
   <g id="text_41">
    <!-- C3(3) -->
    <g style="fill:#ffffff;" transform="translate(261.398422 110.943333)scale(0.106667 -0.106667)">
     <use xlink:href="#DejaVuSans-67"/>
     <use x="69.824219" xlink:href="#DejaVuSans-51"/>
     <use x="133.447266" xlink:href="#DejaVuSans-40"/>
     <use x="172.460938" xlink:href="#DejaVuSans-51"/>
     <use x="236.083984" xlink:href="#DejaVuSans-41"/>
    </g>
   </g>
   <g id="text_42">
    <!-- E2(5) -->
    <g style="fill:#ffffff;" transform="translate(532.437696 254.943333)scale(0.106667 -0.106667)">
     <use xlink:href="#DejaVuSans-69"/>
     <use x="63.183594" xlink:href="#DejaVuSans-50"/>
     <use x="126.806641" xlink:href="#DejaVuSans-40"/>
     <use x="165.820312" xlink:href="#DejaVuSans-53"/>
     <use x="229.443359" xlink:href="#DejaVuSans-41"/>
    </g>
   </g>
   <g id="text_43">
    <!-- A2(R) -->
    <g style="fill:#ffffff;" transform="translate(531.846862 182.943333)scale(0.106667 -0.106667)">
     <use xlink:href="#DejaVuSans-65"/>
     <use x="68.408203" xlink:href="#DejaVuSans-50"/>
     <use x="132.03125" xlink:href="#DejaVuSans-40"/>
     <use x="171.044922" xlink:href="#DejaVuSans-82"/>
     <use x="240.527344" xlink:href="#DejaVuSans-41"/>
    </g>
   </g>
   <g id="text_44">
    <!-- G1(7) -->
    <g style="fill:#ffffff;" transform="translate(787.167915 398.943333)scale(0.106667 -0.106667)">
     <use xlink:href="#DejaVuSans-71"/>
     <use x="77.490234" xlink:href="#DejaVuSans-49"/>
     <use x="141.113281" xlink:href="#DejaVuSans-40"/>
     <use x="180.126953" xlink:href="#DejaVuSans-55"/>
     <use x="243.75" xlink:href="#DejaVuSans-41"/>
    </g>
   </g>
   <g id="text_45">
    <!-- C2(3) -->
    <g style="fill:#ffffff;" transform="translate(787.576248 326.943333)scale(0.106667 -0.106667)">
     <use xlink:href="#DejaVuSans-67"/>
     <use x="69.824219" xlink:href="#DejaVuSans-50"/>
     <use x="133.447266" xlink:href="#DejaVuSans-40"/>
     <use x="172.460938" xlink:href="#DejaVuSans-51"/>
     <use x="236.083984" xlink:href="#DejaVuSans-41"/>
    </g>
   </g>
   <g id="text_46">
    <!-- D3(11) -->
    <g style="fill:#ffffff;" transform="translate(783.800415 110.943333)scale(0.106667 -0.106667)">
     <use xlink:href="#DejaVuSans-68"/>
     <use x="77.001953" xlink:href="#DejaVuSans-51"/>
     <use x="140.625" xlink:href="#DejaVuSans-40"/>
     <use x="179.638672" xlink:href="#DejaVuSans-49"/>
     <use x="243.261719" xlink:href="#DejaVuSans-49"/>
     <use x="306.884766" xlink:href="#DejaVuSans-41"/>
    </g>
   </g>
   <g id="text_47">
    <!-- G3(7) -->
    <g style="fill:#ffffff;" transform="translate(787.167915 38.943333)scale(0.106667 -0.106667)">
     <use xlink:href="#DejaVuSans-71"/>
     <use x="77.490234" xlink:href="#DejaVuSans-51"/>
     <use x="141.113281" xlink:href="#DejaVuSans-40"/>
     <use x="180.126953" xlink:href="#DejaVuSans-55"/>
     <use x="243.75" xlink:href="#DejaVuSans-41"/>
    </g>
   </g>
   <g id="text_48">
    <!-- A1(R) -->
    <g style="fill:#ffffff;" transform="translate(1256.110733 398.943333)scale(0.106667 -0.106667)">
     <use xlink:href="#DejaVuSans-65"/>
     <use x="68.408203" xlink:href="#DejaVuSans-49"/>
     <use x="132.03125" xlink:href="#DejaVuSans-40"/>
     <use x="171.044922" xlink:href="#DejaVuSans-82"/>
     <use x="240.527344" xlink:href="#DejaVuSans-41"/>
    </g>
   </g>
   <g id="text_49">
    <!-- D2(11) -->
    <g style="fill:#ffffff;" transform="translate(1252.571566 326.943333)scale(0.106667 -0.106667)">
     <use xlink:href="#DejaVuSans-68"/>
     <use x="77.001953" xlink:href="#DejaVuSans-50"/>
     <use x="140.625" xlink:href="#DejaVuSans-40"/>
     <use x="179.638672" xlink:href="#DejaVuSans-49"/>
     <use x="243.261719" xlink:href="#DejaVuSans-49"/>
     <use x="306.884766" xlink:href="#DejaVuSans-41"/>
    </g>
   </g>
   <g id="text_50">
    <!-- G2(7) -->
    <g style="fill:#ffffff;" transform="translate(1255.939066 254.943333)scale(0.106667 -0.106667)">
     <use xlink:href="#DejaVuSans-71"/>
     <use x="77.490234" xlink:href="#DejaVuSans-50"/>
     <use x="141.113281" xlink:href="#DejaVuSans-40"/>
     <use x="180.126953" xlink:href="#DejaVuSans-55"/>
     <use x="243.75" xlink:href="#DejaVuSans-41"/>
    </g>
   </g>
   <g id="text_51">
    <!-- C3(3) -->
    <g style="fill:#ffffff;" transform="translate(1256.347399 182.943333)scale(0.106667 -0.106667)">
     <use xlink:href="#DejaVuSans-67"/>
     <use x="69.824219" xlink:href="#DejaVuSans-51"/>
     <use x="133.447266" xlink:href="#DejaVuSans-40"/>
     <use x="172.460938" xlink:href="#DejaVuSans-51"/>
     <use x="236.083984" xlink:href="#DejaVuSans-41"/>
    </g>
   </g>
   <g id="text_52">
    <!-- E3(5) -->
    <g style="fill:#ffffff;" transform="translate(1256.701566 110.943333)scale(0.106667 -0.106667)">
     <use xlink:href="#DejaVuSans-69"/>
     <use x="63.183594" xlink:href="#DejaVuSans-51"/>
     <use x="126.806641" xlink:href="#DejaVuSans-40"/>
     <use x="165.820312" xlink:href="#DejaVuSans-53"/>
     <use x="229.443359" xlink:href="#DejaVuSans-41"/>
    </g>
   </g>
   <g id="text_53">
    <!-- A3(R) -->
    <g style="fill:#ffffff;" transform="translate(1256.110733 38.943333)scale(0.106667 -0.106667)">
     <use xlink:href="#DejaVuSans-65"/>
     <use x="68.408203" xlink:href="#DejaVuSans-51"/>
     <use x="132.03125" xlink:href="#DejaVuSans-40"/>
     <use x="171.044922" xlink:href="#DejaVuSans-82"/>
     <use x="240.527344" xlink:href="#DejaVuSans-41"/>
    </g>
   </g>
   <g id="patch_57">
    <path d="M 93.6 420 
C 99.964874 420 106.069917 417.471209 110.570563 412.970563 
C 115.071209 408.469917 117.6 402.364874 117.6 396 
C 117.6 389.635126 115.071209 383.530083 110.570563 379.029437 
C 106.069917 374.528791 99.964874 372 93.6 372 
C 87.235126 372 81.130083 374.528791 76.629437 379.029437 
C 72.128791 383.530083 69.6 389.635126 69.6 396 
C 69.6 402.364874 72.128791 408.469917 76.629437 412.970563 
C 81.130083 417.471209 87.235126 420 93.6 420 
z
" style="fill:#9fd94c;stroke:#9fd94c;stroke-linejoin:miter;"/>
   </g>
   <g id="patch_58">
    <path d="M 93.6 276 
C 99.964874 276 106.069917 273.471209 110.570563 268.970563 
C 115.071209 264.469917 117.6 258.364874 117.6 252 
C 117.6 245.635126 115.071209 239.530083 110.570563 235.029437 
C 106.069917 230.528791 99.964874 228 93.6 228 
C 87.235126 228 81.130083 230.528791 76.629437 235.029437 
C 72.128791 239.530083 69.6 245.635126 69.6 252 
C 69.6 258.364874 72.128791 264.469917 76.629437 268.970563 
C 81.130083 273.471209 87.235126 276 93.6 276 
z
" style="fill:#9fd94c;stroke:#9fd94c;stroke-linejoin:miter;"/>
   </g>
   <g id="patch_59">
    <path d="M 93.6 204 
C 99.964874 204 106.069917 201.471209 110.570563 196.970563 
C 115.071209 192.469917 117.6 186.364874 117.6 180 
C 117.6 173.635126 115.071209 167.530083 110.570563 163.029437 
C 106.069917 158.528791 99.964874 156 93.6 156 
C 87.235126 156 81.130083 158.528791 76.629437 163.029437 
C 72.128791 167.530083 69.6 173.635126 69.6 180 
C 69.6 186.364874 72.128791 192.469917 76.629437 196.970563 
C 81.130083 201.471209 87.235126 204 93.6 204 
z
" style="fill:#9fd94c;stroke:#9fd94c;stroke-linejoin:miter;"/>
   </g>
   <g id="patch_60">
    <path d="M 93.6 132 
C 99.964874 132 106.069917 129.471209 110.570563 124.970563 
C 115.071209 120.469917 117.6 114.364874 117.6 108 
C 117.6 101.635126 115.071209 95.530083 110.570563 91.029437 
C 106.069917 86.528791 99.964874 84 93.6 84 
C 87.235126 84 81.130083 86.528791 76.629437 91.029437 
C 72.128791 95.530083 69.6 101.635126 69.6 108 
C 69.6 114.364874 72.128791 120.469917 76.629437 124.970563 
C 81.130083 129.471209 87.235126 132 93.6 132 
z
" style="fill:#9fd94c;stroke:#9fd94c;stroke-linejoin:miter;"/>
   </g>
   <g id="patch_61">
    <path d="M 93.6 60 
C 99.964874 60 106.069917 57.471209 110.570563 52.970563 
C 115.071209 48.469917 117.6 42.364874 117.6 36 
C 117.6 29.635126 115.071209 23.530083 110.570563 19.029437 
C 106.069917 14.528791 99.964874 12 93.6 12 
C 87.235126 12 81.130083 14.528791 76.629437 19.029437 
C 72.128791 23.530083 69.6 29.635126 69.6 36 
C 69.6 42.364874 72.128791 48.469917 76.629437 52.970563 
C 81.130083 57.471209 87.235126 60 93.6 60 
z
" style="fill:#9fd94c;stroke:#9fd94c;stroke-linejoin:miter;"/>
   </g>
   <g id="patch_62">
    <path d="M 599.635304 348 
C 606.000179 348 612.105221 345.471209 616.605867 340.970563 
C 621.106513 336.469917 623.635304 330.364874 623.635304 324 
C 623.635304 317.635126 621.106513 311.530083 616.605867 307.029437 
C 612.105221 302.528791 606.000179 300 599.635304 300 
C 593.27043 300 587.165387 302.528791 582.664741 307.029437 
C 578.164096 311.530083 575.635304 317.635126 575.635304 324 
C 575.635304 330.364874 578.164096 336.469917 582.664741 340.970563 
C 587.165387 345.471209 593.27043 348 599.635304 348 
z
" style="fill:#9fd94c;stroke:#9fd94c;stroke-linejoin:miter;"/>
   </g>
   <g id="patch_63">
    <path d="M 599.635304 276 
C 606.000179 276 612.105221 273.471209 616.605867 268.970563 
C 621.106513 264.469917 623.635304 258.364874 623.635304 252 
C 623.635304 245.635126 621.106513 239.530083 616.605867 235.029437 
C 612.105221 230.528791 606.000179 228 599.635304 228 
C 593.27043 228 587.165387 230.528791 582.664741 235.029437 
C 578.164096 239.530083 575.635304 245.635126 575.635304 252 
C 575.635304 258.364874 578.164096 264.469917 582.664741 268.970563 
C 587.165387 273.471209 593.27043 276 599.635304 276 
z
" style="fill:#9fd94c;stroke:#9fd94c;stroke-linejoin:miter;"/>
   </g>
   <g id="patch_64">
    <path d="M 852.160138 420 
C 858.525012 420 864.630055 417.471209 869.130701 412.970563 
C 873.631346 408.469917 876.160138 402.364874 876.160138 396 
C 876.160138 389.635126 873.631346 383.530083 869.130701 379.029437 
C 864.630055 374.528791 858.525012 372 852.160138 372 
C 845.795263 372 839.690221 374.528791 835.189575 379.029437 
C 830.688929 383.530083 828.160138 389.635126 828.160138 396 
C 828.160138 402.364874 830.688929 408.469917 835.189575 412.970563 
C 839.690221 417.471209 845.795263 420 852.160138 420 
z
" style="fill:#9fd94c;stroke:#9fd94c;stroke-linejoin:miter;"/>
   </g>
   <g id="patch_65">
    <path d="M 852.160138 132 
C 858.525012 132 864.630055 129.471209 869.130701 124.970563 
C 873.631346 120.469917 876.160138 114.364874 876.160138 108 
C 876.160138 101.635126 873.631346 95.530083 869.130701 91.029437 
C 864.630055 86.528791 858.525012 84 852.160138 84 
C 845.795263 84 839.690221 86.528791 835.189575 91.029437 
C 830.688929 95.530083 828.160138 101.635126 828.160138 108 
C 828.160138 114.364874 830.688929 120.469917 835.189575 124.970563 
C 839.690221 129.471209 845.795263 132 852.160138 132 
z
" style="fill:#9fd94c;stroke:#9fd94c;stroke-linejoin:miter;"/>
   </g>
   <g id="patch_66">
    <path d="M 852.160138 60 
C 858.525012 60 864.630055 57.471209 869.130701 52.970563 
C 873.631346 48.469917 876.160138 42.364874 876.160138 36 
C 876.160138 29.635126 873.631346 23.530083 869.130701 19.029437 
C 864.630055 14.528791 858.525012 12 852.160138 12 
C 845.795263 12 839.690221 14.528791 835.189575 19.029437 
C 830.688929 23.530083 828.160138 29.635126 828.160138 36 
C 828.160138 42.364874 830.688929 48.469917 835.189575 52.970563 
C 839.690221 57.471209 845.795263 60 852.160138 60 
z
" style="fill:#9fd94c;stroke:#9fd94c;stroke-linejoin:miter;"/>
   </g>
   <g id="patch_67">
    <path d="M 1090.511842 204 
C 1096.876716 204 1102.981759 201.471209 1107.482405 196.970563 
C 1111.98305 192.469917 1114.511842 186.364874 1114.511842 180 
C 1114.511842 173.635126 1111.98305 167.530083 1107.482405 163.029437 
C 1102.981759 158.528791 1096.876716 156 1090.511842 156 
C 1084.146967 156 1078.041925 158.528791 1073.541279 163.029437 
C 1069.040633 167.530083 1066.511842 173.635126 1066.511842 180 
C 1066.511842 186.364874 1069.040633 192.469917 1073.541279 196.970563 
C 1078.041925 201.471209 1084.146967 204 1090.511842 204 
z
" style="fill:#9fd94c;stroke:#9fd94c;stroke-linejoin:miter;"/>
   </g>
   <g id="patch_68">
    <path d="M 1315.485892 348 
C 1321.850767 348 1327.955809 345.471209 1332.456455 340.970563 
C 1336.957101 336.469917 1339.485892 330.364874 1339.485892 324 
C 1339.485892 317.635126 1336.957101 311.530083 1332.456455 307.029437 
C 1327.955809 302.528791 1321.850767 300 1315.485892 300 
C 1309.121018 300 1303.015976 302.528791 1298.51533 307.029437 
C 1294.014684 311.530083 1291.485892 317.635126 1291.485892 324 
C 1291.485892 330.364874 1294.014684 336.469917 1298.51533 340.970563 
C 1303.015976 345.471209 1309.121018 348 1315.485892 348 
z
" style="fill:#9fd94c;stroke:#9fd94c;stroke-linejoin:miter;"/>
   </g>
   <g id="patch_69">
    <path d="M 1315.485892 276 
C 1321.850767 276 1327.955809 273.471209 1332.456455 268.970563 
C 1336.957101 264.469917 1339.485892 258.364874 1339.485892 252 
C 1339.485892 245.635126 1336.957101 239.530083 1332.456455 235.029437 
C 1327.955809 230.528791 1321.850767 228 1315.485892 228 
C 1309.121018 228 1303.015976 230.528791 1298.51533 235.029437 
C 1294.014684 239.530083 1291.485892 245.635126 1291.485892 252 
C 1291.485892 258.364874 1294.014684 264.469917 1298.51533 268.970563 
C 1303.015976 273.471209 1309.121018 276 1315.485892 276 
z
" style="fill:#9fd94c;stroke:#9fd94c;stroke-linejoin:miter;"/>
   </g>
   <g id="patch_70">
    <path d="M 1315.485892 132 
C 1321.850767 132 1327.955809 129.471209 1332.456455 124.970563 
C 1336.957101 120.469917 1339.485892 114.364874 1339.485892 108 
C 1339.485892 101.635126 1336.957101 95.530083 1332.456455 91.029437 
C 1327.955809 86.528791 1321.850767 84 1315.485892 84 
C 1309.121018 84 1303.015976 86.528791 1298.51533 91.029437 
C 1294.014684 95.530083 1291.485892 101.635126 1291.485892 108 
C 1291.485892 114.364874 1294.014684 120.469917 1298.51533 124.970563 
C 1303.015976 129.471209 1309.121018 132 1315.485892 132 
z
" style="fill:#9fd94c;stroke:#9fd94c;stroke-linejoin:miter;"/>
   </g>
   <g id="text_54">
    <!-- E1(R) -->
    <g style="fill:#ffffff;" transform="translate(78.969167 398.943333)scale(0.106667 -0.106667)">
     <use xlink:href="#DejaVuSans-69"/>
     <use x="63.183594" xlink:href="#DejaVuSans-49"/>
     <use x="126.806641" xlink:href="#DejaVuSans-40"/>
     <use x="165.820312" xlink:href="#DejaVuSans-82"/>
     <use x="235.302734" xlink:href="#DejaVuSans-41"/>
    </g>
   </g>
   <g id="text_55">
    <!-- D2(7) -->
    <g style="fill:#ffffff;" transform="translate(78.545 254.943333)scale(0.106667 -0.106667)">
     <use xlink:href="#DejaVuSans-68"/>
     <use x="77.001953" xlink:href="#DejaVuSans-50"/>
     <use x="140.625" xlink:href="#DejaVuSans-40"/>
     <use x="179.638672" xlink:href="#DejaVuSans-55"/>
     <use x="243.261719" xlink:href="#DejaVuSans-41"/>
    </g>
   </g>
   <g id="text_56">
    <!-- G2(3) -->
    <g style="fill:#ffffff;" transform="translate(78.519167 182.943333)scale(0.106667 -0.106667)">
     <use xlink:href="#DejaVuSans-71"/>
     <use x="77.490234" xlink:href="#DejaVuSans-50"/>
     <use x="141.113281" xlink:href="#DejaVuSans-40"/>
     <use x="180.126953" xlink:href="#DejaVuSans-51"/>
     <use x="243.75" xlink:href="#DejaVuSans-41"/>
    </g>
   </g>
   <g id="text_57">
    <!-- B2(5) -->
    <g style="fill:#ffffff;" transform="translate(78.9925 110.943333)scale(0.106667 -0.106667)">
     <use xlink:href="#DejaVuSans-66"/>
     <use x="68.603516" xlink:href="#DejaVuSans-50"/>
     <use x="132.226562" xlink:href="#DejaVuSans-40"/>
     <use x="171.240234" xlink:href="#DejaVuSans-53"/>
     <use x="234.863281" xlink:href="#DejaVuSans-41"/>
    </g>
   </g>
   <g id="text_58">
    <!-- E3(R) -->
    <g style="fill:#ffffff;" transform="translate(78.969167 38.943333)scale(0.106667 -0.106667)">
     <use xlink:href="#DejaVuSans-69"/>
     <use x="63.183594" xlink:href="#DejaVuSans-51"/>
     <use x="126.806641" xlink:href="#DejaVuSans-40"/>
     <use x="165.820312" xlink:href="#DejaVuSans-82"/>
     <use x="235.302734" xlink:href="#DejaVuSans-41"/>
    </g>
   </g>
   <g id="text_59">
    <!-- B1(5) -->
    <g style="fill:#ffffff;" transform="translate(585.027804 326.943333)scale(0.106667 -0.106667)">
     <use xlink:href="#DejaVuSans-66"/>
     <use x="68.603516" xlink:href="#DejaVuSans-49"/>
     <use x="132.226562" xlink:href="#DejaVuSans-40"/>
     <use x="171.240234" xlink:href="#DejaVuSans-53"/>
     <use x="234.863281" xlink:href="#DejaVuSans-41"/>
    </g>
   </g>
   <g id="text_60">
    <!-- E2(R) -->
    <g style="fill:#ffffff;" transform="translate(585.004471 254.943333)scale(0.106667 -0.106667)">
     <use xlink:href="#DejaVuSans-69"/>
     <use x="63.183594" xlink:href="#DejaVuSans-50"/>
     <use x="126.806641" xlink:href="#DejaVuSans-40"/>
     <use x="165.820312" xlink:href="#DejaVuSans-82"/>
     <use x="235.302734" xlink:href="#DejaVuSans-41"/>
    </g>
   </g>
   <g id="text_61">
    <!-- G1(3) -->
    <g style="fill:#ffffff;" transform="translate(837.079305 398.943333)scale(0.106667 -0.106667)">
     <use xlink:href="#DejaVuSans-71"/>
     <use x="77.490234" xlink:href="#DejaVuSans-49"/>
     <use x="141.113281" xlink:href="#DejaVuSans-40"/>
     <use x="180.126953" xlink:href="#DejaVuSans-51"/>
     <use x="243.75" xlink:href="#DejaVuSans-41"/>
    </g>
   </g>
   <g id="text_62">
    <!-- D3(7) -->
    <g style="fill:#ffffff;" transform="translate(837.105138 110.943333)scale(0.106667 -0.106667)">
     <use xlink:href="#DejaVuSans-68"/>
     <use x="77.001953" xlink:href="#DejaVuSans-51"/>
     <use x="140.625" xlink:href="#DejaVuSans-40"/>
     <use x="179.638672" xlink:href="#DejaVuSans-55"/>
     <use x="243.261719" xlink:href="#DejaVuSans-41"/>
    </g>
   </g>
   <g id="text_63">
    <!-- G3(3) -->
    <g style="fill:#ffffff;" transform="translate(837.079305 38.943333)scale(0.106667 -0.106667)">
     <use xlink:href="#DejaVuSans-71"/>
     <use x="77.490234" xlink:href="#DejaVuSans-51"/>
     <use x="141.113281" xlink:href="#DejaVuSans-40"/>
     <use x="180.126953" xlink:href="#DejaVuSans-51"/>
     <use x="243.75" xlink:href="#DejaVuSans-41"/>
    </g>
   </g>
   <g id="text_64">
    <!-- B2(5) -->
    <g style="fill:#ffffff;" transform="translate(1075.904342 182.943333)scale(0.106667 -0.106667)">
     <use xlink:href="#DejaVuSans-66"/>
     <use x="68.603516" xlink:href="#DejaVuSans-50"/>
     <use x="132.226562" xlink:href="#DejaVuSans-40"/>
     <use x="171.240234" xlink:href="#DejaVuSans-53"/>
     <use x="234.863281" xlink:href="#DejaVuSans-41"/>
    </g>
   </g>
   <g id="text_65">
    <!-- D2(7) -->
    <g style="fill:#ffffff;" transform="translate(1300.430892 326.943333)scale(0.106667 -0.106667)">
     <use xlink:href="#DejaVuSans-68"/>
     <use x="77.001953" xlink:href="#DejaVuSans-50"/>
     <use x="140.625" xlink:href="#DejaVuSans-40"/>
     <use x="179.638672" xlink:href="#DejaVuSans-55"/>
     <use x="243.261719" xlink:href="#DejaVuSans-41"/>
    </g>
   </g>
   <g id="text_66">
    <!-- G2(3) -->
    <g style="fill:#ffffff;" transform="translate(1300.405059 254.943333)scale(0.106667 -0.106667)">
     <use xlink:href="#DejaVuSans-71"/>
     <use x="77.490234" xlink:href="#DejaVuSans-50"/>
     <use x="141.113281" xlink:href="#DejaVuSans-40"/>
     <use x="180.126953" xlink:href="#DejaVuSans-51"/>
     <use x="243.75" xlink:href="#DejaVuSans-41"/>
    </g>
   </g>
   <g id="text_67">
    <!-- E3(R) -->
    <g style="fill:#ffffff;" transform="translate(1300.855059 110.943333)scale(0.106667 -0.106667)">
     <use xlink:href="#DejaVuSans-69"/>
     <use x="63.183594" xlink:href="#DejaVuSans-51"/>
     <use x="126.806641" xlink:href="#DejaVuSans-40"/>
     <use x="165.820312" xlink:href="#DejaVuSans-82"/>
     <use x="235.302734" xlink:href="#DejaVuSans-41"/>
    </g>
   </g>
  </g>
 </g>
 <defs>
  <clipPath id="p4aaaa12f7b">
   <rect height="432" width="1323.951885" x="36" y="0"/>
  </clipPath>
 </defs>
</svg>
